<svg width="25" height="24" viewBox="0 0 25 24" fill="none" xmlns="http://www.w3.org/2000/svg">
<path d="M2.1875 11.75C2.1875 7.97876 2.1875 6.09315 3.35907 4.92157C4.53065 3.75 6.41626 3.75 10.1875 3.75H14.1875C17.9587 3.75 19.8444 3.75 21.0159 4.92157C22.1875 6.09315 22.1875 7.97876 22.1875 11.75V13.75C22.1875 17.5212 22.1875 19.4069 21.0159 20.5784C19.8444 21.75 17.9587 21.75 14.1875 21.75H10.1875C6.41626 21.75 4.53065 21.75 3.35907 20.5784C2.1875 19.4069 2.1875 17.5212 2.1875 13.75V11.75Z" stroke="black"/>
<path d="M7.1875 3.75V2.25" stroke="black" stroke-linecap="round"/>
<path d="M17.1875 3.75V2.25" stroke="black" stroke-linecap="round"/>
<path d="M2.6875 8.75H21.6875" stroke="black" stroke-linecap="round"/>
</svg>
