<svg width="142" height="141" viewBox="0 0 142 141" fill="none" xmlns="http://www.w3.org/2000/svg">
<path fill-rule="evenodd" clip-rule="evenodd" d="M70.6797 140.885C109.715 140.885 141.359 109.347 141.359 70.4425C141.359 31.5382 109.715 0 70.6797 0C53.1665 0 46.5094 20.9353 34.1619 31.4488C18.9879 44.369 0 48.9926 0 70.4425C0 109.347 31.6444 140.885 70.6797 140.885Z" fill="#EFEFEF"/>
<g filter="url(#filter0_f_2397_2462)">
<path d="M108.376 46.9609H47.1199C45.1682 46.9609 43.5859 48.3093 43.5859 49.9726V113.218C43.5859 114.881 45.1682 116.229 47.1199 116.229H108.376C110.327 116.229 111.91 114.881 111.91 113.218V49.9726C111.91 48.3093 110.327 46.9609 108.376 46.9609Z" fill="white"/>
<path d="M108.376 46.9609H47.1199C45.1682 46.9609 43.5859 48.3093 43.5859 49.9726V113.218C43.5859 114.881 45.1682 116.229 47.1199 116.229H108.376C110.327 116.229 111.91 114.881 111.91 113.218V49.9726C111.91 48.3093 110.327 46.9609 108.376 46.9609Z" fill="#E9E9E9"/>
</g>
<path d="M41.2305 46.9626C41.2305 41.7754 45.4497 37.5703 50.6544 37.5703H95.4182C100.623 37.5703 104.842 41.7754 104.842 46.9626V97.4464C104.842 102.634 100.623 106.839 95.4182 106.839H50.6544C45.4497 106.839 41.2305 102.634 41.2305 97.4464V46.9626Z" fill="white"/>
<path fill-rule="evenodd" clip-rule="evenodd" d="M63.4365 50.2149C61.7981 50.2143 60.674 50.214 59.6748 50.4879C57.577 51.063 55.822 52.5017 54.8466 54.446C54.3821 55.3721 54.162 56.4745 53.8412 58.0811L52.5739 64.4181C52.1001 66.7868 52.7493 69.0775 54.1153 70.7951L54.1153 76.4097C54.1153 80.1687 54.1153 83.1461 54.4285 85.4763C54.751 87.8744 55.4303 89.8154 56.961 91.3461C58.4917 92.8769 60.4328 93.5562 62.8309 93.8786C65.1611 94.1919 68.1385 94.1919 71.8975 94.1918H74.1737C77.9327 94.1919 80.9101 94.1919 83.2403 93.8786C85.6384 93.5562 87.5795 92.8769 89.1102 91.3461C90.6409 89.8154 91.3202 87.8744 91.6427 85.4763C91.9559 83.1461 91.9559 80.1687 91.9559 76.4097V70.7951C93.322 69.0775 93.9711 66.7868 93.4974 64.4181L92.23 58.0811C91.9093 56.4745 91.6892 55.3721 91.2246 54.446C90.2493 52.5017 88.4943 51.063 86.3964 50.4879C85.3973 50.214 84.2731 50.2143 82.6348 50.2149H63.4365ZM85.8574 73.7375C86.9391 73.7375 87.9614 73.5197 88.8877 73.1287V76.2943C88.8877 80.1945 88.8845 82.9654 88.6019 85.0674C88.3252 87.1253 87.8063 88.311 86.9407 89.1766C86.075 90.0423 84.8894 90.5611 82.8315 90.8378C81.9203 90.9603 80.8834 91.0303 79.6833 91.0703V85.4328C79.6833 84.5332 79.6833 83.7573 79.6256 83.1206C79.5646 82.4473 79.4295 81.7805 79.0667 81.1522C78.6628 80.4525 78.0818 79.8716 77.3822 79.4676C76.7538 79.1048 76.0871 78.9697 75.4137 78.9087C74.777 78.851 74.0011 78.851 73.1015 78.851H72.9697C72.0701 78.851 71.2942 78.851 70.6575 78.9087C69.9842 78.9697 69.3174 79.1048 68.6891 79.4676C67.9894 79.8716 67.4084 80.4525 67.0045 81.1522C66.6417 81.7805 66.5066 82.4473 66.4456 83.1206C66.3879 83.7573 66.3879 84.5332 66.3879 85.4328L66.3879 91.0703C65.1878 91.0303 64.1509 90.9603 63.2397 90.8378C61.1818 90.5611 59.9962 90.0423 59.1305 89.1766C58.2649 88.311 57.746 87.1253 57.4693 85.0674C57.1867 82.9654 57.1835 80.1945 57.1835 76.2943V73.1287C58.1098 73.5197 59.1321 73.7375 60.2139 73.7375C62.8196 73.7375 65.1493 72.4521 66.5681 70.4562C68.0193 72.4365 70.3625 73.7375 73.0352 73.7375C75.7081 73.7375 78.0515 72.4362 79.5028 70.4556C80.9214 72.4519 83.2514 73.7375 85.8574 73.7375ZM69.4561 91.1196C70.2505 91.1235 71.1008 91.1237 72.0129 91.1237H74.0583C74.9704 91.1237 75.8207 91.1235 76.6151 91.1196V85.4987C76.6151 84.5146 76.6136 83.8791 76.57 83.3975C76.5283 82.937 76.4578 82.7698 76.4096 82.6862C76.2749 82.453 76.0813 82.2594 75.8481 82.1247C75.7645 82.0765 75.5973 82.0061 75.1368 81.9643C74.6552 81.9207 74.0197 81.9192 73.0356 81.9192C72.0515 81.9192 71.416 81.9207 70.9344 81.9643C70.4739 82.0061 70.3067 82.0765 70.2231 82.1247C69.9899 82.2594 69.7963 82.453 69.6616 82.6862C69.6134 82.7698 69.5429 82.937 69.5012 83.3975C69.4576 83.8791 69.4561 84.5146 69.4561 85.4987V91.1196ZM66.2265 53.2831H63.6628C61.7106 53.2831 61.0344 53.2965 60.486 53.4469C59.2273 53.7919 58.1743 54.6552 57.5891 55.8217C57.3341 56.33 57.1883 56.9904 56.8055 58.9048L55.5824 65.0198C54.9979 67.9425 57.2334 70.6693 60.2139 70.6693C62.6404 70.6693 64.6722 68.8306 64.9136 66.4161L65.0539 65.0132L65.062 64.9272L66.2265 53.2831ZM68.1087 65.3L69.3104 53.2831H76.7605L77.9554 65.2325C78.2465 68.1434 75.9606 70.6693 73.0352 70.6693C70.1324 70.6693 67.8593 68.1824 68.1087 65.3ZM85.5853 53.4469C85.0368 53.2965 84.3607 53.2831 82.4084 53.2831H79.8443L81.1576 66.4161C81.3991 68.8306 83.4308 70.6693 85.8574 70.6693C88.8379 70.6693 91.0733 67.9425 90.4888 65.0198L89.2658 58.9048C88.8829 56.9904 88.7372 56.33 88.4822 55.8217C87.897 54.6552 86.844 53.7919 85.5853 53.4469Z" fill="#909090"/>
<defs>
<filter id="filter0_f_2397_2462" x="32.5859" y="35.9609" width="90.3242" height="91.2695" filterUnits="userSpaceOnUse" color-interpolation-filters="sRGB">
<feFlood flood-opacity="0" result="BackgroundImageFix"/>
<feBlend mode="normal" in="SourceGraphic" in2="BackgroundImageFix" result="shape"/>
<feGaussianBlur stdDeviation="5.5" result="effect1_foregroundBlur_2397_2462"/>
</filter>
</defs>
</svg>
