<svg width="24" height="24" viewBox="0 0 24 24" fill="none" xmlns="http://www.w3.org/2000/svg">
<path d="M12.0027 2V18M12.0027 22V18M12.0027 18L15.0027 21M12.0027 18L9.00269 21M15.0027 3L12.0027 6L9.00269 3" stroke="black" stroke-width="1.5" stroke-linecap="round"/>
<path d="M3.33978 7.00042L6.80389 9.00042M6.80389 9.00042L17.1962 15.0004M6.80389 9.00042L5.70581 4.90234M6.80389 9.00042L2.70581 10.0985M17.1962 15.0004L20.6603 17.0004M17.1962 15.0004L21.2943 13.9023M17.1962 15.0004L18.2943 19.0985" stroke="black" stroke-width="1.5" stroke-linecap="round"/>
<path d="M20.6603 7.00042L17.1962 9.00042M17.1962 9.00042L6.80389 15.0004M17.1962 9.00042L18.2943 4.90234M17.1962 9.00042L21.2943 10.0985M6.80389 15.0004L3.33978 17.0004M6.80389 15.0004L2.70581 13.9023M6.80389 15.0004L5.70581 19.0985" stroke="black" stroke-width="1.5" stroke-linecap="round"/>
</svg>
