<svg width="24" height="25" viewBox="0 0 24 25" fill="none" xmlns="http://www.w3.org/2000/svg">
<path d="M2 12.5C2 7.78595 2 5.42893 3.46447 3.96447C4.92893 2.5 7.28595 2.5 12 2.5C16.714 2.5 19.0711 2.5 20.5355 3.96447C22 5.42893 22 7.78595 22 12.5C22 17.214 22 19.5711 20.5355 21.0355C19.0711 22.5 16.714 22.5 12 22.5C7.28595 22.5 4.92893 22.5 3.46447 21.0355C2 19.5711 2 17.214 2 12.5Z" stroke="white" stroke-width="1.5"/>
<circle cx="8" cy="10.5" r="2" stroke="white" stroke-width="1.5"/>
<circle cx="2" cy="2" r="2" transform="matrix(1 0 0 -1 14 16.5)" stroke="white" stroke-width="1.5"/>
<path d="M8 14.5V19.5" stroke="white" stroke-width="1.5" stroke-linecap="round"/>
<path d="M16 10.5V5.5" stroke="white" stroke-width="1.5" stroke-linecap="round"/>
<path d="M8 5.5V6.5" stroke="white" stroke-width="1.5" stroke-linecap="round"/>
<path d="M16 19.5V18.5" stroke="white" stroke-width="1.5" stroke-linecap="round"/>
</svg>
