<svg width="24" height="25" viewBox="0 0 24 25" fill="none" xmlns="http://www.w3.org/2000/svg">
<path d="M22.2188 23H2.21875" stroke="white" stroke-width="1.5" stroke-linecap="round"/>
<path d="M21.2188 23V15.5C21.2188 14.6716 20.5472 14 19.7188 14H16.7188C15.8903 14 15.2188 14.6716 15.2188 15.5V23" stroke="white" stroke-width="1.5"/>
<path d="M15.2188 23V6C15.2188 4.58579 15.2188 3.87868 14.7794 3.43934C14.3401 3 13.633 3 12.2188 3C10.8045 3 10.0974 3 9.65809 3.43934C9.21875 3.87868 9.21875 4.58579 9.21875 6V23" stroke="white" stroke-width="1.5"/>
<path d="M9.21875 23V10.5C9.21875 9.67157 8.54718 9 7.71875 9H4.71875C3.89032 9 3.21875 9.67157 3.21875 10.5V23" stroke="white" stroke-width="1.5"/>
</svg>
