<svg width="24" height="25" viewBox="0 0 24 25" fill="none" xmlns="http://www.w3.org/2000/svg">
<path d="M13.0105 16.7991L14.4411 15.3676C16.8113 12.9959 16.8113 9.15054 14.4411 6.7788C12.0708 4.40707 8.22785 4.40707 5.8576 6.7788L2.99644 9.64174C0.626186 12.0135 0.626186 15.8588 2.99644 18.2306C4.09563 19.3304 5.51154 19.9202 6.9504 20" stroke="white" stroke-width="1.5" stroke-linecap="round"/>
<path d="M11.427 9.20092L9.99644 10.6324C7.62619 13.0041 7.62619 16.8495 9.99644 19.2212C12.3667 21.5929 16.2096 21.5929 18.5799 19.2212L21.4411 16.3583C23.8113 13.9865 23.8113 10.1412 21.4411 7.76945C20.3419 6.66957 18.926 6.07976 17.4871 6" stroke="white" stroke-width="1.5" stroke-linecap="round"/>
</svg>
