<svg width="24" height="25" viewBox="0 0 24 25" fill="none" xmlns="http://www.w3.org/2000/svg">
<path d="M18.9679 10.7096V10.005C18.9679 6.13623 15.9462 3 12.2187 3C8.49131 3 5.46962 6.13623 5.46962 10.005V10.7096C5.46962 11.5552 5.22847 12.3818 4.77655 13.0854L3.66911 14.8095C2.65757 16.3843 3.4298 18.5249 5.18911 19.0229C9.79149 20.3257 14.646 20.3257 19.2484 19.0229C21.0077 18.5249 21.7799 16.3843 20.7684 14.8095L19.661 13.0854C19.209 12.3818 18.9679 11.5552 18.9679 10.7096Z" stroke="white" stroke-width="1.5"/>
<path d="M7.71875 20C8.37378 21.7478 10.1412 23 12.2188 23C14.2963 23 16.0637 21.7478 16.7188 20" stroke="white" stroke-width="1.5" stroke-linecap="round"/>
</svg>
