<svg width="24" height="24" viewBox="0 0 24 24" fill="none" xmlns="http://www.w3.org/2000/svg">
<path d="M6.22656 8.5C6.26243 6.02043 6.44636 4.61466 7.38944 3.67157C8.56102 2.5 10.4466 2.5 14.2179 2.5C17.9891 2.5 19.8747 2.5 21.0463 3.67157C22.2179 4.84315 22.2179 6.72876 22.2179 10.5V14.5C22.2179 18.2712 22.2179 20.1569 21.0463 21.3284C19.8747 22.5 17.9891 22.5 14.2179 22.5H12.2178" stroke="white" stroke-width="1.5" stroke-linecap="round"/>
<path d="M2.21875 15C2.21875 13.5955 2.21875 12.8933 2.55581 12.3889C2.70173 12.1705 2.88923 11.983 3.10761 11.8371C3.61206 11.5 4.31429 11.5 5.71875 11.5C7.12321 11.5 7.82544 11.5 8.32989 11.8371C8.54827 11.983 8.73577 12.1705 8.88169 12.3889C9.21875 12.8933 9.21875 13.5955 9.21875 15V19C9.21875 20.4045 9.21875 21.1067 8.88169 21.6111C8.73577 21.8295 8.54827 22.017 8.32989 22.1629C7.82544 22.5 7.12321 22.5 5.71875 22.5C4.31429 22.5 3.61206 22.5 3.10761 22.1629C2.88923 22.017 2.70173 21.8295 2.55581 21.6111C2.21875 21.1067 2.21875 20.4045 2.21875 19V15Z" stroke="white" stroke-width="1.5"/>
<path d="M17.2188 19.5H12.2188" stroke="white" stroke-width="1.5" stroke-linecap="round"/>
</svg>
