<svg width="24" height="24" viewBox="0 0 24 24" fill="none" xmlns="http://www.w3.org/2000/svg">
<path d="M2.71875 7C2.71875 5.11438 2.71875 4.17157 3.30454 3.58579C3.89032 3 4.83313 3 6.71875 3C8.60437 3 9.54718 3 10.133 3.58579C10.7188 4.17157 10.7188 5.11438 10.7188 7C10.7188 8.88562 10.7188 9.82843 10.133 10.4142C9.54718 11 8.60437 11 6.71875 11C4.83313 11 3.89032 11 3.30454 10.4142C2.71875 9.82843 2.71875 8.88562 2.71875 7Z" stroke="white" stroke-width="1.5"/>
<path d="M13.7188 18C13.7188 16.1144 13.7188 15.1716 14.3045 14.5858C14.8903 14 15.8331 14 17.7188 14C19.6044 14 20.5472 14 21.133 14.5858C21.7188 15.1716 21.7188 16.1144 21.7188 18C21.7188 19.8856 21.7188 20.8284 21.133 21.4142C20.5472 22 19.6044 22 17.7188 22C15.8331 22 14.8903 22 14.3045 21.4142C13.7188 20.8284 13.7188 19.8856 13.7188 18Z" stroke="white" stroke-width="1.5"/>
<path d="M2.71875 18C2.71875 16.1144 2.71875 15.1716 3.30454 14.5858C3.89032 14 4.83313 14 6.71875 14C8.60437 14 9.54718 14 10.133 14.5858C10.7188 15.1716 10.7188 16.1144 10.7188 18C10.7188 19.8856 10.7188 20.8284 10.133 21.4142C9.54718 22 8.60437 22 6.71875 22C4.83313 22 3.89032 22 3.30454 21.4142C2.71875 20.8284 2.71875 19.8856 2.71875 18Z" stroke="white" stroke-width="1.5"/>
<path d="M13.7188 7C13.7188 5.11438 13.7188 4.17157 14.3045 3.58579C14.8903 3 15.8331 3 17.7188 3C19.6044 3 20.5472 3 21.133 3.58579C21.7188 4.17157 21.7188 5.11438 21.7188 7C21.7188 8.88562 21.7188 9.82843 21.133 10.4142C20.5472 11 19.6044 11 17.7188 11C15.8331 11 14.8903 11 14.3045 10.4142C13.7188 9.82843 13.7188 8.88562 13.7188 7Z" stroke="white" stroke-width="1.5"/>
</svg>
