<svg width="24" height="24" viewBox="0 0 24 24" fill="none" xmlns="http://www.w3.org/2000/svg">
<path d="M20.5 12.5213C20.5 19.6324 14.4556 21.4102 11.4333 21.4102C8.78889 21.4102 3.5 19.6324 3.5 12.5213C3.5 9.73969 4.96147 7.87153 6.35996 6.8047C7.13841 6.21085 8.1304 6.80213 8.23017 7.77614L8.316 8.61397C8.42052 9.63429 9.34932 10.4708 10.2093 9.9119C11.8938 8.81721 12.5 6.18535 12.5 4.74349V4.41987C12.5 2.99015 13.9438 2.07001 15.1023 2.90783C17.6653 4.76142 20.5 7.99443 20.5 12.5213Z" stroke="black" stroke-width="1.5"/>
<path d="M8.5 17.8527C8.5 20.6971 10.9889 21.4082 12.2333 21.4082C13.3222 21.4082 15.5 20.6971 15.5 17.8527C15.5 16.7517 14.9107 16.0084 14.3404 15.5795C13.9424 15.2802 13.3828 15.549 13.2459 16.0278C13.0675 16.6519 12.4228 17.0442 12.0944 16.4841C11.7941 15.972 11.7941 15.2039 11.7941 14.7416C11.7941 14.105 11.1539 13.6929 10.6389 14.0671C9.60649 14.8173 8.5 16.0897 8.5 17.8527Z" stroke="black" stroke-width="1.5"/>
</svg>
