<svg width="24" height="24" viewBox="0 0 24 24" fill="none" xmlns="http://www.w3.org/2000/svg">
<path d="M2 7.57143C2 5.15731 2 3.95025 2.65451 3.12953C2.79456 2.9539 2.9539 2.79456 3.12953 2.65451C3.95025 2 5.15731 2 7.57143 2H16.4286C18.8427 2 20.0497 2 20.8705 2.65451C21.0461 2.79456 21.2054 2.9539 21.3455 3.12953C22 3.95025 22 5.15731 22 7.57143C22 10.7902 22 12.3997 21.1273 13.494C20.9406 13.7281 20.7281 13.9406 20.494 14.1273C19.3997 15 17.7903 15 14.5714 15H9.42857C6.20975 15 4.60034 15 3.50604 14.1273C3.27187 13.9406 3.05942 13.7281 2.87267 13.494C2 12.3997 2 10.7903 2 7.57143Z" stroke="black" stroke-width="1.5"/>
<path d="M6.99739 17.5L6.69077 17.9599C6.30176 18.5435 6.43635 19.3292 6.99739 19.75C7.55843 20.1708 7.69303 20.9565 7.30402 21.5401L6.99739 22M11.9974 17.5L11.6908 17.9599C11.3018 18.5435 11.4364 19.3292 11.9974 19.75C12.5584 20.1708 12.693 20.9565 12.304 21.5401L11.9974 22M16.9974 17.5L16.6908 17.9599C16.3018 18.5435 16.4364 19.3292 16.9974 19.75C17.5584 20.1708 17.693 20.9565 17.304 21.5401L16.9974 22" stroke="black" stroke-width="1.5" stroke-linecap="round"/>
<path d="M17.9988 14.5C17.9988 14.0353 17.9988 13.803 17.9604 13.6098C17.8026 12.8164 17.1824 12.1962 16.389 12.0384C16.1958 12 15.9635 12 15.4988 12H8.99883C8.06695 12 7.60101 12 7.23346 12.1522C6.74341 12.3552 6.35406 12.7446 6.15107 13.2346C6.02887 13.5297 6.00476 13.8881 6 14.5" stroke="black" stroke-width="1.5" stroke-linecap="round"/>
<path d="M6 8.5H18" stroke="black" stroke-width="1.5" stroke-linecap="round"/>
<path d="M6 6H18" stroke="black" stroke-width="1.5" stroke-linecap="round"/>
</svg>
