<svg width="24" height="24" viewBox="0 0 24 24" fill="none" xmlns="http://www.w3.org/2000/svg">
<path fill-rule="evenodd" clip-rule="evenodd" d="M4.50086 9.00496C4.50086 4.74856 7.83228 1.25 12 1.25C16.1677 1.25 19.4991 4.74856 19.4991 9.00496V9.70957C19.4991 10.4132 19.6999 11.0989 20.0732 11.6801L21.1807 13.4042C22.4499 15.3803 21.5031 18.1022 19.2339 18.7446C14.498 20.0851 9.50201 20.0851 4.76608 18.7446C2.49692 18.1022 1.55004 15.3803 2.81931 13.4042L3.92675 11.6801C4.30008 11.0989 4.50086 10.4132 4.50086 9.70957V9.00496ZM12 2.75C8.71282 2.75 6.00086 5.5239 6.00086 9.00496V9.70957C6.00086 10.6972 5.71933 11.6648 5.18882 12.4907L4.08139 14.2149C3.32758 15.3884 3.92515 16.9476 5.17462 17.3013C9.64344 18.5662 14.3565 18.5662 18.8254 17.3013C20.0748 16.9476 20.6724 15.3884 19.9186 14.2149L18.8112 12.4907C18.2806 11.6648 17.9991 10.6972 17.9991 9.70957V9.00496C17.9991 5.5239 15.2872 2.75 12 2.75Z" fill="black"/>
<path fill-rule="evenodd" clip-rule="evenodd" d="M12 21.25C10.2229 21.25 8.74332 20.1805 8.20226 18.7368C8.05689 18.3489 7.62462 18.1523 7.23676 18.2977C6.84889 18.4431 6.6523 18.8753 6.79766 19.2632C7.56666 21.3151 9.62197 22.75 12 22.75C14.378 22.75 16.4333 21.3151 17.2023 19.2632C17.3476 18.8753 17.151 18.4431 16.7632 18.2977C16.3753 18.1523 15.943 18.3489 15.7977 18.7368C15.2566 20.1805 13.7771 21.25 12 21.25Z" fill="black"/>
</svg>
