<svg width="24" height="24" viewBox="0 0 24 24" fill="none" xmlns="http://www.w3.org/2000/svg">
<path fill-rule="evenodd" clip-rule="evenodd" d="M12.0001 6.25C9.14275 6.25 6.75006 8.72491 6.75006 11.875C6.75006 13.5563 7.43727 15.0561 8.51602 16.0824L8.52025 16.0864C8.96494 16.5095 9.30371 16.8318 9.54614 17.0679C9.77168 17.2876 9.95987 17.4761 10.0611 17.6088L10.0746 17.6266C10.2491 17.8553 10.411 18.0674 10.5177 18.3212C10.6236 18.573 10.6638 18.8389 10.7077 19.1289L10.7111 19.1517C10.7309 19.282 10.7406 19.4367 10.7454 19.625H13.2547C13.2595 19.4367 13.2693 19.282 13.289 19.1517L13.2924 19.1289C13.3363 18.8389 13.3765 18.573 13.4824 18.3212C13.5892 18.0674 13.751 17.8553 13.9255 17.6266L13.939 17.6088C14.0403 17.4761 14.2284 17.2876 14.454 17.0679C14.6964 16.8318 15.0352 16.5095 15.4798 16.0865L15.4841 16.0824C16.5629 15.0561 17.2501 13.5563 17.2501 11.875C17.2501 8.72491 14.8574 6.25 12.0001 6.25ZM13.2405 21.125H10.7597C10.7618 21.1666 10.7643 21.2054 10.7674 21.242C10.7834 21.4296 10.8098 21.486 10.8198 21.5044C10.8644 21.5864 10.9254 21.6489 10.9922 21.6899C10.9964 21.6925 11.0345 21.7165 11.196 21.7321C11.3734 21.7492 11.6116 21.75 12.0001 21.75C12.3886 21.75 12.6267 21.7492 12.8041 21.7321C12.9657 21.7165 13.0035 21.6927 13.0077 21.69C13.0745 21.649 13.1357 21.5864 13.1803 21.5044C13.1903 21.486 13.2167 21.4296 13.2327 21.242C13.2358 21.2054 13.2384 21.1666 13.2405 21.125ZM5.25006 11.875C5.25006 7.98346 8.22995 4.75 12.0001 4.75C15.7702 4.75 18.7501 7.98346 18.7501 11.875C18.7501 13.9688 17.8931 15.8609 16.518 17.1692C16.0682 17.5971 15.7359 17.9132 15.5006 18.1424C15.383 18.257 15.2939 18.3457 15.2287 18.4132C15.1962 18.4468 15.172 18.4728 15.1544 18.4924C15.1379 18.5108 15.1315 18.5188 15.1315 18.5188C15.1315 18.5188 15.1313 18.5191 15.1315 18.5188C14.9217 18.7939 14.8861 18.8528 14.8651 18.9028C14.8433 18.9547 14.8251 19.0264 14.7721 19.3763C14.7524 19.5062 14.7501 19.7332 14.7501 20.375V20.4047C14.7501 20.7765 14.7501 21.1017 14.7273 21.3695C14.7031 21.653 14.649 21.9432 14.4983 22.2206C14.3322 22.5262 14.0902 22.7857 13.7922 22.9685C13.5165 23.1376 13.2261 23.1984 12.9479 23.2252C12.6898 23.25 12.3785 23.25 12.0321 23.25H11.968C11.6217 23.25 11.3103 23.25 11.0522 23.2252C10.774 23.1984 10.4836 23.1376 10.2079 22.9685C9.90988 22.7857 9.66791 22.5262 9.50184 22.2206C9.35109 21.9432 9.29706 21.653 9.27287 21.3695C9.25003 21.1017 9.25004 20.7765 9.25006 20.4047L9.25006 20.375C9.25006 19.7332 9.24771 19.5062 9.22805 19.3763C9.17506 19.0264 9.15684 18.9547 9.13501 18.9028C9.114 18.8528 9.0782 18.7936 8.86853 18.5187C8.86959 18.5201 8.86359 18.5123 8.84572 18.4924C8.82816 18.4728 8.80393 18.4468 8.77145 18.4132C8.70623 18.3457 8.61713 18.257 8.49949 18.1424C8.2642 17.9132 7.93189 17.5971 7.48211 17.1692C6.10702 15.8609 5.25006 13.9688 5.25006 11.875Z" fill="black"/>
<path fill-rule="evenodd" clip-rule="evenodd" d="M12 0.75C12.4142 0.75 12.75 1.08579 12.75 1.5V2.5C12.75 2.91421 12.4142 3.25 12 3.25C11.5858 3.25 11.25 2.91421 11.25 2.5V1.5C11.25 1.08579 11.5858 0.75 12 0.75ZM4.36957 3.86957C4.66247 3.57668 5.13734 3.57668 5.43023 3.86957L6.03033 4.46967C6.32322 4.76256 6.32322 5.23744 6.03033 5.53033C5.73744 5.82322 5.26256 5.82322 4.96967 5.53033L4.36957 4.93023C4.07668 4.63734 4.07668 4.16247 4.36957 3.86957ZM19.6306 3.86964C19.9235 4.16257 19.9234 4.63744 19.6305 4.9303L19.0303 5.5304C18.7373 5.82325 18.2625 5.82319 17.9696 5.53026C17.6767 5.23733 17.6768 4.76246 17.9697 4.4696L18.57 3.86951C18.8629 3.57665 19.3378 3.57671 19.6306 3.86964ZM1.25 11.5C1.25 11.0858 1.58579 10.75 2 10.75H3C3.41421 10.75 3.75 11.0858 3.75 11.5C3.75 11.9142 3.41421 12.25 3 12.25H2C1.58579 12.25 1.25 11.9142 1.25 11.5ZM20.25 11.5C20.25 11.0858 20.5858 10.75 21 10.75H22C22.4142 10.75 22.75 11.0858 22.75 11.5C22.75 11.9142 22.4142 12.25 22 12.25H21C20.5858 12.25 20.25 11.9142 20.25 11.5Z" fill="black"/>
</svg>
