<svg width="24" height="24" viewBox="0 0 24 24" fill="none" xmlns="http://www.w3.org/2000/svg">
<path fill-rule="evenodd" clip-rule="evenodd" d="M12 2.74902C6.89721 2.74902 2.75 6.92177 2.75 12.0822C2.75 16.6056 5.93808 20.3726 10.1622 21.2314C10.6697 21.3346 11.25 20.9081 11.25 20.1488V15.1072H12.75V20.1488C12.75 21.6171 11.5214 23.0384 9.86335 22.7013C4.94577 21.7016 1.25 17.3244 1.25 12.0822C1.25 6.10509 6.05709 1.24902 12 1.24902C17.9429 1.24902 22.75 6.10509 22.75 12.0822C22.75 16.368 20.2798 20.0742 16.6941 21.8307C16.3221 22.0129 15.8728 21.859 15.6906 21.4871C15.5084 21.1151 15.6622 20.6658 16.0342 20.4836C19.1208 18.9716 21.25 15.7788 21.25 12.0822C21.25 6.92177 17.1028 2.74902 12 2.74902Z" fill="black"/>
<path fill-rule="evenodd" clip-rule="evenodd" d="M8.25 11.799C8.25 10.943 8.94396 10.249 9.8 10.249H14.2C15.056 10.249 15.75 10.943 15.75 11.799V11.999C15.75 14.0701 14.0711 15.749 12 15.749C9.92893 15.749 8.25 14.0701 8.25 11.999V11.799ZM9.8 11.749C9.77239 11.749 9.75 11.7714 9.75 11.799V11.999C9.75 13.2417 10.7574 14.249 12 14.249C13.2426 14.249 14.25 13.2417 14.25 11.999V11.799C14.25 11.7714 14.2276 11.749 14.2 11.749H9.8Z" fill="black"/>
<path fill-rule="evenodd" clip-rule="evenodd" d="M13.5 8.24902C13.9142 8.24902 14.25 8.58481 14.25 8.99902V10.999C14.25 11.4132 13.9142 11.749 13.5 11.749C13.0858 11.749 12.75 11.4132 12.75 10.999V8.99902C12.75 8.58481 13.0858 8.24902 13.5 8.24902Z" fill="black"/>
<path fill-rule="evenodd" clip-rule="evenodd" d="M10.5 8.24902C10.9142 8.24902 11.25 8.58481 11.25 8.99902V10.999C11.25 11.4132 10.9142 11.749 10.5 11.749C10.0858 11.749 9.75 11.4132 9.75 10.999V8.99902C9.75 8.58481 10.0858 8.24902 10.5 8.24902Z" fill="black"/>
</svg>
