<svg width="24" height="24" viewBox="0 0 24 24" fill="none" xmlns="http://www.w3.org/2000/svg">
<path d="M18.5087 11.0272C18.4979 11.0089 18.4866 10.9908 18.4739 10.9734L12.5517 2.6777C12.4246 2.49934 12.2189 2.39355 11.9999 2.39355C11.7806 2.39355 11.5752 2.49934 11.4481 2.6777L5.52587 10.9734C5.51367 10.9908 5.50193 11.0086 5.49127 11.0272C4.27471 13.1255 4.29415 15.6725 5.54347 17.8409C6.88165 20.1639 9.35568 21.607 11.9999 21.607C14.6441 21.607 17.1181 20.1637 18.4565 17.8407C19.7056 15.6725 19.7253 13.1253 18.5087 11.0272ZM17.2813 17.1637C16.1846 19.0679 14.1608 20.2507 11.9999 20.2507C9.83917 20.2507 7.81542 19.0681 6.71845 17.1639C5.70464 15.404 5.67958 13.427 6.64862 11.7345L11.9999 4.23872L17.3512 11.7347C18.32 13.4273 18.2951 15.4042 17.2813 17.1637Z" fill="black"/>
<path d="M15.5521 13.5615C15.1775 13.5615 14.874 13.8651 14.874 14.2397C14.874 15.8472 13.5659 17.1554 11.958 17.1554C11.5835 17.1554 11.2799 17.459 11.2799 17.8335C11.2799 18.2081 11.5835 18.5116 11.958 18.5116C14.3136 18.5116 16.2302 16.595 16.2302 14.2397C16.2302 13.8651 15.9266 13.5615 15.5521 13.5615Z" fill="black"/>
</svg>
