<svg width="31" height="31" viewBox="0 0 31 31" fill="none" xmlns="http://www.w3.org/2000/svg">
<path fill-rule="evenodd" clip-rule="evenodd" d="M12.169 4.75H12.2685C14.281 4.74999 15.8585 4.74998 17.1027 4.89705C18.3737 5.04729 19.3943 5.35988 20.2415 6.05519C20.5327 6.29413 20.7996 6.56109 21.0386 6.85224C21.7339 7.69948 22.0465 8.72006 22.1967 9.99107C22.3438 11.2353 22.3438 12.8127 22.3438 14.8252V16.1748C22.3438 18.1873 22.3438 19.7647 22.1967 21.0089C22.0465 22.2799 21.7339 23.3005 21.0386 24.1478C20.7996 24.4389 20.5327 24.7059 20.2415 24.9448C19.3943 25.6401 18.3737 25.9527 17.1027 26.1029C15.8585 26.25 14.281 26.25 12.2685 26.25H12.169C10.1565 26.25 8.57904 26.25 7.33482 26.1029C6.06381 25.9527 5.04323 25.6401 4.19599 24.9448C3.90484 24.7059 3.63788 24.4389 3.39894 24.1478C2.70363 23.3005 2.39104 22.2799 2.2408 21.0089C2.09373 19.7647 2.09374 18.1873 2.09375 16.1747V14.8253C2.09374 12.8127 2.09373 11.2353 2.2408 9.99107C2.39104 8.72006 2.70363 7.69948 3.39894 6.85224C3.63788 6.56109 3.90484 6.29413 4.19599 6.05519C5.04323 5.35988 6.06381 5.04729 7.33482 4.89705C8.57905 4.74998 10.1565 4.74999 12.169 4.75ZM7.5109 6.38668C6.3815 6.52018 5.68328 6.77507 5.14758 7.21471C4.93238 7.39131 4.73506 7.58863 4.55846 7.80383C4.11882 8.33953 3.86393 9.03775 3.73043 10.1672C3.59498 11.3131 3.59375 12.802 3.59375 14.875V16.125C3.59375 18.198 3.59498 19.6869 3.73043 20.8328C3.86393 21.9622 4.11882 22.6605 4.55846 23.1962C4.73506 23.4114 4.93238 23.6087 5.14758 23.7853C5.68328 24.2249 6.3815 24.4798 7.5109 24.6133C8.65686 24.7488 10.1457 24.75 12.2188 24.75C14.2918 24.75 15.7806 24.7488 16.9266 24.6133C18.056 24.4798 18.7542 24.2249 19.2899 23.7853C19.5051 23.6087 19.7024 23.4114 19.879 23.1962C20.3187 22.6605 20.5736 21.9622 20.7071 20.8328C20.8425 19.6869 20.8438 18.198 20.8438 16.125V14.875C20.8438 12.802 20.8425 11.3131 20.7071 10.1672C20.5736 9.03775 20.3187 8.33953 19.879 7.80383C19.7024 7.58863 19.5051 7.39131 19.2899 7.21471C18.7542 6.77507 18.056 6.52018 16.9266 6.38668C15.7806 6.25123 14.2918 6.25 12.2188 6.25C10.1457 6.25 8.65686 6.25123 7.5109 6.38668Z" fill="#444444"/>
<path fill-rule="evenodd" clip-rule="evenodd" d="M25.4975 11.3761C24.8438 11.59 23.9907 12.0143 22.7521 12.6336L22.3438 12.8378V18.1607L22.7521 18.3649C23.9907 18.9842 24.8438 19.4085 25.4975 19.6224C26.1407 19.8329 26.3972 19.7732 26.5602 19.6724C26.7232 19.5717 26.8913 19.369 26.9907 18.6996C27.0918 18.0192 27.0938 17.0665 27.0938 15.6816V15.3169C27.0938 13.9321 27.0918 12.9793 26.9907 12.2989C26.8913 11.6295 26.7232 11.4268 26.5602 11.3261C26.3972 11.2253 26.1407 11.1656 25.4975 11.3761ZM25.031 9.95046C25.8263 9.69023 26.6226 9.60128 27.3488 10.0501C28.075 10.4989 28.3515 11.2509 28.4745 12.0786C28.5938 12.8824 28.5938 13.9476 28.5938 15.2532V15.7453C28.5938 17.0509 28.5938 18.1161 28.4745 18.9199C28.3515 19.7476 28.075 20.4996 27.3488 20.9484C26.6226 21.3972 25.8263 21.3083 25.031 21.048C24.2588 20.7954 23.306 20.3189 22.1383 19.735L20.8438 19.0878V11.9107L22.0813 11.292C22.1003 11.2824 22.1193 11.2729 22.1383 11.2635C23.306 10.6796 24.2588 10.2032 25.031 9.95046Z" fill="#444444"/>
</svg>
