<?xml version="1.0" encoding="UTF-8"?>
<svg id="_레이어_1" data-name="레이어_1" xmlns="http://www.w3.org/2000/svg" version="1.1" viewBox="0 0 25 25">
  <!-- Generator: Adobe Illustrator 29.0.0, SVG Export Plug-In . SVG Version: 2.1.0 Build 186)  -->
  <defs>
    <style>
      .st0 {
        fill: #444;
      }
    </style>
  </defs>
  <path class="st0" d="M14.6,11.4c-.2,0-.4-.1-.5-.1,0-.1,0-.3.1-.5h0c.5-2,.8-3.1,0-3.6-.9-.5-1.7,0-3.2,1.3l-2,1.6c-1,.8-1.6,1.3-1.4,2.2.2.8,1,1,2.2,1.3.2,0,.4.1.5.1,0,.1,0,.3-.1.5h0c-.5,2-.8,3.1,0,3.6.2.1.4.2.6.2.7,0,1.4-.6,2.6-1.5l2-1.6c1-.8,1.6-1.3,1.4-2.2-.2-.8-1-1-2.2-1.3ZM14.4,13.7l-2,1.6c-.5.4-1,.8-1.3,1,0-.4.2-1,.4-1.6h0c.2-.8.3-1.3,0-1.8-.3-.5-.8-.6-1.5-.8-.4,0-.7-.2-1-.3.2-.2.5-.4.7-.6l2-1.6c.5-.4,1-.8,1.3-1,0,.4-.2,1-.4,1.6v.2c-.2.7-.4,1.2,0,1.7.3.5.8.6,1.5.8.4,0,.7.2,1,.3-.2.2-.5.4-.7.6Z"/>
  <path class="st0" d="M12.1,1.8C6.2,1.8,1.4,6.6,1.4,12.5s4.8,10.8,10.8,10.8,10.7-4.8,10.7-10.8S18,1.8,12.1,1.8ZM12.1,21.8c-5.1,0-9.2-4.1-9.2-9.2S7,3.2,12.1,3.2s9.2,4.1,9.2,9.2-4.1,9.2-9.2,9.2Z"/>
</svg>