<svg width="24" height="24" viewBox="0 0 24 24" fill="none" xmlns="http://www.w3.org/2000/svg">
<path d="M13.7259 9.04104C13.7259 10.4791 13.7275 11.9164 13.7236 13.3544C13.7236 13.4873 13.758 13.5749 13.8628 13.6688C15.3157 14.9754 15.8764 16.5988 15.3735 18.4873C14.8778 20.3484 13.6149 21.5182 11.7264 21.9045C9.08491 22.4449 6.53958 20.633 6.16111 17.9587C5.92104 16.2587 6.48563 14.8237 7.77354 13.6836C7.88223 13.5874 7.92446 13.4952 7.92368 13.3521C7.91977 10.5807 7.92368 7.80943 7.91899 5.03811C7.91742 4.15291 8.1958 3.38658 8.85657 2.78993C9.69641 2.03142 10.6786 1.80621 11.7514 2.17061C12.8149 2.53188 13.4561 3.29587 13.6767 4.40002C13.7181 4.60802 13.7228 4.82619 13.7236 5.03967C13.7275 6.37372 13.7259 7.70699 13.7259 9.04104ZM12.5561 9.29205C12.5545 9.29205 12.553 9.29205 12.5514 9.29205C12.5514 7.80239 12.5647 6.31273 12.5451 4.82385C12.5365 4.149 12.1784 3.65167 11.5771 3.35843C10.9734 3.06362 10.3752 3.12071 9.82544 3.50466C9.29135 3.87688 9.08647 4.41331 9.08726 5.05375C9.09195 7.93532 9.08647 10.8169 9.09351 13.6977C9.09429 14.0136 8.98091 14.2287 8.72911 14.421C7.6406 15.2538 7.15187 16.3619 7.31296 17.7272C7.54911 19.7189 9.42272 21.1077 11.4066 20.7824C12.8126 20.5525 13.9386 19.4929 14.2827 18.0752C14.6135 16.7153 14.07 15.246 12.9103 14.4093C12.657 14.2263 12.5522 14.0074 12.553 13.7016C12.56 12.2323 12.5561 10.7622 12.5561 9.29205Z" fill="black"/>
<path d="M16.4009 5.49972C16.1147 5.49972 15.8285 5.50363 15.543 5.49894C15.1606 5.4919 14.8979 5.24636 14.9042 4.90933C14.9104 4.57621 15.1661 4.33614 15.5376 4.33223C16.11 4.32676 16.6816 4.32676 17.254 4.33223C17.6317 4.33536 17.8976 4.58794 17.8929 4.9234C17.8882 5.25574 17.6333 5.49112 17.2603 5.49894C16.9725 5.50441 16.6871 5.49972 16.4009 5.49972Z" fill="black"/>
<path d="M16.3851 10.1846C16.0989 10.1846 15.8127 10.1885 15.5265 10.1838C15.1551 10.1768 14.8994 9.93826 14.8963 9.60514C14.8939 9.27515 15.1496 9.02335 15.5195 9.01788C16.0982 9.00928 16.6768 9.01006 17.2555 9.01788C17.6261 9.02257 17.8818 9.26889 17.885 9.59889C17.8881 9.9367 17.6253 10.1783 17.243 10.1838C16.9568 10.1885 16.6706 10.1846 16.3851 10.1846Z" fill="black"/>
<path d="M16.3844 12.5288C16.0982 12.5288 15.8119 12.5327 15.5257 12.528C15.1559 12.5218 14.8986 12.2825 14.8963 11.9494C14.8939 11.6264 15.1426 11.3707 15.4999 11.3637C16.0911 11.3527 16.6831 11.3527 17.275 11.3637C17.6418 11.3707 17.8959 11.635 17.8842 11.9627C17.8725 12.2895 17.6214 12.5187 17.2617 12.528C17.1124 12.5319 16.963 12.5288 16.8129 12.5288C16.6706 12.5288 16.5275 12.5288 16.3844 12.5288Z" fill="black"/>
<path d="M16.4031 7.84405C16.1169 7.84405 15.8307 7.84796 15.5453 7.84327C15.1614 7.83702 14.9002 7.59461 14.9041 7.25679C14.908 6.92445 15.1629 6.68126 15.5351 6.67735C16.1138 6.67031 16.6925 6.66953 17.2711 6.67813C17.6379 6.68282 17.8959 6.93775 17.8928 7.26618C17.8897 7.59851 17.634 7.83624 17.2625 7.84327C16.9748 7.84796 16.6886 7.84405 16.4031 7.84405Z" fill="black"/>
<path d="M11.4153 14.9649C11.9111 15.1088 12.3326 15.3575 12.6508 15.7555C13.2186 16.4656 13.3726 17.2624 13.0457 18.114C12.7236 18.9538 12.1011 19.4762 11.2065 19.6153C9.69654 19.8507 8.40081 18.6856 8.45242 17.1639C8.48448 16.2145 9.14134 15.3348 10.0648 15.0283C10.2119 14.9798 10.2486 14.918 10.2478 14.7726C10.2431 12.282 10.2439 9.79062 10.2455 7.30003C10.2455 6.85353 10.6099 6.56654 11.0063 6.69478C11.2316 6.76751 11.3926 6.97317 11.413 7.21558C11.4184 7.28048 11.4153 7.34539 11.4153 7.41029C11.4153 9.84927 11.4153 12.2882 11.4153 14.7272C11.4153 14.8039 11.4153 14.8813 11.4153 14.9649Z" fill="black"/>
</svg>
