<svg width="24" height="24" viewBox="0 0 24 24" fill="none" xmlns="http://www.w3.org/2000/svg">
<path fill-rule="evenodd" clip-rule="evenodd" d="M12 1.74902C12.4142 1.74902 12.75 2.08481 12.75 2.49902V6.49902C12.75 6.91324 12.4142 7.24902 12 7.24902C11.5858 7.24902 11.25 6.91324 11.25 6.49902V2.49902C11.25 2.08481 11.5858 1.74902 12 1.74902Z" fill="black"/>
<path fill-rule="evenodd" clip-rule="evenodd" d="M9.19087 3.91435C9.35208 4.29591 9.17345 4.73591 8.7919 4.89712C5.82779 6.14947 3.75 9.08312 3.75 12.5003C3.75 17.0567 7.44365 20.7503 12 20.7503C16.5563 20.7503 20.25 17.0567 20.25 12.5003C20.25 9.08312 18.1722 6.14947 15.2081 4.89712C14.8265 4.73591 14.6479 4.29591 14.8091 3.91435C14.9703 3.5328 15.4103 3.35417 15.7919 3.51538C19.2917 4.99406 21.75 8.45925 21.75 12.5003C21.75 17.8851 17.3848 22.2503 12 22.2503C6.61522 22.2503 2.25 17.8851 2.25 12.5003C2.25 8.45925 4.70832 4.99406 8.2081 3.51538C8.58966 3.35417 9.02966 3.5328 9.19087 3.91435Z" fill="black"/>
</svg>
