<svg width="24" height="24" viewBox="0 0 24 24" fill="none" xmlns="http://www.w3.org/2000/svg">
<path d="M2.4375 10.5C2.4375 6.72876 2.4375 4.84315 3.60907 3.67157C4.78065 2.5 6.66626 2.5 10.4375 2.5H14.4375C18.2087 2.5 20.0944 2.5 21.2659 3.67157C22.4375 4.84315 22.4375 6.72876 22.4375 10.5V11.5C22.4375 14.3284 22.4375 15.7426 21.5588 16.6213C20.6801 17.5 19.2659 17.5 16.4375 17.5H8.4375C5.60907 17.5 4.19486 17.5 3.31618 16.6213C2.4375 15.7426 2.4375 14.3284 2.4375 11.5V10.5Z" stroke="black" stroke-width="1.5"/>
<path d="M16.4375 22.5H8.4375" stroke="black" stroke-width="1.5" stroke-linecap="round"/>
<path d="M12.4375 17.5L12.4375 22.5" stroke="black" stroke-width="1.5" stroke-linecap="round"/>
<path d="M22.4375 13.5H2.4375" stroke="black" stroke-width="1.5" stroke-linecap="round"/>
</svg>
