<svg width="298" height="297" viewBox="0 0 298 297" fill="none" xmlns="http://www.w3.org/2000/svg">
<g clip-path="url(#clip0_2169_962)">
<path fill-rule="evenodd" clip-rule="evenodd" d="M149 297C231.29 297 298 230.514 298 148.5C298 66.4857 231.29 0 149 0C112.08 0 98.0465 44.1337 72.0167 66.2973C40.0284 93.5344 0 103.281 0 148.5C0 230.514 66.7096 297 149 297Z" fill="#EFEFEF"/>
<g filter="url(#filter0_f_2169_962)">
<path d="M228.466 99H99.3328C95.2183 99 91.8828 101.843 91.8828 105.349V238.676C91.8828 242.182 95.2183 245.025 99.3328 245.025H228.466C232.581 245.025 235.916 242.182 235.916 238.676V105.349C235.916 101.843 232.581 99 228.466 99Z" fill="white"/>
<path d="M228.466 99H99.3328C95.2183 99 91.8828 101.843 91.8828 105.349V238.676C91.8828 242.182 95.2183 245.025 99.3328 245.025H228.466C232.581 245.025 235.916 242.182 235.916 238.676V105.349C235.916 101.843 232.581 99 228.466 99Z" fill="#E9E9E9"/>
</g>
<path d="M86.916 98.9992C86.916 88.064 95.8106 79.1992 106.783 79.1992H201.149C212.121 79.1992 221.016 88.064 221.016 98.9992V205.424C221.016 216.359 212.121 225.224 201.149 225.224H106.783C95.8106 225.224 86.916 216.359 86.916 205.424V98.9992Z" fill="white"/>
<path fill-rule="evenodd" clip-rule="evenodd" d="M151.944 114.814C132.408 114.814 116.57 130.652 116.57 150.189C116.57 169.725 132.408 185.563 151.944 185.563C171.481 185.563 187.319 169.725 187.319 150.189C187.319 130.652 171.481 114.814 151.944 114.814ZM110.506 150.189C110.506 127.303 129.059 108.75 151.944 108.75C174.83 108.75 193.383 127.303 193.383 150.189C193.383 160.54 189.587 170.005 183.312 177.268L196.538 190.494C197.722 191.678 197.722 193.598 196.538 194.782C195.354 195.966 193.434 195.966 192.25 194.782L179.024 181.556C171.761 187.832 162.296 191.627 151.944 191.627C129.059 191.627 110.506 173.075 110.506 150.189Z" fill="#909090"/>
</g>
<defs>
<filter id="filter0_f_2169_962" x="80.8828" y="88" width="166.033" height="168.023" filterUnits="userSpaceOnUse" color-interpolation-filters="sRGB">
<feFlood flood-opacity="0" result="BackgroundImageFix"/>
<feBlend mode="normal" in="SourceGraphic" in2="BackgroundImageFix" result="shape"/>
<feGaussianBlur stdDeviation="5.5" result="effect1_foregroundBlur_2169_962"/>
</filter>
<clipPath id="clip0_2169_962">
<rect width="298" height="297" fill="white"/>
</clipPath>
</defs>
</svg>
