<svg width="180" height="180" viewBox="0 0 180 180" fill="none" xmlns="http://www.w3.org/2000/svg">
<g clip-path="url(#clip0_3718_1794)">
<path fill-rule="evenodd" clip-rule="evenodd" d="M90 180C139.706 180 180 139.706 180 90C180 40.2944 139.706 0 90 0C67.6996 0 59.2227 26.7477 43.5 40.1802C24.1782 56.6875 0 62.5948 0 90C0 139.706 40.2944 180 90 180Z" fill="#EFEFEF"/>
<g filter="url(#filter0_f_3718_1794)">
<path d="M143.534 75H57.4655C54.7231 75 52.5 76.4015 52.5 78.1304V143.87C52.5 145.598 54.7231 147 57.4655 147H143.534C146.277 147 148.5 145.598 148.5 143.87V78.1304C148.5 76.4015 146.277 75 143.534 75Z" fill="white"/>
<path d="M143.534 75H57.4655C54.7231 75 52.5 76.4015 52.5 78.1304V143.87C52.5 145.598 54.7231 147 57.4655 147H143.534C146.277 147 148.5 145.598 148.5 143.87V78.1304C148.5 76.4015 146.277 75 143.534 75Z" fill="#E9E9E9"/>
</g>
<path d="M42 73.5C42 66.8726 47.3726 61.5 54 61.5H126C132.627 61.5 138 66.8726 138 73.5V120C138 126.627 132.627 132 126 132H54C47.3726 132 42 126.627 42 120V73.5Z" fill="white"/>
<path d="M104.972 94.1478C106.978 95.3014 106.978 98.1958 104.972 99.3493L83.9904 111.414C81.9904 112.564 79.495 111.12 79.495 108.813L79.495 84.6841C79.495 82.3771 81.9904 80.9334 83.9904 82.0834L104.972 94.1478Z" fill="#909090"/>
</g>
<defs>
<filter id="filter0_f_3718_1794" x="36" y="58.5" width="129" height="105" filterUnits="userSpaceOnUse" color-interpolation-filters="sRGB">
<feFlood flood-opacity="0" result="BackgroundImageFix"/>
<feBlend mode="normal" in="SourceGraphic" in2="BackgroundImageFix" result="shape"/>
<feGaussianBlur stdDeviation="8.25" result="effect1_foregroundBlur_3718_1794"/>
</filter>
<clipPath id="clip0_3718_1794">
<rect width="180" height="180" fill="white"/>
</clipPath>
</defs>
</svg>
