<svg width="24" height="24" viewBox="0 0 24 24" fill="none" xmlns="http://www.w3.org/2000/svg">
<path d="M3.55481 11.3372H2.80481H3.55481ZM3.55481 13.0039L3.02657 13.5363C3.31898 13.8264 3.79064 13.8264 4.08305 13.5363L3.55481 13.0039ZM5.76287 11.8696C6.05691 11.5779 6.05877 11.103 5.76703 10.809C5.47529 10.515 5.00042 10.5131 4.70638 10.8048L5.76287 11.8696ZM2.40324 10.8048C2.1092 10.5131 1.63433 10.515 1.34259 10.809C1.05085 11.103 1.05272 11.5779 1.34676 11.8696L2.40324 10.8048ZM18.4906 7.3967C18.7075 7.74956 19.1694 7.85976 19.5223 7.64282C19.8751 7.42589 19.9853 6.96398 19.7684 6.61112L18.4906 7.3967ZM11.9539 2.25391C6.90655 2.25391 2.80481 6.31511 2.80481 11.3372H4.30481C4.30481 7.15462 7.72384 3.75391 11.9539 3.75391V2.25391ZM2.80481 11.3372L2.80481 13.0039H4.30481L4.30481 11.3372H2.80481ZM4.08305 13.5363L5.76287 11.8696L4.70638 10.8048L3.02657 12.4715L4.08305 13.5363ZM4.08305 12.4715L2.40324 10.8048L1.34676 11.8696L3.02657 13.5363L4.08305 12.4715ZM19.7684 6.61112C18.162 3.99818 15.2623 2.25391 11.9539 2.25391V3.75391C14.7234 3.75391 17.1477 5.21235 18.4906 7.3967L19.7684 6.61112Z" fill="black"/>
<path d="M20.1342 11.0039L20.6614 10.4705C20.3693 10.1817 19.8992 10.1817 19.607 10.4705L20.1342 11.0039ZM17.9208 12.1372C17.6262 12.4283 17.6234 12.9032 17.9146 13.1978C18.2057 13.4924 18.6806 13.4952 18.9752 13.204L17.9208 12.1372ZM21.2932 13.204C21.5878 13.4952 22.0627 13.4924 22.3539 13.1978C22.645 12.9032 22.6423 12.4283 22.3477 12.1372L21.2932 13.204ZM5.13825 16.61C4.92071 16.2575 4.45862 16.1481 4.10612 16.3657C3.75363 16.5832 3.64422 17.0453 3.86175 17.3978L5.13825 16.61ZM11.703 21.7539C16.7654 21.7539 20.8842 17.6954 20.8842 12.6706H19.3842C19.3842 16.8505 15.9535 20.2539 11.703 20.2539V21.7539ZM20.8842 12.6706V11.0039H19.3842V12.6706H20.8842ZM19.607 10.4705L17.9208 12.1372L18.9752 13.204L20.6614 11.5373L19.607 10.4705ZM19.607 11.5373L21.2932 13.204L22.3477 12.1372L20.6614 10.4705L19.607 11.5373ZM3.86175 17.3978C5.47436 20.0109 8.38435 21.7539 11.703 21.7539V20.2539C8.92055 20.2539 6.48615 18.7942 5.13825 16.61L3.86175 17.3978Z" fill="black"/>
</svg>
