<svg width="25" height="25" viewBox="0 0 25 25" fill="none" xmlns="http://www.w3.org/2000/svg">
<path d="M3.10938 8.44922H9.60938C10.9901 8.44922 12.1094 7.32993 12.1094 5.94922C12.1094 4.56851 10.9901 3.44922 9.60938 3.44922C8.22866 3.44922 7.10938 4.56851 7.10938 5.94922V6.30636" stroke="black" stroke-width="1.5" stroke-linecap="round"/>
<path d="M4.10938 14.4492H18.6094C20.5424 14.4492 22.1094 16.0162 22.1094 17.9492C22.1094 19.8822 20.5424 21.4492 18.6094 21.4492C16.6764 21.4492 15.1094 19.8822 15.1094 17.9492V17.4492" stroke="black" stroke-width="1.5" stroke-linecap="round"/>
<path d="M2.10938 11.4492H18.6094C20.5424 11.4492 22.1094 9.88222 22.1094 7.94922C22.1094 6.01622 20.5424 4.44922 18.6094 4.44922C16.6764 4.44922 15.1094 6.01622 15.1094 7.94922V8.44922" stroke="black" stroke-width="1.5" stroke-linecap="round"/>
</svg>
