<svg width="150" height="56" viewBox="0 0 150 56" fill="none" xmlns="http://www.w3.org/2000/svg">
<g clip-path="url(#clip0_209_489)">
<path d="M63.7685 35.5775C64.2331 38.1513 65.0306 40.9189 66.1533 43.888H64.4964C63.7531 42.1515 62.9556 39.9886 62.1116 37.3916C61.2599 34.8023 60.8418 31.7091 60.8418 28.1198C60.8418 24.5305 61.2676 21.4141 62.1116 18.8326C62.9633 16.251 63.7531 14.0881 64.4964 12.3594H66.1533C65.0306 15.3285 64.2331 18.1038 63.7685 20.6699C63.304 23.2436 63.0717 25.7244 63.0717 28.1198C63.0717 30.5153 63.304 33.0038 63.7685 35.5775Z" fill="#231815"/>
<path d="M81.1741 21.1506C82.3432 22.8329 84.3486 24.1508 87.2057 25.1043L85.6107 27.5385C84.1318 27.0579 82.6375 26.1896 81.1431 24.9338C79.641 23.6779 78.5725 22.3445 77.9221 20.9258C77.2795 22.2747 76.2884 23.5694 74.9567 24.802C73.6249 26.0346 72.0531 26.9494 70.2336 27.5463L68.6076 25.1121C71.4415 24.2438 73.4468 22.9492 74.6237 21.2204C75.8006 19.4916 76.4743 18.1738 76.6368 17.2667H69.8232V14.3906H86.0133V17.2667H79.1997C79.3468 18.1815 80.0049 19.4761 81.1663 21.1584L81.1741 21.1506ZM79.1145 32.8876V43.3765H76.7065V32.8876H67.3301V30.0425H88.5219V32.8876H79.1145Z" fill="#231815"/>
<path d="M92.6267 28.1276C92.6267 25.7322 92.3944 23.2437 91.9221 20.6777C91.4575 18.1116 90.6678 15.3363 89.5605 12.3672H91.1943C91.9376 14.1037 92.7351 16.2588 93.579 18.8404C94.4307 21.4219 94.8488 24.5151 94.8488 28.1276C94.8488 31.7402 94.423 34.8024 93.579 37.3994C92.7273 39.9887 91.9376 42.1593 91.1943 43.8958H89.5605C90.6678 40.9267 91.4575 38.1591 91.9221 35.5854C92.3866 33.0193 92.6267 30.5308 92.6267 28.1276Z" fill="#231815"/>
<path d="M109.652 32.2592C108.994 33.8716 108.057 34.6779 106.857 34.6779C105.657 34.6779 104.673 33.8716 103.992 32.2592C103.31 30.6467 102.962 28.7474 102.962 26.5535C102.962 24.3596 103.303 22.5223 103.992 20.902C104.673 19.2818 105.633 18.4678 106.857 18.4678C108.08 18.4678 108.994 19.274 109.652 20.8865C110.31 22.499 110.643 24.3906 110.643 26.5612C110.643 28.7319 110.31 30.6544 109.652 32.2669V32.2592ZM111.564 18.4678C110.411 16.46 108.823 15.4522 106.818 15.4522C104.813 15.4522 103.249 16.46 102.056 18.4678C100.864 20.4756 100.268 23.1812 100.268 26.5922C100.268 30.0032 100.864 32.6778 102.056 34.6934C103.249 36.7167 104.836 37.7245 106.818 37.7245C108.8 37.7245 110.403 36.709 111.564 34.6779C112.718 32.6468 113.299 29.949 113.299 26.5922C113.299 23.2355 112.718 20.4834 111.564 18.4678ZM120.801 13.1885H118.076V43.345H120.801V13.1885Z" fill="#231815"/>
<path d="M149.999 34.0808H143.804V43.337H141.079V34.0808H134.924V42.9882H132.198V34.0808H126.004V31.2047H150.006V34.0808H149.999ZM147.064 28.4293H129.225V14.1729H146.925V17.0877H131.989V19.8941H146.824V22.7702H131.989V25.5145H147.072V28.4293H147.064Z" fill="#231815"/>
<path d="M10.2824 5.63793H22.1675C22.5004 5.71546 22.903 5.95578 23.0192 6.59922V28.8096C22.9185 29.3755 22.5933 29.6313 22.2836 29.7321H10.4837C8.44734 31.771 10.5534 33.0423 10.5534 33.0423H22.2062C22.5236 33.1276 22.8953 33.3602 23.0192 33.9494V35.089C22.8875 35.6394 22.5314 35.8642 22.2139 35.9417H14.1228C12.0864 37.9806 14.1924 39.2597 14.1924 39.2597H22.1442C22.4849 39.3372 22.9108 39.5775 23.0192 40.2442V45.9965C23.0192 45.9965 23.174 47.9655 25.0323 48.2214H26.426H27.8739C27.8739 48.2214 30.0186 47.012 28.1294 45.1204H27.1228C26.426 44.9654 26.426 44.2909 26.426 44.2909V40.097C26.5653 39.531 26.9525 39.3217 27.2777 39.2442H35.4772C37.4748 37.2441 35.4772 35.9262 35.4772 35.9262H27.2467C26.9215 35.8409 26.5344 35.5929 26.426 34.9727V33.9261C26.5499 33.3369 26.9138 33.1121 27.239 33.0268H39.4415C41.4391 31.0267 39.4415 29.7166 39.4415 29.7166H27.146C26.8518 29.6158 26.5499 29.391 26.426 28.8794V6.51394C26.5576 5.94027 26.9447 5.72321 27.2622 5.64569H39.1628C41.1604 3.64559 39.1628 2.33545 39.1628 2.33545H10.2127C8.17634 4.37431 10.2824 5.64569 10.2824 5.64569V5.63793ZM16.8018 23.1737H10.5998C10.5998 23.1737 8.63316 24.6931 10.7702 25.9335H18.629C18.629 25.9335 19.9763 25.4528 19.9763 24.5846V10.3048C19.9763 9.44432 18.629 8.95592 18.629 8.95592H10.7702C8.63316 10.1963 10.5998 11.7157 10.5998 11.7157H16.8018C17.4212 11.7157 17.4212 12.3359 17.4212 12.3359V16.3206H10.9947C10.1817 16.3206 10.2901 17.4447 10.2901 17.4447C10.2901 17.4447 10.1895 18.5688 10.9947 18.5688H17.4212V22.5535C17.4212 22.5535 17.4212 23.1737 16.8018 23.1737ZM49.6542 30.9027V2.73857C47.8269 0.940034 46.348 2.59903 46.348 2.59903V30.9725C44.8692 52.1673 24.7613 52.1673 24.7613 52.1673C24.7613 52.1673 4.7618 52.1673 3.29068 30.9725V16.5454V2.60678C3.29068 2.60678 1.8273 0.947786 1.37417e-05 2.73857V16.5454V30.9027C1.37417e-05 30.9027 -1.04526 53.7565 24.7535 55.338C50.6994 53.7488 49.6464 30.9027 49.6464 30.9027H49.6542ZM30.7619 25.9335H38.6208C40.7578 24.6931 38.7911 23.1737 38.7911 23.1737H32.5892C31.9698 23.1737 31.9698 22.5535 31.9698 22.5535V18.5688H38.3962C39.2092 18.5688 39.1008 17.4447 39.1008 17.4447C39.1008 17.4447 39.2015 16.3206 38.3962 16.3206H31.9698V12.3359C31.9698 12.3359 31.9698 11.7157 32.5892 11.7157H38.7911C38.7911 11.7157 40.7578 10.1963 38.6208 8.95592H30.7619C30.7619 8.95592 29.4147 9.43656 29.4147 10.3048V17.4525V24.6001C29.4147 25.4606 30.7619 25.949 30.7619 25.949V25.9335Z" fill="#E7E6E7"/>
<path d="M27.2398 32.2205H39.4423C41.4399 30.2204 39.4423 28.9103 39.4423 28.9103H27.1469C26.8526 28.8095 26.5507 28.5847 26.4268 28.073V5.68435C26.5584 5.11068 26.9455 4.89362 27.263 4.8161H39.1636C41.1612 2.816 39.1636 1.50586 39.1636 1.50586H10.2135C8.17715 3.54472 10.2832 4.8161 10.2832 4.8161H22.1683C22.5012 4.89362 22.9038 5.13394 23.02 5.77738V27.9878C22.9193 28.5537 22.5941 28.8095 22.2844 28.9103H10.4845C8.44815 30.9491 10.5542 32.2205 10.5542 32.2205H22.207C22.5244 32.3058 22.8961 32.5384 23.02 33.1275V34.2671C22.8883 34.8175 22.5322 35.0424 22.2147 35.1199H14.1236C12.0872 37.1587 14.1933 38.4301 14.1933 38.4301H22.145C22.4857 38.5076 22.9116 38.748 23.02 39.4147V45.1669C23.02 45.1669 23.1748 47.136 25.0331 47.3918H27.8747C27.8747 47.3918 30.0194 46.1824 28.1302 44.2909H27.1236C26.4268 44.1358 26.4268 43.4614 26.4268 43.4614V39.2674C26.5661 38.7014 26.9533 38.4921 27.2785 38.4146H35.478C37.4757 36.4145 35.478 35.1044 35.478 35.1044H27.2475C26.9223 35.0191 26.5352 34.771 26.4268 34.1508V33.1043C26.5507 32.5151 26.9146 32.2903 27.2398 32.1973V32.2205ZM16.7948 22.3518H10.5929C10.5929 22.3518 8.62623 23.8713 10.7632 25.1116H18.6221C18.6221 25.1116 19.9693 24.631 19.9693 23.7627V9.47523C19.9693 8.61473 18.6221 8.12633 18.6221 8.12633H10.7632C8.62623 9.3667 10.5929 10.8862 10.5929 10.8862H16.7948C17.4142 10.8862 17.4142 11.5063 17.4142 11.5063V15.491H10.9878C10.1748 15.491 10.2832 16.6151 10.2832 16.6151C10.2832 16.6151 10.1825 17.7392 10.9878 17.7392H17.4142V21.7239C17.4142 21.7239 17.4142 22.3441 16.7948 22.3441V22.3518ZM30.755 25.1116H38.6138C40.7508 23.8713 38.7842 22.3518 38.7842 22.3518H32.5823C31.9628 22.3518 31.9628 21.7316 31.9628 21.7316V17.7469H38.3893C39.2023 17.7469 39.0939 16.6229 39.0939 16.6229C39.0939 16.6229 39.1946 15.4988 38.3893 15.4988H31.9628V11.5141C31.9628 11.5141 31.9628 10.8939 32.5823 10.8939H38.7842C38.7842 10.8939 40.7508 9.37445 38.6138 8.13408H30.755C30.755 8.13408 29.4077 8.61473 29.4077 9.48299V16.6306V23.7782C29.4077 24.6388 30.755 25.1271 30.755 25.1271V25.1116Z" fill="#0B0707"/>
<path d="M49.1973 15.2979H45.9531V29.1047H49.1973V15.2979Z" fill="#7CAE2A"/>
<path d="M45.9531 1.35098C45.9531 1.35098 47.401 -0.308013 49.1973 1.49052V15.2974H45.9531V1.35098Z" fill="#CBDA00"/>
<path d="M49.1903 29.1044V29.6548C49.1903 29.6548 50.2278 52.5087 24.7852 54.0901V50.9117C24.7852 50.9117 44.5059 50.9117 45.9538 29.7169V29.0967H49.198L49.1903 29.1044Z" fill="#4E8730"/>
<path d="M3.66217 15.3047H0.417969V29.1116H3.66217V15.3047Z" fill="#00927E"/>
<path d="M3.66224 1.35879C3.66224 1.35879 2.21435 -0.3002 0.425781 1.49834V15.3052H3.66224V1.35879Z" fill="#63C0AD"/>
<path d="M0.418009 29.1122V29.6627C0.418009 29.6627 -0.619517 52.5165 24.8231 54.0979V50.9195C24.8231 50.9195 5.10236 50.9195 3.65447 29.7247V29.1045H0.418009V29.1122Z" fill="#005F54"/>
</g>
<defs>
<clipPath id="clip0_209_489">
<rect width="150" height="54.6926" fill="white" transform="translate(0 0.65332)"/>
</clipPath>
</defs>
</svg>
