<svg width="113" height="42" viewBox="0 0 113 42" fill="none" xmlns="http://www.w3.org/2000/svg">
<g clip-path="url(#clip0_231_738)">
<path d="M48.0398 26.6808C48.3898 28.6102 48.9905 30.6849 49.8363 32.9107H48.5881C48.0281 31.6089 47.4273 29.9875 46.7915 28.0407C46.1499 26.0996 45.835 23.7808 45.835 21.0901C45.835 18.3994 46.1558 16.0632 46.7915 14.128C47.4332 12.1928 48.0281 10.5714 48.5881 9.27539H49.8363C48.9905 11.5012 48.3898 13.5817 48.0398 15.5053C47.6898 17.4347 47.5148 19.2944 47.5148 21.0901C47.5148 22.8859 47.6898 24.7514 48.0398 26.6808Z" fill="white"/>
<path d="M61.1518 15.8655C62.0326 17.1266 63.5433 18.1145 65.6956 18.8293L64.494 20.6541C63.38 20.2938 62.2542 19.6429 61.1285 18.7015C59.9969 17.76 59.192 16.7604 58.702 15.6969C58.2179 16.7081 57.4713 17.6786 56.468 18.6027C55.4648 19.5267 54.2807 20.2125 52.91 20.6599L51.6851 18.8351C53.8199 18.1842 55.3306 17.2137 56.2172 15.9178C57.1038 14.6218 57.6113 13.6339 57.7338 12.9539H52.6008V10.7979H64.7973V12.9539H59.6644C59.7753 13.6397 60.2711 14.6102 61.146 15.8713L61.1518 15.8655ZM59.6003 24.664V32.527H57.7863V24.664H50.7227V22.5312H66.6872V24.664H59.6003Z" fill="white"/>
<path d="M69.7786 21.096C69.7786 19.3002 69.6036 17.4348 69.2478 15.5112C68.8978 13.5876 68.3028 11.507 67.4688 9.28125H68.6995C69.2594 10.583 69.8602 12.1986 70.496 14.1338C71.1376 16.0691 71.4526 18.3878 71.4526 21.096C71.4526 23.8041 71.1318 26.0997 70.496 28.0465C69.8544 29.9876 69.2594 31.6148 68.6995 32.9165H67.4688C68.3028 30.6907 68.8978 28.616 69.2478 26.6866C69.5977 24.763 69.7786 22.8975 69.7786 21.096Z" fill="white"/>
<path d="M82.6046 24.1937C82.1088 25.4025 81.403 26.0069 80.4989 26.0069C79.5948 26.0069 78.8541 25.4025 78.3408 24.1937C77.8275 22.9849 77.565 21.5611 77.565 19.9165C77.565 18.2718 77.8216 16.8945 78.3408 15.6799C78.8541 14.4653 79.5773 13.8551 80.4989 13.8551C81.4205 13.8551 82.1088 14.4595 82.6046 15.6683C83.1004 16.877 83.3512 18.295 83.3512 19.9223C83.3512 21.5495 83.1004 22.9907 82.6046 24.1995V24.1937ZM84.0453 13.8551C83.1762 12.3499 81.9805 11.5944 80.4698 11.5944C78.959 11.5944 77.7808 12.3499 76.8825 13.8551C75.9843 15.3603 75.5352 17.3885 75.5352 19.9455C75.5352 22.5026 75.9843 24.5075 76.8825 26.0185C77.7808 27.5353 78.9765 28.2908 80.4698 28.2908C81.963 28.2908 83.1704 27.5295 84.0453 26.0069C84.9144 24.4843 85.3519 22.4619 85.3519 19.9455C85.3519 17.4291 84.9144 15.3661 84.0453 13.8551ZM91.0039 9.89746H88.9507V32.5041H91.0039V9.89746Z" fill="white"/>
<path d="M113 25.5596H108.334V32.4985H106.28V25.5596H101.643V32.237H99.5901V25.5596H94.9238V23.4036H113.006V25.5596H113ZM110.789 21.3231H97.3503V10.6357H110.684V12.8209H99.4326V14.9246H110.608V17.0807H99.4326V19.1379H110.795V21.3231H110.789Z" fill="white"/>
<path d="M7.74558 4.23665H16.699C16.9498 4.29476 17.2531 4.47492 17.3406 4.95727V21.6072C17.2648 22.0314 17.0198 22.2232 16.7865 22.2987H7.89723C6.36319 23.8271 7.94973 24.7802 7.94973 24.7802H16.7282C16.9673 24.8442 17.2473 25.0185 17.3406 25.4602V26.3145C17.2415 26.7271 16.9732 26.8956 16.734 26.9537H10.6387C9.10464 28.4821 10.6912 29.441 10.6912 29.441H16.6815C16.9382 29.4991 17.259 29.6793 17.3406 30.1791V34.4912C17.3406 34.4912 17.4573 35.9673 18.8572 36.1591H19.9071H20.9978C20.9978 36.1591 22.6135 35.2525 21.1903 33.8345H20.4321C19.9071 33.7183 19.9071 33.2127 19.9071 33.2127V30.0687C20.0121 29.6444 20.3037 29.4875 20.5487 29.4294H26.7257C28.2306 27.93 26.7257 26.9421 26.7257 26.9421H20.5254C20.2804 26.8782 19.9888 26.6922 19.9071 26.2273V25.4427C20.0004 25.0011 20.2746 24.8325 20.5195 24.7686H29.7121C31.217 23.2692 29.7121 22.2871 29.7121 22.2871H20.4496C20.2279 22.2116 20.0004 22.043 19.9071 21.6595V4.89334C20.0063 4.46329 20.2979 4.30057 20.537 4.24246H29.5021C31.007 2.7431 29.5021 1.76095 29.5021 1.76095H7.69308C6.15904 3.28937 7.74558 4.24246 7.74558 4.24246V4.23665ZM12.6568 17.3822H7.98473C7.98473 17.3822 6.50318 18.5213 8.11305 19.4511H14.0334C14.0334 19.4511 15.0483 19.0908 15.0483 18.4399V7.73516C15.0483 7.09008 14.0334 6.72396 14.0334 6.72396H8.11305C6.50318 7.6538 7.98473 8.79285 7.98473 8.79285H12.6568C13.1235 8.79285 13.1235 9.25776 13.1235 9.25776V12.2449H8.2822C7.66975 12.2449 7.75141 13.0875 7.75141 13.0875C7.75141 13.0875 7.67559 13.9302 8.2822 13.9302H13.1235V16.9173C13.1235 16.9173 13.1235 17.3822 12.6568 17.3822ZM37.4057 23.1763V2.06315C36.0291 0.714888 34.915 1.95855 34.915 1.95855V23.2286C33.801 39.1171 18.653 39.1171 18.653 39.1171C18.653 39.1171 3.58675 39.1171 2.47851 23.2286V12.4134V1.96436C2.47851 1.96436 1.3761 0.7207 -0.000458398 2.06315V12.4134V23.1763C-0.000458398 23.1763 -0.787895 40.3085 18.6472 41.494C38.1931 40.3027 37.3998 23.1763 37.3998 23.1763H37.4057ZM23.1735 19.4511H29.0938C30.7037 18.5213 29.2222 17.3822 29.2222 17.3822H24.5501C24.0834 17.3822 24.0834 16.9173 24.0834 16.9173V13.9302H28.9247C29.5371 13.9302 29.4555 13.0875 29.4555 13.0875C29.4555 13.0875 29.5313 12.2449 28.9247 12.2449H24.0834V9.25776C24.0834 9.25776 24.0834 8.79285 24.5501 8.79285H29.2222C29.2222 8.79285 30.7037 7.6538 29.0938 6.72396H23.1735C23.1735 6.72396 22.1586 7.08427 22.1586 7.73516V13.0933V18.4515C22.1586 19.0966 23.1735 19.4627 23.1735 19.4627V19.4511Z" fill="white"/>
<path d="M20.5193 24.1647H29.7119C31.2168 22.6654 29.7119 21.6832 29.7119 21.6832H20.4493C20.2277 21.6077 20.0002 21.4392 19.9069 21.0556V4.27204C20.006 3.84199 20.2977 3.67927 20.5368 3.62115H29.5019C31.0068 2.12179 29.5019 1.13965 29.5019 1.13965H7.69286C6.15882 2.66807 7.74536 3.62115 7.74536 3.62115H16.6988C16.9496 3.67927 17.2529 3.85942 17.3404 4.34177V20.9917C17.2646 21.4159 17.0196 21.6077 16.7863 21.6832H7.89701C6.36297 23.2117 7.94951 24.1647 7.94951 24.1647H16.728C16.9671 24.2287 17.2471 24.403 17.3404 24.8447V25.699C17.2413 26.1116 16.9729 26.2801 16.7338 26.3382H10.6385C9.10441 27.8666 10.691 28.8197 10.691 28.8197H16.6813C16.9379 28.8778 17.2588 29.058 17.3404 29.5578V33.8699C17.3404 33.8699 17.4571 35.346 18.857 35.5378H20.9976C20.9976 35.5378 22.6133 34.6312 21.1901 33.2132H20.4318C19.9069 33.097 19.9069 32.5914 19.9069 32.5914V29.4474C20.0119 29.0231 20.3035 28.8662 20.5485 28.8081H26.7255C28.2304 27.3087 26.7255 26.3266 26.7255 26.3266H20.5252C20.2802 26.2627 19.9885 26.0767 19.9069 25.6118V24.8272C20.0002 24.3856 20.2743 24.217 20.5193 24.1473V24.1647ZM12.6508 16.7667H7.97867C7.97867 16.7667 6.49713 17.9058 8.10699 18.8356H14.0273C14.0273 18.8356 15.0423 18.4753 15.0423 17.8244V7.11385C15.0423 6.46878 14.0273 6.10265 14.0273 6.10265H8.10699C6.49713 7.03249 7.97867 8.17154 7.97867 8.17154H12.6508C13.1174 8.17154 13.1174 8.63646 13.1174 8.63646V11.6236H8.27615C7.6637 11.6236 7.74536 12.4662 7.74536 12.4662C7.74536 12.4662 7.66953 13.3089 8.27615 13.3089H13.1174V16.296C13.1174 16.296 13.1174 16.7609 12.6508 16.7609V16.7667ZM23.1674 18.8356H29.0878C30.6977 17.9058 29.2161 16.7667 29.2161 16.7667H24.544C24.0774 16.7667 24.0774 16.3018 24.0774 16.3018V13.3147H28.9186C29.5311 13.3147 29.4494 12.472 29.4494 12.472C29.4494 12.472 29.5253 11.6294 28.9186 11.6294H24.0774V8.64227C24.0774 8.64227 24.0774 8.17735 24.544 8.17735H29.2161C29.2161 8.17735 30.6977 7.0383 29.0878 6.10846H23.1674C23.1674 6.10846 22.1525 6.46878 22.1525 7.11966V12.4778V17.836C22.1525 18.4811 23.1674 18.8472 23.1674 18.8472V18.8356Z" fill="white"/>
<path d="M37.0612 11.4775H34.6172V21.8278H37.0612V11.4775Z" fill="white"/>
<path d="M34.6172 1.023C34.6172 1.023 35.7079 -0.220659 37.0612 1.1276V11.4779H34.6172V1.023Z" fill="white"/>
<path d="M37.0551 21.8281V22.2407C37.0551 22.2407 37.8367 39.3729 18.6699 40.5585V38.1758C18.6699 38.1758 33.5262 38.1758 34.617 22.2872V21.8223H37.0609L37.0551 21.8281Z" fill="white"/>
<path d="M2.75842 11.4834H0.314453V21.8336H2.75842V11.4834Z" fill="white"/>
<path d="M2.75845 1.02886C2.75845 1.02886 1.6677 -0.214799 0.320312 1.13346V11.4837H2.75845V1.02886Z" fill="white"/>
<path d="M0.314015 21.8339V22.2466C0.314015 22.2466 -0.467589 39.3788 18.6992 40.5643V38.1816C18.6992 38.1816 3.8429 38.1816 2.75215 22.293V21.8281H0.314015V21.8339Z" fill="white"/>
</g>
<defs>
<clipPath id="clip0_231_738">
<rect width="113" height="41" fill="white" transform="translate(0 0.5)"/>
</clipPath>
</defs>
</svg>
