<svg width="635" height="276" viewBox="0 0 635 276" fill="none" xmlns="http://www.w3.org/2000/svg" x="0" y="0">
<line y1="137.25" x2="635" y2="137.25" stroke="black" stroke-width="1.5"/>
<line x1="129.75" y1="3.27833e-08" x2="129.75" y2="276" stroke="black" stroke-width="1.5"/>
<line x1="489.75" y1="3.27833e-08" x2="489.75" y2="276" stroke="black" stroke-width="1.5"/>
<circle cx="529" cy="178" r="4" fill="black"/>
<path d="M518.281 151.258C518.146 150.81 517.94 150.427 517.664 150.109C517.388 149.786 517.055 149.539 516.664 149.367C516.279 149.19 515.839 149.102 515.344 149.102C514.698 149.102 514.12 149.266 513.609 149.594C513.104 149.922 512.703 150.406 512.406 151.047C512.115 151.682 511.969 152.448 511.969 153.344C511.969 154.234 512.115 155 512.406 155.641C512.703 156.276 513.109 156.76 513.625 157.094C514.146 157.422 514.742 157.586 515.414 157.586C516.029 157.586 516.562 157.461 517.016 157.211C517.474 156.961 517.828 156.607 518.078 156.148C518.328 155.685 518.453 155.151 518.453 154.547L518.898 154.625H515.664V153.203H520.125V154.492C520.125 155.424 519.922 156.245 519.516 156.953C519.115 157.656 518.557 158.201 517.844 158.586C517.135 158.966 516.326 159.156 515.414 159.156C514.398 159.156 513.503 158.919 512.727 158.445C511.951 157.971 511.346 157.297 510.914 156.422C510.487 155.547 510.273 154.521 510.273 153.344C510.273 152.161 510.49 151.133 510.922 150.258C511.359 149.383 511.961 148.711 512.727 148.242C513.492 147.768 514.362 147.531 515.336 147.531C516.143 147.531 516.88 147.688 517.547 148C518.219 148.312 518.771 148.75 519.203 149.312C519.641 149.875 519.922 150.523 520.047 151.258H518.281ZM527.766 150.664C527.724 150.32 527.604 150.023 527.406 149.773C527.208 149.523 526.94 149.336 526.602 149.211C526.268 149.086 525.883 149.023 525.445 149.023C524.992 149.023 524.594 149.094 524.25 149.234C523.906 149.375 523.641 149.573 523.453 149.828C523.266 150.078 523.172 150.365 523.172 150.688C523.172 151.161 523.367 151.526 523.758 151.781C524.148 152.036 524.641 152.24 525.234 152.391L526.32 152.68C527.263 152.909 528.042 153.268 528.656 153.758C529.276 154.247 529.586 154.953 529.586 155.875C529.586 156.51 529.419 157.081 529.086 157.586C528.758 158.086 528.276 158.479 527.641 158.766C527.01 159.047 526.26 159.188 525.391 159.188C524.552 159.188 523.82 159.055 523.195 158.789C522.57 158.518 522.083 158.135 521.734 157.641C521.385 157.141 521.193 156.549 521.156 155.867H522.875C522.911 156.258 523.044 156.589 523.273 156.859C523.503 157.13 523.799 157.333 524.164 157.469C524.529 157.604 524.935 157.672 525.383 157.672C525.862 157.672 526.292 157.596 526.672 157.445C527.052 157.294 527.349 157.081 527.562 156.805C527.776 156.523 527.883 156.203 527.883 155.844C527.883 155.531 527.794 155.268 527.617 155.055C527.44 154.841 527.198 154.667 526.891 154.531C526.589 154.391 526.208 154.258 525.75 154.133L524.406 153.781C523.458 153.521 522.732 153.148 522.227 152.664C521.721 152.174 521.469 151.547 521.469 150.781C521.469 150.141 521.643 149.576 521.992 149.086C522.346 148.596 522.826 148.216 523.43 147.945C524.039 147.669 524.724 147.531 525.484 147.531C526.24 147.531 526.911 147.667 527.5 147.938C528.094 148.203 528.56 148.573 528.898 149.047C529.237 149.521 529.414 150.06 529.43 150.664H527.766ZM530.789 157.75L534.719 153.789C535.193 153.299 535.557 152.904 535.812 152.602C536.068 152.299 536.258 152.003 536.383 151.711C536.513 151.414 536.578 151.107 536.578 150.789C536.578 150.43 536.487 150.112 536.305 149.836C536.122 149.56 535.872 149.346 535.555 149.195C535.237 149.044 534.88 148.969 534.484 148.969C534.073 148.969 533.711 149.052 533.398 149.219C533.091 149.38 532.852 149.615 532.68 149.922C532.513 150.224 532.43 150.573 532.43 150.969H530.797C530.797 150.292 530.956 149.693 531.273 149.172C531.591 148.651 532.031 148.247 532.594 147.961C533.161 147.674 533.805 147.531 534.523 147.531C535.237 147.531 535.872 147.672 536.43 147.953C536.987 148.229 537.422 148.612 537.734 149.102C538.052 149.586 538.211 150.13 538.211 150.734C538.211 151.167 538.13 151.583 537.969 151.984C537.807 152.385 537.534 152.828 537.148 153.312C536.763 153.797 536.211 154.393 535.492 155.102L533.188 157.438V157.523H538.398V159H530.797L530.789 157.75ZM543.664 159.156C542.961 159.156 542.32 159.023 541.742 158.758C541.169 158.487 540.714 158.115 540.375 157.641C540.042 157.167 539.862 156.633 539.836 156.039H541.5C541.536 156.362 541.654 156.648 541.852 156.898C542.055 157.148 542.312 157.349 542.625 157.5C542.943 157.646 543.289 157.719 543.664 157.719C544.112 157.719 544.513 157.617 544.867 157.414C545.227 157.211 545.508 156.932 545.711 156.578C545.914 156.219 546.016 155.82 546.016 155.383C546.016 154.919 545.911 154.51 545.703 154.156C545.5 153.797 545.211 153.513 544.836 153.305C544.466 153.096 544.049 152.992 543.586 152.992C543.117 152.982 542.716 153.057 542.383 153.219C542.049 153.38 541.786 153.635 541.594 153.984H539.977L540.711 147.688H547.117V149.164H542.141L541.75 152.32H541.852C542.102 152.096 542.414 151.914 542.789 151.773C543.169 151.633 543.568 151.562 543.984 151.562C544.688 151.562 545.32 151.724 545.883 152.047C546.451 152.365 546.893 152.812 547.211 153.391C547.534 153.964 547.693 154.612 547.688 155.336C547.693 156.065 547.521 156.721 547.172 157.305C546.828 157.883 546.349 158.336 545.734 158.664C545.125 158.992 544.435 159.156 543.664 159.156Z" fill="black"/>
<circle cx="443" cy="200" r="4" fill="black"/>
<path d="M421.586 160.32H420.086V146.32H421.586V160.32ZM417.43 147.828C417.43 149.255 417.208 150.576 416.766 151.789C416.328 152.997 415.625 154.112 414.656 155.133C413.688 156.148 412.427 157.029 410.875 157.773L410.078 156.57C411.427 155.935 412.534 155.195 413.398 154.352C414.268 153.508 414.911 152.565 415.328 151.523C415.745 150.482 415.953 149.331 415.953 148.07V147.828H417.43ZM416.594 149.016H410.758V147.828H416.594V149.016ZM434.273 156.461H432.797V146.328H434.273V156.461ZM436.328 151.609H433.812V150.375H436.328V151.609ZM425.008 152.805C426.591 152.805 427.831 152.776 428.727 152.719C429.622 152.661 430.508 152.542 431.383 152.359L431.562 153.57C430.641 153.747 429.706 153.87 428.758 153.938C427.81 154 426.56 154.031 425.008 154.031H423.891V152.805H425.008ZM430.156 148.727H425.367V153.484H423.891V147.508H430.156V148.727ZM434.867 160.047H425.406V158.82H434.867V160.047ZM426.875 159.406H425.406V155.414H426.875V159.406ZM448.273 156.648H446.789V146.336H448.273V156.648ZM447.047 151.797H443.891V150.562H447.047V151.797ZM443.977 147.391C443.977 148.589 443.711 149.693 443.18 150.703C442.654 151.708 441.901 152.583 440.922 153.328C439.948 154.068 438.786 154.656 437.438 155.094L436.805 153.906C437.945 153.536 438.932 153.062 439.766 152.484C440.604 151.901 441.25 151.229 441.703 150.469C442.161 149.703 442.391 148.888 442.391 148.023V147.391H443.977ZM443.352 148.625H437.523V147.391H443.352V148.625ZM448.633 160.047H439.25V158.82H448.633V160.047ZM440.758 159.461H439.25V155.594H440.758V159.461ZM457.031 156.328H455.57V154.164H457.031V156.328ZM462.695 154.516H449.93V153.32H462.695V154.516ZM461.125 160.281H459.641V157.188H451.344V155.992H461.125V160.281ZM457.031 148.273H455.57V146.281H457.031V148.273ZM456.789 148.664C456.789 149.404 456.544 150.052 456.055 150.609C455.57 151.167 454.898 151.617 454.039 151.961C453.18 152.299 452.195 152.523 451.086 152.633L450.609 151.516C451.578 151.422 452.43 151.245 453.164 150.984C453.904 150.724 454.474 150.396 454.875 150C455.281 149.599 455.484 149.154 455.484 148.664V148.398H456.789V148.664ZM457.125 148.664C457.125 149.154 457.323 149.599 457.719 150C458.12 150.396 458.69 150.724 459.43 150.984C460.174 151.245 461.031 151.422 462 151.516L461.523 152.633C460.414 152.523 459.43 152.299 458.57 151.961C457.711 151.617 457.036 151.167 456.547 150.609C456.062 150.052 455.82 149.404 455.82 148.664V148.398H457.125V148.664ZM461.422 148.844H451.219V147.672H461.422V148.844ZM467.844 149.883C467.844 150.951 467.682 151.982 467.359 152.977C467.036 153.966 466.581 154.844 465.992 155.609C465.404 156.375 464.721 156.961 463.945 157.367L463.016 156.172C463.729 155.833 464.357 155.333 464.898 154.672C465.445 154.005 465.872 153.255 466.18 152.422C466.487 151.583 466.641 150.737 466.641 149.883V147.484H467.844V149.883ZM468.102 149.883C468.102 150.706 468.25 151.518 468.547 152.32C468.849 153.117 469.268 153.833 469.805 154.469C470.341 155.099 470.948 155.581 471.625 155.914L470.719 157.102C469.964 156.706 469.297 156.138 468.719 155.398C468.146 154.659 467.703 153.812 467.391 152.859C467.078 151.906 466.922 150.914 466.922 149.883V147.484H468.102V149.883ZM474.164 160.32H472.688V146.32H474.164V160.32ZM476.422 153.18H473.828V151.906H476.422V153.18ZM427.859 171.883C427.859 172.951 427.698 173.982 427.375 174.977C427.052 175.966 426.596 176.844 426.008 177.609C425.419 178.375 424.737 178.961 423.961 179.367L423.031 178.172C423.745 177.833 424.372 177.333 424.914 176.672C425.461 176.005 425.888 175.255 426.195 174.422C426.503 173.583 426.656 172.737 426.656 171.883V169.484H427.859V171.883ZM428.117 171.883C428.117 172.706 428.266 173.518 428.562 174.32C428.865 175.117 429.284 175.833 429.82 176.469C430.357 177.099 430.964 177.581 431.641 177.914L430.734 179.102C429.979 178.706 429.312 178.138 428.734 177.398C428.161 176.659 427.719 175.812 427.406 174.859C427.094 173.906 426.938 172.914 426.938 171.883V169.484H428.117V171.883ZM434.18 182.32H432.703V168.32H434.18V182.32ZM436.438 175.18H433.844V173.906H436.438V175.18ZM449.398 177.57H436.586V176.359H449.398V177.57ZM443.688 182.32H442.227V177.109H443.688V182.32ZM447.781 174.586H438.188V169.07H447.781V174.586ZM439.648 173.422H446.305V170.266H439.648V173.422ZM462.742 180.547H449.93V179.344H462.742V180.547ZM457 179.711H455.531V175.992H457V179.711ZM456.781 170.273C456.781 171.237 456.518 172.138 455.992 172.977C455.466 173.815 454.763 174.521 453.883 175.094C453.003 175.661 452.047 176.047 451.016 176.25L450.367 175.023C451.263 174.872 452.102 174.56 452.883 174.086C453.669 173.612 454.297 173.039 454.766 172.367C455.24 171.695 455.477 170.997 455.477 170.273V169.234H456.781V170.273ZM457.039 170.273C457.039 171.003 457.276 171.703 457.75 172.375C458.229 173.042 458.862 173.612 459.648 174.086C460.44 174.56 461.284 174.872 462.18 175.023L461.531 176.25C460.495 176.042 459.536 175.656 458.656 175.094C457.776 174.526 457.073 173.826 456.547 172.992C456.026 172.159 455.766 171.253 455.766 170.273V169.234H457.039V170.273Z" fill="black"/>
<circle cx="443" cy="99" r="4" fill="black"/>
<path d="M411.438 49.6641C411.396 49.3203 411.276 49.0234 411.078 48.7734C410.88 48.5234 410.612 48.3359 410.273 48.2109C409.94 48.0859 409.555 48.0234 409.117 48.0234C408.664 48.0234 408.266 48.0938 407.922 48.2344C407.578 48.375 407.312 48.5729 407.125 48.8281C406.938 49.0781 406.844 49.3646 406.844 49.6875C406.844 50.1615 407.039 50.526 407.43 50.7812C407.82 51.0365 408.312 51.2396 408.906 51.3906L409.992 51.6797C410.935 51.9089 411.714 52.2682 412.328 52.7578C412.948 53.2474 413.258 53.9531 413.258 54.875C413.258 55.5104 413.091 56.0807 412.758 56.5859C412.43 57.0859 411.948 57.4792 411.312 57.7656C410.682 58.0469 409.932 58.1875 409.062 58.1875C408.224 58.1875 407.492 58.0547 406.867 57.7891C406.242 57.5182 405.755 57.1354 405.406 56.6406C405.057 56.1406 404.865 55.5495 404.828 54.8672H406.547C406.583 55.2578 406.716 55.5885 406.945 55.8594C407.174 56.1302 407.471 56.3333 407.836 56.4688C408.201 56.6042 408.607 56.6719 409.055 56.6719C409.534 56.6719 409.964 56.5964 410.344 56.4453C410.724 56.2943 411.021 56.0807 411.234 55.8047C411.448 55.5234 411.555 55.2031 411.555 54.8438C411.555 54.5312 411.466 54.2682 411.289 54.0547C411.112 53.8411 410.87 53.6667 410.562 53.5312C410.26 53.3906 409.88 53.2578 409.422 53.1328L408.078 52.7812C407.13 52.5208 406.404 52.1484 405.898 51.6641C405.393 51.1745 405.141 50.5469 405.141 49.7812C405.141 49.1406 405.315 48.5755 405.664 48.0859C406.018 47.5964 406.497 47.2161 407.102 46.9453C407.711 46.6693 408.396 46.5312 409.156 46.5312C409.911 46.5312 410.583 46.6667 411.172 46.9375C411.766 47.2031 412.232 47.5729 412.57 48.0469C412.909 48.5208 413.086 49.0599 413.102 49.6641H411.438ZM413.719 46.6875H415.523L417.727 55.4297H417.836L420.117 46.6875H421.906L424.203 55.4375H424.297L426.508 46.6875H428.305L425.164 58H423.43L421.062 49.5391H420.977L418.594 58H416.859L413.719 46.6875ZM433.172 55.2031H431.68V52.4297H433.172V55.2031ZM438.273 55.2031H436.789V52.4297H438.273V55.2031ZM441.344 53H428.578V51.7969H441.344V53ZM434.953 54.3047C435.964 54.3047 436.828 54.401 437.547 54.5938C438.271 54.7812 438.826 55.0625 439.211 55.4375C439.596 55.8125 439.789 56.2682 439.789 56.8047C439.789 57.3359 439.596 57.7891 439.211 58.1641C438.826 58.5391 438.271 58.8255 437.547 59.0234C436.828 59.2214 435.964 59.3229 434.953 59.3281C433.943 59.3229 433.073 59.2214 432.344 59.0234C431.615 58.8255 431.057 58.5391 430.672 58.1641C430.286 57.7891 430.094 57.3359 430.094 56.8047C430.094 56.2682 430.286 55.8125 430.672 55.4375C431.057 55.0625 431.615 54.7812 432.344 54.5938C433.073 54.401 433.943 54.3047 434.953 54.3047ZM434.953 55.4297C434.24 55.4297 433.633 55.4818 433.133 55.5859C432.633 55.6901 432.253 55.8464 431.992 56.0547C431.732 56.263 431.602 56.513 431.602 56.8047C431.602 57.0911 431.729 57.3385 431.984 57.5469C432.245 57.7552 432.625 57.9089 433.125 58.0078C433.63 58.112 434.24 58.1641 434.953 58.1641C435.661 58.1641 436.266 58.112 436.766 58.0078C437.266 57.9089 437.646 57.7552 437.906 57.5469C438.167 57.3385 438.297 57.0911 438.297 56.8047C438.297 56.513 438.167 56.263 437.906 56.0547C437.646 55.8464 437.266 55.6901 436.766 55.5859C436.266 55.4818 435.661 55.4297 434.953 55.4297ZM434.961 45.5859C435.971 45.5859 436.852 45.6927 437.602 45.9062C438.357 46.1146 438.938 46.4193 439.344 46.8203C439.75 47.2161 439.953 47.6901 439.953 48.2422C439.953 48.7839 439.75 49.2526 439.344 49.6484C438.938 50.0443 438.357 50.3464 437.602 50.5547C436.852 50.763 435.971 50.8672 434.961 50.8672C433.935 50.8672 433.044 50.763 432.289 50.5547C431.539 50.3464 430.961 50.0443 430.555 49.6484C430.148 49.2526 429.945 48.7839 429.945 48.2422C429.945 47.6901 430.148 47.2161 430.555 46.8203C430.961 46.4193 431.539 46.1146 432.289 45.9062C433.044 45.6927 433.935 45.5859 434.961 45.5859ZM434.961 46.7578C434.237 46.7578 433.615 46.8151 433.094 46.9297C432.578 47.0391 432.18 47.2057 431.898 47.4297C431.622 47.6536 431.484 47.9245 431.484 48.2422C431.484 48.5495 431.622 48.8125 431.898 49.0312C432.18 49.25 432.578 49.4193 433.094 49.5391C433.615 49.6536 434.237 49.7109 434.961 49.7109C435.669 49.7109 436.284 49.6536 436.805 49.5391C437.331 49.4193 437.732 49.25 438.008 49.0312C438.289 48.8125 438.43 48.5495 438.43 48.2422C438.43 47.9245 438.289 47.6536 438.008 47.4297C437.732 47.2057 437.331 47.0391 436.805 46.9297C436.284 46.8151 435.669 46.7578 434.961 46.7578ZM452.906 53.4844H451.43V45.3203H452.906V53.4844ZM454.945 50.0938H452.289V48.8438H454.945V50.0938ZM445.422 55.4219H451.43V54.0703H452.906V59.1484H443.945V54.0703H445.422V55.4219ZM451.43 57.9688V56.5781H445.422V57.9688H451.43ZM450.258 47.8984H441.922V46.6953H450.258V47.8984ZM446.094 48.4531C446.766 48.4531 447.357 48.5547 447.867 48.7578C448.378 48.9609 448.776 49.25 449.062 49.625C449.349 50 449.492 50.4323 449.492 50.9219C449.492 51.4115 449.349 51.8411 449.062 52.2109C448.776 52.5807 448.378 52.8698 447.867 53.0781C447.357 53.2812 446.766 53.3828 446.094 53.3828C445.422 53.3828 444.828 53.2812 444.312 53.0781C443.797 52.8698 443.396 52.5833 443.109 52.2188C442.828 51.849 442.688 51.4167 442.688 50.9219C442.688 50.4271 442.828 49.9948 443.109 49.625C443.396 49.25 443.797 48.9609 444.312 48.7578C444.828 48.5547 445.422 48.4531 446.094 48.4531ZM446.094 49.5859C445.703 49.5755 445.357 49.625 445.055 49.7344C444.753 49.8438 444.521 50.0026 444.359 50.2109C444.198 50.4193 444.117 50.6562 444.117 50.9219C444.117 51.1875 444.198 51.4245 444.359 51.6328C444.521 51.8411 444.753 52 445.055 52.1094C445.357 52.2188 445.703 52.2734 446.094 52.2734C446.484 52.2734 446.831 52.2188 447.133 52.1094C447.44 52 447.677 51.8411 447.844 51.6328C448.01 51.4245 448.094 51.1875 448.094 50.9219C448.094 50.6458 448.008 50.4062 447.836 50.2031C447.664 50 447.427 49.8438 447.125 49.7344C446.828 49.625 446.484 49.5755 446.094 49.5859ZM446.836 47.3594H445.359V45.2031H446.836V47.3594ZM463.68 51.7812H461.07V50.5703H463.68V51.7812ZM456.641 54.8516C457.781 54.8411 458.708 54.8125 459.422 54.7656C460.141 54.7135 460.875 54.6224 461.625 54.4922L461.75 55.6875C461.01 55.8281 460.284 55.9219 459.57 55.9688C458.862 56.0156 457.885 56.0417 456.641 56.0469H455.742V54.8516H456.641ZM460.961 48.1641H457.156V55.2656H455.742V46.9844H460.961V48.1641ZM460.352 51.9141H456.727V50.75H460.352V51.9141ZM467.266 59.3203H465.844V45.3203H467.266V59.3203ZM464.367 58.6328H462.969V45.6328H464.367V58.6328ZM479 47.9062H470.078V46.6875H479V47.9062ZM481.328 57.4531H468.562V56.2188H481.328V57.4531ZM479.828 48.3828C479.828 49.2839 479.818 50.0443 479.797 50.6641C479.781 51.2786 479.729 51.9714 479.641 52.7422C479.557 53.5078 479.419 54.3464 479.227 55.2578L477.742 55.125C477.935 54.2917 478.076 53.5078 478.164 52.7734C478.258 52.0339 478.318 51.3594 478.344 50.75C478.37 50.1406 478.383 49.4036 478.383 48.5391V48.3828V46.6875H479.828V48.3828ZM469.883 52.125L469.688 50.9141L478.727 50.5625V51.6562L469.883 52.125ZM428.211 81.3594H426.719V67.3203H428.211V81.3594ZM418.867 72.0938H422.648V68.4922H424.102V78.0078H417.391V68.4922H418.867V72.0938ZM422.648 76.7812V73.2656H418.867V76.7812H422.648ZM442.75 79.5234H429.938V78.2969H442.75V79.5234ZM436.812 70.3047C436.812 71.2318 436.552 72.0911 436.031 72.8828C435.516 73.6745 434.823 74.3438 433.953 74.8906C433.083 75.4323 432.143 75.7995 431.133 75.9922L430.531 74.8047C431.401 74.6484 432.221 74.3516 432.992 73.9141C433.763 73.4714 434.38 72.9323 434.844 72.2969C435.312 71.6562 435.547 70.9922 435.547 70.3047V69.2344H436.812V70.3047ZM437.094 70.3047C437.094 71.0026 437.328 71.6641 437.797 72.2891C438.271 72.9141 438.898 73.4453 439.68 73.8828C440.466 74.3151 441.302 74.6042 442.188 74.75L441.594 75.9219C440.568 75.724 439.617 75.362 438.742 74.8359C437.867 74.3047 437.167 73.6484 436.641 72.8672C436.12 72.0807 435.859 71.2266 435.859 70.3047V69.2344H437.094V70.3047ZM441.648 69.8672H430.992V68.6641H441.648V69.8672ZM451.5 71.9844H448.961V70.7656H451.5V71.9844ZM455.203 77.8203H453.789V67.3203H455.203V77.8203ZM452.422 77.4219H451V67.5859H452.422V77.4219ZM455.602 81.0469H445.914V79.8203H455.602V81.0469ZM447.391 80.5156H445.914V76.5469H447.391V80.5156ZM447.242 70.3047C447.242 71.0703 447.117 71.8177 446.867 72.5469C446.622 73.276 446.26 73.9323 445.781 74.5156C445.302 75.099 444.729 75.5495 444.062 75.8672L443.242 74.7266C443.836 74.4453 444.344 74.0651 444.766 73.5859C445.188 73.1016 445.508 72.5755 445.727 72.0078C445.951 71.4349 446.062 70.8672 446.062 70.3047V68.2969H447.242V70.3047ZM447.5 70.3047C447.5 70.8568 447.604 71.3932 447.812 71.9141C448.021 72.4349 448.326 72.9115 448.727 73.3438C449.128 73.7708 449.617 74.112 450.195 74.3672L449.375 75.5234C448.719 75.2161 448.164 74.7969 447.711 74.2656C447.263 73.7292 446.924 73.1224 446.695 72.4453C446.466 71.7682 446.352 71.0547 446.352 70.3047V68.2969H447.5V70.3047ZM468.273 81.3594H466.797V67.3203H468.273V81.3594ZM467.016 73.7031H464.008V72.4922H467.016V73.7031ZM458.32 76.8203C459.685 76.8255 460.831 76.7995 461.758 76.7422C462.685 76.6849 463.62 76.5781 464.562 76.4219L464.719 77.6328C463.74 77.7839 462.768 77.8906 461.805 77.9531C460.841 78.0104 459.68 78.0391 458.32 78.0391H457.234V76.8203H458.32ZM463.781 69.7891H458.727V77.2188H457.234V68.5703H463.781V69.7891ZM463.195 73.6875H458.359V72.5H463.195V73.6875Z" fill="black"/>
<circle cx="172" cy="99" r="4" fill="black"/>
<path d="M149.961 59.3203H148.555V45.3203H149.961V59.3203ZM148.914 52.0938H146.297V50.8828H148.914V52.0938ZM146.727 58.6172H145.367V45.6094H146.727V58.6172ZM139.352 54.7031C140.451 54.7031 141.375 54.6797 142.125 54.6328C142.875 54.5807 143.638 54.4792 144.414 54.3281L144.531 55.5547C143.74 55.7109 142.958 55.8177 142.188 55.875C141.422 55.9271 140.477 55.9557 139.352 55.9609H138.422V54.7031H139.352ZM143.664 48.2188H139.898V55.2969H138.422V47.0078H143.664V48.2188ZM161.68 47.4062H152.828V46.2031H161.68V47.4062ZM164.039 53.4141H151.273V52.2031H164.039V53.4141ZM158.359 59.3516H156.875V53.0234H158.359V59.3516ZM162.414 47.5703C162.414 48.2005 162.404 48.7604 162.383 49.25C162.362 49.7344 162.312 50.2917 162.234 50.9219C162.161 51.5469 162.039 52.2214 161.867 52.9453L160.398 52.7734C160.57 52.0599 160.695 51.3932 160.773 50.7734C160.852 50.1536 160.898 49.6042 160.914 49.125C160.93 48.6458 160.938 48.0859 160.938 47.4453V46.2031H162.414V47.4375V47.5703ZM176.203 59.3594H174.711V45.3203H176.203V59.3594ZM166.656 54.6484C168.198 54.6484 169.451 54.6198 170.414 54.5625C171.383 54.5052 172.354 54.3906 173.328 54.2188L173.469 55.4531C172.479 55.6302 171.49 55.7526 170.5 55.8203C169.51 55.8828 168.229 55.9167 166.656 55.9219H165.492V54.6484H166.656ZM172.203 47.8516H166.984V55.1328H165.492V46.625H172.203V47.8516ZM182.797 49.4531C182.797 50.4583 182.622 51.4427 182.273 52.4062C181.924 53.3646 181.445 54.2188 180.836 54.9688C180.227 55.7135 179.536 56.2734 178.766 56.6484L177.891 55.4844C178.583 55.151 179.211 54.6641 179.773 54.0234C180.336 53.3776 180.776 52.6562 181.094 51.8594C181.417 51.0573 181.578 50.2552 181.578 49.4531V47.375H182.797V49.4531ZM183.078 49.4531C183.078 50.224 183.234 50.9896 183.547 51.75C183.865 52.5104 184.305 53.1875 184.867 53.7812C185.435 54.375 186.073 54.8255 186.781 55.1328L185.961 56.2969C185.169 55.9427 184.464 55.4167 183.844 54.7188C183.229 54.0208 182.75 53.2161 182.406 52.3047C182.068 51.3932 181.898 50.4427 181.898 49.4531V47.375H183.078V49.4531ZM186.281 47.9609H178.383V46.7422H186.281V47.9609ZM189.531 59.3203H188.039V45.3203H189.531V59.3203ZM193.453 51.1953C194.75 51.1953 195.797 51.1719 196.594 51.125C197.391 51.0781 198.203 50.9896 199.031 50.8594L199.148 52.0469C198.299 52.1771 197.461 52.2656 196.633 52.3125C195.805 52.3542 194.698 52.375 193.312 52.375H193.008H191.961V51.1953H193.008H193.453ZM198.359 47.3594H193.438V51.9297H191.961V46.1562H198.359V47.3594ZM197.961 49.7656H193.008V48.6406H197.961V49.7656ZM201.781 49.6562H198.891V48.4688H201.781V49.6562ZM202.914 52.8438H201.445V45.3203H202.914V52.8438ZM202.914 56.8281H195.273V58.7891H193.789V55.7188H201.445V54.6016H193.766V53.4297H202.914V56.8281ZM203.414 59.1875H193.789V58.0156H203.414V59.1875ZM145.836 69.8906H137.969V68.6875H145.836V69.8906ZM141.953 70.5703C142.578 70.5703 143.135 70.6823 143.625 70.9062C144.115 71.125 144.497 71.4349 144.773 71.8359C145.055 72.237 145.195 72.6927 145.195 73.2031C145.195 73.7083 145.055 74.1615 144.773 74.5625C144.497 74.9635 144.115 75.276 143.625 75.5C143.135 75.724 142.578 75.8411 141.953 75.8516C141.344 75.8411 140.794 75.724 140.305 75.5C139.815 75.276 139.432 74.9635 139.156 74.5625C138.885 74.1615 138.75 73.7083 138.75 73.2031C138.75 72.6927 138.885 72.237 139.156 71.8359C139.432 71.4349 139.815 71.125 140.305 70.9062C140.794 70.6823 141.344 70.5703 141.953 70.5703ZM141.953 71.7031C141.604 71.7031 141.289 71.7656 141.008 71.8906C140.727 72.0156 140.51 72.1927 140.359 72.4219C140.208 72.6458 140.133 72.9062 140.133 73.2031C140.133 73.4948 140.208 73.7552 140.359 73.9844C140.51 74.2083 140.727 74.3828 141.008 74.5078C141.289 74.6276 141.604 74.6875 141.953 74.6875C142.318 74.6875 142.641 74.6276 142.922 74.5078C143.203 74.3828 143.422 74.2083 143.578 73.9844C143.734 73.7552 143.812 73.4948 143.812 73.2031C143.812 72.9062 143.734 72.6458 143.578 72.4219C143.422 72.1927 143.203 72.0156 142.922 71.8906C142.641 71.7656 142.318 71.7031 141.953 71.7031ZM142.711 69.5H141.234V67.2109H142.711V69.5ZM149.617 76.2109H148.133V67.3203H149.617V76.2109ZM148.68 71.8594H145.891V70.6797H148.68V71.8594ZM148.672 74.5391H145.875V73.3203H148.672V74.5391ZM149.617 81.3203H148.133V78.1641H140.133V76.9688H149.617V81.3203ZM162.883 77.5938H161.406V67.3359H162.883V77.5938ZM163.305 81.0469H153.734V79.8203H163.305V81.0469ZM155.219 80.4375H153.734V76.625H155.219V80.4375ZM156.086 69.5C156.086 70.4167 155.924 71.2812 155.602 72.0938C155.284 72.901 154.828 73.6094 154.234 74.2188C153.641 74.8281 152.943 75.2891 152.141 75.6016L151.352 74.4375C152.07 74.1719 152.695 73.7865 153.227 73.2812C153.758 72.7708 154.161 72.1901 154.438 71.5391C154.714 70.8828 154.852 70.2031 154.852 69.5V68.1172H156.086V69.5ZM156.375 69.5C156.375 70.1771 156.51 70.8255 156.781 71.4453C157.052 72.0599 157.451 72.6068 157.977 73.0859C158.503 73.5599 159.115 73.9219 159.812 74.1719L159.047 75.3516C158.24 75.0495 157.542 74.6146 156.953 74.0469C156.37 73.474 155.919 72.7995 155.602 72.0234C155.284 71.2422 155.125 70.401 155.125 69.5V68.1172H156.375V69.5ZM169.516 70.25C169.516 71.099 169.352 71.901 169.023 72.6562C168.701 73.4115 168.24 74.0703 167.641 74.6328C167.042 75.1901 166.339 75.6094 165.531 75.8906L164.758 74.7188C165.466 74.4688 166.089 74.1146 166.625 73.6562C167.161 73.1979 167.57 72.6771 167.852 72.0938C168.138 71.5052 168.281 70.8906 168.281 70.25V68.8672H169.516V70.25ZM169.781 70.25C169.781 70.8542 169.922 71.4349 170.203 71.9922C170.49 72.5495 170.898 73.0417 171.43 73.4688C171.961 73.8958 172.581 74.2188 173.289 74.4375L172.531 75.6172C171.729 75.3516 171.029 74.9531 170.43 74.4219C169.831 73.8906 169.37 73.2682 169.047 72.5547C168.724 71.8359 168.562 71.0677 168.562 70.25V68.8672H169.781V70.25ZM172.875 69.6406H165.141V68.4453H172.875V69.6406ZM176.211 77.5547H174.734V67.3359H176.211V77.5547ZM176.633 81.0469H167.062V79.8203H176.633V81.0469ZM168.547 80.3906H167.062V76.5938H168.547V80.3906ZM184.305 76.9922C185.857 76.9922 187.049 77.1771 187.883 77.5469C188.721 77.9115 189.141 78.4453 189.141 79.1484C189.141 79.8568 188.724 80.3958 187.891 80.7656C187.057 81.1354 185.862 81.3229 184.305 81.3281C182.732 81.3229 181.529 81.1354 180.695 80.7656C179.862 80.3958 179.445 79.8568 179.445 79.1484C179.445 78.4401 179.865 77.9036 180.703 77.5391C181.542 77.1745 182.742 76.9922 184.305 76.9922ZM184.305 78.0625C183.581 78.0625 182.969 78.1042 182.469 78.1875C181.969 78.2708 181.591 78.3958 181.336 78.5625C181.086 78.724 180.961 78.9193 180.961 79.1484C180.961 79.3828 181.086 79.5807 181.336 79.7422C181.591 79.8984 181.969 80.0182 182.469 80.1016C182.969 80.1849 183.581 80.2266 184.305 80.2266C185.029 80.2266 185.638 80.1849 186.133 80.1016C186.628 80.0182 187.003 79.8984 187.258 79.7422C187.513 79.5807 187.641 79.3828 187.641 79.1484C187.641 78.9193 187.513 78.724 187.258 78.5625C187.003 78.3958 186.628 78.2708 186.133 78.1875C185.638 78.1042 185.029 78.0625 184.305 78.0625ZM189.977 69.6016H178.57V68.4688H189.977V69.6016ZM184.312 70.1172C185.792 70.1172 186.924 70.2917 187.711 70.6406C188.503 70.9844 188.898 71.487 188.898 72.1484C188.898 72.7995 188.503 73.2969 187.711 73.6406C186.924 73.9844 185.792 74.1562 184.312 74.1562C182.833 74.1562 181.695 73.9844 180.898 73.6406C180.102 73.2969 179.703 72.7995 179.703 72.1484C179.703 71.487 180.102 70.9844 180.898 70.6406C181.695 70.2917 182.833 70.1172 184.312 70.1172ZM184.312 71.1328C183.651 71.1328 183.096 71.1719 182.648 71.25C182.206 71.3229 181.867 71.4349 181.633 71.5859C181.404 71.737 181.289 71.9245 181.289 72.1484C181.289 72.362 181.404 72.5417 181.633 72.6875C181.867 72.8281 182.206 72.9349 182.648 73.0078C183.091 73.0807 183.646 73.1198 184.312 73.125C184.974 73.1198 185.526 73.0807 185.969 73.0078C186.417 72.9349 186.755 72.8281 186.984 72.6875C187.214 72.5417 187.328 72.362 187.328 72.1484C187.328 71.9245 187.214 71.737 186.984 71.5859C186.755 71.4349 186.417 71.3229 185.969 71.25C185.521 71.1719 184.969 71.1328 184.312 71.1328ZM185.047 69.1953H183.57V67.1484H185.047V69.1953ZM190.695 76.1328H177.93V74.9844H190.695V76.1328ZM196.664 77.5156H195.172V74.4062H196.664V77.5156ZM202.906 77.9531H201.422V67.3359H202.906V77.9531ZM203.242 81.0469H193.125V79.8203H203.242V81.0469ZM194.617 80.1641H193.125V76.9219H194.617V80.1641ZM191.32 73.7344C193.206 73.7188 194.846 73.6875 196.242 73.6406C197.638 73.5885 198.979 73.4792 200.266 73.3125L200.352 74.3828C198.987 74.6068 197.552 74.7552 196.047 74.8281C194.547 74.901 192.992 74.9323 191.383 74.9219L191.188 73.7344H191.32ZM201.789 76.6172H198.594V75.5703H201.789V76.6172ZM195.773 67.875C196.451 67.8698 197.049 67.9714 197.57 68.1797C198.096 68.3828 198.508 68.6719 198.805 69.0469C199.102 69.4219 199.25 69.8516 199.25 70.3359C199.25 70.8307 199.102 71.2604 198.805 71.625C198.508 71.9896 198.096 72.2734 197.57 72.4766C197.049 72.6797 196.451 72.7812 195.773 72.7812C195.091 72.7812 194.484 72.6797 193.953 72.4766C193.427 72.2734 193.018 71.9896 192.727 71.625C192.435 71.2604 192.289 70.8307 192.289 70.3359C192.289 69.8516 192.435 69.4219 192.727 69.0469C193.018 68.6667 193.427 68.375 193.953 68.1719C194.484 67.9688 195.091 67.8698 195.773 67.875ZM195.773 68.9844C195.362 68.974 194.997 69.026 194.68 69.1406C194.367 69.25 194.125 69.4089 193.953 69.6172C193.786 69.8255 193.703 70.0651 193.703 70.3359C193.703 70.6068 193.786 70.8464 193.953 71.0547C194.125 71.2578 194.367 71.4167 194.68 71.5312C194.997 71.6406 195.362 71.6953 195.773 71.6953C196.174 71.6953 196.529 71.6406 196.836 71.5312C197.148 71.4167 197.393 71.2578 197.57 71.0547C197.747 70.8464 197.836 70.6068 197.836 70.3359C197.836 70.0651 197.745 69.8255 197.562 69.6172C197.385 69.4089 197.143 69.25 196.836 69.1406C196.529 69.026 196.174 68.974 195.773 68.9844Z" fill="black"/>
<circle cx="172" cy="178" r="4" fill="black"/>
<path d="M169.297 151.375C169.208 150.896 169.023 150.487 168.742 150.148C168.466 149.805 168.12 149.544 167.703 149.367C167.292 149.19 166.846 149.102 166.367 149.102C165.716 149.102 165.133 149.268 164.617 149.602C164.102 149.93 163.695 150.414 163.398 151.055C163.107 151.69 162.961 152.453 162.961 153.344C162.961 154.245 163.107 155.013 163.398 155.648C163.695 156.284 164.102 156.766 164.617 157.094C165.133 157.422 165.714 157.586 166.359 157.586C166.839 157.586 167.281 157.497 167.688 157.32C168.094 157.143 168.44 156.888 168.727 156.555C169.013 156.216 169.203 155.815 169.297 155.352L171.023 155.359C170.904 156.094 170.63 156.75 170.203 157.328C169.781 157.906 169.24 158.357 168.578 158.68C167.917 158.997 167.174 159.156 166.352 159.156C165.367 159.156 164.49 158.922 163.719 158.453C162.953 157.984 162.352 157.31 161.914 156.43C161.482 155.549 161.266 154.521 161.266 153.344C161.266 152.156 161.484 151.125 161.922 150.25C162.359 149.375 162.961 148.703 163.727 148.234C164.497 147.766 165.372 147.531 166.352 147.531C167.148 147.531 167.878 147.685 168.539 147.992C169.206 148.294 169.755 148.734 170.188 149.312C170.62 149.891 170.898 150.578 171.023 151.375H169.297ZM181.375 147.688V155.125C181.375 155.911 181.188 156.612 180.812 157.227C180.443 157.836 179.917 158.315 179.234 158.664C178.552 159.013 177.766 159.188 176.875 159.188C175.979 159.188 175.193 159.013 174.516 158.664C173.839 158.315 173.312 157.836 172.938 157.227C172.568 156.612 172.383 155.911 172.383 155.125V147.688H174.102V154.992C174.102 155.492 174.214 155.943 174.438 156.344C174.667 156.74 174.99 157.052 175.406 157.281C175.828 157.51 176.318 157.625 176.875 157.625C177.438 157.625 177.93 157.51 178.352 157.281C178.773 157.052 179.094 156.74 179.312 156.344C179.536 155.943 179.648 155.492 179.648 154.992V147.688H181.375Z" fill="black"/>
<rect width="86" height="32" transform="translate(250 122)" fill="black"/>
<path d="M266.781 138.32H264.789V131.203H266.781V138.32ZM268.703 135.609H265.953V133.969H268.703V135.609ZM266.781 142.766H259.336V144.492H257.375V141.32H264.797V140.422H257.352V138.891H266.781V142.766ZM267.195 145.281H257.375V143.711H267.195V145.281ZM259.43 131.641C260.148 131.641 260.797 131.779 261.375 132.055C261.958 132.326 262.414 132.706 262.742 133.195C263.076 133.685 263.242 134.24 263.242 134.859C263.242 135.474 263.076 136.029 262.742 136.523C262.414 137.013 261.958 137.396 261.375 137.672C260.797 137.943 260.148 138.078 259.43 138.078C258.711 138.078 258.06 137.94 257.477 137.664C256.893 137.388 256.432 137.005 256.094 136.516C255.76 136.026 255.594 135.474 255.594 134.859C255.594 134.24 255.76 133.685 256.094 133.195C256.427 132.706 256.885 132.326 257.469 132.055C258.052 131.779 258.706 131.641 259.43 131.641ZM259.43 133.266C259.065 133.26 258.74 133.323 258.453 133.453C258.167 133.583 257.943 133.768 257.781 134.008C257.62 134.247 257.539 134.531 257.539 134.859C257.539 135.188 257.62 135.477 257.781 135.727C257.943 135.971 258.167 136.161 258.453 136.297C258.74 136.432 259.065 136.5 259.43 136.5C259.794 136.5 260.117 136.432 260.398 136.297C260.68 136.161 260.901 135.971 261.062 135.727C261.224 135.477 261.305 135.188 261.305 134.859C261.305 134.531 261.224 134.247 261.062 134.008C260.901 133.768 260.68 133.583 260.398 133.453C260.117 133.323 259.794 133.26 259.43 133.266ZM276.688 134.133H268.758V132.531H276.688V134.133ZM268.398 140.539C270.07 140.539 271.628 140.516 273.07 140.469C274.513 140.422 275.862 140.32 277.117 140.164L277.211 141.586C275.924 141.815 274.581 141.969 273.18 142.047C271.779 142.12 270.258 142.161 268.617 142.172L268.398 140.539ZM271.938 140.984H270.008V133.789H271.938V140.984ZM275.414 140.984H273.5V133.789H275.414V140.984ZM279.797 145.438H277.797V131.203H279.797V145.438ZM281.906 138.258H279.359V136.633H281.906V138.258ZM286.812 134.43C286.812 135.68 286.659 136.844 286.352 137.922C286.049 139 285.591 139.951 284.977 140.773C284.362 141.591 283.596 142.211 282.68 142.633L281.469 140.969C282.276 140.625 282.956 140.12 283.508 139.453C284.065 138.786 284.482 138.021 284.758 137.156C285.034 136.292 285.172 135.383 285.172 134.43V132.305H286.812V134.43ZM287.195 134.43C287.195 135.336 287.328 136.201 287.594 137.023C287.865 137.841 288.271 138.573 288.812 139.219C289.354 139.865 290.013 140.352 290.789 140.68L289.617 142.281C288.737 141.88 287.99 141.286 287.375 140.5C286.766 139.714 286.31 138.802 286.008 137.766C285.706 136.729 285.555 135.617 285.555 134.43V132.305H287.195V134.43ZM293.562 145.477H291.539V131.203H293.562V145.477ZM296.742 140.617C298.112 140.617 299.299 140.589 300.305 140.531C301.31 140.469 302.341 140.359 303.398 140.203L303.586 141.805C302.555 141.956 301.521 142.06 300.484 142.117C299.448 142.169 298.201 142.201 296.742 142.211H295.508V140.617H296.742ZM302.742 134.016H297.492V141.117H295.508V132.391H302.742V134.016ZM302.156 137.93H297.039V136.359H302.156V137.93ZM306.688 145.438H304.664V131.203H306.688V145.438ZM316.102 144H313.742V134.922H313.68L311.094 136.562V134.469L313.891 132.688H316.102V144ZM330.523 143.859H317.523V142.227H330.523V143.859ZM324.977 142.906H323.016V139.531H324.977V142.906ZM329.023 136.852H321.008V139.281H319.023V135.289H327.055V133.742H319V132.141H329.023V136.852ZM329.359 140.07H319.023V138.453H329.359V140.07Z" fill="white"/>
<rect x="416" y="241" width="55" height="34" stroke="black" stroke-width="2"  stroke-miterlimit="10"/>
<path d="M442.375 265.477H440.352V251.203H442.375V265.477ZM434.648 252.211C435.362 252.211 436.003 252.419 436.57 252.836C437.143 253.253 437.589 253.844 437.906 254.609C438.229 255.375 438.391 256.266 438.391 257.281C438.391 258.302 438.229 259.195 437.906 259.961C437.589 260.727 437.143 261.318 436.57 261.734C436.003 262.146 435.362 262.352 434.648 262.352C433.924 262.352 433.276 262.146 432.703 261.734C432.135 261.318 431.69 260.727 431.367 259.961C431.044 259.195 430.883 258.302 430.883 257.281C430.883 256.266 431.044 255.375 431.367 254.609C431.69 253.844 432.135 253.253 432.703 252.836C433.276 252.419 433.924 252.211 434.648 252.211ZM434.648 254.016C434.284 254.01 433.961 254.135 433.68 254.391C433.404 254.641 433.19 255.013 433.039 255.508C432.893 255.997 432.82 256.589 432.82 257.281C432.82 257.974 432.893 258.565 433.039 259.055C433.19 259.544 433.404 259.917 433.68 260.172C433.961 260.422 434.284 260.547 434.648 260.547C435.008 260.547 435.326 260.422 435.602 260.172C435.878 259.917 436.091 259.544 436.242 259.055C436.393 258.565 436.469 257.974 436.469 257.281C436.469 256.589 436.393 255.997 436.242 255.508C436.091 255.013 435.878 254.641 435.602 254.391C435.331 254.135 435.013 254.01 434.648 254.016ZM456.539 261.258H443.539V259.633H456.539V261.258ZM455.164 258.617H445.164V257.047H455.164V258.617ZM455.008 253.359H447.125V257.406H445.164V251.789H455.008V253.359ZM454.711 255.945H446.578V254.414H454.711V255.945ZM448.57 265.438H446.57V260.398H448.57V265.438ZM453.539 265.438H451.531V260.398H453.539V265.438Z" fill="black"/>
</svg>
