<svg width="150" height="140" viewBox="0 0 150 140" fill="none" xmlns="http://www.w3.org/2000/svg">
<path d="M119.723 113.488H127.974L132.213 123.904C132.974 125.752 133.594 127.408 134.072 128.874H134.203C134.681 127.429 135.301 125.762 136.062 123.873L140.236 113.488H148.487V138.366H141.769V128.746C141.769 127.26 141.921 125.412 142.226 123.204H142.095L140.041 128.714L136.094 138.143H132.148L128.235 128.714L126.082 123.204H125.952C126.3 125.221 126.474 127.068 126.474 128.746V138.366H119.723V113.488Z" fill="#055C53" fill-opacity="0.2"/>
<path d="M97.957 113.488H116.386V118.903H104.95V123.14H115.733V128.523H106.878L105.211 124.701H104.95V132.887H116.615V138.366H97.957V113.488Z" fill="#055C53" fill-opacity="0.2"/>
<path d="M81.2955 118.96H73.8555V113.488H95.6234V118.96H88.1833V138.366H81.2955V118.96Z" fill="#055C53" fill-opacity="0.2"/>
<path d="M61.3925 139.143C59.0675 139.143 57.0172 138.724 55.2417 137.885C53.445 137.046 52.0711 135.884 51.1199 134.399C50.1688 132.914 49.7143 131.215 49.7566 129.3H57.0172C56.9749 130.44 57.3448 131.355 58.1269 132.043C58.9301 132.732 60.0186 133.076 61.3925 133.076C62.4917 133.076 63.3477 132.925 63.9607 132.624C64.5736 132.323 64.8801 131.892 64.8801 131.333C64.8801 130.752 64.4574 130.225 63.6119 129.752C62.7242 129.278 61.2551 128.676 59.2048 127.944C57.3871 127.299 55.8652 126.643 54.6393 125.976C52.1239 124.577 50.8663 122.673 50.8663 120.263C50.8663 118.778 51.2996 117.466 52.1662 116.326C53.0328 115.164 54.2482 114.271 55.8124 113.647C57.3765 113.023 59.1626 112.711 61.1706 112.711C63.3477 112.711 65.2395 113.098 66.8459 113.873C68.4734 114.647 69.7099 115.702 70.5554 117.036C71.422 118.37 71.8342 119.876 71.7919 121.554H64.5314C64.5737 120.715 64.2883 120.048 63.6753 119.553C63.0835 119.037 62.238 118.778 61.1389 118.778C60.2723 118.778 59.5747 118.929 59.0463 119.23C58.539 119.51 58.2854 119.876 58.2854 120.328C58.2854 120.672 58.4016 120.962 58.6341 121.199C58.9301 121.457 59.3422 121.694 59.8707 121.909C60.4836 122.189 61.4137 122.544 62.6608 122.974L63.929 123.458C66.9304 124.577 69.0758 125.75 70.3652 126.976C71.6545 128.202 72.2992 129.676 72.2992 131.398C72.2992 132.968 71.8553 134.335 70.9676 135.496C70.101 136.658 68.8433 137.551 67.1946 138.175C65.5671 138.821 63.6331 139.143 61.3925 139.143Z" fill="#055C53" fill-opacity="0.2"/>
<path d="M32.6911 130.562L23.3203 113.488H31.0529L36.0331 123.618H36.2625L41.2428 113.488H48.9753L39.6045 130.562V138.366H32.6911V130.562Z" fill="#055C53" fill-opacity="0.2"/>
<path d="M11.6386 139.143C9.31355 139.143 7.26326 138.724 5.48775 137.885C3.69111 137.046 2.3172 135.884 1.36604 134.399C0.41487 132.914 -0.0395757 131.215 0.00269834 129.3H7.26326C7.22099 130.44 7.59089 131.355 8.37295 132.043C9.17616 132.732 10.2647 133.076 11.6386 133.076C12.7377 133.076 13.5938 132.925 14.2068 132.624C14.8197 132.323 15.1262 131.892 15.1262 131.333C15.1262 130.752 14.7035 130.225 13.858 129.752C12.9703 129.278 11.5012 128.676 9.45094 127.944C7.63316 127.299 6.11129 126.643 4.88535 125.976C2.37004 124.577 1.11239 122.673 1.11239 120.263C1.11239 118.778 1.5457 117.466 2.41232 116.326C3.27893 115.164 4.49431 114.271 6.05845 113.647C7.62259 113.023 9.40867 112.711 11.4167 112.711C13.5938 112.711 15.4856 113.098 17.092 113.873C18.7195 114.647 19.956 115.702 20.8015 117.036C21.6681 118.37 22.0803 119.876 22.038 121.554H14.7775C14.8197 120.715 14.5344 120.048 13.9214 119.553C13.3296 119.037 12.4841 118.778 11.385 118.778C10.5184 118.778 9.82084 118.929 9.29241 119.23C8.78513 119.51 8.53148 119.876 8.53148 120.328C8.53148 120.672 8.64773 120.962 8.88024 121.199C9.17616 121.457 9.58833 121.694 10.1168 121.909C10.7297 122.189 11.6598 122.544 12.9068 122.974L14.1751 123.458C17.1765 124.577 19.3219 125.75 20.6113 126.976C21.9006 128.202 22.5453 129.676 22.5453 131.398C22.5453 132.968 22.1014 134.335 21.2137 135.496C20.3471 136.658 19.0894 137.551 17.4407 138.175C15.8132 138.821 13.8791 139.143 11.6386 139.143Z" fill="#055C53" fill-opacity="0.2"/>
<path d="M120.5 71.5117H149.265V80.363H131.318V87.2991H148.001V96.1504H134.352L131.723 89.8355H131.318V111.938H120.5V71.5117Z" fill="#055C53" fill-opacity="0.2"/>
<path d="M87.8477 71.5117H98.6197V102.414H115.835V111.938H87.8477V71.5117Z" fill="#055C53" fill-opacity="0.2"/>
<path d="M63.3595 112.715C59.4624 112.715 56.0058 111.845 52.9898 110.104C49.9738 108.398 47.6356 105.992 45.9751 102.886C44.3485 99.7456 43.5352 96.1448 43.5352 92.0832C43.5352 87.8169 44.3654 84.0795 46.0259 80.8712C47.6864 77.6288 50.0077 75.1373 52.9898 73.3966C56.0058 71.6218 59.4624 70.7344 63.3595 70.7344C67.2905 70.7344 70.747 71.6218 73.7291 73.3966C76.7452 75.2055 79.0665 77.7483 80.6931 81.0248C82.3536 84.2673 83.1838 87.9875 83.1838 92.1856C83.1838 96.2131 82.3705 99.7968 80.7439 102.937C79.0834 106.043 76.7452 108.449 73.7291 110.155C70.747 111.862 67.2905 112.715 63.3595 112.715ZM63.3595 103.295C65.0539 103.295 66.5788 102.834 67.9343 101.913C69.3237 100.957 70.4081 99.592 71.1876 97.8172C72.0009 96.0424 72.4075 93.9604 72.4075 91.5713C72.4075 89.2504 72.0009 87.2366 71.1876 85.5301C70.4081 83.7894 69.3237 82.4583 67.9343 81.5368C66.5788 80.6152 65.0369 80.1545 63.3087 80.1545C61.5804 80.1545 60.0385 80.6323 58.683 81.588C57.3275 82.5095 56.26 83.8577 55.4806 85.6325C54.7012 87.3732 54.3115 89.4039 54.3115 91.7248C54.3115 94.0457 54.7012 96.0936 55.4806 97.8684C56.2939 99.6091 57.3783 100.957 58.7338 101.913C60.1232 102.834 61.6651 103.295 63.3595 103.295Z" fill="#055C53" fill-opacity="0.2"/>
<path d="M20.6126 112.715C16.7133 112.715 13.2549 111.844 10.2372 110.101C7.21955 108.358 4.88001 105.898 3.2186 102.72C1.5911 99.5418 0.777344 95.9024 0.777344 91.8017C0.777344 87.5643 1.60805 83.8737 3.26946 80.7298C4.89697 77.5518 7.2026 75.0914 10.1864 73.3486C13.1701 71.6058 16.6286 70.7344 20.5617 70.7344C23.715 70.7344 26.5631 71.3324 29.1061 72.5284C31.6491 73.6903 33.7174 75.3306 35.311 77.4493C36.9385 79.568 37.9557 82.0113 38.3626 84.7793H27.4786C26.9361 83.344 26.0715 82.2163 24.8848 81.3962C23.6981 80.5761 22.3248 80.166 20.7652 80.166C17.8831 80.166 15.6283 81.1912 14.0008 83.2415C12.3733 85.2577 11.5596 88.0598 11.5596 91.648C11.5596 95.2702 12.3733 98.1236 14.0008 100.208C15.6283 102.259 17.8662 103.284 20.7143 103.284C22.9521 103.284 24.7831 102.737 26.2071 101.643C27.6312 100.516 28.3941 99.0292 28.4958 97.1839H22.1892L17.4593 89.29H38.8712V94.4159C38.8712 98.1749 38.1422 101.438 36.6842 104.206C35.2262 106.94 33.124 109.042 30.3776 110.511C27.6312 111.981 24.3762 112.715 20.6126 112.715Z" fill="#055C53" fill-opacity="0.2"/>
<path d="M115.219 31.875H125.916V47.9957L137.658 31.875H149.6L136.464 49.2893L149.998 70.7338H137.758L125.916 50.5829V70.7338H115.269L115.219 31.875Z" fill="#055C53" fill-opacity="0.2"/>
<path d="M79.1211 31.875H95.8886C98.8407 31.875 101.395 32.4057 103.551 33.4672C105.707 34.5286 107.365 36.0544 108.526 38.0446C109.721 40.0349 110.318 42.3899 110.318 45.1099C110.318 50.3508 108.145 54.0492 103.8 56.2053L111.96 70.7338H100.665L93.5999 57.897L90.8136 52.8717L89.8682 51.0307H89.6692V70.7338H79.1211V31.875ZM93.3511 49.6874C97.3315 49.6874 99.3217 48.1947 99.3217 45.2094C99.3217 41.9255 97.3315 40.2836 93.3511 40.2836H89.6692V49.6874H93.3511Z" fill="#055C53" fill-opacity="0.2"/>
<path d="M48.261 31.875H62.4909L75.8253 70.7338H64.3319L62.0929 63.1213H54.9282L53.2862 54.7126H59.6051L55.8238 41.826L47.2161 70.7338H35.7227L48.261 31.875Z" fill="#055C53" fill-opacity="0.2"/>
<path d="M1.55469 31.875H17.2276C22.4021 31.875 26.4489 33.0525 29.3678 35.4076C32.2868 37.7627 33.7463 41.0797 33.7463 45.3587C33.7463 48.2113 33.0829 50.6493 31.7561 52.6727C30.4293 54.7624 28.5718 56.3711 26.1835 57.4989C23.7953 58.6267 21.0587 59.1906 17.9739 59.1906H17.7251L12.2023 52.2249H12.1525V70.7338H1.55469V31.875ZM15.8344 50.981C17.9573 50.981 19.6324 50.4834 20.8597 49.4883C22.1202 48.4932 22.7504 47.1167 22.7504 45.3587C22.7504 43.7665 22.1202 42.5226 20.8597 41.627C19.6324 40.7314 17.9573 40.2836 15.8344 40.2836H12.1525V50.981H15.8344Z" fill="#055C53" fill-opacity="0.2"/>
<path d="M127.389 0.734375H138.506L148.924 31.0928H139.945L138.196 25.1455H132.598L131.315 18.5763H136.252L133.298 8.50862L126.573 31.0928H117.594L127.389 0.734375Z" fill="#055C53" fill-opacity="0.2"/>
<path d="M93.3789 0.734375H115.302V7.34249H101.697V12.5124H114.525V19.0816H103.991L102.008 14.4171H101.697V24.407H115.574V31.0928H93.3789V0.734375Z" fill="#055C53" fill-opacity="0.2"/>
<path d="M65.1758 0.734375H78.2754C80.5817 0.734375 82.5771 1.149 84.2616 1.97825C85.946 2.80751 87.2417 3.99956 88.1487 5.55441C89.0816 7.10926 89.548 8.94916 89.548 11.0741C89.548 15.1686 87.8507 18.058 84.4559 19.7424L90.8308 31.0928H82.007L76.4873 21.064L74.3105 17.138L73.572 15.6998H73.4165V31.0928H65.1758V0.734375ZM76.293 14.6503C79.4027 14.6503 80.9575 13.4841 80.9575 11.1519C80.9575 8.58636 79.4027 7.30362 76.293 7.30362H73.4165V14.6503H76.293Z" fill="#055C53" fill-opacity="0.2"/>
<path d="M46.0465 31.8744C43.0664 31.8744 40.4231 31.2136 38.1168 29.892C35.8104 28.5963 34.0223 26.7693 32.7525 24.4111C31.5087 22.027 30.8867 19.2931 30.8867 16.2093C30.8867 12.97 31.5216 10.1324 32.7914 7.69651C34.0612 5.23466 35.8363 3.34293 38.1168 2.0213C40.4231 0.673768 43.0664 0 46.0465 0C49.0525 0 51.6958 0.673768 53.9762 2.0213C56.2826 3.39475 58.0577 5.32536 59.3016 7.81312C60.5714 10.275 61.2063 13.0996 61.2063 16.287C61.2063 19.3449 60.5843 22.0659 59.3405 24.45C58.0707 26.8082 56.2826 28.6351 53.9762 29.9309C51.6958 31.2266 49.0525 31.8744 46.0465 31.8744ZM46.0465 24.7221C47.3422 24.7221 48.5083 24.3723 49.5449 23.6726C50.6074 22.947 51.4366 21.9104 52.0327 20.5629C52.6546 19.2153 52.9656 17.6346 52.9656 15.8206C52.9656 14.0584 52.6546 12.5295 52.0327 11.2338C51.4366 9.91216 50.6074 8.90151 49.5449 8.20183C48.5083 7.50215 47.3293 7.15231 46.0076 7.15231C44.686 7.15231 43.5069 7.51511 42.4703 8.2407C41.4338 8.94038 40.6175 9.96399 40.0215 11.3115C39.4254 12.6332 39.1274 14.175 39.1274 15.9372C39.1274 17.6994 39.4254 19.2542 40.0215 20.6018C40.6434 21.9234 41.4727 22.947 42.5092 23.6726C43.5717 24.3723 44.7508 24.7221 46.0465 24.7221Z" fill="#055C53" fill-opacity="0.2"/>
<path d="M1.55469 0.734375H9.912V13.3287L19.0856 0.734375H28.4147L18.1527 14.3393L28.7257 31.0928H19.1634L9.912 15.35V31.0928H1.59356L1.55469 0.734375Z" fill="#055C53" fill-opacity="0.2"/>
</svg>
