<svg width="828" height="776" viewBox="0 0 828 776" fill="none" xmlns="http://www.w3.org/2000/svg">
<path d="M189.422 382.005C187.912 383.357 186.29 384.484 184.528 385.414C182.767 386.344 180.977 386.795 179.132 386.795C177.622 386.795 176.168 386.711 174.742 386.542C173.316 386.373 171.946 385.95 170.604 385.273C168.926 384.428 167.416 383.273 166.074 381.864C164.732 380.427 163.641 378.877 162.803 377.186C160.957 373.297 159.615 369.07 158.776 364.533C157.937 359.968 157.35 355.516 157.015 351.119C157.015 350.781 156.931 350.105 156.763 349.091C156.595 348.076 156.428 347.4 156.26 347.062C155.589 326.124 155.393 305.327 155.645 284.643C155.896 263.959 157.266 243.247 159.783 222.478C159.951 221.971 160.146 220.957 160.398 219.435C160.65 217.913 160.901 216.307 161.153 214.616C161.405 212.925 161.684 211.319 162.02 209.797C162.355 208.276 162.607 207.261 162.775 206.754C163.278 205.232 163.809 203.682 164.396 202.076C164.984 200.47 165.683 199.004 166.521 197.652C167.864 195.792 169.653 194.242 171.918 192.974C174.183 191.706 176.476 191.086 178.824 191.086C181.676 191.086 184.556 191.931 187.492 193.622C190.428 195.313 192.385 197.511 193.392 200.216C193.728 200.893 194.063 202.02 194.399 203.626C194.734 205.232 195.07 206.867 195.405 208.557C195.741 210.248 195.992 211.855 196.16 213.376C196.328 214.898 196.328 216.081 196.16 216.927C195.992 218.11 195.853 220.393 195.797 223.775C195.713 227.156 195.685 230.707 195.685 234.398C195.685 238.09 195.713 241.669 195.797 245.022C195.881 248.404 195.909 250.686 195.909 251.87C199.599 250.01 203.738 247.727 208.351 245.022C212.965 242.317 217.55 239.358 222.164 236.146C226.778 232.933 231.14 229.608 235.222 226.142C239.332 222.676 242.715 219.35 245.4 216.138C247.413 213.264 249.454 211.037 251.551 209.431C253.648 207.825 256.528 207.036 260.219 207.036C262.736 207.036 265.112 207.599 267.377 208.67C269.642 209.769 271.431 211.404 272.774 213.602C273.445 214.785 274.06 215.969 274.647 217.152C275.234 218.336 275.514 219.604 275.514 220.957C275.514 222.816 275.29 224.676 274.899 226.536C274.479 228.396 273.668 230.002 272.522 231.355C271.18 233.046 269.978 234.765 268.887 236.54C267.797 238.315 266.594 240.034 265.252 241.725C264.078 243.078 262.903 244.459 261.729 245.896C260.555 247.333 259.296 248.714 257.954 250.066C251.747 255.984 245.316 261.62 238.605 267.031C231.895 272.441 224.792 277.316 217.243 281.712C223.115 287.123 228.707 292.703 234.075 298.423C239.444 304.172 244.785 309.892 250.153 315.641C250.992 316.486 252.25 317.839 253.928 319.699C255.606 321.559 257.395 323.503 259.324 325.532C261.254 327.561 263.099 329.449 264.861 331.224C266.622 333 267.992 334.127 268.999 334.634C269.167 334.803 269.614 335.001 270.397 335.254C271.152 335.508 271.599 335.733 271.767 335.874C275.961 338.241 279.456 340.862 282.308 343.736C285.16 346.611 286.586 350.669 286.586 355.882C286.586 358.587 285.831 361.067 284.322 363.35C282.812 365.632 280.882 367.605 278.534 369.296C276.185 370.986 273.64 372.254 270.872 373.1C268.104 373.945 265.476 374.368 262.959 374.368C259.604 374.368 256.221 373.607 252.781 372.085C249.342 370.564 246.043 368.676 242.855 366.393C239.668 364.11 236.648 361.631 233.796 358.925C230.944 356.22 228.427 353.768 226.246 351.57C221.046 345.991 216.069 340.27 211.287 334.352C206.506 328.435 201.529 322.63 196.328 316.881C196.496 321.953 196.58 326.969 196.58 331.957V347.033C196.58 347.202 196.496 347.653 196.328 348.414C196.16 349.175 196.076 349.71 196.076 350.049C196.076 350.556 196.02 351.599 195.965 353.205C195.881 354.811 195.797 356.445 195.713 358.136C195.629 359.827 195.489 361.461 195.349 363.068C195.182 364.674 195.014 365.717 194.846 366.224C194.846 366.562 194.762 366.9 194.594 367.238C194.427 367.577 194.343 367.915 194.343 368.253C194.343 370.62 193.979 373.1 193.224 375.721C192.469 378.341 191.183 380.398 189.338 381.92L189.422 382.005Z" fill="#C5D6D5"/>
<path d="M315.546 386.01C313.365 387.194 311.016 387.87 308.5 388.039C305.983 388.208 303.551 387.955 301.202 387.278C297.511 386.264 294.128 384.291 291.024 381.332C287.921 378.374 285.963 374.964 285.124 371.075C283.95 365.495 283.251 359.859 282.999 354.111C282.748 348.362 282.776 342.641 283.111 336.893C283.95 318.999 284.957 301.217 286.131 283.576C287.305 265.936 289.654 248.408 293.177 231.021C294.519 224.934 296.281 219.129 298.462 213.549C299.301 211.69 300.251 209.971 301.342 208.364C302.432 206.758 303.802 205.462 305.48 204.447C307.661 202.926 309.786 201.376 311.883 199.77C313.98 198.163 316.273 196.782 318.79 195.599C323.152 193.739 327.737 192.443 332.602 191.682C337.468 190.921 342.305 190.555 347.17 190.555C352.371 190.555 357.516 191.034 362.633 191.936C367.749 192.865 372.643 194.5 377.34 196.867C383.212 199.741 388.553 203.63 393.418 208.505C398.283 213.409 402.114 218.791 404.966 224.709C407.985 231.134 409.775 238.094 410.362 245.59C410.949 253.114 410.25 260.244 408.237 266.979C406.727 272.22 404.518 277.151 401.582 281.801C398.646 286.451 395.347 290.706 391.656 294.595C386.791 299.667 381.618 304.317 376.082 308.516C370.546 312.743 364.869 316.801 358.998 320.661C354.3 323.536 349.519 326.241 344.682 328.777C339.816 331.313 334.699 333.342 329.359 334.864C329.359 340.951 329.303 347.009 329.247 353.096C329.163 359.183 328.604 365.157 327.625 371.075C326.954 374.287 325.5 377.162 323.235 379.698C320.971 382.234 318.426 384.348 315.574 386.039L315.546 386.01ZM331.624 228.738C331.792 238.545 331.736 248.323 331.512 258.102C331.26 267.908 330.953 277.687 330.645 287.465C335.343 284.591 339.984 281.548 344.598 278.363C349.211 275.151 353.433 271.6 357.292 267.739C358.97 265.88 360.647 263.991 362.325 262.047C364.003 260.103 365.261 257.961 366.1 255.594C367.442 251.705 367.61 247.591 366.603 243.195C365.596 238.799 363.332 235.671 359.809 233.811C356.957 232.458 353.993 231.444 350.889 230.767C347.785 230.091 344.654 229.584 341.466 229.246C340.795 229.246 339.173 229.161 336.573 228.992C333.972 228.823 332.351 228.738 331.68 228.738H331.624Z" fill="#C5D6D5"/>
<path d="M459.808 388.808C452.09 388.808 445.268 387.089 439.34 383.623C433.384 380.157 428.295 375.648 424.017 370.069C419.739 364.489 416.272 358.29 413.588 351.47C410.904 344.622 408.89 337.831 407.548 331.096C405.367 319.12 404.864 306.946 406.038 294.631C407.213 282.317 409.478 270.312 412.833 258.674C415.182 250.755 418.369 242.555 422.396 234.101C426.422 225.675 431.231 217.926 436.852 210.937C442.472 203.948 448.987 198.143 456.452 193.578C463.918 189.013 472.306 186.73 481.701 186.73C488.747 186.73 494.843 188.224 500.044 191.155C505.244 194.114 509.634 197.918 513.241 202.539C516.848 207.189 519.728 212.515 521.909 218.489C524.09 224.492 525.768 230.522 526.942 236.609C526.942 236.947 527.054 237.285 527.306 237.623C527.557 237.961 527.753 238.384 527.921 238.891C528.424 240.075 528.843 241.343 529.179 242.696C529.515 244.048 529.515 245.401 529.179 246.754C528.676 250.304 527.166 253.46 524.649 256.25C522.133 259.04 518.945 260.421 515.087 260.421C512.235 260.421 509.355 259.745 506.419 258.392C503.483 257.039 501.19 255.179 499.512 252.812C498.674 251.629 497.723 249.6 496.632 246.725C495.542 243.851 494.423 240.892 493.249 237.849C492.075 234.805 490.816 232.016 489.474 229.479C488.132 226.943 486.79 225.421 485.448 224.914C485.112 224.745 484.693 224.661 484.19 224.661C483.686 224.661 483.351 224.745 483.183 224.914C479.157 225.591 475.466 227.873 472.138 231.762C468.783 235.651 465.763 240.131 463.079 245.176C460.395 250.248 458.186 255.348 456.424 260.505C454.663 265.662 453.377 269.917 452.538 273.299C450.357 282.401 449.015 291.616 448.511 300.915C448.008 310.215 448.847 319.317 451.028 328.278C451.363 329.8 451.951 331.688 452.789 333.97C453.628 336.253 454.635 338.451 455.809 340.564C456.984 342.678 458.354 344.481 459.947 346.003C461.541 347.525 463.331 348.286 465.344 348.286C467.189 348.117 469.454 347.44 472.138 346.257C474.823 345.073 477.591 343.692 480.443 342.086C483.295 340.48 485.979 338.789 488.496 337.014C491.012 335.238 493.025 333.773 494.535 332.59C491.348 332.59 488.132 332.505 484.861 332.336C481.589 332.167 478.458 331.406 475.438 330.053C470.405 327.686 467.161 323.938 465.651 318.781C464.142 313.624 464.813 308.693 467.665 303.959C468.671 302.437 469.929 300.972 471.439 299.535C472.949 298.097 474.627 296.745 476.472 295.477C478.318 294.209 480.247 293.194 482.26 292.433C484.274 291.672 486.119 291.306 487.797 291.306C489.307 291.306 490.481 291.475 491.32 291.813C492.159 292.151 492.941 292.49 493.696 292.828C494.451 293.166 495.234 293.589 496.073 294.096C496.409 294.265 496.744 294.575 497.08 294.969C497.415 295.392 497.751 295.589 498.086 295.589C505.132 294.744 512.151 294.039 519.197 293.448C526.243 292.856 533.345 292.574 540.559 292.574C543.076 292.574 545.424 293.25 547.605 294.603C549.786 295.956 551.632 297.675 553.142 299.788C554.652 301.902 555.658 304.269 556.161 306.889C556.665 309.51 556.497 311.99 555.658 314.357C554.819 316.724 553.645 318.922 552.135 320.951C550.625 322.98 548.696 324.417 546.347 325.263C543.998 326.108 541.566 326.869 539.049 327.545C536.533 328.222 534.016 328.813 531.5 329.321C532.171 331.181 532.367 333.04 532.115 334.9C531.863 336.76 531.388 338.62 530.745 340.48C529.906 343.016 527.949 346.059 524.845 349.61C521.741 353.161 518.302 356.711 514.555 360.234C510.781 363.785 507.006 367.025 503.259 369.984C499.484 372.943 496.353 375.169 493.836 376.691C488.3 380.073 482.903 382.947 477.619 385.314C472.334 387.681 466.434 388.865 459.891 388.865L459.808 388.808Z" fill="#C5D6D5"/>
<path d="M659.037 370.568C643.463 373.611 627.637 375.133 611.559 375.133C607.365 375.133 603.003 375.049 598.501 374.88C593.972 374.71 589.442 374.288 584.94 373.611C580.411 372.935 576.021 371.921 571.743 370.568C567.465 369.215 563.494 367.355 559.803 364.988C555.945 362.452 552.645 359.071 549.877 354.872C547.109 350.645 545.571 346.249 545.235 341.712C544.9 336.808 546.326 332.638 549.514 329.172C552.701 325.706 556.644 323.987 561.313 323.987C563.494 323.987 565.675 324.353 567.856 325.114C570.037 325.875 571.798 327.086 573.141 328.777C573.476 329.115 573.812 329.538 574.147 330.045C574.483 330.553 574.818 330.891 575.154 331.06C577.503 331.905 580.103 332.525 582.955 332.948C585.807 333.371 588.743 333.709 591.763 333.962C594.783 334.216 597.718 334.385 600.57 334.47C603.422 334.554 606.107 334.582 608.623 334.582C611.979 334.582 615.25 334.554 618.41 334.47C621.597 334.385 624.785 334.272 627.972 334.103C619.416 327.002 611 319.788 602.723 312.461C594.419 305.106 586.59 297.216 579.236 288.79C575.881 285.07 572.861 281.153 570.177 277.011C567.492 272.868 565.563 268.36 564.389 263.456C563.214 258.891 562.795 254.101 563.131 249.028C563.466 243.956 564.808 239.334 567.157 235.107C569.673 230.373 573.113 225.723 577.447 221.186C581.809 216.621 586.646 212.535 592.014 208.9C597.383 205.265 602.947 202.362 608.735 200.164C614.523 197.966 620.171 196.867 625.707 196.867C631.579 196.867 637.311 198.135 642.931 200.671C648.552 203.208 652.69 207.35 655.374 213.071C656.549 215.607 657.164 218.312 657.248 221.186C657.331 224.061 657.192 226.935 656.884 229.809C656.884 230.148 656.996 230.824 657.248 231.838C657.499 232.853 657.611 233.529 657.611 233.867C657.611 237.925 656.353 241.673 653.836 245.139C651.32 248.605 647.881 250.324 643.547 250.324C638.514 250.324 634.571 248.859 631.747 245.9C628.895 242.941 627.133 239.024 626.462 234.121C624.952 234.628 623.079 235.615 620.814 237.024C618.549 238.461 616.285 240.095 614.02 241.955C611.755 243.815 609.658 245.675 607.728 247.535C605.799 249.394 604.429 251.001 603.59 252.353C604.429 254.72 606.219 257.679 608.987 261.23C611.755 264.781 614.97 268.5 618.661 272.361C622.352 276.25 626.323 280.251 630.601 284.394C634.879 288.536 639.045 292.453 643.155 296.173C647.265 299.893 651.04 303.218 654.451 306.177C657.891 309.136 660.603 311.447 662.616 313.137C665.971 316.181 669.187 319.393 672.291 322.747C675.394 326.128 678.107 329.764 680.455 333.624C683.14 338.189 684.062 343.205 683.223 348.7C682.385 354.195 680.036 358.704 676.177 362.255C673.828 364.622 671.2 366.426 668.264 367.694C665.328 368.962 662.281 369.92 659.093 370.596L659.037 370.568Z" fill="#C5D6D5"/>
<path d="M186.402 639.393C184.221 640.577 181.872 641.253 179.355 641.422C176.839 641.591 174.406 641.338 172.058 640.661C168.367 639.647 164.983 637.674 161.88 634.715C158.776 631.756 156.819 628.347 155.98 624.458C154.806 618.878 154.107 613.242 153.855 607.494C153.603 601.745 153.631 596.024 153.967 590.276C154.806 572.381 155.812 554.6 156.987 536.959C158.161 519.319 160.51 501.791 164.033 484.404C165.375 478.317 167.136 472.512 169.317 466.932C170.156 465.072 171.107 463.353 172.197 461.747C173.288 460.141 174.658 458.845 176.336 457.83C178.517 456.308 180.642 454.759 182.739 453.152C184.836 451.546 187.129 450.165 189.645 448.982C194.007 447.122 198.621 445.826 203.458 445.065C208.323 444.304 213.16 443.938 218.026 443.938C223.226 443.938 228.371 444.417 233.488 445.318C238.605 446.248 243.498 447.883 248.196 450.25C254.067 453.124 259.408 457.013 264.273 461.888C269.138 466.791 272.997 472.174 275.821 478.091C278.841 484.517 280.63 491.477 281.218 498.973C281.805 506.497 281.106 513.626 279.093 520.361C277.583 525.603 275.374 530.534 272.438 535.184C269.502 539.834 266.203 544.089 262.512 547.978C257.646 553.05 252.474 557.7 246.937 561.898C241.401 566.125 235.697 570.183 229.853 574.044C225.156 576.918 220.374 579.624 215.537 582.16C210.672 584.696 205.583 586.725 200.214 588.247C200.214 594.334 200.158 600.392 200.103 606.479C200.019 612.566 199.459 618.54 198.453 624.458C197.782 627.67 196.328 630.545 194.063 633.081C191.798 635.617 189.254 637.731 186.402 639.421V639.393ZM202.479 482.121C202.647 491.928 202.591 501.706 202.367 511.485C202.116 521.291 201.808 531.07 201.501 540.848C206.198 537.974 210.84 534.93 215.453 531.746C220.067 528.533 224.289 524.983 228.147 521.122C229.825 519.262 231.503 517.374 233.18 515.43C234.858 513.485 236.116 511.344 236.955 508.977C238.297 505.088 238.465 500.974 237.459 496.578C236.452 492.181 234.187 489.053 230.664 487.194C227.812 485.841 224.848 484.826 221.744 484.15C218.641 483.474 215.509 482.967 212.322 482.628C211.65 482.628 210.029 482.544 207.428 482.375C204.828 482.206 203.206 482.121 202.535 482.121H202.479Z" fill="#C5D6D5"/>
<path d="M404.013 660.66C403.006 660.829 402 660.829 400.993 660.66C399.987 660.491 398.98 660.322 397.973 660.153C397.134 659.984 395.68 659.364 393.583 658.265C391.486 657.166 390.116 656.377 389.445 655.87C386.09 652.995 383.545 650.431 381.784 648.148C380.022 645.866 378.484 642.541 377.142 638.145C375.632 633.749 374.626 629.268 374.123 624.731C373.619 620.166 373.2 615.629 372.864 611.064C372.864 609.88 372.808 607.485 372.752 603.85C372.669 600.214 372.529 596.326 372.389 592.211C372.221 588.069 372.081 584.152 372.025 580.432C371.942 576.712 371.914 574.261 371.914 573.077C368.726 571.048 365.594 569.414 362.491 568.146C359.387 566.878 355.92 566.258 352.061 566.258C349.88 566.258 347.448 566.511 344.763 567.019C342.079 567.526 339.395 568.146 336.711 568.907C334.026 569.667 331.426 570.457 328.909 571.302C326.393 572.147 324.128 572.993 322.115 573.838C321.779 575.36 321.108 578.319 320.102 582.715C319.095 587.111 318.089 591.845 317.082 596.889C316.075 601.933 315.153 606.724 314.314 611.205C313.475 615.685 312.888 618.672 312.552 620.194C312.049 623.068 311.434 625.943 310.679 628.817C309.924 631.691 308.833 634.256 307.407 636.538C305.981 638.821 304.136 640.681 301.871 642.118C299.606 643.555 296.726 644.26 293.203 644.26C287.835 644.26 283.557 642.062 280.397 637.666C278.719 635.298 277.713 631.832 277.377 627.295C277.042 622.73 277.014 617.883 277.265 612.726C277.517 607.569 277.936 602.553 278.524 597.65C279.111 592.747 279.642 588.971 280.145 586.265C277.629 585.927 275.448 585.335 273.602 584.49C272.093 583.814 270.722 582.94 269.464 581.841C268.206 580.742 267.06 579.53 266.081 578.178C264.907 576.825 264.124 575.303 263.704 573.613C263.285 571.922 262.893 570.231 262.586 568.54C262.25 566.342 262.418 564.116 263.089 561.833C263.76 559.551 264.683 557.409 265.857 555.38C266.528 554.028 267.87 552.562 269.884 550.956C271.897 549.35 274.106 547.744 276.538 546.137C278.971 544.531 281.348 543.094 283.696 541.826C286.045 540.558 287.891 539.684 289.233 539.177C292.085 528.046 295.049 516.943 298.152 505.868C301.256 494.822 305.31 484.142 310.343 473.828C312.86 468.586 316.047 463.232 319.906 457.737C323.765 452.242 328.099 447.282 332.964 442.802C337.829 438.321 343.086 434.573 348.79 431.53C354.494 428.486 360.422 426.88 366.629 426.711C373.507 426.711 379.407 427.979 384.328 430.515C389.277 433.051 393.472 436.461 396.883 440.773C400.322 445.084 403.062 450.072 405.159 455.708C407.256 461.372 408.85 467.234 409.941 473.32C411.031 479.407 411.786 485.466 412.206 491.553C412.625 497.64 412.905 503.276 413.072 508.517C413.408 518.803 413.771 529.117 414.191 539.402C414.61 549.688 415.141 560.002 415.813 570.287C416.316 578.91 416.847 587.336 417.434 595.621C418.021 603.906 418.888 612.247 420.063 620.701C420.734 625.097 420.985 629.522 420.818 634.002C420.65 638.483 420.146 642.907 419.308 647.303C418.637 651.192 416.763 654.235 413.659 656.433C410.556 658.631 407.34 660.069 403.985 660.745L404.013 660.66ZM372.361 527.2C372.361 524.157 372.445 519.648 372.613 513.646C372.78 507.644 372.78 501.416 372.613 494.906C372.445 488.397 371.997 482.282 371.243 476.533C370.488 470.784 369.257 466.585 367.608 463.88C365.762 464.726 363.889 465.937 361.959 467.544C360.03 469.15 358.185 470.953 356.423 472.982C354.662 475.011 353.068 477.04 351.642 479.069C350.216 481.098 349.097 482.958 348.259 484.649C344.903 490.736 342.191 497.104 340.094 503.755C337.997 510.433 336.012 517.056 334.194 523.622C336.543 523.283 338.892 522.945 341.24 522.607C343.589 522.269 345.938 522.1 348.286 522.1C356.647 522.1 364.7 523.791 372.417 527.172L372.361 527.2Z" fill="#C5D6D5"/>
<path d="M529.9 623.923C514.326 626.967 498.5 628.489 482.422 628.489C478.228 628.489 473.866 628.404 469.365 628.235C464.835 628.066 460.333 627.643 455.803 626.967C451.274 626.291 446.884 625.276 442.606 623.923C438.328 622.571 434.357 620.711 430.666 618.344C426.808 615.808 423.508 612.426 420.74 608.227C417.972 604 416.434 599.604 416.099 595.067C415.763 590.164 417.189 585.993 420.377 582.527C423.564 579.061 427.479 577.342 432.176 577.342C434.357 577.342 436.538 577.708 438.719 578.469C440.9 579.23 442.662 580.442 444.004 582.133C444.339 582.471 444.675 582.894 445.01 583.401C445.346 583.908 445.682 584.246 446.017 584.415C448.366 585.261 450.966 585.881 453.818 586.303C456.67 586.726 459.606 587.064 462.626 587.318C465.646 587.571 468.554 587.74 471.406 587.825C474.258 587.91 476.942 587.938 479.459 587.938C482.814 587.938 486.085 587.91 489.273 587.825C492.46 587.74 495.648 587.628 498.808 587.459C490.279 580.357 481.863 573.143 473.559 565.817C465.282 558.462 457.425 550.571 450.071 542.145C446.716 538.426 443.696 534.509 441.04 530.366C438.356 526.224 436.426 521.715 435.252 516.812C434.078 512.247 433.658 507.456 433.994 502.384C434.329 497.311 435.671 492.69 438.02 488.463C440.537 483.729 443.948 479.079 448.31 474.542C452.672 469.977 457.509 465.891 462.878 462.255C468.246 458.62 473.81 455.718 479.57 453.52C485.358 451.322 491.006 450.223 496.543 450.223C502.415 450.223 508.147 451.491 513.767 454.027C519.387 456.563 523.525 460.706 526.209 466.426C527.384 468.962 527.999 471.668 528.111 474.542C528.195 477.416 528.055 480.291 527.747 483.165C527.747 483.503 527.859 484.179 528.111 485.194C528.362 486.208 528.474 486.885 528.474 487.223C528.474 491.281 527.216 495.029 524.7 498.495C522.183 501.961 518.744 503.68 514.41 503.68C509.377 503.68 505.434 502.215 502.61 499.256C499.758 496.297 497.997 492.38 497.326 487.476C495.816 487.984 493.942 488.97 491.678 490.379C489.413 491.816 487.148 493.451 484.883 495.31C482.618 497.17 480.521 499.03 478.592 500.89C476.662 502.75 475.292 504.356 474.453 505.709C475.292 508.076 477.082 511.035 479.85 514.585C482.618 518.136 485.834 521.856 489.525 525.717C493.215 529.605 497.186 533.607 501.464 537.749C505.742 541.892 509.936 545.809 514.018 549.529C518.129 553.248 521.875 556.573 525.315 559.532C528.754 562.491 531.466 564.802 533.479 566.493C536.835 569.536 540.05 572.749 543.154 576.102C546.258 579.484 548.97 583.119 551.319 586.98C554.003 591.545 554.926 596.561 554.087 602.056C553.248 607.551 550.899 612.06 547.04 615.61C544.692 617.977 542.063 619.781 539.127 621.049C536.192 622.317 533.144 623.275 529.956 623.952L529.9 623.923Z" fill="#C5D6D5"/>
<path d="M657.791 623.923C642.217 626.967 626.391 628.489 610.313 628.489C606.119 628.489 601.757 628.404 597.255 628.235C592.726 628.066 588.224 627.643 583.694 626.967C579.164 626.291 574.774 625.276 570.496 623.923C566.218 622.571 562.248 620.711 558.557 618.344C554.698 615.808 551.399 612.426 548.631 608.227C545.863 604 544.325 599.604 543.989 595.067C543.654 590.164 545.08 585.993 548.267 582.527C551.455 579.061 555.37 577.342 560.067 577.342C562.248 577.342 564.429 577.708 566.61 578.469C568.791 579.23 570.552 580.442 571.894 582.133C572.23 582.471 572.566 582.894 572.901 583.401C573.237 583.908 573.572 584.246 573.908 584.415C576.256 585.261 578.857 585.881 581.709 586.303C584.561 586.726 587.497 587.064 590.517 587.318C593.536 587.571 596.444 587.74 599.296 587.825C602.148 587.91 604.833 587.938 607.349 587.938C610.704 587.938 613.976 587.91 617.163 587.825C620.351 587.74 623.539 587.628 626.698 587.459C618.17 580.357 609.754 573.143 601.449 565.817C593.173 558.462 585.316 550.571 577.962 542.145C574.607 538.426 571.587 534.509 568.931 530.366C566.246 526.224 564.317 521.715 563.143 516.812C561.968 512.247 561.549 507.456 561.884 502.384C562.22 497.311 563.562 492.69 565.911 488.463C568.427 483.729 571.839 479.079 576.2 474.542C580.562 469.977 585.4 465.891 590.768 462.255C596.137 458.62 601.701 455.718 607.461 453.52C613.249 451.322 618.897 450.223 624.433 450.223C630.305 450.223 636.037 451.491 641.657 454.027C647.278 456.563 651.416 460.706 654.1 466.426C655.274 468.962 655.89 471.668 656.001 474.542C656.085 477.416 655.945 480.291 655.638 483.165C655.638 483.503 655.75 484.179 656.001 485.194C656.253 486.208 656.365 486.885 656.365 487.223C656.365 491.281 655.107 495.029 652.59 498.495C650.074 501.961 646.634 503.68 642.301 503.68C637.268 503.68 633.325 502.215 630.501 499.256C627.649 496.297 625.887 492.38 625.216 487.476C623.706 487.984 621.833 488.97 619.568 490.379C617.303 491.816 615.038 493.451 612.774 495.31C610.509 497.17 608.412 499.03 606.482 500.89C604.553 502.75 603.183 504.356 602.344 505.709C603.183 508.076 604.972 511.035 607.741 514.585C610.509 518.136 613.724 521.856 617.415 525.717C621.106 529.605 625.076 533.607 629.355 537.749C633.633 541.892 637.827 545.809 641.909 549.529C646.019 553.248 649.766 556.573 653.205 559.532C656.645 562.491 659.357 564.802 661.37 566.493C664.725 569.536 667.941 572.749 671.045 576.102C674.148 579.484 676.86 583.119 679.209 586.98C681.893 591.545 682.816 596.561 681.977 602.056C681.138 607.551 678.79 612.06 674.931 615.61C672.582 617.977 669.954 619.781 667.018 621.049C664.082 622.317 661.034 623.275 657.847 623.952L657.791 623.923Z" fill="#C5D6D5"/>
<path d="M414 772.729C306.07 772.729 204.068 748.945 126.812 705.773C46.9828 661.136 3 601.113 3 536.75C3 477.347 39.5451 422.199 108.665 377.337C115.152 373.11 123.82 374.998 127.986 381.564C132.152 388.13 130.279 396.837 123.792 401.036C81.4308 428.54 30.9331 474.388 30.9331 536.75C30.9331 590.433 69.799 641.692 140.373 681.144C213.547 722.033 310.712 744.549 414 744.549C517.288 744.549 614.453 722.033 687.627 681.144C758.201 641.72 797.067 590.433 797.067 536.75C797.067 488.084 764.101 439.896 704.208 401.036C697.721 396.809 695.848 388.101 700.014 381.564C704.208 375.026 712.848 373.138 719.335 377.337C787.476 421.551 825 478.164 825 536.75C825 601.113 781.017 661.164 701.16 705.773C623.904 748.945 521.93 772.729 413.972 772.729H414Z" fill="#C5D6D5" stroke="#C5D6D5" stroke-width="5"/>
<path d="M421.574 150.343V10L485.668 47.4174L421.574 84.8624" fill="#C5D6D5"/>
<path d="M421.574 150.343V10L485.668 47.4174L421.574 84.8624" stroke="#C5D6D5" stroke-width="20" stroke-linecap="round" stroke-linejoin="round"/>
</svg>
