<svg width="180" height="167" viewBox="0 0 180 167" fill="none" xmlns="http://www.w3.org/2000/svg">
<path d="M143.676 136.191H153.577L158.665 148.691C159.578 150.908 160.322 152.896 160.896 154.654H161.053C161.627 152.921 162.37 150.921 163.283 148.653L168.293 136.191H178.195V166.045H170.132V154.501C170.132 152.718 170.315 150.5 170.68 147.85H170.524L168.058 154.463L163.323 165.778H158.587L153.891 154.463L151.307 147.85H151.151C151.568 150.271 151.777 152.488 151.777 154.501V166.045H143.676V136.191Z" fill="white" fill-opacity="0.2"/>
<path d="M117.551 136.191H139.667V142.69H125.942V147.774H138.883V154.234H128.256L126.256 149.647H125.942V159.471H139.941V166.045H117.551V136.191Z" fill="white" fill-opacity="0.2"/>
<path d="M97.5573 142.758H88.6289V136.191H114.751V142.758H105.823V166.045H97.5573V142.758Z" fill="white" fill-opacity="0.2"/>
<path d="M73.6777 166.978C70.8876 166.978 68.4271 166.474 66.2965 165.467C64.1404 164.46 62.4917 163.066 61.3502 161.284C60.2088 159.503 59.6634 157.463 59.7142 155.165H68.4271C68.3764 156.534 68.8203 157.631 69.7588 158.457C70.7227 159.283 72.029 159.696 73.6777 159.696C74.9967 159.696 76.024 159.516 76.7596 159.154C77.4952 158.793 77.863 158.276 77.863 157.605C77.863 156.908 77.3557 156.275 76.3411 155.707C75.2757 155.139 73.5129 154.416 71.0524 153.538C68.871 152.764 67.0447 151.976 65.5735 151.176C62.5551 149.498 61.0459 147.212 61.0459 144.321C61.0459 142.539 61.5658 140.964 62.6058 139.596C63.6458 138.201 65.1043 137.13 66.9813 136.381C68.8583 135.632 71.0017 135.258 73.4114 135.258C76.024 135.258 78.2942 135.723 80.222 136.652C82.1751 137.582 83.6589 138.847 84.6735 140.448C85.7135 142.048 86.2081 143.856 86.1574 145.87H77.4445C77.4952 144.863 77.1528 144.062 76.4172 143.469C75.7069 142.849 74.6923 142.539 73.3733 142.539C72.3334 142.539 71.4963 142.72 70.8622 143.081C70.2534 143.417 69.949 143.856 69.949 144.398C69.949 144.811 70.0885 145.16 70.3676 145.444C70.7227 145.754 71.2173 146.038 71.8514 146.296C72.587 146.632 73.7031 147.058 75.1996 147.574L76.7216 148.155C80.3234 149.498 82.898 150.905 84.4453 152.377C85.9925 153.848 86.7662 155.617 86.7662 157.683C86.7662 159.567 86.2335 161.207 85.1682 162.601C84.1282 163.996 82.619 165.067 80.6405 165.816C78.6874 166.59 76.3664 166.978 73.6777 166.978Z" fill="white" fill-opacity="0.2"/>
<path d="M39.2297 156.68L27.9844 136.191H37.2637L43.2403 148.347H43.5155L49.492 136.191H58.7714L47.5261 156.68V166.045H39.2297V156.68Z" fill="white" fill-opacity="0.2"/>
<path d="M13.9668 166.978C11.1766 166.978 8.71619 166.474 6.58551 165.467C4.42947 164.46 2.78073 163.066 1.63929 161.284C0.49786 159.503 -0.0474923 157.463 0.00323811 155.165H8.71619C8.66546 156.534 9.10935 157.631 10.0479 158.457C11.0117 159.283 12.3181 159.696 13.9668 159.696C15.2858 159.696 16.3131 159.516 17.0487 159.154C17.7843 158.793 18.1521 158.276 18.1521 157.605C18.1521 156.908 17.6447 156.275 16.6301 155.707C15.5648 155.139 13.8019 154.416 11.3415 153.538C9.16008 152.764 7.33379 151.976 5.8626 151.176C2.84414 149.498 1.33491 147.212 1.33491 144.321C1.33491 142.539 1.8549 140.964 2.89487 139.596C3.93485 138.201 5.39335 137.13 7.27037 136.381C9.1474 135.632 11.2908 135.258 13.7005 135.258C16.3131 135.258 18.5833 135.723 20.511 136.652C22.4641 137.582 23.948 138.847 24.9626 140.448C26.0026 142.048 26.4972 143.856 26.4465 145.87H17.7335C17.7843 144.863 17.4418 144.062 16.7062 143.469C15.996 142.849 14.9814 142.539 13.6624 142.539C12.6224 142.539 11.7854 142.72 11.1513 143.081C10.5425 143.417 10.2381 143.856 10.2381 144.398C10.2381 144.811 10.3776 145.16 10.6566 145.444C11.0117 145.754 11.5064 146.038 12.1405 146.296C12.8761 146.632 13.9922 147.058 15.4887 147.574L17.0106 148.155C20.6125 149.498 23.187 150.905 24.7343 152.377C26.2816 153.848 27.0552 155.617 27.0552 157.683C27.0552 159.567 26.5226 161.207 25.4572 162.601C24.4173 163.996 22.908 165.067 20.9295 165.816C18.9764 166.59 16.6555 166.978 13.9668 166.978Z" fill="white" fill-opacity="0.2"/>
<path d="M144.605 85.8164H179.124V96.4383H157.588V104.762H177.608V115.384H161.228L158.073 107.806H157.588V134.329H144.605V85.8164Z" fill="white" fill-opacity="0.2"/>
<path d="M105.418 85.8164H118.345V122.9H139.004V134.329H105.418V85.8164Z" fill="white" fill-opacity="0.2"/>
<path d="M76.0282 135.262C71.3516 135.262 67.2036 134.217 63.5843 132.128C59.9649 130.08 57.1589 127.193 55.1663 123.466C53.2143 119.697 52.2383 115.376 52.2383 110.502C52.2383 105.382 53.2346 100.898 55.2273 97.0474C57.2199 93.1564 60.0056 90.1664 63.5843 88.0776C67.2036 85.9477 71.3516 84.8828 76.0282 84.8828C80.7456 84.8828 84.8936 85.9477 88.4722 88.0776C92.0915 90.2484 94.8772 93.2998 96.8292 97.2318C98.8219 101.123 99.8182 105.587 99.8182 110.625C99.8182 115.458 98.8422 119.759 96.8902 123.527C94.8975 127.254 92.0915 130.142 88.4722 132.19C84.8936 134.238 80.7456 135.262 76.0282 135.262ZM76.0282 123.957C78.0616 123.957 79.8916 123.404 81.5182 122.298C83.1856 121.151 84.4869 119.513 85.4222 117.383C86.3982 115.253 86.8862 112.755 86.8862 109.888C86.8862 107.103 86.3982 104.686 85.4222 102.638C84.4869 100.549 83.1856 98.952 81.5182 97.8461C79.8916 96.7402 78.0412 96.1873 75.9672 96.1873C73.8932 96.1873 72.0429 96.7607 70.4162 97.9076C68.7896 99.0134 67.5086 100.631 66.5733 102.761C65.6379 104.85 65.1703 107.287 65.1703 110.072C65.1703 112.857 65.6379 115.315 66.5733 117.445C67.5493 119.534 68.8506 121.151 70.4772 122.298C72.1446 123.404 73.9949 123.957 76.0282 123.957Z" fill="white" fill-opacity="0.2"/>
<path d="M24.7327 135.262C20.0535 135.262 15.9032 134.216 12.2819 132.124C8.66059 130.033 5.85305 127.08 3.85929 123.267C1.90622 119.453 0.929688 115.085 0.929688 110.164C0.929688 105.079 1.92657 100.651 3.92033 96.8778C5.87339 93.064 8.64024 90.1114 12.2209 88.02C15.8015 85.9285 19.9518 84.8828 24.6717 84.8828C28.4558 84.8828 31.8736 85.6005 34.9253 87.0358C37.977 88.43 40.459 90.3984 42.3714 92.9409C44.3244 95.4835 45.5451 98.4156 46.0334 101.737H32.9722C32.3212 100.015 31.2836 98.6616 29.8595 97.6774C28.4354 96.6932 26.7875 96.2011 24.9158 96.2011C21.4573 96.2011 18.7514 97.4314 16.7984 99.8919C14.8453 102.311 13.8688 105.674 13.8688 109.98C13.8688 114.327 14.8453 117.751 16.7984 120.252C18.7514 122.713 21.4369 123.943 24.8548 123.943C27.5403 123.943 29.7375 123.287 31.4464 121.975C33.1553 120.622 34.0708 118.838 34.1929 116.623H26.6248L20.9486 107.15H46.6437V113.302C46.6437 117.812 45.7689 121.729 44.0193 125.05C42.2697 128.331 39.7469 130.853 36.4511 132.616C33.1553 134.38 29.2492 135.262 24.7327 135.262Z" fill="white" fill-opacity="0.2"/>
<path d="M138.262 38.2422H151.099V57.5876L165.19 38.2422H179.52L163.757 59.14L179.998 84.8742H165.309L151.099 60.6924V84.8742H138.321L138.262 38.2422Z" fill="white" fill-opacity="0.2"/>
<path d="M94.9336 38.2422H115.055C118.598 38.2422 121.663 38.8791 124.25 40.1528C126.838 41.4266 128.828 43.2577 130.221 45.646C131.654 48.0343 132.371 50.8605 132.371 54.1245C132.371 60.4138 129.763 64.8521 124.549 67.4395L134.341 84.8742H120.787L112.309 69.4695L108.965 63.439L107.831 61.2298H107.592V84.8742H94.9336V38.2422ZM112.01 59.6177C116.787 59.6177 119.175 57.8265 119.175 54.244C119.175 50.3032 116.787 48.3329 112.01 48.3329H107.592V59.6177H112.01Z" fill="white" fill-opacity="0.2"/>
<path d="M57.9097 38.2422H74.9863L90.988 84.8742H77.1954L74.5086 75.7389H65.9106L63.9402 65.6482H71.5232L66.9854 50.1838L56.6559 84.8742H42.8633L57.9097 38.2422Z" fill="white" fill-opacity="0.2"/>
<path d="M1.85938 38.2422H20.6674C26.8771 38.2422 31.7333 39.6553 35.2362 42.4815C38.7391 45.3076 40.4905 49.2882 40.4905 54.4231C40.4905 57.8464 39.6944 60.7721 38.1022 63.2002C36.51 65.7079 34.2809 67.6385 31.4149 68.9919C28.5489 70.3453 25.265 71.0219 21.5631 71.0219H21.2645L14.6369 62.6628H14.5772V84.8742H1.85938V38.2422ZM18.9956 61.1701C21.5432 61.1701 23.5533 60.573 25.0261 59.3789C26.5387 58.1847 27.295 56.5328 27.295 54.4231C27.295 52.5124 26.5387 51.0197 25.0261 49.945C23.5533 48.8702 21.5432 48.3329 18.9956 48.3329H14.5772V61.1701H18.9956Z" fill="white" fill-opacity="0.2"/>
<path d="M152.864 0.886719H166.205L178.707 37.318H167.931L165.832 30.181H159.115L157.576 22.2977H163.5L159.955 10.2161L151.885 37.318H141.109L152.864 0.886719Z" fill="white" fill-opacity="0.2"/>
<path d="M112.055 0.886719H138.364V8.8167H122.037V15.0208H137.431V22.9041H124.789L122.41 17.3065H122.037V29.2947H138.69V37.318H112.055V0.886719Z" fill="white" fill-opacity="0.2"/>
<path d="M78.207 0.886719H93.9271C96.6948 0.886719 99.0893 1.38429 101.111 2.37942C103.132 3.37456 104.687 4.80506 105.775 6.67094C106.895 8.53682 107.455 10.7448 107.455 13.2948C107.455 18.2083 105.418 21.6757 101.344 23.6971L108.994 37.318H98.4052L91.7813 25.2831L89.1691 20.5717L88.2828 18.8458H88.0962V37.318H78.207V0.886719ZM91.5481 17.5863C95.2798 17.5863 97.1457 16.1869 97.1457 13.3881C97.1457 10.3094 95.2798 8.77006 91.5481 8.77006H88.0962V17.5863H91.5481Z" fill="white" fill-opacity="0.2"/>
<path d="M55.2509 38.2505C51.6746 38.2505 48.5027 37.4575 45.7349 35.8715C42.9672 34.3166 40.8215 32.1242 39.2976 29.2943C37.8049 26.4333 37.0586 23.1524 37.0586 19.4518C37.0586 15.5645 37.8205 12.1593 39.3443 9.2361C40.8681 6.28179 42.9983 4.01164 45.7349 2.42564C48.5027 0.808547 51.6746 0 55.2509 0C58.8583 0 62.0303 0.808547 64.7669 2.42564C67.5346 4.07384 69.6648 6.39064 71.1575 9.37604C72.6813 12.3303 73.4432 15.72 73.4432 19.5451C73.4432 23.2146 72.6969 26.4799 71.2042 29.3409C69.6804 32.1709 67.5346 34.3633 64.7669 35.9182C62.0303 37.4731 58.8583 38.2505 55.2509 38.2505ZM55.2509 29.6675C56.8058 29.6675 58.2052 29.2476 59.4491 28.408C60.7242 27.5373 61.7193 26.2933 62.4345 24.6762C63.1809 23.0592 63.5541 21.1622 63.5541 18.9853C63.5541 16.8707 63.1809 15.0359 62.4345 13.481C61.7193 11.895 60.7242 10.6822 59.4491 9.84251C58.2052 9.00286 56.7903 8.58304 55.2043 8.58304C53.6183 8.58304 52.2033 9.01841 50.9594 9.88916C49.7155 10.7288 48.7359 11.9572 48.0206 13.5743C47.3054 15.1603 46.9478 17.0106 46.9478 19.1253C46.9478 21.2399 47.3054 23.1058 48.0206 24.7229C48.767 26.3089 49.7621 27.5373 51.006 28.408C52.2811 29.2476 53.696 29.6675 55.2509 29.6675Z" fill="white" fill-opacity="0.2"/>
<path d="M1.85938 0.886719H11.8885V16.0003L22.8972 0.886719H34.0924L21.7776 17.2132L34.4656 37.318H22.9905L11.8885 18.426V37.318H1.90602L1.85938 0.886719Z" fill="white" fill-opacity="0.2"/>
</svg>
