<svg width="186" height="185" viewBox="0 0 186 185" fill="none" xmlns="http://www.w3.org/2000/svg">
<path d="M142.34 79.3643H178.522V20.0039H6.72607V69.6003C7.12471 69.6624 7.43016 69.7194 7.74078 69.7556C16.4538 70.791 25.1979 71.5935 33.8695 72.9033C48.8261 75.1708 63.4358 78.8673 77.533 84.4637C78.3043 84.7692 79.4278 84.6242 80.2406 84.3084C88.1977 81.2021 96.4293 79.4937 104.977 79.4523C114.471 79.4057 123.961 79.4316 133.456 79.4264C134.139 79.4264 134.823 79.4264 135.646 79.4264V77.0605C135.646 64.7235 135.646 52.3865 135.646 40.0496C135.646 37.7872 135.609 35.53 135.661 33.2676C135.708 31.2175 136.987 29.8766 138.835 29.8248C140.616 29.7731 142.112 30.9534 142.174 32.8638C142.215 34.1529 142.888 34.4738 143.815 34.8569C148.521 36.7983 153.217 38.776 157.923 40.7226C160.48 41.7839 162.09 43.5337 162.044 46.4277C161.997 49.2337 160.387 50.9059 157.907 51.9258C153.258 53.8413 148.65 55.8552 143.97 57.693C142.588 58.2366 142.2 58.9562 142.221 60.3903C142.309 66.0747 142.252 71.7592 142.262 77.4384C142.262 78.0597 142.324 78.6757 142.355 79.3539L142.34 79.3643ZM95.7356 51.8326C94.8555 57.9105 89.4144 62.7459 83.088 62.8028C72.8943 62.8908 62.7006 62.9064 52.507 62.7976C45.4403 62.72 39.8697 56.9061 39.7765 49.8239C39.6834 42.664 45.1969 36.8087 52.3206 36.3945C52.9781 36.3583 53.9203 35.8768 54.1895 35.3384C57.011 29.6488 61.5772 26.5115 67.8674 26.5374C74.2455 26.5633 78.8479 29.7731 81.5193 35.6232C81.628 35.8561 81.7626 36.0787 81.8299 36.1978C83.497 36.4825 85.1226 36.5964 86.6446 37.0572C92.9762 38.9779 96.7037 45.1179 95.7304 51.8378L95.7356 51.8326Z" fill="white"/>
<path d="M178.533 86.1197C177.968 86.0887 177.528 86.0421 177.088 86.0421C152.808 86.0421 128.527 86.0058 104.242 86.0887C96.419 86.1145 88.8967 87.8799 81.6644 90.8671C71.7295 94.9725 63.7051 101.558 56.5814 109.53C46.3204 121.024 33.4243 128.116 18.2917 131.01C14.5125 131.735 10.6556 132.03 6.79345 132.532C6.77274 132.579 6.67438 132.693 6.6692 132.801C6.64332 135.447 6.62261 138.098 6.61743 140.743C6.61743 144.6 7.57519 145.573 11.4011 145.578C28.8996 145.578 46.4033 145.578 63.9018 145.578C64.5127 145.578 65.1288 145.511 65.8173 145.47C58.7144 129.452 65.6258 115.179 74.9756 108.355C85.5938 100.605 100.064 100.678 110.558 108.573C120.099 115.748 126.327 130.006 119.405 145.475C119.99 145.522 120.363 145.578 120.741 145.578C138.628 145.578 156.52 145.589 174.407 145.578C177.544 145.578 178.636 144.403 178.636 141.162C178.636 123.4 178.636 105.637 178.636 87.8748C178.636 87.3156 178.569 86.7565 178.527 86.1249L178.533 86.1197Z" fill="white"/>
<path d="M180.054 0.00460185C121.75 0.00460185 63.4407 0.00460185 5.13649 0.00460185C4.68608 0.00460185 4.2305 -0.00575231 3.7801 0.00460185C1.32616 0.082258 0.0836616 1.28334 0.0215366 3.70621C-0.01988 5.25416 0.0111825 6.80728 0.0111825 8.35523C0.0111825 12.3364 0.896463 13.2217 4.9087 13.2217C34.1592 13.2217 63.4097 13.2217 92.6602 13.2217C120.166 13.2217 147.672 13.2217 175.178 13.2217C177.181 13.2217 179.179 13.232 181.183 13.2217C184.113 13.1958 185.221 12.062 185.247 9.07484C185.257 7.78575 185.247 6.49148 185.247 5.20239C185.247 0.832935 184.424 0.014956 180.054 0.014956V0.00460185Z" fill="white"/>
<path d="M6.72607 125.854C10.2154 125.425 13.5029 125.202 16.7178 124.602C31.6071 121.806 43.8509 114.429 53.7029 102.967C57.6375 98.3848 62.2036 94.5124 67.2099 91.1525C68.266 90.4432 69.3377 89.7547 70.4818 89.004C58.559 83.6405 17.3028 75.5695 6.72607 76.5169V125.854Z" fill="white"/>
<path d="M92.7586 109.22C79.9039 109.194 69.5135 119.465 69.4565 132.247C69.3996 144.993 79.7744 155.404 92.5877 155.456C105.349 155.508 115.755 145.144 115.807 132.33C115.859 119.724 105.406 109.246 92.7586 109.22Z" fill="white"/>
<path d="M105.21 162.093C101.016 162.042 96.8227 162.078 92.6293 162.078C88.3737 162.078 84.113 162.047 79.8574 162.093C77.6934 162.119 76.0885 163.636 76.1196 165.469C76.1455 167.229 77.7038 168.591 79.8057 168.679C80.5149 168.704 81.2242 168.715 81.9334 168.684C83.9991 168.596 85.3193 169.502 86.0648 171.459C87.6075 175.486 89.2072 179.493 90.8898 183.469C91.1693 184.132 92.0443 185.059 92.5361 184.997C93.2195 184.909 94.0737 184.127 94.3791 183.433C95.7769 180.249 97.2369 177.065 98.2412 173.747C99.3802 169.978 101.379 168.016 105.499 168.653C107.058 168.891 108.249 168.042 108.88 166.592C109.853 164.345 108.083 162.13 105.21 162.093Z" fill="white"/>
<path d="M142.334 41.416V51.2525C146.264 49.6113 150.022 48.0375 154.122 46.3239C149.986 44.5999 146.212 43.0261 142.334 41.416Z" fill="white"/>
<path d="M82.8755 43.0367C81.9074 42.9953 80.9393 43.0367 79.9712 43.0212C77.4707 42.9902 76.5284 42.2343 75.9331 39.7752C74.9339 35.6491 71.5429 32.9311 67.5928 33.0864C63.5133 33.2469 60.4277 36.0322 59.6719 40.2463C59.1645 43.0575 57.6269 44.098 54.8261 43.337C52.0201 42.576 49.6853 43.2956 47.8629 45.4493C46.1234 47.5046 45.8594 49.9274 46.9518 52.3555C48.1218 54.9492 50.2599 56.2279 53.1229 56.2331C57.9634 56.2331 62.8092 56.2331 67.6497 56.2331C72.687 56.2331 77.7243 56.2797 82.7565 56.2176C86.4891 56.171 89.2485 53.3443 89.2796 49.6996C89.3106 46.0602 86.5668 43.2024 82.8703 43.0419L82.8755 43.0367Z" fill="white"/>
</svg>
