<svg width="144" height="100" viewBox="0 0 144 100" fill="none" xmlns="http://www.w3.org/2000/svg">
<g id="_?&#235;&#141;&#137;&#236;&#148;&#160;??">
<path id="Vector" d="M46.2935 48.9734C36.8916 45.3733 25.7193 46.9055 17.6265 52.9008C9.54853 58.896 4.83267 69.1459 4.74341 80.586C49.7003 81.0174 94.6571 81.4488 138.87 81.5678C142.872 74.442 142.887 65.2334 138.915 58.0927C134.943 50.952 127.103 46.1171 118.742 46.4444C94.3894 46.9502 70.0365 47.456 46.2935 48.9734Z" fill="#6FBB3E" stroke="#6FBB3E" stroke-width="2" stroke-linecap="round" stroke-linejoin="round"/>
<path id="Vector_2" d="M43.2885 45.373C42.634 30.9428 50.0127 16.4233 62.0329 8.41973C74.0532 0.416156 90.2983 -0.759089 103.36 5.41467C109.995 8.55362 113.312 16.2001 114.294 23.4748C115.276 30.7494 114.488 38.1877 115.693 45.4325" stroke="black" stroke-width="2" stroke-linecap="round" stroke-linejoin="round"/>
<path id="Vector_3" d="M74.3506 3.71875C71.9406 17.6283 69.5157 31.5378 67.1057 45.4623" stroke="black" stroke-width="2" stroke-linecap="round" stroke-linejoin="round"/>
<path id="Vector_4" d="M98.1679 4.0166C96.5612 17.5989 94.9546 31.1811 93.3479 44.7783" stroke="black" stroke-width="2" stroke-linecap="round" stroke-linejoin="round"/>
<path id="Vector_5" d="M17.5371 25.0225C18.2809 29.3515 19.0248 33.6657 19.7835 37.9948" stroke="black" stroke-width="2" stroke-linecap="round" stroke-linejoin="round"/>
<path id="Vector_6" d="M2.11011 34.1123C4.65399 37.6975 7.19788 41.2679 9.74176 44.8532" stroke="black" stroke-width="2" stroke-linecap="round" stroke-linejoin="round"/>
<path id="Vector_7" d="M35.4187 66.7215C27.0878 66.8703 19.6496 74.5614 19.7983 82.8923C19.9471 91.2231 27.6383 98.6614 35.9691 98.5275C44.3 98.3936 51.7382 90.6876 51.6043 82.3567C51.4556 74.0259 43.7644 66.5876 35.4336 66.7215H35.4187Z" fill="black" stroke="black" stroke-width="2" stroke-linecap="round" stroke-linejoin="round"/>
<path id="Vector_8" d="M114.235 64.3406C122.045 65.2481 128.367 73.1178 127.564 80.9428C126.761 88.7679 118.965 95.1797 111.125 94.4805C103.285 93.7664 96.7695 86.0604 97.3795 78.2204C97.9894 70.3805 105.651 63.3439 114.235 64.3406Z" fill="black" stroke="black" stroke-width="2" stroke-linecap="round" stroke-linejoin="round"/>
<path id="Vector_9" d="M114.324 75.1714C117.909 76.0343 119.575 81.1518 117.18 83.9635C114.785 86.7603 109.459 85.9123 108.061 82.5056C106.648 79.0988 109.935 74.1152 114.339 75.1714H114.324Z" fill="white" stroke="black" stroke-width="2" stroke-linecap="round" stroke-linejoin="round"/>
<path id="Vector_10" d="M36.3262 78.3251C39.9561 77.9234 43.2587 82.0442 42.0834 85.4956C40.9082 88.9469 35.7907 90.1965 33.1575 87.6824C30.5244 85.1534 31.3128 78.8755 36.3411 78.3251H36.3262Z" fill="white" stroke="black" stroke-width="2" stroke-linecap="round" stroke-linejoin="round"/>
</g>
</svg>
