<svg width="82" height="100" viewBox="0 0 82 100" fill="none" xmlns="http://www.w3.org/2000/svg">
<g id="_?&#235;&#141;&#137;&#236;&#148;&#160;??" clip-path="url(#clip0_484_199)">
<path id="Vector" d="M41.0053 1.04395L2.64258 21.8751L14.6192 30.3851C14.6192 30.3851 13.7525 53.8162 14.2224 54.4845C28.6737 63.0571 47.6671 63.3912 62.4108 55.3198L63.4027 30.0301L74.5127 19.2647L41.0053 1.04395Z" fill="#6FBB3E" stroke="#6FBB3E" stroke-width="2" stroke-linecap="round" stroke-linejoin="round"/>
<path id="Vector_2" d="M39.3765 20.1006C51.1547 19.9753 62.9225 19.85 75.4525 20.017C75.5987 25.7078 75.7344 31.3985 75.8806 37.0892" stroke="black" stroke-width="2" stroke-linecap="round" stroke-linejoin="round"/>
<path id="Vector_3" d="M74.5441 51.8433C72.3409 50.4859 70.7642 48.1365 70.3674 45.5783C69.9706 43.0201 70.7433 40.2948 72.4244 38.3318C74.0116 36.4836 77.2589 36.9013 78.8147 38.7808C80.3706 40.6498 80.4228 43.4169 79.5874 45.7036C78.7521 47.9903 77.1545 49.8907 74.5441 51.8537V51.8433Z" stroke="black" stroke-width="2" stroke-linecap="round" stroke-linejoin="round"/>
<path id="Vector_4" d="M14.0762 31.5551C22.2102 36.5671 30.3339 41.5791 38.4679 46.5911L63.528 31.2627" stroke="black" stroke-width="2" stroke-linecap="round" stroke-linejoin="round"/>
<path id="Vector_5" d="M19.9861 72.6426C21.7403 69.2281 25.0712 66.6804 28.8302 65.8868C32.5892 65.0932 36.6615 66.0852 39.2092 68.5285C44.8373 66.4193 50.7682 65.135 56.7721 64.7278C58.328 64.6233 59.8524 65.8764 60.0404 67.4322C60.2283 68.988 59.0589 70.5751 57.5239 70.8466C49.369 72.3189 40.9843 73.8642 33.9779 78.2915C26.9716 82.7188 21.5837 90.7589 22.8053 98.9556" stroke="black" stroke-width="2" stroke-linecap="round" stroke-linejoin="round"/>
<path id="Vector_6" d="M59.5498 59.016C61.8992 58.2851 64.6976 59.9557 65.1674 62.3678C65.6373 64.7798 63.6952 67.3798 61.2414 67.599" stroke="black" stroke-width="2" stroke-linecap="round" stroke-linejoin="round"/>
<path id="Vector_7" d="M17.2087 57.6279C12.1131 59.4135 8.66735 65.0415 9.54446 70.8053C5.43043 79.2735 2.80957 88.4727 1.85938 97.8389" stroke="black" stroke-width="2" stroke-linecap="round" stroke-linejoin="round"/>
</g>
<defs>
<clipPath id="clip0_484_199">
<rect width="80.3488" height="100" fill="white" transform="translate(0.825684)"/>
</clipPath>
</defs>
</svg>
