<svg width="70" height="100" viewBox="0 0 70 100" fill="none" xmlns="http://www.w3.org/2000/svg">
<g id="_?&#235;&#141;&#137;&#236;&#148;&#160;??" clip-path="url(#clip0_484_270)">
<path id="Vector" d="M32.5078 79.0879C27.252 81.7309 21.3431 83.5498 15.5145 82.7559C9.68595 81.962 4.01818 78.0931 2.4304 72.4253C0.832566 66.7575 4.54074 59.7934 10.3793 59.0598C3.31473 54.5578 -0.41354 45.3727 1.51591 37.2228C3.44537 29.0729 10.9019 22.5409 19.2428 21.6867C16.9013 11.3259 26.6692 0.131061 37.251 1.05559C47.8329 1.98012 55.5105 14.6924 51.4104 24.4904C56.3245 23.8875 61.4697 26.641 63.6906 31.0626C65.9115 35.4843 65.0573 41.2626 61.6405 44.8502C70.1321 52.1761 71.4787 66.3857 64.5046 75.1687C57.5304 83.9518 43.3911 85.8812 32.5078 79.0779V79.0879Z" fill="#6FBB3E" stroke="#6FBB3E" stroke-width="2" stroke-linecap="round" stroke-linejoin="round"/>
<path id="Vector_2" d="M36.005 29.082L25.5237 98.0299L38.9796 98.9745L36.005 29.082Z" fill="black" stroke="black" stroke-width="2.02" stroke-linecap="round" stroke-linejoin="round"/>
<path id="Vector_3" d="M34.9397 49.9145L22.0767 40.0361L34.4573 58.9689L47.0792 41.8148L34.9397 49.9145Z" fill="black" stroke="black" stroke-width="2.02" stroke-linecap="round" stroke-linejoin="round"/>
<path id="Vector_4" d="M33.6233 70.0428L18.0269 57.6621L33.2716 79.3283L53.2695 57.8932L33.6233 70.0428Z" fill="black" stroke="black" stroke-width="2.02" stroke-linecap="round" stroke-linejoin="round"/>
</g>
<defs>
<clipPath id="clip0_484_270">
<rect width="69.9829" height="100" fill="white" transform="translate(0.00854492)"/>
</clipPath>
</defs>
</svg>
