<svg width="168" height="100" viewBox="0 0 168 100" fill="none" xmlns="http://www.w3.org/2000/svg">
<path d="M21.6724 86.1998C18.8635 92.5171 9.33756 94.4601 4.27483 89.7637C-0.787895 85.0563 0.44448 75.4193 6.52864 72.1441C3.46435 58.1328 8.1718 42.667 18.5304 32.7414C28.889 22.8158 44.5324 18.7634 58.4105 22.4272C72.2775 26.091 83.9018 37.3267 88.0097 51.0716C96.7474 53.1366 102.687 63.1733 100.3 71.8221C97.9131 80.4709 87.6766 86.0555 79.1166 83.3576" fill="#6FBB3E"/>
<path d="M21.6724 86.1998C18.8635 92.5171 9.33756 94.4601 4.27483 89.7637C-0.787895 85.0563 0.44448 75.4193 6.52864 72.1441C3.46435 58.1328 8.1718 42.667 18.5304 32.7414C28.889 22.8158 44.5324 18.7634 58.4105 22.4272C72.2775 26.091 83.9018 37.3267 88.0097 51.0716C96.7474 53.1366 102.687 63.1733 100.3 71.8221C97.9131 80.4709 87.6766 86.0555 79.1166 83.3576" stroke="#6FBB3E" stroke-width="2" stroke-linecap="round" stroke-linejoin="round"/>
<path d="M19.6517 52.9697C14.1671 66.2594 18.5082 82.9464 29.7661 91.8839C41.024 100.821 58.255 101.265 69.957 92.9053C81.659 84.5452 86.8439 68.1135 82.0476 54.5574" fill="white"/>
<path d="M19.6517 52.9697C14.1671 66.2594 18.5082 82.9464 29.7661 91.8839C41.024 100.821 58.255 101.265 69.957 92.9053C81.659 84.5452 86.8439 68.1135 82.0476 54.5574" stroke="black" stroke-width="2" stroke-linecap="round" stroke-linejoin="round"/>
<path d="M41.7562 63.0508C43.6325 62.7288 45.4423 64.8827 44.7983 66.6813C44.1655 68.4799 41.401 69.0017 40.1464 67.5695C38.8918 66.1373 39.7578 63.3839 41.7562 63.0508Z" fill="black" stroke="black" stroke-width="2" stroke-linecap="round" stroke-linejoin="round"/>
<path d="M59.9202 61.7195C61.6854 61.5418 63.3064 63.4626 62.829 65.1723C62.3516 66.8821 59.9646 67.6926 58.5546 66.6268C57.1334 65.5609 56.9558 62.0192 59.9202 61.7195Z" fill="black" stroke="black" stroke-width="2" stroke-linecap="round" stroke-linejoin="round"/>
<path d="M46.897 73.9319C47.7519 76.4077 50.2832 78.1952 52.9034 78.1841C55.5236 78.173 58.0328 76.3522 58.8654 73.8652" stroke="black" stroke-width="2" stroke-linecap="round" stroke-linejoin="round"/>
<path d="M33.9516 42.3564C35.4837 47.1416 32.9413 52.8927 28.356 54.9578" stroke="black" stroke-width="2" stroke-linecap="round" stroke-linejoin="round"/>
<path d="M44.1211 43.1113C44.5652 47.5301 42.5113 52.1265 38.9141 54.7467" stroke="black" stroke-width="2" stroke-linecap="round" stroke-linejoin="round"/>
<path d="M56.6446 42.2559C54.8349 47.6073 58.4543 54.1244 63.9612 55.4234" stroke="black" stroke-width="2" stroke-linecap="round" stroke-linejoin="round"/>
<path d="M67.9246 43.0225C67.6137 48.3961 71.6328 53.703 76.8954 54.8577" stroke="black" stroke-width="2" stroke-linecap="round" stroke-linejoin="round"/>
<g clip-path="url(#clip0_484_30)">
<path d="M142.223 28.4004C142.9 30.7763 143.666 46.6529 143.566 49.1176C144.61 48.0185 146.93 47.3745 148.784 48.0518C150.638 48.729 151.948 50.5276 152.326 52.4595C152.703 54.3913 152.226 56.423 151.293 58.1661C150.561 59.5317 149.506 60.7863 148.107 61.4525C146.708 62.1186 144.921 62.0853 143.699 61.1194C142.489 70.4122 136.849 78.8389 128.9 83.5686C120.95 88.2982 110.847 89.2309 102.165 86.0444C93.4828 82.858 86.3883 75.597 83.4017 66.8483C81.9029 68.0029 79.205 68.0029 77.3842 66.815C75.5634 65.627 74.5086 63.5286 74.0201 61.4081C73.676 59.9092 73.576 58.2994 74.1423 56.8782C74.7085 55.4571 76.063 54.2692 77.5951 54.2581C79.0718 54.247 80.3374 55.2462 81.4366 56.2343C80.6705 52.4373 79.9711 40.2023 80.3374 35.839L142.212 28.4337L142.223 28.4004Z" fill="white" stroke="black" stroke-width="2" stroke-linecap="round" stroke-linejoin="round"/>
<path d="M151.526 42.3006C148.629 44.832 144.254 45.5314 140.702 44.0437C137.149 42.556 134.595 38.9366 134.373 35.0951C134.151 40.5686 129.477 45.5092 124.026 46.031C118.574 46.5529 113.045 42.5893 111.791 37.2601C110.68 42.889 105.151 47.2967 99.4114 47.1302C93.6715 46.9637 88.4089 42.2451 87.6095 36.5606C88.4755 39.5472 87.2875 43.0112 84.7784 44.8542C82.2692 46.6972 78.6054 46.7638 76.0185 45.0429C65.7487 38.1594 63.4283 21.9387 71.3666 12.4461C79.316 2.95344 95.6921 2.39831 104.274 11.3247C112.024 0.799555 128.344 -2.1204 139.258 5.0518C150.172 12.224 153.969 28.367 151.526 42.2895V42.3006Z" fill="black" stroke="black" stroke-width="2" stroke-linecap="round" stroke-linejoin="round"/>
<path d="M99.8442 56.2003C100.477 53.9021 102.531 52.0702 104.885 51.6927C107.238 51.3153 109.759 52.4366 111.069 54.4239" stroke="black" stroke-width="2" stroke-linecap="round" stroke-linejoin="round"/>
<path d="M115.099 53.7803C115.599 51.5487 117.764 49.8056 120.062 49.7834C122.349 49.7612 124.547 51.471 125.091 53.6915" stroke="black" stroke-width="2" stroke-linecap="round" stroke-linejoin="round"/>
<path d="M107.127 60.83C107.993 63.5168 110.736 65.4819 113.556 65.4375C116.376 65.4042 119.063 63.3613 119.862 60.6523" stroke="black" stroke-width="2" stroke-linecap="round" stroke-linejoin="round"/>
<path d="M138.27 79.3712C140.335 65.7041 142.4 52.048 144.487 37.9923C141.301 35.4498 139.081 31.7194 138.348 27.7114C138.181 26.801 138.226 25.6242 139.069 25.2356C139.758 24.9136 140.557 25.3577 141.168 25.8129C142.955 27.1119 144.598 28.6107 145.975 30.376C145.886 27.1896 146.763 23.9921 148.462 21.2942C148.851 20.6836 149.284 20.0951 149.883 19.7065C150.483 19.3179 151.293 19.1736 151.926 19.4956C152.825 19.9508 153.081 21.0943 153.203 22.0936C153.48 24.4695 153.514 26.8676 153.358 29.0548C153.902 27.9446 154.457 26.8121 155.279 25.8795C156.101 24.9469 157.233 24.2252 158.465 24.1586C159.709 24.092 161.019 24.8359 161.374 26.0238C161.763 27.3117 160.986 28.644 160.22 29.7432C159.442 30.8423 158.588 32.0747 159.376 33.6068C159.82 32.0747 161.141 30.7646 162.718 30.5759C164.305 30.3871 166.004 31.5529 166.182 33.1294C166.315 34.3507 165.627 35.4943 164.86 36.4602C163.439 38.2477 161.507 39.8353 158.588 40.1351C156.711 55.0124 153.78 69.7676 149.817 84.2341" fill="white"/>
<path d="M138.27 79.3712C140.335 65.7041 142.4 52.048 144.487 37.9923C141.301 35.4498 139.081 31.7194 138.348 27.7114C138.181 26.801 138.226 25.6242 139.069 25.2356C139.758 24.9136 140.557 25.3577 141.168 25.8129C142.955 27.1119 144.598 28.6107 145.975 30.376C145.886 27.1896 146.763 23.9921 148.462 21.2942C148.851 20.6836 149.284 20.0951 149.883 19.7065C150.483 19.3179 151.293 19.1736 151.926 19.4956C152.825 19.9508 153.081 21.0943 153.203 22.0936C153.48 24.4695 153.514 26.8676 153.358 29.0548C153.902 27.9446 154.457 26.8121 155.279 25.8795C156.101 24.9469 157.233 24.2252 158.465 24.1586C159.709 24.092 161.019 24.8359 161.374 26.0238C161.763 27.3117 160.986 28.644 160.22 29.7432C159.442 30.8423 158.588 32.0747 159.376 33.6068C159.82 32.0747 161.141 30.7646 162.718 30.5759C164.305 30.3871 166.004 31.5529 166.182 33.1294C166.315 34.3507 165.627 35.4943 164.86 36.4602C163.439 38.2477 161.507 39.8353 158.588 40.1351C156.711 55.0124 153.78 69.7676 149.817 84.2341" stroke="black" stroke-width="2" stroke-linecap="round" stroke-linejoin="round"/>
</g>
<defs>
<clipPath id="clip0_484_30">
<rect width="101.81" height="89.0085" fill="white" transform="translate(65.5044)"/>
</clipPath>
</defs>
</svg>
