<svg width="82" height="100" viewBox="0 0 82 100" fill="none" xmlns="http://www.w3.org/2000/svg">
<g id="_?&#235;&#141;&#137;&#236;&#148;&#160;??" clip-path="url(#clip0_484_210)">
<path id="Vector" d="M18.0573 77.0198L29.0575 73.0078L31.0075 79.1937C31.0075 79.1937 51.571 77.4863 52.9705 77.0757C52.9985 78.7738 52.7933 90.9869 46.6821 95.3067C40.5708 99.6266 31.9032 100.438 25.5121 96.5477C19.1209 92.657 15.8834 83.9054 18.048 77.0104L18.0573 77.0198Z" fill="#6FBB3E" stroke="#6FBB3E" stroke-width="2" stroke-linecap="round" stroke-linejoin="round"/>
<path id="Vector_2" d="M19.7555 76.0215L7.729 24.594L13.5696 22.7373L25.6708 73.9036L19.7555 76.0215Z" stroke="black" stroke-width="2" stroke-linecap="round" stroke-linejoin="round"/>
<path id="Vector_3" d="M5.34964 25.7137L16.3871 22.2895L12.4312 5.21543C11.7408 2.23913 8.77378 0.391771 5.79748 1.07287C2.87716 1.75397 1.0298 4.63697 1.62693 7.57595L5.34964 25.7137Z" fill="black" stroke="black" stroke-width="2" stroke-linecap="round" stroke-linejoin="round"/>
<path id="Vector_4" d="M22.116 89.0182C29.4494 83.3642 39.7219 81.7687 48.4268 84.9316" stroke="black" stroke-width="2" stroke-linecap="round" stroke-linejoin="round"/>
<path id="Vector_5" d="M54.1928 17.6896C58.2234 14.7133 64.5119 15.441 67.7495 19.2663C70.987 23.0823 70.6884 29.4082 67.0963 32.8976C56.7586 42.9461 44.5268 51.0447 31.2314 56.6147" stroke="black" stroke-width="2" stroke-linecap="round" stroke-linejoin="round"/>
<path id="Vector_6" d="M71.1829 84.4558C66.4992 84.7171 62.0487 80.5372 61.9927 75.8442C61.9367 71.1511 66.2659 66.8779 70.959 66.9712C75.652 67.0645 79.8039 71.487 79.6173 76.1707C79.4307 80.8544 74.9616 84.9317 71.1922 84.4465L71.1829 84.4558Z" stroke="black" stroke-width="2" stroke-linecap="round" stroke-linejoin="round"/>
<path id="Vector_7" d="M68.3279 97.5184L68.7012 89.8957L64.5026 89.7091C62.9911 89.6438 61.8435 88.3096 61.9928 86.7981C62.1328 85.4359 63.2897 84.4003 64.6612 84.4283L77.8446 84.6242C79.2068 84.6429 80.3264 85.6972 80.4384 87.0501L80.4757 87.5166C80.6064 89.0747 79.3561 90.4089 77.7887 90.3716L75.2602 90.3249L74.0939 97.9476" stroke="black" stroke-width="2" stroke-linecap="round" stroke-linejoin="round"/>
</g>
<defs>
<clipPath id="clip0_484_210">
<rect width="80.836" height="100" fill="white" transform="translate(0.582031)"/>
</clipPath>
</defs>
</svg>
