<svg width="166" height="185" viewBox="0 0 166 185" fill="none" xmlns="http://www.w3.org/2000/svg">
<path d="M152.219 47.1695C146.039 46.0864 140.128 50.5268 139.049 57.0601C138.226 62.0641 137.417 67.0682 136.569 72.0674C135.29 79.5858 129.066 83.0656 121.989 80.1984C97.2132 70.1559 72.433 60.1184 47.6773 50.0318C30.5232 43.0428 10.8059 51.4286 4.03739 68.666C1.85638 74.2239 0.596785 79.9975 0.180187 85.9475C-0.6138 97.2838 1.15552 108.135 6.69872 118.177C9.97269 124.108 14.4229 128.965 20.3778 132.337C8.17397 111.904 15.7364 88.7509 31.4152 77.7723C47.2656 66.6761 69.0561 68.3474 82.7597 81.904C89.5674 88.6382 93.6648 96.7692 94.6058 106.297C95.9732 120.089 91.2534 131.67 80.8826 141.33C81.8824 141.33 82.4804 141.38 83.0685 141.326C89.636 140.713 96.2281 140.287 102.761 139.409C114.926 137.782 126.253 133.763 136.28 126.534C146.857 118.913 153.611 108.909 155.684 95.8037C157.517 84.2223 159.752 72.7094 161.879 61.177C163.124 54.4134 159.007 48.3654 152.219 47.1744V47.1695ZM45.8491 59.7557C45.3345 61.7799 43.4672 62.5199 40.7715 61.7848C33.611 59.839 27.1659 61.2751 21.6717 66.2154C19.9367 67.774 18.6183 69.8472 17.3195 71.8223C15.9325 73.9298 14.3053 74.7189 12.4919 73.773C10.6392 72.8075 10.1687 70.8078 11.4136 68.568C16.5892 59.2803 24.6026 54.6585 35.9831 54.1439C37.6544 54.4526 40.1344 54.7859 42.5507 55.379C45.2708 56.0455 46.3785 57.6678 45.8442 59.7557H45.8491ZM146.161 104.699C142.613 112.84 136.496 118.707 129.066 123.309C122.082 127.637 114.475 130.376 106.447 132.008C104.266 132.45 102.492 131.386 102.08 129.435C101.693 127.597 102.84 125.931 104.982 125.485C112.892 123.843 120.371 121.143 127.115 116.614C134.697 111.517 140.191 104.925 142.029 95.7057C142.417 93.7599 143.96 92.6767 145.725 92.8875C147.43 93.0884 148.646 94.5147 148.955 96.4163C148.033 99.1855 147.318 102.043 146.156 104.704L146.161 104.699Z" fill="white"/>
<path d="M54.9157 77.1643C36.458 76.9536 21.2889 91.907 21.0733 110.531C20.8625 128.754 35.7571 144.026 53.9551 144.261C72.6775 144.501 87.876 129.852 88.1259 111.316C88.3808 92.6127 73.5646 77.38 54.9157 77.1643Z" fill="white"/>
<path d="M159.624 0.0848325C155.968 -0.508207 152.616 2.0649 151.959 6.02503C150.474 14.9892 149.018 23.9633 147.558 32.9324C147.141 35.4908 146.759 38.0541 146.333 40.8036C151.062 39.8528 155.326 40.4017 159.487 42.7102C159.649 42.0044 159.786 41.5339 159.865 41.0536C161.374 31.7806 162.879 22.5125 164.379 13.2395C164.663 11.4947 164.957 9.74991 165.197 7.99529C165.741 4.01556 163.389 0.697477 159.624 0.0897336V0.0848325Z" fill="white"/>
<path d="M83.1676 49.9838C84.8879 50.0132 85.7799 48.9252 86.5298 47.5725C94.2589 33.6336 101.998 19.6996 109.732 5.76562C109.967 5.33922 110.227 4.91282 110.374 4.45212C110.893 2.82493 110.197 1.16344 108.717 0.403763C107.232 -0.360817 105.536 0.0557812 104.497 1.47712C104.14 1.96723 103.86 2.51616 103.561 3.05039C97.2143 14.475 90.8673 25.8947 84.5252 37.3192C83.1039 39.8826 81.6237 42.4165 80.2955 45.0288C79.0604 47.4499 80.5896 49.9887 83.1627 49.9887L83.1676 49.9838Z" fill="white"/>
<path d="M63.1507 43.3182C64.719 43.2986 65.6551 42.2105 66.4393 40.7843C71.6885 31.2809 76.9719 21.7923 82.2357 12.2988C82.5298 11.7694 82.8337 11.2205 82.9954 10.6471C83.4561 9.02479 82.8827 7.72108 81.4663 6.90259C80.0449 6.07429 78.6236 6.27524 77.4522 7.45642C76.9915 7.92203 76.668 8.53957 76.3397 9.12281C71.0856 18.5575 65.8463 27.9972 60.6021 37.4319C60.3668 37.8583 60.0972 38.2798 59.9355 38.7307C59.1317 40.9362 60.6707 43.2544 63.1458 43.3182H63.1507Z" fill="white"/>
<path d="M101.625 56.2677C103.375 57.2871 105.316 56.6304 106.492 54.5229C110.217 47.8671 113.922 41.1966 117.608 34.5163C117.98 33.84 118.157 33.0558 118.309 32.6392C118.181 30.5954 117.294 29.4927 115.701 29.1251C114 28.7281 112.741 29.4976 111.908 30.9973C108.139 37.7707 104.36 44.5392 100.61 51.3224C99.493 53.3466 99.9243 55.2825 101.62 56.2726L101.625 56.2677Z" fill="white"/>
<path d="M57.9794 172.909V164.489H51.2992C51.2992 168.797 51.5393 172.958 51.2256 177.075C50.9708 180.462 52.8577 182.575 54.5878 185.001C56.8228 182.374 58.6117 179.776 58.0039 176.203C57.8226 175.135 57.9745 174.007 57.9745 172.909H57.9794Z" fill="white"/>
<path d="M44.3208 149.619C46.1685 152.393 47.6977 154.741 49.3053 157.035C49.565 157.402 50.1826 157.706 50.6433 157.716C53.2703 157.78 55.8973 157.77 58.5243 157.726C58.9605 157.721 59.5732 157.554 59.7937 157.24C61.465 154.858 63.0628 152.418 64.9007 149.668C57.9264 151.339 51.3442 151.408 44.3208 149.614V149.619Z" fill="white"/>
</svg>
