<svg width="115" height="102" viewBox="0 0 115 102" fill="none" xmlns="http://www.w3.org/2000/svg">
<path d="M40.4185 50.8397L54.7042 44.9542L70.167 5.77539L111.366 26.6288L86.8204 61.768C86.8204 61.768 86.3121 77.913 86.7267 77.485C67.8797 80.4679 47.6817 69.6466 40.4185 50.8397Z" fill="#6FBB3E" stroke="#6FBB3E" stroke-width="2" stroke-linecap="round" stroke-linejoin="round"/>
<path d="M70.0471 4.3171C72.6822 -0.765842 84.3863 0.0902328 96.1975 6.21651C107.995 12.3428 115.432 21.4252 112.784 26.5081C110.149 31.5911 98.4447 30.735 86.6335 24.6087C74.8357 18.4825 67.3986 9.40004 70.0471 4.3171Z" fill="black" stroke="black" stroke-width="2" stroke-linecap="round" stroke-linejoin="round"/>
<path d="M55.667 46.4658C62.2614 55.8291 73.2834 61.9153 84.72 62.5038" stroke="black" stroke-width="2" stroke-linecap="round" stroke-linejoin="round"/>
<path d="M97.1066 34.3867C92.3848 40.9812 87.663 47.5756 82.9546 54.1567" stroke="black" stroke-width="2" stroke-linecap="round" stroke-linejoin="round"/>
<path d="M49.8489 67.6924L40.8066 100.999L68.6959 78.206" stroke="black" stroke-width="2" stroke-linecap="round" stroke-linejoin="round"/>
<path d="M28.0186 62.4902C30.1989 70.7166 32.3926 78.9295 34.5729 87.1559" stroke="black" stroke-width="2" stroke-linecap="round" stroke-linejoin="round"/>
<path d="M8.27588 89.0684C14.964 91.864 21.652 94.6596 28.3535 97.4552" stroke="black" stroke-width="2" stroke-linecap="round" stroke-linejoin="round"/>
<path d="M25.4372 38.065C17.5185 46.064 9.59984 54.0629 1.68115 62.0752C11.4591 57.8484 21.2237 53.6349 31.0017 49.408C23.2703 46.0238 16.5688 40.3524 11.954 33.2764C13.3452 45.957 14.7229 58.651 16.114 71.3316C17.4249 60.0153 20.6084 48.9265 25.4372 38.065Z" stroke="black" stroke-width="2" stroke-linecap="round" stroke-linejoin="round"/>
</svg>
