<svg width="113" height="103" viewBox="0 0 113 103" fill="none" xmlns="http://www.w3.org/2000/svg">
<path d="M36.5752 6.25067L79.283 4.99609L71.1152 21.5277L83.6871 38.4906L37.0065 43.0907L36.5752 6.25067Z" fill="#6FBB3E" stroke="#6FBB3E" stroke-width="2" stroke-linecap="round" stroke-linejoin="round"/>
<path d="M4.74023 101.35L95.0304 98.3701" stroke="black" stroke-width="2" stroke-linecap="round" stroke-linejoin="round"/>
<path d="M38.2088 99.1672L36.0264 1.34961" stroke="black" stroke-width="2" stroke-linecap="round" stroke-linejoin="round"/>
<path d="M50.7539 59.8961C54.0472 55.7142 59.8234 53.6494 65.0116 54.7863C69.5333 55.7795 73.3493 58.8898 77.8449 59.9614C83.6865 61.3467 90.2469 58.7461 93.5532 53.7539" stroke="black" stroke-width="2" stroke-linecap="round" stroke-linejoin="round"/>
<path d="M85.5029 25.5001C89.2144 22.808 94.0628 21.7756 98.5453 22.7035C100.819 23.1739 103.054 24.141 105.38 23.958C107.902 23.762 110.268 22.0762 111.274 19.75" stroke="black" stroke-width="2" stroke-linecap="round" stroke-linejoin="round"/>
<path d="M1.7998 35.916C3.85156 34.1256 5.91638 32.3221 8.32098 31.0545C10.7256 29.7869 13.5222 29.0681 16.1882 29.617C19.1678 30.2312 21.6116 32.3221 24.4475 33.4068C27.2833 34.4915 31.2692 34.0341 32.3147 31.1721" stroke="black" stroke-width="2" stroke-linecap="round" stroke-linejoin="round"/>
</svg>
