<svg width="73" height="102" viewBox="0 0 73 102" fill="none" xmlns="http://www.w3.org/2000/svg">
<path d="M19.2246 0.999748L19.2246 76.6631H63.2752L63.2752 0.999748H19.2246Z" fill="#6FBB3E" stroke="#6FBB3E" stroke-width="2" stroke-linecap="round" stroke-linejoin="round"/>
<path d="M36.5337 8.15234C40.3272 8.25599 44.1208 8.35964 47.9143 8.45292" stroke="black" stroke-width="2" stroke-linecap="round" stroke-linejoin="round"/>
<path d="M65.3789 73.305C63.2541 74.7146 61.6475 76.7772 59.5227 78.1765C57.3979 79.5757 54.3196 80.1251 52.4539 78.4045C50.3499 76.4663 51.065 72.8593 52.8478 70.6309C54.6305 68.3921 57.201 66.9099 59.046 64.7125C57.8022 65.293 56.5169 65.8838 55.1488 65.946C53.7806 66.0081 52.2777 65.407 51.6973 64.1632C51.0236 62.7225 51.7698 61.0123 52.6819 59.7167C54.5476 57.0633 57.201 54.98 60.2172 53.7776C58.8076 53.8398 57.4601 54.3477 56.092 54.7312C54.7238 55.1147 53.252 55.3531 51.9149 54.8659C50.5882 54.3892 49.5103 52.9692 49.842 51.5907C50.1218 50.4505 51.1998 49.7353 52.2052 49.1342C54.7549 47.6002 57.3461 46.1077 59.9581 44.6669C58.2686 45.3199 56.5066 45.9833 54.7031 45.8796C52.8996 45.776 51.0132 44.6566 50.6193 42.8842C50.1529 40.7801 51.8631 38.8419 53.6251 37.5878C55.9572 35.9294 58.621 34.7478 61.4195 34.1259C63.6998 33.618 66.2806 33.5558 68.1359 34.9654C70.24 36.572 70.7168 39.6814 69.9498 42.2208C69.1828 44.7602 67.4622 46.8746 65.7624 48.9165C67.5348 48.3361 69.5455 49.5177 70.3022 51.2175C71.0588 52.9174 70.7479 54.9385 69.9187 56.6072C69.0895 58.276 67.7939 59.6545 66.519 61.0019C67.825 60.7324 69.1931 61.4269 70.0016 62.4737C70.81 63.531 71.1314 64.8887 71.2143 66.2154C71.4527 70.2577 69.6595 74.1445 67.6488 77.6582C62.5493 86.5616 55.6981 94.4596 47.8934 101C33.4033 100.44 18.9133 99.8701 4.78601 99.5799C2.47465 97.0094 1.56254 93.3817 1.80094 89.9406C2.03933 86.4891 3.32457 83.1931 4.96221 80.1458C7.09737 76.1968 9.88551 72.4758 10.8702 68.0915C11.6372 64.6814 11.2433 61.1263 10.9324 57.6437C10.6214 54.1611 10.4141 50.5645 11.5232 47.2374C12.6322 43.9207 15.3685 40.9149 19.6285 40.179C19.4419 51.7979 19.2553 63.4169 19.8461 75.606C30.1591 75.6785 40.4722 75.7511 50.7852 75.8237" fill="white"/>
<path d="M65.3789 73.305C63.2541 74.7146 61.6475 76.7772 59.5227 78.1765C57.3979 79.5757 54.3196 80.1251 52.4539 78.4045C50.3499 76.4663 51.065 72.8593 52.8478 70.6309C54.6305 68.3921 57.201 66.9099 59.046 64.7125C57.8022 65.293 56.5169 65.8838 55.1488 65.946C53.7806 66.0081 52.2777 65.407 51.6973 64.1632C51.0236 62.7225 51.7698 61.0123 52.6819 59.7167C54.5476 57.0633 57.201 54.98 60.2172 53.7776C58.8076 53.8398 57.4601 54.3477 56.092 54.7312C54.7238 55.1147 53.252 55.3531 51.9149 54.8659C50.5882 54.3892 49.5103 52.9692 49.842 51.5907C50.1218 50.4505 51.1998 49.7353 52.2052 49.1342C54.7549 47.6002 57.3461 46.1077 59.9581 44.6669C58.2686 45.3199 56.5066 45.9833 54.7031 45.8796C52.8996 45.776 51.0132 44.6566 50.6193 42.8842C50.1529 40.7801 51.8631 38.8419 53.6251 37.5878C55.9572 35.9294 58.621 34.7478 61.4195 34.1259C63.6998 33.618 66.2806 33.5558 68.1359 34.9654C70.24 36.572 70.7168 39.6814 69.9498 42.2208C69.1828 44.7602 67.4622 46.8746 65.7624 48.9165C67.5348 48.3361 69.5455 49.5177 70.3022 51.2175C71.0588 52.9174 70.7479 54.9385 69.9187 56.6072C69.0895 58.276 67.7939 59.6545 66.519 61.0019C67.825 60.7324 69.1931 61.4269 70.0016 62.4737C70.81 63.531 71.1314 64.8887 71.2143 66.2154C71.4527 70.2577 69.6595 74.1445 67.6488 77.6582C62.5493 86.5616 55.6981 94.4596 47.8934 101C33.4033 100.44 18.9133 99.8701 4.78601 99.5799C2.47465 97.0094 1.56254 93.3817 1.80094 89.9406C2.03933 86.4891 3.32457 83.1931 4.96221 80.1458C7.09737 76.1968 9.88551 72.4758 10.8702 68.0915C11.6372 64.6814 11.2433 61.1263 10.9324 57.6437C10.6214 54.1611 10.4141 50.5645 11.5232 47.2374C12.6322 43.9207 15.3685 40.9149 19.6285 40.179C19.4419 51.7979 19.2553 63.4169 19.8461 75.606C30.1591 75.6785 40.4722 75.7511 50.7852 75.8237" stroke="black" stroke-width="2" stroke-linecap="round" stroke-linejoin="round"/>
</svg>
