<svg width="398" height="257" viewBox="0 0 398 257" fill="none" xmlns="http://www.w3.org/2000/svg">
<path d="M101.994 228.806H99.4009V250.311H101.994V228.806Z" fill="white"/>
<path d="M117.342 237.648C116.948 236.931 116.3 236.329 115.397 235.82C114.518 235.31 113.453 235.056 112.226 235.056C110.883 235.056 109.656 235.403 108.591 236.074C107.503 236.746 106.647 237.695 106.022 238.898C105.397 240.102 105.096 241.422 105.096 242.88C105.096 244.338 105.397 245.658 106.022 246.862C106.647 248.065 107.503 248.991 108.591 249.686C109.679 250.357 110.883 250.704 112.226 250.704C113.453 250.704 114.518 250.45 115.397 249.94C116.277 249.431 116.925 248.829 117.342 248.112V250.334H119.934V235.426H117.342V237.648ZM116.763 245.658C116.346 246.491 115.768 247.139 115.004 247.602C114.24 248.065 113.406 248.32 112.434 248.32C111.462 248.32 110.652 248.089 109.934 247.626C109.193 247.163 108.638 246.514 108.244 245.681C107.851 244.848 107.642 243.922 107.642 242.903C107.642 241.885 107.851 240.959 108.244 240.125C108.638 239.292 109.216 238.644 109.934 238.181C110.675 237.718 111.508 237.486 112.434 237.486C113.36 237.486 114.24 237.718 115.004 238.204C115.768 238.69 116.346 239.338 116.763 240.148C117.18 240.959 117.388 241.908 117.388 242.926C117.388 243.945 117.18 244.871 116.763 245.704V245.658Z" fill="white"/>
<path d="M141.928 236.074C140.84 235.403 139.636 235.056 138.294 235.056C137.067 235.056 136.002 235.31 135.122 235.82C134.243 236.329 133.594 236.931 133.178 237.648V235.426H130.585V256.654H133.178V248.112C133.571 248.829 134.219 249.431 135.122 249.94C136.025 250.45 137.067 250.704 138.294 250.704C139.636 250.704 140.863 250.357 141.928 249.686C143.016 249.015 143.872 248.065 144.498 246.862C145.123 245.658 145.423 244.338 145.423 242.88C145.423 241.422 145.123 240.102 144.498 238.898C143.872 237.695 143.016 236.769 141.928 236.074ZM142.275 245.658C141.882 246.491 141.303 247.139 140.562 247.602C139.821 248.065 138.988 248.297 138.062 248.297C137.136 248.297 136.256 248.065 135.493 247.579C134.752 247.093 134.173 246.445 133.733 245.635C133.317 244.801 133.108 243.875 133.108 242.857C133.108 241.838 133.317 240.912 133.733 240.079C134.15 239.246 134.729 238.597 135.493 238.134C136.233 237.648 137.09 237.417 138.062 237.417C139.034 237.417 139.845 237.648 140.562 238.111C141.303 238.574 141.859 239.222 142.275 240.056C142.669 240.889 142.877 241.815 142.877 242.834C142.877 243.852 142.669 244.778 142.275 245.612V245.658Z" fill="white"/>
<path d="M159.984 237.648C159.591 236.931 158.942 236.329 158.04 235.82C157.16 235.31 156.095 235.056 154.868 235.056C153.526 235.056 152.299 235.403 151.234 236.074C150.146 236.746 149.289 237.695 148.664 238.898C148.039 240.102 147.738 241.422 147.738 242.88C147.738 244.338 148.039 245.658 148.664 246.862C149.289 248.065 150.146 248.991 151.234 249.686C152.322 250.357 153.526 250.704 154.868 250.704C156.095 250.704 157.16 250.45 158.04 249.94C158.919 249.431 159.567 248.829 159.984 248.112V250.334H162.577V235.426H159.984V237.648ZM159.405 245.658C158.989 246.491 158.41 247.139 157.646 247.602C156.882 248.065 156.049 248.32 155.077 248.32C154.104 248.32 153.294 248.089 152.576 247.626C151.836 247.163 151.28 246.514 150.887 245.681C150.493 244.848 150.285 243.922 150.285 242.903C150.285 241.885 150.493 240.959 150.887 240.125C151.28 239.292 151.859 238.644 152.576 238.181C153.317 237.718 154.151 237.486 155.077 237.486C156.002 237.486 156.882 237.718 157.646 238.204C158.41 238.69 158.989 239.338 159.405 240.148C159.822 240.959 160.03 241.908 160.03 242.926C160.03 243.945 159.822 244.871 159.405 245.704V245.658Z" fill="white"/>
<path d="M177.368 243.204C176.465 242.486 174.96 242 172.853 241.699C171.164 241.468 169.983 241.144 169.358 240.75C168.733 240.357 168.409 239.847 168.409 239.222C168.409 238.667 168.756 238.204 169.427 237.81C170.099 237.417 170.978 237.232 172.02 237.232C173.062 237.232 173.965 237.44 174.682 237.834C175.4 238.227 175.793 238.736 175.84 239.361H178.386C178.363 238.528 178.062 237.787 177.483 237.139C176.928 236.491 176.164 235.982 175.238 235.611C174.289 235.241 173.247 235.056 172.09 235.056C170.932 235.056 169.844 235.241 168.918 235.588C167.969 235.935 167.228 236.445 166.696 237.116C166.14 237.787 165.886 238.528 165.886 239.385C165.886 240.681 166.349 241.653 167.275 242.371C168.2 243.065 169.659 243.574 171.627 243.852C173.316 244.084 174.497 244.385 175.168 244.755C175.84 245.125 176.187 245.635 176.187 246.26C176.187 246.908 175.817 247.464 175.076 247.88C174.335 248.297 173.409 248.528 172.275 248.528C171.071 248.528 170.099 248.297 169.404 247.834C168.71 247.371 168.316 246.815 168.224 246.19H165.677C165.747 247.07 166.048 247.834 166.603 248.528C167.159 249.223 167.9 249.755 168.849 250.149C169.798 250.542 170.909 250.728 172.182 250.728C173.455 250.728 174.497 250.542 175.492 250.172C176.488 249.802 177.275 249.269 177.854 248.575C178.432 247.88 178.733 247.07 178.733 246.121C178.733 244.917 178.27 243.968 177.368 243.25V243.204Z" fill="white"/>
<path d="M192.693 243.204C191.79 242.486 190.285 242 188.179 241.699C186.489 241.468 185.308 241.144 184.683 240.75C184.058 240.357 183.734 239.847 183.734 239.222C183.734 238.667 184.082 238.204 184.753 237.81C185.424 237.417 186.304 237.232 187.346 237.232C188.387 237.232 189.29 237.44 190.031 237.834C190.748 238.227 191.142 238.736 191.188 239.361H193.735C193.712 238.528 193.411 237.787 192.832 237.139C192.276 236.491 191.512 235.982 190.586 235.611C189.637 235.241 188.596 235.056 187.438 235.056C186.281 235.056 185.193 235.241 184.267 235.588C183.318 235.935 182.577 236.445 182.044 237.116C181.489 237.787 181.234 238.528 181.234 239.385C181.234 240.681 181.697 241.653 182.623 242.371C183.549 243.065 185.008 243.574 186.975 243.852C188.665 244.084 189.846 244.385 190.517 244.755C191.188 245.125 191.536 245.635 191.536 246.26C191.536 246.908 191.165 247.464 190.424 247.88C189.684 248.297 188.758 248.528 187.623 248.528C186.42 248.528 185.47 248.297 184.753 247.834C184.035 247.371 183.665 246.815 183.572 246.19H181.026C181.095 247.07 181.396 247.834 181.952 248.528C182.507 249.223 183.248 249.755 184.197 250.149C185.146 250.542 186.258 250.728 187.531 250.728C188.804 250.728 189.846 250.542 190.841 250.172C191.836 249.802 192.624 249.269 193.202 248.575C193.781 247.88 194.082 247.07 194.082 246.121C194.082 244.917 193.619 243.968 192.716 243.25L192.693 243.204Z" fill="white"/>
<path d="M207.277 236.074C206.166 235.403 204.939 235.056 203.55 235.056C202.161 235.056 200.934 235.403 199.823 236.074C198.712 236.746 197.855 237.695 197.23 238.875C196.605 240.056 196.304 241.398 196.304 242.88C196.304 244.362 196.605 245.681 197.23 246.885C197.855 248.065 198.712 249.015 199.823 249.686C200.934 250.357 202.161 250.704 203.55 250.704C205.17 250.704 206.605 250.288 207.809 249.477C209.013 248.667 209.823 247.579 210.24 246.283H207.601C207.323 246.908 206.837 247.417 206.096 247.834C205.355 248.251 204.522 248.436 203.573 248.436C202.323 248.436 201.258 248.019 200.402 247.186C199.545 246.352 199.059 245.288 198.92 243.991H210.726C210.749 243.737 210.772 243.389 210.772 242.903C210.772 241.422 210.471 240.102 209.846 238.898C209.221 237.718 208.365 236.769 207.277 236.097V236.074ZM198.92 241.769C199.059 240.449 199.545 239.385 200.378 238.551C201.212 237.718 202.277 237.324 203.55 237.324C204.823 237.324 205.888 237.741 206.721 238.551C207.555 239.361 208.064 240.449 208.203 241.769H198.897H198.92Z" fill="white"/>
<path d="M225.309 237.648C224.916 236.931 224.268 236.329 223.365 235.82C222.485 235.31 221.42 235.056 220.193 235.056C218.851 235.056 217.624 235.403 216.559 236.074C215.471 236.746 214.614 237.672 213.989 238.852C213.364 240.033 213.063 241.352 213.063 242.787C213.063 244.223 213.364 245.542 213.989 246.7C214.614 247.88 215.471 248.783 216.559 249.454C217.647 250.126 218.851 250.45 220.193 250.45C221.42 250.45 222.485 250.195 223.365 249.686C224.244 249.177 224.893 248.575 225.309 247.857V249.917C225.309 251.353 224.893 252.51 224.082 253.367C223.272 254.223 222.184 254.663 220.865 254.663C219.638 254.663 218.666 254.385 217.971 253.83C217.277 253.274 216.837 252.556 216.675 251.7H214.036C214.314 253.228 215.031 254.501 216.189 255.496C217.346 256.492 218.92 257.001 220.865 257.001C222.23 257.001 223.434 256.7 224.499 256.098C225.564 255.496 226.397 254.663 226.999 253.598C227.601 252.533 227.902 251.329 227.902 249.964V235.403H225.309V237.625V237.648ZM224.731 245.542C224.314 246.352 223.735 247.001 222.971 247.464C222.207 247.927 221.374 248.158 220.402 248.158C219.429 248.158 218.619 247.927 217.902 247.464C217.161 247.001 216.605 246.352 216.212 245.542C215.818 244.732 215.61 243.806 215.61 242.811C215.61 241.815 215.818 240.889 216.212 240.079C216.605 239.269 217.184 238.621 217.902 238.158C218.642 237.695 219.476 237.463 220.402 237.463C221.328 237.463 222.207 237.695 222.971 238.158C223.735 238.621 224.314 239.269 224.731 240.079C225.147 240.889 225.356 241.815 225.356 242.811C225.356 243.806 225.147 244.732 224.731 245.542Z" fill="white"/>
<path d="M243.251 237.648C242.857 236.931 242.209 236.329 241.306 235.82C240.427 235.31 239.362 235.056 238.135 235.056C236.792 235.056 235.565 235.403 234.5 236.074C233.412 236.746 232.556 237.672 231.931 238.852C231.306 240.033 231.005 241.352 231.005 242.787C231.005 244.223 231.306 245.542 231.931 246.7C232.556 247.88 233.412 248.783 234.5 249.454C235.588 250.126 236.792 250.45 238.135 250.45C239.362 250.45 240.427 250.195 241.306 249.686C242.186 249.177 242.834 248.575 243.251 247.857V249.917C243.251 251.353 242.834 252.51 242.024 253.367C241.214 254.223 240.126 254.663 238.806 254.663C237.579 254.663 236.607 254.385 235.912 253.83C235.218 253.274 234.778 252.556 234.616 251.7H231.977C232.255 253.228 232.973 254.501 234.13 255.496C235.287 256.492 236.862 257.001 238.806 257.001C240.172 257.001 241.376 256.7 242.44 256.098C243.505 255.496 244.339 254.663 244.941 253.598C245.542 252.533 245.843 251.329 245.843 249.964V235.403H243.251V237.625V237.648ZM242.672 245.542C242.255 246.352 241.677 247.001 240.913 247.464C240.149 247.927 239.315 248.158 238.343 248.158C237.371 248.158 236.561 247.927 235.843 247.464C235.102 247.001 234.547 246.352 234.153 245.542C233.76 244.732 233.551 243.806 233.551 242.811C233.551 241.815 233.76 240.889 234.153 240.079C234.547 239.269 235.125 238.621 235.843 238.158C236.584 237.695 237.417 237.463 238.343 237.463C239.269 237.463 240.149 237.695 240.913 238.158C241.677 238.621 242.255 239.269 242.672 240.079C243.089 240.889 243.297 241.815 243.297 242.811C243.297 243.806 243.089 244.732 242.672 245.542Z" fill="white"/>
<path d="M250.958 228.55C250.472 228.55 250.055 228.712 249.731 229.059C249.407 229.406 249.245 229.823 249.245 230.332C249.245 230.842 249.407 231.258 249.731 231.605C250.055 231.953 250.472 232.115 250.958 232.115C251.444 232.115 251.884 231.953 252.208 231.605C252.532 231.258 252.694 230.842 252.694 230.332C252.694 229.823 252.532 229.406 252.208 229.059C251.884 228.712 251.467 228.55 250.958 228.55Z" fill="white"/>
<path d="M252.254 235.425H249.662V250.356H252.254V235.425Z" fill="white"/>
<path d="M267.603 237.648C267.209 236.931 266.561 236.329 265.658 235.82C264.779 235.31 263.714 235.056 262.487 235.056C261.144 235.056 259.917 235.403 258.852 236.074C257.764 236.746 256.908 237.695 256.283 238.898C255.658 240.102 255.357 241.422 255.357 242.88C255.357 244.338 255.658 245.658 256.283 246.862C256.908 248.065 257.764 248.991 258.852 249.686C259.94 250.357 261.144 250.704 262.487 250.704C263.714 250.704 264.779 250.45 265.658 249.94C266.538 249.431 267.186 248.829 267.603 248.112V250.334H270.195V235.426H267.603V237.648ZM267.024 245.658C266.607 246.491 266.029 247.139 265.265 247.602C264.524 248.089 263.667 248.32 262.695 248.32C261.723 248.32 260.913 248.089 260.195 247.626C259.454 247.163 258.899 246.514 258.482 245.681C258.089 244.848 257.88 243.922 257.88 242.903C257.88 241.885 258.089 240.959 258.482 240.125C258.876 239.292 259.454 238.644 260.195 238.181C260.936 237.718 261.769 237.486 262.695 237.486C263.621 237.486 264.501 237.718 265.265 238.204C266.005 238.69 266.607 239.338 267.024 240.148C267.441 240.982 267.649 241.908 267.649 242.926C267.649 243.945 267.441 244.871 267.024 245.704V245.658Z" fill="white"/>
<path d="M278.391 230.89H275.798V235.427H272.58V237.811H275.798V250.335H278.391V237.811H281.585V235.427H278.391V230.89Z" fill="white"/>
<path d="M295.034 237.648C294.641 236.931 293.993 236.329 293.09 235.82C292.21 235.31 291.145 235.056 289.918 235.056C288.576 235.056 287.349 235.403 286.284 236.074C285.196 236.746 284.34 237.695 283.715 238.898C283.089 240.102 282.789 241.422 282.789 242.88C282.789 244.338 283.089 245.658 283.715 246.862C284.34 248.065 285.196 248.991 286.284 249.686C287.372 250.357 288.576 250.704 289.918 250.704C291.145 250.704 292.21 250.45 293.09 249.94C293.97 249.431 294.618 248.829 295.034 248.112V250.334H297.627V235.426H295.034V237.648ZM294.456 245.658C294.039 246.491 293.46 247.139 292.696 247.602C291.956 248.089 291.099 248.32 290.127 248.32C289.155 248.32 288.344 248.089 287.627 247.626C286.886 247.163 286.33 246.514 285.914 245.681C285.52 244.848 285.312 243.922 285.312 242.903C285.312 241.885 285.52 240.959 285.914 240.125C286.307 239.292 286.886 238.644 287.627 238.181C288.367 237.718 289.201 237.486 290.127 237.486C291.053 237.486 291.932 237.718 292.696 238.204C293.437 238.69 294.039 239.338 294.456 240.148C294.872 240.982 295.081 241.908 295.081 242.926C295.081 243.945 294.872 244.871 294.456 245.704V245.658Z" fill="white"/>
<path d="M58.035 207.323H67.04V185.979H80.2581V178.063H67.04V157.807C62.5491 155.423 57.9424 153.154 53.3589 150.793C52.3172 152.969 51.2061 155.145 50.0718 157.321C52.6876 159.011 55.4192 160.886 58.035 162.668V207.346V207.323Z" fill="white"/>
<path d="M45.835 199.404H37.0153V176.857H45.835V169.148H0V176.857H8.63458V199.404H0V207.113H45.835V199.404ZM28.3112 199.404H17.246V176.857H28.3112V199.404Z" fill="white"/>
<path d="M108.359 168.363H98.7987V186.165L82.7795 202.578C84.4694 204.453 86.2519 206.536 88.0344 208.411L103.591 193.781L117.735 207.531C119.517 205.564 121.485 203.666 123.267 201.79C118.29 196.559 113.429 191.304 108.359 186.165V168.363Z" fill="white"/>
<path d="M159.82 207.324V157.785L146.139 150.771L142.944 157.206L151.023 162.646V207.324H159.82Z" fill="white"/>
<path d="M133.293 207.321H142.113V161.949L128.802 155.213L125.608 161.648L133.293 166.88V177.667H119.983V185.677H133.293V207.321Z" fill="white"/>
<path d="M236.515 207.324V157.785C232.024 155.4 227.417 153.132 222.834 150.771C221.792 152.947 220.588 155.123 219.454 157.299C222.162 158.988 224.801 160.863 227.51 162.646V207.324H236.515Z" fill="white"/>
<path d="M196.095 176.764H209.406V168.963H172.576V176.764H186.627V185.167L170.145 202.089L175.284 207.714L191.326 192.691L206.42 207.228L211.86 201.696L196.095 185.167V176.764Z" fill="white"/>
<path d="M269.223 174.589V166.88H260.126V174.589C252.348 176.371 247.764 182.783 247.764 190.307C247.764 199.497 254.223 206.719 264.64 206.719C275.057 206.719 281.608 199.497 281.608 190.307C281.608 182.783 276.909 176.371 269.223 174.589ZM264.64 199.103C259.755 199.103 256.399 195.538 256.399 190.307C256.399 185.075 259.778 181.603 264.64 181.603C269.501 181.603 272.973 185.168 272.973 190.307C272.973 195.446 269.594 199.103 264.64 199.103Z" fill="white"/>
<path d="M297.626 207.324H306.631V186.073H319.849V178.156H306.631V157.785C302.14 155.4 297.534 153.132 292.95 150.771C291.909 152.947 290.705 155.123 289.571 157.299C292.279 158.988 294.918 160.863 297.626 162.646V207.324Z" fill="white"/>
<path d="M360.8 206.72H335.776V195.955H356.031V188.131H335.776V177.459H358.925V169.565H326.678V214.637H360.8V206.72Z" fill="white"/>
<path d="M384.436 178.156V157.785L370.662 150.771C369.621 152.947 368.417 155.123 367.282 157.299C369.991 158.988 372.63 160.863 375.338 162.646V207.324H384.436V186.073H397.469V178.156H384.436Z" fill="white"/>
<path d="M267.232 50.1427C262.579 33.9384 250.218 20.373 234.985 13.4283C216.883 5.16415 206.975 13.1969 195.54 27.8039C189.22 35.906 183.201 44.7027 174.335 49.8649C169.127 52.8974 163.224 54.4715 157.367 56.092V67.8285C158.848 67.4813 160.469 67.2961 162.136 67.2961C169.543 67.2961 175.539 70.9536 175.539 75.4445C175.539 79.9355 169.543 83.593 162.136 83.593C160.446 83.593 158.848 83.3847 157.367 83.0606C156.649 82.8985 155.978 82.6902 155.33 82.4587C151.394 81.0466 148.732 78.4308 148.732 75.4445C148.732 72.4583 151.394 69.8425 155.33 68.4304V56.6707C149.427 58.3606 143.663 60.2588 138.824 63.9395C126.949 72.9445 124.31 90.9312 130.398 104.543C136.486 118.154 149.566 127.646 163.594 132.669C213.156 150.424 284.038 108.617 267.232 50.1427Z" fill="white"/>
<path d="M157.366 20.1152L155.329 20.9023V56.6675C156 56.4823 156.694 56.274 157.366 56.0888V20.1152Z" fill="white"/>
<path d="M155.329 82.4546C155.977 82.6861 156.648 82.8945 157.366 83.0565V56.0879C156.694 56.2731 156 56.4814 155.329 56.6666V82.4546Z" fill="white"/>
<path d="M157.366 20.1165L182.691 10.4402L155.329 0V3.28716H157.366V20.1165Z" fill="white"/>
<path d="M157.366 3.28809H155.329V20.9045L157.366 20.1174V3.28809Z" fill="white"/>
<path d="M397.353 243.043H303.368V244.362H397.353V243.043Z" fill="white"/>
<path d="M92.99 243.043H1.22729V244.362H92.99V243.043Z" fill="white"/>
<path d="M397.353 238.179H303.368V239.498H397.353V238.179Z" fill="white"/>
<path d="M92.99 238.179H1.22729V239.498H92.99V238.179Z" fill="white"/>
</svg>
