<?xml version="1.0" standalone="no"?>
<!DOCTYPE svg PUBLIC "-//W3C//DTD SVG 20010904//EN"
 "http://www.w3.org/TR/2001/REC-SVG-20010904/DTD/svg10.dtd">
<svg version="1.0" xmlns="http://www.w3.org/2000/svg"
 width="700.000000pt" height="700.000000pt" viewBox="0 0 700.000000 700.000000"
 preserveAspectRatio="xMidYMid meet">
<metadata>
Created by potrace 1.14, written by Peter Selinger 2001-2017
</metadata>
<g transform="translate(0.000000,700.000000) scale(0.100000,-0.100000)"
fill="#000000" stroke="none">
<path d="M0 3500 l0 -3500 3500 0 3500 0 0 3500 0 3500 -3500 0 -3500 0 0
-3500z m3513 2768 c-6 -7 -245 -307 -532 -665 -286 -359 -521 -657 -521 -662
0 -5 243 -319 539 -698 l539 -688 -631 -5 c-348 -3 -600 -8 -562 -12 39 -4 78
-10 88 -13 16 -7 17 -45 17 -616 l0 -609 525 0 525 0 0 -238 c0 -131 -5 -276
-10 -322 -54 -437 -314 -768 -720 -915 -144 -51 -231 -66 -435 -72 -219 -6
-339 8 -502 59 -457 142 -769 513 -853 1013 -61 365 -15 743 122 1020 153 308
395 521 710 626 100 34 263 68 336 71 26 1 -72 5 -218 8 -255 6 -268 7 -345
34 -199 68 -352 204 -434 388 -62 138 -61 122 -61 940 0 713 1 748 20 824 71
279 305 492 585 533 33 5 458 9 944 10 705 1 881 -2 874 -11z m1659 -18 c295
-61 521 -227 646 -475 133 -266 134 -644 2 -905 -86 -172 -265 -334 -453 -411
-171 -71 -304 -89 -643 -89 l-251 0 -7 -110 c-14 -212 -77 -362 -211 -495
-126 -126 -267 -194 -433 -210 l-72 -8 0 826 c0 868 2 912 46 1066 126 438
520 774 974 831 104 12 285 3 402 -20z m-19 -2715 c273 -36 495 -139 646 -301
119 -126 197 -306 208 -475 l6 -89 -534 0 -534 0 110 -61 c156 -87 487 -287
636 -385 152 -100 213 -164 275 -289 57 -116 74 -185 81 -320 17 -338 -142
-593 -460 -740 -181 -84 -368 -119 -637 -119 -199 -1 -269 7 -425 46 -335 83
-589 301 -675 579 -33 108 -70 272 -70 311 l0 37 488 -5 c268 -2 518 -6 556
-9 l69 -4 -70 43 c-38 24 -159 92 -269 151 -349 188 -437 245 -541 353 -183
187 -221 474 -97 727 137 280 445 494 784 544 41 6 86 13 100 15 64 9 250 5
353 -9z"/>
</g>
</svg>
