<svg width="757" height="42" viewBox="0 0 757 42" fill="none" xmlns="http://www.w3.org/2000/svg">
<path d="M0.8 1.5H11.55V17.7L23.35 1.5H35.35L22.15 19L35.75 40.55H23.45L11.55 20.3V40.55H0.85L0.8 1.5ZM58.0324 41.55C54.1991 41.55 50.7991 40.7 47.8324 39C44.8658 37.3333 42.5658 34.9833 40.9324 31.95C39.3324 28.8833 38.5324 25.3667 38.5324 21.4C38.5324 17.2333 39.3491 13.5833 40.9824 10.45C42.6158 7.28333 44.8991 4.85 47.8324 3.15C50.7991 1.41666 54.1991 0.549998 58.0324 0.549998C61.8991 0.549998 65.2991 1.41666 68.2324 3.15C71.1991 4.91667 73.4824 7.4 75.0824 10.6C76.7158 13.7667 77.5324 17.4 77.5324 21.5C77.5324 25.4333 76.7324 28.9333 75.1324 32C73.4991 35.0333 71.1991 37.3833 68.2324 39.05C65.2991 40.7167 61.8991 41.55 58.0324 41.55ZM58.0324 32.35C59.6991 32.35 61.1991 31.9 62.5324 31C63.8991 30.0667 64.9658 28.7333 65.7324 27C66.5324 25.2667 66.9324 23.2333 66.9324 20.9C66.9324 18.6333 66.5324 16.6667 65.7324 15C64.9658 13.3 63.8991 12 62.5324 11.1C61.1991 10.2 59.6824 9.75 57.9824 9.75C56.2824 9.75 54.7658 10.2167 53.4324 11.15C52.0991 12.05 51.0491 13.3667 50.2824 15.1C49.5158 16.8 49.1324 18.7833 49.1324 21.05C49.1324 23.3167 49.5158 25.3167 50.2824 27.05C51.0824 28.75 52.1491 30.0667 53.4824 31C54.8491 31.9 56.3658 32.35 58.0324 32.35ZM82.6359 1.5H99.4859C102.453 1.5 105.019 2.03333 107.186 3.1C109.353 4.16667 111.019 5.7 112.186 7.7C113.386 9.7 113.986 12.0667 113.986 14.8C113.986 20.0667 111.803 23.7833 107.436 25.95L115.636 40.55H104.286L97.1859 27.65L94.3859 22.6L93.4359 20.75H93.2359V40.55H82.6359V1.5ZM96.9359 19.4C100.936 19.4 102.936 17.9 102.936 14.9C102.936 11.6 100.936 9.95 96.9359 9.95H93.2359V19.4H96.9359ZM118.915 1.5H147.115V10H129.615V16.65H146.115V25.1H132.565L130.015 19.1H129.615V31.95H147.465V40.55H118.915V1.5ZM162.663 1.5H176.963L190.363 40.55H178.813L176.563 32.9H169.363L167.713 24.45H174.063L170.263 11.5L161.613 40.55H150.063L162.663 1.5ZM204.889 1.5H220.639C225.839 1.5 229.905 2.68333 232.839 5.05C235.772 7.41667 237.239 10.75 237.239 15.05C237.239 17.9167 236.572 20.3667 235.239 22.4C233.905 24.5 232.039 26.1167 229.639 27.25C227.239 28.3833 224.489 28.95 221.389 28.95H221.139L215.589 21.95H215.539V40.55H204.889V1.5ZM219.239 20.7C221.372 20.7 223.055 20.2 224.289 19.2C225.555 18.2 226.189 16.8167 226.189 15.05C226.189 13.45 225.555 12.2 224.289 11.3C223.055 10.4 221.372 9.95 219.239 9.95H215.539V20.7H219.239ZM251.823 1.5H266.123L279.523 40.55H267.973L265.723 32.9H258.523L256.873 24.45H263.223L259.423 11.5L250.773 40.55H239.223L251.823 1.5ZM282.831 1.5H299.681C302.648 1.5 305.215 2.03333 307.381 3.1C309.548 4.16667 311.215 5.7 312.381 7.7C313.581 9.7 314.181 12.0667 314.181 14.8C314.181 20.0667 311.998 23.7833 307.631 25.95L315.831 40.55H304.481L297.381 27.65L294.581 22.6L293.631 20.75H293.431V40.55H282.831V1.5ZM297.131 19.4C301.131 19.4 303.131 17.9 303.131 14.9C303.131 11.6 301.131 9.95 297.131 9.95H293.431V19.4H297.131ZM319.111 1.5H329.861V17.7L341.661 1.5H353.661L340.461 19L354.061 40.55H341.761L329.861 20.3V40.55H319.161L319.111 1.5ZM387.561 41.5C383.727 41.5 380.327 40.65 377.361 38.95C374.394 37.25 372.094 34.85 370.461 31.75C368.861 28.65 368.061 25.1 368.061 21.1C368.061 16.9667 368.877 13.3667 370.511 10.3C372.111 7.2 374.377 4.8 377.311 3.1C380.244 1.4 383.644 0.549998 387.511 0.549998C390.611 0.549998 393.411 1.13333 395.911 2.3C398.411 3.43333 400.444 5.03333 402.011 7.1C403.611 9.16667 404.611 11.55 405.011 14.25H394.311C393.777 12.85 392.927 11.75 391.761 10.95C390.594 10.15 389.244 9.75 387.711 9.75C384.877 9.75 382.661 10.75 381.061 12.75C379.461 14.7167 378.661 17.45 378.661 20.95C378.661 24.4833 379.461 27.2667 381.061 29.3C382.661 31.3 384.861 32.3 387.661 32.3C389.861 32.3 391.661 31.7667 393.061 30.7C394.461 29.6 395.211 28.15 395.311 26.35H389.111L384.461 18.65H405.511V23.65C405.511 27.3167 404.794 30.5 403.361 33.2C401.927 35.8667 399.861 37.9167 397.161 39.35C394.461 40.7833 391.261 41.5 387.561 41.5ZM429.077 41.55C425.244 41.55 421.844 40.7 418.877 39C415.911 37.3333 413.611 34.9833 411.977 31.95C410.377 28.8833 409.577 25.3667 409.577 21.4C409.577 17.2333 410.394 13.5833 412.027 10.45C413.661 7.28333 415.944 4.85 418.877 3.15C421.844 1.41666 425.244 0.549998 429.077 0.549998C432.944 0.549998 436.344 1.41666 439.277 3.15C442.244 4.91667 444.527 7.4 446.127 10.6C447.761 13.7667 448.577 17.4 448.577 21.5C448.577 25.4333 447.777 28.9333 446.177 32C444.544 35.0333 442.244 37.3833 439.277 39.05C436.344 40.7167 432.944 41.55 429.077 41.55ZM429.077 32.35C430.744 32.35 432.244 31.9 433.577 31C434.944 30.0667 436.011 28.7333 436.777 27C437.577 25.2667 437.977 23.2333 437.977 20.9C437.977 18.6333 437.577 16.6667 436.777 15C436.011 13.3 434.944 12 433.577 11.1C432.244 10.2 430.727 9.75 429.027 9.75C427.327 9.75 425.811 10.2167 424.477 11.15C423.144 12.05 422.094 13.3667 421.327 15.1C420.561 16.8 420.177 18.7833 420.177 21.05C420.177 23.3167 420.561 25.3167 421.327 27.05C422.127 28.75 423.194 30.0667 424.527 31C425.894 31.9 427.411 32.35 429.077 32.35ZM453.131 1.5H463.831V31.35H480.931V40.55H453.131V1.5ZM484.833 1.5H513.283V10.05H495.533V16.75H512.033V25.3H498.533L495.933 19.2H495.533V40.55H484.833V1.5ZM545.768 41.5C542.101 41.5 538.868 40.85 536.068 39.55C533.235 38.25 531.068 36.45 529.568 34.15C528.068 31.85 527.351 29.2167 527.418 26.25H538.868C538.801 28.0167 539.385 29.4333 540.618 30.5C541.885 31.5667 543.601 32.1 545.768 32.1C547.501 32.1 548.851 31.8667 549.818 31.4C550.785 30.9333 551.268 30.2667 551.268 29.4C551.268 28.5 550.601 27.6833 549.268 26.95C547.868 26.2167 545.551 25.2833 542.318 24.15C539.451 23.15 537.051 22.1333 535.118 21.1C531.151 18.9333 529.168 15.9833 529.168 12.25C529.168 9.95 529.851 7.91667 531.218 6.15C532.585 4.35 534.501 2.96667 536.968 2C539.435 1.03333 542.251 0.549998 545.418 0.549998C548.851 0.549998 551.835 1.15 554.368 2.35C556.935 3.55 558.885 5.18333 560.218 7.25C561.585 9.31666 562.235 11.65 562.168 14.25H550.718C550.785 12.95 550.335 11.9167 549.368 11.15C548.435 10.35 547.101 9.95 545.368 9.95C544.001 9.95 542.901 10.1833 542.068 10.65C541.268 11.0833 540.868 11.65 540.868 12.35C540.868 12.8833 541.051 13.3333 541.418 13.7C541.885 14.1 542.535 14.4667 543.368 14.8C544.335 15.2333 545.801 15.7833 547.768 16.45L549.768 17.2C554.501 18.9333 557.885 20.75 559.918 22.65C561.951 24.55 562.968 26.8333 562.968 29.5C562.968 31.9333 562.268 34.05 560.868 35.85C559.501 37.65 557.518 39.0333 554.918 40C552.351 41 549.301 41.5 545.768 41.5ZM578.316 28.3L564.016 1.5H575.816L583.416 17.4H583.766L591.366 1.5H603.166L588.866 28.3V40.55H578.316V28.3ZM622.526 41.5C618.859 41.5 615.626 40.85 612.826 39.55C609.992 38.25 607.826 36.45 606.326 34.15C604.826 31.85 604.109 29.2167 604.176 26.25H615.626C615.559 28.0167 616.142 29.4333 617.376 30.5C618.642 31.5667 620.359 32.1 622.526 32.1C624.259 32.1 625.609 31.8667 626.576 31.4C627.542 30.9333 628.026 30.2667 628.026 29.4C628.026 28.5 627.359 27.6833 626.026 26.95C624.626 26.2167 622.309 25.2833 619.076 24.15C616.209 23.15 613.809 22.1333 611.876 21.1C607.909 18.9333 605.926 15.9833 605.926 12.25C605.926 9.95 606.609 7.91667 607.976 6.15C609.342 4.35 611.259 2.96667 613.726 2C616.192 1.03333 619.009 0.549998 622.176 0.549998C625.609 0.549998 628.592 1.15 631.126 2.35C633.692 3.55 635.642 5.18333 636.976 7.25C638.342 9.31666 638.992 11.65 638.926 14.25H627.476C627.542 12.95 627.092 11.9167 626.126 11.15C625.192 10.35 623.859 9.95 622.126 9.95C620.759 9.95 619.659 10.1833 618.826 10.65C618.026 11.0833 617.626 11.65 617.626 12.35C617.626 12.8833 617.809 13.3333 618.176 13.7C618.642 14.1 619.292 14.4667 620.126 14.8C621.092 15.2333 622.559 15.7833 624.526 16.45L626.526 17.2C631.259 18.9333 634.642 20.75 636.676 22.65C638.709 24.55 639.726 26.8333 639.726 29.5C639.726 31.9333 639.026 34.05 637.626 35.85C636.259 37.65 634.276 39.0333 631.676 40C629.109 41 626.059 41.5 622.526 41.5ZM653.223 10.1H641.773V1.5H675.273V10.1H663.823V40.6H653.223V10.1ZM679.071 1.5H707.271V10H689.771V16.65H706.271V25.1H692.721L690.171 19.1H689.771V31.95H707.621V40.55H679.071V1.5ZM712.519 1.5H725.169L731.669 17.85C732.835 20.75 733.785 23.35 734.519 25.65H734.719C735.452 23.3833 736.402 20.7667 737.569 17.8L743.969 1.5H756.619V40.55H746.319V25.45C746.319 23.1167 746.552 20.2167 747.019 16.75H746.819L743.669 25.4L737.619 40.2H731.569L725.569 25.4L722.269 16.75H722.069C722.602 19.9167 722.869 22.8167 722.869 25.45V40.55H712.519V1.5Z" fill="black" fill-opacity="0.1"/>
</svg>
