<svg width="193" height="215" viewBox="0 0 193 215" fill="none" xmlns="http://www.w3.org/2000/svg">
<path d="M154 181.45H164.613L170.067 194.848C171.046 197.225 171.843 199.355 172.458 201.24H172.626C173.241 199.383 174.038 197.238 175.017 194.807L180.387 181.45H191V213.45H182.358V201.076C182.358 199.164 182.554 196.788 182.946 193.947H182.778L180.135 201.035L175.059 213.163H169.983L164.949 201.035L162.18 193.947H162.012C162.46 196.542 162.684 198.918 162.684 201.076V213.45H154V181.45Z" fill="black" fill-opacity="0.1"/>
<path d="M126 181.45H149.706V188.416H134.995V193.865H148.865V200.789H137.475L135.331 195.873H134.995V206.403H150V213.45H126V181.45Z" fill="black" fill-opacity="0.1"/>
<path d="M104.57 188.489H95V181.45H123V188.489H113.43V213.45H104.57V188.489Z" fill="black" fill-opacity="0.1"/>
<path d="M78.9707 214.45C75.98 214.45 73.3427 213.91 71.0589 212.831C68.7479 211.752 66.9806 210.257 65.7571 208.348C64.5336 206.438 63.9491 204.252 64.0035 201.788H73.3427C73.2883 203.255 73.7641 204.431 74.7701 205.317C75.8033 206.203 77.2035 206.646 78.9707 206.646C80.3845 206.646 81.4857 206.452 82.2741 206.064C83.0626 205.677 83.4568 205.123 83.4568 204.404C83.4568 203.657 82.9131 202.978 81.8255 202.37C80.6836 201.761 78.794 200.986 76.1567 200.045C73.8185 199.215 71.8609 198.37 70.284 197.512C67.0486 195.714 65.4309 193.264 65.4309 190.164C65.4309 188.255 65.9882 186.567 67.103 185.1C68.2177 183.605 69.781 182.457 71.793 181.654C73.8049 180.852 76.1024 180.45 78.6853 180.45C81.4857 180.45 83.919 180.948 85.9854 181.945C88.0789 182.941 89.6694 184.297 90.757 186.013C91.8717 187.729 92.4019 189.666 92.3475 191.825H83.0082C83.0626 190.746 82.6956 189.888 81.9071 189.251C81.1458 188.587 80.0583 188.255 78.6445 188.255C77.5298 188.255 76.6325 188.449 75.9528 188.836C75.3003 189.196 74.974 189.666 74.974 190.248C74.974 190.69 75.1236 191.064 75.4226 191.368C75.8033 191.701 76.3335 192.005 77.0132 192.282C77.8016 192.641 78.9979 193.098 80.6021 193.652L82.2334 194.274C86.0941 195.714 88.8538 197.222 90.5123 198.799C92.1708 200.377 93 202.273 93 204.487C93 206.507 92.429 208.265 91.2871 209.759C90.1724 211.254 88.5547 212.402 86.434 213.205C84.3405 214.035 81.8527 214.45 78.9707 214.45Z" fill="black" fill-opacity="0.1"/>
<path d="M42.0536 203.412L30 181.45H39.9464L46.3525 194.48H46.6475L53.0536 181.45H63L50.9464 203.412V213.45H42.0536V203.412Z" fill="black" fill-opacity="0.1"/>
<path d="M14.9707 214.45C11.98 214.45 9.34272 213.91 7.05889 212.831C4.74786 211.752 2.98061 210.257 1.75713 208.348C0.533646 206.438 -0.0509061 204.252 0.00347087 201.788H9.34272C9.28834 203.255 9.76414 204.431 10.7701 205.317C11.8033 206.203 13.2035 206.646 14.9707 206.646C16.3845 206.646 17.4857 206.452 18.2741 206.064C19.0626 205.677 19.4568 205.123 19.4568 204.404C19.4568 203.657 18.9131 202.978 17.8255 202.37C16.6836 201.761 14.794 200.986 12.1567 200.045C9.81852 199.215 7.86095 198.37 6.28401 197.512C3.04858 195.714 1.43087 193.264 1.43087 190.164C1.43087 188.255 1.98823 186.567 3.10296 185.1C4.21769 183.605 5.78103 182.457 7.79297 181.654C9.80492 180.852 12.1024 180.45 14.6853 180.45C17.4857 180.45 19.919 180.948 21.9854 181.945C24.0789 182.941 25.6694 184.297 26.757 186.013C27.8717 187.729 28.4019 189.666 28.3475 191.825H19.0082C19.0626 190.746 18.6956 189.888 17.9071 189.251C17.1458 188.587 16.0583 188.255 14.6445 188.255C13.5297 188.255 12.6325 188.449 11.9528 188.836C11.3003 189.196 10.974 189.666 10.974 190.248C10.974 190.69 11.1236 191.064 11.4226 191.368C11.8033 191.701 12.3335 192.005 13.0132 192.282C13.8016 192.641 14.9979 193.098 16.602 193.652L18.2334 194.274C22.0941 195.714 24.8538 197.222 26.5123 198.799C28.1708 200.377 29 202.273 29 204.487C29 206.507 28.429 208.265 27.2871 209.759C26.1724 211.254 24.5547 212.402 22.434 213.205C20.3405 214.035 17.8527 214.45 14.9707 214.45Z" fill="black" fill-opacity="0.1"/>
<path d="M155 118.45H192V129.836H168.916V138.757H190.374V150.143H172.817L169.436 142.02H168.916V170.45H155V118.45Z" fill="black" fill-opacity="0.1"/>
<path d="M113 118.45H126.856V158.199H149V170.45H113V118.45Z" fill="black" fill-opacity="0.1"/>
<path d="M81.5 171.45C76.4872 171.45 72.041 170.331 68.1615 168.092C64.2821 165.897 61.2744 162.801 59.1385 158.806C57.0462 154.767 56 150.136 56 144.911C56 139.423 57.068 134.616 59.2038 130.489C61.3397 126.318 64.3256 123.114 68.1615 120.875C72.041 118.592 76.4872 117.45 81.5 117.45C86.5564 117.45 91.0026 118.592 94.8385 120.875C98.718 123.201 101.704 126.472 103.796 130.687C105.932 134.858 107 139.643 107 145.043C107 150.223 105.954 154.833 103.862 158.872C101.726 162.867 98.718 165.962 94.8385 168.158C91.0026 170.353 86.5564 171.45 81.5 171.45ZM81.5 159.333C83.6795 159.333 85.641 158.74 87.3846 157.555C89.1718 156.326 90.5667 154.57 91.5692 152.287C92.6154 150.004 93.1385 147.326 93.1385 144.253C93.1385 141.267 92.6154 138.677 91.5692 136.482C90.5667 134.243 89.1718 132.531 87.3846 131.345C85.641 130.16 83.6577 129.567 81.4346 129.567C79.2115 129.567 77.2282 130.182 75.4846 131.411C73.741 132.597 72.368 134.331 71.3654 136.614C70.3628 138.853 69.8615 141.465 69.8615 144.45C69.8615 147.436 70.3628 150.07 71.3654 152.353C72.4115 154.592 73.8064 156.326 75.55 157.555C77.3372 158.74 79.3205 159.333 81.5 159.333Z" fill="black" fill-opacity="0.1"/>
<path d="M26.514 171.45C21.4984 171.45 17.0498 170.329 13.1682 168.088C9.28661 165.846 6.27726 162.681 4.14019 158.593C2.04673 154.505 1 149.824 1 144.549C1 139.099 2.06854 134.351 4.20561 130.307C6.29907 126.219 9.2648 123.055 13.1028 120.813C16.9408 118.571 21.3894 117.45 26.4486 117.45C30.5047 117.45 34.1682 118.219 37.4393 119.758C40.7103 121.252 43.3707 123.362 45.4206 126.088C47.514 128.813 48.8224 131.956 49.3458 135.516H35.3458C34.648 133.67 33.5358 132.219 32.0093 131.164C30.4829 130.11 28.7165 129.582 26.7103 129.582C23.0031 129.582 20.1028 130.901 18.0093 133.538C15.9159 136.132 14.8692 139.736 14.8692 144.351C14.8692 149.011 15.9159 152.681 18.0093 155.362C20.1028 158 22.9813 159.318 26.6449 159.318C29.5234 159.318 31.8785 158.615 33.7103 157.208C35.5421 155.758 36.5234 153.846 36.6542 151.472H28.5421L22.4579 141.318H50V147.912C50 152.747 49.0623 156.945 47.1869 160.505C45.3115 164.022 42.6075 166.725 39.0748 168.615C35.5421 170.505 31.3551 171.45 26.514 171.45Z" fill="black" fill-opacity="0.1"/>
<path d="M148.084 55.0103H161.844V75.7463L176.948 55.0103H192.308L175.412 77.4103L192.82 104.994H177.076L161.844 79.0743V104.994H148.148L148.084 55.0103Z" fill="black" fill-opacity="0.1"/>
<path d="M101.646 55.0103H123.214C127.012 55.0103 130.297 55.6929 133.07 57.0583C135.844 58.4236 137.977 60.3863 139.47 62.9463C141.006 65.5063 141.774 68.5356 141.774 72.0343C141.774 78.7756 138.98 83.5329 133.39 86.3063L143.886 104.994H129.358L120.27 88.4823L116.686 82.0183L115.47 79.6503H115.214V104.994H101.646V55.0103ZM119.95 77.9223C125.07 77.9223 127.63 76.0023 127.63 72.1623C127.63 67.9383 125.07 65.8263 119.95 65.8263H115.214V77.9223H119.95Z" fill="black" fill-opacity="0.1"/>
<path d="M61.9552 55.0103H80.2592L97.4111 104.994H82.6272L79.7471 95.2023H70.5312L68.4192 84.3863H76.5471L71.6832 67.8103L60.6111 104.994H45.8271L61.9552 55.0103Z" fill="black" fill-opacity="0.1"/>
<path d="M1.87988 55.0103H22.0399C28.6959 55.0103 33.9012 56.5249 37.6559 59.5543C41.4106 62.5836 43.2879 66.8503 43.2879 72.3543C43.2879 76.0236 42.4345 79.1596 40.7279 81.7623C39.0212 84.4503 36.6319 86.5196 33.5599 87.9703C30.4879 89.4209 26.9679 90.1463 22.9999 90.1463H22.6799L15.5759 81.1863H15.5119V104.994H1.87988V55.0103ZM20.2479 79.5863C22.9785 79.5863 25.1332 78.9463 26.7119 77.6663C28.3332 76.3863 29.1439 74.6156 29.1439 72.3543C29.1439 70.3063 28.3332 68.7063 26.7119 67.5543C25.1332 66.4023 22.9785 65.8263 20.2479 65.8263H15.5119V79.5863H20.2479Z" fill="black" fill-opacity="0.1"/>
<path d="M163.663 0.950195H177.963L191.363 40.0002H179.812L177.562 32.3502H170.363L168.712 23.9002H175.062L171.262 10.9502L162.613 40.0002H151.062L163.663 0.950195Z" fill="black" fill-opacity="0.1"/>
<path d="M119.915 0.950195H148.115V9.4502H130.615V16.1002H147.115V24.5502H133.565L131.015 18.5502H130.615V31.4002H148.465V40.0002H119.915V0.950195Z" fill="black" fill-opacity="0.1"/>
<path d="M83.6357 0.950195H100.486C103.452 0.950195 106.019 1.48353 108.186 2.5502C110.352 3.61686 112.019 5.1502 113.186 7.1502C114.386 9.1502 114.986 11.5169 114.986 14.2502C114.986 19.5169 112.802 23.2335 108.436 25.4002L116.636 40.0002H105.286L98.1857 27.1002L95.3857 22.0502L94.4357 20.2002H94.2357V40.0002H83.6357V0.950195ZM97.9357 18.8502C101.936 18.8502 103.936 17.3502 103.936 14.3502C103.936 11.0502 101.936 9.4002 97.9357 9.4002H94.2357V18.8502H97.9357Z" fill="black" fill-opacity="0.1"/>
<path d="M59.0322 41C55.1989 41 51.7989 40.15 48.8322 38.45C45.8656 36.7833 43.5656 34.4333 41.9322 31.4C40.3322 28.3333 39.5322 24.8167 39.5322 20.85C39.5322 16.6833 40.3489 13.0333 41.9822 9.9C43.6156 6.73333 45.8989 4.3 48.8322 2.6C51.7989 0.866667 55.1989 0 59.0322 0C62.8989 0 66.2989 0.866667 69.2322 2.6C72.1989 4.36667 74.4822 6.85 76.0822 10.05C77.7156 13.2167 78.5322 16.85 78.5322 20.95C78.5322 24.8833 77.7322 28.3833 76.1322 31.45C74.4989 34.4833 72.1989 36.8333 69.2322 38.5C66.2989 40.1667 62.8989 41 59.0322 41ZM59.0322 31.8C60.6989 31.8 62.1989 31.35 63.5322 30.45C64.8989 29.5167 65.9656 28.1833 66.7322 26.45C67.5322 24.7167 67.9322 22.6833 67.9322 20.35C67.9322 18.0833 67.5322 16.1167 66.7322 14.45C65.9656 12.75 64.8989 11.45 63.5322 10.55C62.1989 9.65 60.6822 9.2 58.9822 9.2C57.2822 9.2 55.7656 9.66667 54.4322 10.6C53.0989 11.5 52.0489 12.8167 51.2822 14.55C50.5156 16.25 50.1322 18.2333 50.1322 20.5C50.1322 22.7667 50.5156 24.7667 51.2822 26.5C52.0822 28.2 53.1489 29.5167 54.4822 30.45C55.8489 31.35 57.3656 31.8 59.0322 31.8Z" fill="black" fill-opacity="0.1"/>
<path d="M1.7998 0.950195H12.5498V17.1502L24.3498 0.950195H36.3498L23.1498 18.4502L36.7498 40.0002H24.4498L12.5498 19.7502V40.0002H1.8498L1.7998 0.950195Z" fill="black" fill-opacity="0.1"/>
</svg>
