<svg width="429" height="257" viewBox="0 0 429 257" fill="none" xmlns="http://www.w3.org/2000/svg">
<path d="M162.577 59.9623H160.24V65.1218H162.577C163.575 65.1218 164.354 64.9027 164.933 64.4445C165.493 64.0063 165.772 63.3688 165.772 62.5321C165.772 61.6954 165.493 61.0779 164.933 60.6197C164.374 60.1814 163.595 59.9424 162.577 59.9424V59.9623Z" fill="white"/>
<path d="M187.723 64.0059C188.262 63.6074 188.542 63.0297 188.542 62.2927C188.542 61.5556 188.282 60.9779 187.723 60.5595C187.184 60.1611 186.445 59.9619 185.466 59.9619H182.909V64.6035H185.466C186.425 64.6035 187.184 64.4043 187.723 64.0059Z" fill="white"/>
<path d="M171.224 65.8187H175.479L173.361 60.3604L171.224 65.8187Z" fill="white"/>
<path d="M243.266 68.2299C243.925 68.6283 244.684 68.8076 245.503 68.8076C246.322 68.8076 247.061 68.6084 247.72 68.2299C248.379 67.8315 248.899 67.2936 249.278 66.6163C249.657 65.919 249.837 65.1421 249.837 64.2656C249.837 63.3891 249.657 62.6122 249.278 61.9149C248.899 61.2177 248.379 60.6798 247.72 60.3013C247.061 59.9029 246.302 59.7236 245.483 59.7236C244.664 59.7236 243.905 59.9228 243.246 60.3013C242.587 60.6998 242.068 61.2376 241.708 61.9149C241.329 62.6122 241.149 63.3891 241.149 64.2656C241.149 65.1421 241.329 65.919 241.708 66.6163C242.088 67.3135 242.607 67.8514 243.266 68.2299Z" fill="white"/>
<path d="M405.024 46.7345C405.024 46.7345 267.892 0 214.426 0C160.959 0 23.8073 46.7345 23.8073 46.7345L0 114.008L23.8073 179.846C23.8073 179.846 129.343 237.717 214.426 237.717C299.509 237.717 405.044 179.846 405.044 179.846L428.852 115.163L405.044 46.7146L405.024 46.7345ZM254.531 58.6473H255.969V68.5878H261.98V69.9225H254.531V58.6473ZM240.45 61.2569C240.949 60.3605 241.628 59.6433 242.507 59.1453C243.386 58.6473 244.365 58.3883 245.463 58.3883C246.562 58.3883 247.54 58.6473 248.419 59.1453C249.298 59.6433 249.997 60.3605 250.496 61.2569C250.996 62.1533 251.255 63.1693 251.255 64.2849C251.255 65.4005 251.016 66.4164 250.516 67.3129C250.017 68.2093 249.338 68.9265 248.459 69.4245C247.58 69.9225 246.602 70.1815 245.503 70.1815C244.405 70.1815 243.426 69.9225 242.547 69.4245C241.668 68.9265 240.969 68.2093 240.47 67.3129C239.971 66.4164 239.711 65.4005 239.711 64.2849C239.711 63.1693 239.951 62.1533 240.45 61.2569ZM213.827 44.6428V25.5785L238.912 35.1007L215.704 43.9257V70.1815H213.827V44.6428ZM227.568 66.6356C227.927 67.3328 228.447 67.8707 229.126 68.2691C229.785 68.6675 230.544 68.8468 231.382 68.8468C232.121 68.8468 232.801 68.6874 233.38 68.3886C233.979 68.0699 234.458 67.6515 234.818 67.1137C235.177 66.5758 235.397 65.9582 235.437 65.3009H231.083V64.0259H236.975V64.5239C236.975 65.6196 236.735 66.5758 236.236 67.4523C235.737 68.3089 235.057 68.9862 234.199 69.4643C233.34 69.9424 232.381 70.1815 231.323 70.1815C230.264 70.1815 229.225 69.9225 228.367 69.4245C227.508 68.9265 226.809 68.2093 226.329 67.3129C225.83 66.4164 225.59 65.4005 225.59 64.2849C225.59 63.1693 225.83 62.1533 226.329 61.2569C226.829 60.3605 227.508 59.6632 228.367 59.1453C229.225 58.6273 230.224 58.3883 231.323 58.3883C232.221 58.3883 233.06 58.5477 233.819 58.8863C234.578 59.225 235.217 59.6832 235.737 60.2609C236.256 60.8386 236.595 61.496 236.795 62.2131H235.237C235.097 61.735 234.818 61.3167 234.458 60.9382C234.079 60.5597 233.619 60.2609 233.1 60.0616C232.561 59.8425 232.002 59.7429 231.382 59.7429C230.544 59.7429 229.805 59.9421 229.146 60.3206C228.486 60.719 227.967 61.2569 227.608 61.9342C227.228 62.6315 227.048 63.4084 227.048 64.2849C227.048 65.1614 227.228 65.9383 227.608 66.6356H227.568ZM193.295 58.6473H194.733V65.1415L200.365 58.6473H202.163L197.649 63.8267L202.482 69.9225H200.645L196.71 64.9024L194.733 67.1535V69.9225H193.295V58.6473ZM181.491 58.6473H185.605C186.524 58.6473 187.303 58.7867 187.962 59.0855C188.621 59.3843 189.12 59.8027 189.48 60.3605C189.82 60.9182 189.999 61.5557 189.999 62.2928C189.999 63.0896 189.8 63.7669 189.4 64.3447C189.001 64.9224 188.421 65.3407 187.662 65.6196L190.419 69.9225H188.721L186.224 65.9184C185.945 65.9184 185.745 65.9383 185.605 65.9383H182.929V69.9225H181.491V58.6473ZM46.9955 123.769C41.9225 123.769 37.7881 119.665 37.7881 114.585C37.7881 109.505 41.9025 105.402 46.9955 105.402C52.0885 105.402 56.2029 109.505 56.2029 114.585C56.2029 119.665 52.0885 123.769 46.9955 123.769ZM159.641 102.015H155.227L144.242 147.754H129.842L121.633 108.908H121.553L113.344 147.754H98.8643L87.8794 102.015H83.4655V91.5965H104.716V102.015H100.163L106.514 131.996L115.002 91.6164H128.124L136.613 131.996L142.964 102.015H138.41V91.5965H159.661V102.015H159.641ZM166.671 64.5837C166.312 65.1813 165.792 65.6395 165.113 65.9583C164.434 66.277 163.635 66.4363 162.697 66.4363H160.24V69.8827H158.802V58.6074H162.677C163.615 58.6074 164.414 58.7668 165.093 59.0855C165.773 59.4043 166.292 59.8624 166.651 60.4601C167.011 61.0577 167.191 61.735 167.191 62.5119C167.191 63.2888 167.011 63.9662 166.651 64.5638L166.671 64.5837ZM169.627 69.8827H168.129L172.643 58.6074H174.161L178.655 69.8827H177.077L175.979 67.0937H170.706L169.607 69.8827H169.627ZM216.623 206.341C191.717 206.341 172.623 193.831 171.784 171.579H197.809C198.647 180.006 206.017 184.667 216.763 184.667C228.087 184.667 236.136 179.289 236.136 167.655C236.136 156.021 228.067 150.483 216.763 150.483C208.694 150.483 203.041 152.953 199.087 158.332H173.622L177.297 92.1543H256.089V123.868H231.462V113.689H200.065L198.508 135.941C205.158 132.156 210.671 130.263 221.856 130.263C247.46 130.263 262.04 145.542 262.04 167.216C262.04 190.643 245.783 206.341 216.623 206.341ZM272.626 59.9421H266.394V63.7869H272.027V65.1016H266.394V69.9026H264.956V58.6273H272.626V59.9421ZM334.98 148.73H309.875V138.47H314.449L304.742 125.123L297.032 132.016V138.311H301.526V148.71H279.556V138.311H284.05V102.971H279.556V92.5726H301.526V102.971H297.032V118.649L314.568 102.812H309.995V92.5527H334.601V102.951H330.107L314.488 116.956L330.467 138.291H334.96V148.69L334.98 148.73ZM382.755 123.749C377.682 123.749 373.547 119.645 373.547 114.565C373.547 109.486 377.662 105.382 382.755 105.382C387.848 105.382 391.962 109.486 391.962 114.565C391.962 119.645 387.848 123.749 382.755 123.749Z" fill="white"/>
<path d="M75.4163 225.844L76.1153 217.696L74.877 217.238L69.9837 223.752L70.6828 215.624L69.4644 215.166L68.6655 225.326L69.8439 225.784L74.7771 219.31L74.138 227.417L75.3164 227.856L81.5079 219.748L80.3295 219.31L75.4163 225.844Z" fill="white"/>
<path d="M93.4518 223.952L92.2135 223.514L85.303 231.482L86.5413 231.9L88.219 229.928L92.5331 231.422L92.6329 234.012L93.9311 234.45L93.4318 223.932L93.4518 223.952ZM89.0179 229.012L92.3134 225.147L92.5131 230.207L89.0179 229.012Z" fill="white"/>
<path d="M107.333 228.514L106.135 228.155L103.239 237.478L109.411 239.391L109.75 238.295L104.777 236.741L107.333 228.514Z" fill="white"/>
<path d="M127.345 234.33L121.153 238.474L122.631 233.036L121.433 232.717L118.856 242.139L120.055 242.478L120.694 240.147L122.851 238.713L124.988 243.813L126.526 244.231L123.87 238.036L128.843 234.729L127.345 234.33Z" fill="white"/>
<path d="M147.497 249.191L148.735 249.43L149.554 245.367L154.328 246.323L154.567 245.207L149.774 244.251L150.453 240.984L155.746 242.06L155.965 240.924L149.454 239.609L147.497 249.191Z" fill="white"/>
<path d="M165.332 242.583L163.719 252.23L164.94 252.434L166.553 242.786L165.332 242.583Z" fill="white"/>
<path d="M179.454 253.016L177.137 244.41L175.779 244.23L178.575 254.43L179.913 254.589L185.106 245.386L183.808 245.227L179.454 253.016Z" fill="white"/>
<path d="M193.614 256.004L200.445 256.483L200.525 255.367L194.932 254.969L195.172 251.682L200.245 252.04L200.325 250.905L195.252 250.546L195.471 247.478L200.964 247.857L201.044 246.741L194.313 246.243L193.614 256.004Z" fill="white"/>
<path d="M229.905 247.02L228.347 247.059L223.633 252.836L223.473 247.199L222.215 247.239L222.495 257L223.753 256.98L223.673 254.57L225.331 252.577L228.866 256.821L230.444 256.781L226.11 251.621L229.905 247.02Z" fill="white"/>
<path d="M239.623 246.381L238.388 246.476L239.139 256.228L240.374 256.134L239.623 246.381Z" fill="white"/>
<path d="M250.996 253.953L249.958 245.387L248.719 245.546L249.898 255.248L256.309 254.471L256.169 253.315L250.996 253.953Z" fill="white"/>
<path d="M271.787 247.099C271.627 246.142 271.268 245.326 270.708 244.608C270.149 243.911 269.45 243.413 268.631 243.094C267.812 242.796 266.934 242.716 265.995 242.875C265.056 243.035 264.257 243.393 263.578 243.951C262.899 244.509 262.42 245.206 262.12 246.043C261.821 246.879 261.761 247.776 261.92 248.732C262.08 249.688 262.44 250.505 262.999 251.202C263.558 251.9 264.257 252.398 265.076 252.716C265.895 253.015 266.774 253.095 267.712 252.935C268.651 252.776 269.45 252.417 270.129 251.86C270.808 251.302 271.308 250.605 271.587 249.768C271.887 248.931 271.947 248.035 271.787 247.079V247.099ZM270.409 249.39C270.189 250.027 269.83 250.565 269.31 251.003C268.791 251.441 268.192 251.7 267.493 251.82C266.794 251.939 266.135 251.88 265.496 251.641C264.876 251.402 264.337 251.023 263.938 250.485C263.518 249.947 263.239 249.31 263.119 248.553C262.999 247.816 263.039 247.119 263.259 246.461C263.478 245.824 263.838 245.286 264.357 244.848C264.856 244.429 265.476 244.15 266.175 244.031C266.894 243.911 267.553 243.971 268.172 244.21C268.791 244.449 269.31 244.828 269.73 245.365C270.149 245.903 270.429 246.541 270.549 247.298C270.668 248.035 270.628 248.732 270.409 249.39Z" fill="white"/>
<path d="M286.168 239.171L284.011 246.422L278.998 240.725L277.939 240.944L280.016 250.506L281.235 250.227L279.697 243.195L283.871 247.976L284.77 247.777L286.567 241.701L288.105 248.753L289.324 248.474L287.246 238.932L286.168 239.171Z" fill="white"/>
<path d="M297.911 245.207L297.092 242.02L302.005 240.745L301.726 239.649L296.793 240.924L296.034 237.936L301.346 236.561L301.067 235.466L294.536 237.159L296.992 246.622L303.643 244.888L303.364 243.793L297.911 245.207Z" fill="white"/>
<path d="M315.307 231.362L307.557 233.653L307.897 234.769L311.172 233.793L313.629 242.06L314.827 241.701L312.371 233.434L315.626 232.458L315.307 231.362Z" fill="white"/>
<path d="M325.932 237.04L324.894 233.912L329.727 232.319L329.368 231.243L324.534 232.836L323.555 229.928L328.788 228.195L328.429 227.119L322.018 229.251L325.113 238.514L331.624 236.362L331.265 235.287L325.932 237.04Z" fill="white"/>
<path d="M342.49 228.533C343.029 228.095 343.369 227.577 343.529 226.979C343.688 226.401 343.648 225.784 343.409 225.126C343.189 224.529 342.849 224.051 342.41 223.712C341.971 223.373 341.431 223.174 340.792 223.134C340.173 223.095 339.474 223.194 338.735 223.473L335.4 224.688L338.755 233.872L339.933 233.453L338.755 230.206L340.932 229.41C341.052 229.37 341.212 229.31 341.431 229.21L344.647 231.74L346.025 231.242L342.49 228.553V228.533ZM342.09 227.198C341.771 227.676 341.212 228.075 340.433 228.354L338.356 229.111L336.978 225.326L339.055 224.569C339.834 224.29 340.513 224.23 341.072 224.389C341.631 224.549 342.011 224.947 342.25 225.545C342.47 226.162 342.43 226.7 342.11 227.198H342.09Z" fill="white"/>
<path d="M357.129 222.158C356.47 221.919 355.571 221.879 354.413 222.078C353.694 222.198 353.115 222.258 352.655 222.258C352.216 222.258 351.856 222.198 351.597 222.058C351.337 221.919 351.137 221.7 351.018 221.381C350.858 220.963 350.918 220.544 351.197 220.146C351.477 219.728 351.956 219.389 352.635 219.13C353.314 218.871 353.914 218.811 354.453 218.971C354.992 219.13 355.392 219.429 355.671 219.907L356.87 219.429C356.63 218.931 356.27 218.512 355.791 218.234C355.312 217.935 354.772 217.775 354.173 217.755C353.574 217.735 352.935 217.835 352.296 218.094C351.637 218.353 351.098 218.692 350.658 219.09C350.219 219.489 349.939 219.927 349.779 220.405C349.64 220.883 349.66 221.381 349.859 221.859C350.159 222.596 350.618 223.074 351.277 223.293C351.936 223.513 352.815 223.532 353.934 223.353C354.673 223.234 355.252 223.174 355.711 223.174C356.151 223.174 356.51 223.254 356.79 223.393C357.069 223.532 357.269 223.772 357.389 224.11C357.509 224.409 357.509 224.708 357.409 225.027C357.309 225.345 357.109 225.624 356.83 225.883C356.55 226.142 356.171 226.361 355.731 226.541C355.012 226.819 354.333 226.899 353.734 226.72C353.135 226.56 352.695 226.202 352.416 225.664L351.217 226.142C351.477 226.7 351.876 227.158 352.376 227.457C352.875 227.776 353.434 227.935 354.073 227.955C354.713 227.975 355.372 227.855 356.051 227.596C356.71 227.337 357.249 226.999 357.708 226.56C358.168 226.122 358.467 225.664 358.607 225.146C358.767 224.628 358.727 224.11 358.527 223.572C358.248 222.875 357.788 222.417 357.129 222.178V222.158Z" fill="white"/>
</svg>
