<svg width="237" height="54" viewBox="0 0 237 54" fill="none" xmlns="http://www.w3.org/2000/svg">
<path d="M14.2601 51.94C33.7001 58.89 61.5101 42.53 54.9201 19.63C53.0901 13.29 48.2501 7.98001 42.2701 5.26001C35.1701 2.03001 31.2801 5.17001 26.8001 10.88C24.3201 14.05 21.9601 17.5 18.4801 19.52C14.1401 22.04 8.5501 22 4.5501 25.03C-0.109896 28.56 -1.1499 35.59 1.2401 40.93C3.6201 46.26 8.7601 49.97 14.2601 51.94Z" fill="#6FBA3E"/>
<path d="M8.43018 29.53C8.43018 30.7 9.47018 31.72 11.0202 32.28V26.79C9.47018 27.35 8.43018 28.37 8.43018 29.54V29.53Z" fill="#1D6536"/>
<path d="M13.7001 26.34C13.0401 26.34 12.4101 26.42 11.8301 26.55V32.51C12.4101 32.64 13.0401 32.72 13.7001 32.72C16.6101 32.72 18.9601 31.29 18.9601 29.53C18.9601 27.77 16.6001 26.34 13.7001 26.34Z" fill="#1D6536"/>
<path d="M11.02 1.29001V32.28C11.27 32.37 11.54 32.45 11.82 32.51V1.29001H11.02Z" fill="#333333"/>
<path d="M21.76 4.09L11.02 0V8.18L21.76 4.09Z" fill="#E72410"/>
<path d="M110.21 49.22V40.15H111.31V49.22H110.21Z" fill="#1D6536"/>
<path d="M114.08 48.95C113.62 48.66 113.26 48.27 113 47.76C112.74 47.26 112.61 46.7 112.61 46.08C112.61 45.46 112.74 44.91 113 44.4C113.26 43.9 113.62 43.5 114.08 43.21C114.54 42.92 115.05 42.78 115.62 42.78C116.14 42.78 116.59 42.89 116.96 43.1C117.34 43.31 117.61 43.57 117.78 43.87V42.94H118.88V49.22H117.78V48.29C117.61 48.59 117.34 48.85 116.96 49.06C116.58 49.27 116.14 49.38 115.62 49.38C115.05 49.38 114.54 49.24 114.08 48.95ZM116.79 48.08C117.11 47.88 117.35 47.6 117.53 47.26C117.71 46.91 117.8 46.52 117.8 46.09C117.8 45.66 117.71 45.27 117.53 44.92C117.35 44.57 117.11 44.3 116.79 44.1C116.47 43.9 116.11 43.8 115.71 43.8C115.31 43.8 114.96 43.9 114.65 44.1C114.34 44.3 114.1 44.57 113.93 44.92C113.76 45.27 113.67 45.66 113.67 46.09C113.67 46.52 113.75 46.91 113.93 47.26C114.1 47.61 114.34 47.89 114.65 48.08C114.96 48.27 115.31 48.38 115.71 48.38C116.11 48.38 116.48 48.28 116.79 48.08Z" fill="#1D6536"/>
<path d="M125.291 49.06C124.911 48.85 124.641 48.59 124.471 48.29V51.89H123.371V42.94H124.471V43.87C124.641 43.57 124.911 43.31 125.291 43.1C125.671 42.89 126.111 42.78 126.631 42.78C127.201 42.78 127.711 42.92 128.171 43.21C128.631 43.5 128.991 43.89 129.251 44.4C129.511 44.91 129.641 45.46 129.641 46.08C129.641 46.7 129.511 47.25 129.251 47.76C128.991 48.27 128.631 48.66 128.171 48.95C127.711 49.24 127.201 49.38 126.631 49.38C126.111 49.38 125.671 49.27 125.291 49.06ZM127.601 48.08C127.911 47.88 128.151 47.61 128.321 47.26C128.491 46.91 128.571 46.52 128.571 46.09C128.571 45.66 128.491 45.27 128.321 44.92C128.151 44.57 127.911 44.29 127.601 44.1C127.291 43.91 126.941 43.8 126.541 43.8C126.141 43.8 125.781 43.9 125.461 44.1C125.141 44.3 124.901 44.58 124.721 44.92C124.541 45.27 124.451 45.66 124.451 46.09C124.451 46.52 124.541 46.91 124.721 47.26C124.901 47.61 125.141 47.88 125.461 48.08C125.781 48.28 126.141 48.38 126.541 48.38C126.941 48.38 127.291 48.28 127.601 48.08Z" fill="#1D6536"/>
<path d="M132.1 48.95C131.64 48.66 131.28 48.27 131.02 47.76C130.76 47.25 130.63 46.7 130.63 46.08C130.63 45.46 130.76 44.91 131.02 44.4C131.28 43.89 131.64 43.5 132.1 43.21C132.56 42.92 133.07 42.78 133.64 42.78C134.16 42.78 134.61 42.89 134.98 43.1C135.36 43.31 135.63 43.57 135.8 43.87V42.94H136.9V49.22H135.8V48.29C135.63 48.59 135.36 48.85 134.98 49.06C134.6 49.27 134.16 49.38 133.64 49.38C133.07 49.38 132.56 49.24 132.1 48.95ZM134.81 48.08C135.13 47.88 135.37 47.6 135.55 47.26C135.73 46.91 135.82 46.52 135.82 46.09C135.82 45.66 135.73 45.27 135.55 44.92C135.37 44.57 135.13 44.3 134.81 44.1C134.49 43.9 134.13 43.8 133.73 43.8C133.33 43.8 132.98 43.9 132.67 44.1C132.36 44.3 132.12 44.57 131.95 44.92C131.78 45.27 131.69 45.66 131.69 46.09C131.69 46.52 131.77 46.91 131.95 47.26C132.12 47.61 132.36 47.89 132.67 48.08C132.98 48.27 133.33 48.38 133.73 48.38C134.13 48.38 134.5 48.28 134.81 48.08Z" fill="#1D6536"/>
<path d="M142.24 43.02C142.64 43.18 142.95 43.39 143.19 43.67C143.43 43.94 143.55 44.26 143.57 44.61H142.49C142.47 44.35 142.31 44.13 142 43.96C141.69 43.79 141.32 43.71 140.87 43.71C140.42 43.71 140.07 43.79 139.78 43.95C139.49 44.11 139.35 44.31 139.35 44.54C139.35 44.81 139.48 45.03 139.75 45.19C140.02 45.35 140.51 45.48 141.22 45.59C142.11 45.71 142.74 45.93 143.13 46.23C143.51 46.53 143.7 46.93 143.7 47.44C143.7 47.83 143.58 48.18 143.33 48.47C143.08 48.76 142.75 48.99 142.33 49.15C141.91 49.31 141.45 49.39 140.94 49.39C140.43 49.39 139.94 49.31 139.53 49.14C139.12 48.98 138.81 48.75 138.58 48.46C138.35 48.17 138.22 47.84 138.19 47.48H139.27C139.31 47.75 139.47 47.98 139.77 48.18C140.06 48.37 140.47 48.47 140.98 48.47C141.46 48.47 141.85 48.38 142.16 48.2C142.47 48.02 142.63 47.79 142.63 47.51C142.63 47.25 142.49 47.04 142.2 46.88C141.91 46.72 141.41 46.6 140.7 46.5C139.86 46.38 139.25 46.18 138.86 45.88C138.47 45.58 138.27 45.17 138.27 44.62C138.27 44.26 138.39 43.94 138.62 43.67C138.85 43.39 139.16 43.18 139.56 43.03C139.96 42.88 140.4 42.81 140.9 42.81C141.4 42.81 141.83 42.89 142.23 43.05L142.24 43.02Z" fill="#1D6536"/>
<path d="M148.711 43.02C149.111 43.18 149.421 43.39 149.661 43.67C149.901 43.94 150.021 44.26 150.041 44.61H148.961C148.941 44.35 148.781 44.13 148.471 43.96C148.161 43.79 147.791 43.71 147.341 43.71C146.891 43.71 146.541 43.79 146.251 43.95C145.961 44.11 145.821 44.31 145.821 44.54C145.821 44.81 145.951 45.03 146.221 45.19C146.491 45.35 146.981 45.48 147.691 45.59C148.581 45.71 149.211 45.93 149.601 46.23C149.981 46.53 150.171 46.93 150.171 47.44C150.171 47.83 150.051 48.18 149.801 48.47C149.551 48.76 149.221 48.99 148.801 49.15C148.381 49.31 147.921 49.39 147.411 49.39C146.901 49.39 146.411 49.31 146.001 49.14C145.591 48.98 145.281 48.75 145.051 48.46C144.821 48.17 144.691 47.84 144.661 47.48H145.741C145.781 47.75 145.941 47.98 146.241 48.18C146.531 48.37 146.941 48.47 147.451 48.47C147.931 48.47 148.321 48.38 148.631 48.2C148.941 48.02 149.101 47.79 149.101 47.51C149.101 47.25 148.961 47.04 148.671 46.88C148.381 46.72 147.881 46.6 147.171 46.5C146.331 46.38 145.721 46.18 145.331 45.88C144.941 45.58 144.741 45.17 144.741 44.62C144.741 44.26 144.861 43.94 145.091 43.67C145.321 43.39 145.631 43.18 146.031 43.03C146.431 42.88 146.871 42.81 147.371 42.81C147.871 42.81 148.301 42.89 148.701 43.05L148.711 43.02Z" fill="#1D6536"/>
<path d="M152.621 48.95C152.161 48.66 151.791 48.27 151.531 47.77C151.271 47.27 151.141 46.71 151.141 46.08C151.141 45.45 151.271 44.9 151.531 44.4C151.791 43.9 152.161 43.51 152.621 43.22C153.081 42.93 153.611 42.79 154.191 42.79C154.771 42.79 155.301 42.93 155.761 43.22C156.221 43.51 156.591 43.9 156.851 44.4C157.111 44.9 157.241 45.46 157.241 46.08C157.241 46.29 157.241 46.44 157.221 46.54H152.241C152.301 47.09 152.501 47.54 152.861 47.89C153.221 48.24 153.661 48.42 154.201 48.42C154.601 48.42 154.961 48.33 155.271 48.16C155.581 47.99 155.791 47.77 155.901 47.51H157.021C156.851 48.06 156.511 48.51 156.001 48.85C155.491 49.2 154.891 49.37 154.201 49.37C153.621 49.37 153.091 49.23 152.631 48.94L152.621 48.95ZM155.531 44.27C155.171 43.92 154.731 43.75 154.191 43.75C153.651 43.75 153.201 43.92 152.851 44.27C152.501 44.62 152.291 45.07 152.231 45.63H156.161C156.101 45.07 155.891 44.62 155.531 44.27Z" fill="#1D6536"/>
<path d="M159.53 51.41C159.04 50.99 158.73 50.46 158.62 49.81H159.74C159.81 50.18 159.99 50.48 160.29 50.71C160.58 50.94 160.99 51.06 161.51 51.06C162.07 51.06 162.52 50.88 162.87 50.52C163.21 50.16 163.39 49.67 163.39 49.07V48.2C163.22 48.5 162.95 48.76 162.57 48.97C162.19 49.18 161.75 49.29 161.23 49.29C160.66 49.29 160.15 49.15 159.69 48.87C159.23 48.59 158.87 48.2 158.61 47.71C158.35 47.22 158.22 46.67 158.22 46.06C158.22 45.45 158.35 44.9 158.61 44.4C158.87 43.9 159.23 43.51 159.69 43.23C160.15 42.95 160.66 42.8 161.23 42.8C161.75 42.8 162.2 42.91 162.57 43.12C162.95 43.33 163.22 43.59 163.39 43.89V42.96H164.49V49.1C164.49 49.67 164.36 50.18 164.11 50.63C163.86 51.08 163.51 51.43 163.06 51.68C162.61 51.93 162.1 52.06 161.52 52.06C160.7 52.06 160.04 51.85 159.54 51.43L159.53 51.41ZM162.39 48.01C162.71 47.81 162.95 47.54 163.13 47.2C163.31 46.86 163.4 46.47 163.4 46.05C163.4 45.63 163.31 45.24 163.13 44.9C162.95 44.56 162.71 44.28 162.39 44.09C162.07 43.9 161.71 43.79 161.31 43.79C160.91 43.79 160.56 43.89 160.25 44.09C159.94 44.29 159.7 44.56 159.53 44.9C159.36 45.24 159.27 45.63 159.27 46.05C159.27 46.47 159.35 46.86 159.53 47.2C159.7 47.54 159.94 47.81 160.25 48.01C160.56 48.21 160.91 48.31 161.31 48.31C161.71 48.31 162.08 48.21 162.39 48.01Z" fill="#1D6536"/>
<path d="M167.101 51.41C166.611 50.99 166.301 50.46 166.191 49.81H167.311C167.381 50.18 167.561 50.48 167.861 50.71C168.151 50.94 168.561 51.06 169.081 51.06C169.641 51.06 170.091 50.88 170.441 50.52C170.781 50.16 170.961 49.67 170.961 49.07V48.2C170.791 48.5 170.521 48.76 170.141 48.97C169.761 49.18 169.321 49.29 168.801 49.29C168.231 49.29 167.721 49.15 167.261 48.87C166.801 48.59 166.441 48.2 166.181 47.71C165.921 47.22 165.791 46.67 165.791 46.06C165.791 45.45 165.921 44.9 166.181 44.4C166.441 43.9 166.801 43.51 167.261 43.23C167.721 42.94 168.231 42.8 168.801 42.8C169.321 42.8 169.771 42.91 170.141 43.12C170.521 43.33 170.791 43.59 170.961 43.89V42.96H172.061V49.1C172.061 49.67 171.931 50.18 171.681 50.63C171.431 51.08 171.081 51.43 170.631 51.68C170.181 51.93 169.671 52.06 169.091 52.06C168.271 52.06 167.611 51.85 167.111 51.43L167.101 51.41ZM169.961 48.01C170.281 47.81 170.521 47.54 170.701 47.2C170.881 46.86 170.971 46.47 170.971 46.05C170.971 45.63 170.881 45.24 170.701 44.9C170.521 44.56 170.281 44.28 169.961 44.09C169.641 43.9 169.281 43.79 168.881 43.79C168.481 43.79 168.131 43.89 167.821 44.09C167.511 44.29 167.271 44.56 167.101 44.9C166.931 45.24 166.841 45.63 166.841 46.05C166.841 46.47 166.921 46.86 167.101 47.2C167.271 47.54 167.511 47.81 167.821 48.01C168.131 48.21 168.481 48.31 168.881 48.31C169.281 48.31 169.651 48.21 169.961 48.01Z" fill="#1D6536"/>
<path d="M174.74 40.26C174.88 40.4 174.95 40.58 174.95 40.79C174.95 41 174.88 41.18 174.74 41.32C174.6 41.46 174.43 41.53 174.21 41.53C173.99 41.53 173.83 41.46 173.69 41.32C173.55 41.18 173.48 41 173.48 40.79C173.48 40.58 173.55 40.4 173.69 40.26C173.83 40.12 174 40.05 174.21 40.05C174.42 40.05 174.6 40.12 174.74 40.26ZM173.67 49.23V42.94H174.77V49.23H173.67Z" fill="#1D6536"/>
<path d="M177.54 48.95C177.08 48.66 176.72 48.27 176.46 47.76C176.2 47.25 176.07 46.7 176.07 46.08C176.07 45.46 176.2 44.91 176.46 44.4C176.72 43.89 177.08 43.5 177.54 43.21C178 42.92 178.51 42.78 179.08 42.78C179.6 42.78 180.05 42.89 180.42 43.1C180.8 43.31 181.07 43.57 181.24 43.87V42.94H182.34V49.22H181.24V48.29C181.07 48.59 180.8 48.85 180.42 49.06C180.04 49.27 179.6 49.38 179.08 49.38C178.51 49.38 178 49.24 177.54 48.95ZM180.25 48.08C180.57 47.88 180.81 47.6 180.99 47.26C181.17 46.91 181.26 46.52 181.26 46.09C181.26 45.66 181.17 45.27 180.99 44.92C180.81 44.57 180.57 44.3 180.25 44.1C179.93 43.9 179.57 43.8 179.17 43.8C178.77 43.8 178.42 43.9 178.11 44.1C177.8 44.3 177.56 44.57 177.39 44.92C177.22 45.27 177.13 45.66 177.13 46.09C177.13 46.52 177.21 46.91 177.39 47.26C177.56 47.61 177.8 47.89 178.11 48.08C178.42 48.27 178.77 48.38 179.17 48.38C179.57 48.38 179.94 48.28 180.25 48.08Z" fill="#1D6536"/>
<path d="M187.151 43.94H185.801V49.22H184.701V43.94H183.351V42.94H184.701V41.03H185.801V42.94H187.151V43.94Z" fill="#1D6536"/>
<path d="M189.12 48.95C188.66 48.66 188.3 48.27 188.04 47.76C187.78 47.25 187.65 46.7 187.65 46.08C187.65 45.46 187.78 44.91 188.04 44.4C188.3 43.89 188.66 43.5 189.12 43.21C189.58 42.92 190.09 42.78 190.66 42.78C191.18 42.78 191.63 42.89 192 43.1C192.38 43.31 192.65 43.57 192.82 43.87V42.94H193.92V49.22H192.82V48.29C192.65 48.59 192.38 48.85 192 49.06C191.62 49.27 191.18 49.38 190.66 49.38C190.09 49.38 189.58 49.24 189.12 48.95ZM191.83 48.08C192.15 47.88 192.39 47.6 192.57 47.26C192.75 46.91 192.84 46.52 192.84 46.09C192.84 45.66 192.75 45.27 192.57 44.92C192.39 44.57 192.15 44.3 191.83 44.1C191.51 43.9 191.15 43.8 190.75 43.8C190.35 43.8 190 43.9 189.69 44.1C189.38 44.3 189.14 44.57 188.97 44.92C188.8 45.27 188.71 45.66 188.71 46.09C188.71 46.52 188.79 46.91 188.97 47.26C189.14 47.61 189.38 47.89 189.69 48.08C190 48.27 190.35 48.38 190.75 48.38C191.15 48.38 191.52 48.28 191.83 48.08Z" fill="#1D6536"/>
<path d="M68.2402 15.02H87.6002V18.27H83.8802V27.77H87.6002V31.02H68.2402V27.77H71.8802V18.27H68.2402V15.02ZM75.5202 18.27V27.77H80.1902V18.27H75.5202ZM92.7402 12.27C91.6302 11.52 90.4802 10.73 89.3802 10.02C89.8602 9.10002 90.3302 8.19002 90.7702 7.27002C92.7102 8.27002 94.6502 9.23002 96.5502 10.23V18.77H102.13V22.1H96.5502V31.1H92.7502V12.27H92.7402Z" fill="#1D6536"/>
<path d="M109.96 22.18V14.68H114V22.18C116.14 24.35 118.2 26.55 120.29 28.76C119.54 29.55 118.71 30.34 117.95 31.18L111.97 25.39L105.4 31.56C104.65 30.77 103.9 29.89 103.18 29.1L109.95 22.18H109.96ZM124.53 21.97H118.91V18.6H124.53V14.06L121.28 11.85L122.63 9.14001L128.25 11.97V31.09H124.53V21.97ZM132.01 12.26L128.61 9.97001L129.96 7.26001L135.74 10.22V31.09H132.02V12.27L132.01 12.26Z" fill="#1D6536"/>
<path d="M147.05 21.77V18.23H141.11V14.94H156.67V18.23H151.05V21.77L157.7 28.73L155.4 31.06L149.03 24.94L142.26 31.27L140.08 28.9L147.05 21.78V21.77ZM168.11 31.1H164.31V12.27C163.16 11.52 162.05 10.73 160.91 10.02C161.39 9.10002 161.9 8.19002 162.34 7.27002C164.28 8.27002 166.22 9.23002 168.12 10.23V31.1H168.11Z" fill="#1D6536"/>
<path d="M181.92 17.31C185.17 18.06 187.15 20.77 187.15 23.93C187.15 27.8 184.42 30.85 179.99 30.85C175.56 30.85 172.87 27.81 172.87 23.93C172.87 20.76 174.81 18.06 178.09 17.31V14.06H181.93V17.31H181.92ZM183.5 23.93C183.5 21.76 182.07 20.26 179.98 20.26C177.89 20.26 176.5 21.76 176.5 23.93C176.5 26.1 177.93 27.64 179.98 27.64C182.03 27.64 183.5 26.14 183.5 23.93ZM193.91 12.26C192.76 11.51 191.65 10.72 190.51 10.01C190.98 9.09001 191.5 8.18001 191.94 7.26001C193.88 8.26001 195.82 9.22001 197.72 10.22V18.8H203.3V22.13H197.72V31.09H193.92V12.27L193.91 12.26Z" fill="#1D6536"/>
<path d="M210.02 23.02H218.57V26.31H210.02V30.85H220.59V34.18H206.18V15.18H219.8V18.51H210.02V23.01V23.02ZM226.72 12.27C225.57 11.52 224.46 10.73 223.32 10.02C223.8 9.10002 224.31 8.19002 224.75 7.27002L230.57 10.23V18.81H236.07V22.14H230.57V31.1H226.73V12.27H226.72Z" fill="#1D6536"/>
<path d="M236.03 46.15H196.34V46.71H236.03V46.15Z" fill="#1D6536"/>
<path d="M107.51 46.15H68.7603V46.71H107.51V46.15Z" fill="#1D6536"/>
<path d="M236.03 44.1H196.34V44.66H236.03V44.1Z" fill="#1D6536"/>
<path d="M107.51 44.1H68.7603V44.66H107.51V44.1Z" fill="#1D6536"/>
</svg>
