<?xml version="1.0" standalone="no"?>
<!DOCTYPE svg PUBLIC "-//W3C//DTD SVG 20010904//EN"
 "http://www.w3.org/TR/2001/REC-SVG-20010904/DTD/svg10.dtd">
<svg version="1.0" xmlns="http://www.w3.org/2000/svg"
 width="569.000000pt" height="569.000000pt" viewBox="0 0 569.000000 569.000000"
 preserveAspectRatio="xMidYMid meet">
<metadata>
Created by potrace 1.14, written by Peter Selinger 2001-2017
</metadata>
<g transform="translate(0.000000,569.000000) scale(0.100000,-0.100000)"
fill="#000000" stroke="none">
<path d="M1128 5573 c-3 -4 -4 -513 -3 -1131 l2 -1122 -71 -21 c-118 -35 -286
-99 -379 -145 -316 -158 -522 -410 -617 -756 -39 -144 -45 -196 -45 -403 1
-135 5 -203 19 -270 47 -229 137 -431 280 -630 70 -97 95 -125 211 -241 286
-283 656 -494 1095 -624 57 -17 118 -33 135 -36 16 -3 48 -9 70 -14 54 -12
105 -21 135 -25 14 -2 39 -5 55 -8 162 -29 696 -30 842 -3 10 2 41 7 68 10
394 52 895 222 1250 425 39 22 77 44 85 48 55 25 377 251 426 297 6 6 36 31
65 56 195 163 417 419 558 642 68 108 191 346 191 369 0 8 4 19 9 25 25 26
124 361 137 465 3 24 7 50 9 57 26 78 26 626 0 704 -2 7 -6 31 -9 53 -5 33
-15 85 -40 195 -118 518 -475 1024 -959 1358 -51 35 -99 66 -107 70 -8 3 -33
17 -54 30 -153 95 -418 197 -571 220 -161 23 -370 -4 -496 -64 -255 -122 -418
-280 -806 -781 -209 -269 -289 -363 -406 -478 -189 -185 -369 -299 -613 -385
-76 -27 -257 -83 -304 -95 -8 -2 -30 -8 -47 -14 l-33 -10 0 720 c0 567 3 721
13 724 6 2 138 52 292 111 389 149 498 190 589 225 43 16 85 33 93 38 10 5
-48 31 -179 81 -106 40 -206 79 -223 86 -28 12 -144 57 -155 59 -3 1 -12 5
-20 8 -8 4 -58 23 -110 43 -153 58 -344 131 -361 139 -10 3 -19 3 -21 -2z"/>
</g>
</svg>
