<svg width="50" height="51" viewBox="0 0 50 51" fill="none" xmlns="http://www.w3.org/2000/svg">
<path d="M10.8122 13.9107C10.4163 13.9107 9.99967 13.744 9.70801 13.4524C9.10384 12.8482 9.10384 11.8482 9.70801 11.244L17.2705 3.68152C17.8747 3.07735 18.8747 3.07735 19.4788 3.68152C20.083 4.28569 20.083 5.28568 19.4788 5.88985L11.9163 13.4524C11.6038 13.744 11.208 13.9107 10.8122 13.9107Z" fill="#48794A"/>
<path d="M39.1872 13.9107C38.7913 13.9107 38.3955 13.7649 38.083 13.4524L30.5205 5.88985C29.9163 5.28568 29.9163 4.28569 30.5205 3.68152C31.1247 3.07735 32.1247 3.07735 32.7288 3.68152L40.2913 11.244C40.8955 11.8482 40.8955 12.8482 40.2913 13.4524C39.9997 13.744 39.583 13.9107 39.1872 13.9107Z" fill="#48794A"/>
<path d="M42.1035 22.7023C41.9577 22.7023 41.8119 22.7023 41.666 22.7023H41.1869H8.33268C6.87435 22.7231 5.20768 22.7231 3.99935 21.5148C3.04102 20.5773 2.60352 19.119 2.60352 16.9731C2.60352 11.244 6.79102 11.244 8.79102 11.244H41.2077C43.2077 11.244 47.3952 11.244 47.3952 16.9731C47.3952 19.1398 46.9577 20.5773 45.9994 21.5148C44.916 22.5981 43.4577 22.7023 42.1035 22.7023ZM8.79102 19.5773H41.6869C42.6244 19.5981 43.4994 19.5981 43.791 19.3065C43.9369 19.1606 44.2494 18.6606 44.2494 16.9731C44.2494 14.619 43.666 14.369 41.1869 14.369H8.79102C6.31185 14.369 5.72852 14.619 5.72852 16.9731C5.72852 18.6606 6.06185 19.1606 6.18685 19.3065C6.47852 19.5773 7.37435 19.5773 8.29102 19.5773H8.79102Z" fill="#48794A"/>
<path d="M20.333 38.744C19.4788 38.744 18.7705 38.0356 18.7705 37.1815V29.7856C18.7705 28.9315 19.4788 28.2231 20.333 28.2231C21.1872 28.2231 21.8955 28.9315 21.8955 29.7856V37.1815C21.8955 38.0565 21.1872 38.744 20.333 38.744Z" fill="#48794A"/>
<path d="M29.918 38.744C29.0638 38.744 28.3555 38.0356 28.3555 37.1815V29.7856C28.3555 28.9315 29.0638 28.2231 29.918 28.2231C30.7721 28.2231 31.4805 28.9315 31.4805 29.7856V37.1815C31.4805 38.0565 30.7721 38.744 29.918 38.744Z" fill="#48794A"/>
<path d="M31.0198 48.0149H18.4573C10.9989 48.0149 9.33225 43.5774 8.68642 39.7232L5.74892 21.7024C5.60309 20.8482 6.18642 20.0566 7.04059 19.9107C7.89475 19.7649 8.68642 20.3482 8.83225 21.2024L11.7698 39.2024C12.3739 42.8899 13.6239 44.8899 18.4573 44.8899H31.0198C36.3739 44.8899 36.9781 43.0149 37.6656 39.3899L41.1656 21.1607C41.3323 20.3066 42.1447 19.7441 42.9989 19.9316C43.8531 20.0982 44.3947 20.9107 44.2281 21.7649L40.7281 39.9941C39.9156 44.2232 38.5614 48.0149 31.0198 48.0149Z" fill="#48794A"/>
</svg>
