<svg width="50" height="50" viewBox="0 0 50 50" fill="none" xmlns="http://www.w3.org/2000/svg">
<path d="M24.9995 47.4167C21.9162 47.4167 18.812 46.25 16.3953 43.9375C10.2495 38.0209 3.45785 28.5834 6.02035 17.3542C8.33285 7.16669 17.2287 2.60419 24.9995 2.60419C24.9995 2.60419 24.9995 2.60419 25.0203 2.60419C32.7912 2.60419 41.687 7.16669 43.9995 17.375C46.5412 28.6042 39.7495 38.0209 33.6037 43.9375C31.187 46.25 28.0828 47.4167 24.9995 47.4167ZM24.9995 5.72919C18.937 5.72919 11.1453 8.95835 9.08285 18.0417C6.83285 27.8542 12.9995 36.3125 18.5828 41.6667C22.187 45.1459 27.8328 45.1459 31.437 41.6667C36.9995 36.3125 43.1662 27.8542 40.9578 18.0417C38.8745 8.95835 31.062 5.72919 24.9995 5.72919Z" fill="#48794A"/>
<path d="M22.3971 28.6459C22.0013 28.6459 21.6055 28.5 21.293 28.1875L18.168 25.0625C17.5638 24.4584 17.5638 23.4584 18.168 22.8542C18.7721 22.25 19.7721 22.25 20.3763 22.8542L22.3971 24.875L29.6263 17.6459C30.2305 17.0417 31.2305 17.0417 31.8346 17.6459C32.4388 18.25 32.4388 19.25 31.8346 19.8542L23.5013 28.1875C23.1888 28.5 22.793 28.6459 22.3971 28.6459Z" fill="#48794A"/>
</svg>
