<svg width="50" height="50" viewBox="0 0 50 50" fill="none" xmlns="http://www.w3.org/2000/svg">
<path d="M25 32.8125C20.6875 32.8125 17.1875 29.3125 17.1875 25C17.1875 20.6875 20.6875 17.1875 25 17.1875C29.3125 17.1875 32.8125 20.6875 32.8125 25C32.8125 29.3125 29.3125 32.8125 25 32.8125ZM25 20.3125C22.4167 20.3125 20.3125 22.4167 20.3125 25C20.3125 27.5833 22.4167 29.6875 25 29.6875C27.5833 29.6875 29.6875 27.5833 29.6875 25C29.6875 22.4167 27.5833 20.3125 25 20.3125Z" fill="#48794A"/>
<path d="M31.6878 46.2291C31.2503 46.2291 30.8128 46.1666 30.3753 46.0624C29.0837 45.7083 28.0003 44.8958 27.3128 43.7499L27.0628 43.3333C25.8337 41.2083 24.1462 41.2083 22.917 43.3333L22.6878 43.7291C22.0003 44.8958 20.917 45.7291 19.6253 46.0624C18.3128 46.4166 16.9587 46.2291 15.8128 45.5416L12.2295 43.4791C10.9587 42.7499 10.042 41.5624 9.64616 40.1249C9.27116 38.6874 9.45866 37.2083 10.1878 35.9374C10.792 34.8749 10.9587 33.9166 10.6045 33.3124C10.2503 32.7083 9.35449 32.3541 8.12533 32.3541C5.08366 32.3541 2.60449 29.8749 2.60449 26.8333V23.1666C2.60449 20.1249 5.08366 17.6458 8.12533 17.6458C9.35449 17.6458 10.2503 17.2916 10.6045 16.6874C10.9587 16.0833 10.8128 15.1249 10.1878 14.0624C9.45866 12.7916 9.27116 11.2916 9.64616 9.87495C10.0212 8.43745 10.9378 7.24995 12.2295 6.52078L15.8337 4.45828C18.1878 3.06245 21.292 3.87495 22.7087 6.27078L22.9587 6.68745C24.1878 8.81245 25.8753 8.81245 27.1045 6.68745L27.3337 6.29161C28.7503 3.87495 31.8545 3.06245 34.2295 4.47911L37.8128 6.54161C39.0837 7.27078 40.0003 8.45828 40.3962 9.89578C40.7712 11.3333 40.5837 12.8124 39.8545 14.0833C39.2503 15.1458 39.0837 16.1041 39.4378 16.7083C39.792 17.3124 40.6878 17.6666 41.917 17.6666C44.9587 17.6666 47.4378 20.1458 47.4378 23.1874V26.8541C47.4378 29.8958 44.9587 32.3749 41.917 32.3749C40.6878 32.3749 39.792 32.7291 39.4378 33.3333C39.0837 33.9374 39.2295 34.8958 39.8545 35.9583C40.5837 37.2291 40.792 38.7291 40.3962 40.1458C40.0212 41.5833 39.1045 42.7708 37.8128 43.4999L34.2087 45.5624C33.417 45.9999 32.5628 46.2291 31.6878 46.2291ZM25.0003 38.5208C26.8545 38.5208 28.5837 39.6874 29.7712 41.7499L30.0003 42.1458C30.2503 42.5833 30.667 42.8958 31.167 43.0208C31.667 43.1458 32.167 43.0833 32.5837 42.8333L36.1878 40.7499C36.7295 40.4374 37.1462 39.9166 37.3128 39.2916C37.4795 38.6666 37.3962 38.0208 37.0837 37.4791C35.8962 35.4374 35.7503 33.3333 36.667 31.7291C37.5837 30.1249 39.4795 29.2083 41.8545 29.2083C43.1878 29.2083 44.2503 28.1458 44.2503 26.8124V23.1458C44.2503 21.8333 43.1878 20.7499 41.8545 20.7499C39.4795 20.7499 37.5837 19.8333 36.667 18.2291C35.7503 16.6249 35.8962 14.5208 37.0837 12.4791C37.3962 11.9374 37.4795 11.2916 37.3128 10.6666C37.1462 10.0416 36.7503 9.54161 36.2087 9.20828L32.6045 7.14578C31.7087 6.60411 30.5212 6.91661 29.9795 7.83328L29.7503 8.22911C28.5628 10.2916 26.8337 11.4583 24.9795 11.4583C23.1253 11.4583 21.3962 10.2916 20.2087 8.22911L19.9795 7.81245C19.4587 6.93745 18.292 6.62495 17.3962 7.14578L13.792 9.22911C13.2503 9.54161 12.8337 10.0624 12.667 10.6874C12.5003 11.3124 12.5837 11.9583 12.8962 12.4999C14.0837 14.5416 14.2295 16.6458 13.3128 18.2499C12.3962 19.8541 10.5003 20.7708 8.12533 20.7708C6.79199 20.7708 5.72949 21.8333 5.72949 23.1666V26.8333C5.72949 28.1458 6.79199 29.2291 8.12533 29.2291C10.5003 29.2291 12.3962 30.1458 13.3128 31.7499C14.2295 33.3541 14.0837 35.4583 12.8962 37.4999C12.5837 38.0416 12.5003 38.6874 12.667 39.3124C12.8337 39.9374 13.2295 40.4374 13.7712 40.7708L17.3753 42.8333C17.8128 43.1041 18.3337 43.1666 18.8128 43.0416C19.3128 42.9166 19.7295 42.5833 20.0003 42.1458L20.2295 41.7499C21.417 39.7083 23.1462 38.5208 25.0003 38.5208Z" fill="#48794A"/>
</svg>
