<svg width="50" height="50" viewBox="0 0 50 50" fill="none" xmlns="http://www.w3.org/2000/svg">
<path d="M30.6677 47.3958H19.4387C18.1053 47.3958 16.9386 47.3125 15.8761 47.1667C15.022 47.0417 14.4178 46.2501 14.5428 45.3959C14.6678 44.5417 15.4387 43.9167 16.3137 44.0625C17.2303 44.1875 18.2511 44.25 19.4178 44.25H30.647C39.1678 44.25 42.1886 41.229 42.1886 32.7082V23.3541C42.1886 22.4999 42.897 21.7916 43.7511 21.7916C44.6053 21.7916 45.3136 22.4999 45.3136 23.3541V32.7082C45.3345 42.9999 40.9386 47.3958 30.6677 47.3958Z" fill="#48794A"/>
<path d="M6.33301 33.8959C5.47884 33.8959 4.77051 33.1875 4.77051 32.3334V23.3749C4.77051 22.5208 5.47884 21.8124 6.33301 21.8124C7.18717 21.8124 7.89551 22.5208 7.89551 23.3749V32.3334C7.89551 33.1875 7.18717 33.8959 6.33301 33.8959Z" fill="#48794A"/>
<path d="M25.0635 26.5625C22.7718 26.5625 20.6884 25.6667 19.2092 24.0209C17.7301 22.375 17.0426 20.2291 17.2717 17.9374L18.6677 4.0209C18.751 3.22924 19.4177 2.60413 20.2302 2.60413H29.9593C30.7718 2.60413 31.4385 3.2084 31.5218 4.0209L32.9176 17.9374C33.1468 20.2291 32.4593 22.375 30.9801 24.0209C29.4384 25.6667 27.3552 26.5625 25.0635 26.5625ZM21.6051 5.72913L20.3552 18.25C20.2093 19.6458 20.626 20.9583 21.501 21.9167C23.2718 23.875 26.8134 23.875 28.5842 21.9167C29.4592 20.9375 29.876 19.625 29.7302 18.25L28.4801 5.72913H21.6051Z" fill="#48794A"/>
<path d="M38.186 26.5625C33.9569 26.5625 30.1861 23.1457 29.7486 18.9374L28.2902 4.3332C28.2485 3.8957 28.3944 3.45829 28.686 3.12496C28.9777 2.79163 29.3944 2.60413 29.8527 2.60413H36.2068C42.3318 2.60413 45.186 5.16663 46.0401 11.4583L46.6235 17.25C46.8735 19.7084 46.1235 22.0417 44.5193 23.8126C42.9152 25.5834 40.6652 26.5625 38.186 26.5625ZM31.5818 5.72913L32.8736 18.6248C33.1444 21.229 35.5819 23.4375 38.186 23.4375C39.7694 23.4375 41.186 22.8334 42.2069 21.7292C43.2069 20.6251 43.6652 19.1459 43.5194 17.5626L42.936 11.8334C42.2901 7.12507 40.7693 5.72913 36.2068 5.72913H31.5818Z" fill="#48794A"/>
<path d="M11.8128 26.5625C9.3336 26.5625 7.08364 25.5834 5.47948 23.8126C3.87531 22.0417 3.12529 19.7084 3.37529 17.25L3.95868 11.5209C4.83368 5.16669 7.68781 2.60413 13.8128 2.60413H20.167C20.6045 2.60413 21.0211 2.79163 21.3336 3.12496C21.6253 3.45829 21.7711 3.8957 21.7295 4.3332L20.2711 18.9374C19.8128 23.1457 16.0211 26.5625 11.8128 26.5625ZM13.792 5.72913C9.22946 5.72913 7.70864 7.10402 7.04198 11.8749L6.47943 17.5417C6.31277 19.1251 6.79194 20.6042 7.79194 21.7084C8.79194 22.8126 10.2294 23.4166 11.8128 23.4166C14.4378 23.4166 16.8752 21.2084 17.1252 18.6042L18.417 5.70827H13.792V5.72913Z" fill="#48794A"/>
<path d="M10.4163 49.4791C7.49967 49.4791 4.77054 48.2082 2.89554 45.979C2.8747 45.9582 2.79134 45.8749 2.72884 45.7707C2.41634 45.3957 2.14549 45.0209 1.93716 44.6251C1.02049 43.1459 0.520508 41.3958 0.520508 39.5624C0.520508 36.5208 1.87474 33.7084 4.2289 31.8334C4.64557 31.5 5.10385 31.1874 5.60385 30.9166C7.04135 30.1041 8.72884 29.6458 10.4163 29.6458C12.833 29.6458 15.0622 30.4791 16.8539 32.0416C17.0831 32.2083 17.3955 32.5208 17.6663 32.8125C19.3538 34.6666 20.2913 37.0416 20.2913 39.5207C20.2913 41.3332 19.7913 43.1042 18.8538 44.6251C18.3955 45.4167 17.833 46.1042 17.208 46.6458C17.083 46.7708 16.958 46.8959 16.8122 47.0001C15.1664 48.6042 12.8538 49.4791 10.4163 49.4791ZM5.1663 43.8334C5.2288 43.8959 5.33296 43.9998 5.41629 44.1457C6.56212 45.4998 8.43717 46.375 10.4163 46.375C12.0622 46.375 13.6455 45.7707 14.8539 44.6874C14.9164 44.604 14.9997 44.5207 15.1038 44.4582C15.5205 44.1041 15.8747 43.6457 16.2081 43.104C16.8539 42.0415 17.208 40.8541 17.208 39.6041C17.208 37.9166 16.5622 36.2709 15.3955 35.0001C15.2497 34.8334 15.1038 34.6665 14.9163 34.5415C12.6663 32.604 9.58297 32.3126 7.12464 33.7084C6.79131 33.8959 6.49965 34.0832 6.22882 34.3124C4.60382 35.6041 3.66636 37.5208 3.66636 39.6041C3.66636 40.8333 3.99963 42.0417 4.64547 43.0834C4.81213 43.3751 4.9788 43.6042 5.1663 43.8125C5.14547 43.8125 5.1663 43.8125 5.1663 43.8334Z" fill="#48794A"/>
<path d="M13.5416 41.1041H7.3125C6.45833 41.1041 5.75 40.3958 5.75 39.5416C5.75 38.6875 6.45833 37.9791 7.3125 37.9791H13.5416C14.3958 37.9791 15.1041 38.6875 15.1041 39.5416C15.1041 40.3958 14.3958 41.1041 13.5416 41.1041Z" fill="#48794A"/>
<path d="M10.417 44.2916C9.56283 44.2916 8.85449 43.5833 8.85449 42.7291V36.5C8.85449 35.6458 9.56283 34.9375 10.417 34.9375C11.2712 34.9375 11.9795 35.6458 11.9795 36.5V42.7291C11.9795 43.6041 11.2712 44.2916 10.417 44.2916Z" fill="#48794A"/>
</svg>
