<svg width="50" height="50" viewBox="0 0 50 50" fill="none" xmlns="http://www.w3.org/2000/svg">
<path d="M35.417 45.3125H14.5837C5.39616 45.3125 2.60449 42.5208 2.60449 33.3333V16.6667C2.60449 7.47917 5.39616 4.6875 14.5837 4.6875H35.417C44.6045 4.6875 47.3962 7.47917 47.3962 16.6667V33.3333C47.3962 42.5208 44.6045 45.3125 35.417 45.3125ZM14.5837 7.8125C7.12533 7.8125 5.72949 9.22917 5.72949 16.6667V33.3333C5.72949 40.7708 7.12533 42.1875 14.5837 42.1875H35.417C42.8753 42.1875 44.2712 40.7708 44.2712 33.3333V16.6667C44.2712 9.22917 42.8753 7.8125 35.417 7.8125H14.5837Z" fill="#48794A"/>
<path d="M39.5837 18.2292H29.167C28.3128 18.2292 27.6045 17.5209 27.6045 16.6667C27.6045 15.8125 28.3128 15.1042 29.167 15.1042H39.5837C40.4378 15.1042 41.1462 15.8125 41.1462 16.6667C41.1462 17.5209 40.4378 18.2292 39.5837 18.2292Z" fill="#48794A"/>
<path d="M39.5833 26.5625H31.25C30.3958 26.5625 29.6875 25.8542 29.6875 25C29.6875 24.1458 30.3958 23.4375 31.25 23.4375H39.5833C40.4375 23.4375 41.1458 24.1458 41.1458 25C41.1458 25.8542 40.4375 26.5625 39.5833 26.5625Z" fill="#48794A"/>
<path d="M39.5837 34.8958H35.417C34.5628 34.8958 33.8545 34.1875 33.8545 33.3333C33.8545 32.4791 34.5628 31.7708 35.417 31.7708H39.5837C40.4378 31.7708 41.1462 32.4791 41.1462 33.3333C41.1462 34.1875 40.4378 34.8958 39.5837 34.8958Z" fill="#48794A"/>
<path d="M17.7093 25.0833C14.7718 25.0833 12.376 22.6875 12.376 19.75C12.376 16.8125 14.7718 14.4166 17.7093 14.4166C20.6468 14.4166 23.0426 16.8125 23.0426 19.75C23.0426 22.6875 20.6468 25.0833 17.7093 25.0833ZM17.7093 17.5416C16.501 17.5416 15.501 18.5416 15.501 19.75C15.501 20.9583 16.501 21.9583 17.7093 21.9583C18.9176 21.9583 19.9176 20.9583 19.9176 19.75C19.9176 18.5416 18.9176 17.5416 17.7093 17.5416Z" fill="#48794A"/>
<path d="M25.0003 35.5834C24.2086 35.5834 23.5211 34.9792 23.4378 34.1667C23.2086 31.9167 21.3961 30.1042 19.1253 29.8959C18.167 29.8125 17.2086 29.8125 16.2503 29.8959C13.9795 30.1042 12.167 31.8959 11.9378 34.1667C11.8545 35.0209 11.0836 35.6667 10.2295 35.5625C9.37529 35.4792 8.75029 34.7084 8.83363 33.8542C9.20863 30.1042 12.1878 27.125 15.9586 26.7917C17.1045 26.6875 18.2711 26.6875 19.417 26.7917C23.167 27.1459 26.167 30.125 26.542 33.8542C26.6253 34.7084 26.0003 35.4792 25.1461 35.5625C25.1045 35.5834 25.042 35.5834 25.0003 35.5834Z" fill="#48794A"/>
</svg>
