<svg width="50" height="50" viewBox="0 0 50 50" fill="none" xmlns="http://www.w3.org/2000/svg">
<path d="M37.7083 36.9792H12.2917C7.45832 36.9792 4.6875 34.2084 4.6875 29.375V4.16669C4.6875 3.31252 5.39583 2.60419 6.25 2.60419H43.75C44.6042 2.60419 45.3125 3.31252 45.3125 4.16669V29.375C45.3125 34.2084 42.5417 36.9792 37.7083 36.9792ZM7.8125 5.72919V29.375C7.8125 32.4792 9.18749 33.8542 12.2917 33.8542H37.6875C40.7917 33.8542 42.1666 32.4792 42.1666 29.375V5.72919H7.8125Z" fill="#48794A"/>
<path d="M45.8337 5.72919H4.16699C3.31283 5.72919 2.60449 5.02085 2.60449 4.16669C2.60449 3.31252 3.31283 2.60419 4.16699 2.60419H45.8337C46.6878 2.60419 47.3962 3.31252 47.3962 4.16669C47.3962 5.02085 46.6878 5.72919 45.8337 5.72919Z" fill="#48794A"/>
<path d="M16.6667 47.3959C16.0834 47.3959 15.5417 47.0833 15.2709 46.5417C14.875 45.7708 15.1876 44.8333 15.9793 44.4375L23.4376 40.7084V35.4167C23.4376 34.5625 24.1459 33.8542 25.0001 33.8542C25.8542 33.8542 26.5626 34.5625 26.5626 35.4167V41.6667C26.5626 42.25 26.2292 42.7917 25.6875 43.0625L17.3542 47.2292C17.1459 47.3334 16.8959 47.3959 16.6667 47.3959Z" fill="#48794A"/>
<path d="M33.3329 47.3958C33.1037 47.3958 32.8538 47.3333 32.6454 47.2291L24.3121 43.0625C23.5413 42.6666 23.2287 41.7291 23.6037 40.9583C23.9995 40.1875 24.9371 39.875 25.7079 40.25L34.0412 44.4166C34.8121 44.8125 35.1246 45.7499 34.7496 46.5208C34.4579 47.0833 33.8954 47.3958 33.3329 47.3958Z" fill="#48794A"/>
<path d="M15.6253 24.4792C15.1878 24.4792 14.7294 24.2917 14.4169 23.9167C13.8544 23.25 13.9586 22.2709 14.6252 21.7084L21.1878 16.2292C21.7919 15.7292 22.5627 15.5208 23.2919 15.6458C24.0419 15.7708 24.6878 16.2291 25.0836 16.8958L27.2711 20.5416L33.3752 15.4584C34.0419 14.9167 35.0211 15 35.5836 15.6666C36.1461 16.3333 36.0419 17.3125 35.3753 17.875L28.8127 23.3541C28.2086 23.8541 27.4378 24.0625 26.7086 23.9375C25.9586 23.8125 25.3127 23.3542 24.9169 22.6875L22.7294 19.0417L16.6253 24.125C16.3336 24.3541 15.9794 24.4792 15.6253 24.4792Z" fill="#48794A"/>
</svg>
