<svg width="275" height="200" viewBox="0 0 275 200" fill="none" xmlns="http://www.w3.org/2000/svg">
<rect x="5.04248" y="5.98828" width="240" height="153" fill="white" stroke="#444444" stroke-width="10"/>
<rect x="241.292" y="49.4875" width="8.75" height="53.0002" fill="white"/>
<rect x="-0.5" y="-0.5" width="52.0002" height="2" transform="matrix(0 -1 -1 0 244.292 101.488)" stroke="#444444"/>
<rect x="246.542" y="102.238" width="52.5002" height="0.5" transform="rotate(-90 246.542 102.238)" stroke="#444444" stroke-width="0.5" stroke-dasharray="0.3 0.5"/>
<rect x="248.542" y="102.238" width="52.5002" height="0.5" transform="rotate(-90 248.542 102.238)" stroke="#444444" stroke-width="0.5" stroke-dasharray="5 4"/>
<mask id="path-6-outside-1_74_215" maskUnits="userSpaceOnUse" x="187.894" y="154.012" width="45" height="45" fill="black">
<rect fill="white" x="187.894" y="154.012" width="45" height="45"/>
<path d="M231.531 198.012C225.932 198.012 220.387 196.909 215.214 194.766C210.041 192.623 205.341 189.483 201.382 185.524C197.423 181.565 194.282 176.864 192.14 171.691C189.997 166.518 188.894 160.974 188.894 155.375L231.531 155.375L231.531 198.012Z"/>
</mask>
<path d="M231.531 198.012C225.932 198.012 220.387 196.909 215.214 194.766C210.041 192.623 205.341 189.483 201.382 185.524C197.423 181.565 194.282 176.864 192.14 171.691C189.997 166.518 188.894 160.974 188.894 155.375L231.531 155.375L231.531 198.012Z" fill="white"/>
<path d="M231.531 198.012C225.932 198.012 220.387 196.909 215.214 194.766C210.041 192.623 205.341 189.483 201.382 185.524C197.423 181.565 194.282 176.864 192.14 171.691C189.997 166.518 188.894 160.974 188.894 155.375L231.531 155.375L231.531 198.012Z" stroke="#444444" stroke-width="2" mask="url(#path-6-outside-1_74_215)"/>
<rect x="11.0425" y="12.4883" width="229.25" height="141.5" stroke="#D9D9D9" stroke-width="2"/>
</svg>
