<svg width="53" height="24" viewBox="0 0 53 24" fill="none" xmlns="http://www.w3.org/2000/svg">
<path d="M49.0387 23.3766C46.9344 23.7922 44.7782 24 42.596 24C42.0245 24 41.427 24 40.8295 23.974C40.206 23.974 39.6085 23.8961 38.985 23.7922C38.3615 23.6883 37.764 23.5584 37.1925 23.3766C36.621 23.1948 36.0754 22.9351 35.5818 22.6234C35.0623 22.2857 34.6206 21.8182 34.2309 21.2468C33.8413 20.6753 33.6334 20.0779 33.6075 19.4805C33.5555 18.8312 33.7633 18.2597 34.179 17.7922C34.6206 17.3247 35.1402 17.0909 35.7896 17.0909C36.0754 17.0909 36.3872 17.1429 36.6729 17.2468C36.9587 17.3507 37.2185 17.5065 37.4003 17.7403C37.4523 17.7922 37.5042 17.8442 37.5302 17.9221C37.5822 18 37.6081 18.026 37.6601 18.052C37.9718 18.1559 38.3355 18.2597 38.7252 18.3117C39.1149 18.3636 39.5046 18.4156 39.9202 18.4416C40.3359 18.4675 40.7256 18.4935 41.1152 18.5195C41.5049 18.5195 41.8686 18.5195 42.2063 18.5195C42.6739 18.5195 43.1156 18.5195 43.5312 18.5195C43.9729 18.5195 44.3885 18.4935 44.8302 18.4675C43.6611 17.5065 42.5181 16.5455 41.401 15.5584C40.2839 14.5714 39.2188 13.5065 38.2056 12.3636C37.738 11.8701 37.3484 11.3247 36.9847 10.7792C36.621 10.2338 36.3612 9.61039 36.2053 8.96104C36.0494 8.33767 35.9975 7.68832 36.0235 7.01299C36.0754 6.33767 36.2573 5.71429 36.569 5.14286C36.9067 4.49351 37.3743 3.87013 37.9718 3.27272C38.5693 2.67532 39.2188 2.10389 39.9462 1.61039C40.6736 1.11688 41.427 0.727268 42.2063 0.441554C42.9857 0.155839 43.765 0 44.5184 0C45.3238 0 46.1031 0.18182 46.8565 0.519483C47.6099 0.857145 48.1814 1.42857 48.5451 2.18182C48.701 2.51948 48.7789 2.88311 48.8049 3.27272C48.8308 3.66233 48.8049 4.05195 48.7529 4.44156C48.7529 4.49351 48.7529 4.57142 48.8049 4.70129C48.8308 4.83116 48.8568 4.93507 48.8568 4.96104C48.8568 5.50649 48.675 6.02597 48.3373 6.46753C47.9995 6.90909 47.5319 7.16883 46.9344 7.16883C46.259 7.16883 45.7134 6.96104 45.3238 6.57143C44.9341 6.18182 44.7003 5.63636 44.5964 4.98701C44.3885 5.06493 44.1287 5.19481 43.817 5.37662C43.5053 5.55844 43.1935 5.7922 42.8818 6.05194C42.57 6.31168 42.2843 6.54545 42.0245 6.80519C41.7647 7.06493 41.5829 7.27273 41.453 7.45454C41.5569 7.76623 41.8167 8.18182 42.1804 8.64935C42.57 9.11688 42.9857 9.63637 43.5053 10.1558C43.9989 10.6753 44.5444 11.2208 45.1159 11.7662C45.6875 12.3117 46.259 12.8571 46.8305 13.3507C47.3761 13.8442 47.8956 14.3117 48.3632 14.7013C48.8308 15.0909 49.1945 15.4026 49.4803 15.6364C49.9479 16.052 50.3636 16.4675 50.8052 16.9351C51.2468 17.4026 51.5846 17.8701 51.9223 18.4156C52.286 19.039 52.4159 19.7143 52.312 20.4416C52.2081 21.1688 51.8703 21.7922 51.3508 22.2597C51.039 22.5714 50.6753 22.8312 50.2856 22.987C49.896 23.1688 49.4803 23.2987 49.0387 23.3766Z" fill="black"/>
<path d="M4.17719 23.4137C3.99395 23.5786 3.79239 23.7252 3.5725 23.8351C3.35262 23.945 3.13273 24 2.91285 24C2.72961 24 2.54637 24 2.36314 23.9634C2.1799 23.945 2.01499 23.8901 1.85007 23.7985C1.64851 23.6885 1.46527 23.5603 1.30036 23.3771C1.13545 23.1939 1.00718 23.0107 0.897236 22.8092C0.677351 22.3328 0.512438 21.8198 0.402495 21.2519C0.292552 20.684 0.219257 20.1527 0.18261 19.6031C0.18261 19.5664 0.18261 19.4748 0.145962 19.3466C0.109315 19.2183 0.109315 19.145 0.0909911 19.0901C-0.000627683 16.5252 -0.0189514 13.9786 0.0176961 11.4504C0.0543436 8.92214 0.219257 6.37557 0.530761 3.82901C0.549085 3.77405 0.567409 3.6458 0.604056 3.4626C0.640704 3.27939 0.659028 3.07786 0.695675 2.87634C0.732323 2.67481 0.76897 2.47328 0.805618 2.29008C0.842265 2.10687 0.878913 1.97863 0.897236 1.92366C0.952208 1.74046 1.0255 1.53893 1.0988 1.35573C1.17209 1.17252 1.26371 0.970992 1.35533 0.806107C1.52024 0.58626 1.74013 0.384733 2.03331 0.238168C2.30817 0.0732824 2.60135 0 2.8762 0C3.22435 0 3.59083 0.109924 3.93898 0.311451C4.30545 0.512977 4.54366 0.787786 4.67193 1.11756C4.70858 1.20916 4.76355 1.3374 4.8002 1.53893C4.83684 1.74046 4.89182 1.94198 4.92846 2.14351C4.96511 2.34504 5.00176 2.54657 5.02008 2.72977C5.0384 2.91298 5.0384 3.05954 5.02008 3.16947C5.00176 3.31603 4.98343 3.59084 4.98343 4.01221C4.98343 4.43359 4.98343 4.85496 4.98343 5.31298C4.98343 5.77099 4.98343 6.21069 4.98343 6.61374C4.98343 7.01679 4.98343 7.30992 4.98343 7.45649C5.44153 7.23664 5.95459 6.94351 6.52263 6.61374C7.09067 6.28397 7.6587 5.91756 8.22674 5.53282C8.79478 5.14809 9.32616 4.72672 9.83923 4.30534C10.3523 3.88397 10.7737 3.48092 11.1036 3.07786C11.3601 2.72977 11.5983 2.45496 11.8548 2.25344C12.1114 2.05191 12.4778 1.96031 12.9176 1.96031C13.2291 1.96031 13.5223 2.03359 13.7972 2.16183C14.072 2.29008 14.2919 2.4916 14.4568 2.76641C14.5484 2.91298 14.6217 3.05954 14.695 3.20611C14.7683 3.35267 14.805 3.49924 14.805 3.66412C14.805 3.90229 14.7866 4.12214 14.7317 4.34198C14.6767 4.56183 14.5851 4.76336 14.4385 4.92824C14.2736 5.12977 14.127 5.34962 13.9804 5.56947C13.8521 5.78931 13.6872 5.99084 13.5223 6.21069C13.3757 6.37557 13.2291 6.54046 13.0825 6.72366C12.9359 6.90687 12.7894 7.07176 12.6244 7.23664C11.8548 7.95114 11.0669 8.64733 10.2424 9.30687C9.41778 9.96641 8.53824 10.571 7.60373 11.1023C8.31836 11.7618 9.01466 12.4397 9.67431 13.1542C10.334 13.8504 10.9936 14.5649 11.6533 15.2611C11.7632 15.371 11.9098 15.5359 12.1114 15.7557C12.3129 15.9756 12.5328 16.2137 12.771 16.4702C13.0092 16.7267 13.2291 16.9466 13.449 17.1664C13.6689 17.3863 13.8338 17.5145 13.9621 17.5878C13.9804 17.6061 14.0354 17.6244 14.127 17.6611C14.2186 17.6977 14.2736 17.716 14.2919 17.7344C14.805 18.0275 15.2447 18.3389 15.5929 18.7053C15.941 19.0534 16.1243 19.5481 16.1243 20.1893C16.1243 20.5191 16.0327 20.8305 15.8494 21.1053C15.6662 21.3802 15.428 21.6366 15.1348 21.8382C14.8416 22.0397 14.5301 22.2046 14.182 22.2962C13.8338 22.3878 13.5223 22.4427 13.2108 22.4427C12.7894 22.4427 12.3862 22.3511 11.9465 22.1679C11.525 21.9847 11.1219 21.7466 10.7188 21.4718C10.334 21.1969 9.94917 20.8855 9.60102 20.5557C9.25287 20.226 8.94137 19.9328 8.66651 19.658C8.02518 18.9802 7.40217 18.2656 6.81581 17.5511C6.22945 16.8366 5.60644 16.1221 4.96511 15.4076C4.98343 16.0305 5.00176 16.6351 5.00176 17.258V19.1084C5.00176 19.1084 5.00176 19.1817 4.96511 19.2733C4.94679 19.3649 4.92846 19.4382 4.92846 19.4748C4.92846 19.5298 4.92846 19.658 4.92846 19.8595C4.92846 20.0611 4.91014 20.2626 4.89182 20.4641C4.87349 20.6656 4.87349 20.8672 4.83684 21.0687C4.81852 21.2702 4.8002 21.3985 4.78187 21.4534C4.78187 21.4901 4.78187 21.545 4.74522 21.5817C4.7269 21.6183 4.70858 21.6733 4.70858 21.7099C4.70858 22.0031 4.67193 22.3145 4.56199 22.626C4.45204 22.9374 4.30545 23.1939 4.08557 23.3771L4.17719 23.4137Z" fill="black"/>
<path d="M31.0496 23.9578C30.1215 23.9578 29.3199 23.7469 28.6027 23.3392C27.8856 22.9315 27.2809 22.3972 26.7747 21.7364C26.2684 21.0756 25.8466 20.3445 25.5231 19.529C25.1997 18.7135 24.9606 17.9121 24.806 17.1107C24.5528 15.6907 24.4825 14.2425 24.6231 12.7803C24.7638 11.3181 25.0309 9.89806 25.4388 8.52021C25.72 7.57821 26.0997 6.60808 26.5778 5.60984C27.0559 4.6116 27.6324 3.69772 28.3074 2.86819C28.9824 2.03867 29.7558 1.34974 30.6558 0.815466C31.5417 0.281195 32.5542 0 33.6792 0C34.5229 0 35.2541 0.168718 35.8729 0.520212C36.4916 0.871706 37.026 1.32162 37.4478 1.86995C37.8838 2.41828 38.2213 3.05097 38.4884 3.76801C38.7556 4.48506 38.9525 5.18805 39.0931 5.91916C39.0931 5.96134 39.1072 6.00352 39.1353 6.04569C39.1634 6.08787 39.1916 6.13005 39.2056 6.20035C39.2619 6.34095 39.3181 6.4956 39.3603 6.65026C39.4025 6.80492 39.4025 6.97364 39.3603 7.12829C39.304 7.55009 39.1212 7.9297 38.8259 8.25308C38.5306 8.57645 38.1369 8.74517 37.6869 8.74517C37.3494 8.74517 36.9979 8.66081 36.6463 8.50615C36.2947 8.35149 36.0135 8.12654 35.8166 7.84534C35.7182 7.70474 35.6057 7.46573 35.4651 7.12829C35.3385 6.79086 35.1979 6.43937 35.0573 6.07381C34.9167 5.70826 34.762 5.38489 34.6073 5.07557C34.4526 4.78032 34.2839 4.59754 34.1292 4.5413C34.087 4.52724 34.0448 4.51318 33.9745 4.51318C33.9042 4.51318 33.8761 4.51318 33.8479 4.5413C33.3698 4.62566 32.9198 4.89279 32.5261 5.35676C32.1183 5.82074 31.7667 6.34095 31.4433 6.94552C31.1199 7.55009 30.8527 8.15466 30.6418 8.75922C30.4308 9.36379 30.2761 9.86995 30.1777 10.2777C29.9105 11.3603 29.7558 12.4569 29.6996 13.5536C29.6433 14.6503 29.7418 15.7329 29.9949 16.8014C30.0371 16.9842 30.1074 17.2091 30.2058 17.4763C30.3043 17.7434 30.4308 18.0105 30.5714 18.2636C30.7121 18.5167 30.8808 18.7276 31.0636 18.9104C31.2605 19.0931 31.4714 19.1775 31.7105 19.1775C31.9355 19.1634 32.2027 19.0791 32.5261 18.9385C32.8495 18.7979 33.1729 18.6292 33.5245 18.4464C33.8761 18.2636 34.1854 18.0527 34.4807 17.8418C34.776 17.6309 35.0151 17.4622 35.1979 17.3216C34.8182 17.3216 34.4385 17.3216 34.0448 17.2935C33.6511 17.2654 33.2854 17.181 32.9198 17.0264C32.3152 16.7452 31.9355 16.2953 31.7527 15.6907C31.5699 15.0861 31.6542 14.4956 31.9917 13.9332C32.1183 13.7504 32.2589 13.5817 32.4417 13.413C32.6245 13.2443 32.8214 13.0896 33.0464 12.935C33.2714 12.7803 33.4964 12.6678 33.7354 12.5694C33.9745 12.471 34.1995 12.4288 34.3964 12.4288C34.5792 12.4288 34.7198 12.4429 34.8182 12.4851C34.9167 12.5272 35.0151 12.5694 35.0995 12.6116C35.1838 12.6538 35.2823 12.696 35.3807 12.7663C35.4229 12.7803 35.4651 12.8225 35.5073 12.8647C35.5494 12.9069 35.5916 12.935 35.6338 12.935C36.4776 12.8366 37.3213 12.7522 38.1509 12.6819C38.9806 12.6116 39.8384 12.5835 40.7103 12.5835C41.0056 12.5835 41.2868 12.6678 41.554 12.8225C41.8071 12.9772 42.0321 13.188 42.2149 13.4411C42.3977 13.6942 42.5102 13.9754 42.5805 14.2847C42.6368 14.594 42.6227 14.8893 42.5243 15.1705C42.4258 15.4517 42.2852 15.7047 42.1024 15.9438C41.9196 16.1828 41.6946 16.3515 41.4134 16.4499C41.1321 16.5483 40.8368 16.6467 40.5415 16.717C40.2462 16.7873 39.9368 16.8717 39.6415 16.9279C39.7259 17.1529 39.74 17.3638 39.7118 17.5888C39.6837 17.8137 39.6275 18.0246 39.5431 18.2496C39.4447 18.5448 39.2056 18.9104 38.84 19.3322C38.4744 19.754 38.0525 20.1757 37.6025 20.5975C37.1525 21.0193 36.7025 21.3989 36.2526 21.7504C35.8026 22.1019 35.4229 22.3691 35.1276 22.5518C34.4667 22.9596 33.8198 23.297 33.187 23.5782C32.5542 23.8594 31.8511 24 31.0636 24L31.0496 23.9578Z" fill="#EB6E00"/>
<path d="M16.53 23.7381C16.2644 23.8857 15.9841 23.9594 15.6742 23.9889C15.3643 24.0184 15.0692 23.9889 14.7741 23.9004C14.3167 23.7824 13.9035 23.5316 13.5346 23.1775C13.1509 22.8234 12.9149 22.4103 12.8116 21.9382C12.664 21.2596 12.5755 20.5809 12.546 19.8728C12.5164 19.1793 12.5164 18.4859 12.5607 17.7778C12.664 15.609 12.7821 13.4403 12.9296 11.3011C13.0772 9.16183 13.3575 7.03734 13.7855 4.91286C13.9478 4.1752 14.1691 3.46703 14.4347 2.78838C14.538 2.56708 14.656 2.34578 14.7889 2.15399C14.9217 1.96219 15.084 1.79991 15.2906 1.68188C15.5562 1.49009 15.8218 1.31305 16.0726 1.1065C16.3235 0.914707 16.6038 0.737667 16.9137 0.604887C17.4449 0.383587 18.0056 0.2213 18.6106 0.13278C19.2009 0.0442603 19.8059 0 20.3961 0C21.0306 0 21.6651 0.0590132 22.2848 0.17704C22.9046 0.295067 23.5096 0.48686 24.0851 0.781927C24.8081 1.13601 25.4573 1.59336 26.0476 2.19825C26.6378 2.80313 27.11 3.45228 27.4641 4.16044C27.833 4.94237 28.0544 5.78331 28.1282 6.69802C28.2019 7.61272 28.1134 8.48317 27.8626 9.29461C27.6707 9.929 27.4051 10.5339 27.051 11.0945C26.6968 11.6551 26.2837 12.1715 25.841 12.6436C25.2508 13.2633 24.6163 13.8239 23.9375 14.3402C23.2587 14.8566 22.5652 15.3435 21.8422 15.8156C21.2667 16.1697 20.6764 16.4942 20.0862 16.8041C19.496 17.1139 18.8615 17.3499 18.2122 17.5417C18.2122 18.2794 18.2122 19.0171 18.1975 19.7547C18.1975 20.4924 18.1237 21.2153 17.9909 21.9382C17.9023 22.3218 17.7253 22.6759 17.4597 22.9857C17.1793 23.2955 16.8694 23.5463 16.5153 23.7529L16.53 23.7381ZM18.4926 4.6473C18.5073 5.84232 18.5073 7.02259 18.4778 8.21761C18.4483 9.41263 18.404 10.5929 18.3745 11.7879C18.95 11.4338 19.5255 11.065 20.0862 10.6814C20.6469 10.2978 21.1634 9.86999 21.6356 9.38313C21.8422 9.16183 22.0487 8.92577 22.2553 8.68972C22.4619 8.45366 22.6095 8.18811 22.7128 7.90779C22.8751 7.43569 22.8898 6.93407 22.7718 6.40295C22.6537 5.87183 22.3734 5.48824 21.9455 5.26694C21.5913 5.10466 21.2372 4.97188 20.8535 4.89811C20.4699 4.82434 20.0862 4.75058 19.7026 4.70632C19.6288 4.70632 19.4222 4.70632 19.0976 4.67681C18.7729 4.6473 18.5811 4.6473 18.4926 4.6473Z" fill="#178F5E"/>
</svg>
