<?xml version="1.0" standalone="no"?>
<!DOCTYPE svg PUBLIC "-//W3C//DTD SVG 20010904//EN"
 "http://www.w3.org/TR/2001/REC-SVG-20010904/DTD/svg10.dtd">
<svg version="1.0" xmlns="http://www.w3.org/2000/svg"
 width="700.000000pt" height="700.000000pt" viewBox="0 0 700.000000 700.000000"
 preserveAspectRatio="xMidYMid meet">
<metadata>
Created by potrace 1.14, written by Peter Selinger 2001-2017
</metadata>
<g transform="translate(0.000000,700.000000) scale(0.100000,-0.100000)"
fill="#000000" stroke="none">
<path d="M2064 5238 c-12 -7 -147 -166 -301 -353 -154 -187 -488 -590 -742
-895 -253 -305 -461 -562 -461 -571 0 -14 304 -318 1445 -1440 219 -215 256
-247 295 -258 70 -19 2807 -21 2910 -2 450 81 859 449 1075 964 127 305 178
569 179 927 1 341 -48 581 -175 846 -137 287 -341 498 -614 634 -131 66 -231
95 -435 128 -121 20 -178 21 -1640 27 -1224 5 -1519 3 -1536 -7z m3170 -133
c66 -17 162 -55 284 -110 82 -38 110 -68 81 -86 -8 -5 -292 -9 -631 -9 l-618
0 -41 -52 c-77 -98 -94 -128 -78 -139 9 -6 326 -9 829 -8 934 3 844 12 935
-99 58 -69 75 -106 57 -124 -6 -6 -349 -12 -1013 -15 l-1004 -4 -37 -24 c-37
-25 -90 -92 -102 -132 -6 -19 -4 -23 16 -23 13 0 515 0 1116 0 1214 0 1129 5
1177 -68 13 -20 30 -59 37 -85 12 -45 11 -50 -7 -63 -16 -12 -212 -14 -1283
-14 l-1264 0 -27 -29 c-15 -16 -45 -54 -66 -85 -31 -45 -36 -59 -26 -69 9 -9
311 -13 1366 -15 1190 -3 1355 -5 1366 -18 7 -9 15 -53 17 -98 4 -78 3 -84
-19 -100 -21 -15 -145 -16 -1462 -16 -1074 0 -1444 -3 -1460 -12 -25 -13 -32
-21 -87 -102 -36 -53 -39 -61 -26 -74 13 -13 208 -16 1523 -19 882 -3 1512 -9
1517 -14 14 -13 -10 -191 -45 -329 -140 -559 -520 -1017 -1001 -1209 l-76 -31
-735 0 -734 0 -29 22 c-16 13 -346 324 -734 693 -388 368 -766 727 -840 796
-118 111 -133 129 -125 147 9 19 1224 1347 1403 1534 46 48 93 89 105 91 12 2
396 5 852 6 716 1 839 -1 889 -14z"/>
</g>
</svg>
