<svg width="137" height="113" viewBox="0 0 137 113" fill="none" xmlns="http://www.w3.org/2000/svg">
<path d="M72.8494 29.4497H64.1816V34.9765H72.8494V29.4497Z" fill="#DFEAFA"/>
<path d="M72.8494 59.772H64.1816V65.2988H72.8494V59.772Z" fill="#DFEAFA"/>
<path d="M74.903 36.4866H73.5742H63.4265H62.0977V39.6275H74.903V36.4866Z" fill="#DFEAFA"/>
<path d="M63.4265 66.8391H62.0977V69.9498H74.903V66.8391H73.5742H63.4265Z" fill="#DFEAFA"/>
<path d="M53.2481 56.2686H47.2984H36.426H28.7246V69.9498H53.2481V56.2686Z" fill="#DFEAFA"/>
<path d="M46.5441 49.2014H37.1816V54.7283H46.5441V49.2014Z" fill="#DFEAFA"/>
<path d="M46.5441 18.8794H37.1816V24.4062H46.5441V18.8794Z" fill="#DFEAFA"/>
<path d="M53.2481 85.8357H47.2984H36.426H28.7246V99.5169H53.2481V85.8357Z" fill="#DFEAFA"/>
<path d="M53.2481 25.9163H47.2984H36.426H28.7246V39.6277H53.2481V25.9163Z" fill="#DFEAFA"/>
<path d="M87.678 1.75513H49.3223V7.10077H87.678V1.75513Z" fill="#DFEAFA"/>
<path d="M108.305 8.61084H88.4327H48.5669H28.7246V12.688H108.305V8.61084Z" fill="#DFEAFA"/>
<path d="M46.5441 78.7686H37.1816V84.2954H46.5441V78.7686Z" fill="#DFEAFA"/>
<path d="M89.7016 85.8357H83.752V99.5169H108.306V85.8357H100.604H89.7016Z" fill="#DFEAFA"/>
<path d="M69.2539 88.886V110.389H74.9016V95.2585C74.9016 91.9665 72.425 89.2786 69.2539 88.886Z" fill="#DFEAFA"/>
<path d="M99.8194 78.7686H90.457V84.2954H99.8194V78.7686Z" fill="#DFEAFA"/>
<path d="M62.0977 95.2585V110.389H67.7453V88.886C64.5742 89.2786 62.0977 91.9665 62.0977 95.2585Z" fill="#DFEAFA"/>
<path d="M89.7016 56.2686H83.752V69.9498H108.306V56.2686H100.604H89.7016Z" fill="#DFEAFA"/>
<path d="M99.8194 18.8794H90.457V24.4062H99.8194V18.8794Z" fill="#DFEAFA"/>
<path d="M89.7016 25.9163H83.752V39.6277H108.306V25.9163H100.604H89.7016Z" fill="#DFEAFA"/>
<path d="M99.8194 49.2014H90.457V54.7283H99.8194V49.2014Z" fill="#DFEAFA"/>
<path d="M73.6036 28.6946H63.4258V35.7315H73.6036V28.6946Z" stroke="#225DAF" stroke-width="2" stroke-miterlimit="10" stroke-linecap="round" stroke-linejoin="round"/>
<path d="M75.6572 35.7317H61.3418V40.3525H75.6572V35.7317Z" stroke="#225DAF" stroke-width="2" stroke-miterlimit="10" stroke-linecap="round" stroke-linejoin="round"/>
<path d="M73.6036 59.0168H63.4258V66.0538H73.6036V59.0168Z" stroke="#225DAF" stroke-width="2" stroke-miterlimit="10" stroke-linecap="round" stroke-linejoin="round"/>
<path d="M75.6572 66.084H61.3418V70.7048H75.6572V66.084Z" stroke="#225DAF" stroke-width="2" stroke-miterlimit="10" stroke-linecap="round" stroke-linejoin="round"/>
<path d="M68.4995 88.1006C64.5431 88.1006 61.3418 91.3019 61.3418 95.2583V111.144H75.6572V95.2583C75.6572 91.3019 72.4559 88.1006 68.4995 88.1006Z" stroke="#225DAF" stroke-width="2" stroke-miterlimit="10" stroke-linecap="round" stroke-linejoin="round"/>
<path d="M68.5 88.1006V111.144" stroke="#225DAF" stroke-width="2" stroke-miterlimit="10" stroke-linecap="round" stroke-linejoin="round"/>
<path d="M31.3535 100.272V111.144" stroke="#225DAF" stroke-width="2" stroke-miterlimit="10" stroke-linecap="round" stroke-linejoin="round"/>
<path d="M31.3535 70.7048V85.0807" stroke="#225DAF" stroke-width="2" stroke-miterlimit="10" stroke-linecap="round" stroke-linejoin="round"/>
<path d="M31.3535 40.3828V55.5137" stroke="#225DAF" stroke-width="2" stroke-miterlimit="10" stroke-linecap="round" stroke-linejoin="round"/>
<path d="M31.3535 13.4431V25.1612" stroke="#225DAF" stroke-width="2" stroke-miterlimit="10" stroke-linecap="round" stroke-linejoin="round"/>
<path d="M105.646 100.272V111.144" stroke="#225DAF" stroke-width="2" stroke-miterlimit="10" stroke-linecap="round" stroke-linejoin="round"/>
<path d="M105.646 70.7048V85.0807" stroke="#225DAF" stroke-width="2" stroke-miterlimit="10" stroke-linecap="round" stroke-linejoin="round"/>
<path d="M105.646 40.3828V55.5137" stroke="#225DAF" stroke-width="2" stroke-miterlimit="10" stroke-linecap="round" stroke-linejoin="round"/>
<path d="M105.646 13.4431V25.1612" stroke="#225DAF" stroke-width="2" stroke-miterlimit="10" stroke-linecap="round" stroke-linejoin="round"/>
<path d="M109.061 7.85571H27.9707V13.443H109.061V7.85571Z" stroke="#225DAF" stroke-width="2" stroke-miterlimit="10" stroke-linecap="round" stroke-linejoin="round"/>
<path d="M88.4322 1H48.5664V7.85571H88.4322V1Z" stroke="#225DAF" stroke-width="2" stroke-miterlimit="10" stroke-linecap="round" stroke-linejoin="round"/>
<path d="M1 111.144H136" stroke="#225DAF" stroke-width="2" stroke-miterlimit="10" stroke-linecap="round" stroke-linejoin="round"/>
<path d="M54.0325 25.1609H27.9688V40.3522H54.0325V25.1609Z" stroke="#225DAF" stroke-width="2" stroke-miterlimit="10" stroke-linecap="round" stroke-linejoin="round"/>
<path d="M47.267 18.124H36.3945V25.1609H47.267V18.124Z" stroke="#225DAF" stroke-width="2" stroke-miterlimit="10" stroke-linecap="round" stroke-linejoin="round"/>
<path d="M82.9831 40.3916L109.047 40.3916L109.047 25.2003L82.9831 25.2003L82.9831 40.3916Z" stroke="#225DAF" stroke-width="2" stroke-miterlimit="10" stroke-linecap="round" stroke-linejoin="round"/>
<path d="M89.7291 25.1802L100.602 25.1802L100.602 18.1433L89.7291 18.1433L89.7291 25.1802Z" stroke="#225DAF" stroke-width="2" stroke-miterlimit="10" stroke-linecap="round" stroke-linejoin="round"/>
<path d="M54.0325 55.5134H27.9688V70.7047H54.0325V55.5134Z" stroke="#225DAF" stroke-width="2" stroke-miterlimit="10" stroke-linecap="round" stroke-linejoin="round"/>
<path d="M47.267 48.4463H36.3945V55.4832H47.267V48.4463Z" stroke="#225DAF" stroke-width="2" stroke-miterlimit="10" stroke-linecap="round" stroke-linejoin="round"/>
<path d="M82.9831 70.6936L109.047 70.6936L109.047 55.5023L82.9831 55.5023L82.9831 70.6936Z" stroke="#225DAF" stroke-width="2" stroke-miterlimit="10" stroke-linecap="round" stroke-linejoin="round"/>
<path d="M89.7291 55.5125L100.602 55.5125L100.602 48.4755L89.7291 48.4755L89.7291 55.5125Z" stroke="#225DAF" stroke-width="2" stroke-miterlimit="10" stroke-linecap="round" stroke-linejoin="round"/>
<path d="M54.0325 85.0806H27.9688V100.272H54.0325V85.0806Z" stroke="#225DAF" stroke-width="2" stroke-miterlimit="10" stroke-linecap="round" stroke-linejoin="round"/>
<path d="M47.267 78.0134H36.3945V85.0503H47.267V78.0134Z" stroke="#225DAF" stroke-width="2" stroke-miterlimit="10" stroke-linecap="round" stroke-linejoin="round"/>
<path d="M82.9831 100.271L109.047 100.271L109.047 85.0795L82.9831 85.0795L82.9831 100.271Z" stroke="#225DAF" stroke-width="2" stroke-miterlimit="10" stroke-linecap="round" stroke-linejoin="round"/>
<path d="M89.7291 85.0896L100.602 85.0896L100.602 78.0527L89.7291 78.0527L89.7291 85.0896Z" stroke="#225DAF" stroke-width="2" stroke-miterlimit="10" stroke-linecap="round" stroke-linejoin="round"/>
</svg>
