<svg xmlns="http://www.w3.org/2000/svg" viewBox="0 0 13.34 13.33"><defs><style>.cls-1{fill:#f3132c;}</style></defs><g id="레이어_2" data-name="레이어 2"><g id="레이어_1-2" data-name="레이어 1"><path class="cls-1" d="M6.67,0A6.49,6.49,0,0,0,4.08.53,6.91,6.91,0,0,0,2,2,6.94,6.94,0,0,0,.52,4.08,6.36,6.36,0,0,0,0,6.66,6.57,6.57,0,0,0,.52,9.27,7,7,0,0,0,2,11.38a6.94,6.94,0,0,0,2.13,1.43,6.48,6.48,0,0,0,2.59.52,6.53,6.53,0,0,0,2.6-.52,6.67,6.67,0,0,0,3.54-3.54,6.41,6.41,0,0,0,.53-2.61,6.21,6.21,0,0,0-.53-2.58A6.55,6.55,0,0,0,9.27.53,6.53,6.53,0,0,0,6.67,0ZM6,8.66H7.34V10H6ZM7.34,8H6V3.33H7.34Z"/></g></g></svg>