<svg width="37" height="37" viewBox="0 0 37 37" fill="none" xmlns="http://www.w3.org/2000/svg">
<path d="M23.125 6.16659H7.70833V30.8333H29.2917V12.3333H23.125V6.16659ZM4.625 4.61259C4.625 3.76775 5.31413 3.08325 6.16513 3.08325H24.6667L32.375 10.7916V32.3641C32.3764 32.5666 32.3379 32.7673 32.2618 32.9549C32.1856 33.1425 32.0732 33.3133 31.9311 33.4574C31.7889 33.6016 31.6198 33.7163 31.4333 33.7951C31.2468 33.8739 31.0466 33.9152 30.8441 33.9166H6.15587C5.751 33.9138 5.36349 33.7518 5.07704 33.4656C4.7906 33.1795 4.62823 32.7921 4.625 32.3873V4.61259ZM20.8572 22.2708C19.5643 23.0263 18.0407 23.2857 16.5706 23.0008C15.1004 22.7158 13.7841 21.9059 12.8671 20.722C11.9501 19.5382 11.4949 18.0612 11.5864 16.5665C11.678 15.0719 12.31 13.6615 13.3647 12.5984C14.4261 11.5373 15.838 10.8996 17.3358 10.8049C18.8337 10.7103 20.3147 11.1651 21.5012 12.0842C22.6877 13.0033 23.4983 14.3236 23.781 15.7975C24.0638 17.2715 23.7993 18.798 23.0371 20.0909L26.4442 23.498L24.2643 25.6795L20.8572 22.2724V22.2708ZM19.9045 19.1382C20.1989 18.8537 20.4338 18.5135 20.5954 18.1373C20.757 17.7612 20.8421 17.3566 20.8456 16.9472C20.8492 16.5378 20.7712 16.1317 20.6162 15.7528C20.4611 15.3739 20.2322 15.0296 19.9427 14.7401C19.6532 14.4506 19.3089 14.2217 18.93 14.0666C18.5511 13.9116 18.145 13.8336 17.7356 13.8371C17.3262 13.8407 16.9216 13.9258 16.5455 14.0874C16.1693 14.249 15.8291 14.4838 15.5446 14.7783C14.983 15.3599 14.6722 16.1387 14.6792 16.9472C14.6862 17.7556 15.0105 18.5289 15.5822 19.1006C16.1539 19.6723 16.9272 19.9966 17.7356 20.0036C18.5441 20.0106 19.3229 19.6998 19.9045 19.1382Z" fill="white"/>
</svg>
