<svg width="181" height="181" viewBox="0 0 181 181" fill="none" xmlns="http://www.w3.org/2000/svg">
<path fill-rule="evenodd" clip-rule="evenodd" d="M90.5 180.5C140.206 180.5 180.5 140.206 180.5 90.5C180.5 40.7944 140.206 0.5 90.5 0.5C68.1996 0.5 59.7227 27.2477 44 40.6802C24.6782 57.1875 0.5 63.0948 0.5 90.5C0.5 140.206 40.7944 180.5 90.5 180.5Z" fill="#F5F5F5"/>
<g filter="url(#filter0_f_160_5959)">
<path d="M138.5 60.5H60.5C58.0147 60.5 56 62.2227 56 64.3478V145.152C56 147.277 58.0147 149 60.5 149H138.5C140.985 149 143 147.277 143 145.152V64.3478C143 62.2227 140.985 60.5 138.5 60.5Z" fill="white"/>
<path d="M138.5 60.5H60.5C58.0147 60.5 56 62.2227 56 64.3478V145.152C56 147.277 58.0147 149 60.5 149H138.5C140.985 149 143 147.277 143 145.152V64.3478C143 62.2227 140.985 60.5 138.5 60.5Z" fill="#C0C0C0"/>
</g>
<path d="M53 60.5C53 53.8726 58.3726 48.5 65 48.5H122C128.627 48.5 134 53.8726 134 60.5V125C134 131.627 128.627 137 122 137H65C58.3726 137 53 131.627 53 125V60.5Z" fill="white"/>
<path fill-rule="evenodd" clip-rule="evenodd" d="M127.491 132.303C129.039 130.927 129.179 128.557 127.803 127.009L115.803 113.509C114.427 111.961 112.057 111.821 110.509 113.197C108.961 114.573 108.821 116.943 110.197 118.491L122.197 131.991C123.573 133.539 125.943 133.679 127.491 132.303Z" fill="#707070"/>
<path fill-rule="evenodd" clip-rule="evenodd" d="M99.5 82.25C90.8015 82.25 83.75 89.3015 83.75 98C83.75 106.698 90.8015 113.75 99.5 113.75C108.198 113.75 115.25 106.698 115.25 98C115.25 89.3015 108.198 82.25 99.5 82.25ZM76.25 98C76.25 85.1594 86.6594 74.75 99.5 74.75C112.341 74.75 122.75 85.1594 122.75 98C122.75 110.841 112.341 121.25 99.5 121.25C86.6594 121.25 76.25 110.841 76.25 98Z" fill="#707070"/>
<defs>
<filter id="filter0_f_160_5959" x="39.5" y="44" width="120" height="121.5" filterUnits="userSpaceOnUse" color-interpolation-filters="sRGB">
<feFlood flood-opacity="0" result="BackgroundImageFix"/>
<feBlend mode="normal" in="SourceGraphic" in2="BackgroundImageFix" result="shape"/>
<feGaussianBlur stdDeviation="8.25" result="effect1_foregroundBlur_160_5959"/>
</filter>
</defs>
</svg>
