<svg width="37" height="37" viewBox="0 0 37 37" fill="none" xmlns="http://www.w3.org/2000/svg">
<path d="M30.8333 3.08325C31.6843 3.08325 32.375 3.77392 32.375 4.62492V10.417L29.2917 13.5003V6.16659H7.70833V30.8333H29.2917V26.5813L32.375 23.498V32.3749C32.375 33.2259 31.6843 33.9166 30.8333 33.9166H6.16667C5.31567 33.9166 4.625 33.2259 4.625 32.3749V4.62492C4.625 3.77392 5.31567 3.08325 6.16667 3.08325H30.8333ZM33.5744 13.5789L35.7543 15.7588L23.7632 27.7499L21.5802 27.7468L21.5833 25.57L33.5744 13.5789ZM20.0417 18.4999V21.5833H12.3333V18.4999H20.0417ZM24.6667 12.3333V15.4166H12.3333V12.3333H24.6667Z" fill="white"/>
</svg>
