<svg width="193" height="215" viewBox="0 0 193 215" fill="none" xmlns="http://www.w3.org/2000/svg">
<path d="M154 182H164.613L170.067 195.398C171.046 197.775 171.843 199.905 172.458 201.79H172.626C173.241 199.933 174.038 197.788 175.017 195.357L180.387 182H191V214H182.358V201.626C182.358 199.714 182.554 197.338 182.946 194.497H182.778L180.135 201.585L175.059 213.713H169.983L164.949 201.585L162.18 194.497H162.012C162.46 197.092 162.684 199.468 162.684 201.626V214H154V182Z" fill="#064001"/>
<path d="M126 182H149.706V188.965H134.995V194.415H148.865V201.339H137.475L135.331 196.423H134.995V206.953H150V214H126V182Z" fill="#064001"/>
<path d="M104.57 189.038H95V182H123V189.038H113.43V214H104.57V189.038Z" fill="#064001"/>
<path d="M78.9707 215C75.98 215 73.3427 214.46 71.0589 213.381C68.7479 212.302 66.9806 210.807 65.7571 208.897C64.5336 206.988 63.9491 204.801 64.0035 202.338H73.3427C73.2883 203.805 73.7641 204.981 74.7701 205.867C75.8033 206.753 77.2035 207.195 78.9707 207.195C80.3845 207.195 81.4857 207.002 82.2741 206.614C83.0626 206.227 83.4568 205.673 83.4568 204.954C83.4568 204.206 82.9131 203.528 81.8255 202.919C80.6836 202.311 78.794 201.536 76.1567 200.595C73.8185 199.764 71.8609 198.92 70.284 198.062C67.0486 196.263 65.4309 193.814 65.4309 190.714C65.4309 188.805 65.9882 187.116 67.103 185.65C68.2177 184.155 69.781 183.007 71.793 182.204C73.8049 181.401 76.1024 181 78.6853 181C81.4857 181 83.919 181.498 85.9854 182.495C88.0789 183.491 89.6694 184.847 90.757 186.563C91.8717 188.279 92.4019 190.216 92.3475 192.375H83.0082C83.0626 191.295 82.6956 190.438 81.9071 189.801C81.1458 189.137 80.0583 188.805 78.6445 188.805C77.5298 188.805 76.6325 188.998 75.9528 189.386C75.3003 189.746 74.974 190.216 74.974 190.797C74.974 191.24 75.1236 191.614 75.4226 191.918C75.8033 192.25 76.3335 192.555 77.0132 192.832C77.8016 193.191 78.9979 193.648 80.6021 194.201L82.2334 194.824C86.0941 196.263 88.8538 197.772 90.5123 199.349C92.1708 200.927 93 202.823 93 205.037C93 207.057 92.429 208.814 91.2871 210.309C90.1724 211.803 88.5547 212.952 86.434 213.755C84.3405 214.585 81.8527 215 78.9707 215Z" fill="#064001"/>
<path d="M42.0536 203.962L30 182H39.9464L46.3525 195.029H46.6475L53.0536 182H63L50.9464 203.962V214H42.0536V203.962Z" fill="#064001"/>
<path d="M14.9707 215C11.98 215 9.34272 214.46 7.05889 213.381C4.74786 212.302 2.98061 210.807 1.75713 208.897C0.533646 206.988 -0.0509061 204.801 0.00347087 202.338H9.34272C9.28834 203.805 9.76414 204.981 10.7701 205.867C11.8033 206.753 13.2035 207.195 14.9707 207.195C16.3845 207.195 17.4857 207.002 18.2741 206.614C19.0626 206.227 19.4568 205.673 19.4568 204.954C19.4568 204.206 18.9131 203.528 17.8255 202.919C16.6836 202.311 14.794 201.536 12.1567 200.595C9.81852 199.764 7.86095 198.92 6.28401 198.062C3.04858 196.263 1.43087 193.814 1.43087 190.714C1.43087 188.805 1.98823 187.116 3.10296 185.65C4.21769 184.155 5.78103 183.007 7.79297 182.204C9.80492 181.401 12.1024 181 14.6853 181C17.4857 181 19.919 181.498 21.9854 182.495C24.0789 183.491 25.6694 184.847 26.757 186.563C27.8717 188.279 28.4019 190.216 28.3475 192.375H19.0082C19.0626 191.295 18.6956 190.438 17.9071 189.801C17.1458 189.137 16.0583 188.805 14.6445 188.805C13.5297 188.805 12.6325 188.998 11.9528 189.386C11.3003 189.746 10.974 190.216 10.974 190.797C10.974 191.24 11.1236 191.614 11.4226 191.918C11.8033 192.25 12.3335 192.555 13.0132 192.832C13.8016 193.191 14.9979 193.648 16.602 194.201L18.2334 194.824C22.0941 196.263 24.8538 197.772 26.5123 199.349C28.1708 200.927 29 202.823 29 205.037C29 207.057 28.429 208.814 27.2871 210.309C26.1724 211.803 24.5547 212.952 22.434 213.755C20.3405 214.585 17.8527 215 14.9707 215Z" fill="#064001"/>
<path d="M155 119H192V130.385H168.916V139.307H190.374V150.693H172.817L169.436 142.57H168.916V171H155V119Z" fill="#064001"/>
<path d="M113 119H126.856V158.749H149V171H113V119Z" fill="#064001"/>
<path d="M81.5 172C76.4872 172 72.041 170.88 68.1615 168.641C64.2821 166.446 61.2744 163.351 59.1385 159.356C57.0462 155.317 56 150.685 56 145.461C56 139.973 57.068 135.166 59.2038 131.039C61.3397 126.868 64.3256 123.663 68.1615 121.424C72.041 119.141 76.4872 118 81.5 118C86.5564 118 91.0026 119.141 94.8385 121.424C98.718 123.751 101.704 127.022 103.796 131.237C105.932 135.407 107 140.193 107 145.593C107 150.773 105.954 155.383 103.862 159.422C101.726 163.417 98.718 166.512 94.8385 168.707C91.0026 170.902 86.5564 172 81.5 172ZM81.5 159.883C83.6795 159.883 85.641 159.29 87.3846 158.105C89.1718 156.876 90.5667 155.12 91.5692 152.837C92.6154 150.554 93.1385 147.876 93.1385 144.802C93.1385 141.817 92.6154 139.227 91.5692 137.032C90.5667 134.793 89.1718 133.08 87.3846 131.895C85.641 130.71 83.6577 130.117 81.4346 130.117C79.2115 130.117 77.2282 130.732 75.4846 131.961C73.741 133.146 72.368 134.88 71.3654 137.163C70.3628 139.402 69.8615 142.015 69.8615 145C69.8615 147.985 70.3628 150.62 71.3654 152.902C72.4115 155.141 73.8064 156.876 75.55 158.105C77.3372 159.29 79.3205 159.883 81.5 159.883Z" fill="#064001"/>
<path d="M26.514 172C21.4984 172 17.0498 170.879 13.1682 168.637C9.28661 166.396 6.27726 163.231 4.14019 159.143C2.04673 155.055 1 150.374 1 145.099C1 139.648 2.06854 134.901 4.20561 130.857C6.29907 126.769 9.2648 123.604 13.1028 121.363C16.9408 119.121 21.3894 118 26.4486 118C30.5047 118 34.1682 118.769 37.4393 120.308C40.7103 121.802 43.3707 123.912 45.4206 126.637C47.514 129.363 48.8224 132.506 49.3458 136.066H35.3458C34.648 134.22 33.5358 132.769 32.0093 131.714C30.4829 130.659 28.7165 130.132 26.7103 130.132C23.0031 130.132 20.1028 131.451 18.0093 134.088C15.9159 136.681 14.8692 140.286 14.8692 144.901C14.8692 149.56 15.9159 153.231 18.0093 155.912C20.1028 158.549 22.9813 159.868 26.6449 159.868C29.5234 159.868 31.8785 159.165 33.7103 157.758C35.5421 156.308 36.5234 154.396 36.6542 152.022H28.5421L22.4579 141.868H50V148.462C50 153.297 49.0623 157.495 47.1869 161.055C45.3115 164.571 42.6075 167.275 39.0748 169.165C35.5421 171.055 31.3551 172 26.514 172Z" fill="#064001"/>
<path d="M148.084 55.5601H161.844V76.2961L176.948 55.5601H192.308L175.412 77.9601L192.82 105.544H177.076L161.844 79.6241V105.544H148.148L148.084 55.5601Z" fill="#064001"/>
<path d="M101.646 55.5601H123.214C127.012 55.5601 130.297 56.2427 133.07 57.6081C135.844 58.9734 137.977 60.9361 139.47 63.4961C141.006 66.0561 141.774 69.0854 141.774 72.5841C141.774 79.3254 138.98 84.0827 133.39 86.8561L143.886 105.544H129.358L120.27 89.0321L116.686 82.5681L115.47 80.2001H115.214V105.544H101.646V55.5601ZM119.95 78.4721C125.07 78.4721 127.63 76.5521 127.63 72.7121C127.63 68.4881 125.07 66.3761 119.95 66.3761H115.214V78.4721H119.95Z" fill="#064001"/>
<path d="M61.9552 55.5601H80.2592L97.4111 105.544H82.6272L79.7471 95.7521H70.5312L68.4192 84.9361H76.5471L71.6832 68.3601L60.6111 105.544H45.8271L61.9552 55.5601Z" fill="#064001"/>
<path d="M1.87988 55.5601H22.0399C28.6959 55.5601 33.9012 57.0747 37.6559 60.1041C41.4106 63.1334 43.2879 67.4001 43.2879 72.9041C43.2879 76.5734 42.4345 79.7094 40.7279 82.3121C39.0212 85.0001 36.6319 87.0694 33.5599 88.5201C30.4879 89.9707 26.9679 90.6961 22.9999 90.6961H22.6799L15.5759 81.7361H15.5119V105.544H1.87988V55.5601ZM20.2479 80.1361C22.9785 80.1361 25.1332 79.4961 26.7119 78.2161C28.3332 76.9361 29.1439 75.1654 29.1439 72.9041C29.1439 70.8561 28.3332 69.2561 26.7119 68.1041C25.1332 66.9521 22.9785 66.3761 20.2479 66.3761H15.5119V80.1361H20.2479Z" fill="#064001"/>
<path d="M163.663 1.5H177.963L191.363 40.55H179.812L177.562 32.9H170.363L168.712 24.45H175.062L171.262 11.5L162.613 40.55H151.062L163.663 1.5Z" fill="#064001"/>
<path d="M119.915 1.5H148.115V10H130.615V16.65H147.115V25.1H133.565L131.015 19.1H130.615V31.95H148.465V40.55H119.915V1.5Z" fill="#064001"/>
<path d="M83.6357 1.5H100.486C103.452 1.5 106.019 2.03333 108.186 3.1C110.352 4.16667 112.019 5.7 113.186 7.7C114.386 9.7 114.986 12.0667 114.986 14.8C114.986 20.0667 112.802 23.7833 108.436 25.95L116.636 40.55H105.286L98.1857 27.65L95.3857 22.6L94.4357 20.75H94.2357V40.55H83.6357V1.5ZM97.9357 19.4C101.936 19.4 103.936 17.9 103.936 14.9C103.936 11.6 101.936 9.95 97.9357 9.95H94.2357V19.4H97.9357Z" fill="#064001"/>
<path d="M59.0322 41.5498C55.1989 41.5498 51.7989 40.6998 48.8322 38.9998C45.8656 37.3331 43.5656 34.9831 41.9322 31.9498C40.3322 28.8831 39.5322 25.3665 39.5322 21.3998C39.5322 17.2331 40.3489 13.5831 41.9822 10.4498C43.6156 7.28314 45.8989 4.8498 48.8322 3.1498C51.7989 1.41647 55.1989 0.549805 59.0322 0.549805C62.8989 0.549805 66.2989 1.41647 69.2322 3.1498C72.1989 4.91647 74.4822 7.39981 76.0822 10.5998C77.7156 13.7665 78.5322 17.3998 78.5322 21.4998C78.5322 25.4331 77.7322 28.9331 76.1322 31.9998C74.4989 35.0331 72.1989 37.3831 69.2322 39.0498C66.2989 40.7165 62.8989 41.5498 59.0322 41.5498ZM59.0322 32.3498C60.6989 32.3498 62.1989 31.8998 63.5322 30.9998C64.8989 30.0665 65.9656 28.7331 66.7322 26.9998C67.5322 25.2665 67.9322 23.2331 67.9322 20.8998C67.9322 18.6331 67.5322 16.6665 66.7322 14.9998C65.9656 13.2998 64.8989 11.9998 63.5322 11.0998C62.1989 10.1998 60.6822 9.74981 58.9822 9.74981C57.2822 9.74981 55.7656 10.2165 54.4322 11.1498C53.0989 12.0498 52.0489 13.3665 51.2822 15.0998C50.5156 16.7998 50.1322 18.7831 50.1322 21.0498C50.1322 23.3165 50.5156 25.3165 51.2822 27.0498C52.0822 28.7498 53.1489 30.0665 54.4822 30.9998C55.8489 31.8998 57.3656 32.3498 59.0322 32.3498Z" fill="#064001"/>
<path d="M1.7998 1.5H12.5498V17.7L24.3498 1.5H36.3498L23.1498 19L36.7498 40.55H24.4498L12.5498 20.3V40.55H1.8498L1.7998 1.5Z" fill="#064001"/>
</svg>
