<svg width="213" height="213" viewBox="0 0 213 213" fill="none" xmlns="http://www.w3.org/2000/svg">
<rect width="213" height="213" fill="#064001"/>
<path d="M107.16 22H54.8296C42.8096 22 33.0596 31.75 33.0596 43.78V83.21C33.0596 95.23 42.7996 104.98 54.8296 104.99C63.7896 104.99 72.6996 104.66 81.6596 104.99H107.79L74.6396 62.66L107.16 22Z" fill="white"/>
<path d="M165.53 25.61C160.89 23.2 155.51 22 149.4 22C129.9 22 114.1 37.81 114.1 57.3V104.98C126.13 104.98 135.88 95.23 135.88 83.2V80.05H148.66C154.93 80.05 160.43 78.87 165.17 76.5C169.91 74.13 173.58 70.78 176.2 66.44C178.82 62.1 180.13 57.01 180.13 51.17C180.13 45.33 178.86 40.3 176.32 35.87C173.78 31.44 170.19 28.02 165.55 25.61H165.53Z" fill="white"/>
<path d="M177.8 148.62C175.54 146.32 154.1 133.45 150.44 131.84L182.98 131.8C182.98 126.45 181.64 121.75 178.97 117.7C170.78 105.29 152.36 102.97 138.94 106.43C127.75 109.31 116.32 119.96 116.95 132.24C117.55 143.84 126.29 148.33 135.26 153.24C138.34 154.93 141.45 156.57 144.55 158.23C145.68 158.83 148.13 160.82 149.44 160.84C149.44 160.84 115.08 160.4 115.07 160.4C114.07 160.41 117.4 172.17 117.87 173.19C124.35 187.19 140.18 190.93 154.29 190.05C164.52 189.41 175.57 185.95 180.92 177.21C186.22 168.56 184.91 155.86 177.79 148.62H177.8Z" fill="white"/>
<path d="M74.45 142.84V105.84C65.67 103.64 54.9 106.72 48.8 110.08C42.71 113.44 37.88 118.35 34.33 124.81C30.78 131.27 29 138.93 29 147.79C29 156.65 30.69 163.95 34.07 170.37C37.45 176.79 42.2 181.72 48.31 185.16C54.42 188.6 61.47 190.32 69.46 190.32C76.68 190.32 83.09 188.89 88.69 186.02C94.29 183.15 98.66 179.02 101.81 173.61C104.96 168.2 106.54 161.81 106.54 154.44V143.04H74.45V142.85V142.84Z" fill="white"/>
</svg>
