<svg xmlns="http://www.w3.org/2000/svg" viewBox="0 0 18.5 20"><defs><style>.cls-1{fill:#757a8c;}</style></defs><g id="레이어_2" data-name="레이어 2"><g id="레이어_1-2" data-name="레이어 1"><path class="cls-1" d="M18.5,3.75a.75.75,0,0,0-1.5,0ZM9.75,15a.75.75,0,0,0,0-1.5ZM17,3.75v12.5h1.5V3.75ZM14.75,18.5H3.25V20h11.5ZM3.25,15h6.5V13.5H3.25Zm0,3.5A1.75,1.75,0,0,1,1.5,16.75H0A3.26,3.26,0,0,0,3.25,20ZM17,16.25a2.25,2.25,0,0,1-2.25,2.25V20a3.75,3.75,0,0,0,3.75-3.75Zm-15.5.5A1.75,1.75,0,0,1,3.25,15V13.5A3.26,3.26,0,0,0,0,16.75Z"/><path class="cls-1" d="M3.75,1.5h9V0h-9ZM14,2.75v9.5h1.5V2.75Zm-12.5,14v-13H0v13ZM12.75,13.5h-4V15h4ZM14,12.25a1.25,1.25,0,0,1-1.25,1.25V15a2.75,2.75,0,0,0,2.75-2.75ZM12.75,1.5A1.25,1.25,0,0,1,14,2.75h1.5A2.75,2.75,0,0,0,12.75,0ZM3.75,0A3.75,3.75,0,0,0,0,3.75H1.5A2.25,2.25,0,0,1,3.75,1.5Z"/><path class="cls-1" d="M5.25,16.13a.61.61,0,0,0-.62.62.62.62,0,0,0,.62.63Zm9,1.25a.63.63,0,0,0,.63-.63.62.62,0,0,0-.63-.62Zm-9,0h9V16.13h-9Z"/></g></g></svg>