<svg xmlns="http://www.w3.org/2000/svg" viewBox="0 0 19.5 21.5"><defs><style>.cls-1,.cls-2{fill:#757a8c;}.cls-2{stroke:#757a8c;stroke-linecap:round;stroke-width:1.5px;}</style></defs><g id="레이어_2" data-name="레이어 2"><g id="레이어_1-2" data-name="레이어 1"><path class="cls-1" d="M16.75,17.25V18h.75v-.75Zm-14,0H2V18h.75ZM16,9.25v8h1.5v-8Zm.75,7.25h-14V18h14ZM3.5,17.25v-8H2v8ZM9.75,3A6.25,6.25,0,0,1,16,9.25h1.5A7.75,7.75,0,0,0,9.75,1.5Zm0-1.5A7.75,7.75,0,0,0,2,9.25H3.5A6.25,6.25,0,0,1,9.75,3Z"/><path class="cls-1" d="M.75,16.5a.75.75,0,0,0,0,1.5Zm18,1.5a.75.75,0,0,0,0-1.5Zm-18,0h18V16.5H.75Z"/><path class="cls-2" d="M9.75.75V2"/><path class="cls-1" d="M9.75,20a2.94,2.94,0,0,1-1.5-.42,1,1,0,0,1-.58-.83H6.17a2.53,2.53,0,0,0,1.27,2.1,4.53,4.53,0,0,0,2.31.65Zm2.08-1.25c0,.13-.13.43-.6.76A2.78,2.78,0,0,1,9.75,20v1.5a4.23,4.23,0,0,0,2.33-.76,2.55,2.55,0,0,0,1.25-2Z"/></g></g></svg>