<svg width="298" height="297" viewBox="0 0 298 297" fill="none" xmlns="http://www.w3.org/2000/svg">
<g clip-path="url(#clip0_2403_2360)">
<path fill-rule="evenodd" clip-rule="evenodd" d="M149 297C231.29 297 298 230.514 298 148.5C298 66.4857 231.29 0 149 0C112.08 0 98.0465 44.1337 72.0167 66.2973C40.0284 93.5344 0 103.281 0 148.5C0 230.514 66.7096 297 149 297Z" fill="#EFEFEF"/>
<g filter="url(#filter0_f_2403_2360)">
<path d="M228.467 99H99.3338C95.2193 99 91.8838 101.843 91.8838 105.349V238.676C91.8838 242.182 95.2193 245.025 99.3338 245.025H228.467C232.582 245.025 235.917 242.182 235.917 238.676V105.349C235.917 101.843 232.582 99 228.467 99Z" fill="white"/>
<path d="M228.467 99H99.3338C95.2193 99 91.8838 101.843 91.8838 105.349V238.676C91.8838 242.182 95.2193 245.025 99.3338 245.025H228.467C232.582 245.025 235.917 242.182 235.917 238.676V105.349C235.917 101.843 232.582 99 228.467 99Z" fill="#E9E9E9"/>
</g>
<path d="M86.917 98.9992C86.917 88.064 95.8116 79.1992 106.784 79.1992H201.15C212.122 79.1992 221.017 88.064 221.017 98.9992V205.424C221.017 216.359 212.122 225.224 201.15 225.224H106.784C95.8116 225.224 86.917 216.359 86.917 205.424V98.9992Z" fill="white"/>
<path fill-rule="evenodd" clip-rule="evenodd" d="M147.447 107.337C151.57 105.367 156.363 105.367 160.486 107.337C162.277 108.193 163.918 109.593 166.191 111.532C166.309 111.632 166.428 111.734 166.55 111.838C167.653 112.778 168.001 113.068 168.353 113.303C169.247 113.903 170.252 114.319 171.308 114.528C171.723 114.61 172.174 114.651 173.619 114.766C173.778 114.779 173.935 114.791 174.089 114.804C177.067 115.04 179.217 115.21 181.089 115.872C185.398 117.394 188.787 120.783 190.309 125.091C190.97 126.963 191.141 129.114 191.377 132.091C191.389 132.246 191.402 132.403 191.415 132.562C191.53 134.007 191.571 134.457 191.653 134.873C191.862 135.929 192.278 136.934 192.877 137.828C193.113 138.18 193.402 138.527 194.343 139.631C194.446 139.753 194.548 139.872 194.649 139.99C196.587 142.263 197.987 143.904 198.843 145.695C200.814 149.818 200.814 154.611 198.843 158.734C197.987 160.525 196.587 162.166 194.649 164.438C194.548 164.556 194.446 164.676 194.343 164.798C193.402 165.901 193.113 166.249 192.877 166.601C192.278 167.495 191.862 168.5 191.653 169.556C191.571 169.971 191.53 170.422 191.415 171.867C191.402 172.026 191.389 172.183 191.377 172.338C191.141 175.315 190.97 177.466 190.309 179.337C188.787 183.646 185.398 187.035 181.089 188.557C179.217 189.218 177.067 189.389 174.089 189.625C173.935 189.637 173.778 189.65 173.619 189.663C172.174 189.778 171.723 189.819 171.308 189.901C170.252 190.11 169.247 190.526 168.353 191.125C168.001 191.361 167.653 191.65 166.55 192.591C166.428 192.694 166.308 192.796 166.191 192.897C163.918 194.835 162.277 196.235 160.486 197.091C156.363 199.062 151.57 199.062 147.447 197.091C145.656 196.235 144.015 194.835 141.742 192.897C141.624 192.796 141.504 192.694 141.383 192.591C140.279 191.65 139.932 191.361 139.58 191.125C138.686 190.526 137.681 190.11 136.625 189.901C136.209 189.819 135.759 189.778 134.314 189.663C134.155 189.65 133.998 189.637 133.843 189.625C130.866 189.389 128.715 189.218 126.843 188.557C122.535 187.035 119.145 183.646 117.624 179.337C116.962 177.465 116.792 175.315 116.556 172.338C116.543 172.183 116.531 172.026 116.518 171.867C116.403 170.422 116.361 169.971 116.279 169.556C116.071 168.5 115.655 167.495 115.055 166.601C114.82 166.249 114.53 165.901 113.59 164.798C113.486 164.676 113.384 164.557 113.284 164.439C111.345 162.166 109.945 160.525 109.089 158.734C107.119 154.611 107.119 149.818 109.089 145.695C109.945 143.904 111.345 142.263 113.284 139.99C113.384 139.872 113.486 139.753 113.59 139.631C114.53 138.527 114.82 138.18 115.055 137.828C115.655 136.934 116.071 135.929 116.279 134.873C116.361 134.457 116.403 134.007 116.518 132.562C116.531 132.403 116.543 132.246 116.556 132.091C116.792 129.114 116.962 126.963 117.624 125.091C119.145 120.783 122.535 117.394 126.843 115.872C128.715 115.21 130.866 115.04 133.843 114.804C133.998 114.791 134.155 114.779 134.314 114.766C135.759 114.651 136.209 114.61 136.625 114.528C137.681 114.319 138.686 113.903 139.58 113.303C139.932 113.068 140.279 112.778 141.383 111.838C141.504 111.734 141.624 111.632 141.742 111.532C144.015 109.593 145.656 108.193 147.447 107.337ZM157.477 113.633C155.257 112.572 152.676 112.572 150.456 113.633C149.598 114.043 148.693 114.776 145.909 117.149C145.863 117.187 145.818 117.226 145.773 117.264C144.86 118.043 144.193 118.611 143.465 119.099C141.804 120.213 139.938 120.985 137.976 121.373C137.117 121.543 136.243 121.612 135.046 121.707C134.988 121.712 134.929 121.717 134.869 121.721C131.222 122.012 130.064 122.134 129.167 122.451C126.847 123.27 125.022 125.095 124.203 127.415C123.886 128.312 123.764 129.47 123.473 133.117C123.469 133.177 123.464 133.236 123.459 133.294C123.364 134.491 123.294 135.365 123.125 136.224C122.737 138.186 121.965 140.052 120.851 141.713C120.363 142.441 119.795 143.108 119.016 144.021C118.978 144.066 118.939 144.111 118.9 144.157C116.528 146.941 115.795 147.846 115.385 148.704C114.323 150.924 114.323 153.505 115.385 155.725C115.795 156.583 116.528 157.488 118.9 160.272C118.939 160.318 118.978 160.363 119.016 160.407C119.795 161.321 120.363 161.988 120.851 162.716C121.965 164.377 122.737 166.243 123.125 168.205C123.294 169.064 123.364 169.938 123.459 171.135C123.464 171.193 123.469 171.252 123.473 171.312C123.764 174.959 123.886 176.117 124.203 177.014C125.022 179.334 126.847 181.159 129.167 181.978C130.064 182.295 131.222 182.416 134.869 182.707L135.046 182.721C136.243 182.817 137.117 182.886 137.976 183.056C139.938 183.443 141.804 184.216 143.465 185.329C144.193 185.817 144.86 186.386 145.773 187.165L145.909 187.28C148.693 189.653 149.598 190.386 150.456 190.796C152.676 191.857 155.257 191.857 157.477 190.796C158.335 190.386 159.24 189.653 162.024 187.28L162.159 187.165C163.073 186.386 163.74 185.817 164.468 185.329C166.129 184.216 167.995 183.443 169.957 183.056C170.816 182.886 171.69 182.817 172.887 182.721L173.064 182.707C176.711 182.416 177.869 182.295 178.766 181.978C181.086 181.159 182.911 179.334 183.73 177.014C184.047 176.117 184.168 174.959 184.459 171.312L184.473 171.135C184.569 169.938 184.638 169.064 184.808 168.205C185.195 166.243 185.968 164.377 187.081 162.716C187.569 161.988 188.138 161.321 188.917 160.407L189.032 160.272C191.405 157.488 192.138 156.583 192.548 155.725C193.609 153.505 193.609 150.924 192.548 148.704C192.138 147.846 191.405 146.941 189.032 144.157L188.917 144.021C188.138 143.108 187.569 142.441 187.081 141.713C185.968 140.052 185.195 138.186 184.808 136.224C184.638 135.365 184.569 134.491 184.473 133.294L184.459 133.117C184.168 129.47 184.047 128.312 183.73 127.415C182.911 125.095 181.086 123.27 178.766 122.451C177.869 122.134 176.711 122.012 173.064 121.721C173.004 121.717 172.945 121.712 172.887 121.707C171.69 121.612 170.816 121.543 169.957 121.373C167.995 120.985 166.129 120.213 164.468 119.099C163.74 118.611 163.073 118.043 162.159 117.264C162.115 117.226 162.07 117.187 162.024 117.149C159.24 114.776 158.335 114.043 157.477 113.633Z" fill="#909090"/>
<path d="M155.419 160.873V143.513C155.419 141.736 157.23 140.164 158.871 140.164H162.083C170.387 140.164 174.556 146.315 174.556 152.364C174.556 158.345 170.524 164.222 162.63 164.222H158.871C156.786 164.222 155.419 162.958 155.419 160.873ZM162.049 157.559H162.664C166.15 157.559 167.995 154.79 167.995 152.022C167.995 149.494 166.32 146.93 162.63 146.93H162.049V157.559Z" fill="#909090"/>
<path d="M144.756 150.009L143.013 154.349H146.225L144.756 150.009ZM148.993 162.209L148.037 159.578H140.928L139.869 162.209C139.22 163.679 138.092 164.362 136.964 164.362C135.187 164.362 133.376 163.132 133.376 161.218C133.376 160.637 133.444 160.193 133.615 159.885L141.749 142.047C142.295 140.85 143.013 140.064 144.824 140.064C146.567 140.064 147.319 140.85 147.832 142.081L155.247 159.885C155.418 160.227 155.486 160.671 155.486 161.218C155.486 163.029 153.709 164.362 151.932 164.362C150.463 164.362 149.506 163.644 148.993 162.209Z" fill="#909090"/>
</g>
<defs>
<filter id="filter0_f_2403_2360" x="80.8838" y="88" width="166.033" height="168.025" filterUnits="userSpaceOnUse" color-interpolation-filters="sRGB">
<feFlood flood-opacity="0" result="BackgroundImageFix"/>
<feBlend mode="normal" in="SourceGraphic" in2="BackgroundImageFix" result="shape"/>
<feGaussianBlur stdDeviation="5.5" result="effect1_foregroundBlur_2403_2360"/>
</filter>
<clipPath id="clip0_2403_2360">
<rect width="298" height="297" fill="white"/>
</clipPath>
</defs>
</svg>
