<svg width="27" height="26" viewBox="0 0 27 26" fill="none" xmlns="http://www.w3.org/2000/svg">
<g filter="url(#filter0_ddd_2430_2251)">
<path fill-rule="evenodd" clip-rule="evenodd" d="M12.875 20C17.8456 20 21.875 15.9706 21.875 11C21.875 6.02944 17.8456 2 12.875 2C7.90444 2 3.875 6.02944 3.875 11C3.875 15.9706 7.90444 20 12.875 20Z" fill="url(#paint0_linear_2430_2251)"/>
</g>
<path fill-rule="evenodd" clip-rule="evenodd" d="M12.875 18.5C17.0171 18.5 20.375 15.1421 20.375 11C20.375 6.85786 17.0171 3.5 12.875 3.5C8.73286 3.5 5.375 6.85786 5.375 11C5.375 15.1421 8.73286 18.5 12.875 18.5Z" fill="url(#paint1_linear_2430_2251)"/>
<path fill-rule="evenodd" clip-rule="evenodd" d="M12.875 17.5C16.4649 17.5 19.375 14.5899 19.375 11C19.375 7.41015 16.4649 4.5 12.875 4.5C9.28515 4.5 6.375 7.41015 6.375 11C6.375 14.5899 9.28515 17.5 12.875 17.5Z" fill="url(#paint2_linear_2430_2251)"/>
<defs>
<filter id="filter0_ddd_2430_2251" x="0.875" y="0" width="26" height="26" filterUnits="userSpaceOnUse" color-interpolation-filters="sRGB">
<feFlood flood-opacity="0" result="BackgroundImageFix"/>
<feColorMatrix in="SourceAlpha" type="matrix" values="0 0 0 0 0 0 0 0 0 0 0 0 0 0 0 0 0 0 127 0" result="hardAlpha"/>
<feOffset dx="1" dy="2"/>
<feGaussianBlur stdDeviation="2"/>
<feColorMatrix type="matrix" values="0 0 0 0 0 0 0 0 0 0 0 0 0 0 0 0 0 0 0.1 0"/>
<feBlend mode="normal" in2="BackgroundImageFix" result="effect1_dropShadow_2430_2251"/>
<feColorMatrix in="SourceAlpha" type="matrix" values="0 0 0 0 0 0 0 0 0 0 0 0 0 0 0 0 0 0 127 0" result="hardAlpha"/>
<feOffset dy="2"/>
<feGaussianBlur stdDeviation="1"/>
<feColorMatrix type="matrix" values="0 0 0 0 0 0 0 0 0 0 0 0 0 0 0 0 0 0 0.1 0"/>
<feBlend mode="normal" in2="effect1_dropShadow_2430_2251" result="effect2_dropShadow_2430_2251"/>
<feColorMatrix in="SourceAlpha" type="matrix" values="0 0 0 0 0 0 0 0 0 0 0 0 0 0 0 0 0 0 127 0" result="hardAlpha"/>
<feOffset dx="1" dy="1"/>
<feGaussianBlur stdDeviation="1"/>
<feColorMatrix type="matrix" values="0 0 0 0 0 0 0 0 0 0 0 0 0 0 0 0 0 0 0.1 0"/>
<feBlend mode="normal" in2="effect2_dropShadow_2430_2251" result="effect3_dropShadow_2430_2251"/>
<feBlend mode="normal" in="SourceGraphic" in2="effect3_dropShadow_2430_2251" result="shape"/>
</filter>
<linearGradient id="paint0_linear_2430_2251" x1="12.875" y1="2" x2="12.875" y2="20" gradientUnits="userSpaceOnUse">
<stop stop-color="white"/>
<stop offset="1" stop-color="#F7F7F7"/>
</linearGradient>
<linearGradient id="paint1_linear_2430_2251" x1="12.875" y1="3.5" x2="12.875" y2="18.5" gradientUnits="userSpaceOnUse">
<stop stop-color="#DADADA"/>
<stop offset="0.629167" stop-color="#F0EFEF"/>
<stop offset="1" stop-color="white"/>
</linearGradient>
<linearGradient id="paint2_linear_2430_2251" x1="12.875" y1="4.5" x2="12.875" y2="17.5" gradientUnits="userSpaceOnUse">
<stop stop-color="white"/>
<stop offset="1" stop-color="#F7F7F7"/>
</linearGradient>
</defs>
</svg>
