<svg width="25" height="25" viewBox="0 0 25 25" fill="none" xmlns="http://www.w3.org/2000/svg">
<path d="M12.1327 23C11.5027 23 10.8727 22.79 10.3827 22.37L8.8027 21.01C8.6427 20.87 8.2427 20.73 8.0327 20.73H6.3127C4.8327 20.73 3.6327 19.53 3.6327 18.05V16.34C3.6327 16.13 3.4927 15.74 3.3527 15.58L2.0027 13.99C1.1827 13.02 1.1827 11.49 2.0027 10.52L3.3527 8.93C3.4927 8.77 3.6327 8.38 3.6327 8.17V6.45C3.6327 4.97 4.8327 3.77 6.3127 3.77H8.0427C8.2527 3.77 8.6527 3.62 8.8127 3.49L10.3927 2.13C11.3727 1.29 12.9027 1.29 13.8827 2.13L15.4627 3.49C15.6227 3.63 16.0227 3.77 16.2327 3.77H17.9327C19.4127 3.77 20.6127 4.97 20.6127 6.45V8.15C20.6127 8.36 20.7627 8.76 20.9027 8.92L22.2627 10.5C23.1027 11.48 23.1027 13.01 22.2627 13.99L20.9027 15.57C20.7627 15.73 20.6127 16.13 20.6127 16.34V18.04C20.6127 19.52 19.4127 20.72 17.9327 20.72H16.2327C16.0227 20.72 15.6227 20.87 15.4627 21L13.8827 22.36C13.3927 22.79 12.7627 23 12.1327 23ZM6.3127 5.27C5.66269 5.27 5.1327 5.8 5.1327 6.45V8.16C5.1327 8.73 4.8627 9.46 4.4927 9.89L3.1427 11.48C2.7927 11.89 2.7927 12.6 3.1427 13.01L4.4927 14.6C4.8627 15.04 5.1327 15.76 5.1327 16.33V18.04C5.1327 18.69 5.66269 19.22 6.3127 19.22H8.0427C8.62269 19.22 9.35269 19.49 9.7927 19.87L11.3727 21.23C11.7827 21.58 12.5027 21.58 12.9127 21.23L14.4927 19.87C14.9327 19.5 15.6627 19.22 16.2427 19.22H17.9427C18.5927 19.22 19.1227 18.69 19.1227 18.04V16.34C19.1227 15.76 19.3927 15.03 19.7727 14.59L21.1327 13.01C21.4827 12.6 21.4827 11.88 21.1327 11.47L19.7727 9.89C19.3927 9.45 19.1227 8.72 19.1227 8.14V6.45C19.1227 5.8 18.5927 5.27 17.9427 5.27H16.2427C15.6627 5.27 14.9327 5 14.4927 4.62L12.9127 3.26C12.5027 2.91 11.7827 2.91 11.3727 3.26L9.7927 4.63C9.35269 5 8.6127 5.27 8.0427 5.27H6.3127Z" fill="white"/>
<path d="M14.559 14.2268C15.1244 14.2268 15.5697 14.0507 15.895 13.6987C16.2257 13.3414 16.391 12.8587 16.391 12.2507C16.391 11.6427 16.2257 11.1627 15.895 10.8108C15.5697 10.4534 15.1244 10.2747 14.559 10.2747L13.839 10.2827V14.2188L14.559 14.2268ZM12.623 9.21875H14.583C15.1697 9.21875 15.6924 9.34675 16.151 9.60275C16.6097 9.85875 16.967 10.2187 17.223 10.6827C17.479 11.1414 17.607 11.6641 17.607 12.2507C17.607 12.8374 17.479 13.3627 17.223 13.8267C16.967 14.2854 16.6097 14.6428 16.151 14.8988C15.6924 15.1548 15.1697 15.2828 14.583 15.2828H12.623V9.21875Z" fill="white"/>
<path d="M12.5552 15.2828H11.2592L10.7152 13.7627H8.51518L7.95518 15.2828H6.65918L8.89918 9.21875H10.3712L12.5552 15.2828ZM10.3392 12.7227L9.63518 10.7308L8.89918 12.7227H10.3392Z" fill="white"/>
</svg>
