<svg width="25" height="25" viewBox="0 0 25 25" fill="none" xmlns="http://www.w3.org/2000/svg">
<path d="M12.7501 13.8008C12.6201 13.8008 12.4901 13.7708 12.3701 13.7008L3.54008 8.59083C3.19008 8.38083 3.06008 7.92083 3.27008 7.56083C3.48008 7.20083 3.94008 7.08083 4.30008 7.29083L12.7501 12.1808L21.1501 7.32083C21.5101 7.11083 21.9701 7.24083 22.1801 7.59083C22.3901 7.95083 22.2601 8.41083 21.9101 8.62083L13.1401 13.7008C13.0101 13.7608 12.8801 13.8008 12.7501 13.8008Z" fill="white"/>
<path d="M12.75 22.8591C12.34 22.8591 12 22.5191 12 22.1091V13.0391C12 12.6291 12.34 12.2891 12.75 12.2891C13.16 12.2891 13.5 12.6291 13.5 13.0391V22.1091C13.5 22.5191 13.16 22.8591 12.75 22.8591Z" fill="white"/>
<path d="M12.7496 23.25C11.8696 23.25 10.9996 23.06 10.3096 22.68L4.96965 19.71C3.51965 18.91 2.38965 16.98 2.38965 15.32V9.67C2.38965 8.01 3.51965 6.09 4.96965 5.28L10.3096 2.32C11.6796 1.56 13.8196 1.56 15.1896 2.32L20.5296 5.29C21.9796 6.09 23.1096 8.02 23.1096 9.68V15.33C23.1096 16.99 21.9796 18.91 20.5296 19.72L15.1896 22.68C14.4996 23.06 13.6296 23.25 12.7496 23.25ZM12.7496 3.25C12.1196 3.25 11.4996 3.38 11.0396 3.63L5.69965 6.6C4.73965 7.13 3.88965 8.57 3.88965 9.67V15.32C3.88965 16.42 4.73965 17.86 5.69965 18.4L11.0396 21.37C11.9496 21.88 13.5496 21.88 14.4596 21.37L19.7996 18.4C20.7596 17.86 21.6096 16.43 21.6096 15.32V9.67C21.6096 8.57 20.7596 7.13 19.7996 6.59L14.4596 3.62C13.9996 3.38 13.3796 3.25 12.7496 3.25Z" fill="white"/>
</svg>
