<svg width="25" height="24" viewBox="0 0 25 24" fill="none" xmlns="http://www.w3.org/2000/svg">
<path d="M15.2642 22.7507H9.86422C4.92422 22.7507 2.82422 20.6407 2.82422 15.7107V11.2207C2.82422 10.8107 3.16422 10.4707 3.57422 10.4707C3.98422 10.4707 4.32422 10.8107 4.32422 11.2207V15.7107C4.32422 19.8007 5.77422 21.2507 9.86422 21.2507H15.2542C19.3442 21.2507 20.7942 19.8007 20.7942 15.7107V11.2207C20.7942 10.8107 21.1342 10.4707 21.5442 10.4707C21.9542 10.4707 22.2942 10.8107 22.2942 11.2207V15.7107C22.3042 20.6407 20.1942 22.7507 15.2642 22.7507Z" fill="white"/>
<path d="M12.5645 12.75C11.4645 12.75 10.4645 12.32 9.75445 11.53C9.04445 10.74 8.71445 9.71 8.82445 8.61L9.49445 1.93C9.53445 1.55 9.85445 1.25 10.2445 1.25H14.9145C15.3045 1.25 15.6245 1.54 15.6645 1.93L16.3345 8.61C16.4445 9.71 16.1145 10.74 15.4045 11.53C14.6645 12.32 13.6645 12.75 12.5645 12.75ZM10.9145 2.75L10.3145 8.76C10.2445 9.43 10.4445 10.06 10.8645 10.52C11.7145 11.46 13.4145 11.46 14.2645 10.52C14.6845 10.05 14.8845 9.42 14.8145 8.76L14.2145 2.75H10.9145Z" fill="white"/>
<path d="M18.8745 12.75C16.8445 12.75 15.0345 11.11 14.8245 9.09L14.1245 2.08C14.1045 1.87 14.1745 1.66 14.3145 1.5C14.4545 1.34 14.6545 1.25 14.8745 1.25H17.9245C20.8645 1.25 22.2345 2.48 22.6445 5.5L22.9245 8.28C23.0445 9.46 22.6845 10.58 21.9145 11.43C21.1445 12.28 20.0645 12.75 18.8745 12.75ZM15.7045 2.75L16.3245 8.94C16.4545 10.19 17.6145 11.25 18.8745 11.25C19.6345 11.25 20.3145 10.96 20.8045 10.43C21.2845 9.9 21.5045 9.19 21.4345 8.43L21.1545 5.68C20.8445 3.42 20.1145 2.75 17.9245 2.75H15.7045Z" fill="white"/>
<path d="M6.20447 12.75C5.01447 12.75 3.93447 12.28 3.16447 11.43C2.39447 10.58 2.03447 9.46 2.15447 8.28L2.42447 5.53C2.84447 2.48 4.21447 1.25 7.15447 1.25H10.2045C10.4145 1.25 10.6145 1.34 10.7645 1.5C10.9145 1.66 10.9745 1.87 10.9545 2.08L10.2545 9.09C10.0445 11.11 8.23447 12.75 6.20447 12.75ZM7.15447 2.75C4.96447 2.75 4.23447 3.41 3.91447 5.7L3.64447 8.43C3.56447 9.19 3.79447 9.9 4.27447 10.43C4.75447 10.96 5.43447 11.25 6.20447 11.25C7.46447 11.25 8.63447 10.19 8.75447 8.94L9.37448 2.75H7.15447Z" fill="white"/>
<path d="M15.0645 22.75H10.0645C9.65445 22.75 9.31445 22.41 9.31445 22V19.5C9.31445 17.4 10.4645 16.25 12.5645 16.25C14.6645 16.25 15.8145 17.4 15.8145 19.5V22C15.8145 22.41 15.4745 22.75 15.0645 22.75ZM10.8145 21.25H14.3145V19.5C14.3145 18.24 13.8245 17.75 12.5645 17.75C11.3045 17.75 10.8145 18.24 10.8145 19.5V21.25Z" fill="white"/>
</svg>
