<svg width="25" height="25" viewBox="0 0 25 25" fill="none" xmlns="http://www.w3.org/2000/svg">
<path d="M12.5346 11.9169C12.5046 11.9169 12.4846 11.9169 12.4546 11.9169C12.4046 11.9069 12.3346 11.9069 12.2746 11.9169C9.37457 11.8269 7.18457 9.54688 7.18457 6.73688C7.18457 3.87688 9.51457 1.54688 12.3746 1.54688C15.2346 1.54688 17.5646 3.87688 17.5646 6.73688C17.5546 9.54688 15.3546 11.8269 12.5646 11.9169C12.5546 11.9169 12.5446 11.9169 12.5346 11.9169ZM12.3746 3.04688C10.3446 3.04688 8.68457 4.70688 8.68457 6.73688C8.68457 8.73688 10.2446 10.3469 12.2346 10.4169C12.2846 10.4069 12.4246 10.4069 12.5546 10.4169C14.5146 10.3269 16.0546 8.71688 16.0646 6.73688C16.0646 4.70688 14.4046 3.04688 12.3746 3.04688Z" fill="white"/>
<path d="M12.5446 22.8469C10.5846 22.8469 8.61461 22.3469 7.12461 21.3469C5.73461 20.4269 4.97461 19.1669 4.97461 17.7969C4.97461 16.4269 5.73461 15.1569 7.12461 14.2269C10.1246 12.2369 14.9846 12.2369 17.9646 14.2269C19.3446 15.1469 20.1146 16.4069 20.1146 17.7769C20.1146 19.1469 19.3546 20.4169 17.9646 21.3469C16.4646 22.3469 14.5046 22.8469 12.5446 22.8469ZM7.95461 15.4869C6.99461 16.1269 6.47461 16.9469 6.47461 17.8069C6.47461 18.6569 7.00461 19.4769 7.95461 20.1069C10.4446 21.7769 14.6446 21.7769 17.1346 20.1069C18.0946 19.4669 18.6146 18.6469 18.6146 17.7869C18.6146 16.9369 18.0846 16.1169 17.1346 15.4869C14.6446 13.8269 10.4446 13.8269 7.95461 15.4869Z" fill="white"/>
</svg>
