<svg width="25" height="25" viewBox="0 0 25 25" fill="none" xmlns="http://www.w3.org/2000/svg">
<path d="M3.125 10.5C3.125 6.72876 3.125 4.84315 4.29657 3.67157C5.46815 2.5 7.35376 2.5 11.125 2.5H13.125C16.8962 2.5 18.7819 2.5 19.9534 3.67157C21.125 4.84315 21.125 6.72876 21.125 10.5V14.5C21.125 18.2712 21.125 20.1569 19.9534 21.3284C18.7819 22.5 16.8962 22.5 13.125 22.5H11.125C7.35376 22.5 5.46815 22.5 4.29657 21.3284C3.125 20.1569 3.125 18.2712 3.125 14.5V10.5Z" stroke="white" stroke-width="1.5"/>
<path d="M8.125 12.5H16.125" stroke="white" stroke-width="1.5" stroke-linecap="round"/>
<path d="M8.125 8.5H16.125" stroke="white" stroke-width="1.5" stroke-linecap="round"/>
<path d="M8.125 16.5H13.125" stroke="white" stroke-width="1.5" stroke-linecap="round"/>
</svg>
