<svg width="25" height="24" viewBox="0 0 25 24" fill="none" xmlns="http://www.w3.org/2000/svg">
<path d="M16.5821 14.2929C16.1916 13.9024 15.5584 13.9024 15.1679 14.2929C14.7774 14.6834 14.7774 15.3166 15.1679 15.7071L16.5821 14.2929ZM21.1679 21.7071C21.5584 22.0976 22.1916 22.0976 22.5821 21.7071C22.9726 21.3166 22.9726 20.6834 22.5821 20.2929L21.1679 21.7071ZM10.875 16C7.56129 16 4.875 13.3137 4.875 10H2.875C2.875 14.4183 6.45672 18 10.875 18V16ZM4.875 10C4.875 6.68629 7.56129 4 10.875 4V2C6.45672 2 2.875 5.58172 2.875 10H4.875ZM10.875 4C14.1887 4 16.875 6.68629 16.875 10H18.875C18.875 5.58172 15.2933 2 10.875 2V4ZM16.875 10C16.875 13.3137 14.1887 16 10.875 16V18C15.2933 18 18.875 14.4183 18.875 10H16.875ZM15.1679 15.7071L21.1679 21.7071L22.5821 20.2929L16.5821 14.2929L15.1679 15.7071Z" fill="black"/>
</svg>
