<svg width="50" height="72" viewBox="0 0 50 72" fill="none" xmlns="http://www.w3.org/2000/svg">
<path fill-rule="evenodd" clip-rule="evenodd" d="M24.3573 0.799342C24.8143 0.55243 25.3659 0.588847 25.7888 0.893844L49.3128 17.8593C49.6841 18.1272 49.9055 18.5661 49.9055 19.0346C49.9055 19.5031 49.6841 19.942 49.3128 20.2098L27.4184 36.0001L49.3128 51.7903C49.6841 52.0581 49.9055 52.497 49.9055 52.9655C49.9055 53.4341 49.6841 53.873 49.3128 54.1408L25.7888 71.1063C25.3659 71.4113 24.8143 71.4477 24.3573 71.2008C23.9004 70.9539 23.614 70.4646 23.614 69.931V38.7438L2.26477 54.1408C1.63772 54.593 0.775237 54.4335 0.33836 53.7844C-0.0985179 53.1353 0.0556456 52.2425 0.682693 51.7903L22.5771 36.0001L0.682693 20.2098C0.0556456 19.7576 -0.0985179 18.8648 0.33836 18.2158C0.775237 17.5667 1.63772 17.4071 2.26477 17.8593L23.614 33.2563V2.0691C23.614 1.53557 23.9004 1.04625 24.3573 0.799342ZM26.3815 38.7438L46.1011 52.9655L26.3815 67.1873V38.7438ZM26.3815 33.2563V4.81283L46.1011 19.0346L26.3815 33.2563Z" fill="white"/>
</svg>
