<svg width="100" height="101" viewBox="0 0 100 101" fill="none" xmlns="http://www.w3.org/2000/svg">
<path d="M49.9935 95.3802C45.4518 95.3802 40.9518 94.0469 37.4102 91.4219L19.4935 78.0469C14.7435 74.5052 11.0352 67.0885 11.0352 61.2135V30.2135C11.0352 23.7969 15.7435 16.9635 21.7852 14.7135L42.5768 6.92187C46.7018 5.38021 53.2018 5.38021 57.3268 6.92187L78.1185 14.7135C84.1602 16.9635 88.8685 23.7969 88.8685 30.2135V61.1719C88.8685 67.0885 85.1602 74.4635 80.4102 78.0052L62.4935 91.3802C59.0352 94.0469 54.5352 95.3802 49.9935 95.3802ZM44.7852 12.7969L23.9935 20.5885C20.4518 21.9219 17.3268 26.4219 17.3268 30.2552V61.2135C17.3268 65.1719 20.1185 70.7135 23.2435 73.0469L41.1602 86.4219C45.9518 90.0052 54.0352 90.0052 58.8685 86.4219L76.7852 73.0469C79.9518 70.6719 82.7018 65.1719 82.7018 61.2135V30.2135C82.7018 26.4219 79.5768 21.9219 76.0352 20.5469L55.2435 12.7552C52.4102 11.7552 47.5768 11.7552 44.7852 12.7969Z" fill="#727272"/>
<path d="M44.3932 59.8047C43.6016 59.8047 42.8099 59.513 42.1849 58.888L35.4766 52.1797C34.2682 50.9714 34.2682 48.9714 35.4766 47.763C36.6849 46.5547 38.6849 46.5547 39.8932 47.763L44.3932 52.263L60.1016 36.5547C61.3099 35.3464 63.3099 35.3464 64.5182 36.5547C65.7266 37.763 65.7266 39.763 64.5182 40.9714L46.6016 58.888C45.9766 59.513 45.1849 59.8047 44.3932 59.8047Z" fill="#727272"/>
</svg>
