<svg width="100" height="101" viewBox="0 0 100 101" fill="none" xmlns="http://www.w3.org/2000/svg">
<path d="M49.9995 58.2048C49.4578 58.2048 48.9162 58.0798 48.4578 57.7882C46.9578 56.9132 46.4578 54.9965 47.2912 53.5382L50.8328 47.3715H47.3328C45.2495 47.3715 43.5412 46.4548 42.6245 44.9132C41.7078 43.3298 41.7912 41.4132 42.8328 39.5798L47.2912 31.8298C48.1662 30.3298 50.0828 29.8298 51.5412 30.6632C53.0412 31.5382 53.5412 33.4548 52.7078 34.9132L49.1662 41.1215H52.6662C54.7495 41.1215 56.4578 42.0382 57.3745 43.5798C58.2912 45.1632 58.2078 47.0798 57.1662 48.9132L52.7078 56.6632C52.1245 57.6632 51.0828 58.2048 49.9995 58.2048Z" fill="#727272"/>
<path d="M61.542 82.7847H38.5837C36.7503 82.7847 34.417 82.5764 32.8753 80.9931C31.3753 79.4514 31.417 77.5347 31.4587 76.2431V72.5347C20.9587 65.5347 14.042 53.3681 14.042 41.7847C14.042 30.8264 18.9587 20.5764 27.5003 13.7014C36.042 6.82641 47.2503 4.24308 58.2087 6.65974C68.6253 8.95141 77.6253 15.9097 82.292 25.2847C91.3337 43.4931 82.6253 63.2014 68.7087 72.5764V75.7014C68.7503 76.9097 68.792 79.1181 67.0837 80.8681C65.792 82.1181 63.9587 82.7847 61.542 82.7847ZM37.667 76.4931C37.8753 76.4931 38.167 76.5347 38.542 76.5347H61.542C61.9587 76.5347 62.2503 76.4931 62.417 76.4514C62.417 76.3264 62.417 76.1597 62.417 76.0347V70.7847C62.417 69.7014 63.0003 68.6597 63.917 68.1181C76.2503 60.6597 84.417 43.6181 76.6253 27.9931C72.792 20.2847 65.3753 14.5764 56.792 12.7014C47.7087 10.7014 38.417 12.8264 31.3337 18.5347C24.2503 24.2431 20.2087 32.7014 20.2087 41.7847C20.2087 53.3681 28.2087 63.3681 36.1253 68.1597C37.0837 68.7431 37.6253 69.7431 37.6253 70.8264V76.4514C37.667 76.4514 37.667 76.4514 37.667 76.4931Z" fill="#727272"/>
<path d="M64.5826 95.2819C64.2909 95.2819 63.9993 95.2402 63.7076 95.1569C54.7076 92.5736 45.2493 92.5736 36.2493 95.1569C34.5826 95.6152 32.8743 94.6569 32.3743 92.9902C31.8743 91.3236 32.8743 89.6152 34.5409 89.1152C44.6243 86.2402 55.3326 86.2402 65.4159 89.1152C67.0826 89.5736 68.0409 91.3236 67.5826 92.9902C67.2076 94.4069 65.9576 95.2819 64.5826 95.2819Z" fill="#727272"/>
</svg>
