<svg width="100" height="101" viewBox="0 0 100 101" fill="none" xmlns="http://www.w3.org/2000/svg">
<path d="M50 66.1172C41.375 66.1172 34.375 59.1172 34.375 50.4922C34.375 41.8672 41.375 34.8672 50 34.8672C58.625 34.8672 65.625 41.8672 65.625 50.4922C65.625 59.1172 58.625 66.1172 50 66.1172ZM50 41.1172C44.8333 41.1172 40.625 45.3255 40.625 50.4922C40.625 55.6589 44.8333 59.8672 50 59.8672C55.1667 59.8672 59.375 55.6589 59.375 50.4922C59.375 45.3255 55.1667 41.1172 50 41.1172Z" fill="#727272"/>
<path d="M63.3752 92.9524C62.5002 92.9524 61.6252 92.8274 60.7502 92.619C58.1668 91.9107 56.0002 90.2857 54.6252 87.994L54.1252 87.1607C51.6668 82.9107 48.2918 82.9107 45.8335 87.1607L45.3752 87.9524C44.0002 90.2857 41.8335 91.9524 39.2502 92.619C36.6252 93.3274 33.9168 92.9524 31.6252 91.5774L24.4585 87.4524C21.9168 85.994 20.0835 83.619 19.2918 80.744C18.5418 77.869 18.9168 74.9107 20.3752 72.369C21.5835 70.244 21.9168 68.3274 21.2085 67.119C20.5002 65.9107 18.7085 65.2024 16.2502 65.2024C10.1668 65.2024 5.2085 60.244 5.2085 54.1607V46.8274C5.2085 40.744 10.1668 35.7857 16.2502 35.7857C18.7085 35.7857 20.5002 35.0774 21.2085 33.869C21.9168 32.6607 21.6252 30.744 20.3752 28.619C18.9168 26.0774 18.5418 23.0774 19.2918 20.244C20.0418 17.369 21.8752 14.994 24.4585 13.5357L31.6668 9.4107C36.3752 6.61903 42.5835 8.24403 45.4168 13.0357L45.9168 13.869C48.3752 18.119 51.7502 18.119 54.2085 13.869L54.6668 13.0774C57.5002 8.24403 63.7085 6.61903 68.4585 9.45237L75.6252 13.5774C78.1668 15.0357 80.0002 17.4107 80.7918 20.2857C81.5418 23.1607 81.1668 26.119 79.7085 28.6607C78.5002 30.7857 78.1668 32.7024 78.8752 33.9107C79.5835 35.119 81.3752 35.8274 83.8335 35.8274C89.9168 35.8274 94.8752 40.7857 94.8752 46.869V54.2024C94.8752 60.2857 89.9168 65.244 83.8335 65.244C81.3752 65.244 79.5835 65.9524 78.8752 67.1607C78.1668 68.369 78.4585 70.2857 79.7085 72.4107C81.1668 74.9524 81.5835 77.9524 80.7918 80.7857C80.0418 83.6607 78.2085 86.0357 75.6252 87.494L68.4168 91.619C66.8335 92.494 65.1252 92.9524 63.3752 92.9524ZM50.0002 77.5357C53.7085 77.5357 57.1668 79.869 59.5418 83.994L60.0002 84.7857C60.5002 85.6607 61.3335 86.2857 62.3335 86.5357C63.3335 86.7857 64.3335 86.6607 65.1668 86.1607L72.3752 81.994C73.4585 81.369 74.2918 80.3274 74.6252 79.0774C74.9585 77.8274 74.7918 76.5357 74.1668 75.4524C71.7918 71.369 71.5002 67.1607 73.3335 63.9524C75.1668 60.744 78.9585 58.9107 83.7085 58.9107C86.3752 58.9107 88.5002 56.7857 88.5002 54.119V46.7857C88.5002 44.1607 86.3752 41.994 83.7085 41.994C78.9585 41.994 75.1668 40.1607 73.3335 36.9524C71.5002 33.744 71.7918 29.5357 74.1668 25.4524C74.7918 24.369 74.9585 23.0774 74.6252 21.8274C74.2918 20.5774 73.5002 19.5774 72.4168 18.9107L65.2085 14.7857C63.4168 13.7024 61.0418 14.3274 59.9585 16.1607L59.5002 16.9524C57.1252 21.0774 53.6668 23.4107 49.9585 23.4107C46.2502 23.4107 42.7918 21.0774 40.4168 16.9524L39.9585 16.119C38.9168 14.369 36.5835 13.744 34.7918 14.7857L27.5835 18.9524C26.5002 19.5774 25.6668 20.619 25.3335 21.869C25.0002 23.119 25.1668 24.4107 25.7918 25.494C28.1668 29.5774 28.4585 33.7857 26.6252 36.994C24.7918 40.2024 21.0002 42.0357 16.2502 42.0357C13.5835 42.0357 11.4585 44.1607 11.4585 46.8274V54.1607C11.4585 56.7857 13.5835 58.9524 16.2502 58.9524C21.0002 58.9524 24.7918 60.7857 26.6252 63.994C28.4585 67.2024 28.1668 71.4107 25.7918 75.494C25.1668 76.5774 25.0002 77.869 25.3335 79.119C25.6668 80.369 26.4585 81.369 27.5418 82.0357L34.7502 86.1607C35.6252 86.7024 36.6668 86.8274 37.6252 86.5774C38.6252 86.3274 39.4585 85.6607 40.0002 84.7857L40.4585 83.994C42.8335 79.9107 46.2918 77.5357 50.0002 77.5357Z" fill="#727272"/>
</svg>
