<svg width="82" height="49" viewBox="0 0 82 49" fill="none" xmlns="http://www.w3.org/2000/svg">
<path d="M58.1677 25.11C58.1677 25.11 58.1677 25.15 58.1677 25.17C51.3277 25.1 44.4877 25.03 37.6577 24.96C37.4777 24.96 37.1977 24.89 37.1477 24.76C37.0777 24.62 37.1677 24.36 37.2677 24.21C37.5877 23.74 37.9777 23.32 38.2777 22.84C38.5777 22.35 38.9777 22.19 39.5377 22.19C47.3477 22.22 55.1677 22.25 62.9777 22.26C68.1077 22.26 73.2477 22.22 78.3777 22.2C79.2377 22.2 79.5177 21.88 79.4277 21.04C79.3877 20.68 79.3677 20.31 79.3277 19.95C79.2477 19.26 79.0377 19.08 78.3377 19.08C69.6277 19.08 60.9277 19.08 52.2177 19.08C48.7877 19.08 45.3577 19.06 41.9277 19.03C41.7377 19.03 41.4377 18.92 41.3777 18.79C41.3177 18.64 41.4577 18.38 41.5777 18.21C41.8777 17.78 42.2477 17.4 42.5377 16.96C42.8377 16.5 43.2177 16.29 43.7577 16.34C44.0177 16.37 44.2877 16.35 44.5477 16.35C54.1077 16.33 63.6677 16.3 73.2177 16.28C74.6977 16.28 76.1777 16.28 77.6577 16.29C78.4377 16.29 78.6377 16 78.3377 15.27C78.2477 15.06 78.1677 14.86 78.0877 14.65C77.7144 13.67 76.9944 13.1833 75.9277 13.19C66.1077 13.24 56.2877 13.28 46.4677 13.32C46.2777 13.32 46.0977 13.22 45.9077 13.16C45.9777 12.96 46.0077 12.75 46.1077 12.57C46.8877 11.16 47.9677 10.33 49.6777 10.75C49.7177 10.75 49.7577 10.75 49.7977 10.75C58.2777 10.72 66.7577 10.68 75.2377 10.64C75.4377 10.64 75.7477 10.53 75.7977 10.4C75.8677 10.22 75.7777 9.93 75.6677 9.75C75.4077 9.36 75.0577 9.04 74.7977 8.66C74.2077 7.75 73.4677 7.43 72.3177 7.44C65.8677 7.51 59.4077 7.47 52.9577 7.47C52.2877 7.47 51.6177 7.48 50.9477 7.47C50.6577 7.47 50.3177 7.37 50.5377 7.03C50.9977 6.3 51.5277 5.6 52.0777 4.93C52.2077 4.77 52.5677 4.74 52.8177 4.74C55.7177 4.74 58.6177 4.74 61.5277 4.74C64.0577 4.74 66.5977 4.78 69.1277 4.77C69.2977 4.77 69.4777 4.58 69.6477 4.47C69.5277 4.28 69.4577 3.99 69.2877 3.91C68.0177 3.34 66.7377 2.76 65.4377 2.28C64.6877 2.01 63.8777 1.82 63.0777 1.77C61.9277 1.69 60.7677 1.77 59.6077 1.77C53.2977 1.79 46.9877 1.8 40.6777 1.85C40.3477 1.85 39.9477 2.09 39.7177 2.34C37.5877 4.6 35.4877 6.88 33.3777 9.15C28.8977 13.98 24.4177 18.82 19.9277 23.65C19.5077 24.1 19.5277 24.31 20.0177 24.76C21.2277 25.87 22.4477 26.98 23.6377 28.1C30.0977 34.17 36.5477 40.25 43.0077 46.31C43.2377 46.52 43.6077 46.68 43.9177 46.68C50.3877 46.68 56.8677 46.64 63.3377 46.61C63.5577 46.61 63.7977 46.6 63.9977 46.52C66.8977 45.43 69.5077 43.87 71.7377 41.7C74.4977 39.03 76.4577 35.85 77.7977 32.27C78.5877 30.16 79.0177 27.99 79.2877 25.78C79.3577 25.21 79.1477 25.01 78.5577 25.04C78.2177 25.06 77.8677 25.09 77.5277 25.09C71.0777 25.09 64.6177 25.09 58.1677 25.09V25.11ZM41.9377 0.12C48.7177 0.12 55.4877 0.08 62.2677 0.15C63.7077 0.16 65.1477 0.54 66.5777 0.79C68.7477 1.17 70.6877 2.1 72.5277 3.28C75.3677 5.11 77.4377 7.63 78.9177 10.62C81.0677 14.94 81.7077 19.55 81.4177 24.33C81.2677 26.71 80.9377 29.04 80.2677 31.33C78.6777 36.76 75.9277 41.46 71.3977 44.95C68.4977 47.18 65.1877 48.39 61.4677 48.38C54.7777 48.36 48.0777 48.38 41.3877 48.38C35.9077 48.37 30.4277 48.29 24.9577 48.3C24.0077 48.3 23.3677 47.98 22.7177 47.35C15.2477 40.06 7.7777 32.79 0.297703 25.53C-0.0922972 25.15 -0.0922972 24.87 0.257703 24.45C2.5477 21.74 4.8177 19.01 7.0977 16.3C8.9477 14.09 10.8077 11.9 12.6577 9.69C15.2177 6.63 17.7877 3.56 20.3277 0.48C20.6177 0.13 20.9277 0 21.3677 0C28.2277 0 35.0777 0 41.9377 0V0.11V0.12Z" fill="white" fill-opacity="0.05"/>
</svg>
