<svg width="18" height="18" viewBox="0 0 18 18" fill="none" xmlns="http://www.w3.org/2000/svg">
<path d="M3.5625 6.75L3 5.25L6.77245 3.76576M11.8125 6.00002C12.9375 9.00002 11.4375 12 8.4375 16.5H9.9375M9.1875 6C14.0625 6 14.8125 3 14.4375 0.75L9.52858 2.68138M9.1875 6C10.5 8.0625 9.5625 9.37549 11.4375 9.56274C13.3125 9.75 14.8125 13.8752 14.0625 16.5002H15.5625M9.1875 6C11.8125 5.24976 12.1875 3 12.1875 1.875M9.52858 2.68138C9.5508 2.78407 9.5625 2.89069 9.5625 3.00003C9.56252 3.82846 8.89096 4.50002 8.06253 4.5C7.51386 4.49999 7.03399 4.20539 6.77245 3.76576M9.52858 2.68138C9.38247 2.00602 8.78155 1.50001 8.06247 1.5C7.23404 1.49998 6.56248 2.17154 6.5625 2.99997C6.56251 3.27972 6.6391 3.5416 6.77245 3.76576" stroke="#178F5E" stroke-linecap="round" stroke-linejoin="round"/>
</svg>
