<svg width="20" height="20" viewBox="0 0 20 20" fill="none" xmlns="http://www.w3.org/2000/svg">
<path d="M1.66699 10.0013C1.66699 6.07293 1.66699 4.10875 2.88738 2.88836C4.10777 1.66797 6.07195 1.66797 10.0003 1.66797C13.9287 1.66797 15.8929 1.66797 17.1133 2.88836C18.3337 4.10875 18.3337 6.07293 18.3337 10.0013C18.3337 13.9297 18.3337 15.8939 17.1133 17.1142C15.8929 18.3346 13.9287 18.3346 10.0003 18.3346C6.07195 18.3346 4.10777 18.3346 2.88738 17.1142C1.66699 15.8939 1.66699 13.9297 1.66699 10.0013Z" stroke="#555555" stroke-width="1.5"/>
<path d="M12.0836 7.91799L7.91699 12.0846M7.91697 7.91797L12.0836 12.0846" stroke="#555555" stroke-width="1.5" stroke-linecap="round"/>
</svg>
