<svg width="24" height="24" viewBox="0 0 24 24" fill="none" xmlns="http://www.w3.org/2000/svg">
<path d="M14 11C14 10.4477 14.4477 10 15 10C15.5523 10 16 10.4477 16 11V13C16 13.5523 15.5523 14 15 14C14.4477 14 14 13.5523 14 13V11Z" stroke="black"/>
<path d="M14.0079 19.0029L13.5079 19.0015V19.0015L14.0079 19.0029ZM14.0137 17L14.5137 17.0015V17H14.0137ZM3.14958 18.8284L2.79646 19.1824L2.79646 19.1824L3.14958 18.8284ZM3.14958 5.17157L2.79646 4.81758V4.81758L3.14958 5.17157ZM2.95308 10.2537L2.7093 10.6902H2.7093L2.95308 10.2537ZM2.01058 8.98947L1.51102 8.96847L2.01058 8.98947ZM2.95308 13.7463L2.7093 13.3098H2.7093L2.95308 13.7463ZM2.01058 15.0105L2.51014 14.9895L2.01058 15.0105ZM21.0469 10.2537L21.2907 10.6902L21.0469 10.2537ZM21.9894 8.98947L22.489 8.96847V8.96847L21.9894 8.98947ZM20.8504 5.17157L21.2035 4.81758V4.81758L20.8504 5.17157ZM21.0469 13.7463L20.8031 14.1829V14.1829L21.0469 13.7463ZM21.9894 15.0105L22.489 15.0315V15.0315L21.9894 15.0105ZM20.8504 18.8284L21.2035 19.1824V19.1824L20.8504 18.8284ZM21.9437 14.332L22.38 14.0878L22.3799 14.0877L21.9437 14.332ZM21.9437 9.66803L22.3799 9.91226L22.38 9.91225L21.9437 9.66803ZM2.05634 14.332L1.62005 14.0877H1.62005L2.05634 14.332ZM2.05634 9.66802L2.49264 9.4238L2.49264 9.4238L2.05634 9.66802ZM14.0137 7H14.5137L14.5137 6.99855L14.0137 7ZM14.0064 4.49855L13.5064 4.5V4.5L14.0064 4.49855ZM16.5278 4.0189L16.5407 3.51907L16.5278 4.0189ZM17.0336 19.9642L17.0547 20.4637H17.0547L17.0336 19.9642ZM13.8595 19.8541L13.5064 19.5L13.5064 19.5L13.8595 19.8541ZM14.5079 19.0044L14.5137 17.0015L13.5137 16.9985L13.5079 19.0015L14.5079 19.0044ZM15.0162 16.5C15.2949 16.5 15.5187 16.725 15.5187 17H16.5187C16.5187 16.1704 15.8448 15.5 15.0162 15.5V16.5ZM15.0162 15.5C14.1876 15.5 13.5137 16.1704 13.5137 17H14.5137C14.5137 16.725 14.7375 16.5 15.0162 16.5V15.5ZM9.99502 4.5H13.5052V3.5H9.99502V4.5ZM13.0079 19.5H9.99502V20.5H13.0079V19.5ZM9.99502 19.5C8.0906 19.5 6.71246 19.4989 5.66146 19.358C4.6247 19.2189 3.9815 18.9521 3.50269 18.4744L2.79646 19.1824C3.49214 19.8764 4.38135 20.1953 5.52853 20.3491C6.66146 20.5011 8.1188 20.5 9.99502 20.5V19.5ZM9.99502 3.5C8.1188 3.5 6.66146 3.49894 5.52853 3.65088C4.38135 3.80474 3.49214 4.12363 2.79646 4.81758L3.50269 5.52557C3.9815 5.04794 4.6247 4.78105 5.66146 4.64201C6.71246 4.50106 8.0906 4.5 9.99502 4.5V3.5ZM2.7093 10.6902C3.17069 10.9479 3.48007 11.4385 3.48007 12H4.48007C4.48007 11.0608 3.96102 10.2439 3.19686 9.81712L2.7093 10.6902ZM2.51014 9.01047C2.58831 7.15109 2.84128 6.18533 3.50269 5.52557L2.79646 4.81758C1.84054 5.77113 1.58975 7.0957 1.51102 8.96847L2.51014 9.01047ZM3.48007 12C3.48007 12.5615 3.17069 13.0521 2.7093 13.3098L3.19687 14.1829C3.96102 13.7562 4.48007 12.9392 4.48007 12H3.48007ZM1.51102 15.0315C1.58975 16.9043 1.84054 18.2289 2.79646 19.1824L3.50269 18.4744C2.84128 17.8147 2.58831 16.8489 2.51014 14.9895L1.51102 15.0315ZM20.5199 12C20.5199 11.4385 20.8293 10.9479 21.2907 10.6902L20.8031 9.81712C20.039 10.2439 19.5199 11.0608 19.5199 12H20.5199ZM22.489 8.96847C22.4102 7.09569 22.1595 5.77113 21.2035 4.81758L20.4973 5.52557C21.1587 6.18533 21.4117 7.15109 21.4899 9.01047L22.489 8.96847ZM21.2907 13.3098C20.8293 13.0521 20.5199 12.5615 20.5199 12H19.5199C19.5199 12.9392 20.039 13.7561 20.8031 14.1829L21.2907 13.3098ZM21.4899 14.9895C21.4117 16.8489 21.1587 17.8147 20.4973 18.4744L21.2035 19.1824C22.1595 18.2289 22.4102 16.9043 22.489 15.0315L21.4899 14.9895ZM20.8031 14.1829C21.0844 14.3399 21.277 14.4477 21.4095 14.5313C21.4751 14.5727 21.5128 14.6 21.533 14.6168C21.5574 14.637 21.5338 14.6234 21.5074 14.5762L22.3799 14.0877C22.319 13.9788 22.235 13.8997 22.1709 13.8467C22.1028 13.7902 22.024 13.7366 21.943 13.6855C21.7824 13.5842 21.5612 13.4609 21.2907 13.3098L20.8031 14.1829ZM22.489 15.0315C22.4964 14.8555 22.5037 14.6913 22.4978 14.5568C22.4918 14.4209 22.4713 14.2509 22.38 14.0878L21.5074 14.5762C21.4852 14.5365 21.4953 14.5208 21.4988 14.6007C21.5023 14.6821 21.498 14.7955 21.4899 14.9895L22.489 15.0315ZM21.2907 10.6902C21.5612 10.5391 21.7824 10.4158 21.943 10.3145C22.024 10.2634 22.1028 10.2098 22.1709 10.1533C22.235 10.1003 22.319 10.0212 22.3799 9.91226L21.5074 9.42379C21.5338 9.37658 21.5574 9.36303 21.533 9.38324C21.5128 9.40001 21.4751 9.42733 21.4095 9.4687C21.277 9.55226 21.0844 9.66005 20.8031 9.81712L21.2907 10.6902ZM21.4899 9.01047C21.498 9.20454 21.5023 9.31791 21.4988 9.39926C21.4953 9.47924 21.4852 9.46347 21.5074 9.4238L22.38 9.91225C22.4713 9.74913 22.4918 9.57911 22.4978 9.4432C22.5037 9.30866 22.4964 9.14447 22.489 8.96847L21.4899 9.01047ZM2.7093 13.3098C2.4388 13.4609 2.21764 13.5842 2.05696 13.6855C1.97596 13.7366 1.89722 13.7902 1.82905 13.8467C1.76505 13.8997 1.68103 13.9788 1.62005 14.0877L2.49264 14.5762C2.46621 14.6234 2.44259 14.637 2.46699 14.6168C2.48724 14.6 2.52491 14.5727 2.59048 14.5313C2.72296 14.4477 2.91562 14.3399 3.19687 14.1829L2.7093 13.3098ZM2.51014 14.9895C2.50198 14.7955 2.49765 14.6821 2.50123 14.6007C2.50475 14.5208 2.51485 14.5365 2.49264 14.5762L1.62005 14.0877C1.52874 14.2509 1.50817 14.4209 1.5022 14.5568C1.49628 14.6913 1.50362 14.8555 1.51102 15.0315L2.51014 14.9895ZM3.19686 9.81712C2.91561 9.66005 2.72296 9.55226 2.59048 9.4687C2.52491 9.42733 2.48724 9.40001 2.46699 9.38324C2.4426 9.36303 2.46621 9.37659 2.49264 9.4238L1.62005 9.91225C1.68103 10.0212 1.76504 10.1003 1.82905 10.1533C1.89721 10.2098 1.97595 10.2634 2.05696 10.3145C2.21763 10.4158 2.4388 10.5391 2.7093 10.6902L3.19686 9.81712ZM1.51102 8.96847C1.50362 9.14447 1.49628 9.30866 1.5022 9.4432C1.50817 9.57911 1.52874 9.74913 1.62005 9.91225L2.49264 9.4238C2.51485 9.46347 2.50475 9.47924 2.50123 9.39926C2.49765 9.31791 2.50198 9.20454 2.51014 9.01047L1.51102 8.96847ZM14.5137 6.99855L14.5064 4.4971L13.5064 4.5L13.5137 7.00145L14.5137 6.99855ZM15.0162 7.5C14.7375 7.5 14.5137 7.27497 14.5137 7H13.5137C13.5137 7.8296 14.1876 8.5 15.0162 8.5V7.5ZM15.5187 7C15.5187 7.27497 15.2949 7.5 15.0162 7.5V8.5C15.8448 8.5 16.5187 7.8296 16.5187 7H15.5187ZM15.5187 4.51618V7H16.5187V4.51618H15.5187ZM16.5149 4.51874C18.6961 4.57499 19.7761 4.80617 20.4973 5.52557L21.2035 4.81758C20.1693 3.78591 18.6943 3.57462 16.5407 3.51907L16.5149 4.51874ZM16.5187 4.51618C16.5187 4.51555 16.5187 4.51619 16.5183 4.51709C16.5181 4.51765 16.5179 4.51771 16.5181 4.51757C16.5182 4.51745 16.5179 4.51777 16.517 4.51816C16.5156 4.51872 16.5145 4.51873 16.5149 4.51874L16.5407 3.51907C15.978 3.50456 15.5187 3.95796 15.5187 4.51618H16.5187ZM13.5052 4.5C13.5064 4.5 13.5064 4.50016 13.5059 4.49997C13.5058 4.49992 13.5061 4.50002 13.5065 4.50044C13.5069 4.50085 13.5069 4.50101 13.5067 4.50056C13.5064 4.49979 13.5064 4.49927 13.5064 4.5L14.5064 4.4971C14.5048 3.94478 14.0559 3.5 13.5052 3.5V4.5ZM17.0547 20.4637C18.926 20.3847 20.2497 20.1338 21.2035 19.1824L20.4973 18.4744C19.8368 19.1333 18.8702 19.3861 17.0125 19.4646L17.0547 20.4637ZM15.5187 17V18.9765H16.5187V17H15.5187ZM13.5079 19.0015C13.5072 19.2506 13.5057 19.3873 13.4927 19.4821C13.4817 19.5625 13.4713 19.535 13.5064 19.5L14.2125 20.2081C14.394 20.0272 14.4572 19.8092 14.4834 19.6181C14.5077 19.4413 14.5072 19.2253 14.5079 19.0044L13.5079 19.0015ZM13.0079 20.5C13.2288 20.5 13.4448 20.5011 13.6216 20.4773C13.8129 20.4516 14.031 20.3891 14.2125 20.2081L13.5064 19.5C13.5415 19.465 13.569 19.4754 13.4885 19.4862C13.3937 19.4989 13.2571 19.5 13.0079 19.5V20.5ZM17.0125 19.4646C16.7621 19.4752 16.6269 19.4797 16.5331 19.4705C16.4565 19.463 16.4842 19.4524 16.5187 19.4855L15.8267 20.2073C16.0151 20.388 16.2377 20.4463 16.4352 20.4657C16.6156 20.4834 16.8339 20.473 17.0547 20.4637L17.0125 19.4646ZM15.5187 18.9765C15.5187 19.2026 15.5175 19.4242 15.5427 19.6053C15.5699 19.8021 15.6366 20.0251 15.8267 20.2073L16.5187 19.4855C16.5548 19.5201 16.5444 19.5489 16.5332 19.468C16.5198 19.3715 16.5187 19.2319 16.5187 18.9765H15.5187Z" fill="black"/>
</svg>
