<svg width="20" height="20" viewBox="0 0 20 20" fill="none" xmlns="http://www.w3.org/2000/svg">
<path d="M16.6667 5H2.5" stroke="#FF1144" stroke-width="1.5" stroke-linecap="round"/>
<path d="M15.2776 7.08398L14.8943 12.8332C14.7468 15.0457 14.673 16.1519 13.9522 16.8263C13.2314 17.5007 12.1227 17.5007 9.90535 17.5007H9.26088C7.04355 17.5007 5.93488 17.5007 5.21404 16.8263C4.4932 16.1519 4.41945 15.0457 4.27196 12.8332L3.88867 7.08398" stroke="#FF1144" stroke-width="1.5" stroke-linecap="round"/>
<path d="M7.5 9.16602L7.91667 13.3327" stroke="#FF1144" stroke-width="1.5" stroke-linecap="round"/>
<path d="M11.6667 9.16602L11.25 13.3327" stroke="#FF1144" stroke-width="1.5" stroke-linecap="round"/>
<path d="M5 5C5.04657 5 5.06985 5 5.09096 4.99947C5.77716 4.98208 6.38252 4.54576 6.61601 3.90027C6.6232 3.88041 6.63056 3.85832 6.64528 3.81415L6.72619 3.57143C6.79526 3.36423 6.82979 3.26063 6.8756 3.17267C7.05834 2.82173 7.39645 2.57803 7.78717 2.51564C7.88511 2.5 7.99431 2.5 8.21272 2.5H10.9539C11.1724 2.5 11.2816 2.5 11.3795 2.51564C11.7702 2.57803 12.1083 2.82173 12.2911 3.17267C12.3369 3.26063 12.3714 3.36423 12.4405 3.57143L12.5214 3.81415C12.5361 3.85826 12.5435 3.88042 12.5507 3.90027C12.7841 4.54576 13.3895 4.98208 14.0757 4.99947C14.0968 5 14.1201 5 14.1667 5" stroke="#FF1144" stroke-width="1.5"/>
</svg>
