<svg width="20" height="20" viewBox="0 0 20 20" fill="none" xmlns="http://www.w3.org/2000/svg">
<path d="M1.66699 10.0013C1.66699 6.07293 1.66699 4.10875 2.88738 2.88836C4.10777 1.66797 6.07195 1.66797 10.0003 1.66797C13.9287 1.66797 15.8929 1.66797 17.1133 2.88836C18.3337 4.10875 18.3337 6.07293 18.3337 10.0013C18.3337 13.9297 18.3337 15.8939 17.1133 17.1142C15.8929 18.3346 13.9287 18.3346 10.0003 18.3346C6.07195 18.3346 4.10777 18.3346 2.88738 17.1142C1.66699 15.8939 1.66699 13.9297 1.66699 10.0013Z" stroke="#555555" stroke-width="1.5"/>
<circle cx="13.3337" cy="6.66862" r="1.66667" stroke="#555555" stroke-width="1.5"/>
<path d="M4.16699 11.0908L4.84241 10.4635C5.61415 9.7467 6.81967 9.78693 7.54189 10.5536L9.74813 12.8955C10.1966 13.3716 10.9308 13.4357 11.4551 13.0446C12.2105 12.4811 13.2623 12.5451 13.9438 13.1962L15.8337 15.0016" stroke="#555555" stroke-width="1.5" stroke-linecap="round"/>
</svg>
