<svg width="25" height="24" viewBox="0 0 25 24" fill="none" xmlns="http://www.w3.org/2000/svg">
<path d="M2.875 12.2039C2.875 9.91549 2.875 8.77128 3.3942 7.82274C3.9134 6.87421 4.86195 6.28551 6.75903 5.10813L8.75903 3.86687C10.7644 2.62229 11.7671 2 12.875 2C13.9829 2 14.9856 2.62229 16.991 3.86687L18.991 5.10812C20.8881 6.28551 21.8366 6.87421 22.3558 7.82274C22.875 8.77128 22.875 9.91549 22.875 12.2039V13.725C22.875 17.6258 22.875 19.5763 21.7034 20.7881C20.5319 22 18.6462 22 14.875 22H10.875C7.10376 22 5.21815 22 4.04657 20.7881C2.875 19.5763 2.875 17.6258 2.875 13.725V12.2039Z" stroke="black" stroke-width="1.5"/>
<path d="M12.875 15L12.875 18" stroke="black" stroke-width="1.5" stroke-linecap="round"/>
</svg>
