<svg width="24" height="24" viewBox="0 0 24 24" fill="none" xmlns="http://www.w3.org/2000/svg">
<path d="M5 17.6637V6.99706C5 6.1175 5 5.67722 5.18509 5.41698C5.34664 5.18985 5.59564 5.04072 5.87207 5.00507C6.18868 4.96423 6.57701 5.17133 7.35254 5.58495L17.3525 10.9183L17.3562 10.9199C18.2132 11.377 18.642 11.6056 18.7826 11.9104C18.9053 12.1763 18.9053 12.4832 18.7826 12.749C18.6418 13.0542 18.212 13.2838 17.3525 13.7422L7.35254 19.0755C6.57645 19.4894 6.1888 19.6957 5.87207 19.6549C5.59564 19.6192 5.34664 19.4701 5.18509 19.243C5 18.9828 5 18.5433 5 17.6637Z" fill="white" stroke="white" stroke-width="2" stroke-linecap="round" stroke-linejoin="round"/>
</svg>
