<svg width="24" height="24" viewBox="0 0 24 24" fill="none" xmlns="http://www.w3.org/2000/svg">
<path d="M1 12.0809C1 7.79255 1 1 12 1C23 1 23 7.79255 23 12.0809C23 16.3692 23 23.1618 12 23.1618C1 23.1618 1 16.3692 1 12.0809Z" fill="#178F5E"/>
<path d="M15.4657 17.8922C15.3724 17.9389 15.2697 17.9809 15.1577 18.0182C15.055 18.0556 14.9524 18.0649 14.8497 18.0462C14.719 18.0369 14.593 17.9996 14.4717 17.9342C14.3504 17.8782 14.2384 17.8082 14.1357 17.7242C14.117 17.7149 14.0797 17.6869 14.0237 17.6402C13.977 17.6029 13.9257 17.5609 13.8697 17.5142C13.8137 17.4676 13.7577 17.4209 13.7017 17.3742C13.655 17.3369 13.6224 17.3089 13.6037 17.2902C13.5384 17.2156 13.473 17.1362 13.4077 17.0522C13.3517 16.9776 13.2957 16.9029 13.2397 16.8282C13.0624 16.9029 12.885 16.9636 12.7077 17.0102C12.5304 17.0662 12.3484 17.1036 12.1617 17.1222C11.863 17.1689 11.5597 17.1736 11.2517 17.1362C10.953 17.0989 10.6684 17.0149 10.3977 16.8842C10.127 16.7536 9.87504 16.5902 9.64171 16.3942C9.41771 16.1982 9.21704 15.9836 9.03971 15.7502C8.89971 15.5636 8.77371 15.3629 8.66171 15.1482C8.55904 14.9336 8.47037 14.7189 8.39571 14.5042C8.10637 13.7202 7.97571 12.8989 8.00371 12.0402C8.02237 11.7136 8.06904 11.3916 8.14371 11.0742C8.21837 10.7569 8.31171 10.4442 8.42371 10.1362C8.67571 9.45489 8.99304 8.78756 9.37571 8.13422C9.54371 7.83556 9.73504 7.54622 9.94971 7.26622C10.1644 6.98622 10.4117 6.73889 10.6917 6.52422C10.869 6.39356 11.0557 6.28156 11.2517 6.18822C11.457 6.09489 11.667 6.03422 11.8817 6.00622C12.0964 5.98756 12.3204 6.01089 12.5537 6.07622C12.787 6.13222 12.983 6.23956 13.1417 6.39822C13.1604 6.41689 13.193 6.45889 13.2397 6.52422C13.2864 6.58022 13.3237 6.60822 13.3517 6.60822C13.4917 6.62689 13.627 6.66422 13.7577 6.72022C13.8977 6.76689 14.0237 6.83222 14.1357 6.91622C14.3224 7.05622 14.481 7.22889 14.6117 7.43422C14.7424 7.63022 14.859 7.83556 14.9617 8.05022C15.279 8.75022 15.4937 9.49222 15.6057 10.2762C15.727 11.0602 15.769 11.8442 15.7317 12.6282C15.713 13.1322 15.6244 13.6269 15.4657 14.1122C15.307 14.5976 15.0877 15.0502 14.8077 15.4702C14.8264 15.4796 14.8544 15.5076 14.8917 15.5542C14.929 15.6009 14.971 15.6522 15.0177 15.7082C15.0644 15.7642 15.1064 15.8156 15.1437 15.8622C15.1904 15.8996 15.2184 15.9276 15.2277 15.9462C15.2837 16.0209 15.335 16.1002 15.3817 16.1842C15.4377 16.2682 15.503 16.3429 15.5777 16.4082C15.6897 16.5296 15.7737 16.6789 15.8297 16.8562C15.895 17.0336 15.8997 17.2016 15.8437 17.3602C15.8064 17.4629 15.7597 17.5609 15.7037 17.6542C15.6477 17.7569 15.5684 17.8362 15.4657 17.8922ZM11.4197 14.4902C11.4944 14.5556 11.583 14.5976 11.6857 14.6162C11.7884 14.6349 11.891 14.6489 11.9937 14.6582C11.9657 14.6022 11.9284 14.5089 11.8817 14.3782C11.835 14.2476 11.7884 14.1122 11.7417 13.9722C11.695 13.8229 11.653 13.6829 11.6157 13.5522C11.5784 13.4216 11.5597 13.3282 11.5597 13.2722C11.5504 13.1136 11.5784 12.9596 11.6437 12.8102C11.7184 12.6516 11.821 12.5349 11.9517 12.4602C12.0357 12.4136 12.129 12.3716 12.2317 12.3342C12.3344 12.2969 12.437 12.2876 12.5397 12.3062C12.6144 12.3249 12.6844 12.3436 12.7497 12.3622C12.8244 12.3809 12.8897 12.4136 12.9457 12.4602C13.0764 12.5629 13.1884 12.6889 13.2817 12.8382C13.375 12.9782 13.459 13.1229 13.5337 13.2722C13.627 12.9736 13.6877 12.6702 13.7157 12.3622C13.753 12.0449 13.767 11.7276 13.7577 11.4102C13.7484 11.0929 13.7204 10.7756 13.6737 10.4582C13.6364 10.1409 13.5757 9.83289 13.4917 9.53422C13.4357 9.33822 13.3704 9.14222 13.2957 8.94622C13.2304 8.75022 13.1417 8.56822 13.0297 8.40022C12.927 8.39089 12.8197 8.39089 12.7077 8.40022C12.605 8.40022 12.5024 8.41422 12.3997 8.44222C12.241 8.48889 12.087 8.49822 11.9377 8.47022C11.639 8.97422 11.373 9.48289 11.1397 9.99622C11.0184 10.2482 10.9064 10.5096 10.8037 10.7802C10.701 11.0416 10.6264 11.3122 10.5797 11.5922C10.533 11.8629 10.519 12.1336 10.5377 12.4042C10.5657 12.6656 10.617 12.9222 10.6917 13.1742C10.7664 13.4169 10.8597 13.6596 10.9717 13.9022C11.0837 14.1356 11.233 14.3316 11.4197 14.4902Z" fill="white"/>
</svg>
