<svg width="18" height="18" viewBox="0 0 18 18" fill="none" xmlns="http://www.w3.org/2000/svg">
<path d="M4.04155 13.9973L4.79155 14.7473M6.29155 13.6223L7.04155 14.3723M8.34124 16.2353C7.13215 16.6586 5.47491 17.0319 4.04147 16.6223C1.41665 15.8723 0.29147 12.1223 3.29151 11.7473C4.97677 11.5367 6.66199 12.036 7.81543 12.5142C9.04153 13.0224 9 12.872 9.75 11.7473C10.3663 10.8231 13.5146 4.32853 14.6176 2.04204C14.8351 1.59125 15.3598 1.38545 15.8273 1.56417C16.3584 1.76721 16.5984 2.38416 16.3441 2.89271L10.8716 13.837C10.3309 14.9186 9.48257 15.8358 8.34124 16.2353ZM16.5 14.3723C16.5 15.2008 15.8284 15.8723 15 15.8723C14.1716 15.8723 13.5 15.2008 13.5 14.3723C13.5 13.5439 14.1716 12.8723 15 12.8723C15.8284 12.8723 16.5 13.5439 16.5 14.3723Z" stroke="#178F5E" stroke-linecap="round" stroke-linejoin="round"/>
</svg>
