<svg width="100" height="100" viewBox="0 0 100 100" fill="none" xmlns="http://www.w3.org/2000/svg">
<path d="M67.459 8.33301H32.5423C17.3757 8.33301 8.33398 17.3747 8.33398 32.5413V67.4163C8.33398 82.6247 17.3757 91.6664 32.5423 91.6664H67.4173C82.584 91.6664 91.6256 82.6247 91.6256 67.458V32.5413C91.6673 17.3747 82.6256 8.33301 67.459 8.33301ZM31.959 22.9163C31.959 21.208 33.3757 19.7913 35.084 19.7913C36.7923 19.7913 38.209 21.208 38.209 22.9163V39.1663C38.209 40.8747 36.7923 42.2913 35.084 42.2913C33.3757 42.2913 31.959 40.8747 31.959 39.1663V22.9163ZM38.5684 68.8893C38.3567 68.9581 38.209 69.1529 38.209 69.3755V77.083C38.209 78.7913 36.7923 80.208 35.084 80.208C33.3757 80.208 31.959 78.7913 31.959 77.083V69.3755C31.959 69.1529 31.8113 68.9581 31.5996 68.8892C27.0355 67.404 23.7506 63.1601 23.7506 58.1247C23.7506 51.8747 28.834 46.7497 35.084 46.7497C41.334 46.7497 46.459 51.833 46.459 58.1247C46.459 63.1602 43.1345 67.4041 38.5684 68.8893ZM68.0423 77.083C68.0423 78.7913 66.6256 80.208 64.9173 80.208C63.209 80.208 61.7923 78.7913 61.7923 77.083V60.833C61.7923 59.1247 63.209 57.708 64.9173 57.708C66.6256 57.708 68.0423 59.1247 68.0423 60.833V77.083ZM64.9173 53.208C58.6673 53.208 53.5423 48.1247 53.5423 41.833C53.5423 36.7975 56.8668 32.5536 61.4329 31.0684C61.6446 30.9996 61.7923 30.8048 61.7923 30.5822V22.9163C61.7923 21.208 63.209 19.7913 64.9173 19.7913C66.6256 19.7913 68.0423 21.208 68.0423 22.9163V30.6239C68.0423 30.8465 68.19 31.0413 68.4017 31.1101C72.9658 32.5953 76.2506 36.8392 76.2506 41.8747C76.2506 48.1247 71.1673 53.208 64.9173 53.208Z" fill="#417042"/>
</svg>
