<svg width="100" height="100" viewBox="0 0 100 100" fill="none" xmlns="http://www.w3.org/2000/svg">
<path d="M91.6673 88.5417H87.5007V62.5C87.5007 41.7917 70.709 25 50.0007 25C29.2923 25 12.5007 41.7917 12.5007 62.5V88.5417H8.33398C6.62565 88.5417 5.20898 89.9583 5.20898 91.6667C5.20898 93.375 6.62565 94.7917 8.33398 94.7917H91.6673C93.3757 94.7917 94.7923 93.375 94.7923 91.6667C94.7923 89.9583 93.3757 88.5417 91.6673 88.5417Z" fill="#417042"/>
<path d="M50 15.6247C48.2917 15.6247 46.875 14.208 46.875 12.4997V8.33301C46.875 6.62467 48.2917 5.20801 50 5.20801C51.7083 5.20801 53.125 6.62467 53.125 8.33301V12.4997C53.125 14.208 51.7083 15.6247 50 15.6247Z" fill="#417042"/>
<path d="M20.832 23.9561C20.0404 23.9561 19.2487 23.6644 18.6237 23.0394L14.457 18.8727C13.2487 17.6644 13.2487 15.6644 14.457 14.4561C15.6654 13.2477 17.6654 13.2477 18.8737 14.4561L23.0404 18.6227C24.2487 19.8311 24.2487 21.8311 23.0404 23.0394C22.4154 23.6644 21.6237 23.9561 20.832 23.9561Z" fill="#417042"/>
<path d="M79.1654 23.9561C78.3737 23.9561 77.582 23.6644 76.957 23.0394C75.7487 21.8311 75.7487 19.8311 76.957 18.6227L81.1237 14.4561C82.332 13.2477 84.332 13.2477 85.5404 14.4561C86.7487 15.6644 86.7487 17.6644 85.5404 18.8727L81.3737 23.0394C80.7487 23.6644 79.957 23.9561 79.1654 23.9561Z" fill="#417042"/>
</svg>
