<svg width="100" height="100" viewBox="0 0 100 100" fill="none" xmlns="http://www.w3.org/2000/svg">
<path d="M83.7506 38.4144C76.209 38.4144 73.1256 33.081 76.8756 26.5394C79.0423 22.7477 77.7506 17.9144 73.959 15.7477L66.7507 11.6227C63.459 9.66437 59.209 10.831 57.2506 14.1227L56.7923 14.9144C53.0423 21.456 46.8756 21.456 43.084 14.9144L42.6256 14.1227C40.7506 10.831 36.5006 9.66437 33.209 11.6227L26.0006 15.7477C22.209 17.9144 20.9173 22.7894 23.084 26.581C26.8757 33.081 23.7923 38.4144 16.2507 38.4144C11.9173 38.4144 8.33398 41.956 8.33398 46.331V53.6644C8.33398 57.9977 11.8757 61.581 16.2507 61.581C23.7923 61.581 26.8757 66.9144 23.084 73.456C20.9173 77.2477 22.209 82.081 26.0006 84.2477L33.209 88.3727C36.5006 90.331 40.7506 89.1644 42.709 85.8727L43.1673 85.081C46.9173 78.5394 53.084 78.5394 56.8756 85.081L57.334 85.8727C59.2923 89.1644 63.5423 90.331 66.834 88.3727L74.0423 84.2477C77.834 82.081 79.1256 77.206 76.959 73.456C73.1673 66.9144 76.2506 61.581 83.7923 61.581C88.1256 61.581 91.709 58.0394 91.709 53.6644V46.331C91.6673 41.9977 88.1256 38.4144 83.7506 38.4144ZM50.0006 63.5394C42.5423 63.5394 36.459 57.456 36.459 49.9977C36.459 42.5394 42.5423 36.456 50.0006 36.456C57.459 36.456 63.5423 42.5394 63.5423 49.9977C63.5423 57.456 57.459 63.5394 50.0006 63.5394Z" fill="#417042"/>
</svg>
