<svg width="100" height="100" viewBox="0 0 100 100" fill="none" xmlns="http://www.w3.org/2000/svg">
<path d="M76.3757 23.6237L27.459 72.5404C25.6257 74.3737 22.5423 74.1237 21.0423 71.957C15.8757 64.4154 12.834 55.4987 12.834 46.332V28.0404C12.834 24.6237 15.4173 20.7487 18.584 19.457L41.7923 9.95703C47.0423 7.79036 52.8757 7.79036 58.1257 9.95703L75.0007 16.832C77.7507 17.957 78.459 21.5404 76.3757 23.6237Z" fill="#417042"/>
<path d="M80.2924 29.3308C83.0007 27.0392 87.1257 28.9975 87.1257 32.5392V46.3308C87.1257 66.7058 72.334 85.7892 52.1257 91.3725C50.7507 91.7475 49.2507 91.7475 47.834 91.3725C41.9173 89.7058 36.4173 86.9142 31.709 83.2475C29.709 81.7058 29.5007 78.7892 31.2507 76.9975C40.334 67.7058 66.9174 40.6225 80.2924 29.3308Z" fill="#417042"/>
</svg>
