<svg width="190" height="20" viewBox="0 0 190 20" fill="none" xmlns="http://www.w3.org/2000/svg">
<path fill-rule="evenodd" clip-rule="evenodd" d="M189.036 8.91504C189.097 9.74122 188.477 10.4604 187.651 10.5214C181.38 10.9842 175.107 11.4621 168.831 11.94C141.191 14.0452 113.506 16.1539 85.8041 17.0038C63.9224 17.6751 42.0253 17.6158 20.1609 17.5565C13.9376 17.5397 7.71691 17.5228 1.5 17.5228C0.671573 17.5228 0 16.8512 0 16.0228C0 15.1944 0.671573 14.5228 1.5 14.5228C7.73543 14.5228 13.9683 14.5397 20.199 14.5566C42.0551 14.6157 63.8855 14.6749 85.7121 14.0052C113.339 13.1576 140.941 11.0554 168.577 8.95061C174.86 8.47215 181.144 7.99355 187.43 7.52953C188.256 7.46855 188.976 8.08886 189.036 8.91504Z" fill="#555555"/>
<path fill-rule="evenodd" clip-rule="evenodd" d="M167.778 0.260015C167.852 0.294585 167.913 0.323726 168.011 0.364813C169.399 0.946761 170.809 1.32009 172.326 1.72163C172.974 1.89294 173.64 2.06939 174.333 2.26936C175.027 2.46999 175.75 2.66523 176.49 2.86524C180.148 3.85334 184.236 4.9579 187.521 7.404C187.776 7.59375 187.953 7.84894 188.047 8.12895C188.223 8.2938 188.361 8.50349 188.443 8.74819C188.705 9.5341 188.28 10.3836 187.494 10.6456C186.392 11.013 184.254 12.0558 183.142 12.7303C181.955 13.4501 180.679 14.0113 179.511 14.5247C179.325 14.6064 179.142 14.687 178.962 14.7667C177.61 15.3675 176.413 15.9423 175.379 16.7205C174.963 17.034 174.596 17.3701 174.212 17.7212C174.163 17.7662 174.114 17.8116 174.064 17.8571L174.052 17.8679C173.678 18.2094 173.158 18.6842 172.604 18.9555C172.296 19.1068 171.873 19.2497 171.378 19.2182C170.852 19.1848 170.402 18.9658 170.047 18.6542C169.433 18.115 169.067 17.2618 168.788 16.3923C168.09 14.222 167.699 12.0019 167.327 9.89351C167.293 9.70127 167.26 9.50995 167.226 9.31969C166.815 7.0041 166.392 4.81489 165.598 2.70687C165.591 2.68873 165.584 2.67032 165.577 2.65173C165.507 2.46614 165.43 2.26162 165.383 2.10303L165.383 2.10275C165.362 2.03196 165.302 1.82842 165.297 1.586C165.293 1.37348 165.339 0.53951 166.185 0.144948C166.51 -0.0065811 166.804 -0.007296 166.961 0.00449786C167.124 0.0167705 167.254 0.0519367 167.326 0.0735671C167.464 0.11526 167.585 0.170736 167.637 0.19425L167.637 0.194511C167.693 0.219993 167.738 0.240839 167.778 0.260015ZM184.171 8.79737C181.712 7.40146 178.875 6.62874 175.885 5.81417C175.099 5.60021 174.303 5.38337 173.5 5.15159C172.949 4.99241 172.365 4.83783 171.764 4.67842C170.915 4.45349 170.029 4.21893 169.147 3.94822C169.597 5.58737 169.9 7.22095 170.18 8.7953C170.212 8.97845 170.244 9.16068 170.276 9.34203C170.655 11.4872 171.012 13.509 171.644 15.4742C171.693 15.6271 171.74 15.7593 171.783 15.8733C171.859 15.8069 171.944 15.7301 172.041 15.6415C172.086 15.6002 172.134 15.557 172.182 15.5122C172.557 15.1682 173.035 14.7305 173.575 14.3237C174.906 13.3215 176.381 12.6306 177.745 12.0249C177.941 11.9377 178.135 11.8523 178.326 11.7682C179.504 11.2491 180.581 10.7748 181.586 10.1653C182.244 9.76645 183.207 9.25685 184.171 8.79737ZM166.371 2.91457C166.371 2.91451 166.373 2.91523 166.377 2.91691C166.373 2.91547 166.371 2.91463 166.371 2.91457Z" fill="#555555"/>
</svg>
