<svg width="190" height="20" viewBox="0 0 190 20" fill="none" xmlns="http://www.w3.org/2000/svg">
<path fill-rule="evenodd" clip-rule="evenodd" d="M0.00256348 11.085C-0.0584259 10.2588 0.56189 9.53959 1.38808 9.47861C7.6588 9.01575 13.9322 8.53795 20.2079 8.05996C47.8482 5.95476 75.5336 3.84612 103.235 2.99622C125.117 2.32486 147.014 2.38421 168.878 2.44346C175.101 2.46033 181.322 2.47719 187.539 2.47719C188.367 2.47719 189.039 3.14876 189.039 3.97719C189.039 4.80562 188.367 5.47719 187.539 5.47719C181.304 5.47719 175.071 5.46031 168.84 5.44344C146.984 5.38426 125.154 5.32514 103.327 5.99481C75.7003 6.84242 48.0981 8.94461 20.4618 11.0494C14.1795 11.5279 7.89542 12.0064 1.6089 12.4705C0.78273 12.5315 0.0635376 11.9111 0.00256348 11.085Z" fill="#555555"/>
<path fill-rule="evenodd" clip-rule="evenodd" d="M21.2608 19.74C21.1875 19.7054 21.1257 19.6763 21.0277 19.6352C19.64 19.0532 18.2297 18.6799 16.7127 18.2784C16.0655 18.1071 15.399 17.9306 14.7065 17.7306C14.0117 17.53 13.289 17.3348 12.5487 17.1348C8.89128 16.1467 4.8028 15.0421 1.51803 12.596C1.26322 12.4062 1.08591 12.1511 0.992027 11.871C0.816202 11.7062 0.677681 11.4965 0.596113 11.2518C0.334141 10.4659 0.758883 9.61642 1.5448 9.35444C2.64711 8.98701 4.78512 7.94418 5.89716 7.26966C7.08374 6.54993 8.36016 5.98874 9.52792 5.47531C9.71383 5.39358 9.89698 5.31305 10.0766 5.23329C11.4293 4.63254 12.6261 4.0577 13.6598 3.27953C14.0763 2.96596 14.4433 2.62987 14.8266 2.27883C14.8758 2.23376 14.9253 2.18843 14.9752 2.14288L14.987 2.13211C15.3611 1.79058 15.8811 1.3158 16.4347 1.04453C16.7435 0.893204 17.1658 0.750292 17.6615 0.781828C18.1867 0.815247 18.6371 1.0342 18.9918 1.34581C19.6056 1.88498 19.9716 2.73816 20.2511 3.60774C20.9487 5.77801 21.3401 7.99807 21.7117 10.1065C21.7456 10.2987 21.7793 10.49 21.8131 10.6803C22.2242 12.9959 22.647 15.1851 23.4413 17.2931C23.4481 17.3113 23.4551 17.3297 23.4621 17.3483C23.5322 17.5339 23.6094 17.7384 23.6562 17.897L23.6563 17.8973C23.6772 17.968 23.7372 18.1716 23.742 18.414C23.7461 18.6265 23.6998 19.4605 22.8543 19.8551C22.5295 20.0066 22.2348 20.0073 22.0779 19.9955C21.9147 19.9832 21.7846 19.9481 21.7132 19.9264C21.5755 19.8847 21.4538 19.8293 21.4022 19.8058L21.4017 19.8055C21.3458 19.78 21.3015 19.7592 21.2608 19.74ZM4.86763 11.2026C7.32703 12.5985 10.1639 13.3713 13.1545 14.1858C13.94 14.3998 14.7361 14.6166 15.5388 14.8484C16.09 15.0076 16.6736 15.1622 17.2754 15.3216C18.1245 15.5465 19.01 15.7811 19.8924 16.0518C19.442 14.4126 19.1388 12.779 18.8593 11.2047C18.8268 11.0216 18.7946 10.8393 18.7626 10.658C18.3838 8.51282 18.0267 6.491 17.3951 4.52576C17.3459 4.37294 17.2994 4.24071 17.2559 4.12672C17.1804 4.19311 17.095 4.26986 16.9979 4.35846C16.9526 4.39981 16.9055 4.44303 16.8566 4.48784C16.4817 4.83178 16.0045 5.26946 15.4641 5.6763C14.1328 6.67848 12.6579 7.36943 11.2942 7.97506C11.0977 8.06234 10.904 8.14768 10.7129 8.23184C9.53456 8.75089 8.4579 9.22515 7.453 9.83469C6.79541 10.2336 5.83213 10.7432 4.86763 11.2026ZM22.668 17.0854C22.6681 17.0855 22.6663 17.0848 22.6625 17.0831C22.666 17.0845 22.6679 17.0854 22.668 17.0854Z" fill="#555555"/>
</svg>
