<svg width="200" height="200" viewBox="0 0 200 200" fill="none" xmlns="http://www.w3.org/2000/svg">
<g opacity="0.4">
<path d="M46.1641 92.6758C7.16406 95.4258 7.16406 152.176 46.1641 154.926H62.1644" stroke="#00423A" stroke-width="10" stroke-miterlimit="10" stroke-linecap="round" stroke-linejoin="round"/>
<path d="M46.5829 92.6726C19.8329 18.2559 132.666 -11.4941 145.582 66.6726C181.666 71.2559 196.25 119.339 168.916 143.256C160.583 150.839 149.833 155.006 138.583 154.923H137.833" stroke="#00423A" stroke-width="10" stroke-miterlimit="10" stroke-linecap="round" stroke-linejoin="round"/>
</g>
<path d="M141.665 137.745C141.665 143.911 140.332 149.745 137.832 154.911C137.165 156.411 136.416 157.828 135.582 159.162C128.416 171.245 115.165 179.411 99.9987 179.411C84.832 179.411 71.5819 171.245 64.4152 159.162C63.5819 157.828 62.8322 156.411 62.1655 154.911C59.6655 149.745 58.332 143.911 58.332 137.745C58.332 114.745 76.9987 96.0781 99.9987 96.0781C122.999 96.0781 141.665 114.745 141.665 137.745Z" stroke="#00423A" stroke-width="10" stroke-miterlimit="10" stroke-linecap="round" stroke-linejoin="round"/>
<path d="M87 137.755L95.2499 146.005L113 129.588" stroke="#00423A" stroke-width="10" stroke-linecap="round" stroke-linejoin="round"/>
</svg>
