<svg width="210" height="210" viewBox="0 0 210 210" fill="none" xmlns="http://www.w3.org/2000/svg">
<path opacity="0.4" d="M155 119V149C155 189 139 205 99 205H61C21 205 5 189 5 149V111C5 71 21 55 61 55H91" stroke="#00423A" stroke-width="10" stroke-linecap="round" stroke-linejoin="round"/>
<path d="M155 119H123C99 119 91 111 91 87V55L155 119Z" stroke="#00423A" stroke-width="10" stroke-linecap="round" stroke-linejoin="round"/>
<path opacity="0.4" d="M55 35C55 18.4 68.4 5 85 5H145" stroke="#00423A" stroke-width="10" stroke-linecap="round" stroke-linejoin="round"/>
<path opacity="0.4" d="M204.998 65V126.9C204.998 142.4 192.398 155 176.898 155" stroke="#00423A" stroke-width="10" stroke-linecap="round" stroke-linejoin="round"/>
<path d="M205 65H175C152.5 65 145 57.5 145 35V5L205 65Z" stroke="#00423A" stroke-width="10" stroke-linecap="round" stroke-linejoin="round"/>
</svg>
