<svg width="156" height="21" viewBox="0 0 156 21" fill="none" xmlns="http://www.w3.org/2000/svg">
<path d="M6.4 12.5062C6.72 12.3262 7.04 12.2362 7.36 12.2362C7.7 12.2362 8.06 12.3262 8.44 12.5062C8.88 12.7062 9.06 12.9662 8.98 13.2862C8.92 13.5862 8.65 13.7363 8.17 13.7363C8.07 13.7363 7.96 13.7462 7.84 13.7662C7.74 13.7862 7.63 13.8162 7.51 13.8562C7.39 13.8762 7.27 13.9162 7.15 13.9762C7.03 14.0362 6.9 14.1062 6.76 14.1862C6.64 14.2662 6.51 14.3562 6.37 14.4562C6.25 14.5362 6.12 14.6362 5.98 14.7562C5.84 14.8562 5.69 14.9762 5.53 15.1162C5.39 15.2562 5.24 15.3962 5.08 15.5362C4.92 15.6962 4.77 15.8462 4.63 15.9862C3.35 17.3462 2.99 18.2862 3.55 18.8062C3.71 18.9662 4 19.0362 4.42 19.0162C4.86 18.9762 5.23 18.8662 5.53 18.6862C5.89 18.4462 6.12 18.3262 6.22 18.3262C6.42 18.3262 6.98 18.0962 7.9 17.6362C10.24 16.5362 12.06 16.0162 13.36 16.0762C13.54 16.0762 13.69 16.0862 13.81 16.1062C13.93 16.1262 14.03 16.1462 14.11 16.1662C14.21 16.1662 14.28 16.1762 14.32 16.1962C14.38 16.2162 14.42 16.2462 14.44 16.2862C14.48 16.3262 14.5 16.3762 14.5 16.4362C14.5 16.8562 13.91 17.1662 12.73 17.3662C12.19 17.4462 11.76 17.5862 11.44 17.7862C11.14 18.0062 10.85 18.1162 10.57 18.1162C10.47 18.1162 10.38 18.1262 10.3 18.1462C10.22 18.1462 10.15 18.1562 10.09 18.1762C10.03 18.1962 9.99 18.2262 9.97 18.2662H9.94C9.94 18.2862 9.92 18.3162 9.88 18.3562C9.86 18.3762 9.82 18.3962 9.76 18.4162C9.72 18.4362 9.66 18.4662 9.58 18.5062C9.5 18.5262 9.41 18.5562 9.31 18.5962C9.21 18.6362 9.1 18.6762 8.98 18.7162C8.38 18.9162 7.81 19.1562 7.27 19.4362C6.67 19.7362 6.09 19.9662 5.53 20.1262C4.95 20.2862 4.39 20.3662 3.85 20.3662C3.31 20.3662 2.96 20.3362 2.8 20.2762C2.64 20.2162 2.43 20.0562 2.17 19.7962C1.15 18.7362 1.26 17.4262 2.5 15.8662C3.24 14.9462 3.87 14.2662 4.39 13.8262C4.91 13.3662 5.58 12.9262 6.4 12.5062ZM21.111 12.7162C21.991 12.7162 22.791 13.1062 23.511 13.8862C23.591 14.0062 23.661 14.1162 23.721 14.2162C23.801 14.2962 23.861 14.3762 23.901 14.4562C23.961 14.5362 24.001 14.6062 24.021 14.6662C24.061 14.7462 24.081 14.8662 24.081 15.0262C24.101 15.1662 24.111 15.3262 24.111 15.5062C24.111 16.1462 23.981 16.6262 23.721 16.9462C23.461 17.2662 23.331 17.5262 23.331 17.7262C23.331 17.7862 23.271 17.8862 23.151 18.0262C23.051 18.1662 22.901 18.3362 22.701 18.5362C22.281 18.9562 22.001 19.1662 21.861 19.1662C21.801 19.1662 21.691 19.2162 21.531 19.3162C21.391 19.4162 21.201 19.5662 20.961 19.7662C20.501 20.1462 19.981 20.3462 19.401 20.3662C19.201 20.3662 19.011 20.3462 18.831 20.3062C18.671 20.2662 18.511 20.2162 18.351 20.1562C18.211 20.0762 18.081 19.9762 17.961 19.8562C17.861 19.7562 17.771 19.6562 17.691 19.5562C17.631 19.4562 17.581 19.3462 17.541 19.2262C17.481 19.0062 17.431 18.5762 17.391 17.9362L17.361 16.4362V16.3762H17.301L16.641 16.4362C15.641 16.5162 15.141 16.3562 15.141 15.9562C15.141 15.6962 15.321 15.4462 15.681 15.2062C15.861 15.0862 16.161 14.9162 16.581 14.6962C17.001 14.4762 17.531 14.1962 18.171 13.8562C19.731 13.0962 20.711 12.7162 21.111 12.7162ZM21.861 14.6662C21.621 14.3662 21.441 14.2162 21.321 14.2162C21.201 14.1962 20.991 14.2762 20.691 14.4562C20.491 14.5962 20.311 14.7762 20.151 14.9962C19.991 15.2162 19.841 15.4862 19.701 15.8062C19.441 16.4262 19.311 17.0062 19.311 17.5462C19.311 17.6862 19.321 17.8062 19.341 17.9062C19.381 18.0062 19.421 18.0962 19.461 18.1762C19.501 18.2562 19.551 18.3162 19.611 18.3562C19.671 18.3962 19.741 18.4262 19.821 18.4462C20.021 18.4662 20.251 18.4062 20.511 18.2662C20.791 18.1062 21.051 17.8862 21.291 17.6062C21.531 17.3262 21.721 17.0362 21.861 16.7362C22.001 16.4962 22.101 16.2862 22.161 16.1062C22.241 15.9062 22.281 15.7362 22.281 15.5962C22.281 15.4562 22.241 15.3162 22.161 15.1762C22.101 15.0162 22.001 14.8462 21.861 14.6662ZM26.5591 12.2362C26.2991 12.3362 26.0791 12.4762 25.8991 12.6562C25.7591 12.8362 25.5691 12.9462 25.3291 12.9862C25.2291 13.0062 25.1291 13.0062 25.0291 12.9862C24.9491 12.9662 24.8891 12.9162 24.8491 12.8363C24.8091 12.7562 24.7891 12.6662 24.7891 12.5662C24.7891 12.4662 24.8191 12.3662 24.8791 12.2662C24.9591 12.0462 25.1191 11.8162 25.3591 11.5762C25.5991 11.3362 25.8891 11.1362 26.2291 10.9762C26.9491 10.5962 27.5091 10.5462 27.9091 10.8262C28.1691 11.0062 28.3591 11.2562 28.4791 11.5762C28.5991 11.8962 28.6591 12.2962 28.6591 12.7762C28.6591 13.4762 28.7191 13.8462 28.8391 13.8862C28.8791 13.9062 28.9391 13.8962 29.0191 13.8562C29.0991 13.7962 29.1991 13.7162 29.3191 13.6162C29.4391 13.4962 29.5791 13.3462 29.7391 13.1662C30.7391 12.1062 31.4891 11.5762 31.9891 11.5762C32.1691 11.5762 32.3891 11.6162 32.6491 11.6962C32.9291 11.7562 33.1791 11.8462 33.3991 11.9662C33.6391 12.0862 33.7791 12.1962 33.8191 12.2962C33.8191 12.3362 33.8191 12.3862 33.8191 12.4462C33.8391 12.4862 33.8591 12.5662 33.8791 12.6862C33.8991 12.7862 33.8791 12.8462 33.8191 12.8662C33.6991 12.9662 33.4391 12.9962 33.0391 12.9562C32.9391 12.9362 32.8491 12.9262 32.7691 12.9262C32.6891 12.9262 32.6091 12.9262 32.5291 12.9262C32.4691 12.9262 32.3991 12.9362 32.3191 12.9562C32.2591 12.9562 32.1991 12.9562 32.1391 12.9562C31.8991 13.0162 31.5391 13.1562 31.0591 13.3762C31.0191 13.3962 30.9691 13.4462 30.9091 13.5262C30.8491 13.5862 30.7691 13.6762 30.6691 13.7962C30.5891 13.8962 30.4991 14.0262 30.3991 14.1862C30.3191 14.2862 30.2391 14.4062 30.1591 14.5462C30.0991 14.6662 30.0191 14.8062 29.9191 14.9662C29.8391 15.1262 29.7591 15.2962 29.6791 15.4762C29.5991 15.6562 29.5091 15.8562 29.4091 16.0762C29.3091 16.2762 29.2091 16.4962 29.1091 16.7362C29.0491 16.8762 28.9991 17.1062 28.9591 17.4262C28.9391 17.7262 28.9291 18.1062 28.9291 18.5662V20.0062L28.8991 20.0362L28.5091 20.2162C28.4091 20.2762 28.3191 20.3162 28.2391 20.3362C28.1591 20.3562 28.0991 20.3562 28.0591 20.3362C27.9791 20.3162 27.8391 20.2162 27.6391 20.0362C27.3591 19.7362 27.2491 19.4862 27.3091 19.2862C27.4891 18.6462 27.5491 17.4162 27.4891 15.5962C27.4491 14.8762 27.4091 14.2662 27.3691 13.7662C27.3291 13.2462 27.2791 12.8562 27.2191 12.5962C27.1791 12.3362 27.1291 12.1962 27.0691 12.1762C27.0691 12.1562 27.0391 12.1462 26.9791 12.1462C26.9391 12.1462 26.8691 12.1562 26.7691 12.1762C26.6891 12.1962 26.6191 12.2162 26.5591 12.2362ZM39.9243 12.1462C40.4043 11.9262 40.8843 11.8162 41.3643 11.8162C41.8643 11.7962 42.2543 11.8962 42.5343 12.1162C42.7143 12.2562 42.8243 12.4062 42.8643 12.5662C42.9243 12.7062 42.9543 12.9662 42.9543 13.3462C42.9543 13.9662 42.8043 14.4962 42.5043 14.9362C42.2243 15.2962 41.6743 15.7662 40.8543 16.3462C40.0343 16.9062 39.4043 17.2562 38.9643 17.3962C38.5443 17.4962 38.3043 17.6762 38.2443 17.9362C38.1043 18.4562 38.2243 18.7962 38.6043 18.9562C38.7843 18.9962 39.2343 18.9062 39.9543 18.6862C40.6743 18.4462 41.2743 18.1762 41.7543 17.8762C41.9743 17.7562 42.1643 17.6462 42.3243 17.5462C42.5043 17.4462 42.6543 17.3662 42.7743 17.3062C42.9143 17.2462 43.0343 17.1962 43.1343 17.1562C43.3543 17.0362 43.5243 16.9462 43.6443 16.8862C43.7843 16.8062 43.8743 16.7562 43.9143 16.7362C43.9543 16.7162 43.9943 16.6962 44.0343 16.6762C44.0743 16.6562 44.1143 16.6362 44.1543 16.6162C44.1943 16.5962 44.2343 16.5762 44.2743 16.5562C44.3143 16.5362 44.3543 16.5162 44.3943 16.4962C44.5343 16.4362 45.1243 16.1662 46.1643 15.6862C46.5843 15.4862 46.9243 15.3362 47.1843 15.2362C47.4443 15.1362 47.6543 15.0862 47.8143 15.0862C47.8943 15.0662 47.9543 15.0662 47.9943 15.0862C48.0543 15.1062 48.0943 15.1362 48.1143 15.1762C48.1743 15.2362 48.2043 15.3562 48.2043 15.5362C48.2043 15.6562 48.1643 15.7762 48.0843 15.8962C48.0043 16.0162 47.8743 16.1362 47.6943 16.2562C47.5743 16.3362 47.3943 16.4362 47.1543 16.5562C46.9343 16.6762 46.6543 16.8262 46.3143 17.0062C45.9743 17.1662 45.5843 17.3562 45.1443 17.5762C44.9043 17.6962 44.6843 17.8062 44.4843 17.9062C44.2843 18.0062 44.1043 18.0962 43.9443 18.1762C43.8043 18.2562 43.6743 18.3262 43.5543 18.3862C43.4543 18.4462 43.3743 18.4962 43.3143 18.5362C43.2543 18.5762 43.2143 18.6062 43.1943 18.6262C43.1743 18.6662 43.1243 18.7162 43.0443 18.7762C42.9843 18.8162 42.8943 18.8762 42.7743 18.9562C42.6543 19.0162 42.5043 19.0962 42.3243 19.1962C42.1643 19.2762 41.9843 19.3662 41.7843 19.4662C41.3643 19.6862 41.0143 19.8462 40.7343 19.9462C40.4743 20.0462 40.3043 20.0962 40.2243 20.0962C40.1043 20.0962 39.9743 20.1162 39.8343 20.1562C39.6943 20.1762 39.5443 20.2162 39.3843 20.2762C39.0043 20.3962 38.5443 20.3662 38.0043 20.1862C37.4643 19.9862 37.0743 19.7062 36.8343 19.3462C36.6743 19.0862 36.5443 18.9362 36.4443 18.8962C36.3843 18.8762 36.2843 18.8662 36.1443 18.8662C36.0243 18.8662 35.8643 18.8762 35.6643 18.8962C35.2843 18.9362 35.0443 18.9462 34.9443 18.9262C34.8443 18.9062 34.7543 18.7862 34.6743 18.5662C34.6143 18.4662 34.5743 18.3862 34.5543 18.3262C34.5543 18.2462 34.5543 18.1862 34.5543 18.1462C34.5943 18.0662 34.7343 17.9162 34.9743 17.6963C35.3543 17.3762 35.6143 17.2162 35.7543 17.2162C36.4143 17.1962 36.8943 16.7262 37.1943 15.8062C37.2943 15.4462 37.4343 15.0862 37.6143 14.7262C37.8143 14.3462 38.0443 13.9862 38.3043 13.6462C38.5643 13.3062 38.8243 13.0162 39.0843 12.7762C39.3643 12.5162 39.6443 12.3062 39.9243 12.1462ZM41.6043 13.3162C41.2843 13.1962 40.9443 13.2562 40.5843 13.4962C40.0443 13.8362 39.6143 14.2362 39.2943 14.6962C38.9743 15.1562 38.9043 15.4762 39.0843 15.6562C39.1443 15.6962 39.2443 15.7062 39.3843 15.6862C39.5243 15.6462 39.7143 15.5562 39.9543 15.4162C40.4543 15.1762 40.8943 14.8862 41.2743 14.5462C41.5743 14.2662 41.7643 14.0262 41.8443 13.8262C41.9243 13.5862 41.8443 13.4162 41.6043 13.3162ZM57.839 14.0662C57.739 14.0062 57.679 13.9462 57.659 13.8862C57.659 13.8662 57.659 13.8362 57.659 13.7962C57.679 13.7562 57.689 13.7062 57.689 13.6462C57.709 13.5862 57.729 13.5162 57.749 13.4362C57.909 12.9962 58.169 12.6262 58.529 12.3262C58.889 12.0462 59.349 11.8462 59.909 11.7262C60.149 11.6662 60.379 11.5562 60.599 11.3962C60.739 11.2762 60.819 11.1062 60.839 10.8862C60.879 10.6662 60.929 10.1962 60.989 9.47625C61.049 7.55625 61.189 5.55625 61.409 3.47625C61.489 2.91625 61.619 2.45625 61.799 2.09625C61.999 1.73625 62.249 1.48625 62.549 1.34625C62.849 1.20625 63.099 1.17625 63.299 1.25625C63.459 1.33625 63.659 1.37625 63.899 1.37625C64.139 1.37625 64.489 1.50625 64.949 1.76625C65.429 2.02625 65.829 2.29625 66.149 2.57625H66.179C66.439 2.83625 66.579 3.01625 66.599 3.11625C66.639 3.23625 66.569 3.40625 66.389 3.62625C66.349 3.66625 66.309 3.69625 66.269 3.71625C66.229 3.73625 66.189 3.75625 66.149 3.77625C66.109 3.77625 66.069 3.77625 66.029 3.77625C65.909 3.75625 65.609 3.62625 65.129 3.38625C64.049 2.82625 63.399 2.71625 63.179 3.05625C63.139 3.11625 63.089 3.36625 63.029 3.80625C62.949 4.26625 62.869 4.88625 62.789 5.66625C62.609 7.28625 62.519 8.44625 62.519 9.14625C62.539 9.82625 62.599 10.2762 62.699 10.4962C62.759 10.5962 62.839 10.6662 62.939 10.7062C63.039 10.7462 63.179 10.7562 63.359 10.7362C63.579 10.6962 63.789 10.6662 63.989 10.6462C64.209 10.6062 64.409 10.5662 64.589 10.5262C64.769 10.4862 64.929 10.4562 65.069 10.4362C65.229 10.3962 65.369 10.3662 65.489 10.3462C65.609 10.3262 65.709 10.3062 65.789 10.2862C65.889 10.2462 65.969 10.2162 66.029 10.1962C66.549 9.97625 67.919 10.0062 70.139 10.2862C70.559 10.3462 70.869 10.4162 71.069 10.4962C71.269 10.5962 71.359 10.7162 71.339 10.8562L71.249 11.0662C71.109 11.2262 70.629 11.2662 69.809 11.1862C68.989 11.1462 68.309 11.1762 67.769 11.2762C67.269 11.3762 66.639 11.4762 65.879 11.5762C65.519 11.5962 65.159 11.6462 64.799 11.7262C64.439 11.7862 64.079 11.8662 63.719 11.9662C63.019 12.1462 62.589 12.3062 62.429 12.4462C62.369 12.5862 62.339 13.7762 62.339 16.0162C62.339 16.5162 62.329 16.9862 62.309 17.4262C62.289 17.8462 62.279 18.2362 62.279 18.5962C62.259 19.2962 62.239 19.6762 62.219 19.7362V19.7662C62.179 19.8062 62.109 19.8662 62.009 19.9462C61.929 20.0062 61.819 20.0762 61.679 20.1562C61.419 20.2962 61.229 20.3562 61.109 20.3362H60.899C60.799 20.3162 60.739 20.3062 60.719 20.3062C60.539 20.3062 60.449 20.2162 60.449 20.0362C60.449 19.8362 60.529 19.6662 60.689 19.5262C60.769 19.4462 60.819 19.2262 60.839 18.8662C60.859 18.4662 60.859 17.5962 60.839 16.2562V15.8362C60.819 14.1962 60.729 13.2862 60.569 13.1062C60.409 12.9262 59.839 13.1262 58.859 13.7062C58.839 13.7262 58.819 13.7462 58.799 13.7662C58.799 13.7662 58.789 13.7662 58.769 13.7662C58.769 13.7662 58.759 13.7762 58.739 13.7962C58.719 13.7962 58.699 13.8062 58.679 13.8262C58.679 13.8262 58.669 13.8362 58.649 13.8562C58.629 13.8562 58.609 13.8562 58.589 13.8562C58.229 14.0762 57.979 14.1462 57.839 14.0662ZM78.1438 12.4162C78.2838 12.2562 78.3938 12.1562 78.4738 12.1162C78.4938 12.1162 78.5338 12.1262 78.5938 12.1462C78.6738 12.1462 78.7538 12.1662 78.8338 12.2062C79.3138 12.4062 79.4738 12.8962 79.3138 13.6762C79.2538 13.9762 79.2338 14.3662 79.2538 14.8462C79.2738 15.3262 79.3338 15.8962 79.4338 16.5562C79.5338 17.2962 79.6338 17.7662 79.7338 17.9662C79.8338 18.1662 80.0538 18.4062 80.3938 18.6862C80.8338 19.0662 81.0538 19.3062 81.0538 19.4062C81.0538 19.4262 81.0438 19.4562 81.0238 19.4962C81.0038 19.5362 80.9538 19.5862 80.8738 19.6462C80.8138 19.6862 80.7438 19.7362 80.6638 19.7962C80.2438 20.0562 79.7638 20.0062 79.2238 19.6462C79.0438 19.5262 78.8738 19.3862 78.7138 19.2262C78.5738 19.0662 78.4538 18.8862 78.3538 18.6862C78.2538 18.4862 78.1638 18.2662 78.0838 18.0262C77.8038 16.9862 77.5438 16.4662 77.3038 16.4662C77.2438 16.4662 77.1838 16.4862 77.1238 16.5262C77.0838 16.5662 77.0338 16.6262 76.9738 16.7062C76.9138 16.7662 76.8638 16.8562 76.8238 16.9762C76.6038 17.2962 76.1038 17.8362 75.3238 18.5962C75.1238 18.7762 74.9338 18.9462 74.7538 19.1062C74.5938 19.2462 74.4338 19.3762 74.2738 19.4962C74.1338 19.6162 74.0038 19.7262 73.8838 19.8262C73.7638 19.9062 73.6438 19.9662 73.5238 20.0062L72.8638 20.3662L72.4438 19.9462C72.2438 19.7462 72.1238 19.4962 72.0838 19.1962C72.0438 18.8962 72.0238 17.9862 72.0238 16.4662C72.0238 15.0862 72.0438 14.2062 72.0838 13.8262C72.1238 13.4262 72.2238 13.0962 72.3838 12.8363C72.4438 12.7362 72.5038 12.6462 72.5638 12.5662C72.6238 12.4862 72.6738 12.4362 72.7138 12.4162C72.8338 12.3562 72.9938 12.3362 73.1938 12.3562C73.3738 12.3762 73.5238 12.4062 73.6438 12.4462C74.0038 12.6062 74.0538 12.9662 73.7938 13.5262C73.5938 13.9462 73.4938 14.7962 73.4938 16.0762C73.4938 16.2962 73.4938 16.4962 73.4938 16.6762C73.4938 16.8562 73.4938 17.0262 73.4938 17.1862C73.5138 17.3262 73.5238 17.4462 73.5238 17.5462C73.5438 17.6462 73.5538 17.7362 73.5538 17.8162C73.5738 17.8962 73.5938 17.9562 73.6138 17.9962C73.6538 18.0362 73.6838 18.0562 73.7038 18.0562C73.8838 18.0562 74.1838 17.8962 74.6038 17.5762C75.0438 17.2362 75.3538 16.9262 75.5338 16.6462C75.8538 16.1862 76.0538 15.8862 76.1338 15.7462C77.0738 14.3462 77.5938 13.4962 77.6938 13.1962C77.7738 12.9562 77.9238 12.6962 78.1438 12.4162ZM87.0105 17.0662C87.1105 16.8462 87.1605 16.2162 87.1605 15.1762C87.1605 14.9162 87.1505 14.6862 87.1305 14.4862C87.1305 14.2662 87.1205 14.0863 87.1005 13.9463C87.0805 13.7862 87.0505 13.6662 87.0105 13.5862C86.9905 13.5062 86.9705 13.4562 86.9505 13.4362C86.5905 13.3162 86.1905 13.6462 85.7505 14.4262C85.7305 14.5062 85.7005 14.5762 85.6605 14.6362C85.6205 14.6962 85.5805 14.7562 85.5405 14.8162C85.5205 14.8562 85.4905 14.9062 85.4505 14.9662C85.4105 15.0262 85.3705 15.0762 85.3305 15.1162C85.3105 15.1562 85.2805 15.1962 85.2405 15.2362C85.2005 15.2762 85.1605 15.3162 85.1205 15.3562C84.8605 15.5962 84.6105 16.0162 84.3705 16.6162C84.0705 17.3162 83.8305 17.8762 83.6505 18.2962C83.4105 18.8562 83.2905 19.2062 83.2905 19.3462C83.2905 19.5262 83.2505 19.6962 83.1705 19.8562C83.1105 19.9962 83.0205 20.1162 82.9005 20.2162C82.7805 20.3162 82.6505 20.3662 82.5105 20.3662C82.1505 20.3662 81.9405 20.2162 81.8805 19.9162C81.8605 19.8562 81.8405 19.7762 81.8205 19.6763C81.8205 19.5762 81.8105 19.4562 81.7905 19.3162C81.7905 19.1762 81.7805 19.0162 81.7605 18.8362C81.7605 18.6362 81.7505 18.4262 81.7305 18.2062C81.7305 17.9662 81.7305 17.7162 81.7305 17.4562C81.7305 17.1762 81.7305 16.8862 81.7305 16.5862C81.7305 15.0062 81.7505 14.0162 81.7905 13.6162C81.8305 13.1962 81.9205 12.8662 82.0605 12.6262C82.1405 12.4862 82.2105 12.3762 82.2705 12.2962C82.6105 11.8962 82.9505 11.8362 83.2905 12.1162L83.6505 12.4162L83.2905 13.4062C83.1905 13.7062 83.1105 13.9662 83.0505 14.1862C83.0105 14.3862 82.9905 14.5462 82.9905 14.6662C82.9905 14.7262 82.9905 14.7862 82.9905 14.8462C83.0105 14.9062 83.0305 14.9662 83.0505 15.0262C83.0705 15.0662 83.0905 15.1062 83.1105 15.1462C83.1505 15.1862 83.1905 15.2262 83.2305 15.2662C83.3505 15.3262 83.4305 15.3562 83.4705 15.3562C83.4905 15.3562 83.5105 15.3462 83.5305 15.3262C83.5705 15.2862 83.6105 15.2262 83.6505 15.1462C83.7305 15.0262 83.9705 14.6962 84.3705 14.1562C84.6305 13.8162 84.9005 13.4362 85.1805 13.0162C85.2805 12.8762 85.4305 12.7362 85.6305 12.5962C85.8305 12.4362 86.0805 12.2762 86.3805 12.1162C86.9405 11.8162 87.2805 11.6662 87.4005 11.6662C87.5805 11.6662 87.8205 11.7862 88.1205 12.0262C88.2805 12.1462 88.4005 12.2662 88.4805 12.3862C88.5605 12.4862 88.6105 12.5862 88.6305 12.6862C88.6705 12.8462 88.7105 13.0062 88.7505 13.1662C88.7905 13.3062 88.8405 13.4462 88.9005 13.5862C88.9605 13.7262 88.9905 13.8862 88.9905 14.0662C89.0105 14.2462 89.0005 14.4362 88.9605 14.6362C88.9205 14.8162 88.8805 15.0362 88.8405 15.2962C88.8005 15.5562 88.7605 15.8662 88.7205 16.2262C88.7005 16.4262 88.6705 16.6162 88.6305 16.7962C88.6105 16.9562 88.5805 17.1062 88.5405 17.2463C88.5205 17.3662 88.5005 17.4662 88.4805 17.5462C88.2605 18.0462 88.1005 18.3962 88.0005 18.5962C87.8605 18.9362 87.7105 19.1562 87.5505 19.2562C87.4705 19.3162 87.3805 19.3562 87.2805 19.3762C87.2005 19.3762 87.1005 19.3562 86.9805 19.3162C86.8405 19.2762 86.7505 19.1962 86.7105 19.0762L86.7705 18.2962C86.8305 17.6962 86.9105 17.2862 87.0105 17.0662ZM94.6293 12.5062C94.9493 12.3262 95.2693 12.2362 95.5893 12.2362C95.9293 12.2362 96.2893 12.3262 96.6693 12.5062C97.1093 12.7062 97.2893 12.9662 97.2093 13.2862C97.1493 13.5862 96.8793 13.7363 96.3993 13.7363C96.2993 13.7363 96.1893 13.7462 96.0693 13.7662C95.9693 13.7862 95.8593 13.8162 95.7393 13.8562C95.6193 13.8762 95.4993 13.9162 95.3793 13.9762C95.2593 14.0362 95.1293 14.1062 94.9893 14.1862C94.8693 14.2662 94.7393 14.3562 94.5993 14.4562C94.4793 14.5362 94.3493 14.6362 94.2093 14.7562C94.0693 14.8562 93.9193 14.9762 93.7593 15.1162C93.6193 15.2562 93.4693 15.3962 93.3093 15.5362C93.1493 15.6962 92.9993 15.8462 92.8593 15.9862C91.5793 17.3462 91.2193 18.2862 91.7793 18.8062C91.9393 18.9662 92.2293 19.0362 92.6493 19.0162C93.0893 18.9762 93.4593 18.8662 93.7593 18.6862C94.1193 18.4462 94.3493 18.3262 94.4493 18.3262C94.6493 18.3262 95.2093 18.0962 96.1293 17.6362C98.4693 16.5362 100.289 16.0162 101.589 16.0762C101.769 16.0762 101.919 16.0862 102.039 16.1062C102.159 16.1262 102.259 16.1462 102.339 16.1662C102.439 16.1662 102.509 16.1762 102.549 16.1962C102.609 16.2162 102.649 16.2462 102.669 16.2862C102.709 16.3262 102.729 16.3762 102.729 16.4362C102.729 16.8562 102.139 17.1662 100.959 17.3662C100.419 17.4462 99.9893 17.5862 99.6693 17.7862C99.3693 18.0062 99.0793 18.1162 98.7993 18.1162C98.6993 18.1162 98.6093 18.1262 98.5293 18.1462C98.4493 18.1462 98.3793 18.1562 98.3193 18.1762C98.2593 18.1962 98.2193 18.2262 98.1993 18.2662H98.1693C98.1693 18.2862 98.1493 18.3162 98.1093 18.3562C98.0893 18.3762 98.0493 18.3962 97.9893 18.4162C97.9493 18.4362 97.8893 18.4662 97.8093 18.5062C97.7293 18.5262 97.6393 18.5562 97.5393 18.5962C97.4393 18.6362 97.3293 18.6762 97.2093 18.7162C96.6093 18.9162 96.0393 19.1562 95.4993 19.4362C94.8993 19.7362 94.3193 19.9662 93.7593 20.1262C93.1793 20.2862 92.6193 20.3662 92.0793 20.3662C91.5393 20.3662 91.1893 20.3362 91.0293 20.2762C90.8693 20.2162 90.6593 20.0562 90.3993 19.7962C89.3793 18.7362 89.4893 17.4262 90.7293 15.8662C91.4693 14.9462 92.0993 14.2662 92.6193 13.8262C93.1393 13.3662 93.8093 12.9262 94.6293 12.5062ZM109.43 9.05625C109.75 8.59625 109.96 8.36625 110.06 8.36625C110.08 8.36625 110.11 8.37625 110.15 8.39625C110.19 8.39625 110.23 8.41625 110.27 8.45625C110.31 8.49625 110.34 8.55625 110.36 8.63625C110.42 8.71625 110.46 8.81625 110.48 8.93625C110.52 9.05625 110.54 9.18625 110.54 9.32625C110.54 9.58625 110.58 9.80625 110.66 9.98625C110.76 10.1662 110.9 10.3062 111.08 10.4062C111.44 10.5862 112.19 10.6862 113.33 10.7062C113.73 10.7262 114.1 10.7462 114.44 10.7662C114.78 10.7862 115.05 10.8162 115.25 10.8562C115.47 10.8962 115.64 10.9362 115.76 10.9762C115.9 10.9962 115.98 11.0262 116 11.0662C116.02 11.0862 116.03 11.1262 116.03 11.1862C116.03 11.2262 116.03 11.2962 116.03 11.3962V11.4262L116 11.8762L113.42 11.9062C112.38 11.9462 111.67 11.9862 111.29 12.0262C111.15 12.0462 111.02 12.0762 110.9 12.1162C110.8 12.1562 110.71 12.1962 110.63 12.2362C110.55 12.2762 110.47 12.3262 110.39 12.3862C110.31 12.4862 110.22 12.6262 110.12 12.8062C110.04 12.9662 109.95 13.1862 109.85 13.4662C109.61 14.1862 109.54 15.1462 109.64 16.3462C109.7 16.9462 109.78 17.4262 109.88 17.7862C110 18.1462 110.16 18.3862 110.36 18.5062C110.42 18.5462 110.52 18.5462 110.66 18.5062C110.8 18.4862 110.96 18.4262 111.14 18.3262C111.24 18.2862 111.33 18.2462 111.41 18.2062C111.51 18.1462 111.61 18.0862 111.71 18.0262C111.91 17.9062 112.11 17.7762 112.31 17.6362C112.51 17.4962 112.71 17.3562 112.91 17.2162C112.99 17.1362 113.08 17.0562 113.18 16.9762C113.3 16.8762 113.42 16.7662 113.54 16.6462C113.68 16.5062 113.83 16.3662 113.99 16.2262C114.17 16.0662 114.36 15.8962 114.56 15.7162C114.76 15.5162 114.97 15.3162 115.19 15.1162C116.51 13.8562 117.36 13.0862 117.74 12.8062C117.92 12.6662 118.07 12.5762 118.19 12.5362C118.33 12.4962 118.43 12.4962 118.49 12.5362C118.65 12.6562 118.75 12.7662 118.79 12.8662C118.81 12.9062 118.8 12.9662 118.76 13.0462C118.74 13.1262 118.7 13.2262 118.64 13.3462C118.56 13.4862 118.46 13.6262 118.34 13.7662C118.22 13.9062 118.08 14.0662 117.92 14.2462C117.58 14.5862 117.08 15.0862 116.42 15.7462C115.6 16.5462 114.95 17.1762 114.47 17.6362C114.01 18.0962 113.71 18.3762 113.57 18.4762C112.97 18.9562 112.33 19.3962 111.65 19.7962C110.99 20.1762 110.54 20.3662 110.3 20.3662C110.06 20.3662 109.75 20.2362 109.37 19.9762C108.99 19.6962 108.77 19.4662 108.71 19.2862C108.63 19.0462 108.48 18.6762 108.26 18.1762C108.04 17.6562 107.93 16.5562 107.93 14.8762V12.3562V12.2962H107.87H106.37C105.29 12.2962 104.48 12.1562 103.94 11.8762C103.66 11.7362 103.48 11.5862 103.4 11.4262C103.34 11.2462 103.36 11.0562 103.46 10.8562C103.54 10.7362 103.7 10.6562 103.94 10.6162C104.18 10.5962 104.83 10.6162 105.89 10.6762L108.14 10.7962H108.17L108.2 10.7662L108.53 10.2862C108.83 9.88625 109.05 9.58625 109.19 9.38625C109.33 9.18625 109.41 9.07625 109.43 9.05625ZM123.184 1.28625C123.284 1.04625 123.444 0.896249 123.664 0.83625C123.784 0.796249 123.934 0.786249 124.114 0.806248C124.274 0.846249 124.454 0.90625 124.654 0.98625C124.854 1.06625 125.024 1.15625 125.164 1.25625C125.204 1.29625 125.244 1.34625 125.284 1.40625C125.324 1.44625 125.344 1.50625 125.344 1.58625C125.364 1.64625 125.374 1.70625 125.374 1.76625C125.354 1.98625 125.294 2.16625 125.194 2.30625C125.054 2.42625 124.794 2.48625 124.414 2.48625C124.214 2.48625 124.024 2.45625 123.844 2.39625C123.684 2.31625 123.544 2.19625 123.424 2.03625C123.244 1.87625 123.134 1.74625 123.094 1.64625C123.054 1.54625 123.084 1.42625 123.184 1.28625ZM122.044 15.6562C122.044 15.5562 122.054 15.4462 122.074 15.3262C122.094 15.2062 122.124 15.0762 122.164 14.9362C122.184 14.8562 122.254 14.6462 122.374 14.3062C122.394 14.1862 122.414 14.0762 122.434 13.9762C122.474 13.8762 122.504 13.7962 122.524 13.7363C122.544 13.6562 122.564 13.5862 122.584 13.5262C122.784 12.8662 122.944 12.4062 123.064 12.1462H123.094C123.154 12.0262 123.204 11.8362 123.244 11.5762C123.304 11.2962 123.354 10.9662 123.394 10.5862C123.454 9.82625 123.444 9.40625 123.364 9.32625C123.304 9.30625 123.224 9.30625 123.124 9.32625C123.044 9.34625 122.924 9.39625 122.764 9.47625C122.624 9.55625 122.454 9.67625 122.254 9.83625C121.694 10.2762 121.264 10.7362 120.964 11.2162C120.704 11.6162 120.434 11.7462 120.154 11.6062C120.074 11.5662 120.004 11.5062 119.944 11.4262C119.884 11.3262 119.834 11.2162 119.794 11.0962C119.774 10.9762 119.764 10.8362 119.764 10.6762C119.764 10.2762 119.894 9.91625 120.154 9.59625C120.614 9.05625 121.414 8.49625 122.554 7.91625C122.894 7.73625 123.284 7.63625 123.724 7.61625C124.184 7.61625 124.504 7.69625 124.684 7.85625C124.864 8.01625 124.954 8.53625 124.954 9.41625C124.954 9.63625 124.944 9.84625 124.924 10.0462C124.924 10.2262 124.914 10.3962 124.894 10.5562C124.894 10.7162 124.874 10.8662 124.834 11.0062C124.814 11.1262 124.784 11.2362 124.744 11.3362C124.664 11.6162 124.554 11.9962 124.414 12.4762C124.274 12.9562 124.104 13.5362 123.904 14.2162C123.844 14.5562 123.754 14.8762 123.634 15.1762C123.574 15.3362 123.524 15.4962 123.484 15.6562C123.444 15.7962 123.404 15.9362 123.364 16.0762C123.364 16.1762 123.334 16.3762 123.274 16.6762C123.214 16.9762 123.164 17.1962 123.124 17.3362C123.084 17.5562 123.054 17.7462 123.034 17.9062C123.034 18.0462 123.054 18.1262 123.094 18.1462C123.194 18.2462 123.424 18.1162 123.784 17.7562C123.824 17.7162 123.854 17.6762 123.874 17.6362C123.914 17.5962 123.954 17.5562 123.994 17.5162C124.034 17.4762 124.074 17.4362 124.114 17.3962C126.214 15.0562 127.264 13.7862 127.264 13.5862C127.264 13.3862 127.594 12.8362 128.254 11.9362C128.434 11.7362 128.624 11.6162 128.824 11.5762C128.924 11.5562 129.014 11.5662 129.094 11.6062C129.174 11.6262 129.234 11.6862 129.274 11.7862C129.314 11.9262 129.254 12.2562 129.094 12.7762C129.014 13.0162 128.934 13.2162 128.854 13.3762C128.794 13.5362 128.724 13.6562 128.644 13.7363L128.494 14.1262C128.494 14.3062 128.394 14.4962 128.194 14.6962C128.074 14.7762 127.974 14.8762 127.894 14.9962C127.814 15.0962 127.744 15.2162 127.684 15.3562C127.524 15.6962 126.744 16.5662 125.344 17.9662C123.944 19.3462 123.114 20.0962 122.854 20.2162C122.614 20.3162 122.394 20.3662 122.194 20.3662C122.014 20.3462 121.854 20.2662 121.714 20.1262C121.594 19.9862 121.494 19.8062 121.414 19.5862C121.354 19.3662 121.324 19.0962 121.324 18.7762C121.324 18.0162 121.494 17.2362 121.834 16.4362C121.974 16.1362 122.044 15.8762 122.044 15.6562ZM136.224 12.7162C137.104 12.7162 137.904 13.1062 138.624 13.8862C138.704 14.0062 138.774 14.1162 138.834 14.2162C138.914 14.2962 138.974 14.3762 139.014 14.4562C139.074 14.5362 139.114 14.6062 139.134 14.6662C139.174 14.7462 139.194 14.8662 139.194 15.0262C139.214 15.1662 139.224 15.3262 139.224 15.5062C139.224 16.1462 139.094 16.6262 138.834 16.9462C138.574 17.2662 138.444 17.5262 138.444 17.7262C138.444 17.7862 138.384 17.8862 138.264 18.0262C138.164 18.1662 138.014 18.3362 137.814 18.5362C137.394 18.9562 137.114 19.1662 136.974 19.1662C136.914 19.1662 136.804 19.2162 136.644 19.3162C136.504 19.4162 136.314 19.5662 136.074 19.7662C135.614 20.1462 135.094 20.3462 134.514 20.3662C134.314 20.3662 134.124 20.3462 133.944 20.3062C133.784 20.2662 133.624 20.2162 133.464 20.1562C133.324 20.0762 133.194 19.9762 133.074 19.8562C132.974 19.7562 132.884 19.6562 132.804 19.5562C132.744 19.4562 132.694 19.3462 132.654 19.2262C132.594 19.0062 132.544 18.5762 132.504 17.9362L132.474 16.4362V16.3762H132.414L131.754 16.4362C130.754 16.5162 130.254 16.3562 130.254 15.9562C130.254 15.6962 130.434 15.4462 130.794 15.2062C130.974 15.0862 131.274 14.9162 131.694 14.6962C132.114 14.4762 132.644 14.1962 133.284 13.8562C134.844 13.0962 135.824 12.7162 136.224 12.7162ZM136.974 14.6662C136.734 14.3662 136.554 14.2162 136.434 14.2162C136.314 14.1962 136.104 14.2762 135.804 14.4562C135.604 14.5962 135.424 14.7762 135.264 14.9962C135.104 15.2162 134.954 15.4862 134.814 15.8062C134.554 16.4262 134.424 17.0062 134.424 17.5462C134.424 17.6862 134.434 17.8062 134.454 17.9062C134.494 18.0062 134.534 18.0962 134.574 18.1762C134.614 18.2562 134.664 18.3162 134.724 18.3562C134.784 18.3962 134.854 18.4262 134.934 18.4462C135.134 18.4662 135.364 18.4062 135.624 18.2662C135.904 18.1062 136.164 17.8862 136.404 17.6062C136.644 17.3262 136.834 17.0362 136.974 16.7362C137.114 16.4962 137.214 16.2862 137.274 16.1062C137.354 15.9062 137.394 15.7362 137.394 15.5962C137.394 15.4562 137.354 15.3162 137.274 15.1762C137.214 15.0162 137.114 14.8462 136.974 14.6662ZM145.182 17.0662C145.282 16.8462 145.332 16.2162 145.332 15.1762C145.332 14.9162 145.322 14.6862 145.302 14.4862C145.302 14.2662 145.292 14.0863 145.272 13.9463C145.252 13.7862 145.222 13.6662 145.182 13.5862C145.162 13.5062 145.142 13.4562 145.122 13.4362C144.762 13.3162 144.362 13.6462 143.922 14.4262C143.902 14.5062 143.872 14.5762 143.832 14.6362C143.792 14.6962 143.752 14.7562 143.712 14.8162C143.692 14.8562 143.662 14.9062 143.622 14.9662C143.582 15.0262 143.542 15.0762 143.502 15.1162C143.482 15.1562 143.452 15.1962 143.412 15.2362C143.372 15.2762 143.332 15.3162 143.292 15.3562C143.032 15.5962 142.782 16.0162 142.542 16.6162C142.242 17.3162 142.002 17.8762 141.822 18.2962C141.582 18.8562 141.462 19.2062 141.462 19.3462C141.462 19.5262 141.422 19.6962 141.342 19.8562C141.282 19.9962 141.192 20.1162 141.072 20.2162C140.952 20.3162 140.822 20.3662 140.682 20.3662C140.322 20.3662 140.112 20.2162 140.052 19.9162C140.032 19.8562 140.012 19.7762 139.992 19.6763C139.992 19.5762 139.982 19.4562 139.962 19.3162C139.962 19.1762 139.952 19.0162 139.932 18.8362C139.932 18.6362 139.922 18.4262 139.902 18.2062C139.902 17.9662 139.902 17.7162 139.902 17.4562C139.902 17.1762 139.902 16.8862 139.902 16.5862C139.902 15.0062 139.922 14.0162 139.962 13.6162C140.002 13.1962 140.092 12.8662 140.232 12.6262C140.312 12.4862 140.382 12.3762 140.442 12.2962C140.782 11.8962 141.122 11.8362 141.462 12.1162L141.822 12.4162L141.462 13.4062C141.362 13.7062 141.282 13.9662 141.222 14.1862C141.182 14.3862 141.162 14.5462 141.162 14.6662C141.162 14.7262 141.162 14.7862 141.162 14.8462C141.182 14.9062 141.202 14.9662 141.222 15.0262C141.242 15.0662 141.262 15.1062 141.282 15.1462C141.322 15.1862 141.362 15.2262 141.402 15.2662C141.522 15.3262 141.602 15.3562 141.642 15.3562C141.662 15.3562 141.682 15.3462 141.702 15.3262C141.742 15.2862 141.782 15.2262 141.822 15.1462C141.902 15.0262 142.142 14.6962 142.542 14.1562C142.802 13.8162 143.072 13.4362 143.352 13.0162C143.452 12.8762 143.602 12.7362 143.802 12.5962C144.002 12.4362 144.252 12.2762 144.552 12.1162C145.112 11.8162 145.452 11.6662 145.572 11.6662C145.752 11.6662 145.992 11.7862 146.292 12.0262C146.452 12.1462 146.572 12.2662 146.652 12.3862C146.732 12.4862 146.782 12.5862 146.802 12.6862C146.842 12.8462 146.882 13.0062 146.922 13.1662C146.962 13.3062 147.012 13.4462 147.072 13.5862C147.132 13.7262 147.162 13.8862 147.162 14.0662C147.182 14.2462 147.172 14.4362 147.132 14.6362C147.092 14.8162 147.052 15.0362 147.012 15.2962C146.972 15.5562 146.932 15.8662 146.892 16.2262C146.872 16.4262 146.842 16.6162 146.802 16.7962C146.782 16.9562 146.752 17.1062 146.712 17.2463C146.692 17.3662 146.672 17.4662 146.652 17.5462C146.432 18.0462 146.272 18.3962 146.172 18.5962C146.032 18.9362 145.882 19.1562 145.722 19.2562C145.642 19.3162 145.552 19.3562 145.452 19.3762C145.372 19.3762 145.272 19.3562 145.152 19.3162C145.012 19.2762 144.922 19.1962 144.882 19.0762L144.942 18.2962C145.002 17.6962 145.082 17.2862 145.182 17.0662ZM148.571 12.2662C148.891 12.1062 149.161 12.0062 149.381 11.9662C149.621 11.9262 150.031 11.9262 150.611 11.9662C151.831 12.0062 152.731 12.1362 153.311 12.3562C153.451 12.3962 153.581 12.4562 153.701 12.5362C153.821 12.5962 153.921 12.6662 154.001 12.7462C154.101 12.8262 154.181 12.9162 154.241 13.0162C154.301 13.1162 154.351 13.2262 154.391 13.3462C154.451 13.4662 154.471 13.5862 154.451 13.7062C154.431 13.8062 154.371 13.9062 154.271 14.0062C154.151 14.1062 154.061 14.1662 154.001 14.1862C153.961 14.1862 153.851 14.1262 153.671 14.0062C153.431 13.8462 153.111 13.7362 152.711 13.6762C152.491 13.6562 152.141 13.6062 151.661 13.5262C151.341 13.4262 151.201 13.4462 151.241 13.5862C151.241 13.8062 151.521 14.0662 152.081 14.3662C152.641 14.7062 153.181 15.1662 153.701 15.7462C154.781 16.8862 155.301 17.7862 155.261 18.4462C155.241 18.7662 155.081 19.0862 154.781 19.4062C154.501 19.7062 154.071 20.0062 153.491 20.3062C152.591 20.3662 151.561 20.3662 150.401 20.3062C149.221 19.8062 148.461 19.1862 148.121 18.4462C147.901 18.0062 147.861 17.7062 148.001 17.5462C148.141 17.3662 148.261 17.3062 148.361 17.3662C148.481 17.4062 148.731 17.6162 149.111 17.9962C149.851 18.7762 150.881 19.1662 152.201 19.1662C152.281 19.1662 152.351 19.1662 152.411 19.1662C152.491 19.1662 152.561 19.1662 152.621 19.1662C152.681 19.1662 152.731 19.1662 152.771 19.1662C152.831 19.1462 152.881 19.1362 152.921 19.1362C153.081 19.1162 153.201 19.0862 153.281 19.0462C153.381 18.9862 153.501 18.8962 153.641 18.7762C153.741 18.6962 153.811 18.6262 153.851 18.5662C153.911 18.4862 153.951 18.4262 153.971 18.3862C154.011 18.3462 154.031 18.3062 154.031 18.2662C154.031 18.2062 153.981 18.0962 153.881 17.9362C153.781 17.7562 153.631 17.5362 153.431 17.2762C153.231 16.9962 153.051 16.7762 152.891 16.6162C152.751 16.4362 152.631 16.3162 152.531 16.2562C152.491 16.1962 152.351 16.0862 152.111 15.9262C152.051 15.8862 151.991 15.8462 151.931 15.8062C151.891 15.7662 151.851 15.7362 151.811 15.7162C151.771 15.6762 151.731 15.6462 151.691 15.6262C151.651 15.5862 151.621 15.5562 151.601 15.5362C151.401 15.3962 151.211 15.2862 151.031 15.2062C150.871 15.1062 150.721 15.0362 150.581 14.9962C150.441 14.9762 150.321 14.9462 150.221 14.9062C150.121 14.8462 150.041 14.7862 149.981 14.7262C149.941 14.6662 149.881 14.6162 149.801 14.5762C149.741 14.5362 149.661 14.5162 149.561 14.5162C149.381 14.4762 149.171 14.3762 148.931 14.2162C148.671 14.0562 148.431 13.8562 148.211 13.6162C148.011 13.3762 147.891 13.2062 147.851 13.1062C147.831 12.9062 147.861 12.7562 147.941 12.6562C147.981 12.6162 148.051 12.5662 148.151 12.5062C148.271 12.4262 148.411 12.3462 148.571 12.2662Z" fill="black"/>
</svg>
