<svg width="423" height="75" viewBox="0 0 423 75" fill="none" xmlns="http://www.w3.org/2000/svg">
<path d="M63.9291 27.8958C63.9291 27.8958 63.9291 27.9403 63.9291 27.9625C56.4116 27.8847 48.8941 27.8069 41.3876 27.7292C41.1898 27.7292 40.882 27.6514 40.8271 27.507C40.7502 27.3515 40.8491 27.0626 40.959 26.896C41.3107 26.3738 41.7393 25.9072 42.069 25.374C42.3987 24.8296 42.8383 24.6519 43.4538 24.6519C52.0374 24.6852 60.6319 24.7185 69.2155 24.7296C74.8536 24.7296 80.5027 24.6852 86.1408 24.663C87.086 24.663 87.3937 24.3075 87.2948 23.3743C87.2508 22.9743 87.2289 22.5633 87.1849 22.1633C87.097 21.3968 86.8662 21.1968 86.0968 21.1968C76.5241 21.1968 66.9624 21.1968 57.3897 21.1968C53.62 21.1968 49.8503 21.1746 46.0805 21.1413C45.8717 21.1413 45.542 21.0191 45.4761 20.8747C45.4101 20.708 45.564 20.4192 45.6959 20.2303C46.0256 19.7526 46.4322 19.3304 46.7509 18.8416C47.0807 18.3306 47.4983 18.0973 48.0918 18.1528C48.3775 18.1862 48.6743 18.1639 48.96 18.1639C59.4669 18.1417 69.9738 18.1084 80.4697 18.0862C82.0963 18.0862 83.7229 18.0862 85.3495 18.0973C86.2068 18.0973 86.4266 17.7751 86.0968 16.9641C85.9979 16.7308 85.91 16.5086 85.8221 16.2753C85.4118 15.1866 84.6205 14.646 83.4481 14.6534C72.6555 14.7089 61.8628 14.7533 51.0702 14.7978C50.8614 14.7978 50.6636 14.6867 50.4547 14.62C50.5317 14.3978 50.5646 14.1645 50.6745 13.9646C51.5318 12.3981 52.7188 11.4761 54.5981 11.9427C54.6421 11.9427 54.6861 11.9427 54.73 11.9427C64.05 11.9093 73.3699 11.8649 82.6898 11.8205C82.9096 11.8205 83.2503 11.6982 83.3053 11.5538C83.3822 11.3539 83.2833 11.0317 83.1624 10.8317C82.8766 10.3984 82.492 10.0429 82.2062 9.62078C81.5578 8.60982 80.7445 8.25432 79.4806 8.26543C72.3917 8.3432 65.2919 8.29876 58.203 8.29876C57.4667 8.29876 56.7303 8.30987 55.9939 8.29876C55.6752 8.29876 55.3015 8.18766 55.5433 7.80994C56.0489 6.99895 56.6314 6.22129 57.2359 5.47696C57.3787 5.29921 57.7744 5.26588 58.0492 5.26588C61.2364 5.26588 64.4236 5.26588 67.6219 5.26588C70.4024 5.26588 73.194 5.31032 75.9746 5.29921C76.1615 5.29921 76.3593 5.08813 76.5461 4.96592C76.4142 4.75484 76.3373 4.43267 76.1505 4.34379C74.7547 3.71056 73.3479 3.06621 71.9191 2.53295C71.0948 2.233 70.2046 2.02192 69.3254 1.96637C68.0615 1.8775 66.7866 1.96637 65.5117 1.96637C58.5767 1.98859 51.6417 1.9997 44.7067 2.05525C44.344 2.05525 43.9044 2.32187 43.6516 2.59961C41.3107 5.11035 39.0027 7.6433 36.6837 10.1651C31.7599 15.531 26.8362 20.908 21.9015 26.2738C21.4399 26.7738 21.4619 27.0071 22.0004 27.507C23.3303 28.7401 24.6711 29.9733 25.979 31.2175C33.0788 37.961 40.1677 44.7155 47.2675 51.4479C47.5203 51.6812 47.9269 51.8589 48.2676 51.8589C55.3785 51.8589 62.5003 51.8145 69.6111 51.7811C69.8529 51.7811 70.1167 51.77 70.3365 51.6812C73.5237 50.4702 76.3923 48.7371 78.8431 46.3264C81.8765 43.3602 84.0306 39.8274 85.5034 35.8502C86.3716 33.5061 86.8442 31.0953 87.1409 28.6402C87.2179 28.0069 86.9871 27.7847 86.3386 27.8181C85.965 27.8403 85.5803 27.8736 85.2066 27.8736C78.1178 27.8736 71.0179 27.8736 63.9291 27.8736V27.8958ZM46.0915 0.133313C53.5431 0.133313 60.9836 0.0888756 68.4352 0.166642C70.0178 0.177751 71.6004 0.59991 73.172 0.877646C75.557 1.29981 77.6891 2.33298 79.7114 3.6439C82.8327 5.67693 85.1077 8.47651 86.7343 11.7982C89.0972 16.5975 89.8006 21.719 89.4819 27.0293C89.317 29.6733 88.9544 32.2618 88.218 34.8059C86.4705 40.8383 83.4481 46.0598 78.4695 49.937C75.2822 52.4144 71.6444 53.7586 67.5559 53.7475C60.2033 53.7253 52.8397 53.7475 45.487 53.7475C39.4643 53.7364 33.4415 53.6475 27.4297 53.6586C26.3856 53.6586 25.6822 53.3031 24.9678 52.6032C16.7579 44.5044 8.54806 36.4279 0.327189 28.3624C-0.101439 27.9403 -0.101439 27.6292 0.283228 27.1626C2.80005 24.1519 5.29488 21.1191 7.80071 18.1084C9.83395 15.6532 11.8782 13.2202 13.9114 10.7651C16.725 7.36556 19.5495 3.95496 22.3411 0.533253C22.6598 0.144423 23.0005 0 23.4841 0C31.0236 0 38.5521 0 46.0915 0V0.122204V0.133313Z" fill="#288F4A"/>
<path d="M63.9287 27.8959C71.0176 27.8959 78.1174 27.8959 85.2063 27.8959C85.58 27.8959 85.9646 27.8626 86.3383 27.8404C86.9868 27.8071 87.2176 28.0293 87.1406 28.6625C86.8439 31.1177 86.3713 33.5395 85.503 35.8725C84.0303 39.8608 81.8652 43.3825 78.8428 46.3487C76.3919 48.7484 73.5234 50.4926 70.3362 51.7035C70.1164 51.7924 69.8526 51.8035 69.6108 51.8035C62.5 51.8368 55.3782 51.8812 48.2673 51.8812C47.9266 51.8812 47.509 51.7035 47.2672 51.4702C40.1564 44.7379 33.0675 37.9833 25.9786 31.2399C24.6598 29.9845 23.3299 28.7625 22.0001 27.5293C21.4616 27.0294 21.4396 26.7961 21.9012 26.2962C26.8249 20.9303 31.7486 15.5534 36.6834 10.1875C39.0024 7.65454 41.3104 5.12158 43.6513 2.62196C43.9151 2.34422 44.3547 2.07759 44.7064 2.07759C51.6414 2.02205 58.5764 2.01094 65.5114 1.98872C66.7863 1.98872 68.0612 1.89984 69.3251 1.98872C70.2043 2.05538 71.0945 2.25535 71.9188 2.5553C73.3586 3.08855 74.7544 3.7329 76.1502 4.36614C76.337 4.45502 76.4139 4.77719 76.5458 4.98827C76.359 5.09936 76.1611 5.31044 75.9743 5.32155C73.1937 5.32155 70.4021 5.29933 67.6215 5.28822C64.4343 5.27712 61.2471 5.26601 58.0488 5.28822C57.7741 5.28822 57.3894 5.32155 57.2356 5.4993C56.6201 6.24364 56.0486 7.0213 55.543 7.83229C55.3012 8.22112 55.6639 8.3211 55.9936 8.3211C56.73 8.3211 57.4663 8.3211 58.2027 8.3211C65.2916 8.3211 72.3914 8.36554 79.4803 8.28777C80.7442 8.27667 81.5575 8.63217 82.2059 9.64313C82.4807 10.0764 82.8763 10.4319 83.1621 10.8541C83.294 11.054 83.3819 11.3762 83.305 11.5762C83.25 11.7206 82.9093 11.8428 82.6895 11.8428C73.3696 11.8983 64.0496 11.9317 54.7297 11.965C54.6858 11.965 54.6418 11.965 54.5978 11.965C52.7185 11.4984 51.5315 12.4205 50.6742 13.9869C50.5643 14.1869 50.5314 14.4202 50.4544 14.6424C50.6632 14.709 50.8611 14.8201 51.0699 14.8201C61.8625 14.7757 72.6552 14.7313 83.4478 14.6757C84.6201 14.6757 85.4115 15.2164 85.8218 16.2977C85.9097 16.531 86.0086 16.7532 86.0965 16.9865C86.4262 17.7975 86.2064 18.1196 85.3492 18.1196C83.7226 18.1196 82.096 18.0974 80.4694 18.1085C69.9625 18.1307 59.4556 18.1641 48.9597 18.1863C48.674 18.1863 48.3772 18.2085 48.0915 18.1752C47.487 18.1196 47.0804 18.3529 46.7506 18.864C46.4319 19.3528 46.0363 19.7749 45.6956 20.2526C45.5637 20.4415 45.4208 20.7304 45.4757 20.897C45.5307 21.0414 45.8604 21.1636 46.0802 21.1636C49.85 21.197 53.6197 21.2192 57.3894 21.2192C66.9621 21.2192 76.5238 21.2192 86.0965 21.2192C86.8659 21.2192 87.0967 21.4191 87.1846 22.1857C87.2285 22.5856 87.2505 22.9967 87.2945 23.3966C87.3934 24.3298 87.0967 24.6742 86.1405 24.6853C80.5024 24.7075 74.8533 24.752 69.2152 24.752C60.6316 24.752 52.048 24.7186 43.4535 24.6742C42.838 24.6742 42.3984 24.852 42.0687 25.3963C41.739 25.9296 41.3104 26.3962 40.9587 26.9183C40.8488 27.085 40.7608 27.3849 40.8268 27.5293C40.8927 27.6627 41.1895 27.7404 41.3873 27.7515C48.9048 27.8404 56.4223 27.9182 63.9287 27.9848C63.9287 27.9626 63.9287 27.9404 63.9287 27.9182V27.8959Z" fill="white"/>
<path d="M121.353 3.92188H124.98C119.683 10.8764 118.254 17.5532 118.254 23.6078C118.254 29.6625 119.683 36.3281 124.98 43.2938H121.353C116.1 38.5167 113.242 30.8956 113.242 23.6078C113.242 16.32 116.1 8.69894 121.353 3.92188Z" fill="black"/>
<path d="M127.595 6.52148H153.632V10.432H143.246C144.224 15.0091 149.84 17.9642 156.127 19.3751L153.269 22.6635C148.708 21.5526 143.246 19.1196 140.641 15.1757C138.366 18.553 134.201 21.1415 128.134 22.6635L124.991 19.2862C131.508 17.842 136.926 15.1202 137.992 10.432H127.606V6.52148H127.595ZM157.457 29.8291H143.114V42.2272H138.432V29.8291H123.848V25.9186H157.457V29.8291Z" fill="black"/>
<path d="M160.084 43.2938H156.457C161.754 36.3392 163.183 29.6625 163.183 23.6078C163.183 17.5532 161.754 10.8875 156.457 3.92188H160.084C165.337 8.69894 168.195 16.32 168.195 23.6078C168.195 30.8956 165.337 38.5167 160.084 43.2938Z" fill="black"/>
<path d="M187.386 35.7618C187.386 38.1948 190.606 39.3057 195.739 39.3057C200.871 39.3057 204.092 38.1948 204.092 35.7618C204.092 33.4622 200.871 32.2179 195.739 32.2179C190.606 32.2179 187.386 33.451 187.386 35.7618ZM209.257 35.8063C209.257 40.1278 204.575 42.9274 195.728 42.9274C186.88 42.9274 182.209 40.1278 182.209 35.8063C182.209 31.4847 186.979 28.6851 195.728 28.6851C204.476 28.6851 209.257 31.4847 209.257 35.8063ZM208.4 6.27734V10.1879H187.826V14.5539H208.762V18.4311H198.168V22.5082H212.554V26.4188H178.945V22.5082H193.288V18.4311H184.243C183.385 18.4311 183.144 18.1422 183.144 17.2757V7.43273C183.144 6.56619 183.429 6.27734 184.287 6.27734H208.4Z" fill="black"/>
<path d="M244.404 32.5844H239.843V5.36621H244.404V32.5844ZM221.105 41.5164C220.247 41.5164 220.005 41.2275 220.005 40.361V29.6515H224.643V37.5614H245.295V41.5164H221.094H221.105ZM213.202 24.0967C219.236 21.586 222.61 17.22 222.61 12.3985V10.8321H215.686V6.92153H234.381V10.8321H227.457V12.5207C227.457 17.4644 231.567 21.4083 236.172 22.9747L233.282 26.352C229.578 24.6633 226.237 21.6193 225.05 19.5196C224.028 22.1081 220.247 25.4854 216.533 27.2629L213.191 24.0967H213.202Z" fill="black"/>
<path d="M278.31 5.36621V32.4621H273.705V17.8866H266.935V13.7316H273.705V5.36621H278.31ZM255.01 41.5164C254.153 41.5164 253.911 41.2275 253.911 40.361V29.4959H258.56V37.5725H279.211V41.5275H255.01V41.5164ZM246.613 24.5078C252.647 21.9971 256.021 17.631 256.021 12.8095V10.8321H249.416V6.92153H267.55V10.8321H260.868V12.9317C260.868 17.8754 264.989 21.8193 269.594 23.3857L266.704 26.763C262.989 25.0744 259.659 22.0304 258.472 19.9307C257.45 22.5192 253.669 25.8965 249.954 27.674L246.613 24.5078Z" fill="black"/>
<path d="M311.731 42.2274H307.137V5.36621H311.731V42.2162V42.2274ZM299.762 7.47701C300.619 7.47701 300.905 7.76585 300.905 8.62128C300.29 19.9529 295.443 29.0849 285.541 35.3506L281.672 32.2622C290.475 27.4407 295.19 20.4862 295.762 11.4209H283.661V7.4659H299.751L299.762 7.47701Z" fill="black"/>
<path d="M323.043 36.3392C323.043 38.2389 326.263 39.3832 331.396 39.3832C336.528 39.3832 339.748 38.2278 339.748 36.3392C339.748 34.4506 336.528 33.0841 331.396 33.0841C326.263 33.0841 323.043 34.4839 323.043 36.3392ZM317.877 36.2947C317.877 32.4175 322.647 29.6624 331.396 29.6624C340.144 29.6624 344.914 32.4175 344.914 36.2947C344.914 40.1719 340.232 42.9271 331.396 42.9271C322.559 42.9271 317.877 40.1719 317.877 36.2947ZM344.068 6.03259V9.36543H323.494V12.0428H343.903V15.2979H323.494V17.8975H344.43V21.2748H333.803V24.2854H348.222V27.9849H314.613V24.2854H328.912V21.2748H319.911C319.053 21.2748 318.812 20.9859 318.812 20.1194V7.17687C318.812 6.31033 319.097 6.02148 319.955 6.02148H344.068V6.03259Z" fill="black"/>
<path d="M379.522 32.4621H374.961V5.36621H379.522V32.4621ZM356.222 41.5164C355.365 41.5164 355.123 41.2275 355.123 40.361V29.6181H359.761V37.5614H380.368V41.5164H356.211H356.222ZM362.333 6.14387V11.1653C362.333 16.0646 366.124 20.8417 371.257 22.6525L368.322 26.152C364.816 24.3411 361.431 21.5416 359.893 18.7753C358.915 21.6193 355.365 24.9522 351.584 27.0963L347.957 23.9634C353.947 20.9972 357.409 16.4645 357.442 11.2431V6.13276H362.333V6.14387Z" fill="black"/>
<path d="M124.046 59.4355H125.134V70.7783H124.046V63.9904H120.65V63.0461H124.046V59.4355ZM115.814 74.3666C115.573 74.3666 115.485 74.2778 115.485 74.0445V69.3896H116.573V73.4446H125.585V74.3666H115.814ZM113.55 60.1688H120.98V61.0797H117.837V61.8019C117.837 64.3459 119.54 66.3901 122.013 67.3344L121.2 68.1565C119.375 67.2455 118.144 66.1123 117.309 64.357C116.573 66.4678 115.265 67.701 113.452 68.6564L112.484 67.9232C115.529 66.6011 116.749 64.3681 116.749 61.8019V61.0797H113.55V60.1688Z" fill="#3D3F40"/>
<path d="M137.63 59.4463H138.718V74.6885H137.63V59.4463ZM133.893 60.3573C134.135 60.3573 134.212 60.4572 134.212 60.6794C133.871 65.0899 131.761 68.7227 127.738 71.3667L126.738 70.6224C130.508 68.6116 132.585 65.4676 133.08 61.2793H127.683V60.3462H133.893V60.3573Z" fill="#3D3F40"/>
<path d="M142.652 71.9557C142.652 73.3444 144.399 74.0887 146.905 74.0887C149.411 74.0887 151.137 73.3444 151.137 71.9557C151.137 70.567 149.367 69.856 146.905 69.856C144.443 69.856 142.652 70.5893 142.652 71.9557ZM151.818 59.9131C152.06 59.9131 152.137 60.0131 152.137 60.2353C152.071 62.2239 151.829 63.968 151.521 65.3567H150.488C150.807 63.7792 150.983 62.3794 151.071 60.8241H141.674V59.9131H151.818ZM152.258 71.9779C152.258 73.6999 150.334 74.9886 146.905 74.9886C143.476 74.9886 141.531 73.6999 141.531 71.9779C141.531 70.256 143.487 68.9673 146.905 68.9673C150.323 68.9673 152.258 70.256 152.258 71.9779ZM145.476 62.9793H146.532V66.4788H153.829V67.3897H139.992V66.4788H145.487V62.9793H145.476Z" fill="#3D3F40"/>
<path d="M164.624 59.4355H165.734V65.4013H168.075V66.3678H165.734V74.7221H164.624V59.4467V59.4355ZM157.788 60.091H158.909V62.8573C158.909 66.1234 160.272 68.4453 163.294 70.3006L162.426 71.1227C160.47 69.8229 159.096 68.1009 158.327 65.9568C157.733 68.0565 156.403 69.9118 154.315 71.556L153.293 70.8005C156.216 68.9452 157.777 66.0457 157.777 62.524V60.1021L157.788 60.091Z" fill="#3D3F40"/>
<path d="M194.836 59.4141H195.924V68.746H194.836V63.9023H191.44V62.9802H194.836V59.4252V59.4141ZM187.153 71.9233C187.153 73.2675 188.901 74.0674 191.099 74.0674C193.297 74.0674 195.044 73.2564 195.044 71.9233C195.044 70.5902 193.396 69.7792 191.099 69.7792C188.802 69.7792 187.153 70.5346 187.153 71.9233ZM196.177 71.9233C196.177 73.6564 194.352 74.9673 191.088 74.9673C187.824 74.9673 185.999 73.6675 185.999 71.9233C185.999 70.1791 187.89 68.8793 191.088 68.8793C194.286 68.8793 196.177 70.1791 196.177 71.9233ZM184.34 60.1695H191.769V61.0805H188.626V61.7582C188.626 64.28 190.363 65.9686 192.846 66.8463L192.044 67.6351C190.011 66.7241 188.813 65.6131 188.099 64.1467C187.472 65.8687 186.274 67.1351 184.208 68.135L183.219 67.4351C185.9 66.3575 187.538 64.5133 187.538 61.7248V61.0916H184.34V60.1806V60.1695Z" fill="#3D3F40"/>
<path d="M199.979 67.212H207.815V63.8791H199.979V67.212ZM198.935 60.1797H199.979V63.0015H207.815V60.1797H208.881V67.8008C208.881 68.0563 208.815 68.1229 208.551 68.1229H204.408V71.6669H210.848V72.5889H196.945V71.6669H203.342V68.1229H199.242C198.99 68.1229 198.935 68.0563 198.935 67.8008V60.1797Z" fill="#3D3F40"/>
<path d="M213.532 72.2891C213.532 73.3334 215.236 74.1333 217.697 74.1333C220.159 74.1333 221.841 73.3556 221.841 72.2891C221.841 71.1338 220.159 70.4005 217.697 70.4005C215.236 70.4005 213.532 71.1227 213.532 72.2891ZM222.984 72.2891C222.984 73.8111 221.137 74.9999 217.697 74.9999C214.257 74.9999 212.411 73.8111 212.411 72.2891C212.411 70.7671 214.279 69.5229 217.697 69.5229C221.115 69.5229 222.984 70.7449 222.984 72.2891ZM222.731 59.791V60.6687H213.719V62.3351H222.709V63.2016H213.719V64.8791H222.863V65.7568H218.236V67.5121H224.61V68.4231H210.773V67.5121H217.115V65.7568H213.016C212.774 65.7568 212.697 65.6568 212.697 65.4346V60.1243C212.697 59.9021 212.774 59.791 213.016 59.791H222.72H222.731Z" fill="#3D3F40"/>
<path d="M236.038 59.4355H237.104V70.7783H236.038V59.4355ZM227.806 74.3666C227.575 74.3666 227.487 74.2778 227.487 74.0445V69.3896H228.575V73.4446H237.587V74.3666H227.817H227.806ZM228.74 59.8466H229.839V61.5797C229.839 64.3015 231.861 66.2234 234.005 67.0233L233.224 67.9009C231.741 67.1788 230.092 65.9124 229.279 64.1348C228.685 66.0234 227.19 67.4121 225.399 68.4009L224.465 67.6121C226.982 66.4456 228.729 64.4348 228.729 61.5797V59.8466H228.74Z" fill="#3D3F40"/>
<path d="M241.029 71.9557C241.029 73.3444 242.777 74.0887 245.283 74.0887C247.788 74.0887 249.514 73.3444 249.514 71.9557C249.514 70.567 247.745 69.856 245.283 69.856C242.821 69.856 241.029 70.5893 241.029 71.9557ZM250.184 59.9131C250.426 59.9131 250.514 60.0131 250.514 60.2353C250.448 62.2239 250.206 63.968 249.899 65.3567H248.866C249.184 63.7792 249.36 62.3794 249.448 60.8241H240.051V59.9131H250.195H250.184ZM250.624 71.9779C250.624 73.6999 248.701 74.9886 245.272 74.9886C241.843 74.9886 239.897 73.6999 239.897 71.9779C239.897 70.256 241.854 68.9673 245.272 68.9673C248.69 68.9673 250.624 70.256 250.624 71.9779ZM243.843 62.9793H244.898V66.4788H252.185V67.3897H238.348V66.4788H243.843V62.9793Z" fill="#3D3F40"/>
<path d="M262.999 59.4355H264.098V65.4013H266.45V66.3678H264.098V74.7221H262.999V59.4467V59.4355ZM256.163 60.091H257.284V62.8573C257.284 66.1234 258.647 68.4453 261.669 70.3006L260.801 71.1227C258.845 69.8229 257.471 68.1009 256.702 65.9568C256.108 68.0565 254.778 69.9118 252.69 71.556L251.668 70.8005C254.591 68.9452 256.152 66.0457 256.152 62.524V60.1021L256.163 60.091Z" fill="#3D3F40"/>
<path d="M290.058 59.6911H291.113V65.0347H293.191V59.4355H294.279V74.6888H293.191V66.0346H291.113V73.9778H290.058V59.7022V59.6911ZM288.443 60.3243V61.2353H283.849V65.0569H288.289V65.9679H283.849V69.934C283.915 69.934 285.53 69.934 286.893 69.8673C287.816 69.8118 288.838 69.734 289.498 69.6451V70.545C288.904 70.645 287.926 70.7339 286.86 70.7894C285.146 70.8894 283.244 70.8561 283.134 70.8561C282.893 70.8561 282.805 70.7561 282.805 70.5339V60.6687C282.805 60.4465 282.893 60.3465 283.134 60.3465H288.432L288.443 60.3243Z" fill="#3D3F40"/>
<path d="M306.138 59.4355H307.226V61.413H309.347V62.324H307.226V64.9236H309.347V65.8346H307.226V68.6897H306.138V59.4467V59.4355ZM298.588 71.9337C298.588 73.2668 300.346 74.0778 302.5 74.0778C304.654 74.0778 306.424 73.2668 306.424 71.9337C306.424 70.6005 304.753 69.7784 302.5 69.7784C300.247 69.7784 298.588 70.5339 298.588 71.9337ZM307.545 71.9337C307.545 73.6667 305.709 74.9777 302.5 74.9777C299.291 74.9777 297.467 73.6779 297.467 71.9337C297.467 70.1895 299.357 68.8897 302.5 68.8897C305.643 68.8897 307.545 70.1895 307.545 71.9337ZM296.796 63.4461C296.796 64.9903 297.752 66.3345 299.522 66.3345C301.291 66.3345 302.291 64.9903 302.291 63.4461C302.291 61.9018 301.291 60.6131 299.522 60.6131C297.752 60.6131 296.796 61.9018 296.796 63.4461ZM303.368 63.4683C303.368 65.6568 301.808 67.2677 299.511 67.2677C297.214 67.2677 295.664 65.5346 295.664 63.4683C295.664 61.4019 297.192 59.6577 299.522 59.6577C301.852 59.6577 303.357 61.3242 303.357 63.4683H303.368Z" fill="#3D3F40"/>
<path d="M320.107 59.4355H321.173V63.5794H323.349V64.5237H321.173V69.023H320.107V59.4355ZM312.49 72.1114C312.49 73.3001 314.205 74.0556 316.414 74.0556C318.623 74.0556 320.404 73.3001 320.404 72.1114C320.404 70.845 318.744 70.0673 316.414 70.0673C314.084 70.0673 312.49 70.845 312.49 72.1114ZM321.536 72.067C321.536 73.6668 319.689 74.9554 316.425 74.9554C313.161 74.9554 311.38 73.6668 311.38 72.067C311.38 70.4672 313.194 69.1785 316.425 69.1785C319.656 69.1785 321.536 70.4783 321.536 72.067ZM317.491 60.1243C317.733 60.1243 317.81 60.2243 317.81 60.4465C317.711 62.2685 317.469 63.8793 317.128 65.2125H316.106C316.403 63.9682 316.634 62.3462 316.733 61.0353H310.292V60.1243H317.48H317.491ZM312.677 63.2683H313.699V66.8455C315.062 66.8344 317.986 66.6011 319.634 66.3456V67.2344C318.074 67.4788 315.403 67.7899 311.117 67.7899H309.281V66.8567H312.677V63.2683Z" fill="#3D3F40"/>
<path d="M333.901 59.4355H334.967V62.4129H337.088V63.3572H334.967V67.3121H333.901V59.4467V59.4355ZM334.67 68.0898C334.901 68.0898 334.989 68.1787 334.989 68.4231V71.4226C334.989 71.667 334.901 71.7448 334.67 71.7448H326.691V73.6001H335.363V74.4889H325.922C325.691 74.4889 325.603 74.4 325.603 74.1667V71.1449C325.603 70.9005 325.691 70.8227 325.922 70.8227H333.879V69.023H325.603V68.0898H334.67ZM324.977 65.568H329.659V63.0906H324.977V65.568ZM330.67 66.1123C330.67 66.3678 330.604 66.4345 330.351 66.4345H324.284C324.032 66.4345 323.977 66.3678 323.977 66.1123V59.9577H324.977V62.2129H329.659V59.9577H330.681V66.1123H330.67Z" fill="#3D3F40"/>
<path d="M348.386 59.4355H349.474V70.7783H348.386V63.9904H344.99V63.0461H348.386V59.4355ZM340.154 74.3666C339.924 74.3666 339.836 74.2778 339.836 74.0445V69.3896H340.924V73.4446H349.936V74.3666H340.165H340.154ZM337.89 60.1688H345.32V61.0797H342.177V61.8019C342.177 64.3459 343.88 66.3901 346.353 67.3344L345.54 68.1565C343.726 67.2455 342.484 66.1123 341.649 64.357C340.913 66.4678 339.605 67.701 337.791 68.6564L336.824 67.9232C339.869 66.6011 341.089 64.3681 341.089 61.8019V61.0797H337.89V60.1688Z" fill="#3D3F40"/>
<path d="M356.889 60.125H357.988V61.3137C357.988 63.9578 360.967 66.5574 363.758 67.4128L362.901 68.2904C360.879 67.6017 358.23 65.6131 357.461 63.4134C356.626 65.5131 354.438 67.3684 351.999 68.3127L351.086 67.4239C354.098 66.4574 356.889 64.0244 356.889 61.3248V60.1361V60.125ZM356.911 67.4128H357.977V71.6788H364.407V72.612H350.504V71.6788H356.911V67.4128Z" fill="#3D3F40"/>
<path d="M379.871 59.4355H380.959V70.7783H379.871V63.9904H376.475V63.0461H379.871V59.4355ZM371.639 74.3666C371.397 74.3666 371.309 74.2778 371.309 74.0445V69.3896H372.397V73.4446H381.409V74.3666H371.639ZM369.375 60.1688H376.804V61.0797H373.661V61.8019C373.661 64.3459 375.364 66.3901 377.837 67.3344L377.024 68.1565C375.211 67.2455 373.969 66.1123 373.133 64.357C372.408 66.4678 371.1 67.701 369.276 68.6564L368.309 67.9232C371.353 66.6011 372.573 64.3681 372.573 61.8019V61.0797H369.375V60.1688Z" fill="#3D3F40"/>
<path d="M384.949 64.313H392.906V60.8247H384.949V64.313ZM384.268 74.3671C384.026 74.3671 383.938 74.2782 383.938 74.0449V69.9344H384.938V73.445H394.511V74.3671H384.268ZM393.951 64.9018C393.951 65.1574 393.885 65.224 393.643 65.224H384.246C383.993 65.224 383.916 65.1574 383.916 64.9018V60.247C383.916 59.9915 383.982 59.9248 384.246 59.9248H393.643C393.885 59.9248 393.951 59.9915 393.951 60.247V64.9018ZM382.015 67.3237H395.852V68.2347H389.642V71.7564H388.587V68.2347H382.004V67.3237H382.015Z" fill="#3D3F40"/>
<path d="M399.81 73.6227H407.294V71.2008H399.81V73.6227ZM398.722 68.2568H399.81V70.3009H407.294V68.2568H408.36V74.1893C408.36 74.4337 408.272 74.5225 408.03 74.5225H399.04C398.798 74.5225 398.722 74.4337 398.722 74.1893V68.2568ZM397.6 63.2909C397.6 64.8018 398.546 66.0571 400.304 66.0571C402.063 66.0571 403.03 64.8018 403.03 63.2909C403.03 61.78 402.041 60.5246 400.304 60.5246C398.568 60.5246 397.6 61.78 397.6 63.2909ZM404.096 62.9465H407.283V59.4248H408.371V67.4569H407.283V63.8797H404.085C403.832 65.7239 402.37 66.9903 400.315 66.9903C398.018 66.9903 396.523 65.3239 396.523 63.3131C396.523 61.3023 398.04 59.6026 400.337 59.6026C402.458 59.6026 403.942 61.0246 404.107 62.9576L404.096 62.9465Z" fill="#3D3F40"/>
<path d="M421.656 59.4355H422.722V74.6888H421.656V59.4355ZM418.799 59.6911H419.887V73.9667H418.799V66.5567H416.216V65.5568H418.799V59.68V59.6911ZM411.864 59.891H415.71V60.8131H411.864V59.891ZM410.457 62.7906H417.095V63.7127H414.381V64.657C414.381 67.0455 415.908 69.123 417.678 70.345L416.798 71.0671C415.436 69.934 414.435 68.5564 413.82 66.9233C413.259 68.7119 412.182 70.3117 410.567 71.7226L409.512 71.0005C411.402 69.7118 413.216 67.3455 413.216 64.657V63.7127H410.446V62.7906H410.457Z" fill="#3D3F40"/>
<path d="M176.879 67.0677C176.879 67.5899 176.461 68.0231 175.933 68.0231C175.406 68.0231 174.988 67.601 174.988 67.0677C174.988 66.5345 175.406 66.1123 175.933 66.1123C176.461 66.1123 176.879 66.5345 176.879 67.0677Z" fill="black"/>
<path d="M274.715 67.0677C274.715 67.5899 274.297 68.0231 273.769 68.0231C273.242 68.0231 272.824 67.601 272.824 67.0677C272.824 66.5345 273.242 66.1123 273.769 66.1123C274.297 66.1123 274.715 66.5345 274.715 67.0677Z" fill="black"/>
</svg>
