<svg width="51" height="50" viewBox="0 0 51 50" fill="none" xmlns="http://www.w3.org/2000/svg">
<path d="M39.3984 8.56185L29.0026 4.66602C27.2734 4.02018 24.4401 4.02018 22.7109 4.66602L12.3151 8.56185C9.91927 9.45768 7.96094 12.291 7.96094 14.8327V30.3119C7.96094 32.7702 9.58594 35.9994 11.5651 37.4785L20.5234 44.166C23.4609 46.3744 28.2943 46.3744 31.2318 44.166L40.1901 37.4785C42.1693 35.9994 43.7943 32.7702 43.7943 30.3119V14.8327C43.7526 12.291 41.7943 9.45768 39.3984 8.56185ZM25.7109 14.6452C28.1693 14.6452 30.1693 16.6452 30.1693 19.1035C30.1693 21.5202 28.2734 23.4577 25.8776 23.541H25.8359H25.7943C25.7526 23.541 25.7109 23.541 25.6693 23.541C23.1693 23.4577 21.2943 21.5202 21.2943 19.1035C21.2734 16.6452 23.2734 14.6452 25.7109 14.6452ZM30.4193 34.0827C29.1484 34.916 27.5026 35.3535 25.8568 35.3535C24.2109 35.3535 22.5443 34.9369 21.2943 34.0827C20.1068 33.291 19.4609 32.2077 19.4401 31.0202C19.4401 29.8535 20.1068 28.7285 21.2943 27.9369C23.8151 26.2702 27.9193 26.2702 30.4401 27.9369C31.6276 28.7285 32.2943 29.8119 32.2943 30.9994C32.2734 32.166 31.6068 33.291 30.4193 34.0827Z" fill="white"/>
</svg>
