<svg width="51" height="50" viewBox="0 0 51 50" fill="none" xmlns="http://www.w3.org/2000/svg">
<path d="M44.4199 23.168V14.0221C44.4199 12.3138 43.1283 10.3763 41.5241 9.73047L29.9199 4.98047C27.3158 3.91797 24.3783 3.91797 21.7741 4.98047L10.1699 9.73047C8.58659 10.3763 7.29492 12.3138 7.29492 14.0221V23.168C7.29492 33.3555 14.6908 42.8971 24.7949 45.6888C25.4824 45.8763 26.2324 45.8763 26.9199 45.6888C37.0241 42.8971 44.4199 33.3555 44.4199 23.168ZM27.4199 26.8138V32.293C27.4199 33.1471 26.7116 33.8555 25.8574 33.8555C25.0033 33.8555 24.2949 33.1471 24.2949 32.293V26.8138C22.1908 26.1471 20.6491 24.1888 20.6491 21.8763C20.6491 19.0013 22.9824 16.668 25.8574 16.668C28.7324 16.668 31.0658 19.0013 31.0658 21.8763C31.0658 24.2096 29.5241 26.1471 27.4199 26.8138Z" fill="white"/>
</svg>
