<svg width="51" height="50" viewBox="0 0 51 50" fill="none" xmlns="http://www.w3.org/2000/svg">
<path d="M42.7318 19.2067C38.9609 19.2067 37.4193 16.54 39.2943 13.2692C40.3776 11.3734 39.7318 8.9567 37.8359 7.87336L34.2318 5.81086C32.5859 4.8317 30.4609 5.41503 29.4818 7.06086L29.2526 7.4567C27.3776 10.7275 24.2943 10.7275 22.3984 7.4567L22.1693 7.06086C21.2318 5.41503 19.1068 4.8317 17.4609 5.81086L13.8568 7.87336C11.9609 8.9567 11.3151 11.3942 12.3984 13.29C14.2943 16.54 12.7526 19.2067 8.98177 19.2067C6.8151 19.2067 5.02344 20.9775 5.02344 23.165V26.8317C5.02344 28.9984 6.79427 30.79 8.98177 30.79C12.7526 30.79 14.2943 33.4567 12.3984 36.7275C11.3151 38.6234 11.9609 41.04 13.8568 42.1234L17.4609 44.1859C19.1068 45.165 21.2318 44.5817 22.2109 42.9359L22.4401 42.54C24.3151 39.2692 27.3984 39.2692 29.2943 42.54L29.5234 42.9359C30.5026 44.5817 32.6276 45.165 34.2734 44.1859L37.8776 42.1234C39.7734 41.04 40.4193 38.6025 39.3359 36.7275C37.4401 33.4567 38.9818 30.79 42.7526 30.79C44.9193 30.79 46.7109 29.0192 46.7109 26.8317V23.165C46.6901 20.9984 44.9193 19.2067 42.7318 19.2067ZM25.8568 31.7692C22.1276 31.7692 19.0859 28.7275 19.0859 24.9984C19.0859 21.2692 22.1276 18.2275 25.8568 18.2275C29.5859 18.2275 32.6276 21.2692 32.6276 24.9984C32.6276 28.7275 29.5859 31.7692 25.8568 31.7692Z" fill="white"/>
</svg>
