<svg width="51" height="50" viewBox="0 0 51 50" fill="none" xmlns="http://www.w3.org/2000/svg">
<path d="M18.3359 38.523V17.3563C18.3359 16.523 18.5859 15.7105 19.0443 15.023L24.7318 6.56463C25.6276 5.21046 27.8568 4.25213 29.7526 4.96046C31.7943 5.64796 33.1484 7.93962 32.7109 9.98129L31.6276 16.7938C31.5443 17.4188 31.7109 17.9813 32.0651 18.4188C32.4193 18.8146 32.9401 19.0646 33.5026 19.0646H42.0651C43.7109 19.0646 45.1276 19.7313 45.9609 20.898C46.7526 22.023 46.8984 23.4813 46.3776 24.9605L41.2526 40.5646C40.6068 43.148 37.7943 45.2521 35.0026 45.2521H26.8776C25.4818 45.2521 23.5234 44.773 22.6276 43.8771L19.9609 41.8146C18.9401 41.0438 18.3359 39.8146 18.3359 38.523Z" fill="white"/>
<path d="M11.7109 13.293H9.5651C6.33594 13.293 5.02344 14.543 5.02344 17.6263V38.5846C5.02344 41.668 6.33594 42.918 9.5651 42.918H11.7109C14.9401 42.918 16.2526 41.668 16.2526 38.5846V17.6263C16.2526 14.543 14.9401 13.293 11.7109 13.293Z" fill="white"/>
</svg>
