<svg width="51" height="50" viewBox="0 0 51 50" fill="none" xmlns="http://www.w3.org/2000/svg">
<path d="M34.5859 4.16602H17.1276C9.54427 4.16602 5.02344 8.68685 5.02344 16.2702V33.7077C5.02344 41.3119 9.54427 45.8327 17.1276 45.8327H34.5651C42.1484 45.8327 46.6693 41.3119 46.6693 33.7285V16.2702C46.6901 8.68685 42.1693 4.16602 34.5859 4.16602ZM16.7526 37.8119C16.7526 38.666 16.0443 39.3744 15.1901 39.3744C14.3359 39.3744 13.6276 38.666 13.6276 37.8119V33.4994C13.6276 32.6452 14.3359 31.9369 15.1901 31.9369C16.0443 31.9369 16.7526 32.6452 16.7526 33.4994V37.8119ZM27.4193 37.8119C27.4193 38.666 26.7109 39.3744 25.8568 39.3744C25.0026 39.3744 24.2943 38.666 24.2943 37.8119V29.166C24.2943 28.3119 25.0026 27.6035 25.8568 27.6035C26.7109 27.6035 27.4193 28.3119 27.4193 29.166V37.8119ZM38.0859 37.8119C38.0859 38.666 37.3776 39.3744 36.5234 39.3744C35.6693 39.3744 34.9609 38.666 34.9609 37.8119V24.8535C34.9609 23.9994 35.6693 23.291 36.5234 23.291C37.3776 23.291 38.0859 23.9994 38.0859 24.8535V37.8119ZM38.0859 18.2702C38.0859 19.1244 37.3776 19.8327 36.5234 19.8327C35.6693 19.8327 34.9609 19.1244 34.9609 18.2702V16.2494C29.6484 21.7077 23.0026 25.5618 15.5651 27.416C15.4401 27.4577 15.3151 27.4577 15.1901 27.4577C14.4818 27.4577 13.8568 26.9785 13.6693 26.2702C13.4609 25.4368 13.9609 24.5827 14.8151 24.3743C21.8359 22.6243 28.0859 18.9369 33.0443 13.7285H30.4401C29.5859 13.7285 28.8776 13.0202 28.8776 12.166C28.8776 11.3118 29.5859 10.6035 30.4401 10.6035H36.5443C36.6276 10.6035 36.6901 10.6452 36.7734 10.6452C36.8776 10.666 36.9818 10.666 37.0859 10.7077C37.1901 10.7493 37.2734 10.8118 37.3776 10.8743C37.4401 10.916 37.5026 10.9368 37.5651 10.9785C37.5859 10.9993 37.5859 11.0202 37.6068 11.0202C37.6901 11.1035 37.7526 11.1868 37.8151 11.2702C37.8776 11.3535 37.9401 11.416 37.9609 11.4993C38.0026 11.5827 38.0026 11.666 38.0234 11.7702C38.0443 11.8743 38.0859 11.9785 38.0859 12.1035C38.0859 12.1243 38.1068 12.1452 38.1068 12.166V18.2702H38.0859Z" fill="white"/>
</svg>
