<svg width="51" height="50" viewBox="0 0 51 50" fill="none" xmlns="http://www.w3.org/2000/svg">
<path d="M46.0456 5.64583C45.8789 5.27083 45.5872 4.95833 45.1914 4.79167C45.0039 4.72917 44.8164 4.6875 44.6081 4.6875H36.2747C35.4206 4.6875 34.7122 5.39583 34.7122 6.25C34.7122 7.10417 35.4206 7.8125 36.2747 7.8125H40.8372L31.0039 17.6458C30.3997 18.25 30.3997 19.25 31.0039 19.8542C31.3164 20.1667 31.7122 20.3125 32.1081 20.3125C32.5039 20.3125 32.8997 20.1667 33.2122 19.8542L43.0456 10.0208V14.5833C43.0456 15.4375 43.7539 16.1458 44.6081 16.1458C45.4622 16.1458 46.1706 15.4375 46.1706 14.5833V6.25C46.1706 6.04167 46.1289 5.85417 46.0456 5.64583Z" fill="white"/>
<path d="M18.5033 30.1445L8.66992 39.9779V35.4154C8.66992 34.5612 7.96159 33.8529 7.10742 33.8529C6.25326 33.8529 5.54492 34.5612 5.54492 35.4154V43.7487C5.54492 43.957 5.58659 44.1445 5.66992 44.3529C5.83659 44.7279 6.12826 45.0404 6.52409 45.207C6.69076 45.2695 6.89909 45.3112 7.10742 45.3112H15.4408C16.2949 45.3112 17.0033 44.6029 17.0033 43.7487C17.0033 42.8945 16.2949 42.1862 15.4408 42.1862H10.8783L20.7116 32.3529C21.3158 31.7487 21.3158 30.7487 20.7116 30.1445C20.1074 29.5404 19.1074 29.5404 18.5033 30.1445Z" fill="white"/>
<path d="M5.4401 30.7285C4.71094 30.7285 4.0651 30.2077 3.91927 29.4785C3.6276 28.0202 3.46094 26.4993 3.46094 24.9993C3.46094 12.6452 13.5026 2.60352 25.8568 2.60352C27.3776 2.60352 28.8984 2.74935 30.3776 3.06185C31.2318 3.22852 31.7734 4.06185 31.6068 4.89518C31.4401 5.74935 30.5859 6.27018 29.7734 6.12435C28.4609 5.85352 27.1693 5.72852 25.8568 5.72852C15.2318 5.72852 6.58594 14.3743 6.58594 24.9993C6.58594 26.291 6.71094 27.6035 6.98177 28.8535C7.14844 29.7077 6.60677 30.5202 5.7526 30.6868C5.64844 30.7285 5.54427 30.7285 5.4401 30.7285Z" fill="white"/>
<path d="M25.8582 47.3966C24.3374 47.3966 22.8165 47.2508 21.3374 46.9383C20.4832 46.7716 19.9415 45.9383 20.1082 45.105C20.2749 44.2508 21.129 43.73 21.9415 43.8758C23.2124 44.1258 24.5249 44.2716 25.8374 44.2716C36.4624 44.2716 45.1082 35.6258 45.1082 25.0008C45.1082 23.7091 44.9832 22.4175 44.7332 21.1466C44.5665 20.2925 45.1082 19.48 45.9624 19.3133C46.8166 19.1466 47.6291 19.6883 47.7957 20.5425C48.0874 22.0008 48.2332 23.5008 48.2332 25.0008C48.2541 37.355 38.2124 47.3966 25.8582 47.3966Z" fill="white"/>
</svg>
