<svg width="50" height="50" viewBox="0 0 50 50" fill="none" xmlns="http://www.w3.org/2000/svg">
<path opacity="0.4" d="M22.832 4.29432L11.3737 8.58598C9.1862 9.41932 7.39453 12.0026 7.39453 14.3568V31.2318C7.39453 32.9193 8.4987 35.1485 9.85286 36.1485L21.3112 44.711C23.332 46.2318 26.6445 46.2318 28.6654 44.711L40.1237 36.1485C41.4779 35.1276 42.582 32.9193 42.582 31.2318V14.3568C42.582 12.0235 40.7904 9.41932 38.6029 8.60682L27.1445 4.31515C25.9779 3.85682 24.0195 3.85682 22.832 4.29432Z" fill="#00927E"/>
<path d="M22.2083 29.6445C21.8125 29.6445 21.4167 29.4987 21.1042 29.1862L17.75 25.832C17.1458 25.2279 17.1458 24.2279 17.75 23.6237C18.3542 23.0195 19.3542 23.0195 19.9583 23.6237L22.2083 25.8737L30.0625 18.0195C30.6667 17.4154 31.6667 17.4154 32.2708 18.0195C32.875 18.6237 32.875 19.6237 32.2708 20.2279L23.3125 29.1862C23 29.4987 22.6042 29.6445 22.2083 29.6445Z" fill="#00927E"/>
</svg>
