<svg width="50" height="50" viewBox="0 0 50 50" fill="none" xmlns="http://www.w3.org/2000/svg">
<path opacity="0.4" d="M33.7292 45.8333H16.2917C8.70833 45.8333 4.1875 41.3125 4.1875 33.7292V16.2917C4.1875 8.70833 8.70833 4.1875 16.2917 4.1875H33.7292C41.3125 4.1875 45.8333 8.70833 45.8333 16.2917V33.7292C45.8333 41.3125 41.3125 45.8333 33.7292 45.8333Z" fill="#00927E"/>
<path d="M34.1868 20.4779C32.916 24.1029 29.4994 26.5404 25.666 26.5404C25.6452 26.5404 25.6452 26.5404 25.6243 26.5404L21.3327 26.5196C21.3327 26.5196 21.3326 26.5196 21.3118 26.5196C19.7285 26.5196 18.3535 27.5821 17.9368 29.1029C19.791 29.6862 21.1452 31.4154 21.1452 33.457C21.1452 35.9779 19.0827 38.0404 16.5619 38.0404C14.041 38.0404 11.9785 35.9779 11.9785 33.457C11.9785 31.6029 13.1035 29.9987 14.6868 29.2904V20.2487C13.1035 19.6237 11.9785 18.0821 11.9785 16.2904C11.9785 13.9362 13.8952 12.0195 16.2493 12.0195C18.6035 12.0195 20.5201 13.9362 20.5201 16.2904C20.5201 18.1029 19.3952 19.6237 17.8118 20.2487V24.457C18.8327 23.8112 20.041 23.4362 21.3118 23.4362H21.3327L25.6243 23.4571C28.0827 23.5404 30.2702 21.9571 31.1452 19.6654C30.1244 18.8737 29.4577 17.6654 29.4577 16.2904C29.4577 13.9362 31.3744 12.0195 33.7285 12.0195C36.0827 12.0195 37.9993 13.9362 37.9993 16.2904C38.0202 18.4571 36.3326 20.2487 34.1868 20.4779Z" fill="#00927E"/>
</svg>
