<svg width="453" height="62" viewBox="0 0 453 62" fill="none" xmlns="http://www.w3.org/2000/svg">
<path d="M7.1 39.15H36.4V52.8H7.1V39.15ZM1.3 31.85H18.3V29.85C15.5667 29.35 13.3833 28.2667 11.75 26.6C10.15 24.9 9.35 22.8167 9.35 20.35C9.35 18.7167 9.91667 17.1667 11.05 15.7H6.35V10.3H18.35V7H25V10.3H37.05V15.7H32.25C33.3833 17.1667 33.95 18.7167 33.95 20.35C33.95 22.8167 33.1333 24.9 31.5 26.6C29.9 28.2667 27.7333 29.35 25 29.85V31.85H42V36.95H1.3V31.85ZM29.9 47.9V44.1H13.6V47.9H29.9ZM15.7 20.35C15.7 21.7167 16.2333 22.8167 17.3 23.65C18.4 24.4833 19.85 24.9 21.65 24.9C23.4833 24.9 24.9333 24.4833 26 23.65C27.0667 22.8167 27.6 21.7167 27.6 20.35C27.6 18.9167 27.0667 17.8 26 17C24.9333 16.1667 23.4833 15.75 21.65 15.75C19.8167 15.75 18.3667 16.1667 17.3 17C16.2333 17.8 15.7 18.9167 15.7 20.35ZM83.0094 8.3V51.8H76.6594V8.3H83.0094ZM44.2594 34.8H47.0094V17.2H44.2594V11.9H64.8594V17.2H62.0594V34.8H64.8594V40.1H44.2594V34.8ZM56.1094 34.8V17.2H53.0094V34.8H56.1094ZM63.6094 23.6H67.7094V9.15H73.9094V49.7H67.7094V29.45H63.6094V23.6ZM123.919 8.2V51.85H117.169V8.2H123.919ZM86.9188 25.15C86.9188 22.5833 87.4521 20.3 88.5187 18.3C89.6188 16.3 91.1188 14.75 93.0188 13.65C94.9521 12.5167 97.1354 11.95 99.5688 11.95C102.002 11.95 104.169 12.5167 106.069 13.65C107.969 14.75 109.452 16.3 110.519 18.3C111.585 20.3 112.119 22.5833 112.119 25.15C112.119 27.6833 111.585 29.9333 110.519 31.9C109.452 33.8667 107.969 35.4167 106.069 36.55C104.169 37.65 102.002 38.2 99.5688 38.2C97.1354 38.2 94.9521 37.65 93.0188 36.55C91.1188 35.4167 89.6188 33.8667 88.5187 31.9C87.4521 29.9333 86.9188 27.6833 86.9188 25.15ZM93.5188 25.15C93.5188 27.4167 94.0688 29.2333 95.1688 30.6C96.2688 31.9667 97.7354 32.65 99.5688 32.65C101.402 32.65 102.852 31.9667 103.919 30.6C105.019 29.2333 105.569 27.4167 105.569 25.15C105.569 22.85 105.019 21.0167 103.919 19.65C102.852 18.25 101.402 17.55 99.5688 17.55C97.7354 17.55 96.2688 18.25 95.1688 19.65C94.0688 21.0167 93.5188 22.85 93.5188 25.15ZM166.628 8.3V51.8H159.928V8.3H166.628ZM137.528 26.1C138.495 24.7667 139.095 23.75 139.328 23.05C139.595 22.35 139.728 21.4667 139.728 20.4V17.45H131.228V12.05H154.878V17.45H146.378V20.4C146.378 21.5 146.495 22.4 146.728 23.1C146.995 23.7667 147.595 24.7667 148.528 26.1L156.628 37.45L151.628 41.05L143.528 29.7L143.028 29L142.528 29.7L134.428 41.05L129.428 37.45L137.528 26.1ZM188.738 41.45V36.15H177.588V20.8H200.388V16.3H177.488V11.05H206.838V26H184.038V30.85H207.838V36.15H195.438V41.45H212.488V46.8H171.788V41.45H188.738ZM262.52 8.2V51.85H255.77V8.2H262.52ZM225.52 25.15C225.52 22.5833 226.054 20.3 227.12 18.3C228.22 16.3 229.72 14.75 231.62 13.65C233.554 12.5167 235.737 11.95 238.17 11.95C240.604 11.95 242.77 12.5167 244.67 13.65C246.57 14.75 248.054 16.3 249.12 18.3C250.187 20.3 250.72 22.5833 250.72 25.15C250.72 27.6833 250.187 29.9333 249.12 31.9C248.054 33.8667 246.57 35.4167 244.67 36.55C242.77 37.65 240.604 38.2 238.17 38.2C235.737 38.2 233.554 37.65 231.62 36.55C229.72 35.4167 228.22 33.8667 227.12 31.9C226.054 29.9333 225.52 27.6833 225.52 25.15ZM232.12 25.15C232.12 27.4167 232.67 29.2333 233.77 30.6C234.87 31.9667 236.337 32.65 238.17 32.65C240.004 32.65 241.454 31.9667 242.52 30.6C243.62 29.2333 244.17 27.4167 244.17 25.15C244.17 22.85 243.62 21.0167 242.52 19.65C241.454 18.25 240.004 17.55 238.17 17.55C236.337 17.55 234.87 18.25 233.77 19.65C232.67 21.0167 232.12 22.85 232.12 25.15ZM284.83 28.6V25H273.38V9.85H302.73V15.1H279.93V19.75H302.83V25H291.48V28.6H308.48V33.85H267.83V28.6H284.83ZM275.73 45.15C275.73 43.2833 276.246 41.6167 277.28 40.15C278.346 38.65 279.813 37.4833 281.68 36.65C283.58 35.8167 285.73 35.4 288.13 35.4C290.53 35.4 292.663 35.8167 294.53 36.65C296.43 37.4833 297.913 38.65 298.98 40.15C300.046 41.6167 300.58 43.2833 300.58 45.15C300.58 47.0167 300.046 48.7 298.98 50.2C297.913 51.7 296.43 52.8667 294.53 53.7C292.663 54.5667 290.53 55 288.13 55C285.73 55 283.58 54.5667 281.68 53.7C279.813 52.8667 278.346 51.7 277.28 50.2C276.246 48.7 275.73 47.0167 275.73 45.15ZM282.33 45.15C282.33 46.4833 282.863 47.5667 283.93 48.4C284.996 49.2 286.396 49.6 288.13 49.6C289.896 49.6 291.313 49.2 292.38 48.4C293.446 47.5667 293.98 46.4833 293.98 45.15C293.98 43.85 293.446 42.8 292.38 42C291.313 41.1667 289.896 40.75 288.13 40.75C286.396 40.75 284.996 41.1667 283.93 42C282.863 42.8 282.33 43.85 282.33 45.15ZM345.739 8.3V25.75H352.139V31.25H345.739V51.8H339.039V8.3H345.739ZM310.789 13.85H320.239V9.2H326.939V13.85H336.389V19.1H310.789V13.85ZM312.339 31.35C312.339 29.25 312.806 27.3833 313.739 25.75C314.706 24.0833 316.039 22.8 317.739 21.9C319.472 20.9667 321.422 20.5 323.589 20.5C325.756 20.5 327.689 20.9667 329.389 21.9C331.122 22.8 332.456 24.0833 333.389 25.75C334.356 27.3833 334.839 29.25 334.839 31.35C334.839 33.45 334.356 35.3167 333.389 36.95C332.456 38.5833 331.122 39.8667 329.389 40.8C327.689 41.7 325.756 42.15 323.589 42.15C321.422 42.15 319.472 41.7 317.739 40.8C316.039 39.8667 314.706 38.5833 313.739 36.95C312.806 35.3167 312.339 33.45 312.339 31.35ZM318.789 31.35C318.789 32.95 319.222 34.25 320.089 35.25C320.989 36.2167 322.156 36.7 323.589 36.7C325.022 36.7 326.172 36.2167 327.039 35.25C327.939 34.25 328.389 32.95 328.389 31.35C328.389 29.7167 327.939 28.4167 327.039 27.45C326.172 26.45 325.022 25.95 323.589 25.95C322.156 25.95 320.989 26.45 320.089 27.45C319.222 28.4167 318.789 29.7167 318.789 31.35ZM390.448 8.25V51.75H383.798V8.25H390.448ZM354.648 34.9C359.615 33.7 363.532 31.7833 366.398 29.15C369.265 26.5167 370.748 22.65 370.848 17.55H355.898V12.1H377.148V17.55C377.048 24.25 374.998 29.4833 370.998 33.25C366.998 36.9833 362.015 39.5667 356.048 41L354.648 34.9Z" fill="#727272"/>
<path d="M401 31H450M450 31L431.625 13M450 31L431.625 49" stroke="#727272" stroke-width="5" stroke-linecap="round" stroke-linejoin="round"/>
</svg>
