<svg width="268" height="375" viewBox="0 0 268 375" fill="none" xmlns="http://www.w3.org/2000/svg">
<path d="M95.9884 6.78741C96.3095 6.85999 96.6199 6.99759 96.8927 7.16034C97.112 7.24362 97.3313 7.32695 97.5882 7.38502C98.5783 7.6425 99.6433 7.8496 100.644 8.04213C104.321 8.57004 108.009 9.03296 111.741 9.23611C114.664 9.29028 117.555 9.13498 120.43 8.87509C126.379 8.1643 132.238 6.99505 138.139 5.9702C142.402 5.18151 146.67 4.56259 150.922 3.83885C154.858 3.21216 158.815 2.85972 162.793 2.37745C166.622 1.99605 170.424 1.57503 174.268 1.29831C180.099 0.89775 185.967 0.471681 191.868 0.25527C197.5 0.0457448 203.18 0.150429 208.827 0.854029C213.591 1.45908 218.745 2.72508 222.884 5.48039C227.024 8.2357 230.118 11.8667 231.123 16.845C231.883 20.4875 231.095 24.4205 230.474 27.953C229.735 32.2 228.803 36.4034 227.833 40.6321C227.833 40.6321 227.843 40.567 227.817 40.5273C227.547 41.7468 227.288 42.9017 226.992 44.0815C226.965 44.0418 226.976 43.9767 227.014 43.9515C225.138 52.0192 223.343 60.2061 222.239 68.448C221.107 77.0543 220.205 85.679 219.213 94.2494C217.184 112.054 214.502 129.779 211.124 147.279C208.486 160.936 205.757 174.539 202.99 188.167C201.561 195.358 200.002 202.521 198.766 209.756C198.15 213.458 197.507 217.12 196.929 220.797C196.389 224.045 196.132 227.39 195.774 230.746C195.713 231.71 195.664 232.608 195.577 233.532C197.794 233.022 200.049 232.487 202.293 232.017C205.854 231.239 209.501 230.749 213.067 230.14C217.003 229.513 220.961 228.756 224.907 228.065C229.047 227.012 233.086 225.971 237.098 224.485C239.793 223.308 242.369 222.038 244.931 220.662C246.184 219.935 247.439 219.207 248.693 218.479C249.545 217.964 250.396 217.45 251.248 216.935C252.315 216.333 253.381 215.732 254.538 215.184C255.545 214.738 256.648 214.516 257.725 214.254C260.055 213.668 262.816 214.697 264.65 216.291C266.681 218.098 267.598 220.597 267.627 223.231C267.665 226.205 266.163 228.427 264.73 230.832C263.71 232.556 262.69 234.28 261.67 236.004C259.765 239.246 257.86 242.488 255.836 245.636C251.388 252.549 246.34 259.058 241.501 265.714C233.55 277.058 226.016 288.699 218.364 300.246C214.41 306.193 210.027 311.908 205.693 317.532C201.815 322.62 197.846 327.653 194.058 332.795C192.362 335.377 190.667 337.959 188.971 340.541C187.141 343.329 185.558 346.24 183.883 349.096C182.257 351.862 180.695 354.643 179.132 357.423C177.436 360.41 175.623 363.302 173.718 366.14C171.443 369.4 168.884 372.562 165.166 374.08C162.483 375.192 159.179 375.221 156.419 373.788C154.241 372.656 152.617 370.805 151.094 368.945C149.042 366.459 147.016 364.013 144.889 361.578C140.581 356.628 136.375 351.668 131.88 346.844C129.726 344.773 127.561 342.767 125.347 340.852C123.042 338.882 120.652 337.028 118.261 335.173C118.523 335.401 118.823 335.603 119.112 335.871C112.561 330.987 106.052 326.247 100.188 320.44C94.981 315.287 90.1659 309.582 85.2541 304.057C82.7149 301.495 80.1599 298.829 77.5349 296.382C74.295 293.426 71.0815 290.509 67.8791 287.528C64.5323 284.413 61.1966 281.232 57.8498 278.117C54.4763 274.962 51.285 271.512 48.0349 268.216C45.3246 265.48 42.6253 262.68 39.9259 259.879C37.4185 257.527 34.9378 255.214 32.4947 252.876C30.3027 250.83 27.9764 248.99 25.6611 247.086C20.0092 242.405 14.1108 238.005 8.54478 233.209C3.81811 229.175 -1.77785 222.956 0.89798 216.485C2.62274 212.326 7.17038 210.827 11.3557 211.705C14.4225 212.297 17.3691 214.412 20.0703 216C23.5366 217.997 27.0294 220.033 30.6514 221.694C32.4866 222.48 34.3434 223.135 36.211 223.726C38.3838 224.284 40.5407 224.738 42.7084 225.127C53.5366 226.732 64.4576 227.179 75.3245 227.95C81.2826 228.387 87.2406 228.824 93.2254 229.301C98.9157 229.744 104.622 230.293 110.345 230.542C111.812 230.537 113.241 230.557 114.628 230.432C114.831 230.411 115.035 230.389 115.211 230.328C115.249 230.303 115.286 230.278 115.297 230.213C115.394 230.032 115.453 229.877 115.512 229.722C115.711 229.127 115.873 228.557 116.072 227.961L116.083 227.896C116.089 227.258 116.095 226.619 116.064 226.005C115.922 220.851 115.602 215.759 114.925 210.618C113.783 204.463 112.555 198.424 111.644 192.287C110.706 185.706 109.731 179.151 108.793 172.57C108.83 172.949 108.904 173.303 108.915 173.642C106.178 156.445 102.868 139.287 99.8634 122.097C96.8163 104.762 93.8333 87.4416 91.2573 70.0785C91.284 70.1182 91.2732 70.1832 91.2623 70.2482C90.5415 65.3677 90.0996 60.4151 89.4805 55.524C88.9041 50.7773 88.4668 45.9947 87.9278 41.2228C87.4474 36.6999 87.0577 32.2315 86.6147 27.6835C86.3513 24.8608 86.0504 22.0634 85.8136 19.2805C85.524 16.0138 84.9829 12.8586 86.695 9.97706C87.2532 9.02495 87.9714 8.31152 88.7967 7.75674C90.7798 6.2506 93.4519 6.01189 95.9884 6.78741Z" fill="black"/>
</svg>
