<svg width="165" height="31" viewBox="0 0 165 31" fill="none" xmlns="http://www.w3.org/2000/svg">
<path d="M1.17 12.0026C1.49 11.8426 1.76 11.7426 1.98 11.7026C2.22 11.6626 2.63 11.6626 3.21 11.7026C4.43 11.7426 5.33 11.8726 5.91 12.0926C6.05 12.1326 6.18 12.1926 6.3 12.2726C6.42 12.3326 6.52 12.4026 6.6 12.4826C6.7 12.5626 6.78 12.6526 6.84 12.7526C6.9 12.8526 6.95 12.9626 6.99 13.0826C7.05 13.2026 7.07 13.3226 7.05 13.4426C7.03 13.5426 6.97 13.6426 6.87 13.7426C6.75 13.8426 6.66 13.9026 6.6 13.9226C6.56 13.9226 6.45 13.8626 6.27 13.7426C6.03 13.5826 5.71 13.4726 5.31 13.4126C5.09 13.3926 4.74 13.3426 4.26 13.2626C3.94 13.1626 3.8 13.1826 3.84 13.3226C3.84 13.5426 4.12 13.8026 4.68 14.1026C5.24 14.4426 5.78 14.9026 6.3 15.4826C7.38 16.6226 7.9 17.5226 7.86 18.1826C7.84 18.5026 7.68 18.8226 7.38 19.1426C7.1 19.4426 6.67 19.7426 6.09 20.0426C5.19 20.1026 4.16 20.1026 3 20.0426C1.82 19.5426 1.06 18.9226 0.72 18.1826C0.5 17.7426 0.46 17.4426 0.6 17.2826C0.74 17.1026 0.86 17.0426 0.96 17.1026C1.08 17.1426 1.33 17.3526 1.71 17.7326C2.45 18.5126 3.48 18.9026 4.8 18.9026C4.88 18.9026 4.95 18.9026 5.01 18.9026C5.09 18.9026 5.16 18.9026 5.22 18.9026C5.28 18.9026 5.33 18.9026 5.37 18.9026C5.43 18.8826 5.48 18.8726 5.52 18.8726C5.68 18.8526 5.8 18.8226 5.88 18.7826C5.98 18.7226 6.1 18.6326 6.24 18.5126C6.34 18.4326 6.41 18.3626 6.45 18.3026C6.51 18.2226 6.55 18.1626 6.57 18.1226C6.61 18.0826 6.63 18.0426 6.63 18.0026C6.63 17.9426 6.58 17.8326 6.48 17.6726C6.38 17.4926 6.23 17.2726 6.03 17.0126C5.83 16.7326 5.65 16.5126 5.49 16.3526C5.35 16.1726 5.23 16.0526 5.13 15.9926C5.09 15.9326 4.95 15.8226 4.71 15.6626C4.65 15.6226 4.59 15.5826 4.53 15.5426C4.49 15.5026 4.45 15.4726 4.41 15.4526C4.37 15.4126 4.33 15.3826 4.29 15.3626C4.25 15.3226 4.22 15.2926 4.2 15.2726C4 15.1326 3.81 15.0226 3.63 14.9426C3.47 14.8426 3.32 14.7726 3.18 14.7326C3.04 14.7126 2.92 14.6826 2.82 14.6426C2.72 14.5826 2.64 14.5226 2.58 14.4626C2.54 14.4026 2.48 14.3526 2.4 14.3126C2.34 14.2726 2.26 14.2526 2.16 14.2526C1.98 14.2126 1.77 14.1126 1.53 13.9526C1.27 13.7926 1.03 13.5926 0.81 13.3526C0.61 13.1126 0.49 12.9426 0.45 12.8426C0.43 12.6426 0.46 12.4926 0.54 12.3926C0.58 12.3526 0.65 12.3026 0.75 12.2426C0.87 12.1626 1.01 12.0826 1.17 12.0026ZM13.7353 12.0326C13.9553 11.7926 14.1453 11.6826 14.3053 11.7026C14.3453 11.7226 14.3853 11.7926 14.4253 11.9126C14.4653 12.0126 14.4953 12.1726 14.5153 12.3926C14.5353 12.8326 14.5553 13.8326 14.5753 15.3926C14.6353 17.8126 14.7453 19.0726 14.9053 19.1726C15.0853 19.2926 15.3953 19.3526 15.8353 19.3526C16.2953 19.3326 16.6553 19.2526 16.9153 19.1126C17.2353 18.9326 17.7553 18.8626 18.4753 18.9026C18.8353 18.9226 19.1153 18.9626 19.3153 19.0226C19.5353 19.0826 19.6753 19.1526 19.7353 19.2326C19.8553 19.4326 19.7853 19.6226 19.5253 19.8026C19.2853 20.0226 18.7853 20.1326 18.0253 20.1326C17.2853 20.1326 16.7353 20.2026 16.3753 20.3426C16.0153 20.5026 15.7153 20.5826 15.4753 20.5826C15.2353 20.5826 15.0153 20.6826 14.8153 20.8826C14.6553 21.0626 14.5553 21.2726 14.5153 21.5126C14.4753 21.7726 14.4253 22.3326 14.3653 23.1926C14.3453 24.4326 14.2753 25.4526 14.1553 26.2526C14.1353 26.4526 14.0853 26.8026 14.0053 27.3026C13.9453 27.8226 13.9053 28.1626 13.8853 28.3226C13.7853 29.1626 13.5553 29.7026 13.1953 29.9426C13.0953 30.0026 12.9853 30.0426 12.8653 30.0626C12.7653 30.0826 12.6553 30.0726 12.5353 30.0326C12.4353 30.0126 12.3153 29.9626 12.1753 29.8826C12.0553 29.8226 11.9253 29.7326 11.7853 29.6126C11.5853 29.4726 11.4253 29.3626 11.3053 29.2826C11.2053 29.2026 11.1253 29.1626 11.0653 29.1626C10.9653 29.1626 10.8753 29.0126 10.7953 28.7126C10.7153 28.4326 10.6553 27.9926 10.6153 27.3926C10.5353 26.8126 10.4553 26.0826 10.3753 25.2026C10.2753 24.1826 10.5153 23.0826 11.0953 21.9026C11.1553 21.8026 11.2653 21.6526 11.4253 21.4526C11.5853 21.2526 11.7553 21.0626 11.9353 20.8826C12.1153 20.7026 12.2753 20.5526 12.4153 20.4326C12.4953 20.3726 12.5653 20.3326 12.6253 20.3126C12.6853 20.2726 12.7253 20.2526 12.7453 20.2526C12.7853 20.2526 12.8253 20.2426 12.8653 20.2226C12.9053 20.2026 12.9353 20.1726 12.9553 20.1326C12.9953 20.0726 13.0253 20.0126 13.0453 19.9526C13.0853 19.8726 13.1253 19.7926 13.1653 19.7126C13.2853 19.3326 13.3453 18.9326 13.3453 18.5126C13.3453 18.3326 13.3453 18.1826 13.3453 18.0626C13.3453 17.9426 13.3353 17.8626 13.3153 17.8226C13.3153 17.7626 13.2953 17.7226 13.2553 17.7026C13.2153 17.6626 13.1653 17.6426 13.1053 17.6426C12.9053 17.6426 12.6353 17.8326 12.2953 18.2126C12.1753 18.3526 12.0253 18.4826 11.8453 18.6026C11.6853 18.7226 11.5053 18.8426 11.3053 18.9626C10.9053 19.2226 10.6153 19.3526 10.4353 19.3526C10.4153 19.3526 10.3853 19.3426 10.3453 19.3226C10.3253 19.3026 10.2953 19.2826 10.2553 19.2626C10.2153 19.2426 10.1653 19.2126 10.1053 19.1726C10.0653 19.1326 10.0153 19.0826 9.95531 19.0226C9.89531 18.9626 9.82531 18.9026 9.74531 18.8426C9.68531 18.7826 9.61531 18.7126 9.53531 18.6326C9.05531 18.1526 8.75531 17.7826 8.63531 17.5226C8.51531 17.2826 8.50531 17.0826 8.60531 16.9226C8.72531 16.6826 8.78531 16.3326 8.78531 15.8726C8.78531 15.2926 8.88531 14.7326 9.08531 14.1926C9.28531 13.6526 9.52531 13.2626 9.80531 13.0226C10.0853 12.7626 10.3353 12.7226 10.5553 12.9026C10.6153 12.9626 10.6653 13.0426 10.7053 13.1426C10.7453 13.2426 10.7653 13.3626 10.7653 13.5026C10.7653 13.7826 10.6953 14.0426 10.5553 14.2826C10.4753 14.4226 10.4153 14.6426 10.3753 14.9426C10.3353 15.2226 10.3153 15.5826 10.3153 16.0226C10.3153 16.3426 10.3153 16.6126 10.3153 16.8326C10.3353 17.0526 10.3553 17.2326 10.3753 17.3726C10.4153 17.4926 10.4553 17.5726 10.4953 17.6126C10.5553 17.6726 10.6053 17.7226 10.6453 17.7626C10.7053 17.7826 10.7553 17.7926 10.7953 17.7926C10.9353 17.7926 11.2153 17.5726 11.6353 17.1326C12.0753 16.6926 12.2953 16.3926 12.2953 16.2326C12.2953 16.0526 12.3953 15.6926 12.5953 15.1526C12.7953 14.6126 12.8953 14.1426 12.8953 13.7426C12.8953 13.6026 12.9153 13.4626 12.9553 13.3226C12.9953 13.1826 13.0453 13.0426 13.1053 12.9026C13.1853 12.7626 13.2753 12.6226 13.3753 12.4826C13.4753 12.3226 13.5953 12.1726 13.7353 12.0326ZM13.0153 24.4226C13.0553 23.3226 13.0653 22.6326 13.0453 22.3526C13.0253 22.0926 12.9653 21.9626 12.8653 21.9626C12.8253 21.9626 12.7753 21.9826 12.7153 22.0226C12.6553 22.0626 12.5953 22.1326 12.5353 22.2326C12.4753 22.3326 12.4053 22.4526 12.3253 22.5926C12.2853 22.6926 12.2353 22.7826 12.1753 22.8626C12.1353 22.9626 12.0953 23.0626 12.0553 23.1626C12.0153 23.2626 11.9753 23.3626 11.9353 23.4626C11.8953 23.5626 11.8553 23.6626 11.8153 23.7626C11.7753 23.8826 11.7353 23.9926 11.6953 24.0926C11.6153 24.4326 11.5653 24.8426 11.5453 25.3226C11.5253 25.8226 11.5653 26.1926 11.6653 26.4326C11.7853 26.7126 11.8653 26.9526 11.9053 27.1526C11.9653 27.4126 12.0753 27.5926 12.2353 27.6926C12.3553 27.7326 12.4553 27.7126 12.5353 27.6326C12.5753 27.5726 12.6053 27.4926 12.6253 27.3926C12.6653 27.3126 12.7053 27.2126 12.7453 27.0926C12.8053 26.8326 12.8453 26.4926 12.8653 26.0726C12.9053 25.6526 12.9553 25.1026 13.0153 24.4226ZM21.1985 12.0026C21.5185 11.8426 21.7885 11.7426 22.0085 11.7026C22.2485 11.6626 22.6585 11.6626 23.2385 11.7026C24.4585 11.7426 25.3585 11.8726 25.9385 12.0926C26.0785 12.1326 26.2085 12.1926 26.3285 12.2726C26.4485 12.3326 26.5485 12.4026 26.6285 12.4826C26.7285 12.5626 26.8085 12.6526 26.8685 12.7526C26.9285 12.8526 26.9785 12.9626 27.0185 13.0826C27.0785 13.2026 27.0985 13.3226 27.0785 13.4426C27.0585 13.5426 26.9985 13.6426 26.8985 13.7426C26.7785 13.8426 26.6885 13.9026 26.6285 13.9226C26.5885 13.9226 26.4785 13.8626 26.2985 13.7426C26.0585 13.5826 25.7385 13.4726 25.3385 13.4126C25.1185 13.3926 24.7685 13.3426 24.2885 13.2626C23.9685 13.1626 23.8285 13.1826 23.8685 13.3226C23.8685 13.5426 24.1485 13.8026 24.7085 14.1026C25.2685 14.4426 25.8085 14.9026 26.3285 15.4826C27.4085 16.6226 27.9285 17.5226 27.8885 18.1826C27.8685 18.5026 27.7085 18.8226 27.4085 19.1426C27.1285 19.4426 26.6985 19.7426 26.1185 20.0426C25.2185 20.1026 24.1885 20.1026 23.0285 20.0426C21.8485 19.5426 21.0885 18.9226 20.7485 18.1826C20.5285 17.7426 20.4885 17.4426 20.6285 17.2826C20.7685 17.1026 20.8885 17.0426 20.9885 17.1026C21.1085 17.1426 21.3585 17.3526 21.7385 17.7326C22.4785 18.5126 23.5085 18.9026 24.8285 18.9026C24.9085 18.9026 24.9785 18.9026 25.0385 18.9026C25.1185 18.9026 25.1885 18.9026 25.2485 18.9026C25.3085 18.9026 25.3585 18.9026 25.3985 18.9026C25.4585 18.8826 25.5085 18.8726 25.5485 18.8726C25.7085 18.8526 25.8285 18.8226 25.9085 18.7826C26.0085 18.7226 26.1285 18.6326 26.2685 18.5126C26.3685 18.4326 26.4385 18.3626 26.4785 18.3026C26.5385 18.2226 26.5785 18.1626 26.5985 18.1226C26.6385 18.0826 26.6585 18.0426 26.6585 18.0026C26.6585 17.9426 26.6085 17.8326 26.5085 17.6726C26.4085 17.4926 26.2585 17.2726 26.0585 17.0126C25.8585 16.7326 25.6785 16.5126 25.5185 16.3526C25.3785 16.1726 25.2585 16.0526 25.1585 15.9926C25.1185 15.9326 24.9785 15.8226 24.7385 15.6626C24.6785 15.6226 24.6185 15.5826 24.5585 15.5426C24.5185 15.5026 24.4785 15.4726 24.4385 15.4526C24.3985 15.4126 24.3585 15.3826 24.3185 15.3626C24.2785 15.3226 24.2485 15.2926 24.2285 15.2726C24.0285 15.1326 23.8385 15.0226 23.6585 14.9426C23.4985 14.8426 23.3485 14.7726 23.2085 14.7326C23.0685 14.7126 22.9485 14.6826 22.8485 14.6426C22.7485 14.5826 22.6685 14.5226 22.6085 14.4626C22.5685 14.4026 22.5085 14.3526 22.4285 14.3126C22.3685 14.2726 22.2885 14.2526 22.1885 14.2526C22.0085 14.2126 21.7985 14.1126 21.5585 13.9526C21.2985 13.7926 21.0585 13.5926 20.8385 13.3526C20.6385 13.1126 20.5185 12.9426 20.4785 12.8426C20.4585 12.6426 20.4885 12.4926 20.5685 12.3926C20.6085 12.3526 20.6785 12.3026 20.7785 12.2426C20.8985 12.1626 21.0385 12.0826 21.1985 12.0026ZM34.6338 8.79258C34.9538 8.33258 35.1638 8.10258 35.2638 8.10258C35.2838 8.10258 35.3138 8.11258 35.3538 8.13258C35.3938 8.13258 35.4338 8.15258 35.4738 8.19258C35.5138 8.23258 35.5438 8.29258 35.5638 8.37258C35.6238 8.45258 35.6638 8.55258 35.6838 8.67258C35.7238 8.79258 35.7438 8.92258 35.7438 9.06258C35.7438 9.32258 35.7838 9.54258 35.8638 9.72258C35.9638 9.90258 36.1038 10.0426 36.2838 10.1426C36.6438 10.3226 37.3938 10.4226 38.5338 10.4426C38.9338 10.4626 39.3038 10.4826 39.6438 10.5026C39.9838 10.5226 40.2538 10.5526 40.4538 10.5926C40.6738 10.6326 40.8438 10.6726 40.9638 10.7126C41.1038 10.7326 41.1838 10.7626 41.2038 10.8026C41.2238 10.8226 41.2338 10.8626 41.2338 10.9226C41.2338 10.9626 41.2338 11.0326 41.2338 11.1326V11.1626L41.2038 11.6126L38.6238 11.6426C37.5838 11.6826 36.8738 11.7226 36.4938 11.7626C36.3538 11.7826 36.2238 11.8126 36.1038 11.8526C36.0038 11.8926 35.9138 11.9326 35.8338 11.9726C35.7538 12.0126 35.6738 12.0626 35.5938 12.1226C35.5138 12.2226 35.4238 12.3626 35.3238 12.5426C35.2438 12.7026 35.1538 12.9226 35.0538 13.2026C34.8138 13.9226 34.7438 14.8826 34.8438 16.0826C34.9038 16.6826 34.9838 17.1626 35.0838 17.5226C35.2038 17.8826 35.3638 18.1226 35.5638 18.2426C35.6238 18.2826 35.7238 18.2826 35.8638 18.2426C36.0038 18.2226 36.1638 18.1626 36.3438 18.0626C36.4438 18.0226 36.5338 17.9826 36.6138 17.9426C36.7138 17.8826 36.8138 17.8226 36.9138 17.7626C37.1138 17.6426 37.3138 17.5126 37.5138 17.3726C37.7138 17.2326 37.9138 17.0926 38.1138 16.9526C38.1938 16.8726 38.2838 16.7926 38.3838 16.7126C38.5038 16.6126 38.6238 16.5026 38.7438 16.3826C38.8838 16.2426 39.0338 16.1026 39.1938 15.9626C39.3738 15.8026 39.5638 15.6326 39.7638 15.4526C39.9638 15.2526 40.1738 15.0526 40.3938 14.8526C41.7138 13.5926 42.5638 12.8226 42.9438 12.5426C43.1238 12.4026 43.2738 12.3126 43.3938 12.2726C43.5338 12.2326 43.6338 12.2326 43.6938 12.2726C43.8538 12.3926 43.9538 12.5026 43.9938 12.6026C44.0138 12.6426 44.0038 12.7026 43.9638 12.7826C43.9438 12.8626 43.9038 12.9626 43.8438 13.0826C43.7638 13.2226 43.6638 13.3626 43.5438 13.5026C43.4238 13.6426 43.2838 13.8026 43.1238 13.9826C42.7838 14.3226 42.2838 14.8226 41.6238 15.4826C40.8038 16.2826 40.1538 16.9126 39.6738 17.3726C39.2138 17.8326 38.9138 18.1126 38.7738 18.2126C38.1738 18.6926 37.5338 19.1326 36.8538 19.5326C36.1938 19.9126 35.7438 20.1026 35.5038 20.1026C35.2638 20.1026 34.9538 19.9726 34.5738 19.7126C34.1938 19.4326 33.9738 19.2026 33.9138 19.0226C33.8338 18.7826 33.6838 18.4126 33.4638 17.9126C33.2438 17.3926 33.1338 16.2926 33.1338 14.6126V12.0926V12.0326H33.0738H31.5738C30.4938 12.0326 29.6838 11.8926 29.1438 11.6126C28.8638 11.4726 28.6838 11.3226 28.6038 11.1626C28.5438 10.9826 28.5638 10.7926 28.6638 10.5926C28.7438 10.4726 28.9038 10.3926 29.1438 10.3526C29.3838 10.3326 30.0338 10.3526 31.0938 10.4126L33.3438 10.5326H33.3738L33.4038 10.5026L33.7338 10.0226C34.0338 9.62258 34.2538 9.32258 34.3938 9.12258C34.5338 8.92258 34.6138 8.81258 34.6338 8.79258ZM50.0372 11.8826C50.5172 11.6626 50.9972 11.5526 51.4772 11.5526C51.9772 11.5326 52.3672 11.6326 52.6472 11.8526C52.8272 11.9926 52.9372 12.1426 52.9772 12.3026C53.0372 12.4426 53.0672 12.7026 53.0672 13.0826C53.0672 13.7026 52.9172 14.2326 52.6172 14.6726C52.3372 15.0326 51.7872 15.5026 50.9672 16.0826C50.1472 16.6426 49.5172 16.9926 49.0772 17.1326C48.6572 17.2326 48.4172 17.4126 48.3572 17.6726C48.2172 18.1926 48.3372 18.5326 48.7172 18.6926C48.8972 18.7326 49.3472 18.6426 50.0672 18.4226C50.7872 18.1826 51.3872 17.9126 51.8672 17.6126C52.0872 17.4926 52.2772 17.3826 52.4372 17.2826C52.6172 17.1826 52.7672 17.1026 52.8872 17.0426C53.0272 16.9826 53.1472 16.9326 53.2472 16.8926C53.4672 16.7726 53.6372 16.6826 53.7572 16.6226C53.8972 16.5426 53.9872 16.4926 54.0272 16.4726C54.0672 16.4526 54.1072 16.4326 54.1472 16.4126C54.1872 16.3926 54.2272 16.3726 54.2672 16.3526C54.3072 16.3326 54.3472 16.3126 54.3872 16.2926C54.4272 16.2726 54.4672 16.2526 54.5072 16.2326C54.6472 16.1726 55.2372 15.9026 56.2772 15.4226C56.6972 15.2226 57.0372 15.0726 57.2972 14.9726C57.5572 14.8726 57.7672 14.8226 57.9272 14.8226C58.0072 14.8026 58.0672 14.8026 58.1072 14.8226C58.1672 14.8426 58.2072 14.8726 58.2272 14.9126C58.2872 14.9726 58.3172 15.0926 58.3172 15.2726C58.3172 15.3926 58.2772 15.5126 58.1972 15.6326C58.1172 15.7526 57.9872 15.8726 57.8072 15.9926C57.6872 16.0726 57.5072 16.1726 57.2672 16.2926C57.0472 16.4126 56.7672 16.5626 56.4272 16.7426C56.0872 16.9026 55.6972 17.0926 55.2572 17.3126C55.0172 17.4326 54.7972 17.5426 54.5972 17.6426C54.3972 17.7426 54.2172 17.8326 54.0572 17.9126C53.9172 17.9926 53.7872 18.0626 53.6672 18.1226C53.5672 18.1826 53.4872 18.2326 53.4272 18.2726C53.3672 18.3126 53.3272 18.3426 53.3072 18.3626C53.2872 18.4026 53.2372 18.4526 53.1572 18.5126C53.0972 18.5526 53.0072 18.6126 52.8872 18.6926C52.7672 18.7526 52.6172 18.8326 52.4372 18.9326C52.2772 19.0126 52.0972 19.1026 51.8972 19.2026C51.4772 19.4226 51.1272 19.5826 50.8472 19.6826C50.5872 19.7826 50.4172 19.8326 50.3372 19.8326C50.2172 19.8326 50.0872 19.8526 49.9472 19.8926C49.8072 19.9126 49.6572 19.9526 49.4972 20.0126C49.1172 20.1326 48.6572 20.1026 48.1172 19.9226C47.5772 19.7226 47.1872 19.4426 46.9472 19.0826C46.7872 18.8226 46.6572 18.6726 46.5572 18.6326C46.4972 18.6126 46.3972 18.6026 46.2572 18.6026C46.1372 18.6026 45.9772 18.6126 45.7772 18.6326C45.3972 18.6726 45.1572 18.6826 45.0572 18.6626C44.9572 18.6426 44.8672 18.5226 44.7872 18.3026C44.7272 18.2026 44.6872 18.1226 44.6672 18.0626C44.6672 17.9826 44.6672 17.9226 44.6672 17.8826C44.7072 17.8026 44.8472 17.6526 45.0872 17.4326C45.4672 17.1126 45.7272 16.9526 45.8672 16.9526C46.5272 16.9326 47.0072 16.4626 47.3072 15.5426C47.4072 15.1826 47.5472 14.8226 47.7272 14.4626C47.9272 14.0826 48.1572 13.7226 48.4172 13.3826C48.6772 13.0426 48.9372 12.7526 49.1972 12.5126C49.4772 12.2526 49.7572 12.0426 50.0372 11.8826ZM51.7172 13.0526C51.3972 12.9326 51.0572 12.9926 50.6972 13.2326C50.1572 13.5726 49.7272 13.9726 49.4072 14.4326C49.0872 14.8926 49.0172 15.2126 49.1972 15.3926C49.2572 15.4326 49.3572 15.4426 49.4972 15.4226C49.6372 15.3826 49.8272 15.2926 50.0672 15.1526C50.5672 14.9126 51.0072 14.6226 51.3872 14.2826C51.6872 14.0026 51.8772 13.7626 51.9572 13.5626C52.0372 13.3226 51.9572 13.1526 51.7172 13.0526ZM66.9527 13.5026C67.7727 12.6826 68.3027 12.1726 68.5427 11.9726C68.6827 11.8926 68.8127 11.8326 68.9327 11.7926C69.0727 11.7326 69.2027 11.7026 69.3227 11.7026C70.0427 11.7026 70.4827 11.9026 70.6427 12.3026C70.8227 12.7026 70.9127 13.7726 70.9127 15.5126C70.9127 17.3126 70.8427 18.3426 70.7027 18.6026C70.6627 18.7226 70.6027 18.8226 70.5227 18.9026C70.4427 18.9826 70.3527 19.0526 70.2527 19.1126C70.1927 19.1326 70.1427 19.1526 70.1027 19.1726C70.0627 19.1726 70.0227 19.1726 69.9827 19.1726C69.9427 19.1726 69.9027 19.1726 69.8627 19.1726C69.8427 19.1526 69.8227 19.1226 69.8027 19.0826C69.7027 19.0026 69.6327 18.2826 69.5927 16.9226C69.5127 15.4826 69.4327 14.5426 69.3527 14.1026C69.3127 13.8826 69.2527 13.7226 69.1727 13.6226C69.1127 13.5026 69.0327 13.4426 68.9327 13.4426C68.6927 13.4426 68.2327 13.7826 67.5527 14.4626C66.8727 15.0826 66.2827 15.9126 65.7827 16.9526C65.3427 17.8726 65.0327 18.5726 64.8527 19.0526C64.7527 19.3926 64.5827 19.6626 64.3427 19.8626C64.1027 20.0626 63.8727 20.1326 63.6527 20.0726C63.5127 20.0126 63.4127 19.8526 63.3527 19.5926C63.2927 19.3126 63.2827 19.0326 63.3227 18.7526C63.5227 17.9326 63.6327 17.3226 63.6527 16.9226C63.6727 16.7826 63.6727 16.6426 63.6527 16.5026C63.6527 16.3626 63.6327 16.2226 63.5927 16.0826C63.5727 15.9226 63.5427 15.7726 63.5027 15.6326C63.4627 15.4526 63.4127 15.3026 63.3527 15.1826C63.2927 15.0626 63.2327 14.9626 63.1727 14.8826C63.1327 14.7826 63.0827 14.7126 63.0227 14.6726C62.9627 14.6326 62.9127 14.6126 62.8727 14.6126C62.6127 14.6126 62.1427 15.2926 61.4627 16.6526C61.1627 17.2126 60.8927 17.6726 60.6527 18.0326C60.4327 18.3926 60.2427 18.6526 60.0827 18.8126C59.7827 19.1126 59.4827 19.1126 59.1827 18.8126C59.0627 18.6926 59.0027 17.5326 59.0027 15.3326C59.0027 13.1326 59.0627 11.9926 59.1827 11.9126C59.4027 11.7726 59.6927 12.0026 60.0527 12.6026C60.2327 12.9026 60.3627 13.1926 60.4427 13.4726C60.5427 13.7326 60.6027 13.9926 60.6227 14.2526C60.6227 14.3726 60.6327 14.4726 60.6527 14.5526C60.6927 14.6126 60.7327 14.6426 60.7727 14.6426C60.8327 14.6426 60.9627 14.5526 61.1627 14.3726C61.3627 14.1926 61.6427 13.9126 62.0027 13.5326L63.0227 12.4526L63.6527 12.7226C64.0327 12.8826 64.2527 13.0626 64.3127 13.2626C64.3727 13.4426 64.5127 13.8126 64.7327 14.3726C64.9727 14.9126 65.1027 15.2126 65.1227 15.2726C65.1427 15.2926 65.2827 15.1726 65.5427 14.9126C65.8227 14.6526 66.2927 14.1826 66.9527 13.5026ZM86.3196 12.4526C87.1996 12.4526 87.9996 12.8426 88.7196 13.6226C88.7996 13.7426 88.8696 13.8526 88.9296 13.9526C89.0096 14.0326 89.0696 14.1126 89.1096 14.1926C89.1696 14.2726 89.2096 14.3426 89.2296 14.4026C89.2696 14.4826 89.2896 14.6026 89.2896 14.7626C89.3096 14.9026 89.3196 15.0626 89.3196 15.2426C89.3196 15.8826 89.1896 16.3626 88.9296 16.6826C88.6696 17.0026 88.5396 17.2626 88.5396 17.4626C88.5396 17.5226 88.4796 17.6226 88.3596 17.7626C88.2596 17.9026 88.1096 18.0726 87.9096 18.2726C87.4896 18.6926 87.2096 18.9026 87.0696 18.9026C87.0096 18.9026 86.8996 18.9526 86.7396 19.0526C86.5996 19.1526 86.4096 19.3026 86.1696 19.5026C85.7096 19.8826 85.1896 20.0826 84.6096 20.1026C84.4096 20.1026 84.2196 20.0826 84.0396 20.0426C83.8796 20.0026 83.7196 19.9526 83.5596 19.8926C83.4196 19.8126 83.2896 19.7126 83.1696 19.5926C83.0696 19.4926 82.9796 19.3926 82.8996 19.2926C82.8396 19.1926 82.7896 19.0826 82.7496 18.9626C82.6896 18.7426 82.6396 18.3126 82.5996 17.6726L82.5696 16.1726V16.1126H82.5096L81.8496 16.1726C80.8496 16.2526 80.3496 16.0926 80.3496 15.6926C80.3496 15.4326 80.5296 15.1826 80.8896 14.9426C81.0696 14.8226 81.3696 14.6526 81.7896 14.4326C82.2096 14.2126 82.7396 13.9326 83.3796 13.5926C84.9396 12.8326 85.9196 12.4526 86.3196 12.4526ZM87.0696 14.4026C86.8296 14.1026 86.6496 13.9526 86.5296 13.9526C86.4096 13.9326 86.1996 14.0126 85.8996 14.1926C85.6996 14.3326 85.5196 14.5126 85.3596 14.7326C85.1996 14.9526 85.0496 15.2226 84.9096 15.5426C84.6496 16.1626 84.5196 16.7426 84.5196 17.2826C84.5196 17.4226 84.5296 17.5426 84.5496 17.6426C84.5896 17.7426 84.6296 17.8326 84.6696 17.9126C84.7096 17.9926 84.7596 18.0526 84.8196 18.0926C84.8796 18.1326 84.9496 18.1626 85.0296 18.1826C85.2296 18.2026 85.4596 18.1426 85.7196 18.0026C85.9996 17.8426 86.2596 17.6226 86.4996 17.3426C86.7396 17.0626 86.9296 16.7726 87.0696 16.4726C87.2096 16.2326 87.3096 16.0226 87.3696 15.8426C87.4496 15.6426 87.4896 15.4726 87.4896 15.3326C87.4896 15.1926 87.4496 15.0526 87.3696 14.9126C87.3096 14.7526 87.2096 14.5826 87.0696 14.4026ZM96.7177 11.0726C96.7777 11.1126 96.8277 11.1526 96.8677 11.1926C96.9077 11.2326 96.9277 11.2726 96.9277 11.3126C96.9277 11.3526 96.9077 11.4126 96.8677 11.4926C96.8477 11.5726 96.7977 11.6826 96.7177 11.8226C96.6377 12.0026 96.5777 12.1626 96.5377 12.3026C96.5177 12.4226 96.5077 12.5326 96.5077 12.6326C96.5077 12.7526 96.4377 13.0126 96.2977 13.4126C96.1577 13.8126 95.9577 14.3526 95.6977 15.0326C95.2777 16.1726 94.6877 17.3026 93.9277 18.4226C93.5477 18.9826 93.2177 19.4026 92.9377 19.6826C92.6777 19.9626 92.4577 20.1026 92.2777 20.1026C91.3777 20.1026 90.7577 19.0626 90.4177 16.9826C90.3777 16.7826 90.3377 16.6026 90.2977 16.4426C90.2777 16.2826 90.2577 16.1426 90.2377 16.0226C90.2177 15.9026 90.1977 15.7926 90.1777 15.6926C90.1177 15.4926 90.0677 15.1826 90.0277 14.7626C90.0077 14.3426 89.9977 13.8126 89.9977 13.1726V11.3126V11.2826H90.4477C90.8277 11.2826 91.0877 11.5226 91.2277 12.0026C91.2877 12.1426 91.3377 12.3426 91.3777 12.6026C91.4177 12.8426 91.4477 13.1426 91.4677 13.5026C91.5077 13.8426 91.5377 14.2326 91.5577 14.6726C91.6177 16.0326 91.7577 16.9526 91.9777 17.4326C92.0777 17.6526 92.1677 17.8126 92.2477 17.9126C92.3277 18.0126 92.3977 18.0626 92.4577 18.0626C92.5377 18.0626 92.6277 18.0026 92.7277 17.8826C92.8477 17.7626 92.9777 17.5926 93.1177 17.3726C93.6377 16.5126 93.9377 15.8926 94.0177 15.5126C94.1777 14.9526 94.4877 14.1426 94.9477 13.0826C95.1077 12.7426 95.2477 12.4426 95.3677 12.1826C95.5077 11.9026 95.6277 11.6826 95.7277 11.5226C95.8277 11.3426 95.9177 11.2026 95.9977 11.1026C96.1377 10.9426 96.2477 10.8626 96.3277 10.8626C96.4077 10.8626 96.5377 10.9326 96.7177 11.0726ZM102.965 11.8826C103.445 11.6626 103.925 11.5526 104.405 11.5526C104.905 11.5326 105.295 11.6326 105.575 11.8526C105.755 11.9926 105.865 12.1426 105.905 12.3026C105.965 12.4426 105.995 12.7026 105.995 13.0826C105.995 13.7026 105.845 14.2326 105.545 14.6726C105.265 15.0326 104.715 15.5026 103.895 16.0826C103.075 16.6426 102.445 16.9926 102.005 17.1326C101.585 17.2326 101.345 17.4126 101.285 17.6726C101.145 18.1926 101.265 18.5326 101.645 18.6926C101.825 18.7326 102.275 18.6426 102.995 18.4226C103.715 18.1826 104.315 17.9126 104.795 17.6126C105.015 17.4926 105.205 17.3826 105.365 17.2826C105.545 17.1826 105.695 17.1026 105.815 17.0426C105.955 16.9826 106.075 16.9326 106.175 16.8926C106.395 16.7726 106.565 16.6826 106.685 16.6226C106.825 16.5426 106.915 16.4926 106.955 16.4726C106.995 16.4526 107.035 16.4326 107.075 16.4126C107.115 16.3926 107.155 16.3726 107.195 16.3526C107.235 16.3326 107.275 16.3126 107.315 16.2926C107.355 16.2726 107.395 16.2526 107.435 16.2326C107.575 16.1726 108.165 15.9026 109.205 15.4226C109.625 15.2226 109.965 15.0726 110.225 14.9726C110.485 14.8726 110.695 14.8226 110.855 14.8226C110.935 14.8026 110.995 14.8026 111.035 14.8226C111.095 14.8426 111.135 14.8726 111.155 14.9126C111.215 14.9726 111.245 15.0926 111.245 15.2726C111.245 15.3926 111.205 15.5126 111.125 15.6326C111.045 15.7526 110.915 15.8726 110.735 15.9926C110.615 16.0726 110.435 16.1726 110.195 16.2926C109.975 16.4126 109.695 16.5626 109.355 16.7426C109.015 16.9026 108.625 17.0926 108.185 17.3126C107.945 17.4326 107.725 17.5426 107.525 17.6426C107.325 17.7426 107.145 17.8326 106.985 17.9126C106.845 17.9926 106.715 18.0626 106.595 18.1226C106.495 18.1826 106.415 18.2326 106.355 18.2726C106.295 18.3126 106.255 18.3426 106.235 18.3626C106.215 18.4026 106.165 18.4526 106.085 18.5126C106.025 18.5526 105.935 18.6126 105.815 18.6926C105.695 18.7526 105.545 18.8326 105.365 18.9326C105.205 19.0126 105.025 19.1026 104.825 19.2026C104.405 19.4226 104.055 19.5826 103.775 19.6826C103.515 19.7826 103.345 19.8326 103.265 19.8326C103.145 19.8326 103.015 19.8526 102.875 19.8926C102.735 19.9126 102.585 19.9526 102.425 20.0126C102.045 20.1326 101.585 20.1026 101.045 19.9226C100.505 19.7226 100.115 19.4426 99.8749 19.0826C99.7149 18.8226 99.5849 18.6726 99.4849 18.6326C99.4249 18.6126 99.3249 18.6026 99.1849 18.6026C99.0649 18.6026 98.9049 18.6126 98.7049 18.6326C98.3249 18.6726 98.0849 18.6826 97.9849 18.6626C97.8849 18.6426 97.7949 18.5226 97.7149 18.3026C97.6549 18.2026 97.6149 18.1226 97.5949 18.0626C97.5949 17.9826 97.5949 17.9226 97.5949 17.8826C97.6349 17.8026 97.7749 17.6526 98.0149 17.4326C98.3949 17.1126 98.6549 16.9526 98.7949 16.9526C99.4549 16.9326 99.9349 16.4626 100.235 15.5426C100.335 15.1826 100.475 14.8226 100.655 14.4626C100.855 14.0826 101.085 13.7226 101.345 13.3826C101.605 13.0426 101.865 12.7526 102.125 12.5126C102.405 12.2526 102.685 12.0426 102.965 11.8826ZM104.645 13.0526C104.325 12.9326 103.985 12.9926 103.625 13.2326C103.085 13.5726 102.655 13.9726 102.335 14.4326C102.015 14.8926 101.945 15.2126 102.125 15.3926C102.185 15.4326 102.285 15.4426 102.425 15.4226C102.565 15.3826 102.755 15.2926 102.995 15.1526C103.495 14.9126 103.935 14.6226 104.315 14.2826C104.615 14.0026 104.805 13.7626 104.885 13.5626C104.965 13.3226 104.885 13.1526 104.645 13.0526ZM113.7 11.9726C113.44 12.0726 113.22 12.2126 113.04 12.3926C112.9 12.5726 112.71 12.6826 112.47 12.7226C112.37 12.7426 112.27 12.7426 112.17 12.7226C112.09 12.7026 112.03 12.6526 111.99 12.5726C111.95 12.4926 111.93 12.4026 111.93 12.3026C111.93 12.2026 111.96 12.1026 112.02 12.0026C112.1 11.7826 112.26 11.5526 112.5 11.3126C112.74 11.0726 113.03 10.8726 113.37 10.7126C114.09 10.3326 114.65 10.2826 115.05 10.5626C115.31 10.7426 115.5 10.9926 115.62 11.3126C115.74 11.6326 115.8 12.0326 115.8 12.5126C115.8 13.2126 115.86 13.5826 115.98 13.6226C116.02 13.6426 116.08 13.6326 116.16 13.5926C116.24 13.5326 116.34 13.4526 116.46 13.3526C116.58 13.2326 116.72 13.0826 116.88 12.9026C117.88 11.8426 118.63 11.3126 119.13 11.3126C119.31 11.3126 119.53 11.3526 119.79 11.4326C120.07 11.4926 120.32 11.5826 120.54 11.7026C120.78 11.8226 120.92 11.9326 120.96 12.0326C120.96 12.0726 120.96 12.1226 120.96 12.1826C120.98 12.2226 121 12.3026 121.02 12.4226C121.04 12.5226 121.02 12.5826 120.96 12.6026C120.84 12.7026 120.58 12.7326 120.18 12.6926C120.08 12.6726 119.99 12.6626 119.91 12.6626C119.83 12.6626 119.75 12.6626 119.67 12.6626C119.61 12.6626 119.54 12.6726 119.46 12.6926C119.4 12.6926 119.34 12.6926 119.28 12.6926C119.04 12.7526 118.68 12.8926 118.2 13.1126C118.16 13.1326 118.11 13.1826 118.05 13.2626C117.99 13.3226 117.91 13.4126 117.81 13.5326C117.73 13.6326 117.64 13.7626 117.54 13.9226C117.46 14.0226 117.38 14.1426 117.3 14.2826C117.24 14.4026 117.16 14.5426 117.06 14.7026C116.98 14.8626 116.9 15.0326 116.82 15.2126C116.74 15.3926 116.65 15.5926 116.55 15.8126C116.45 16.0126 116.35 16.2326 116.25 16.4726C116.19 16.6126 116.14 16.8426 116.1 17.1626C116.08 17.4626 116.07 17.8426 116.07 18.3026V19.7426L116.04 19.7726L115.65 19.9526C115.55 20.0126 115.46 20.0526 115.38 20.0726C115.3 20.0926 115.24 20.0926 115.2 20.0726C115.12 20.0526 114.98 19.9526 114.78 19.7726C114.5 19.4726 114.39 19.2226 114.45 19.0226C114.63 18.3826 114.69 17.1526 114.63 15.3326C114.59 14.6126 114.55 14.0026 114.51 13.5026C114.47 12.9826 114.42 12.5926 114.36 12.3326C114.32 12.0726 114.27 11.9326 114.21 11.9126C114.21 11.8926 114.18 11.8826 114.12 11.8826C114.08 11.8826 114.01 11.8926 113.91 11.9126C113.83 11.9326 113.76 11.9526 113.7 11.9726ZM128.416 11.0726C128.476 11.1126 128.526 11.1526 128.566 11.1926C128.606 11.2326 128.626 11.2726 128.626 11.3126C128.626 11.3526 128.606 11.4126 128.566 11.4926C128.546 11.5726 128.496 11.6826 128.416 11.8226C128.336 12.0026 128.276 12.1626 128.236 12.3026C128.216 12.4226 128.206 12.5326 128.206 12.6326C128.206 12.7526 128.136 13.0126 127.996 13.4126C127.856 13.8126 127.656 14.3526 127.396 15.0326C126.976 16.1726 126.386 17.3026 125.626 18.4226C125.246 18.9826 124.916 19.4026 124.636 19.6826C124.376 19.9626 124.156 20.1026 123.976 20.1026C123.076 20.1026 122.456 19.0626 122.116 16.9826C122.076 16.7826 122.036 16.6026 121.996 16.4426C121.976 16.2826 121.956 16.1426 121.936 16.0226C121.916 15.9026 121.896 15.7926 121.876 15.6926C121.816 15.4926 121.766 15.1826 121.726 14.7626C121.706 14.3426 121.696 13.8126 121.696 13.1726V11.3126V11.2826H122.146C122.526 11.2826 122.786 11.5226 122.926 12.0026C122.986 12.1426 123.036 12.3426 123.076 12.6026C123.116 12.8426 123.146 13.1426 123.166 13.5026C123.206 13.8426 123.236 14.2326 123.256 14.6726C123.316 16.0326 123.456 16.9526 123.676 17.4326C123.776 17.6526 123.866 17.8126 123.946 17.9126C124.026 18.0126 124.096 18.0626 124.156 18.0626C124.236 18.0626 124.326 18.0026 124.426 17.8826C124.546 17.7626 124.676 17.5926 124.816 17.3726C125.336 16.5126 125.636 15.8926 125.716 15.5126C125.876 14.9526 126.186 14.1426 126.646 13.0826C126.806 12.7426 126.946 12.4426 127.066 12.1826C127.206 11.9026 127.326 11.6826 127.426 11.5226C127.526 11.3426 127.616 11.2026 127.696 11.1026C127.836 10.9426 127.946 10.8626 128.026 10.8626C128.106 10.8626 128.236 10.9326 128.416 11.0726ZM133.013 1.02258C133.113 0.782577 133.273 0.632577 133.493 0.572578C133.613 0.532577 133.763 0.522577 133.943 0.542577C134.103 0.582577 134.283 0.642578 134.483 0.722578C134.683 0.802577 134.853 0.892577 134.993 0.992578C135.033 1.03258 135.073 1.08258 135.113 1.14258C135.153 1.18258 135.173 1.24258 135.173 1.32258C135.193 1.38258 135.203 1.44258 135.203 1.50258C135.183 1.72258 135.123 1.90258 135.023 2.04258C134.883 2.16258 134.623 2.22258 134.243 2.22258C134.043 2.22258 133.853 2.19258 133.673 2.13258C133.513 2.05258 133.373 1.93258 133.253 1.77258C133.073 1.61258 132.963 1.48258 132.923 1.38258C132.883 1.28258 132.913 1.16258 133.013 1.02258ZM131.873 15.3926C131.873 15.2926 131.883 15.1826 131.903 15.0626C131.923 14.9426 131.953 14.8126 131.993 14.6726C132.013 14.5926 132.083 14.3826 132.203 14.0426C132.223 13.9226 132.243 13.8126 132.263 13.7126C132.303 13.6126 132.333 13.5326 132.353 13.4726C132.373 13.3926 132.393 13.3226 132.413 13.2626C132.613 12.6026 132.773 12.1426 132.893 11.8826H132.923C132.983 11.7626 133.033 11.5726 133.073 11.3126C133.133 11.0326 133.183 10.7026 133.223 10.3226C133.283 9.56258 133.273 9.14258 133.193 9.06258C133.133 9.04258 133.053 9.04258 132.953 9.06258C132.873 9.08258 132.753 9.13258 132.593 9.21258C132.453 9.29258 132.283 9.41258 132.083 9.57258C131.523 10.0126 131.093 10.4726 130.793 10.9526C130.533 11.3526 130.263 11.4826 129.983 11.3426C129.903 11.3026 129.833 11.2426 129.773 11.1626C129.713 11.0626 129.663 10.9526 129.623 10.8326C129.603 10.7126 129.593 10.5726 129.593 10.4126C129.593 10.0126 129.723 9.65258 129.983 9.33258C130.443 8.79258 131.243 8.23258 132.383 7.65258C132.723 7.47258 133.113 7.37258 133.553 7.35258C134.013 7.35258 134.333 7.43258 134.513 7.59258C134.693 7.75258 134.783 8.27258 134.783 9.15258C134.783 9.37258 134.773 9.58258 134.753 9.78258C134.753 9.96258 134.743 10.1326 134.723 10.2926C134.723 10.4526 134.703 10.6026 134.663 10.7426C134.643 10.8626 134.613 10.9726 134.573 11.0726C134.493 11.3526 134.383 11.7326 134.243 12.2126C134.103 12.6926 133.933 13.2726 133.733 13.9526C133.673 14.2926 133.583 14.6126 133.463 14.9126C133.403 15.0726 133.353 15.2326 133.313 15.3926C133.273 15.5326 133.233 15.6726 133.193 15.8126C133.193 15.9126 133.163 16.1126 133.103 16.4126C133.043 16.7126 132.993 16.9326 132.953 17.0726C132.913 17.2926 132.883 17.4826 132.863 17.6426C132.863 17.7826 132.883 17.8626 132.923 17.8826C133.023 17.9826 133.253 17.8526 133.613 17.4926C133.653 17.4526 133.683 17.4126 133.703 17.3726C133.743 17.3326 133.783 17.2926 133.823 17.2526C133.863 17.2126 133.903 17.1726 133.943 17.1326C136.043 14.7926 137.093 13.5226 137.093 13.3226C137.093 13.1226 137.423 12.5726 138.083 11.6726C138.263 11.4726 138.453 11.3526 138.653 11.3126C138.753 11.2926 138.843 11.3026 138.923 11.3426C139.003 11.3626 139.063 11.4226 139.103 11.5226C139.143 11.6626 139.083 11.9926 138.923 12.5126C138.843 12.7526 138.763 12.9526 138.683 13.1126C138.623 13.2726 138.553 13.3926 138.473 13.4726L138.323 13.8626C138.323 14.0426 138.223 14.2326 138.023 14.4326C137.903 14.5126 137.803 14.6126 137.723 14.7326C137.643 14.8326 137.573 14.9526 137.513 15.0926C137.353 15.4326 136.573 16.3026 135.173 17.7026C133.773 19.0826 132.943 19.8326 132.683 19.9526C132.443 20.0526 132.223 20.1026 132.023 20.1026C131.843 20.0826 131.683 20.0026 131.543 19.8626C131.423 19.7226 131.323 19.5426 131.243 19.3226C131.183 19.1026 131.153 18.8326 131.153 18.5126C131.153 17.7526 131.323 16.9726 131.663 16.1726C131.803 15.8726 131.873 15.6126 131.873 15.3926ZM145.454 11.8826C145.934 11.6626 146.414 11.5526 146.894 11.5526C147.394 11.5326 147.784 11.6326 148.064 11.8526C148.244 11.9926 148.354 12.1426 148.394 12.3026C148.454 12.4426 148.484 12.7026 148.484 13.0826C148.484 13.7026 148.334 14.2326 148.034 14.6726C147.754 15.0326 147.204 15.5026 146.384 16.0826C145.564 16.6426 144.934 16.9926 144.494 17.1326C144.074 17.2326 143.834 17.4126 143.774 17.6726C143.634 18.1926 143.754 18.5326 144.134 18.6926C144.314 18.7326 144.764 18.6426 145.484 18.4226C146.204 18.1826 146.804 17.9126 147.284 17.6126C147.504 17.4926 147.694 17.3826 147.854 17.2826C148.034 17.1826 148.184 17.1026 148.304 17.0426C148.444 16.9826 148.564 16.9326 148.664 16.8926C148.884 16.7726 149.054 16.6826 149.174 16.6226C149.314 16.5426 149.404 16.4926 149.444 16.4726C149.484 16.4526 149.524 16.4326 149.564 16.4126C149.604 16.3926 149.644 16.3726 149.684 16.3526C149.724 16.3326 149.764 16.3126 149.804 16.2926C149.844 16.2726 149.884 16.2526 149.924 16.2326C150.064 16.1726 150.654 15.9026 151.694 15.4226C152.114 15.2226 152.454 15.0726 152.714 14.9726C152.974 14.8726 153.184 14.8226 153.344 14.8226C153.424 14.8026 153.484 14.8026 153.524 14.8226C153.584 14.8426 153.624 14.8726 153.644 14.9126C153.704 14.9726 153.734 15.0926 153.734 15.2726C153.734 15.3926 153.694 15.5126 153.614 15.6326C153.534 15.7526 153.404 15.8726 153.224 15.9926C153.104 16.0726 152.924 16.1726 152.684 16.2926C152.464 16.4126 152.184 16.5626 151.844 16.7426C151.504 16.9026 151.114 17.0926 150.674 17.3126C150.434 17.4326 150.214 17.5426 150.014 17.6426C149.814 17.7426 149.634 17.8326 149.474 17.9126C149.334 17.9926 149.204 18.0626 149.084 18.1226C148.984 18.1826 148.904 18.2326 148.844 18.2726C148.784 18.3126 148.744 18.3426 148.724 18.3626C148.704 18.4026 148.654 18.4526 148.574 18.5126C148.514 18.5526 148.424 18.6126 148.304 18.6926C148.184 18.7526 148.034 18.8326 147.854 18.9326C147.694 19.0126 147.514 19.1026 147.314 19.2026C146.894 19.4226 146.544 19.5826 146.264 19.6826C146.004 19.7826 145.834 19.8326 145.754 19.8326C145.634 19.8326 145.504 19.8526 145.364 19.8926C145.224 19.9126 145.074 19.9526 144.914 20.0126C144.534 20.1326 144.074 20.1026 143.534 19.9226C142.994 19.7226 142.604 19.4426 142.364 19.0826C142.204 18.8226 142.074 18.6726 141.974 18.6326C141.914 18.6126 141.814 18.6026 141.674 18.6026C141.554 18.6026 141.394 18.6126 141.194 18.6326C140.814 18.6726 140.574 18.6826 140.474 18.6626C140.374 18.6426 140.284 18.5226 140.204 18.3026C140.144 18.2026 140.104 18.1226 140.084 18.0626C140.084 17.9826 140.084 17.9226 140.084 17.8826C140.124 17.8026 140.264 17.6526 140.504 17.4326C140.884 17.1126 141.144 16.9526 141.284 16.9526C141.944 16.9326 142.424 16.4626 142.724 15.5426C142.824 15.1826 142.964 14.8226 143.144 14.4626C143.344 14.0826 143.574 13.7226 143.834 13.3826C144.094 13.0426 144.354 12.7526 144.614 12.5126C144.894 12.2526 145.174 12.0426 145.454 11.8826ZM147.134 13.0526C146.814 12.9326 146.474 12.9926 146.114 13.2326C145.574 13.5726 145.144 13.9726 144.824 14.4326C144.504 14.8926 144.434 15.2126 144.614 15.3926C144.674 15.4326 144.774 15.4426 144.914 15.4226C145.054 15.3826 145.244 15.2926 145.484 15.1526C145.984 14.9126 146.424 14.6226 146.804 14.2826C147.104 14.0026 147.294 13.7626 147.374 13.5626C147.454 13.3226 147.374 13.1526 147.134 13.0526ZM163.689 11.8526C163.749 11.7326 163.889 11.6726 164.109 11.6726C164.309 11.6926 164.469 11.7626 164.589 11.8826C164.709 12.0626 164.729 12.7626 164.649 13.9826C164.609 14.8626 164.539 15.4726 164.439 15.8126C164.359 16.1326 164.099 16.7526 163.659 17.6726C163.459 18.0726 163.279 18.4226 163.119 18.7226C162.959 19.0226 162.819 19.2726 162.699 19.4726C162.579 19.6526 162.489 19.7726 162.429 19.8326C162.189 20.0326 161.939 20.1226 161.679 20.1026C161.419 20.0626 161.139 19.9226 160.839 19.6826C160.559 19.4226 160.329 19.1226 160.149 18.7826C159.969 18.4226 159.849 18.0126 159.789 17.5526C159.709 16.9326 159.599 16.4426 159.459 16.0826C159.339 15.8226 159.249 15.6726 159.189 15.6326C159.129 15.5726 159.039 15.6126 158.919 15.7526C158.739 15.9326 158.369 16.5326 157.809 17.5526C157.349 18.3926 156.969 18.9426 156.669 19.2026C156.369 19.4426 156.059 19.4726 155.739 19.2926C155.679 19.2526 155.609 19.2126 155.529 19.1726C155.469 19.1326 155.409 19.0926 155.349 19.0526C155.309 18.9926 155.259 18.9326 155.199 18.8726C155.159 18.8126 155.119 18.7426 155.079 18.6626C155.059 18.6226 155.039 18.5726 155.019 18.5126C154.999 18.4526 154.979 18.3926 154.959 18.3326C154.939 18.2526 154.929 18.1826 154.929 18.1226C154.889 17.9026 154.859 17.6526 154.839 17.3726C154.819 17.0726 154.809 16.7026 154.809 16.2626C154.809 15.9426 154.809 15.6526 154.809 15.3926C154.809 15.1126 154.799 14.8626 154.779 14.6426C154.759 14.4226 154.729 14.2326 154.689 14.0726C154.669 13.8926 154.639 13.7426 154.599 13.6226C154.299 12.8426 154.369 12.3726 154.809 12.2126C155.009 12.1526 155.219 12.1826 155.439 12.3026C155.539 12.3626 155.619 12.4326 155.679 12.5126C155.739 12.5726 155.769 12.6426 155.769 12.7226C155.769 12.9226 155.879 13.3226 156.099 13.9226C156.319 14.5226 156.429 15.2226 156.429 16.0226C156.429 16.5226 156.449 16.8526 156.489 17.0126C156.529 17.0926 156.569 17.1426 156.609 17.1626C156.729 17.1026 157.109 16.4926 157.749 15.3326C158.069 14.7126 158.349 14.2226 158.589 13.8626C158.849 13.4826 159.079 13.2326 159.279 13.1126C159.359 13.0526 159.449 13.0226 159.549 13.0226C159.649 13.0026 159.749 13.0126 159.849 13.0526C159.929 13.0726 159.999 13.1126 160.059 13.1726C160.119 13.2326 160.179 13.3026 160.239 13.3826C160.279 13.4226 160.309 13.4726 160.329 13.5326C160.369 13.5726 160.399 13.6226 160.419 13.6826C160.439 13.7226 160.459 13.7726 160.479 13.8326C160.499 13.8926 160.519 13.9526 160.539 14.0126C160.619 14.2526 160.659 14.5026 160.659 14.7626C160.659 15.1226 160.759 15.5926 160.959 16.1726C161.179 16.7526 161.289 17.1626 161.289 17.4026C161.289 17.5426 161.309 17.6626 161.349 17.7626C161.409 17.8626 161.479 17.9526 161.559 18.0326C161.699 18.1326 161.799 18.1726 161.859 18.1526C161.919 18.1126 162.029 18.0026 162.189 17.8226C162.269 17.7226 162.329 17.6326 162.369 17.5526C162.429 17.4526 162.479 17.3626 162.519 17.2826C162.559 17.2026 162.589 17.1226 162.609 17.0426C162.649 16.7426 162.719 16.4626 162.819 16.2026C162.859 16.0826 162.899 15.8826 162.939 15.6026C162.979 15.3226 163.019 14.9526 163.059 14.4926C163.119 13.2926 163.329 12.4126 163.689 11.8526Z" fill="black"/>
</svg>
