<svg width="451" height="135" viewBox="0 0 451 135" fill="none" xmlns="http://www.w3.org/2000/svg">
<path d="M3.95 134.018C2.15 133.618 1.2 132.168 1.1 129.668C0.599999 124.168 1.4 118.018 3.5 111.218C5.5 104.418 8.15 97.668 11.45 90.968C14.75 84.168 18.35 77.718 22.25 71.618C26.05 65.418 29.5 60.218 32.6 56.018C33.6 54.618 34.65 53.318 35.75 52.118C36.85 50.818 38 49.568 39.2 48.368C40.4 47.168 41.4 46.668 42.2 46.868C43.1 47.068 44.2 48.018 45.5 49.718C42.8 52.718 40.25 55.868 37.85 59.168C35.55 62.368 33.55 65.868 31.85 69.668C32.45 69.168 33 68.718 33.5 68.318C34.1 67.818 34.7 67.318 35.3 66.818C37.5 64.918 39.7 63.168 41.9 61.568C44.2 59.968 46.8 58.768 49.7 57.968C50.8 57.768 51.9 57.618 53 57.518C54.2 57.418 55.35 57.468 56.45 57.668C58.75 58.168 60.35 59.268 61.25 60.968C62.25 62.568 62.8 64.968 62.9 68.168C63.7 68.468 64.55 68.618 65.45 68.618C66.35 68.618 67.25 68.718 68.15 68.918C69.05 69.018 69.9 69.318 70.7 69.818C71.5 70.218 72.25 71.018 72.95 72.218C71.15 72.218 69.5 72.168 68 72.068C66.5 71.968 65.05 72.018 63.65 72.218C62.75 72.418 61.8 72.668 60.8 72.968C59.9 73.268 59.05 73.718 58.25 74.318C54.15 77.218 49.6 79.168 44.6 80.168C39.6 81.068 34.55 80.418 29.45 78.218C26.25 82.118 23.55 86.118 21.35 90.218C19.05 94.218 17.1 98.368 15.5 102.668C13.8 106.868 12.35 111.218 11.15 115.718C9.95 120.118 8.8 124.668 7.7 129.368C7.5 130.168 7.4 130.868 7.4 131.468C7.3 132.168 7.15 132.718 6.95 133.118C6.75 133.618 6.45 133.918 6.05 134.018C5.55 134.218 4.85 134.218 3.95 134.018ZM40.7 70.418C42.4 70.218 44.1 70.068 45.8 69.968C47.6 69.768 49.4 69.568 51.2 69.368C53.6 69.168 55.25 68.518 56.15 67.418C57.05 66.318 57.4 64.368 57.2 61.568C53.8 61.468 50.5 62.268 47.3 63.968C44.2 65.668 42 67.818 40.7 70.418ZM36.95 74.318C39.45 75.718 42.5 76.218 46.1 75.818C49.7 75.418 52.85 74.218 55.55 72.218C53.55 72.818 51.75 73.268 50.15 73.568C48.55 73.868 47.05 74.068 45.65 74.168C44.25 74.268 42.85 74.318 41.45 74.318C40.05 74.318 38.55 74.318 36.95 74.318ZM107.11 54.818C105.61 57.118 104.06 59.368 102.46 61.568C100.86 63.668 99.3602 65.868 97.9602 68.168C96.6602 70.368 95.5102 72.718 94.5102 75.218C93.6102 77.718 93.0102 80.368 92.7102 83.168C94.3102 83.268 95.7102 83.118 96.9102 82.718C98.1102 82.218 99.2602 81.668 100.36 81.068C102.96 79.468 105.91 77.718 109.21 75.818C112.51 73.918 115.46 72.168 118.06 70.568C119.16 69.868 119.86 69.668 120.16 69.968C120.56 70.168 121.31 70.918 122.41 72.218C122.01 72.618 121.61 73.018 121.21 73.418C120.91 73.718 120.56 74.018 120.16 74.318C117.46 76.118 114.76 77.918 112.06 79.718C109.36 81.418 106.66 83.118 103.96 84.818C101.66 86.118 99.3602 86.918 97.0602 87.218C93.4602 87.618 90.7102 86.768 88.8102 84.668C86.9102 82.568 86.2602 79.768 86.8602 76.268C86.9602 75.968 87.0102 75.668 87.0102 75.368C87.1102 74.968 87.2602 74.418 87.4602 73.718C85.9602 74.918 84.6102 76.018 83.4102 77.018C82.2102 78.018 81.0102 78.968 79.8102 79.868C78.7102 80.668 77.5602 81.468 76.3602 82.268C75.2602 82.968 74.1602 83.718 73.0602 84.518C71.6602 85.318 70.3102 85.668 69.0102 85.568C67.7102 85.468 66.4102 85.018 65.1102 84.218C64.1102 83.518 63.4102 82.718 63.0102 81.818C62.5102 80.918 62.5102 79.868 63.0102 78.668C63.3102 77.868 63.6602 77.068 64.0602 76.268C64.3602 75.368 64.7602 74.518 65.2602 73.718C69.9602 66.018 75.8102 59.618 82.8102 54.518C83.7102 53.818 84.6102 53.218 85.5102 52.718C86.5102 52.218 87.5102 51.718 88.5102 51.218C92.0102 49.518 95.2102 49.218 98.1102 50.318C101.11 51.318 104.11 52.818 107.11 54.818ZM70.9602 78.818C76.2602 75.118 81.1602 71.268 85.6602 67.268C90.1602 63.168 94.6602 58.868 99.1602 54.368C96.9602 54.268 94.4602 54.968 91.6602 56.468C88.9602 57.868 86.2602 59.718 83.5602 62.018C80.8602 64.318 78.3602 66.968 76.0602 69.968C73.8602 72.868 72.1602 75.818 70.9602 78.818ZM141.008 55.568C142.408 54.268 144.008 53.268 145.808 52.568C148.208 51.368 150.408 51.368 152.408 52.568C154.508 53.668 155.608 55.568 155.708 58.268C155.708 59.668 155.608 61.068 155.408 62.468C155.308 63.768 155.208 65.118 155.108 66.518C155.208 67.418 155.308 68.318 155.408 69.218C155.508 70.018 155.658 70.918 155.858 71.918C158.058 72.318 160.008 72.268 161.708 71.768C163.508 71.168 165.258 70.618 166.958 70.118C168.258 69.818 169.358 69.718 170.258 69.818C171.258 69.918 172.258 70.668 173.258 72.068C170.858 73.268 168.458 74.268 166.058 75.068C163.658 75.868 161.008 76.168 158.108 75.968C155.508 75.768 153.308 74.718 151.508 72.818C149.708 70.918 148.808 68.718 148.808 66.218C148.808 64.518 148.908 62.918 149.108 61.418C149.408 59.818 149.558 58.618 149.558 57.818C149.558 57.018 149.258 56.718 148.658 56.918C148.058 57.118 146.858 58.118 145.058 59.918C140.258 63.718 136.058 67.918 132.458 72.518C128.858 77.018 125.558 81.818 122.558 86.918C121.558 88.518 120.558 90.218 119.558 92.018C118.458 93.818 116.908 94.218 114.908 93.218C112.508 92.318 111.458 90.818 111.758 88.718C111.958 88.218 112.108 87.718 112.208 87.218C112.208 86.618 112.308 86.068 112.508 85.568C114.008 79.668 115.758 73.918 117.758 68.318C119.858 62.618 122.208 57.068 124.808 51.668C125.308 50.868 125.758 50.118 126.158 49.418C126.558 48.718 127.008 48.018 127.508 47.318C128.808 45.718 130.008 44.968 131.108 45.068C132.308 45.168 133.808 46.068 135.608 47.768C134.008 49.468 132.658 51.268 131.558 53.168C130.558 55.068 129.608 57.018 128.708 59.018C127.908 61.018 127.158 63.068 126.458 65.168C125.758 67.268 124.958 69.318 124.058 71.318C126.858 69.018 129.658 66.368 132.458 63.368C135.358 60.268 138.208 57.668 141.008 55.568ZM195.72 54.218C196.22 53.918 196.82 53.918 197.52 54.218C198.32 54.418 199.02 54.868 199.62 55.568C200.22 56.268 200.57 57.068 200.67 57.968C200.77 58.768 200.42 59.618 199.62 60.518C197.92 62.318 195.62 64.268 192.72 66.368C189.92 68.368 187.07 70.218 184.17 71.918C184.57 73.418 184.97 75.168 185.37 77.168C185.77 79.068 186.32 80.818 187.02 82.418C187.82 83.918 188.77 85.018 189.87 85.718C191.07 86.418 192.57 86.218 194.37 85.118C197.77 83.218 200.97 80.968 203.97 78.368C207.07 75.768 210.07 73.318 212.97 71.018C213.87 70.218 214.57 69.918 215.07 70.118C215.67 70.318 216.42 70.968 217.32 72.068C217.12 72.368 216.92 72.668 216.72 72.968C216.62 73.268 216.42 73.518 216.12 73.718C213.22 76.018 210.32 78.368 207.42 80.768C204.52 83.168 201.52 85.368 198.42 87.368C194.02 90.268 190.07 91.068 186.57 89.768C183.07 88.468 180.47 85.468 178.77 80.768C178.47 79.968 178.22 79.218 178.02 78.518C177.92 77.718 177.72 76.868 177.42 75.968C175.62 76.568 174.07 77.368 172.77 78.368C171.47 79.368 170.52 80.918 169.92 83.018C169.12 86.218 168.32 89.368 167.52 92.468C166.72 95.468 166.22 98.618 166.02 101.918C163.72 101.418 162.22 100.868 161.52 100.268C160.82 99.568 160.57 98.268 160.77 96.368C160.87 93.468 161.42 90.418 162.42 87.218C163.52 83.718 164.62 80.218 165.72 76.718C166.82 73.118 167.87 69.568 168.87 66.068C169.17 65.468 169.37 64.918 169.47 64.418C169.67 63.818 169.87 63.218 170.07 62.618C169.57 62.318 169.07 62.118 168.57 62.018C168.07 61.918 167.62 61.768 167.22 61.568C166.72 61.268 166.32 60.918 166.02 60.518C165.62 60.118 165.37 59.518 165.27 58.718C165.67 58.618 166.07 58.568 166.47 58.568C166.77 58.468 167.17 58.318 167.67 58.118C170.97 57.418 173.37 55.268 174.87 51.668C177.47 44.968 180.47 38.518 183.87 32.318C187.37 26.118 191.37 20.168 195.87 14.468C198.87 10.568 202.22 7.11797 205.92 4.11796C207.72 2.71796 209.52 2.51796 211.32 3.51796C213.22 4.51796 214.22 6.16796 214.32 8.46796C214.32 10.068 213.97 11.718 213.27 13.418C212.77 14.818 212.17 16.218 211.47 17.618C210.87 19.018 210.17 20.418 209.37 21.818C206.07 27.718 202.37 33.218 198.27 38.318C194.17 43.418 189.57 48.168 184.47 52.568C180.97 55.468 178.57 58.968 177.27 63.068C176.87 64.168 176.47 65.218 176.07 66.218C175.67 67.218 175.27 68.268 174.87 69.368C177.17 68.168 179.37 66.818 181.47 65.318C183.67 63.718 185.67 62.218 187.47 60.818C189.27 59.418 190.87 58.118 192.27 56.918C193.67 55.718 194.82 54.818 195.72 54.218ZM203.82 14.918C199.92 19.418 196.32 24.518 193.02 30.218C189.82 35.918 187.07 41.218 184.77 46.118C186.97 44.218 189.17 42.018 191.37 39.518C193.67 37.018 195.82 34.518 197.82 32.018C199.92 29.418 201.82 26.868 203.52 24.368C205.22 21.868 206.67 19.618 207.87 17.618C209.27 15.118 210.07 13.318 210.27 12.218C210.47 11.018 210.27 10.418 209.67 10.418C209.17 10.318 208.37 10.718 207.27 11.618C206.17 12.418 205.02 13.518 203.82 14.918ZM321.429 69.518L318.579 77.918C321.579 76.618 324.729 75.318 328.029 74.018C331.429 72.718 334.179 71.318 336.279 69.818C337.579 70.618 338.279 71.518 338.379 72.518C338.479 73.418 337.729 74.468 336.129 75.668C333.429 77.568 330.179 79.168 326.379 80.468C322.679 81.668 319.279 82.918 316.179 84.218L315.279 86.018C313.679 89.518 312.029 93.018 310.329 96.518C308.729 99.918 306.979 103.318 305.079 106.718C301.379 113.418 296.479 119.268 290.379 124.268C288.179 125.968 285.879 127.468 283.479 128.768C281.179 130.068 278.579 130.968 275.679 131.468C272.179 132.068 268.929 131.868 265.929 130.868C262.829 129.968 259.979 128.418 257.379 126.218C253.579 122.918 252.779 119.168 254.979 114.968C255.879 113.268 256.929 111.668 258.129 110.168C259.229 108.568 260.479 107.168 261.879 105.968C264.379 103.768 266.979 101.718 269.679 99.818C272.279 97.818 275.029 96.018 277.929 94.418C282.829 91.718 287.779 89.168 292.779 86.768C297.779 84.368 302.829 81.968 307.929 79.568C309.229 78.968 310.279 78.268 311.079 77.468C311.979 76.568 312.629 75.418 313.029 74.018C313.729 71.818 314.429 69.618 315.129 67.418C315.829 65.118 316.379 62.768 316.779 60.368L312.729 63.068C309.529 65.268 306.279 67.518 302.979 69.818C299.779 72.018 296.529 74.118 293.229 76.118C291.529 77.218 289.729 78.218 287.829 79.118C285.929 80.018 284.029 80.868 282.129 81.668C278.629 83.068 275.479 82.518 272.679 80.018C271.579 78.918 270.829 77.768 270.429 76.568C270.029 75.368 270.129 74.018 270.729 72.518C270.929 71.918 271.129 71.318 271.329 70.718C271.529 70.118 271.779 69.568 272.079 69.068C274.879 64.268 278.179 60.218 281.979 56.918C285.879 53.518 290.479 50.868 295.779 48.968C302.979 46.468 308.629 48.668 312.729 55.568C313.829 54.968 314.679 54.418 315.279 53.918C316.279 53.218 317.279 52.768 318.279 52.568C319.379 52.368 320.479 52.668 321.579 53.468C324.079 55.168 324.879 57.418 323.979 60.218L321.429 69.518ZM307.029 86.468C301.929 88.768 297.029 91.068 292.329 93.368C287.629 95.568 283.079 98.118 278.679 101.018C276.479 102.418 274.379 103.868 272.379 105.368C270.379 106.868 268.429 108.468 266.529 110.168C264.229 112.168 262.379 114.568 260.979 117.368C259.579 119.968 259.379 122.068 260.379 123.668C261.279 125.368 263.179 126.368 266.079 126.668C268.179 126.968 270.279 126.918 272.379 126.518C274.379 126.118 276.229 125.318 277.929 124.118C280.029 122.718 282.079 121.218 284.079 119.618C286.079 118.118 287.979 116.468 289.779 114.668C293.479 110.868 296.629 106.768 299.229 102.368C301.929 97.968 304.429 93.368 306.729 88.568C306.829 88.368 306.879 88.118 306.879 87.818C306.879 87.518 306.929 87.068 307.029 86.468ZM284.529 63.818C281.629 66.718 279.579 69.218 278.379 71.318C277.279 73.418 276.829 75.318 277.029 77.018C278.729 76.718 280.929 75.918 283.629 74.618C286.429 73.318 289.279 71.768 292.179 69.968C295.179 68.168 298.079 66.268 300.879 64.268C303.779 62.268 306.129 60.368 307.929 58.568C307.329 55.468 305.979 53.768 303.879 53.468C301.879 53.068 299.629 53.468 297.129 54.668C294.729 55.768 292.329 57.268 289.929 59.168C287.629 60.968 285.829 62.518 284.529 63.818ZM353.831 69.968C356.731 69.768 359.431 69.568 361.931 69.368C364.431 69.068 366.931 68.818 369.431 68.618C370.331 68.518 371.031 68.668 371.531 69.068C372.031 69.468 372.231 69.968 372.131 70.568C372.131 71.068 371.781 71.618 371.081 72.218C370.481 72.718 369.481 73.068 368.081 73.268C365.881 73.468 363.681 73.668 361.481 73.868C359.381 74.068 357.181 74.218 354.881 74.318C352.781 74.418 351.181 75.368 350.081 77.168C349.181 78.568 348.231 80.018 347.231 81.518C346.331 82.918 345.331 84.218 344.231 85.418C343.231 86.618 342.131 87.668 340.931 88.568C339.831 89.368 338.581 89.818 337.181 89.918C335.081 90.218 333.381 89.818 332.081 88.718C330.781 87.618 330.231 86.018 330.431 83.918C330.631 80.118 331.281 76.518 332.381 73.118C333.481 69.618 334.981 66.218 336.881 62.918C338.981 61.718 340.631 60.118 341.831 58.118C343.031 56.018 344.481 54.168 346.181 52.568C346.581 52.268 346.931 51.968 347.231 51.668C347.531 51.268 347.931 50.968 348.431 50.768C350.331 49.768 352.231 49.768 354.131 50.768C356.131 51.768 357.131 53.368 357.131 55.568C357.131 57.068 356.931 58.568 356.531 60.068C356.231 61.568 355.931 63.068 355.631 64.568C355.431 65.368 355.181 66.218 354.881 67.118C354.581 67.918 354.231 68.868 353.831 69.968ZM344.831 75.068C343.731 74.768 342.731 74.418 341.831 74.018C341.031 73.518 340.381 72.768 339.881 71.768C337.681 76.568 336.881 80.968 337.481 84.968C338.381 85.668 339.481 85.068 340.781 83.168C342.081 81.168 343.431 78.468 344.831 75.068ZM344.231 65.018C343.831 66.018 343.681 66.918 343.781 67.718C343.981 68.518 344.281 69.168 344.681 69.668C345.181 70.068 345.731 70.268 346.331 70.268C346.931 70.168 347.381 69.668 347.681 68.768C349.881 64.068 351.081 60.518 351.281 58.118C351.581 55.718 351.331 54.418 350.531 54.218C349.831 54.018 348.831 54.868 347.531 56.768C346.231 58.568 345.131 61.318 344.231 65.018ZM377.629 89.318C380.029 87.418 382.029 85.768 383.629 84.368C385.329 82.968 386.929 81.568 388.429 80.168C389.929 78.768 391.379 77.318 392.779 75.818C394.279 74.218 395.979 72.268 397.879 69.968C398.779 68.968 399.579 68.468 400.279 68.468C401.079 68.368 401.679 68.618 402.079 69.218C402.479 69.718 402.579 70.418 402.379 71.318C402.279 72.218 401.779 73.118 400.879 74.018C398.979 75.818 397.329 77.418 395.929 78.818C394.629 80.118 393.379 81.418 392.179 82.718C390.979 84.018 389.679 85.368 388.279 86.768C386.979 88.068 385.379 89.668 383.479 91.568C382.279 92.968 380.879 94.218 379.279 95.318C377.679 96.418 376.079 97.418 374.479 98.318C371.479 99.918 368.779 100.118 366.379 98.918C363.879 97.718 362.479 95.518 362.179 92.318C361.879 90.018 361.879 87.768 362.179 85.568C362.479 83.368 362.879 81.168 363.379 78.968C363.879 76.168 364.579 73.368 365.479 70.568C366.379 67.768 367.179 64.918 367.879 62.018C367.379 61.818 366.779 61.668 366.079 61.568C365.379 61.368 364.779 61.118 364.279 60.818C363.779 60.518 363.379 60.118 363.079 59.618C362.779 59.018 362.379 58.318 361.879 57.518C362.779 57.318 363.479 57.218 363.979 57.218C364.479 57.218 364.979 57.118 365.479 56.918C367.179 56.318 368.679 55.468 369.979 54.368C371.279 53.268 372.329 51.818 373.129 50.018C375.729 43.818 378.679 37.818 381.979 32.018C385.279 26.218 389.079 20.618 393.379 15.218C394.979 13.218 396.679 11.368 398.479 9.66796C400.379 7.86796 402.279 6.11796 404.179 4.41796C404.679 3.91796 405.279 3.51796 405.979 3.21797C406.779 2.81796 407.479 2.41796 408.079 2.01796C409.279 1.31797 410.429 1.06797 411.529 1.26796C412.729 1.46796 413.729 1.91796 414.529 2.61796C415.429 3.31796 416.079 4.16796 416.479 5.16797C416.979 6.16797 417.129 7.11797 416.929 8.01797C416.629 9.41797 416.229 10.818 415.729 12.218C415.329 13.618 414.779 14.918 414.079 16.118C411.779 20.118 409.229 23.868 406.429 27.368C403.629 30.768 400.629 34.068 397.429 37.268C394.829 39.868 392.129 42.468 389.329 45.068C386.529 47.568 383.729 50.118 380.929 52.718C380.429 53.218 379.879 53.768 379.279 54.368C378.679 54.968 378.229 55.618 377.929 56.318C375.629 61.718 373.579 67.168 371.779 72.668C369.979 78.168 368.729 83.818 368.029 89.618C367.829 91.818 367.979 93.218 368.479 93.818C369.079 94.418 369.879 94.518 370.879 94.118C371.879 93.718 372.979 93.068 374.179 92.168C375.379 91.168 376.529 90.218 377.629 89.318ZM412.129 6.66797C409.929 7.76796 407.429 9.71796 404.629 12.518C401.929 15.218 399.279 18.268 396.679 21.668C394.079 25.068 391.779 28.518 389.779 32.018C387.779 35.518 386.429 38.618 385.729 41.318C391.029 36.118 395.979 30.868 400.579 25.568C405.279 20.168 409.129 13.868 412.129 6.66797ZM396.673 69.068C397.673 68.968 398.373 68.468 398.773 67.568C399.173 66.668 399.623 65.668 400.123 64.568C403.923 56.768 408.073 49.218 412.573 41.918C417.073 34.518 422.373 27.668 428.473 21.368C429.873 19.968 431.323 18.618 432.823 17.318C434.323 16.018 435.823 14.718 437.323 13.418C438.023 12.818 438.723 12.318 439.423 11.918C440.123 11.518 440.873 11.168 441.673 10.868C443.973 9.86797 446.123 10.268 448.123 12.068C449.923 13.768 450.423 15.718 449.623 17.918C449.023 19.418 448.373 20.918 447.673 22.418C446.973 23.818 446.223 25.218 445.423 26.618C440.323 34.718 434.723 42.318 428.623 49.418C422.523 56.418 415.973 63.168 408.973 69.668C408.473 70.168 407.923 70.668 407.323 71.168C406.723 71.568 406.023 72.168 405.223 72.968C408.823 72.368 412.223 71.818 415.423 71.318C418.723 70.818 421.973 70.318 425.173 69.818C425.973 69.718 426.723 69.618 427.423 69.518C428.123 69.418 428.873 69.318 429.673 69.218C430.773 69.118 431.623 69.268 432.223 69.668C432.923 69.968 433.323 70.968 433.423 72.668C429.623 73.468 425.723 74.168 421.723 74.768C417.723 75.368 413.623 76.268 409.423 77.468C409.823 78.468 410.223 79.418 410.623 80.318C411.023 81.218 411.373 82.118 411.673 83.018C412.373 85.218 412.723 87.418 412.723 89.618C412.723 91.718 412.523 93.918 412.123 96.218C411.423 99.718 410.573 103.168 409.573 106.568C408.573 109.868 407.223 113.068 405.523 116.168C404.823 117.368 404.023 118.518 403.123 119.618C402.323 120.718 401.473 121.768 400.573 122.768C398.073 125.368 394.973 125.968 391.273 124.568C389.573 123.968 388.373 123.068 387.673 121.868C386.873 120.668 386.373 119.218 386.173 117.518C385.773 114.618 385.723 111.768 386.023 108.968C386.223 106.168 386.723 103.418 387.523 100.718C388.523 96.918 389.623 93.218 390.823 89.618C392.023 86.018 393.173 82.368 394.273 78.668C394.773 77.168 395.173 75.668 395.473 74.168C395.773 72.568 396.173 70.868 396.673 69.068ZM393.373 120.368C394.673 119.368 395.473 118.668 395.773 118.268C399.573 113.168 402.273 107.818 403.873 102.218C405.473 96.518 406.123 90.518 405.823 84.218C405.723 83.218 405.523 82.218 405.223 81.218C405.023 80.118 404.223 79.168 402.823 78.368C401.623 81.768 400.423 85.118 399.223 88.418C398.023 91.718 396.973 95.118 396.073 98.618C395.073 102.018 394.323 105.518 393.823 109.118C393.323 112.718 393.173 116.468 393.373 120.368ZM442.573 18.218C440.173 19.718 437.423 22.068 434.323 25.268C431.323 28.368 428.373 31.818 425.473 35.618C422.673 39.418 420.123 43.268 417.823 47.168C415.623 51.068 414.073 54.468 413.173 57.368C419.073 51.268 424.473 45.068 429.373 38.768C434.373 32.368 438.773 25.518 442.573 18.218Z" fill="#00423A"/>
</svg>
