<svg width="637" height="145" viewBox="0 0 637 145" fill="none" xmlns="http://www.w3.org/2000/svg">
<path d="M26.0395 121.135C23.7395 121.435 22.0395 121.235 20.9395 120.535C19.8395 119.835 19.2895 118.335 19.2895 116.035C19.1895 114.035 19.2395 112.085 19.4395 110.185C19.6395 108.185 19.9895 106.185 20.4895 104.185C21.6895 99.3852 22.9895 94.6352 24.3895 89.9352C25.8895 85.1352 27.3395 80.3352 28.7395 75.5352C28.9395 74.8352 29.0895 74.1852 29.1895 73.5852C29.3895 72.8852 29.4395 72.1352 29.3395 71.3352C28.7395 72.1352 28.1395 72.9352 27.5395 73.7352C26.9395 74.5352 26.2895 75.3352 25.5895 76.1352C23.2895 78.9352 20.9395 81.7352 18.5395 84.5352C16.1395 87.3352 13.7395 90.1352 11.3395 92.9352C10.4395 94.0352 9.38945 94.8352 8.18945 95.3352C6.98945 95.8352 5.58945 95.7852 3.98945 95.1852C2.58945 94.5852 1.63945 93.9852 1.13945 93.3852C0.539453 92.6852 0.289453 91.5852 0.389453 90.0852C0.389453 89.2852 0.439453 88.5352 0.539453 87.8352C0.639453 87.0352 0.789453 86.2852 0.989453 85.5852C3.48945 77.5852 7.48945 70.7352 12.9895 65.0352C14.3895 63.6352 15.9395 62.3852 17.6395 61.2852C21.5395 58.5852 25.5895 58.2352 29.7895 60.2352C30.2895 60.5352 30.8395 60.8352 31.4395 61.1352C32.0395 61.3352 32.7395 61.5852 33.5395 61.8852C33.9395 61.0852 34.2895 60.3352 34.5895 59.6352C34.8895 58.8352 35.2395 58.0352 35.6395 57.2352C38.8395 49.5352 42.4395 42.1352 46.4395 35.0351C50.5395 27.8352 55.2895 21.0352 60.6895 14.6352C62.1895 12.9352 63.7895 11.2852 65.4895 9.68515C67.1895 8.08515 68.8895 6.53515 70.5895 5.03515C71.7895 3.93515 73.3895 2.98515 75.3895 2.18515C77.8895 1.18515 80.0395 1.43515 81.8395 2.93515C83.7395 4.33515 84.5895 6.33515 84.3895 8.93516C84.2895 11.1352 83.7395 13.3351 82.7395 15.5352C80.4395 21.6351 77.4895 27.2852 73.8895 32.4852C70.3895 37.6852 66.2895 42.5352 61.5895 47.0352C58.7895 49.7352 55.8395 52.3352 52.7395 54.8352C49.7395 57.2352 46.7395 59.7352 43.7395 62.3352C43.1395 62.8352 42.5395 63.3852 41.9395 63.9852C41.3395 64.5852 40.8895 65.2852 40.5895 66.0852C37.7895 73.1852 35.1395 80.3352 32.6395 87.5352C30.2395 94.6352 28.2895 101.935 26.7895 109.435C26.3895 111.235 26.1895 113.135 26.1895 115.135C26.1895 117.035 26.1395 119.035 26.0395 121.135ZM48.2395 51.2352C50.2395 49.3352 52.1895 47.4852 54.0895 45.6852C55.9895 43.8852 57.8895 41.9852 59.7895 39.9851C63.5895 36.0852 66.9395 31.9852 69.8395 27.6852C72.8395 23.2852 75.3895 18.5352 77.4895 13.4352C77.8895 12.4352 78.1895 11.4852 78.3895 10.5852C78.5895 9.58515 78.8395 8.58515 79.1395 7.58515C78.7395 7.48515 78.3395 7.28515 77.9395 6.98515C74.2395 9.78515 70.9395 12.8852 68.0395 16.2851C65.1395 19.5851 62.4895 23.1352 60.0895 26.9352C57.7895 30.6352 55.5895 34.4852 53.4895 38.4852C51.4895 42.4852 49.4395 46.4352 47.3395 50.3352L48.2395 51.2352ZM28.2895 63.5352C26.1895 64.0352 24.0395 65.0852 21.8395 66.6852C19.6395 68.1852 17.5895 70.0852 15.6895 72.3852C13.8895 74.6852 12.3395 77.1852 11.0395 79.8852C9.73945 82.5852 8.88945 85.2852 8.48945 87.9852C11.8895 83.7852 15.1895 79.7352 18.3895 75.8352C21.5895 71.8352 24.8895 67.7352 28.2895 63.5352ZM59.7707 84.0852C61.0707 83.0852 62.0707 82.2852 62.7707 81.6852C63.5707 81.0852 64.2707 80.5852 64.8707 80.1852C65.4707 79.6852 66.1207 79.1852 66.8207 78.6852C67.5207 78.0852 68.4707 77.2352 69.6707 76.1352C70.6707 75.3352 71.3707 74.9352 71.7707 74.9352C72.1707 74.8352 72.8207 75.4852 73.7207 76.8852C71.8207 78.6852 70.2207 80.1852 68.9207 81.3852C67.6207 82.4852 66.3707 83.5852 65.1707 84.6852C63.9707 85.6852 62.6707 86.7352 61.2707 87.8352C59.9707 88.9352 58.3707 90.3352 56.4707 92.0352C55.0707 93.3352 53.7207 94.0352 52.4207 94.1352C51.2207 94.1352 50.1707 93.8352 49.2707 93.2352C48.3707 92.5352 47.7207 91.5852 47.3207 90.3852C46.8207 89.0852 46.6207 87.7852 46.7207 86.4852C47.0207 82.9852 47.6707 79.6352 48.6707 76.4352C49.6707 73.1352 51.0207 69.9352 52.7207 66.8352C52.9207 66.3352 53.1707 65.8852 53.4707 65.4852C53.8707 65.0852 54.2207 64.6352 54.5207 64.1352C56.0207 62.4352 57.3707 61.6852 58.5707 61.8852C59.7707 61.9852 61.1207 62.9852 62.6207 64.8852C60.0207 67.2852 58.0207 69.9352 56.6207 72.8352C55.3207 75.7352 54.2707 78.7352 53.4707 81.8352C52.6707 84.5352 52.2707 86.3852 52.2707 87.3852C52.2707 88.3852 52.5707 88.8352 53.1707 88.7352C53.7707 88.6352 54.6207 88.1352 55.7207 87.2352C56.9207 86.2352 58.2707 85.1852 59.7707 84.0852ZM70.1207 48.0852C69.0207 49.7852 67.9707 51.4352 66.9707 53.0352C66.0707 54.6352 65.0707 56.3352 63.9707 58.1352C62.2707 57.9352 61.2207 57.4852 60.8207 56.7852C60.4207 55.9852 60.3707 55.0852 60.6707 54.0852C60.9707 53.0852 61.4207 52.0852 62.0207 51.0852C62.6207 49.9852 63.1707 49.0352 63.6707 48.2352C64.7707 46.5352 65.6707 45.6852 66.3707 45.6852C67.1707 45.6852 68.4207 46.4852 70.1207 48.0852ZM109.057 60.6852C107.557 62.9852 106.007 65.2352 104.407 67.4352C102.807 69.5352 101.307 71.7352 99.9074 74.0352C98.6074 76.2352 97.4574 78.5852 96.4574 81.0852C95.5574 83.5852 94.9574 86.2352 94.6574 89.0352C96.2574 89.1352 97.6574 88.9852 98.8574 88.5852C100.057 88.0852 101.207 87.5352 102.307 86.9352C104.907 85.3352 107.857 83.5852 111.157 81.6852C114.457 79.7852 117.407 78.0352 120.007 76.4352C121.107 75.7352 121.807 75.5352 122.107 75.8352C122.507 76.0352 123.257 76.7852 124.357 78.0852C123.957 78.4852 123.557 78.8852 123.157 79.2852C122.857 79.5852 122.507 79.8852 122.107 80.1852C119.407 81.9852 116.707 83.7852 114.007 85.5852C111.307 87.2852 108.607 88.9852 105.907 90.6852C103.607 91.9852 101.307 92.7852 99.0074 93.0852C95.4074 93.4852 92.6574 92.6352 90.7574 90.5352C88.8574 88.4352 88.2074 85.6352 88.8074 82.1352C88.9074 81.8352 88.9574 81.5352 88.9574 81.2352C89.0574 80.8352 89.2074 80.2852 89.4074 79.5852C87.9074 80.7852 86.5574 81.8852 85.3574 82.8852C84.1574 83.8852 82.9574 84.8352 81.7574 85.7352C80.6574 86.5352 79.5074 87.3352 78.3074 88.1352C77.2074 88.8352 76.1074 89.5852 75.0074 90.3852C73.6074 91.1852 72.2574 91.5352 70.9574 91.4352C69.6574 91.3352 68.3574 90.8852 67.0574 90.0852C66.0574 89.3852 65.3574 88.5852 64.9574 87.6852C64.4574 86.7852 64.4574 85.7352 64.9574 84.5352C65.2574 83.7352 65.6074 82.9352 66.0074 82.1352C66.3074 81.2352 66.7074 80.3852 67.2074 79.5852C71.9074 71.8852 77.7574 65.4852 84.7574 60.3852C85.6574 59.6852 86.5574 59.0852 87.4574 58.5852C88.4574 58.0852 89.4574 57.5852 90.4574 57.0852C93.9574 55.3852 97.1574 55.0852 100.057 56.1852C103.057 57.1852 106.057 58.6852 109.057 60.6852ZM72.9074 84.6852C78.2074 80.9852 83.1074 77.1352 87.6074 73.1352C92.1074 69.0352 96.6074 64.7352 101.107 60.2352C98.9074 60.1352 96.4074 60.8352 93.6074 62.3352C90.9074 63.7352 88.2074 65.5852 85.5074 67.8852C82.8074 70.1852 80.3074 72.8352 78.0074 75.8352C75.8074 78.7352 74.1074 81.6852 72.9074 84.6852ZM130.055 95.1852C132.455 93.2852 134.455 91.6352 136.055 90.2352C137.755 88.8352 139.355 87.4352 140.855 86.0352C142.355 84.6352 143.805 83.1852 145.205 81.6852C146.705 80.0852 148.405 78.1352 150.305 75.8352C151.205 74.8352 152.005 74.3352 152.705 74.3352C153.505 74.2352 154.105 74.4852 154.505 75.0852C154.905 75.5852 155.005 76.2852 154.805 77.1852C154.705 78.0852 154.205 78.9852 153.305 79.8852C151.405 81.6852 149.755 83.2852 148.355 84.6852C147.055 85.9852 145.805 87.2852 144.605 88.5852C143.405 89.8852 142.105 91.2352 140.705 92.6352C139.405 93.9352 137.805 95.5352 135.905 97.4352C134.705 98.8352 133.305 100.085 131.705 101.185C130.105 102.285 128.505 103.285 126.905 104.185C123.905 105.785 121.205 105.985 118.805 104.785C116.305 103.585 114.905 101.385 114.605 98.1852C114.305 95.8852 114.305 93.6352 114.605 91.4352C114.905 89.2352 115.305 87.0352 115.805 84.8352C116.305 82.0352 117.005 79.2352 117.905 76.4352C118.805 73.6352 119.605 70.7852 120.305 67.8852C119.805 67.6852 119.205 67.5352 118.505 67.4352C117.805 67.2352 117.205 66.9852 116.705 66.6852C116.205 66.3852 115.805 65.9852 115.505 65.4852C115.205 64.8852 114.805 64.1852 114.305 63.3852C115.205 63.1852 115.905 63.0852 116.405 63.0852C116.905 63.0852 117.405 62.9852 117.905 62.7852C119.605 62.1852 121.105 61.3352 122.405 60.2352C123.705 59.1352 124.755 57.6852 125.555 55.8852C128.155 49.6852 131.105 43.6852 134.405 37.8851C137.705 32.0852 141.505 26.4852 145.805 21.0852C147.405 19.0852 149.105 17.2352 150.905 15.5352C152.805 13.7351 154.705 11.9851 156.605 10.2851C157.105 9.78515 157.705 9.38515 158.405 9.08515C159.205 8.68515 159.905 8.28515 160.505 7.88515C161.705 7.18515 162.855 6.93515 163.955 7.13515C165.155 7.33515 166.155 7.78515 166.955 8.48515C167.855 9.18515 168.505 10.0351 168.905 11.0352C169.405 12.0352 169.555 12.9852 169.355 13.8852C169.055 15.2852 168.655 16.6852 168.155 18.0852C167.755 19.4852 167.205 20.7852 166.505 21.9851C164.205 25.9852 161.655 29.7352 158.855 33.2352C156.055 36.6352 153.055 39.9352 149.855 43.1352C147.255 45.7352 144.555 48.3352 141.755 50.9352C138.955 53.4352 136.155 55.9852 133.355 58.5852C132.855 59.0852 132.305 59.6352 131.705 60.2352C131.105 60.8352 130.655 61.4852 130.355 62.1852C128.055 67.5852 126.005 73.0352 124.205 78.5352C122.405 84.0352 121.155 89.6852 120.455 95.4852C120.255 97.6852 120.405 99.0852 120.905 99.6852C121.505 100.285 122.305 100.385 123.305 99.9852C124.305 99.5852 125.405 98.9352 126.605 98.0352C127.805 97.0352 128.955 96.0852 130.055 95.1852ZM164.555 12.5352C162.355 13.6352 159.855 15.5851 157.055 18.3851C154.355 21.0852 151.705 24.1352 149.105 27.5351C146.505 30.9352 144.205 34.3852 142.205 37.8851C140.205 41.3852 138.855 44.4852 138.155 47.1852C143.455 41.9852 148.405 36.7352 153.005 31.4352C157.705 26.0351 161.555 19.7352 164.555 12.5352ZM169.649 75.8352C172.549 75.6352 175.249 75.4352 177.749 75.2352C180.249 74.9352 182.749 74.6852 185.249 74.4852C186.149 74.3852 186.849 74.5352 187.349 74.9352C187.849 75.3352 188.049 75.8352 187.949 76.4352C187.949 76.9352 187.599 77.4852 186.899 78.0852C186.299 78.5852 185.299 78.9352 183.899 79.1352C181.699 79.3352 179.499 79.5352 177.299 79.7352C175.199 79.9352 172.999 80.0852 170.699 80.1852C168.599 80.2852 166.999 81.2352 165.899 83.0352C164.999 84.4352 164.049 85.8852 163.049 87.3852C162.149 88.7852 161.149 90.0852 160.049 91.2852C159.049 92.4852 157.949 93.5352 156.749 94.4352C155.649 95.2352 154.399 95.6852 152.999 95.7852C150.899 96.0852 149.199 95.6852 147.899 94.5852C146.599 93.4852 146.049 91.8852 146.249 89.7852C146.449 85.9852 147.099 82.3852 148.199 78.9852C149.299 75.4852 150.799 72.0852 152.699 68.7852C154.799 67.5852 156.449 65.9852 157.649 63.9852C158.849 61.8852 160.299 60.0352 161.999 58.4352C162.399 58.1352 162.749 57.8352 163.049 57.5352C163.349 57.1352 163.749 56.8352 164.249 56.6352C166.149 55.6352 168.049 55.6352 169.949 56.6352C171.949 57.6352 172.949 59.2352 172.949 61.4352C172.949 62.9352 172.749 64.4352 172.349 65.9352C172.049 67.4352 171.749 68.9352 171.449 70.4352C171.249 71.2352 170.999 72.0852 170.699 72.9852C170.399 73.7852 170.049 74.7352 169.649 75.8352ZM160.649 80.9352C159.549 80.6352 158.549 80.2852 157.649 79.8852C156.849 79.3852 156.199 78.6352 155.699 77.6352C153.499 82.4352 152.699 86.8352 153.299 90.8352C154.199 91.5352 155.299 90.9352 156.599 89.0352C157.899 87.0352 159.249 84.3352 160.649 80.9352ZM160.049 70.8852C159.649 71.8852 159.499 72.7852 159.599 73.5852C159.799 74.3852 160.099 75.0352 160.499 75.5352C160.999 75.9352 161.549 76.1352 162.149 76.1352C162.749 76.0352 163.199 75.5352 163.499 74.6352C165.699 69.9352 166.899 66.3852 167.099 63.9852C167.399 61.5852 167.149 60.2852 166.349 60.0852C165.649 59.8852 164.649 60.7352 163.349 62.6352C162.049 64.4352 160.949 67.1852 160.049 70.8852ZM231.548 75.3852L228.698 83.7852C231.698 82.4852 234.848 81.1852 238.148 79.8852C241.548 78.5852 244.298 77.1852 246.398 75.6852C247.698 76.4852 248.398 77.3852 248.498 78.3852C248.598 79.2852 247.848 80.3352 246.248 81.5352C243.548 83.4352 240.298 85.0352 236.498 86.3352C232.798 87.5352 229.398 88.7852 226.298 90.0852L225.398 91.8852C223.798 95.3852 222.148 98.8852 220.448 102.385C218.848 105.785 217.098 109.185 215.198 112.585C211.498 119.285 206.598 125.135 200.498 130.135C198.298 131.835 195.998 133.335 193.598 134.635C191.298 135.935 188.698 136.835 185.798 137.335C182.298 137.935 179.048 137.735 176.048 136.735C172.948 135.835 170.098 134.285 167.498 132.085C163.698 128.785 162.898 125.035 165.098 120.835C165.998 119.135 167.048 117.535 168.248 116.035C169.348 114.435 170.598 113.035 171.998 111.835C174.498 109.635 177.098 107.585 179.798 105.685C182.398 103.685 185.148 101.885 188.048 100.285C192.948 97.5852 197.898 95.0352 202.898 92.6352C207.898 90.2352 212.948 87.8352 218.048 85.4352C219.348 84.8352 220.398 84.1352 221.198 83.3352C222.098 82.4352 222.748 81.2852 223.148 79.8852C223.848 77.6852 224.548 75.4852 225.248 73.2852C225.948 70.9852 226.498 68.6352 226.898 66.2352L222.848 68.9352C219.648 71.1352 216.398 73.3852 213.098 75.6852C209.898 77.8852 206.648 79.9852 203.348 81.9852C201.648 83.0852 199.848 84.0852 197.948 84.9852C196.048 85.8852 194.148 86.7352 192.248 87.5352C188.748 88.9352 185.598 88.3852 182.798 85.8852C181.698 84.7852 180.948 83.6352 180.548 82.4352C180.148 81.2352 180.248 79.8852 180.848 78.3852C181.048 77.7852 181.248 77.1852 181.448 76.5852C181.648 75.9852 181.898 75.4352 182.198 74.9352C184.998 70.1352 188.298 66.0852 192.098 62.7852C195.998 59.3852 200.598 56.7352 205.898 54.8352C213.098 52.3352 218.748 54.5352 222.848 61.4352C223.948 60.8352 224.798 60.2852 225.398 59.7852C226.398 59.0852 227.398 58.6352 228.398 58.4352C229.498 58.2352 230.598 58.5352 231.698 59.3352C234.198 61.0352 234.998 63.2852 234.098 66.0852L231.548 75.3852ZM217.148 92.3352C212.048 94.6352 207.148 96.9352 202.448 99.2352C197.748 101.435 193.198 103.985 188.798 106.885C186.598 108.285 184.498 109.735 182.498 111.235C180.498 112.735 178.548 114.335 176.648 116.035C174.348 118.035 172.498 120.435 171.098 123.235C169.698 125.835 169.498 127.935 170.498 129.535C171.398 131.235 173.298 132.235 176.198 132.535C178.298 132.835 180.398 132.785 182.498 132.385C184.498 131.985 186.348 131.185 188.048 129.985C190.148 128.585 192.198 127.085 194.198 125.485C196.198 123.985 198.098 122.335 199.898 120.535C203.598 116.735 206.748 112.635 209.348 108.235C212.048 103.835 214.548 99.2352 216.848 94.4352C216.948 94.2352 216.998 93.9852 216.998 93.6852C216.998 93.3852 217.048 92.9352 217.148 92.3352ZM194.648 69.6852C191.748 72.5852 189.698 75.0852 188.498 77.1852C187.398 79.2852 186.948 81.1852 187.148 82.8852C188.848 82.5852 191.048 81.7852 193.748 80.4852C196.548 79.1852 199.398 77.6352 202.298 75.8352C205.298 74.0352 208.198 72.1352 210.998 70.1352C213.898 68.1352 216.248 66.2352 218.048 64.4352C217.448 61.3352 216.098 59.6352 213.998 59.3352C211.998 58.9352 209.748 59.3352 207.248 60.5352C204.848 61.6352 202.448 63.1352 200.048 65.0352C197.748 66.8352 195.948 68.3852 194.648 69.6852ZM289.75 78.6852C288.05 80.8852 286.3 83.0352 284.5 85.1352C282.8 87.2352 281 89.2852 279.1 91.2852C278.3 92.0852 277.4 93.0352 276.4 94.1352C275.5 95.1352 274.45 96.0852 273.25 96.9852C272.15 97.7852 271 98.4852 269.8 99.0852C268.6 99.5852 267.4 99.7352 266.2 99.5352C264.1 99.1352 262.5 98.1352 261.4 96.5352C260.3 94.9352 259.9 92.9852 260.2 90.6852C260.5 88.8852 260.95 87.0852 261.55 85.2852C261.75 84.4852 262 83.6352 262.3 82.7352C262.6 81.7352 263 80.5352 263.5 79.1352C262.7 79.8352 262 80.4352 261.4 80.9352C260.9 81.3352 260.4 81.7352 259.9 82.1352C258.7 83.1352 257.45 84.1852 256.15 85.2852C254.95 86.2852 253.65 87.1852 252.25 87.9852C251.05 88.6852 249.8 89.0352 248.5 89.0352C247.3 88.9352 246.2 88.5852 245.2 87.9852C244.3 87.2852 243.6 86.3852 243.1 85.2852C242.6 84.1852 242.45 82.9352 242.65 81.5352C243.05 77.7352 244.05 74.1852 245.65 70.8852C247.35 67.4852 249.35 64.2352 251.65 61.1352C252.45 60.0352 253.45 59.6852 254.65 60.0852C255.85 60.3852 256.7 61.2352 257.2 62.6352C257.4 62.9352 257.45 63.2852 257.35 63.6852C257.35 64.0852 257.35 64.3852 257.35 64.5852C255.35 66.1852 253.8 67.9852 252.7 69.9852C251.6 71.9852 250.7 74.0852 250 76.2852C249 79.4852 248.65 81.5352 248.95 82.4352C249.25 83.3352 249.95 83.5352 251.05 83.0352C252.15 82.4352 253.5 81.3352 255.1 79.7352C256.7 78.1352 258.25 76.4352 259.75 74.6352C261.35 72.8352 262.8 71.1852 264.1 69.6852C265.4 68.0852 266.25 67.0352 266.65 66.5352L270.7 61.5852C271.4 60.7852 272.2 60.2852 273.1 60.0852C274 59.7852 274.85 59.8852 275.65 60.3852C276.45 60.8852 277.1 61.5352 277.6 62.3352C278.2 63.0352 278.35 63.7852 278.05 64.5852C276.35 68.6852 274.5 72.6852 272.5 76.5852C270.6 80.4852 268.85 84.3352 267.25 88.1352C265.95 91.6352 265.5 93.8352 265.9 94.7352C266.4 95.5352 267.25 95.6852 268.45 95.1852C269.65 94.5852 271 93.5852 272.5 92.1852C274.1 90.7852 275.35 89.5852 276.25 88.5852C278.15 86.5852 280 84.4852 281.8 82.2852C283.6 79.9852 285.35 77.8852 287.05 75.9852C288.15 74.8852 288.85 74.4352 289.15 74.6352C289.55 74.7352 289.9 74.8852 290.2 75.0852C290.6 75.3852 290.85 75.7852 290.95 76.2852C291.05 76.6852 290.65 77.4852 289.75 78.6852ZM321.573 79.7352C320.273 80.9352 318.473 82.5352 316.173 84.5352C313.873 86.4352 311.323 88.2352 308.523 89.9352C305.723 91.6352 302.773 92.9352 299.673 93.8352C296.673 94.6352 293.773 94.4852 290.973 93.3852C288.973 92.5852 287.423 91.1852 286.323 89.1852C285.223 87.1852 284.923 84.5852 285.423 81.3852C285.723 78.9852 285.023 76.5352 283.323 74.0352C284.523 74.1352 285.523 73.9852 286.323 73.5852C287.123 73.1852 287.773 72.6852 288.273 72.0852C288.773 71.4852 289.223 70.8352 289.623 70.1352C290.023 69.3352 290.473 68.5852 290.973 67.8852C292.173 66.1852 293.473 64.6352 294.873 63.2352C296.273 61.7352 297.923 60.4352 299.823 59.3352C302.823 57.6352 305.823 57.7352 308.823 59.6352C311.723 61.6352 312.573 64.1352 311.373 67.1352C310.173 70.4352 308.373 73.0852 305.973 75.0852C303.673 77.0852 300.923 78.6352 297.723 79.7352C296.923 80.0352 296.123 80.2852 295.323 80.4852C294.623 80.6852 293.823 80.8852 292.923 81.0852C292.023 83.3852 291.723 85.1352 292.023 86.3352C292.423 87.4352 293.123 88.2852 294.123 88.8852C295.623 89.7852 297.523 89.8852 299.823 89.1852C302.223 88.3852 304.673 87.2852 307.173 85.8852C309.673 84.3852 312.023 82.7352 314.223 80.9352C316.423 79.1352 318.123 77.6352 319.323 76.4352C320.123 75.6352 320.823 75.2352 321.423 75.2352C322.123 75.2352 322.623 75.4852 322.923 75.9852C323.223 76.3852 323.273 76.9352 323.073 77.6352C322.973 78.3352 322.473 79.0352 321.573 79.7352ZM295.023 76.1352C297.423 75.5352 299.673 74.4352 301.773 72.8352C303.873 71.1352 305.373 69.4852 306.273 67.8852C306.873 66.6852 307.173 65.7852 307.173 65.1852C307.173 64.5852 306.973 64.1852 306.573 63.9852C306.173 63.7852 305.573 63.8352 304.773 64.1352C304.073 64.4352 303.373 64.8852 302.673 65.4852C300.973 66.8852 299.423 68.5852 298.023 70.5852C296.723 72.5852 295.723 74.4352 295.023 76.1352ZM403.916 61.7352C403.516 61.5352 403.166 61.3852 402.866 61.2852C402.566 61.1852 402.266 61.0352 401.966 60.8352C401.566 60.6352 401.216 60.3852 400.916 60.0852C400.716 59.7852 400.416 59.4852 400.016 59.1852C398.616 59.8852 396.816 60.7852 394.616 61.8852C392.516 62.9852 390.566 64.2352 388.766 65.6352C386.966 67.0352 385.666 68.5352 384.866 70.1352C384.066 71.7352 384.366 73.3352 385.766 74.9352C386.966 76.3352 388.166 77.7352 389.366 79.1352C390.666 80.5352 392.016 81.9852 393.416 83.4852C394.316 83.0852 395.316 82.6352 396.416 82.1352C397.616 81.5352 398.816 80.9352 400.016 80.3352C401.116 79.7352 402.216 79.1352 403.316 78.5352C404.516 77.9352 405.716 77.3352 406.916 76.7352C407.616 76.3352 408.166 76.0352 408.566 75.8352C408.966 75.5352 409.316 75.4352 409.616 75.5352C409.916 75.6352 410.216 75.8852 410.516 76.2852C410.816 76.6852 411.316 77.3352 412.016 78.2352C409.116 80.1352 406.266 81.7352 403.466 83.0352C400.766 84.3352 397.966 85.7852 395.066 87.3852C394.266 87.7852 393.616 88.4852 393.116 89.4852C392.716 90.4852 392.366 91.3852 392.066 92.1852C390.166 97.4852 387.466 102.135 383.966 106.135C380.566 110.035 376.616 113.585 372.116 116.785C369.216 118.685 366.166 119.585 362.966 119.485C359.966 119.185 357.916 117.985 356.816 115.885C355.716 113.785 356.066 111.535 357.866 109.135C358.966 107.635 360.216 106.185 361.616 104.785C362.916 103.285 364.366 101.985 365.966 100.885C369.466 98.2852 372.966 95.9352 376.466 93.8352C379.866 91.6352 383.266 89.3852 386.666 87.0852C387.266 86.7852 387.216 86.1352 386.516 85.1352C385.816 84.1352 384.916 83.0852 383.816 81.9852C382.816 80.7852 381.766 79.6852 380.666 78.6852C379.566 77.6852 378.866 76.9352 378.566 76.4352C378.066 75.8352 377.766 75.0852 377.666 74.1852C377.566 73.1852 377.616 72.2352 377.816 71.3352C377.916 70.3352 378.166 69.3852 378.566 68.4852C378.866 67.5852 379.266 66.8352 379.766 66.2352C384.066 61.1352 389.416 57.4352 395.816 55.1352C397.616 54.4352 399.416 54.4352 401.216 55.1352C404.016 55.8352 404.916 58.0352 403.916 61.7352ZM382.466 96.2352C378.466 98.6352 374.616 101.185 370.916 103.885C367.216 106.585 364.016 110.135 361.316 114.535C363.016 114.235 364.866 113.535 366.866 112.435C368.866 111.235 370.866 109.835 372.866 108.235C374.766 106.535 376.566 104.685 378.266 102.685C379.966 100.585 381.366 98.4352 382.466 96.2352ZM451.499 63.8352C450.099 64.9352 448.849 65.9352 447.749 66.8352C446.749 67.6352 445.749 68.4352 444.749 69.2352C440.849 72.1352 436.949 75.0852 433.049 78.0852C429.249 80.9852 425.449 83.8852 421.649 86.7852C420.549 87.5852 419.399 88.2852 418.199 88.8852C417.099 89.4852 415.999 90.1352 414.899 90.8352C412.199 92.1352 409.649 91.8352 407.249 89.9352C406.049 88.9352 405.349 87.8852 405.149 86.7852C404.849 85.5852 404.849 84.2852 405.149 82.8852C406.249 78.3852 407.749 74.0852 409.649 69.9852C411.649 65.8852 413.849 61.9352 416.249 58.1352C418.449 54.9352 420.699 54.9852 422.999 58.2852C423.199 58.5852 423.299 58.8852 423.299 59.1852C423.399 59.3852 423.499 59.5852 423.599 59.7852C422.999 60.2852 422.349 60.7352 421.649 61.1352C421.049 61.4352 420.649 61.8352 420.449 62.3352C420.049 63.2352 419.399 64.5852 418.499 66.3852C417.599 68.1852 416.699 70.1352 415.799 72.2352C414.899 74.2352 414.049 76.2352 413.249 78.2352C412.549 80.1352 412.149 81.7352 412.049 83.0352C411.949 84.2352 412.249 84.9352 412.949 85.1352C413.649 85.3352 414.999 84.6852 416.999 83.1852C422.199 79.1852 427.399 75.1852 432.599 71.1852C437.799 67.1852 442.999 63.1352 448.199 59.0352L452.249 55.8852C453.049 55.2852 453.799 55.0352 454.499 55.1352C455.299 55.1352 456.099 55.3852 456.899 55.8852C458.699 56.9852 459.449 58.3852 459.149 60.0852C458.949 60.5852 458.799 61.1352 458.699 61.7352C458.699 62.2352 458.599 62.7352 458.399 63.2352C457.299 66.7352 456.049 70.4352 454.649 74.3352C453.249 78.2352 452.149 81.8852 451.349 85.2852C454.249 84.0852 457.299 82.8352 460.499 81.5352C463.799 80.2352 466.749 78.7352 469.349 77.0352C471.049 75.9352 472.249 75.3852 472.949 75.3852C473.749 75.2852 474.399 76.2352 474.899 78.2352C471.199 80.7352 467.449 82.7852 463.649 84.3852C459.949 85.9852 456.349 87.5852 452.849 89.1852C451.749 89.6852 450.899 90.2852 450.299 90.9852C449.699 91.6852 449.199 92.5852 448.799 93.6852C447.499 97.1852 446.149 100.685 444.749 104.185C443.449 107.685 442.049 111.185 440.549 114.685C438.949 118.185 437.099 121.435 434.999 124.435C432.999 127.535 430.549 130.385 427.649 132.985C419.049 140.485 410.049 141.035 400.649 134.635C397.449 132.435 395.549 129.985 394.949 127.285C394.349 124.685 395.249 121.785 397.649 118.585C399.149 116.585 400.799 114.735 402.599 113.035C404.399 111.235 406.299 109.535 408.299 107.935C413.099 104.135 418.149 100.735 423.449 97.7352C428.849 94.7352 434.349 91.9352 439.949 89.3352C441.649 88.5352 442.999 87.6352 443.999 86.6352C444.999 85.5352 445.749 84.0852 446.249 82.2852C446.849 79.8852 447.499 77.5352 448.199 75.2352C448.999 72.8352 449.799 70.4852 450.599 68.1852C450.799 67.6852 450.949 67.1352 451.049 66.5352C451.149 65.8352 451.299 64.9352 451.499 63.8352ZM441.899 92.7852C438.699 94.2852 434.999 96.2352 430.799 98.6352C426.699 100.935 422.699 103.485 418.799 106.285C414.899 109.085 411.349 112.085 408.149 115.285C404.949 118.385 402.649 121.535 401.249 124.735C399.749 127.935 400.599 130.585 403.799 132.685C405.999 134.085 408.199 134.785 410.399 134.785C412.699 134.785 414.999 134.185 417.299 132.985C419.399 131.885 421.299 130.485 422.999 128.785C424.699 127.185 426.249 125.435 427.649 123.535C430.249 119.935 432.499 116.235 434.399 112.435C436.399 108.535 438.199 104.485 439.799 100.285C440.099 99.4852 440.399 98.3352 440.699 96.8352C440.999 95.3352 441.399 93.9852 441.899 92.7852ZM496.02 61.7352C495.62 61.5352 495.27 61.3852 494.97 61.2852C494.67 61.1852 494.37 61.0352 494.07 60.8352C493.67 60.6352 493.32 60.3852 493.02 60.0852C492.82 59.7852 492.52 59.4852 492.12 59.1852C490.72 59.8852 488.92 60.7852 486.72 61.8852C484.62 62.9852 482.67 64.2352 480.87 65.6352C479.07 67.0352 477.77 68.5352 476.97 70.1352C476.17 71.7352 476.47 73.3352 477.87 74.9352C479.07 76.3352 480.27 77.7352 481.47 79.1352C482.77 80.5352 484.12 81.9852 485.52 83.4852C486.42 83.0852 487.42 82.6352 488.52 82.1352C489.72 81.5352 490.92 80.9352 492.12 80.3352C493.22 79.7352 494.32 79.1352 495.42 78.5352C496.62 77.9352 497.82 77.3352 499.02 76.7352C499.72 76.3352 500.27 76.0352 500.67 75.8352C501.07 75.5352 501.42 75.4352 501.72 75.5352C502.02 75.6352 502.32 75.8852 502.62 76.2852C502.92 76.6852 503.42 77.3352 504.12 78.2352C501.22 80.1352 498.37 81.7352 495.57 83.0352C492.87 84.3352 490.07 85.7852 487.17 87.3852C486.37 87.7852 485.72 88.4852 485.22 89.4852C484.82 90.4852 484.47 91.3852 484.17 92.1852C482.27 97.4852 479.57 102.135 476.07 106.135C472.67 110.035 468.72 113.585 464.22 116.785C461.32 118.685 458.27 119.585 455.07 119.485C452.07 119.185 450.02 117.985 448.92 115.885C447.82 113.785 448.17 111.535 449.97 109.135C451.07 107.635 452.32 106.185 453.72 104.785C455.02 103.285 456.47 101.985 458.07 100.885C461.57 98.2852 465.07 95.9352 468.57 93.8352C471.97 91.6352 475.37 89.3852 478.77 87.0852C479.37 86.7852 479.32 86.1352 478.62 85.1352C477.92 84.1352 477.02 83.0852 475.92 81.9852C474.92 80.7852 473.87 79.6852 472.77 78.6852C471.67 77.6852 470.97 76.9352 470.67 76.4352C470.17 75.8352 469.87 75.0852 469.77 74.1852C469.67 73.1852 469.72 72.2352 469.92 71.3352C470.02 70.3352 470.27 69.3852 470.67 68.4852C470.97 67.5852 471.37 66.8352 471.87 66.2352C476.17 61.1352 481.52 57.4352 487.92 55.1352C489.72 54.4352 491.52 54.4352 493.32 55.1352C496.12 55.8352 497.02 58.0352 496.02 61.7352ZM474.57 96.2352C470.57 98.6352 466.72 101.185 463.02 103.885C459.32 106.585 456.12 110.135 453.42 114.535C455.12 114.235 456.97 113.535 458.97 112.435C460.97 111.235 462.97 109.835 464.97 108.235C466.87 106.535 468.67 104.685 470.37 102.685C472.07 100.585 473.47 98.4352 474.57 96.2352ZM523.653 91.1352C517.353 98.0352 512.003 102.485 507.603 104.485C503.203 106.485 499.953 106.535 497.853 104.635C495.653 102.735 494.703 99.2352 495.003 94.1352C495.303 88.9352 497.003 82.6352 500.103 75.2352C502.203 69.9352 504.353 65.0352 506.553 60.5352C508.853 56.0352 511.153 51.5352 513.453 47.0352C513.953 46.3352 514.353 45.5852 514.653 44.7851C515.053 43.9852 515.553 42.9852 516.153 41.7852C514.753 41.7852 513.503 41.8352 512.403 41.9352C511.303 41.9352 510.203 41.8852 509.103 41.7852C507.903 41.7852 505.403 41.7852 501.603 41.7852C497.903 41.7852 493.953 41.7852 489.753 41.7852C485.453 41.6852 481.453 41.6352 477.753 41.6352C474.053 41.6352 471.603 41.6352 470.403 41.6352C469.303 41.6352 468.303 41.5852 467.403 41.4852C466.403 41.2852 465.503 41.7852 464.703 42.9852C464.503 43.1852 464.153 43.3352 463.653 43.4351C463.153 43.4351 462.803 43.3352 462.603 43.1352C461.503 42.4351 460.503 41.6852 459.603 40.8852C458.603 39.9852 458.003 38.6352 457.803 36.8352C458.603 36.7352 459.453 36.6352 460.353 36.5351C461.153 36.4351 461.953 36.3852 462.753 36.3852C464.253 36.4851 466.403 36.5351 469.203 36.5351C471.903 36.5351 474.953 36.5852 478.353 36.6852C481.653 36.6852 485.153 36.7352 488.853 36.8352C492.453 36.8352 495.953 36.8852 499.353 36.9852C502.653 36.9852 505.653 37.0352 508.353 37.1351C511.053 37.1351 513.203 37.1852 514.803 37.2852C516.303 37.3852 517.553 37.1852 518.553 36.6852C519.553 36.1852 520.503 35.2352 521.403 33.8352C525.703 27.2352 530.353 20.7852 535.353 14.4852C536.553 12.8852 537.553 12.1852 538.353 12.3852C539.153 12.5852 540.253 13.6852 541.653 15.6851C538.753 18.8851 536.053 22.2852 533.553 25.8852C531.153 29.3852 528.803 33.1852 526.503 37.2852L547.803 38.0352C548.503 38.0352 549.203 38.0352 549.903 38.0352C550.603 38.0352 551.303 38.1352 552.003 38.3352C552.903 38.5351 553.703 38.9352 554.403 39.5352C555.103 40.0352 555.553 40.9352 555.753 42.2352C555.253 42.3352 554.753 42.4352 554.253 42.5352C553.753 42.5352 553.253 42.5352 552.753 42.5352C548.353 42.5352 544.003 42.5352 539.703 42.5352C535.503 42.5352 531.253 42.4852 526.953 42.3852C525.753 42.3852 524.753 42.5852 523.953 42.9852C523.153 43.2852 522.453 44.0352 521.853 45.2352C518.953 50.5352 516.153 55.9352 513.453 61.4352C510.753 66.8352 508.253 72.3852 505.953 78.0852C503.453 84.6852 501.953 89.7852 501.453 93.3852C501.053 96.8852 501.503 98.9852 502.803 99.6852C504.203 100.385 506.453 99.7852 509.553 97.8852C512.653 95.8852 516.503 92.7352 521.103 88.4352C525.003 84.7352 528.203 80.6352 530.703 76.1352C530.803 76.0352 531.003 75.7352 531.303 75.2352C531.703 74.6352 532.003 74.3852 532.203 74.4852C533.703 74.9852 534.503 75.5852 534.603 76.2852C534.703 76.9852 534.253 78.0352 533.253 79.4352C531.853 81.4352 530.403 83.3352 528.903 85.1352C527.503 86.9352 525.953 88.6852 524.253 90.3852L523.503 91.1352H523.653ZM565.364 79.7352C564.064 80.9352 562.264 82.5352 559.964 84.5352C557.664 86.4352 555.114 88.2352 552.314 89.9352C549.514 91.6352 546.564 92.9352 543.464 93.8352C540.464 94.6352 537.564 94.4852 534.764 93.3852C532.764 92.5852 531.214 91.1852 530.114 89.1852C529.014 87.1852 528.714 84.5852 529.214 81.3852C529.514 78.9852 528.814 76.5352 527.114 74.0352C528.314 74.1352 529.314 73.9852 530.114 73.5852C530.914 73.1852 531.564 72.6852 532.064 72.0852C532.564 71.4852 533.014 70.8352 533.414 70.1352C533.814 69.3352 534.264 68.5852 534.764 67.8852C535.964 66.1852 537.264 64.6352 538.664 63.2352C540.064 61.7352 541.714 60.4352 543.614 59.3352C546.614 57.6352 549.614 57.7352 552.614 59.6352C555.514 61.6352 556.364 64.1352 555.164 67.1352C553.964 70.4352 552.164 73.0852 549.764 75.0852C547.464 77.0852 544.714 78.6352 541.514 79.7352C540.714 80.0352 539.914 80.2852 539.114 80.4852C538.414 80.6852 537.614 80.8852 536.714 81.0852C535.814 83.3852 535.514 85.1352 535.814 86.3352C536.214 87.4352 536.914 88.2852 537.914 88.8852C539.414 89.7852 541.314 89.8852 543.614 89.1852C546.014 88.3852 548.464 87.2852 550.964 85.8852C553.464 84.3852 555.814 82.7352 558.014 80.9352C560.214 79.1352 561.914 77.6352 563.114 76.4352C563.914 75.6352 564.614 75.2352 565.214 75.2352C565.914 75.2352 566.414 75.4852 566.714 75.9852C567.014 76.3852 567.064 76.9352 566.864 77.6352C566.764 78.3352 566.264 79.0352 565.364 79.7352ZM538.814 76.1352C541.214 75.5352 543.464 74.4352 545.564 72.8352C547.664 71.1352 549.164 69.4852 550.064 67.8852C550.664 66.6852 550.964 65.7852 550.964 65.1852C550.964 64.5852 550.764 64.1852 550.364 63.9852C549.964 63.7852 549.364 63.8352 548.564 64.1352C547.864 64.4352 547.164 64.8852 546.464 65.4852C544.764 66.8852 543.214 68.5852 541.814 70.5852C540.514 72.5852 539.514 74.4352 538.814 76.1352ZM617.056 87.2352C618.556 86.0352 619.806 85.0852 620.806 84.3852C621.806 83.5852 622.756 82.8352 623.656 82.1352C624.556 81.4352 625.506 80.7352 626.506 80.0352C627.506 79.2352 628.756 78.2352 630.256 77.0352C631.656 75.9352 632.856 75.3352 633.856 75.2352C634.856 75.0352 635.706 75.9352 636.406 77.9352C633.506 80.1352 630.906 82.2852 628.606 84.3852C626.306 86.3852 623.856 88.5352 621.256 90.8352C619.556 92.2352 617.556 93.3352 615.256 94.1352C612.956 94.9352 610.806 94.6852 608.806 93.3852C606.906 91.9852 605.956 90.0852 605.956 87.6852C605.956 86.2852 606.056 84.8852 606.256 83.4852C606.556 81.9852 606.956 80.5352 607.456 79.1352C608.256 76.8352 609.106 74.5352 610.006 72.2352C610.906 69.9352 611.806 67.6352 612.706 65.3352C613.306 63.9352 613.656 62.9852 613.756 62.4852C613.956 61.8852 613.906 61.6352 613.606 61.7352C613.306 61.7352 612.856 62.0352 612.256 62.6352C611.656 63.2352 610.906 63.9852 610.006 64.8852C608.006 67.4852 605.956 70.0852 603.856 72.6852C601.756 75.1852 599.656 77.6852 597.556 80.1852C596.656 81.2852 595.656 82.2852 594.556 83.1852C593.556 84.0852 592.506 84.9352 591.406 85.7352C590.306 86.6352 589.156 87.2352 587.956 87.5352C586.756 87.7352 585.456 87.4352 584.056 86.6352C581.456 85.3352 580.156 83.0852 580.156 79.8852C580.256 78.9852 580.356 78.0852 580.456 77.1852C580.556 76.2852 580.706 75.3852 580.906 74.4852C580.906 74.0852 580.906 73.6852 580.906 73.2852C580.906 72.8852 580.956 72.2852 581.056 71.4852C577.356 74.6852 574.106 78.2352 571.306 82.1352C568.506 86.0352 565.656 89.8352 562.756 93.5352C561.656 94.8352 560.806 95.5852 560.206 95.7852C559.506 95.9852 558.606 95.8352 557.506 95.3352C555.406 94.4352 554.656 92.9352 555.256 90.8352C555.456 90.3352 555.656 89.8352 555.856 89.3352C555.956 88.8352 556.106 88.3352 556.306 87.8352C558.606 83.0352 560.956 78.2852 563.356 73.5852C565.656 68.8852 568.006 64.1352 570.406 59.3352C571.106 58.0352 571.856 56.8852 572.656 55.8852C573.856 54.4852 574.856 53.7852 575.656 53.7852C576.456 53.7852 577.556 54.6352 578.956 56.3352C577.456 59.2352 575.956 62.0852 574.456 64.8852C572.956 67.6852 571.506 70.4852 570.106 73.2852C572.106 71.4852 574.006 69.8352 575.806 68.3352C577.706 66.7352 579.506 65.0852 581.206 63.3852C582.706 62.1852 584.456 62.0352 586.456 62.9352C588.356 64.0352 589.056 65.5852 588.556 67.5852C588.356 68.8852 588.106 70.1852 587.806 71.4852C587.506 72.6852 587.256 73.9352 587.056 75.2352C586.856 76.3352 586.656 77.4852 586.456 78.6852C586.256 79.8852 586.056 81.0352 585.856 82.1352C587.956 81.2352 590.356 79.4852 593.056 76.8852C595.756 74.1852 598.456 71.2852 601.156 68.1852C603.956 64.9852 606.556 61.8352 608.956 58.7352C611.456 55.5352 613.556 53.0352 615.256 51.2352C615.756 50.7352 616.256 50.2352 616.756 49.7352C617.256 49.2352 617.806 48.8852 618.406 48.6852C619.906 48.1852 621.306 48.2852 622.606 48.9852C623.106 49.3852 623.556 49.9852 623.956 50.7852C624.456 51.4852 624.656 52.1352 624.556 52.7352C624.456 53.7352 624.256 54.6852 623.956 55.5852C623.656 56.4852 623.306 57.4352 622.906 58.4352C621.406 62.1352 619.856 65.8352 618.256 69.5352C616.756 73.1352 615.256 76.7852 613.756 80.4852C613.256 81.7852 612.806 83.1352 612.406 84.5352C612.006 85.8352 611.806 86.8852 611.806 87.6852C611.906 88.4852 612.356 88.9352 613.156 89.0352C613.956 89.1352 615.256 88.5352 617.056 87.2352Z" fill="#FFB500"/>
</svg>
