<svg width="351" height="68" viewBox="0 0 351 68" fill="none" xmlns="http://www.w3.org/2000/svg">
<path d="M21.1284 28.0575C20.4284 29.1308 19.705 30.1808 18.9584 31.2075C18.2117 32.1875 17.5117 33.2142 16.8584 34.2875C16.2517 35.3142 15.715 36.4108 15.2484 37.5775C14.8284 38.7442 14.5484 39.9808 14.4084 41.2875C15.155 41.3342 15.8084 41.2642 16.3684 41.0775C16.9284 40.8442 17.465 40.5875 17.9784 40.3075C19.1917 39.5608 20.5684 38.7442 22.1084 37.8575C23.6484 36.9708 25.025 36.1542 26.2384 35.4075C26.7517 35.0808 27.0784 34.9875 27.2184 35.1275C27.405 35.2208 27.755 35.5708 28.2684 36.1775C28.0817 36.3642 27.895 36.5508 27.7084 36.7375C27.5684 36.8775 27.405 37.0175 27.2184 37.1575C25.9584 37.9975 24.6984 38.8375 23.4384 39.6775C22.1784 40.4708 20.9184 41.2642 19.6584 42.0575C18.585 42.6642 17.5117 43.0375 16.4384 43.1775C14.7584 43.3642 13.475 42.9675 12.5884 41.9875C11.7017 41.0075 11.3984 39.7008 11.6784 38.0675C11.725 37.9275 11.7484 37.7875 11.7484 37.6475C11.795 37.4608 11.865 37.2042 11.9584 36.8775C11.2584 37.4375 10.6284 37.9508 10.0684 38.4175C9.50836 38.8842 8.94836 39.3275 8.38836 39.7475C7.87503 40.1208 7.33836 40.4942 6.77836 40.8675C6.26503 41.1942 5.75169 41.5442 5.23836 41.9175C4.58503 42.2908 3.95503 42.4542 3.34836 42.4075C2.74169 42.3608 2.13503 42.1508 1.52836 41.7775C1.06169 41.4508 0.735026 41.0775 0.548359 40.6575C0.315026 40.2375 0.315026 39.7475 0.548359 39.1875C0.688359 38.8142 0.851693 38.4408 1.03836 38.0675C1.17836 37.6475 1.36503 37.2508 1.59836 36.8775C3.79169 33.2842 6.52169 30.2975 9.78836 27.9175C10.2084 27.5908 10.6284 27.3108 11.0484 27.0775C11.515 26.8442 11.9817 26.6108 12.4484 26.3775C14.0817 25.5842 15.575 25.4442 16.9284 25.9575C18.3284 26.4242 19.7284 27.1242 21.1284 28.0575ZM4.25836 39.2575C6.73169 37.5308 9.01836 35.7342 11.1184 33.8675C13.2184 31.9542 15.3184 29.9475 17.4184 27.8475C16.3917 27.8008 15.225 28.1275 13.9184 28.8275C12.6584 29.4808 11.3984 30.3442 10.1384 31.4175C8.87836 32.4908 7.71169 33.7275 6.63836 35.1275C5.61169 36.4808 4.81836 37.8575 4.25836 39.2575ZM30.3873 38.9775C30.9939 38.5108 31.4606 38.1375 31.7873 37.8575C32.1606 37.5775 32.4873 37.3442 32.7673 37.1575C33.0473 36.9242 33.3506 36.6908 33.6773 36.4575C34.0039 36.1775 34.4473 35.7808 35.0073 35.2675C35.4739 34.8942 35.8006 34.7075 35.9873 34.7075C36.1739 34.6608 36.4773 34.9642 36.8973 35.6175C36.0106 36.4575 35.2639 37.1575 34.6573 37.7175C34.0506 38.2308 33.4673 38.7442 32.9073 39.2575C32.3473 39.7242 31.7406 40.2142 31.0873 40.7275C30.4806 41.2408 29.7339 41.8942 28.8473 42.6875C28.1939 43.2942 27.5639 43.6208 26.9573 43.6675C26.3973 43.6675 25.9073 43.5275 25.4873 43.2475C25.0673 42.9208 24.7639 42.4775 24.5773 41.9175C24.3439 41.3108 24.2506 40.7042 24.2973 40.0975C24.4373 38.4642 24.7406 36.9008 25.2073 35.4075C25.6739 33.8675 26.3039 32.3742 27.0973 30.9275C27.1906 30.6942 27.3073 30.4842 27.4473 30.2975C27.6339 30.1108 27.7973 29.9008 27.9373 29.6675C28.6373 28.8742 29.2673 28.5242 29.8273 28.6175C30.3873 28.6642 31.0173 29.1308 31.7173 30.0175C30.5039 31.1375 29.5706 32.3742 28.9173 33.7275C28.3106 35.0808 27.8206 36.4808 27.4473 37.9275C27.0739 39.1875 26.8873 40.0508 26.8873 40.5175C26.8873 40.9842 27.0273 41.1942 27.3073 41.1475C27.5873 41.1008 27.9839 40.8675 28.4973 40.4475C29.0573 39.9808 29.6873 39.4908 30.3873 38.9775ZM35.2173 22.1775C34.7039 22.9708 34.2139 23.7408 33.7473 24.4875C33.3273 25.2342 32.8606 26.0275 32.3473 26.8675C31.5539 26.7742 31.0639 26.5642 30.8773 26.2375C30.6906 25.8642 30.6673 25.4442 30.8073 24.9775C30.9473 24.5108 31.1573 24.0442 31.4373 23.5775C31.7173 23.0642 31.9739 22.6208 32.2073 22.2475C32.7206 21.4542 33.1406 21.0575 33.4673 21.0575C33.8406 21.0575 34.4239 21.4308 35.2173 22.1775ZM71.7218 56.2675C70.6485 56.4075 69.8551 56.3142 69.3418 55.9875C68.8285 55.6608 68.5718 54.9608 68.5718 53.8875C68.5251 52.9542 68.5485 52.0442 68.6418 51.1575C68.7351 50.2242 68.8985 49.2908 69.1318 48.3575C69.6918 46.1175 70.2985 43.9008 70.9518 41.7075C71.6518 39.4675 72.3285 37.2275 72.9818 34.9875C73.0751 34.6608 73.1451 34.3575 73.1918 34.0775C73.2851 33.7508 73.3085 33.4008 73.2618 33.0275C72.9818 33.4008 72.7018 33.7742 72.4218 34.1475C72.1418 34.5208 71.8385 34.8942 71.5118 35.2675C70.4385 36.5742 69.3418 37.8808 68.2218 39.1875C67.1018 40.4942 65.9818 41.8008 64.8618 43.1075C64.4418 43.6208 63.9518 43.9942 63.3918 44.2275C62.8318 44.4608 62.1785 44.4375 61.4318 44.1575C60.7785 43.8775 60.3351 43.5975 60.1018 43.3175C59.8218 42.9908 59.7051 42.4775 59.7518 41.7775C59.7518 41.4042 59.7751 41.0542 59.8218 40.7275C59.8685 40.3542 59.9385 40.0042 60.0318 39.6775C61.1985 35.9442 63.0651 32.7475 65.6318 30.0875C66.2851 29.4342 67.0085 28.8508 67.8018 28.3375C69.6218 27.0775 71.5118 26.9142 73.4718 27.8475C73.7051 27.9875 73.9618 28.1275 74.2418 28.2675C74.5218 28.3608 74.8485 28.4775 75.2218 28.6175C75.4085 28.2442 75.5718 27.8942 75.7118 27.5675C75.8518 27.1942 76.0151 26.8208 76.2018 26.4475C77.6951 22.8542 79.3751 19.4008 81.2418 16.0875C83.1551 12.7275 85.3718 9.55417 87.8918 6.5675C88.5918 5.77416 89.3385 5.00416 90.1318 4.2575C90.9251 3.51083 91.7185 2.7875 92.5118 2.0875C93.0718 1.57417 93.8185 1.13083 94.7518 0.757498C95.9185 0.290832 96.9218 0.407499 97.7618 1.1075C98.6485 1.76083 99.0451 2.69417 98.9518 3.9075C98.9051 4.93416 98.6485 5.96083 98.1818 6.9875C97.1085 9.83416 95.7318 12.4708 94.0518 14.8975C92.4185 17.3242 90.5051 19.5875 88.3118 21.6875C87.0051 22.9475 85.6285 24.1608 84.1818 25.3275C82.7818 26.4475 81.3818 27.6142 79.9818 28.8275C79.7018 29.0608 79.4218 29.3175 79.1418 29.5975C78.8618 29.8775 78.6518 30.2042 78.5118 30.5775C77.2051 33.8908 75.9685 37.2275 74.8018 40.5875C73.6818 43.9008 72.7718 47.3075 72.0718 50.8075C71.8851 51.6475 71.7918 52.5342 71.7918 53.4675C71.7918 54.3542 71.7685 55.2875 71.7218 56.2675ZM82.0818 23.6475C83.0151 22.7608 83.9251 21.8975 84.8118 21.0575C85.6985 20.2175 86.5851 19.3308 87.4718 18.3975C89.2451 16.5775 90.8085 14.6642 92.1618 12.6575C93.5618 10.6042 94.7518 8.3875 95.7318 6.0075C95.9185 5.54083 96.0585 5.0975 96.1518 4.6775C96.2451 4.21083 96.3618 3.74417 96.5018 3.2775C96.3151 3.23083 96.1285 3.1375 95.9418 2.9975C94.2151 4.30417 92.6751 5.75083 91.3218 7.3375C89.9685 8.8775 88.7318 10.5342 87.6118 12.3075C86.5385 14.0342 85.5118 15.8308 84.5318 17.6975C83.5985 19.5642 82.6418 21.4075 81.6618 23.2275L82.0818 23.6475ZM72.7718 29.3875C71.7918 29.6208 70.7885 30.1108 69.7618 30.8575C68.7351 31.5575 67.7785 32.4442 66.8918 33.5175C66.0518 34.5908 65.3285 35.7575 64.7218 37.0175C64.1151 38.2775 63.7185 39.5375 63.5318 40.7975C65.1185 38.8375 66.6585 36.9475 68.1518 35.1275C69.6451 33.2608 71.1851 31.3475 72.7718 29.3875ZM87.063 38.9775C87.6697 38.5108 88.1364 38.1375 88.463 37.8575C88.8364 37.5775 89.163 37.3442 89.443 37.1575C89.723 36.9242 90.0264 36.6908 90.353 36.4575C90.6797 36.1775 91.123 35.7808 91.683 35.2675C92.1497 34.8942 92.4764 34.7075 92.663 34.7075C92.8497 34.6608 93.153 34.9642 93.573 35.6175C92.6864 36.4575 91.9397 37.1575 91.333 37.7175C90.7264 38.2308 90.143 38.7442 89.583 39.2575C89.023 39.7242 88.4164 40.2142 87.763 40.7275C87.1564 41.2408 86.4097 41.8942 85.523 42.6875C84.8697 43.2942 84.2397 43.6208 83.633 43.6675C83.073 43.6675 82.583 43.5275 82.163 43.2475C81.743 42.9208 81.4397 42.4775 81.253 41.9175C81.0197 41.3108 80.9264 40.7042 80.973 40.0975C81.113 38.4642 81.4164 36.9008 81.883 35.4075C82.3497 33.8675 82.9797 32.3742 83.773 30.9275C83.8664 30.6942 83.983 30.4842 84.123 30.2975C84.3097 30.1108 84.473 29.9008 84.613 29.6675C85.313 28.8742 85.943 28.5242 86.503 28.6175C87.063 28.6642 87.693 29.1308 88.393 30.0175C87.1797 31.1375 86.2464 32.3742 85.593 33.7275C84.9864 35.0808 84.4964 36.4808 84.123 37.9275C83.7497 39.1875 83.563 40.0508 83.563 40.5175C83.563 40.9842 83.703 41.1942 83.983 41.1475C84.263 41.1008 84.6597 40.8675 85.173 40.4475C85.733 39.9808 86.363 39.4908 87.063 38.9775ZM91.893 22.1775C91.3797 22.9708 90.8897 23.7408 90.423 24.4875C90.003 25.2342 89.5364 26.0275 89.023 26.8675C88.2297 26.7742 87.7397 26.5642 87.553 26.2375C87.3664 25.8642 87.343 25.4442 87.483 24.9775C87.623 24.5108 87.833 24.0442 88.113 23.5775C88.393 23.0642 88.6497 22.6208 88.883 22.2475C89.3964 21.4542 89.8164 21.0575 90.143 21.0575C90.5164 21.0575 91.0997 21.4308 91.893 22.1775ZM109.664 28.0575C108.964 29.1308 108.24 30.1808 107.494 31.2075C106.747 32.1875 106.047 33.2142 105.394 34.2875C104.787 35.3142 104.25 36.4108 103.784 37.5775C103.364 38.7442 103.084 39.9808 102.944 41.2875C103.69 41.3342 104.344 41.2642 104.904 41.0775C105.464 40.8442 106 40.5875 106.514 40.3075C107.727 39.5608 109.104 38.7442 110.644 37.8575C112.184 36.9708 113.56 36.1542 114.774 35.4075C115.287 35.0808 115.614 34.9875 115.754 35.1275C115.94 35.2208 116.29 35.5708 116.804 36.1775C116.617 36.3642 116.43 36.5508 116.244 36.7375C116.104 36.8775 115.94 37.0175 115.754 37.1575C114.494 37.9975 113.234 38.8375 111.974 39.6775C110.714 40.4708 109.454 41.2642 108.194 42.0575C107.12 42.6642 106.047 43.0375 104.974 43.1775C103.294 43.3642 102.01 42.9675 101.124 41.9875C100.237 41.0075 99.9335 39.7008 100.214 38.0675C100.26 37.9275 100.284 37.7875 100.284 37.6475C100.33 37.4608 100.4 37.2042 100.494 36.8775C99.7935 37.4375 99.1635 37.9508 98.6035 38.4175C98.0435 38.8842 97.4835 39.3275 96.9235 39.7475C96.4102 40.1208 95.8735 40.4942 95.3135 40.8675C94.8002 41.1942 94.2868 41.5442 93.7735 41.9175C93.1202 42.2908 92.4902 42.4542 91.8835 42.4075C91.2768 42.3608 90.6702 42.1508 90.0635 41.7775C89.5968 41.4508 89.2702 41.0775 89.0835 40.6575C88.8502 40.2375 88.8502 39.7475 89.0835 39.1875C89.2235 38.8142 89.3868 38.4408 89.5735 38.0675C89.7135 37.6475 89.9002 37.2508 90.1335 36.8775C92.3268 33.2842 95.0568 30.2975 98.3235 27.9175C98.7435 27.5908 99.1635 27.3108 99.5835 27.0775C100.05 26.8442 100.517 26.6108 100.984 26.3775C102.617 25.5842 104.11 25.4442 105.464 25.9575C106.864 26.4242 108.264 27.1242 109.664 28.0575ZM92.7935 39.2575C95.2668 37.5308 97.5535 35.7342 99.6535 33.8675C101.754 31.9542 103.854 29.9475 105.954 27.8475C104.927 27.8008 103.76 28.1275 102.454 28.8275C101.194 29.4808 99.9335 30.3442 98.6735 31.4175C97.4135 32.4908 96.2468 33.7275 95.1735 35.1275C94.1468 36.4808 93.3535 37.8575 92.7935 39.2575ZM119.062 44.1575C120.182 43.2708 121.116 42.5008 121.862 41.8475C122.656 41.1942 123.402 40.5408 124.102 39.8875C124.802 39.2342 125.479 38.5575 126.132 37.8575C126.832 37.1108 127.626 36.2008 128.512 35.1275C128.932 34.6608 129.306 34.4275 129.632 34.4275C130.006 34.3808 130.286 34.4975 130.472 34.7775C130.659 35.0108 130.706 35.3375 130.612 35.7575C130.566 36.1775 130.332 36.5975 129.912 37.0175C129.026 37.8575 128.256 38.6042 127.602 39.2575C126.996 39.8642 126.412 40.4708 125.852 41.0775C125.292 41.6842 124.686 42.3142 124.032 42.9675C123.426 43.5742 122.679 44.3208 121.792 45.2075C121.232 45.8608 120.579 46.4442 119.832 46.9575C119.086 47.4708 118.339 47.9375 117.592 48.3575C116.192 49.1042 114.932 49.1975 113.812 48.6375C112.646 48.0775 111.992 47.0508 111.852 45.5575C111.712 44.4842 111.712 43.4342 111.852 42.4075C111.992 41.3808 112.179 40.3542 112.412 39.3275C112.646 38.0208 112.972 36.7142 113.392 35.4075C113.812 34.1008 114.186 32.7708 114.512 31.4175C114.279 31.3242 113.999 31.2542 113.672 31.2075C113.346 31.1142 113.066 30.9975 112.832 30.8575C112.599 30.7175 112.412 30.5308 112.272 30.2975C112.132 30.0175 111.946 29.6908 111.712 29.3175C112.132 29.2242 112.459 29.1775 112.692 29.1775C112.926 29.1775 113.159 29.1308 113.392 29.0375C114.186 28.7575 114.886 28.3608 115.492 27.8475C116.099 27.3342 116.589 26.6575 116.962 25.8175C118.176 22.9242 119.552 20.1242 121.092 17.4175C122.632 14.7108 124.406 12.0975 126.412 9.5775C127.159 8.64416 127.952 7.78083 128.792 6.9875C129.679 6.1475 130.566 5.33083 131.452 4.5375C131.686 4.30416 131.966 4.1175 132.292 3.9775C132.666 3.79083 132.992 3.60416 133.272 3.4175C133.832 3.09083 134.369 2.97417 134.882 3.0675C135.442 3.16083 135.909 3.37083 136.282 3.6975C136.702 4.02416 137.006 4.42083 137.192 4.8875C137.426 5.35417 137.496 5.7975 137.402 6.2175C137.262 6.87083 137.076 7.52417 136.842 8.1775C136.656 8.83083 136.399 9.4375 136.072 9.9975C134.999 11.8642 133.809 13.6142 132.502 15.2475C131.196 16.8342 129.796 18.3742 128.302 19.8675C127.089 21.0808 125.829 22.2942 124.522 23.5075C123.216 24.6742 121.909 25.8642 120.602 27.0775C120.369 27.3108 120.112 27.5675 119.832 27.8475C119.552 28.1275 119.342 28.4308 119.202 28.7575C118.129 31.2775 117.172 33.8208 116.332 36.3875C115.492 38.9542 114.909 41.5908 114.582 44.2975C114.489 45.3242 114.559 45.9775 114.792 46.2575C115.072 46.5375 115.446 46.5842 115.912 46.3975C116.379 46.2108 116.892 45.9075 117.452 45.4875C118.012 45.0208 118.549 44.5775 119.062 44.1575ZM135.162 5.5875C134.136 6.10083 132.969 7.01083 131.662 8.3175C130.402 9.5775 129.166 11.0008 127.952 12.5875C126.739 14.1742 125.666 15.7842 124.732 17.4175C123.799 19.0508 123.169 20.4975 122.842 21.7575C125.316 19.3308 127.626 16.8808 129.772 14.4075C131.966 11.8875 133.762 8.9475 135.162 5.5875ZM137.14 35.1275C138.493 35.0342 139.753 34.9408 140.92 34.8475C142.086 34.7075 143.253 34.5908 144.42 34.4975C144.84 34.4508 145.166 34.5208 145.4 34.7075C145.633 34.8942 145.726 35.1275 145.68 35.4075C145.68 35.6408 145.516 35.8975 145.19 36.1775C144.91 36.4108 144.443 36.5742 143.79 36.6675C142.763 36.7608 141.736 36.8542 140.71 36.9475C139.73 37.0408 138.703 37.1108 137.63 37.1575C136.65 37.2042 135.903 37.6475 135.39 38.4875C134.97 39.1408 134.526 39.8175 134.06 40.5175C133.64 41.1708 133.173 41.7775 132.66 42.3375C132.193 42.8975 131.68 43.3875 131.12 43.8075C130.606 44.1808 130.023 44.3908 129.37 44.4375C128.39 44.5775 127.596 44.3908 126.99 43.8775C126.383 43.3642 126.126 42.6175 126.22 41.6375C126.313 39.8642 126.616 38.1842 127.13 36.5975C127.643 34.9642 128.343 33.3775 129.23 31.8375C130.21 31.2775 130.98 30.5308 131.54 29.5975C132.1 28.6175 132.776 27.7542 133.57 27.0075C133.756 26.8675 133.92 26.7275 134.06 26.5875C134.2 26.4008 134.386 26.2608 134.62 26.1675C135.506 25.7008 136.393 25.7008 137.28 26.1675C138.213 26.6342 138.68 27.3808 138.68 28.4075C138.68 29.1075 138.586 29.8075 138.4 30.5075C138.26 31.2075 138.12 31.9075 137.98 32.6075C137.886 32.9808 137.77 33.3775 137.63 33.7975C137.49 34.1708 137.326 34.6142 137.14 35.1275ZM132.94 37.5075C132.426 37.3675 131.96 37.2042 131.54 37.0175C131.166 36.7842 130.863 36.4342 130.63 35.9675C129.603 38.2075 129.23 40.2608 129.51 42.1275C129.93 42.4542 130.443 42.1742 131.05 41.2875C131.656 40.3542 132.286 39.0942 132.94 37.5075ZM132.66 32.8175C132.473 33.2842 132.403 33.7042 132.45 34.0775C132.543 34.4508 132.683 34.7542 132.87 34.9875C133.103 35.1742 133.36 35.2675 133.64 35.2675C133.92 35.2208 134.13 34.9875 134.27 34.5675C135.296 32.3742 135.856 30.7175 135.95 29.5975C136.09 28.4775 135.973 27.8708 135.6 27.7775C135.273 27.6842 134.806 28.0808 134.2 28.9675C133.593 29.8075 133.08 31.0908 132.66 32.8175ZM165.626 34.9175L164.296 38.8375C165.696 38.2308 167.166 37.6242 168.706 37.0175C170.292 36.4108 171.576 35.7575 172.556 35.0575C173.162 35.4308 173.489 35.8508 173.536 36.3175C173.582 36.7375 173.232 37.2275 172.486 37.7875C171.226 38.6742 169.709 39.4208 167.936 40.0275C166.209 40.5875 164.622 41.1708 163.176 41.7775L162.756 42.6175C162.009 44.2508 161.239 45.8842 160.446 47.5175C159.699 49.1042 158.882 50.6908 157.996 52.2775C156.269 55.4042 153.982 58.1342 151.136 60.4675C150.109 61.2608 149.036 61.9608 147.916 62.5675C146.842 63.1742 145.629 63.5942 144.276 63.8275C142.642 64.1075 141.126 64.0142 139.726 63.5475C138.279 63.1275 136.949 62.4042 135.736 61.3775C133.962 59.8375 133.589 58.0875 134.616 56.1275C135.036 55.3342 135.526 54.5875 136.086 53.8875C136.599 53.1408 137.182 52.4875 137.836 51.9275C139.002 50.9008 140.216 49.9442 141.476 49.0575C142.689 48.1242 143.972 47.2842 145.326 46.5375C147.612 45.2775 149.922 44.0875 152.256 42.9675C154.589 41.8475 156.946 40.7275 159.326 39.6075C159.932 39.3275 160.422 39.0008 160.796 38.6275C161.216 38.2075 161.519 37.6708 161.706 37.0175C162.032 35.9908 162.359 34.9642 162.686 33.9375C163.012 32.8642 163.269 31.7675 163.456 30.6475L161.566 31.9075C160.072 32.9342 158.556 33.9842 157.016 35.0575C155.522 36.0842 154.006 37.0642 152.466 37.9975C151.672 38.5108 150.832 38.9775 149.946 39.3975C149.059 39.8175 148.172 40.2142 147.286 40.5875C145.652 41.2408 144.182 40.9842 142.876 39.8175C142.362 39.3042 142.012 38.7675 141.826 38.2075C141.639 37.6475 141.686 37.0175 141.966 36.3175C142.059 36.0375 142.152 35.7575 142.246 35.4775C142.339 35.1975 142.456 34.9408 142.596 34.7075C143.902 32.4675 145.442 30.5775 147.216 29.0375C149.036 27.4508 151.182 26.2142 153.656 25.3275C157.016 24.1608 159.652 25.1875 161.566 28.4075C162.079 28.1275 162.476 27.8708 162.756 27.6375C163.222 27.3108 163.689 27.1008 164.156 27.0075C164.669 26.9142 165.182 27.0542 165.696 27.4275C166.862 28.2208 167.236 29.2708 166.816 30.5775L165.626 34.9175ZM158.906 42.8275C156.526 43.9008 154.239 44.9742 152.046 46.0475C149.852 47.0742 147.729 48.2642 145.676 49.6175C144.649 50.2708 143.669 50.9475 142.736 51.6475C141.802 52.3475 140.892 53.0942 140.006 53.8875C138.932 54.8208 138.069 55.9408 137.416 57.2475C136.762 58.4608 136.669 59.4408 137.136 60.1875C137.556 60.9808 138.442 61.4475 139.796 61.5875C140.776 61.7275 141.756 61.7042 142.736 61.5175C143.669 61.3308 144.532 60.9575 145.326 60.3975C146.306 59.7442 147.262 59.0442 148.196 58.2975C149.129 57.5975 150.016 56.8275 150.856 55.9875C152.582 54.2142 154.052 52.3008 155.266 50.2475C156.526 48.1942 157.692 46.0475 158.766 43.8075C158.812 43.7142 158.836 43.5975 158.836 43.4575C158.836 43.3175 158.859 43.1075 158.906 42.8275ZM148.406 32.2575C147.052 33.6108 146.096 34.7775 145.536 35.7575C145.022 36.7375 144.812 37.6242 144.906 38.4175C145.699 38.2775 146.726 37.9042 147.986 37.2975C149.292 36.6908 150.622 35.9675 151.976 35.1275C153.376 34.2875 154.729 33.4008 156.036 32.4675C157.389 31.5342 158.486 30.6475 159.326 29.8075C159.046 28.3608 158.416 27.5675 157.436 27.4275C156.502 27.2408 155.452 27.4275 154.286 27.9875C153.166 28.5008 152.046 29.2008 150.926 30.0875C149.852 30.9275 149.012 31.6508 148.406 32.2575ZM192.387 36.4575C191.593 37.4842 190.777 38.4875 189.937 39.4675C189.143 40.4475 188.303 41.4042 187.417 42.3375C187.043 42.7108 186.623 43.1542 186.157 43.6675C185.737 44.1342 185.247 44.5775 184.687 44.9975C184.173 45.3708 183.637 45.6975 183.077 45.9775C182.517 46.2108 181.957 46.2808 181.397 46.1875C180.417 46.0008 179.67 45.5342 179.157 44.7875C178.643 44.0408 178.457 43.1308 178.597 42.0575C178.737 41.2175 178.947 40.3775 179.227 39.5375C179.32 39.1642 179.437 38.7675 179.577 38.3475C179.717 37.8808 179.903 37.3208 180.137 36.6675C179.763 36.9942 179.437 37.2742 179.157 37.5075C178.923 37.6942 178.69 37.8808 178.457 38.0675C177.897 38.5342 177.313 39.0242 176.707 39.5375C176.147 40.0042 175.54 40.4242 174.887 40.7975C174.327 41.1242 173.743 41.2875 173.137 41.2875C172.577 41.2408 172.063 41.0775 171.597 40.7975C171.177 40.4708 170.85 40.0508 170.617 39.5375C170.383 39.0242 170.313 38.4408 170.407 37.7875C170.593 36.0142 171.06 34.3575 171.807 32.8175C172.6 31.2308 173.533 29.7142 174.607 28.2675C174.98 27.7542 175.447 27.5908 176.007 27.7775C176.567 27.9175 176.963 28.3142 177.197 28.9675C177.29 29.1075 177.313 29.2708 177.267 29.4575C177.267 29.6442 177.267 29.7842 177.267 29.8775C176.333 30.6242 175.61 31.4642 175.097 32.3975C174.583 33.3308 174.163 34.3108 173.837 35.3375C173.37 36.8308 173.207 37.7875 173.347 38.2075C173.487 38.6275 173.813 38.7208 174.327 38.4875C174.84 38.2075 175.47 37.6942 176.217 36.9475C176.963 36.2008 177.687 35.4075 178.387 34.5675C179.133 33.7275 179.81 32.9575 180.417 32.2575C181.023 31.5108 181.42 31.0208 181.607 30.7875L183.497 28.4775C183.823 28.1042 184.197 27.8708 184.617 27.7775C185.037 27.6375 185.433 27.6842 185.807 27.9175C186.18 28.1508 186.483 28.4542 186.717 28.8275C186.997 29.1542 187.067 29.5042 186.927 29.8775C186.133 31.7908 185.27 33.6575 184.337 35.4775C183.45 37.2975 182.633 39.0942 181.887 40.8675C181.28 42.5008 181.07 43.5275 181.257 43.9475C181.49 44.3208 181.887 44.3908 182.447 44.1575C183.007 43.8775 183.637 43.4108 184.337 42.7575C185.083 42.1042 185.667 41.5442 186.087 41.0775C186.973 40.1442 187.837 39.1642 188.677 38.1375C189.517 37.0642 190.333 36.0842 191.127 35.1975C191.64 34.6842 191.967 34.4742 192.107 34.5675C192.293 34.6142 192.457 34.6842 192.597 34.7775C192.783 34.9175 192.9 35.1042 192.947 35.3375C192.993 35.5242 192.807 35.8975 192.387 36.4575ZM206.838 36.9475C206.231 37.5075 205.391 38.2542 204.318 39.1875C203.244 40.0742 202.054 40.9142 200.748 41.7075C199.441 42.5008 198.064 43.1075 196.618 43.5275C195.218 43.9008 193.864 43.8308 192.558 43.3175C191.624 42.9442 190.901 42.2908 190.388 41.3575C189.874 40.4242 189.734 39.2108 189.968 37.7175C190.108 36.5975 189.781 35.4542 188.988 34.2875C189.548 34.3342 190.014 34.2642 190.388 34.0775C190.761 33.8908 191.064 33.6575 191.298 33.3775C191.531 33.0975 191.741 32.7942 191.928 32.4675C192.114 32.0942 192.324 31.7442 192.558 31.4175C193.118 30.6242 193.724 29.9008 194.378 29.2475C195.031 28.5475 195.801 27.9408 196.688 27.4275C198.088 26.6342 199.488 26.6808 200.888 27.5675C202.241 28.5008 202.638 29.6675 202.078 31.0675C201.518 32.6075 200.678 33.8442 199.558 34.7775C198.484 35.7108 197.201 36.4342 195.708 36.9475C195.334 37.0875 194.961 37.2042 194.588 37.2975C194.261 37.3908 193.888 37.4842 193.468 37.5775C193.048 38.6508 192.908 39.4675 193.048 40.0275C193.234 40.5408 193.561 40.9375 194.028 41.2175C194.728 41.6375 195.614 41.6842 196.688 41.3575C197.808 40.9842 198.951 40.4708 200.118 39.8175C201.284 39.1175 202.381 38.3475 203.408 37.5075C204.434 36.6675 205.228 35.9675 205.788 35.4075C206.161 35.0342 206.488 34.8475 206.768 34.8475C207.094 34.8475 207.328 34.9642 207.468 35.1975C207.608 35.3842 207.631 35.6408 207.538 35.9675C207.491 36.2942 207.258 36.6208 206.838 36.9475ZM194.448 35.2675C195.568 34.9875 196.618 34.4742 197.598 33.7275C198.578 32.9342 199.278 32.1642 199.698 31.4175C199.978 30.8575 200.118 30.4375 200.118 30.1575C200.118 29.8775 200.024 29.6908 199.838 29.5975C199.651 29.5042 199.371 29.5275 198.998 29.6675C198.671 29.8075 198.344 30.0175 198.018 30.2975C197.224 30.9508 196.501 31.7442 195.848 32.6775C195.241 33.6108 194.774 34.4742 194.448 35.2675ZM244.464 28.5475C244.278 28.4542 244.114 28.3842 243.974 28.3375C243.834 28.2908 243.694 28.2208 243.554 28.1275C243.368 28.0342 243.204 27.9175 243.064 27.7775C242.971 27.6375 242.831 27.4975 242.644 27.3575C241.991 27.6842 241.151 28.1042 240.124 28.6175C239.144 29.1308 238.234 29.7142 237.394 30.3675C236.554 31.0208 235.948 31.7208 235.574 32.4675C235.201 33.2142 235.341 33.9608 235.994 34.7075C236.554 35.3608 237.114 36.0142 237.674 36.6675C238.281 37.3208 238.911 37.9975 239.564 38.6975C239.984 38.5108 240.451 38.3008 240.964 38.0675C241.524 37.7875 242.084 37.5075 242.644 37.2275C243.158 36.9475 243.671 36.6675 244.184 36.3875C244.744 36.1075 245.304 35.8275 245.864 35.5475C246.191 35.3608 246.448 35.2208 246.634 35.1275C246.821 34.9875 246.984 34.9408 247.124 34.9875C247.264 35.0342 247.404 35.1508 247.544 35.3375C247.684 35.5242 247.918 35.8275 248.244 36.2475C246.891 37.1342 245.561 37.8808 244.254 38.4875C242.994 39.0942 241.688 39.7708 240.334 40.5175C239.961 40.7042 239.658 41.0308 239.424 41.4975C239.238 41.9642 239.074 42.3842 238.934 42.7575C238.048 45.2308 236.788 47.4008 235.154 49.2675C233.568 51.0875 231.724 52.7442 229.624 54.2375C228.271 55.1242 226.848 55.5442 225.354 55.4975C223.954 55.3575 222.998 54.7975 222.484 53.8175C221.971 52.8375 222.134 51.7875 222.974 50.6675C223.488 49.9675 224.071 49.2908 224.724 48.6375C225.331 47.9375 226.008 47.3308 226.754 46.8175C228.388 45.6042 230.021 44.5075 231.654 43.5275C233.241 42.5008 234.828 41.4508 236.414 40.3775C236.694 40.2375 236.671 39.9342 236.344 39.4675C236.018 39.0008 235.598 38.5108 235.084 37.9975C234.618 37.4375 234.128 36.9242 233.614 36.4575C233.101 35.9908 232.774 35.6408 232.634 35.4075C232.401 35.1275 232.261 34.7775 232.214 34.3575C232.168 33.8908 232.191 33.4475 232.284 33.0275C232.331 32.5608 232.448 32.1175 232.634 31.6975C232.774 31.2775 232.961 30.9275 233.194 30.6475C235.201 28.2675 237.698 26.5408 240.684 25.4675C241.524 25.1408 242.364 25.1408 243.204 25.4675C244.511 25.7942 244.931 26.8208 244.464 28.5475ZM234.454 44.6475C232.588 45.7675 230.791 46.9575 229.064 48.2175C227.338 49.4775 225.844 51.1342 224.584 53.1875C225.378 53.0475 226.241 52.7208 227.174 52.2075C228.108 51.6475 229.041 50.9942 229.974 50.2475C230.861 49.4542 231.701 48.5908 232.494 47.6575C233.288 46.6775 233.941 45.6742 234.454 44.6475ZM266.27 29.5275C265.616 30.0408 265.033 30.5075 264.52 30.9275C264.053 31.3008 263.586 31.6742 263.12 32.0475C261.3 33.4008 259.48 34.7775 257.66 36.1775C255.886 37.5308 254.113 38.8842 252.34 40.2375C251.826 40.6108 251.29 40.9375 250.73 41.2175C250.216 41.4975 249.703 41.8008 249.19 42.1275C247.93 42.7342 246.74 42.5942 245.62 41.7075C245.06 41.2408 244.733 40.7508 244.64 40.2375C244.5 39.6775 244.5 39.0708 244.64 38.4175C245.153 36.3175 245.853 34.3108 246.74 32.3975C247.673 30.4842 248.7 28.6408 249.82 26.8675C250.846 25.3742 251.896 25.3975 252.97 26.9375C253.063 27.0775 253.11 27.2175 253.11 27.3575C253.156 27.4508 253.203 27.5442 253.25 27.6375C252.97 27.8708 252.666 28.0808 252.34 28.2675C252.06 28.4075 251.873 28.5942 251.78 28.8275C251.593 29.2475 251.29 29.8775 250.87 30.7175C250.45 31.5575 250.03 32.4675 249.61 33.4475C249.19 34.3808 248.793 35.3142 248.42 36.2475C248.093 37.1342 247.906 37.8808 247.86 38.4875C247.813 39.0475 247.953 39.3742 248.28 39.4675C248.606 39.5608 249.236 39.2575 250.17 38.5575C252.596 36.6908 255.023 34.8242 257.45 32.9575C259.876 31.0908 262.303 29.2008 264.73 27.2875L266.62 25.8175C266.993 25.5375 267.343 25.4208 267.67 25.4675C268.043 25.4675 268.416 25.5842 268.79 25.8175C269.63 26.3308 269.98 26.9842 269.84 27.7775C269.746 28.0108 269.676 28.2675 269.63 28.5475C269.63 28.7808 269.583 29.0142 269.49 29.2475C268.976 30.8808 268.393 32.6075 267.74 34.4275C267.086 36.2475 266.573 37.9508 266.2 39.5375C267.553 38.9775 268.976 38.3942 270.47 37.7875C272.01 37.1808 273.386 36.4808 274.6 35.6875C275.393 35.1742 275.953 34.9175 276.28 34.9175C276.653 34.8708 276.956 35.3142 277.19 36.2475C275.463 37.4142 273.713 38.3708 271.94 39.1175C270.213 39.8642 268.533 40.6108 266.9 41.3575C266.386 41.5908 265.99 41.8708 265.71 42.1975C265.43 42.5242 265.196 42.9442 265.01 43.4575C264.403 45.0908 263.773 46.7242 263.12 48.3575C262.513 49.9908 261.86 51.6242 261.16 53.2575C260.413 54.8908 259.55 56.4075 258.57 57.8075C257.636 59.2542 256.493 60.5842 255.14 61.7975C251.126 65.2975 246.926 65.5542 242.54 62.5675C241.046 61.5408 240.16 60.3975 239.88 59.1375C239.6 57.9242 240.02 56.5708 241.14 55.0775C241.84 54.1442 242.61 53.2808 243.45 52.4875C244.29 51.6475 245.176 50.8542 246.11 50.1075C248.35 48.3342 250.706 46.7475 253.18 45.3475C255.7 43.9475 258.266 42.6408 260.88 41.4275C261.673 41.0542 262.303 40.6342 262.77 40.1675C263.236 39.6542 263.586 38.9775 263.82 38.1375C264.1 37.0175 264.403 35.9208 264.73 34.8475C265.103 33.7275 265.476 32.6308 265.85 31.5575C265.943 31.3242 266.013 31.0675 266.06 30.7875C266.106 30.4608 266.176 30.0408 266.27 29.5275ZM261.79 43.0375C260.296 43.7375 258.57 44.6475 256.61 45.7675C254.696 46.8408 252.83 48.0308 251.01 49.3375C249.19 50.6442 247.533 52.0442 246.04 53.5375C244.546 54.9842 243.473 56.4542 242.82 57.9475C242.12 59.4408 242.516 60.6775 244.01 61.6575C245.036 62.3108 246.063 62.6375 247.09 62.6375C248.163 62.6375 249.236 62.3575 250.31 61.7975C251.29 61.2842 252.176 60.6308 252.97 59.8375C253.763 59.0908 254.486 58.2742 255.14 57.3875C256.353 55.7075 257.403 53.9808 258.29 52.2075C259.223 50.3875 260.063 48.4975 260.81 46.5375C260.95 46.1642 261.09 45.6275 261.23 44.9275C261.37 44.2275 261.556 43.5975 261.79 43.0375ZM286.646 28.5475C286.459 28.4542 286.296 28.3842 286.156 28.3375C286.016 28.2908 285.876 28.2208 285.736 28.1275C285.549 28.0342 285.386 27.9175 285.246 27.7775C285.153 27.6375 285.013 27.4975 284.826 27.3575C284.173 27.6842 283.333 28.1042 282.306 28.6175C281.326 29.1308 280.416 29.7142 279.576 30.3675C278.736 31.0208 278.129 31.7208 277.756 32.4675C277.383 33.2142 277.523 33.9608 278.176 34.7075C278.736 35.3608 279.296 36.0142 279.856 36.6675C280.463 37.3208 281.093 37.9975 281.746 38.6975C282.166 38.5108 282.633 38.3008 283.146 38.0675C283.706 37.7875 284.266 37.5075 284.826 37.2275C285.339 36.9475 285.853 36.6675 286.366 36.3875C286.926 36.1075 287.486 35.8275 288.046 35.5475C288.373 35.3608 288.629 35.2208 288.816 35.1275C289.003 34.9875 289.166 34.9408 289.306 34.9875C289.446 35.0342 289.586 35.1508 289.726 35.3375C289.866 35.5242 290.099 35.8275 290.426 36.2475C289.073 37.1342 287.743 37.8808 286.436 38.4875C285.176 39.0942 283.869 39.7708 282.516 40.5175C282.143 40.7042 281.839 41.0308 281.606 41.4975C281.419 41.9642 281.256 42.3842 281.116 42.7575C280.229 45.2308 278.969 47.4008 277.336 49.2675C275.749 51.0875 273.906 52.7442 271.806 54.2375C270.453 55.1242 269.029 55.5442 267.536 55.4975C266.136 55.3575 265.179 54.7975 264.666 53.8175C264.153 52.8375 264.316 51.7875 265.156 50.6675C265.669 49.9675 266.253 49.2908 266.906 48.6375C267.513 47.9375 268.189 47.3308 268.936 46.8175C270.569 45.6042 272.203 44.5075 273.836 43.5275C275.423 42.5008 277.009 41.4508 278.596 40.3775C278.876 40.2375 278.853 39.9342 278.526 39.4675C278.199 39.0008 277.779 38.5108 277.266 37.9975C276.799 37.4375 276.309 36.9242 275.796 36.4575C275.283 35.9908 274.956 35.6408 274.816 35.4075C274.583 35.1275 274.443 34.7775 274.396 34.3575C274.349 33.8908 274.373 33.4475 274.466 33.0275C274.513 32.5608 274.629 32.1175 274.816 31.6975C274.956 31.2775 275.143 30.9275 275.376 30.6475C277.383 28.2675 279.879 26.5408 282.866 25.4675C283.706 25.1408 284.546 25.1408 285.386 25.4675C286.693 25.7942 287.113 26.8208 286.646 28.5475ZM276.636 44.6475C274.769 45.7675 272.973 46.9575 271.246 48.2175C269.519 49.4775 268.026 51.1342 266.766 53.1875C267.559 53.0475 268.423 52.7208 269.356 52.2075C270.289 51.6475 271.223 50.9942 272.156 50.2475C273.043 49.4542 273.883 48.5908 274.676 47.6575C275.469 46.6775 276.123 45.6742 276.636 44.6475ZM299.141 42.2675C296.201 45.4875 293.705 47.5642 291.651 48.4975C289.598 49.4308 288.081 49.4542 287.101 48.5675C286.075 47.6808 285.631 46.0475 285.771 43.6675C285.911 41.2408 286.705 38.3008 288.151 34.8475C289.131 32.3742 290.135 30.0875 291.161 27.9875C292.235 25.8875 293.308 23.7875 294.381 21.6875C294.615 21.3608 294.801 21.0108 294.941 20.6375C295.128 20.2642 295.361 19.7975 295.641 19.2375C294.988 19.2375 294.405 19.2608 293.891 19.3075C293.378 19.3075 292.865 19.2842 292.351 19.2375C291.791 19.2375 290.625 19.2375 288.851 19.2375C287.125 19.2375 285.281 19.2375 283.321 19.2375C281.315 19.1908 279.448 19.1675 277.721 19.1675C275.995 19.1675 274.851 19.1675 274.291 19.1675C273.778 19.1675 273.311 19.1442 272.891 19.0975C272.425 19.0042 272.005 19.2375 271.631 19.7975C271.538 19.8908 271.375 19.9608 271.141 20.0075C270.908 20.0075 270.745 19.9608 270.651 19.8675C270.138 19.5408 269.671 19.1908 269.251 18.8175C268.785 18.3975 268.505 17.7675 268.411 16.9275C268.785 16.8808 269.181 16.8342 269.601 16.7875C269.975 16.7408 270.348 16.7175 270.721 16.7175C271.421 16.7642 272.425 16.7875 273.731 16.7875C274.991 16.7875 276.415 16.8108 278.001 16.8575C279.541 16.8575 281.175 16.8808 282.901 16.9275C284.581 16.9275 286.215 16.9508 287.801 16.9975C289.341 16.9975 290.741 17.0208 292.001 17.0675C293.261 17.0675 294.265 17.0908 295.011 17.1375C295.711 17.1842 296.295 17.0908 296.761 16.8575C297.228 16.6242 297.671 16.1808 298.091 15.5275C300.098 12.4475 302.268 9.4375 304.601 6.4975C305.161 5.75083 305.628 5.42416 306.001 5.5175C306.375 5.61083 306.888 6.12416 307.541 7.0575C306.188 8.55083 304.928 10.1375 303.761 11.8175C302.641 13.4508 301.545 15.2242 300.471 17.1375L310.411 17.4875C310.738 17.4875 311.065 17.4875 311.391 17.4875C311.718 17.4875 312.045 17.5342 312.371 17.6275C312.791 17.7208 313.165 17.9075 313.491 18.1875C313.818 18.4208 314.028 18.8408 314.121 19.4475C313.888 19.4942 313.655 19.5408 313.421 19.5875C313.188 19.5875 312.955 19.5875 312.721 19.5875C310.668 19.5875 308.638 19.5875 306.631 19.5875C304.671 19.5875 302.688 19.5642 300.681 19.5175C300.121 19.5175 299.655 19.6108 299.281 19.7975C298.908 19.9375 298.581 20.2875 298.301 20.8475C296.948 23.3208 295.641 25.8408 294.381 28.4075C293.121 30.9275 291.955 33.5175 290.881 36.1775C289.715 39.2575 289.015 41.6375 288.781 43.3175C288.595 44.9508 288.805 45.9308 289.411 46.2575C290.065 46.5842 291.115 46.3042 292.561 45.4175C294.008 44.4842 295.805 43.0142 297.951 41.0075C299.771 39.2808 301.265 37.3675 302.431 35.2675C302.478 35.2208 302.571 35.0808 302.711 34.8475C302.898 34.5675 303.038 34.4508 303.131 34.4975C303.831 34.7308 304.205 35.0108 304.251 35.3375C304.298 35.6642 304.088 36.1542 303.621 36.8075C302.968 37.7408 302.291 38.6275 301.591 39.4675C300.938 40.3075 300.215 41.1242 299.421 41.9175L299.071 42.2675H299.141ZM318.207 36.9475C317.6 37.5075 316.76 38.2542 315.687 39.1875C314.613 40.0742 313.423 40.9142 312.117 41.7075C310.81 42.5008 309.433 43.1075 307.987 43.5275C306.587 43.9008 305.233 43.8308 303.927 43.3175C302.993 42.9442 302.27 42.2908 301.757 41.3575C301.243 40.4242 301.103 39.2108 301.337 37.7175C301.477 36.5975 301.15 35.4542 300.357 34.2875C300.917 34.3342 301.383 34.2642 301.757 34.0775C302.13 33.8908 302.433 33.6575 302.667 33.3775C302.9 33.0975 303.11 32.7942 303.297 32.4675C303.483 32.0942 303.693 31.7442 303.927 31.4175C304.487 30.6242 305.093 29.9008 305.747 29.2475C306.4 28.5475 307.17 27.9408 308.057 27.4275C309.457 26.6342 310.857 26.6808 312.257 27.5675C313.61 28.5008 314.007 29.6675 313.447 31.0675C312.887 32.6075 312.047 33.8442 310.927 34.7775C309.853 35.7108 308.57 36.4342 307.077 36.9475C306.703 37.0875 306.33 37.2042 305.957 37.2975C305.63 37.3908 305.257 37.4842 304.837 37.5775C304.417 38.6508 304.277 39.4675 304.417 40.0275C304.603 40.5408 304.93 40.9375 305.397 41.2175C306.097 41.6375 306.983 41.6842 308.057 41.3575C309.177 40.9842 310.32 40.4708 311.487 39.8175C312.653 39.1175 313.75 38.3475 314.777 37.5075C315.803 36.6675 316.597 35.9675 317.157 35.4075C317.53 35.0342 317.857 34.8475 318.137 34.8475C318.463 34.8475 318.697 34.9642 318.837 35.1975C318.977 35.3842 319 35.6408 318.907 35.9675C318.86 36.2942 318.627 36.6208 318.207 36.9475ZM305.817 35.2675C306.937 34.9875 307.987 34.4742 308.967 33.7275C309.947 32.9342 310.647 32.1642 311.067 31.4175C311.347 30.8575 311.487 30.4375 311.487 30.1575C311.487 29.8775 311.393 29.6908 311.207 29.5975C311.02 29.5042 310.74 29.5275 310.367 29.6675C310.04 29.8075 309.713 30.0175 309.387 30.2975C308.593 30.9508 307.87 31.7442 307.217 32.6775C306.61 33.6108 306.143 34.4742 305.817 35.2675ZM341.929 40.4475C342.629 39.8875 343.213 39.4442 343.679 39.1175C344.146 38.7442 344.589 38.3942 345.009 38.0675C345.429 37.7408 345.873 37.4142 346.339 37.0875C346.806 36.7142 347.389 36.2475 348.089 35.6875C348.743 35.1742 349.303 34.8942 349.769 34.8475C350.236 34.7542 350.633 35.1742 350.959 36.1075C349.606 37.1342 348.393 38.1375 347.319 39.1175C346.246 40.0508 345.103 41.0542 343.889 42.1275C343.096 42.7808 342.163 43.2942 341.089 43.6675C340.016 44.0408 339.013 43.9242 338.079 43.3175C337.193 42.6642 336.749 41.7775 336.749 40.6575C336.749 40.0042 336.796 39.3508 336.889 38.6975C337.029 37.9975 337.216 37.3208 337.449 36.6675C337.823 35.5942 338.219 34.5208 338.639 33.4475C339.059 32.3742 339.479 31.3008 339.899 30.2275C340.179 29.5742 340.343 29.1308 340.389 28.8975C340.483 28.6175 340.459 28.5008 340.319 28.5475C340.179 28.5475 339.969 28.6875 339.689 28.9675C339.409 29.2475 339.059 29.5975 338.639 30.0175C337.706 31.2308 336.749 32.4442 335.769 33.6575C334.789 34.8242 333.809 35.9908 332.829 37.1575C332.409 37.6708 331.943 38.1375 331.429 38.5575C330.963 38.9775 330.473 39.3742 329.959 39.7475C329.446 40.1675 328.909 40.4475 328.349 40.5875C327.789 40.6808 327.183 40.5408 326.529 40.1675C325.316 39.5608 324.709 38.5108 324.709 37.0175C324.756 36.5975 324.803 36.1775 324.849 35.7575C324.896 35.3375 324.966 34.9175 325.059 34.4975C325.059 34.3108 325.059 34.1242 325.059 33.9375C325.059 33.7508 325.083 33.4708 325.129 33.0975C323.403 34.5908 321.886 36.2475 320.579 38.0675C319.273 39.8875 317.943 41.6608 316.589 43.3875C316.076 43.9942 315.679 44.3442 315.399 44.4375C315.073 44.5308 314.653 44.4608 314.139 44.2275C313.159 43.8075 312.809 43.1075 313.089 42.1275C313.183 41.8942 313.276 41.6608 313.369 41.4275C313.416 41.1942 313.486 40.9608 313.579 40.7275C314.653 38.4875 315.749 36.2708 316.869 34.0775C317.943 31.8842 319.039 29.6675 320.159 27.4275C320.486 26.8208 320.836 26.2842 321.209 25.8175C321.769 25.1642 322.236 24.8375 322.609 24.8375C322.983 24.8375 323.496 25.2342 324.149 26.0275C323.449 27.3808 322.749 28.7108 322.049 30.0175C321.349 31.3242 320.673 32.6308 320.019 33.9375C320.953 33.0975 321.839 32.3275 322.679 31.6275C323.566 30.8808 324.406 30.1108 325.199 29.3175C325.899 28.7575 326.716 28.6875 327.649 29.1075C328.536 29.6208 328.863 30.3442 328.629 31.2775C328.536 31.8842 328.419 32.4908 328.279 33.0975C328.139 33.6575 328.023 34.2408 327.929 34.8475C327.836 35.3608 327.743 35.8975 327.649 36.4575C327.556 37.0175 327.463 37.5542 327.369 38.0675C328.349 37.6475 329.469 36.8308 330.729 35.6175C331.989 34.3575 333.249 33.0042 334.509 31.5575C335.816 30.0642 337.029 28.5942 338.149 27.1475C339.316 25.6542 340.296 24.4875 341.089 23.6475C341.323 23.4142 341.556 23.1808 341.789 22.9475C342.023 22.7142 342.279 22.5508 342.559 22.4575C343.259 22.2242 343.913 22.2708 344.519 22.5975C344.753 22.7842 344.963 23.0642 345.149 23.4375C345.383 23.7642 345.476 24.0675 345.429 24.3475C345.383 24.8142 345.289 25.2575 345.149 25.6775C345.009 26.0975 344.846 26.5408 344.659 27.0075C343.959 28.7342 343.236 30.4608 342.489 32.1875C341.789 33.8675 341.089 35.5708 340.389 37.2975C340.156 37.9042 339.946 38.5342 339.759 39.1875C339.573 39.7942 339.479 40.2842 339.479 40.6575C339.526 41.0308 339.736 41.2408 340.109 41.2875C340.483 41.3342 341.089 41.0542 341.929 40.4475Z" fill="white"/>
</svg>
