<svg width="95" height="31" viewBox="0 0 95 31" fill="none" xmlns="http://www.w3.org/2000/svg">
<path d="M2.06 30.49C1.86 30.65 1.63 30.71 1.37 30.67C1.17 30.59 1.06 30.51 1.04 30.43C1.02 30.37 1 30.23 0.98 30.01C0.98 29.79 0.97 29.48 0.95 29.08C0.93 28 0.98 26.99 1.1 26.05C1.38 23.05 1.57 21.16 1.67 20.38C1.73 19.48 1.77 18.05 1.79 16.09C1.81 14.23 1.85 13.19 1.91 12.97C2.03 12.73 2.11 12.5 2.15 12.28C2.19 12.04 2.32 11.86 2.54 11.74C2.78 11.62 2.94 11.57 3.02 11.59C3.12 11.61 3.24 11.7 3.38 11.86C3.5 12.04 3.57 12.3 3.59 12.64C3.61 12.98 3.57 13.24 3.47 13.42V13.45C3.37 13.61 3.29 14.71 3.23 16.75C3.17 18.71 3.18 19.74 3.26 19.84C3.34 19.9 3.63 19.83 4.13 19.63C4.19 19.61 4.24 19.59 4.28 19.57C4.34 19.55 4.4 19.53 4.46 19.51C4.52 19.49 4.58 19.47 4.64 19.45C4.72 19.43 4.8 19.4 4.88 19.36C5.04 19.32 5.17 19.28 5.27 19.24C5.37 19.2 5.43 19.18 5.45 19.18C5.77 19.06 6.07 18.91 6.35 18.73C6.63 18.53 6.89 18.31 7.13 18.07C7.63 17.57 7.88 17.14 7.88 16.78C7.88 16.58 7.75 16.36 7.49 16.12C7.35 15.98 7.21 15.87 7.07 15.79C6.93 15.69 6.79 15.61 6.65 15.55C6.31 15.47 6.04 15.46 5.84 15.52C5.66 15.56 5.37 15.74 4.97 16.06C4.67 16.34 4.42 16.45 4.22 16.39C4.12 16.35 4.04 16.28 3.98 16.18C3.92 16.06 3.88 15.91 3.86 15.73C3.8 15.25 4.01 14.87 4.49 14.59C4.65 14.49 4.83 14.41 5.03 14.35C5.23 14.29 5.45 14.25 5.69 14.23C5.95 14.19 6.23 14.17 6.53 14.17C6.75 14.17 6.95 14.19 7.13 14.23C7.31 14.27 7.48 14.32 7.64 14.38C7.92 14.52 8.25 14.81 8.63 15.25C9.29 15.95 9.51 16.54 9.29 17.02C9.17 17.28 9.11 17.48 9.11 17.62C9.11 17.82 8.75 18.27 8.03 18.97C7.89 19.11 7.75 19.24 7.61 19.36C7.49 19.48 7.38 19.58 7.28 19.66C7.2 19.74 7.12 19.81 7.04 19.87C6.8 20.01 6.56 20.11 6.32 20.17C6.22 20.17 6.1 20.19 5.96 20.23C5.84 20.25 5.7 20.28 5.54 20.32C5.38 20.34 5.21 20.38 5.03 20.44C4.85 20.48 4.65 20.53 4.43 20.59C4.23 20.63 4.01 20.67 3.77 20.71L3.17 20.77L3.11 21.7C3.09 21.98 3.06 22.27 3.02 22.57C2.98 22.89 2.93 23.21 2.87 23.53C2.75 24.19 2.64 25.45 2.54 27.31C2.46 28.65 2.4 29.49 2.36 29.83C2.34 29.95 2.31 30.05 2.27 30.13C2.25 30.23 2.22 30.3 2.18 30.34C2.16 30.4 2.12 30.45 2.06 30.49ZM15.9821 13.06C16.8621 13.06 17.6621 13.45 18.3821 14.23C18.4621 14.35 18.5321 14.46 18.5921 14.56C18.6721 14.64 18.7321 14.72 18.7721 14.8C18.8321 14.88 18.8721 14.95 18.8921 15.01C18.9321 15.09 18.9521 15.21 18.9521 15.37C18.9721 15.51 18.9821 15.67 18.9821 15.85C18.9821 16.49 18.8521 16.97 18.5921 17.29C18.3321 17.61 18.2021 17.87 18.2021 18.07C18.2021 18.13 18.1421 18.23 18.0221 18.37C17.9221 18.51 17.7721 18.68 17.5721 18.88C17.1521 19.3 16.8721 19.51 16.7321 19.51C16.6721 19.51 16.5621 19.56 16.4021 19.66C16.2621 19.76 16.0721 19.91 15.8321 20.11C15.3721 20.49 14.8521 20.69 14.2721 20.71C14.0721 20.71 13.8821 20.69 13.7021 20.65C13.5421 20.61 13.3821 20.56 13.2221 20.5C13.0821 20.42 12.9521 20.32 12.8321 20.2C12.7321 20.1 12.6421 20 12.5621 19.9C12.5021 19.8 12.4521 19.69 12.4121 19.57C12.3521 19.35 12.3021 18.92 12.2621 18.28L12.2321 16.78V16.72H12.1721L11.5121 16.78C10.5121 16.86 10.0121 16.7 10.0121 16.3C10.0121 16.04 10.1921 15.79 10.5521 15.55C10.7321 15.43 11.0321 15.26 11.4521 15.04C11.8721 14.82 12.4021 14.54 13.0421 14.2C14.6021 13.44 15.5821 13.06 15.9821 13.06ZM16.7321 15.01C16.4921 14.71 16.3121 14.56 16.1921 14.56C16.0721 14.54 15.8621 14.62 15.5621 14.8C15.3621 14.94 15.1821 15.12 15.0221 15.34C14.8621 15.56 14.7121 15.83 14.5721 16.15C14.3121 16.77 14.1821 17.35 14.1821 17.89C14.1821 18.03 14.1921 18.15 14.2121 18.25C14.2521 18.35 14.2921 18.44 14.3321 18.52C14.3721 18.6 14.4221 18.66 14.4821 18.7C14.5421 18.74 14.6121 18.77 14.6921 18.79C14.8921 18.81 15.1221 18.75 15.3821 18.61C15.6621 18.45 15.9221 18.23 16.1621 17.95C16.4021 17.67 16.5921 17.38 16.7321 17.08C16.8721 16.84 16.9721 16.63 17.0321 16.45C17.1121 16.25 17.1521 16.08 17.1521 15.94C17.1521 15.8 17.1121 15.66 17.0321 15.52C16.9721 15.36 16.8721 15.19 16.7321 15.01ZM21.4302 12.58C21.1702 12.68 20.9502 12.82 20.7702 13C20.6302 13.18 20.4402 13.29 20.2002 13.33C20.1002 13.35 20.0002 13.35 19.9002 13.33C19.8202 13.31 19.7602 13.26 19.7202 13.18C19.6802 13.1 19.6602 13.01 19.6602 12.91C19.6602 12.81 19.6902 12.71 19.7502 12.61C19.8302 12.39 19.9902 12.16 20.2302 11.92C20.4702 11.68 20.7602 11.48 21.1002 11.32C21.8202 10.94 22.3802 10.89 22.7802 11.17C23.0402 11.35 23.2302 11.6 23.3502 11.92C23.4702 12.24 23.5302 12.64 23.5302 13.12C23.5302 13.82 23.5902 14.19 23.7102 14.23C23.7502 14.25 23.8102 14.24 23.8902 14.2C23.9702 14.14 24.0702 14.06 24.1902 13.96C24.3102 13.84 24.4502 13.69 24.6102 13.51C25.6102 12.45 26.3602 11.92 26.8602 11.92C27.0402 11.92 27.2602 11.96 27.5202 12.04C27.8002 12.1 28.0502 12.19 28.2702 12.31C28.5102 12.43 28.6502 12.54 28.6902 12.64C28.6902 12.68 28.6902 12.73 28.6902 12.79C28.7102 12.83 28.7302 12.91 28.7502 13.03C28.7702 13.13 28.7502 13.19 28.6902 13.21C28.5702 13.31 28.3102 13.34 27.9102 13.3C27.8102 13.28 27.7202 13.27 27.6402 13.27C27.5602 13.27 27.4802 13.27 27.4002 13.27C27.3402 13.27 27.2702 13.28 27.1902 13.3C27.1302 13.3 27.0702 13.3 27.0102 13.3C26.7702 13.36 26.4102 13.5 25.9302 13.72C25.8902 13.74 25.8402 13.79 25.7802 13.87C25.7202 13.93 25.6402 14.02 25.5402 14.14C25.4602 14.24 25.3702 14.37 25.2702 14.53C25.1902 14.63 25.1102 14.75 25.0302 14.89C24.9702 15.01 24.8902 15.15 24.7902 15.31C24.7102 15.47 24.6302 15.64 24.5502 15.82C24.4702 16 24.3802 16.2 24.2802 16.42C24.1802 16.62 24.0802 16.84 23.9802 17.08C23.9202 17.22 23.8702 17.45 23.8302 17.77C23.8102 18.07 23.8002 18.45 23.8002 18.91V20.35L23.7702 20.38L23.3802 20.56C23.2802 20.62 23.1902 20.66 23.1102 20.68C23.0302 20.7 22.9702 20.7 22.9302 20.68C22.8502 20.66 22.7102 20.56 22.5102 20.38C22.2302 20.08 22.1202 19.83 22.1802 19.63C22.3602 18.99 22.4202 17.76 22.3602 15.94C22.3202 15.22 22.2802 14.61 22.2402 14.11C22.2002 13.59 22.1502 13.2 22.0902 12.94C22.0502 12.68 22.0002 12.54 21.9402 12.52C21.9402 12.5 21.9102 12.49 21.8502 12.49C21.8102 12.49 21.7402 12.5 21.6402 12.52C21.5602 12.54 21.4902 12.56 21.4302 12.58ZM35.4854 9.4C35.8054 8.94 36.0154 8.71 36.1154 8.71C36.1354 8.71 36.1654 8.72 36.2054 8.74C36.2454 8.74 36.2854 8.76 36.3254 8.8C36.3654 8.84 36.3954 8.9 36.4154 8.98C36.4754 9.06 36.5154 9.16 36.5354 9.28C36.5754 9.4 36.5954 9.53 36.5954 9.67C36.5954 9.93 36.6354 10.15 36.7154 10.33C36.8154 10.51 36.9554 10.65 37.1354 10.75C37.4954 10.93 38.2454 11.03 39.3854 11.05C39.7854 11.07 40.1554 11.09 40.4954 11.11C40.8354 11.13 41.1054 11.16 41.3054 11.2C41.5254 11.24 41.6954 11.28 41.8154 11.32C41.9554 11.34 42.0354 11.37 42.0554 11.41C42.0754 11.43 42.0854 11.47 42.0854 11.53C42.0854 11.57 42.0854 11.64 42.0854 11.74V11.77L42.0554 12.22L39.4754 12.25C38.4354 12.29 37.7254 12.33 37.3454 12.37C37.2054 12.39 37.0754 12.42 36.9554 12.46C36.8554 12.5 36.7654 12.54 36.6854 12.58C36.6054 12.62 36.5254 12.67 36.4454 12.73C36.3654 12.83 36.2754 12.97 36.1754 13.15C36.0954 13.31 36.0054 13.53 35.9054 13.81C35.6654 14.53 35.5954 15.49 35.6954 16.69C35.7554 17.29 35.8354 17.77 35.9354 18.13C36.0554 18.49 36.2154 18.73 36.4154 18.85C36.4754 18.89 36.5754 18.89 36.7154 18.85C36.8554 18.83 37.0154 18.77 37.1954 18.67C37.2954 18.63 37.3854 18.59 37.4654 18.55C37.5654 18.49 37.6654 18.43 37.7654 18.37C37.9654 18.25 38.1654 18.12 38.3654 17.98C38.5654 17.84 38.7654 17.7 38.9654 17.56C39.0454 17.48 39.1354 17.4 39.2354 17.32C39.3554 17.22 39.4754 17.11 39.5954 16.99C39.7354 16.85 39.8854 16.71 40.0454 16.57C40.2254 16.41 40.4154 16.24 40.6154 16.06C40.8154 15.86 41.0254 15.66 41.2454 15.46C42.5654 14.2 43.4154 13.43 43.7954 13.15C43.9754 13.01 44.1254 12.92 44.2454 12.88C44.3854 12.84 44.4854 12.84 44.5454 12.88C44.7054 13 44.8054 13.11 44.8454 13.21C44.8654 13.25 44.8554 13.31 44.8154 13.39C44.7954 13.47 44.7554 13.57 44.6954 13.69C44.6154 13.83 44.5154 13.97 44.3954 14.11C44.2754 14.25 44.1354 14.41 43.9754 14.59C43.6354 14.93 43.1354 15.43 42.4754 16.09C41.6554 16.89 41.0054 17.52 40.5254 17.98C40.0654 18.44 39.7654 18.72 39.6254 18.82C39.0254 19.3 38.3854 19.74 37.7054 20.14C37.0454 20.52 36.5954 20.71 36.3554 20.71C36.1154 20.71 35.8054 20.58 35.4254 20.32C35.0454 20.04 34.8254 19.81 34.7654 19.63C34.6854 19.39 34.5354 19.02 34.3154 18.52C34.0954 18 33.9854 16.9 33.9854 15.22V12.7V12.64H33.9254H32.4254C31.3454 12.64 30.5354 12.5 29.9954 12.22C29.7154 12.08 29.5354 11.93 29.4554 11.77C29.3954 11.59 29.4154 11.4 29.5154 11.2C29.5954 11.08 29.7554 11 29.9954 10.96C30.2354 10.94 30.8854 10.96 31.9454 11.02L34.1954 11.14H34.2254L34.2554 11.11L34.5854 10.63C34.8854 10.23 35.1054 9.93 35.2454 9.73C35.3854 9.53 35.4654 9.42 35.4854 9.4ZM45.6987 14.41C45.5987 14.35 45.5387 14.29 45.5187 14.23C45.5187 14.21 45.5187 14.18 45.5187 14.14C45.5387 14.1 45.5487 14.05 45.5487 13.99C45.5687 13.93 45.5887 13.86 45.6087 13.78C45.7687 13.34 46.0287 12.97 46.3887 12.67C46.7487 12.39 47.2087 12.19 47.7687 12.07C48.0087 12.01 48.2387 11.9 48.4587 11.74C48.5987 11.62 48.6787 11.45 48.6987 11.23C48.7387 11.01 48.7887 10.54 48.8487 9.82C48.9087 7.9 49.0487 5.9 49.2687 3.82C49.3487 3.26 49.4787 2.8 49.6587 2.44C49.8587 2.08 50.1087 1.83 50.4087 1.69C50.7087 1.55 50.9587 1.52 51.1587 1.6C51.3187 1.68 51.5187 1.72 51.7587 1.72C51.9987 1.72 52.3487 1.85 52.8087 2.11C53.2887 2.37 53.6887 2.64 54.0087 2.92H54.0387C54.2987 3.18 54.4387 3.36 54.4587 3.46C54.4987 3.58 54.4287 3.75 54.2487 3.97C54.2087 4.01 54.1687 4.04 54.1287 4.06C54.0887 4.08 54.0487 4.1 54.0087 4.12C53.9687 4.12 53.9287 4.12 53.8887 4.12C53.7687 4.1 53.4687 3.97 52.9887 3.73C51.9087 3.17 51.2587 3.06 51.0387 3.4C50.9987 3.46 50.9487 3.71 50.8887 4.15C50.8087 4.61 50.7287 5.23 50.6487 6.01C50.4687 7.63 50.3787 8.79 50.3787 9.49C50.3987 10.17 50.4587 10.62 50.5587 10.84C50.6187 10.94 50.6987 11.01 50.7987 11.05C50.8987 11.09 51.0387 11.1 51.2187 11.08C51.4387 11.04 51.6487 11.01 51.8487 10.99C52.0687 10.95 52.2687 10.91 52.4487 10.87C52.6287 10.83 52.7887 10.8 52.9287 10.78C53.0887 10.74 53.2287 10.71 53.3487 10.69C53.4687 10.67 53.5687 10.65 53.6487 10.63C53.7487 10.59 53.8287 10.56 53.8887 10.54C54.4087 10.32 55.7787 10.35 57.9987 10.63C58.4187 10.69 58.7287 10.76 58.9287 10.84C59.1287 10.94 59.2187 11.06 59.1987 11.2L59.1087 11.41C58.9687 11.57 58.4887 11.61 57.6687 11.53C56.8487 11.49 56.1687 11.52 55.6287 11.62C55.1287 11.72 54.4987 11.82 53.7387 11.92C53.3787 11.94 53.0187 11.99 52.6587 12.07C52.2987 12.13 51.9387 12.21 51.5787 12.31C50.8787 12.49 50.4487 12.65 50.2887 12.79C50.2287 12.93 50.1987 14.12 50.1987 16.36C50.1987 16.86 50.1887 17.33 50.1687 17.77C50.1487 18.19 50.1387 18.58 50.1387 18.94C50.1187 19.64 50.0987 20.02 50.0787 20.08V20.11C50.0387 20.15 49.9687 20.21 49.8687 20.29C49.7887 20.35 49.6787 20.42 49.5387 20.5C49.2787 20.64 49.0887 20.7 48.9687 20.68H48.7587C48.6587 20.66 48.5987 20.65 48.5787 20.65C48.3987 20.65 48.3087 20.56 48.3087 20.38C48.3087 20.18 48.3887 20.01 48.5487 19.87C48.6287 19.79 48.6787 19.57 48.6987 19.21C48.7187 18.81 48.7187 17.94 48.6987 16.6V16.18C48.6787 14.54 48.5887 13.63 48.4287 13.45C48.2687 13.27 47.6987 13.47 46.7187 14.05C46.6987 14.07 46.6787 14.09 46.6587 14.11C46.6587 14.11 46.6487 14.11 46.6287 14.11C46.6287 14.11 46.6187 14.12 46.5987 14.14C46.5787 14.14 46.5587 14.15 46.5387 14.17C46.5387 14.17 46.5287 14.18 46.5087 14.2C46.4887 14.2 46.4687 14.2 46.4487 14.2C46.0887 14.42 45.8387 14.49 45.6987 14.41ZM65.8536 13.06C66.7336 13.06 67.5336 13.45 68.2536 14.23C68.3336 14.35 68.4036 14.46 68.4636 14.56C68.5436 14.64 68.6036 14.72 68.6436 14.8C68.7036 14.88 68.7436 14.95 68.7636 15.01C68.8036 15.09 68.8236 15.21 68.8236 15.37C68.8436 15.51 68.8536 15.67 68.8536 15.85C68.8536 16.49 68.7236 16.97 68.4636 17.29C68.2036 17.61 68.0736 17.87 68.0736 18.07C68.0736 18.13 68.0136 18.23 67.8936 18.37C67.7936 18.51 67.6436 18.68 67.4436 18.88C67.0236 19.3 66.7436 19.51 66.6036 19.51C66.5436 19.51 66.4336 19.56 66.2736 19.66C66.1336 19.76 65.9436 19.91 65.7036 20.11C65.2436 20.49 64.7236 20.69 64.1436 20.71C63.9436 20.71 63.7536 20.69 63.5736 20.65C63.4136 20.61 63.2536 20.56 63.0936 20.5C62.9536 20.42 62.8236 20.32 62.7036 20.2C62.6036 20.1 62.5136 20 62.4336 19.9C62.3736 19.8 62.3236 19.69 62.2836 19.57C62.2236 19.35 62.1736 18.92 62.1336 18.28L62.1036 16.78V16.72H62.0436L61.3836 16.78C60.3836 16.86 59.8836 16.7 59.8836 16.3C59.8836 16.04 60.0636 15.79 60.4236 15.55C60.6036 15.43 60.9036 15.26 61.3236 15.04C61.7436 14.82 62.2736 14.54 62.9136 14.2C64.4736 13.44 65.4536 13.06 65.8536 13.06ZM66.6036 15.01C66.3636 14.71 66.1836 14.56 66.0636 14.56C65.9436 14.54 65.7336 14.62 65.4336 14.8C65.2336 14.94 65.0536 15.12 64.8936 15.34C64.7336 15.56 64.5836 15.83 64.4436 16.15C64.1836 16.77 64.0536 17.35 64.0536 17.89C64.0536 18.03 64.0636 18.15 64.0836 18.25C64.1236 18.35 64.1636 18.44 64.2036 18.52C64.2436 18.6 64.2936 18.66 64.3536 18.7C64.4136 18.74 64.4836 18.77 64.5636 18.79C64.7636 18.81 64.9936 18.75 65.2536 18.61C65.5336 18.45 65.7936 18.23 66.0336 17.95C66.2736 17.67 66.4636 17.38 66.6036 17.08C66.7436 16.84 66.8436 16.63 66.9036 16.45C66.9836 16.25 67.0236 16.08 67.0236 15.94C67.0236 15.8 66.9836 15.66 66.9036 15.52C66.8436 15.36 66.7436 15.19 66.6036 15.01ZM72.5016 2.98C72.5616 3.66 72.5816 5.73 72.5616 9.19C72.5616 10.07 72.5516 10.87 72.5316 11.59C72.5316 12.31 72.5216 12.95 72.5016 13.51C72.5016 14.05 72.4916 14.52 72.4716 14.92C72.4516 15.3 72.4316 15.6 72.4116 15.82C72.3916 16.04 72.3716 16.18 72.3516 16.24C72.2716 16.46 72.2316 16.95 72.2316 17.71C72.2316 18.45 72.1216 18.96 71.9016 19.24C71.5616 19.66 71.2416 19.7 70.9416 19.36C70.7816 19.22 70.7016 18.55 70.7016 17.35C70.7016 16.11 70.7616 15.38 70.8816 15.16C70.9016 15.1 70.9216 14.93 70.9416 14.65C70.9616 14.37 70.9816 13.98 71.0016 13.48C71.0216 12.96 71.0316 12.33 71.0316 11.59C71.0516 10.83 71.0616 9.97 71.0616 9.01C71.0616 7.07 71.0416 5.57 71.0016 4.51C70.9816 3.45 70.9416 2.84 70.8816 2.68C70.6216 2.06 70.6416 1.61 70.9416 1.33C71.1816 1.07 71.4516 1.05 71.7516 1.27L71.8716 1.42C72.2316 1.88 72.4416 2.4 72.5016 2.98ZM71.9016 1.39L71.6316 1.15L71.7516 1.27L71.9016 1.39ZM78.4759 1.63C78.5759 1.39 78.7359 1.24 78.9559 1.18C79.0759 1.14 79.2259 1.13 79.4059 1.15C79.5659 1.19 79.7459 1.25 79.9459 1.33C80.1459 1.41 80.3159 1.5 80.4559 1.6C80.4959 1.64 80.5359 1.69 80.5759 1.75C80.6159 1.79 80.6359 1.85 80.6359 1.93C80.6559 1.99 80.6659 2.05 80.6659 2.11C80.6459 2.33 80.5859 2.51 80.4859 2.65C80.3459 2.77 80.0859 2.83 79.7059 2.83C79.5059 2.83 79.3159 2.8 79.1359 2.74C78.9759 2.66 78.8359 2.54 78.7159 2.38C78.5359 2.22 78.4259 2.09 78.3859 1.99C78.3459 1.89 78.3759 1.77 78.4759 1.63ZM77.3359 16C77.3359 15.9 77.3459 15.79 77.3659 15.67C77.3859 15.55 77.4159 15.42 77.4559 15.28C77.4759 15.2 77.5459 14.99 77.6659 14.65C77.6859 14.53 77.7059 14.42 77.7259 14.32C77.7659 14.22 77.7959 14.14 77.8159 14.08C77.8359 14 77.8559 13.93 77.8759 13.87C78.0759 13.21 78.2359 12.75 78.3559 12.49H78.3859C78.4459 12.37 78.4959 12.18 78.5359 11.92C78.5959 11.64 78.6459 11.31 78.6859 10.93C78.7459 10.17 78.7359 9.75 78.6559 9.67C78.5959 9.65 78.5159 9.65 78.4159 9.67C78.3359 9.69 78.2159 9.74 78.0559 9.82C77.9159 9.9 77.7459 10.02 77.5459 10.18C76.9859 10.62 76.5559 11.08 76.2559 11.56C75.9959 11.96 75.7259 12.09 75.4459 11.95C75.3659 11.91 75.2959 11.85 75.2359 11.77C75.1759 11.67 75.1259 11.56 75.0859 11.44C75.0659 11.32 75.0559 11.18 75.0559 11.02C75.0559 10.62 75.1859 10.26 75.4459 9.94C75.9059 9.4 76.7059 8.84 77.8459 8.26C78.1859 8.08 78.5759 7.98 79.0159 7.96C79.4759 7.96 79.7959 8.04 79.9759 8.2C80.1559 8.36 80.2459 8.88 80.2459 9.76C80.2459 9.98 80.2359 10.19 80.2159 10.39C80.2159 10.57 80.2059 10.74 80.1859 10.9C80.1859 11.06 80.1659 11.21 80.1259 11.35C80.1059 11.47 80.0759 11.58 80.0359 11.68C79.9559 11.96 79.8459 12.34 79.7059 12.82C79.5659 13.3 79.3959 13.88 79.1959 14.56C79.1359 14.9 79.0459 15.22 78.9259 15.52C78.8659 15.68 78.8159 15.84 78.7759 16C78.7359 16.14 78.6959 16.28 78.6559 16.42C78.6559 16.52 78.6259 16.72 78.5659 17.02C78.5059 17.32 78.4559 17.54 78.4159 17.68C78.3759 17.9 78.3459 18.09 78.3259 18.25C78.3259 18.39 78.3459 18.47 78.3859 18.49C78.4859 18.59 78.7159 18.46 79.0759 18.1C79.1159 18.06 79.1459 18.02 79.1659 17.98C79.2059 17.94 79.2459 17.9 79.2859 17.86C79.3259 17.82 79.3659 17.78 79.4059 17.74C81.5059 15.4 82.5559 14.13 82.5559 13.93C82.5559 13.73 82.8859 13.18 83.5459 12.28C83.7259 12.08 83.9159 11.96 84.1159 11.92C84.2159 11.9 84.3059 11.91 84.3859 11.95C84.4659 11.97 84.5259 12.03 84.5659 12.13C84.6059 12.27 84.5459 12.6 84.3859 13.12C84.3059 13.36 84.2259 13.56 84.1459 13.72C84.0859 13.88 84.0159 14 83.9359 14.08L83.7859 14.47C83.7859 14.65 83.6859 14.84 83.4859 15.04C83.3659 15.12 83.2659 15.22 83.1859 15.34C83.1059 15.44 83.0359 15.56 82.9759 15.7C82.8159 16.04 82.0359 16.91 80.6359 18.31C79.2359 19.69 78.4059 20.44 78.1459 20.56C77.9059 20.66 77.6859 20.71 77.4859 20.71C77.3059 20.69 77.1459 20.61 77.0059 20.47C76.8859 20.33 76.7859 20.15 76.7059 19.93C76.6459 19.71 76.6159 19.44 76.6159 19.12C76.6159 18.36 76.7859 17.58 77.1259 16.78C77.2659 16.48 77.3359 16.22 77.3359 16ZM91.5165 13.06C92.3965 13.06 93.1965 13.45 93.9165 14.23C93.9965 14.35 94.0665 14.46 94.1265 14.56C94.2065 14.64 94.2665 14.72 94.3065 14.8C94.3665 14.88 94.4065 14.95 94.4265 15.01C94.4665 15.09 94.4865 15.21 94.4865 15.37C94.5065 15.51 94.5165 15.67 94.5165 15.85C94.5165 16.49 94.3865 16.97 94.1265 17.29C93.8665 17.61 93.7365 17.87 93.7365 18.07C93.7365 18.13 93.6765 18.23 93.5565 18.37C93.4565 18.51 93.3065 18.68 93.1065 18.88C92.6865 19.3 92.4065 19.51 92.2665 19.51C92.2065 19.51 92.0965 19.56 91.9365 19.66C91.7965 19.76 91.6065 19.91 91.3665 20.11C90.9065 20.49 90.3865 20.69 89.8065 20.71C89.6065 20.71 89.4165 20.69 89.2365 20.65C89.0765 20.61 88.9165 20.56 88.7565 20.5C88.6165 20.42 88.4865 20.32 88.3665 20.2C88.2665 20.1 88.1765 20 88.0965 19.9C88.0365 19.8 87.9865 19.69 87.9465 19.57C87.8865 19.35 87.8365 18.92 87.7965 18.28L87.7665 16.78V16.72H87.7065L87.0465 16.78C86.0465 16.86 85.5465 16.7 85.5465 16.3C85.5465 16.04 85.7265 15.79 86.0865 15.55C86.2665 15.43 86.5665 15.26 86.9865 15.04C87.4065 14.82 87.9365 14.54 88.5765 14.2C90.1365 13.44 91.1165 13.06 91.5165 13.06ZM92.2665 15.01C92.0265 14.71 91.8465 14.56 91.7265 14.56C91.6065 14.54 91.3965 14.62 91.0965 14.8C90.8965 14.94 90.7165 15.12 90.5565 15.34C90.3965 15.56 90.2465 15.83 90.1065 16.15C89.8465 16.77 89.7165 17.35 89.7165 17.89C89.7165 18.03 89.7265 18.15 89.7465 18.25C89.7865 18.35 89.8265 18.44 89.8665 18.52C89.9065 18.6 89.9565 18.66 90.0165 18.7C90.0765 18.74 90.1465 18.77 90.2265 18.79C90.4265 18.81 90.6565 18.75 90.9165 18.61C91.1965 18.45 91.4565 18.23 91.6965 17.95C91.9365 17.67 92.1265 17.38 92.2665 17.08C92.4065 16.84 92.5065 16.63 92.5665 16.45C92.6465 16.25 92.6865 16.08 92.6865 15.94C92.6865 15.8 92.6465 15.66 92.5665 15.52C92.5065 15.36 92.4065 15.19 92.2665 15.01Z" fill="black"/>
</svg>
