<svg id="Layer_1" data-name="Layer 1" xmlns="http://www.w3.org/2000/svg" viewBox="0 0 555 200"><defs><style>.cls-1{isolation:isolate;}.cls-2{fill:#e00;}</style></defs><title>Brand_Standards-Red_Hat-Stacked_logos-RGB</title><g id="Group_97" data-name="Group 97"><g id="Enterprise_Linux" data-name="Enterprise Linux" class="cls-1"><g class="cls-1"><path d="M228.32,94.56h17v3H231.79v6.93h8.91v3h-8.91v7.13h13.7v3H228.32Z"/><path d="M248.65,100.86H252v1.69a6.93,6.93,0,0,1,5.05-2,6.28,6.28,0,0,1,6.57,6.57v10.56h-3.3v-10a3.91,3.91,0,0,0-4.16-4.25,4.75,4.75,0,0,0-4.16,2.17v12.08h-3.3Z"/><path d="M268.88,103.64h-3.56v-2.78h3.56V96.57l3.27-.79v5.08h5v2.78h-5v9.1c0,1.72.69,2.35,2.47,2.35a6.39,6.39,0,0,0,2.41-.4v2.77a10.79,10.79,0,0,1-3.13.5c-3.27,0-5-1.55-5-4.46Z"/><path d="M287.23,118a8.65,8.65,0,0,1-8.81-8.71,8.44,8.44,0,0,1,8.41-8.65c4.62,0,8.12,3.83,8.12,8.78v1H281.68a5.68,5.68,0,0,0,5.68,4.81,6.57,6.57,0,0,0,4.26-1.48l2.11,2.08A10,10,0,0,1,287.23,118Zm-5.51-10.1h10a5,5,0,0,0-10,0Z"/><path d="M298.09,100.86h3.29V103A5.28,5.28,0,0,1,306,100.5a4.36,4.36,0,0,1,1.68.26v3a5.49,5.49,0,0,0-1.95-.37,4.59,4.59,0,0,0-4.36,3.07v11.22h-3.29Z"/><path d="M310.33,100.86h3.26v1.62a7.68,7.68,0,0,1,5.15-1.88,8.67,8.67,0,1,1-5.11,15.68v8.21h-3.3Zm3.3,4.62v7.6a6.21,6.21,0,0,0,4.68,2,5.8,5.8,0,0,0,0-11.59A6,6,0,0,0,313.63,105.48Z"/><path d="M330.36,100.86h3.3V103a5.25,5.25,0,0,1,4.62-2.51,4.3,4.3,0,0,1,1.68.26v3a5.39,5.39,0,0,0-1.94-.37,4.59,4.59,0,0,0-4.36,3.07v11.22h-3.3Z"/><path d="M342.24,96.11a2,2,0,0,1,2-2,2.05,2.05,0,1,1,0,4.1A2,2,0,0,1,342.24,96.11Zm3.66,21.55h-3.3v-16.8h3.3Z"/><path d="M350,113.31a8.84,8.84,0,0,0,5.48,2.11c2.38,0,4-1,4-2.51,0-1.19-.86-1.88-2.71-2.15l-3-.42c-3.33-.5-5-2-5-4.66,0-3,2.64-5.08,6.57-5.08a11.52,11.52,0,0,1,6.76,2.14l-1.68,2.18a9.35,9.35,0,0,0-5.31-1.75c-2,0-3.37.93-3.37,2.28s.79,1.82,2.77,2.11l3,.43c3.33.5,5.08,2.08,5.08,4.69,0,3-3,5.28-7,5.28a11.08,11.08,0,0,1-7.36-2.48Z"/><path d="M373.36,118a8.65,8.65,0,0,1-8.82-8.71A8.45,8.45,0,0,1,373,100.6c4.62,0,8.12,3.83,8.12,8.78v1H367.81a5.67,5.67,0,0,0,5.68,4.81,6.57,6.57,0,0,0,4.26-1.48l2.11,2.08A10,10,0,0,1,373.36,118Zm-5.51-10.1h10a5,5,0,0,0-10,0Z"/></g><g class="cls-1"><path d="M228.32,129.56h3.47v20h13.3v3.07H228.32Z"/><path d="M247.83,131.11a2,2,0,0,1,2-2.05,2,2,0,0,1,0,4.1A2,2,0,0,1,247.83,131.11Zm3.66,21.55h-3.3v-16.8h3.3Z"/><path d="M255.38,135.86h3.3v1.69a6.93,6.93,0,0,1,5.05-2,6.28,6.28,0,0,1,6.57,6.57v10.56H267v-10a3.91,3.91,0,0,0-4.16-4.25,4.75,4.75,0,0,0-4.16,2.17v12.08h-3.3Z"/><path d="M277.16,145.83a3.94,3.94,0,0,0,4.16,4.29,4.73,4.73,0,0,0,4.13-2.21v-12h3.3v16.8h-3.3V151a6.87,6.87,0,0,1-5.05,2,6.27,6.27,0,0,1-6.54-6.6V135.86h3.3Z"/><path d="M297.29,144.05,291,135.86h3.86l4.33,5.78,4.32-5.78h3.73L301.05,144l6.64,8.64h-3.9l-4.62-6.2-4.68,6.2h-3.73Z"/></g></g><g id="Group_98" data-name="Group 98"><g id="Group_97-2" data-name="Group 97-2"><g id="Path_450" data-name="Path 450"><path class="cls-2" d="M195.65,74.28c4.11,0,10.06-.85,10.06-5.74a4.72,4.72,0,0,0-.1-1.12l-2.45-10.64c-.57-2.34-1.06-3.4-5.17-5.45C194.8,49.7,187.86,47,185.8,47s-2.48,2.48-4.75,2.48-3.82-1.85-5.88-1.85-3.25,1.35-4.25,4.11c0,0-2.76,7.8-3.12,8.93a2.29,2.29,0,0,0-.07.64c0,3,11.93,13,27.91,13m10.7-3.75a15.68,15.68,0,0,1,.57,3.33c0,4.6-5.17,7.15-12,7.15-15.38,0-28.84-9-28.84-14.94a6,6,0,0,1,.5-2.41c-5.53.28-12.68,1.27-12.68,7.58,0,10.34,24.51,23.1,43.92,23.1,14.88,0,18.64-6.73,18.64-12,0-4.18-3.62-8.92-10.13-11.76"/></g><g id="Path_451" data-name="Path 451"><path d="M206.35,70.53a16.21,16.21,0,0,1,.56,3.33c0,4.6-5.17,7.15-12,7.15-15.38,0-28.84-9-28.84-15a6.3,6.3,0,0,1,.5-2.41l1.2-3a2.29,2.29,0,0,0-.07.64c0,3,11.93,13,27.92,13,4.11,0,10.06-.85,10.06-5.74a4.72,4.72,0,0,0-.1-1.12Z"/></g></g><g id="Path_452" data-name="Path 452"><path d="M344.28,77.34c0,3.91,2.35,5.81,6.64,5.81a17.08,17.08,0,0,0,3.9-.56V78.06a7.94,7.94,0,0,1-2.52.38c-1.76,0-2.42-.55-2.42-2.21V69.29H355V64.62h-5.12V58.71l-5.6,1.21v4.7h-3.7v4.67h3.7Zm-17.4.1c0-1.21,1.21-1.8,3-1.8a14.24,14.24,0,0,1,3.32.42v2.35a7.08,7.08,0,0,1-3.49.86c-1.8,0-2.87-.69-2.87-1.83m1.71,5.77a8.55,8.55,0,0,0,5.05-1.42V82.9h5.53V71.19c0-4.46-3-6.91-8-6.91a20.38,20.38,0,0,0-8.54,2l2,4.11a14.77,14.77,0,0,1,5.53-1.45c2.32,0,3.49.9,3.49,2.73v.9a16.11,16.11,0,0,0-4.15-.52c-4.7,0-7.53,2-7.53,5.5,0,3.21,2.56,5.67,6.63,5.67m-30.38-.31h5.95V73.44h10v9.47h5.95V58.71H314.1V68h-10v-9.3H298.2Zm-22.65-9.16a4.64,4.64,0,0,1,4.63-4.64h.17a5.66,5.66,0,0,1,3.87,1.41v6.4a5.38,5.38,0,0,1-3.87,1.45,4.66,4.66,0,0,1-4.8-4.5v-.13m8.74,9.16h5.53V57.51l-5.6,1.21v6.87a9.42,9.42,0,1,0-4.83,17.56,8.22,8.22,0,0,0,4.9-1.59Zm-25.36-14a4.05,4.05,0,0,1,3.84,2.9h-7.64a3.82,3.82,0,0,1,3.8-2.9m-9.43,4.91c0,5.32,4.35,9.47,9.95,9.47a11,11,0,0,0,7.64-2.76l-3.7-3.29a5,5,0,0,1-3.67,1.39,4.74,4.74,0,0,1-4.49-2.9h13V74.3c0-5.81-3.9-10-9.23-10a9.39,9.39,0,0,0-9.53,9.24,1.85,1.85,0,0,0,0,.23m-9.64-10a2.75,2.75,0,0,1,.66,5.46,2.43,2.43,0,0,1-.66,0H234V63.79ZM228,82.91H234V74.09h4.52l4.57,8.82h6.63l-5.32-9.68a7.32,7.32,0,0,0,4.56-6.81c0-4.36-3.42-7.71-8.54-7.71H228Z"/></g></g></g></svg>