<svg width="96" height="28" viewBox="0 0 96 28" fill="none" xmlns="http://www.w3.org/2000/svg">
<path d="M1.67 9.2975C1.99 9.1375 2.26 9.0375 2.48 8.9975C2.72 8.9575 3.13 8.9575 3.71 8.9975C4.93 9.0375 5.83 9.1675 6.41 9.3875C6.55 9.4275 6.68 9.4875 6.8 9.5675C6.92 9.6275 7.02 9.6975 7.1 9.7775C7.2 9.8575 7.28 9.9475 7.34 10.0475C7.4 10.1475 7.45 10.2575 7.49 10.3775C7.55 10.4975 7.57 10.6175 7.55 10.7375C7.53 10.8375 7.47 10.9375 7.37 11.0375C7.25 11.1375 7.16 11.1975 7.1 11.2175C7.06 11.2175 6.95 11.1575 6.77 11.0375C6.53 10.8775 6.21 10.7675 5.81 10.7075C5.59 10.6875 5.24 10.6375 4.76 10.5575C4.44 10.4575 4.3 10.4775 4.34 10.6175C4.34 10.8375 4.62 11.0975 5.18 11.3975C5.74 11.7375 6.28 12.1975 6.8 12.7775C7.88 13.9175 8.4 14.8175 8.36 15.4775C8.34 15.7975 8.18 16.1175 7.88 16.4375C7.6 16.7375 7.17 17.0375 6.59 17.3375C5.69 17.3975 4.66 17.3975 3.5 17.3375C2.32 16.8375 1.56 16.2175 1.22 15.4775C1 15.0375 0.96 14.7375 1.1 14.5775C1.24 14.3975 1.36 14.3375 1.46 14.3975C1.58 14.4375 1.83 14.6475 2.21 15.0275C2.95 15.8075 3.98 16.1975 5.3 16.1975C5.38 16.1975 5.45 16.1975 5.51 16.1975C5.59 16.1975 5.66 16.1975 5.72 16.1975C5.78 16.1975 5.83 16.1975 5.87 16.1975C5.93 16.1775 5.98 16.1675 6.02 16.1675C6.18 16.1475 6.3 16.1175 6.38 16.0775C6.48 16.0175 6.6 15.9275 6.74 15.8075C6.84 15.7275 6.91 15.6575 6.95 15.5975C7.01 15.5175 7.05 15.4575 7.07 15.4175C7.11 15.3775 7.13 15.3375 7.13 15.2975C7.13 15.2375 7.08 15.1275 6.98 14.9675C6.88 14.7875 6.73 14.5675 6.53 14.3075C6.33 14.0275 6.15 13.8075 5.99 13.6475C5.85 13.4675 5.73 13.3475 5.63 13.2875C5.59 13.2275 5.45 13.1175 5.21 12.9575C5.15 12.9175 5.09 12.8775 5.03 12.8375C4.99 12.7975 4.95 12.7675 4.91 12.7475C4.87 12.7075 4.83 12.6775 4.79 12.6575C4.75 12.6175 4.72 12.5875 4.7 12.5675C4.5 12.4275 4.31 12.3175 4.13 12.2375C3.97 12.1375 3.82 12.0675 3.68 12.0275C3.54 12.0075 3.42 11.9775 3.32 11.9375C3.22 11.8775 3.14 11.8175 3.08 11.7575C3.04 11.6975 2.98 11.6475 2.9 11.6075C2.84 11.5675 2.76 11.5475 2.66 11.5475C2.48 11.5075 2.27 11.4075 2.03 11.2475C1.77 11.0875 1.53 10.8875 1.31 10.6475C1.11 10.4075 0.99 10.2375 0.95 10.1375C0.93 9.9375 0.96 9.7875 1.04 9.6875C1.08 9.6475 1.15 9.5975 1.25 9.5375C1.37 9.4575 1.51 9.3775 1.67 9.2975ZM15.1053 6.0875C15.4253 5.6275 15.6353 5.3975 15.7353 5.3975C15.7553 5.3975 15.7853 5.4075 15.8253 5.4275C15.8653 5.4275 15.9053 5.4475 15.9453 5.4875C15.9853 5.5275 16.0153 5.5875 16.0353 5.6675C16.0953 5.7475 16.1353 5.8475 16.1553 5.9675C16.1953 6.0875 16.2153 6.2175 16.2153 6.3575C16.2153 6.6175 16.2553 6.8375 16.3353 7.0175C16.4353 7.1975 16.5753 7.3375 16.7553 7.4375C17.1153 7.6175 17.8653 7.7175 19.0053 7.7375C19.4053 7.7575 19.7753 7.7775 20.1153 7.7975C20.4553 7.8175 20.7253 7.8475 20.9253 7.8875C21.1453 7.9275 21.3153 7.9675 21.4353 8.0075C21.5753 8.0275 21.6553 8.0575 21.6753 8.0975C21.6953 8.1175 21.7053 8.1575 21.7053 8.2175C21.7053 8.2575 21.7053 8.3275 21.7053 8.4275V8.4575L21.6753 8.9075L19.0953 8.9375C18.0553 8.9775 17.3453 9.0175 16.9653 9.0575C16.8253 9.0775 16.6953 9.1075 16.5753 9.1475C16.4753 9.1875 16.3853 9.2275 16.3053 9.2675C16.2253 9.3075 16.1453 9.3575 16.0653 9.4175C15.9853 9.5175 15.8953 9.6575 15.7953 9.8375C15.7153 9.9975 15.6253 10.2175 15.5253 10.4975C15.2853 11.2175 15.2153 12.1775 15.3153 13.3775C15.3753 13.9775 15.4553 14.4575 15.5553 14.8175C15.6753 15.1775 15.8353 15.4175 16.0353 15.5375C16.0953 15.5775 16.1953 15.5775 16.3353 15.5375C16.4753 15.5175 16.6353 15.4575 16.8153 15.3575C16.9153 15.3175 17.0053 15.2775 17.0853 15.2375C17.1853 15.1775 17.2853 15.1175 17.3853 15.0575C17.5853 14.9375 17.7853 14.8075 17.9853 14.6675C18.1853 14.5275 18.3853 14.3875 18.5853 14.2475C18.6653 14.1675 18.7553 14.0875 18.8553 14.0075C18.9753 13.9075 19.0953 13.7975 19.2153 13.6775C19.3553 13.5375 19.5053 13.3975 19.6653 13.2575C19.8453 13.0975 20.0353 12.9275 20.2353 12.7475C20.4353 12.5475 20.6453 12.3475 20.8653 12.1475C22.1853 10.8875 23.0353 10.1175 23.4153 9.8375C23.5953 9.6975 23.7453 9.6075 23.8653 9.5675C24.0053 9.5275 24.1053 9.5275 24.1653 9.5675C24.3253 9.6875 24.4253 9.7975 24.4653 9.8975C24.4853 9.9375 24.4753 9.9975 24.4353 10.0775C24.4153 10.1575 24.3753 10.2575 24.3153 10.3775C24.2353 10.5175 24.1353 10.6575 24.0153 10.7975C23.8953 10.9375 23.7553 11.0975 23.5953 11.2775C23.2553 11.6175 22.7553 12.1175 22.0953 12.7775C21.2753 13.5775 20.6253 14.2075 20.1453 14.6675C19.6853 15.1275 19.3853 15.4075 19.2453 15.5075C18.6453 15.9875 18.0053 16.4275 17.3253 16.8275C16.6653 17.2075 16.2153 17.3975 15.9753 17.3975C15.7353 17.3975 15.4253 17.2675 15.0453 17.0075C14.6653 16.7275 14.4453 16.4975 14.3853 16.3175C14.3053 16.0775 14.1553 15.7075 13.9353 15.2075C13.7153 14.6875 13.6053 13.5875 13.6053 11.9075V9.3875V9.3275H13.5453H12.0453C10.9653 9.3275 10.1553 9.1875 9.61531 8.9075C9.33531 8.7675 9.15531 8.6175 9.07531 8.4575C9.01531 8.2775 9.03531 8.0875 9.13531 7.8875C9.21531 7.7675 9.37531 7.6875 9.61531 7.6475C9.85531 7.6275 10.5053 7.6475 11.5653 7.7075L13.8153 7.8275H13.8453L13.8753 7.7975L14.2053 7.3175C14.5053 6.9175 14.7253 6.6175 14.8653 6.4175C15.0053 6.2175 15.0853 6.1075 15.1053 6.0875ZM26.9087 9.2675C26.6487 9.3675 26.4287 9.5075 26.2487 9.6875C26.1087 9.8675 25.9187 9.9775 25.6787 10.0175C25.5787 10.0375 25.4787 10.0375 25.3787 10.0175C25.2987 9.9975 25.2387 9.9475 25.1987 9.8675C25.1587 9.7875 25.1387 9.6975 25.1387 9.5975C25.1387 9.4975 25.1687 9.3975 25.2287 9.2975C25.3087 9.0775 25.4687 8.8475 25.7087 8.6075C25.9487 8.3675 26.2387 8.1675 26.5787 8.0075C27.2987 7.6275 27.8587 7.5775 28.2587 7.8575C28.5187 8.0375 28.7087 8.2875 28.8287 8.6075C28.9487 8.9275 29.0087 9.3275 29.0087 9.8075C29.0087 10.5075 29.0687 10.8775 29.1887 10.9175C29.2287 10.9375 29.2887 10.9275 29.3687 10.8875C29.4487 10.8275 29.5487 10.7475 29.6687 10.6475C29.7887 10.5275 29.9287 10.3775 30.0887 10.1975C31.0887 9.1375 31.8387 8.6075 32.3387 8.6075C32.5187 8.6075 32.7387 8.6475 32.9987 8.7275C33.2787 8.7875 33.5287 8.8775 33.7487 8.9975C33.9887 9.1175 34.1287 9.2275 34.1687 9.3275C34.1687 9.3675 34.1687 9.4175 34.1687 9.4775C34.1887 9.5175 34.2087 9.5975 34.2287 9.7175C34.2487 9.8175 34.2287 9.8775 34.1687 9.8975C34.0487 9.9975 33.7887 10.0275 33.3887 9.9875C33.2887 9.9675 33.1987 9.9575 33.1187 9.9575C33.0387 9.9575 32.9587 9.9575 32.8787 9.9575C32.8187 9.9575 32.7487 9.9675 32.6687 9.9875C32.6087 9.9875 32.5487 9.9875 32.4887 9.9875C32.2487 10.0475 31.8887 10.1875 31.4087 10.4075C31.3687 10.4275 31.3187 10.4775 31.2587 10.5575C31.1987 10.6175 31.1187 10.7075 31.0187 10.8275C30.9387 10.9275 30.8487 11.0575 30.7487 11.2175C30.6687 11.3175 30.5887 11.4375 30.5087 11.5775C30.4487 11.6975 30.3687 11.8375 30.2687 11.9975C30.1887 12.1575 30.1087 12.3275 30.0287 12.5075C29.9487 12.6875 29.8587 12.8875 29.7587 13.1075C29.6587 13.3075 29.5587 13.5275 29.4587 13.7675C29.3987 13.9075 29.3487 14.1375 29.3087 14.4575C29.2887 14.7575 29.2787 15.1375 29.2787 15.5975V17.0375L29.2487 17.0675L28.8587 17.2475C28.7587 17.3075 28.6687 17.3475 28.5887 17.3675C28.5087 17.3875 28.4487 17.3875 28.4087 17.3675C28.3287 17.3475 28.1887 17.2475 27.9887 17.0675C27.7087 16.7675 27.5987 16.5175 27.6587 16.3175C27.8387 15.6775 27.8987 14.4475 27.8387 12.6275C27.7987 11.9075 27.7587 11.2975 27.7187 10.7975C27.6787 10.2775 27.6287 9.8875 27.5687 9.6275C27.5287 9.3675 27.4787 9.2275 27.4187 9.2075C27.4187 9.1875 27.3887 9.1775 27.3287 9.1775C27.2887 9.1775 27.2187 9.1875 27.1187 9.2075C27.0387 9.2275 26.9687 9.2475 26.9087 9.2675ZM40.2739 9.1775C40.7539 8.9575 41.2339 8.8475 41.7139 8.8475C42.2139 8.8275 42.6039 8.9275 42.8839 9.1475C43.0639 9.2875 43.1739 9.4375 43.2139 9.5975C43.2739 9.7375 43.3039 9.9975 43.3039 10.3775C43.3039 10.9975 43.1539 11.5275 42.8539 11.9675C42.5739 12.3275 42.0239 12.7975 41.2039 13.3775C40.3839 13.9375 39.7539 14.2875 39.3139 14.4275C38.8939 14.5275 38.6539 14.7075 38.5939 14.9675C38.4539 15.4875 38.5739 15.8275 38.9539 15.9875C39.1339 16.0275 39.5839 15.9375 40.3039 15.7175C41.0239 15.4775 41.6239 15.2075 42.1039 14.9075C42.3239 14.7875 42.5139 14.6775 42.6739 14.5775C42.8539 14.4775 43.0039 14.3975 43.1239 14.3375C43.2639 14.2775 43.3839 14.2275 43.4839 14.1875C43.7039 14.0675 43.8739 13.9775 43.9939 13.9175C44.1339 13.8375 44.2239 13.7875 44.2639 13.7675C44.3039 13.7475 44.3439 13.7275 44.3839 13.7075C44.4239 13.6875 44.4639 13.6675 44.5039 13.6475C44.5439 13.6275 44.5839 13.6075 44.6239 13.5875C44.6639 13.5675 44.7039 13.5475 44.7439 13.5275C44.8839 13.4675 45.4739 13.1975 46.5139 12.7175C46.9339 12.5175 47.2739 12.3675 47.5339 12.2675C47.7939 12.1675 48.0039 12.1175 48.1639 12.1175C48.2439 12.0975 48.3039 12.0975 48.3439 12.1175C48.4039 12.1375 48.4439 12.1675 48.4639 12.2075C48.5239 12.2675 48.5539 12.3875 48.5539 12.5675C48.5539 12.6875 48.5139 12.8075 48.4339 12.9275C48.3539 13.0475 48.2239 13.1675 48.0439 13.2875C47.9239 13.3675 47.7439 13.4675 47.5039 13.5875C47.2839 13.7075 47.0039 13.8575 46.6639 14.0375C46.3239 14.1975 45.9339 14.3875 45.4939 14.6075C45.2539 14.7275 45.0339 14.8375 44.8339 14.9375C44.6339 15.0375 44.4539 15.1275 44.2939 15.2075C44.1539 15.2875 44.0239 15.3575 43.9039 15.4175C43.8039 15.4775 43.7239 15.5275 43.6639 15.5675C43.6039 15.6075 43.5639 15.6375 43.5439 15.6575C43.5239 15.6975 43.4739 15.7475 43.3939 15.8075C43.3339 15.8475 43.2439 15.9075 43.1239 15.9875C43.0039 16.0475 42.8539 16.1275 42.6739 16.2275C42.5139 16.3075 42.3339 16.3975 42.1339 16.4975C41.7139 16.7175 41.3639 16.8775 41.0839 16.9775C40.8239 17.0775 40.6539 17.1275 40.5739 17.1275C40.4539 17.1275 40.3239 17.1475 40.1839 17.1875C40.0439 17.2075 39.8939 17.2475 39.7339 17.3075C39.3539 17.4275 38.8939 17.3975 38.3539 17.2175C37.8139 17.0175 37.4239 16.7375 37.1839 16.3775C37.0239 16.1175 36.8939 15.9675 36.7939 15.9275C36.7339 15.9075 36.6339 15.8975 36.4939 15.8975C36.3739 15.8975 36.2139 15.9075 36.0139 15.9275C35.6339 15.9675 35.3939 15.9775 35.2939 15.9575C35.1939 15.9375 35.1039 15.8175 35.0239 15.5975C34.9639 15.4975 34.9239 15.4175 34.9039 15.3575C34.9039 15.2775 34.9039 15.2175 34.9039 15.1775C34.9439 15.0975 35.0839 14.9475 35.3239 14.7275C35.7039 14.4075 35.9639 14.2475 36.1039 14.2475C36.7639 14.2275 37.2439 13.7575 37.5439 12.8375C37.6439 12.4775 37.7839 12.1175 37.9639 11.7575C38.1639 11.3775 38.3939 11.0175 38.6539 10.6775C38.9139 10.3375 39.1739 10.0475 39.4339 9.8075C39.7139 9.5475 39.9939 9.3375 40.2739 9.1775ZM41.9539 10.3475C41.6339 10.2275 41.2939 10.2875 40.9339 10.5275C40.3939 10.8675 39.9639 11.2675 39.6439 11.7275C39.3239 12.1875 39.2539 12.5075 39.4339 12.6875C39.4939 12.7275 39.5939 12.7375 39.7339 12.7175C39.8739 12.6775 40.0639 12.5875 40.3039 12.4475C40.8039 12.2075 41.2439 11.9175 41.6239 11.5775C41.9239 11.2975 42.1139 11.0575 42.1939 10.8575C42.2739 10.6175 42.1939 10.4475 41.9539 10.3475ZM54.5195 14.0975C54.6195 13.8775 54.6695 13.2475 54.6695 12.2075C54.6695 11.9475 54.6595 11.7175 54.6395 11.5175C54.6395 11.2975 54.6295 11.1175 54.6095 10.9775C54.5895 10.8175 54.5595 10.6975 54.5195 10.6175C54.4995 10.5375 54.4795 10.4875 54.4595 10.4675C54.0995 10.3475 53.6995 10.6775 53.2595 11.4575C53.2395 11.5375 53.2095 11.6075 53.1695 11.6675C53.1295 11.7275 53.0895 11.7875 53.0495 11.8475C53.0295 11.8875 52.9995 11.9375 52.9595 11.9975C52.9195 12.0575 52.8795 12.1075 52.8395 12.1475C52.8195 12.1875 52.7895 12.2275 52.7495 12.2675C52.7095 12.3075 52.6695 12.3475 52.6295 12.3875C52.3695 12.6275 52.1195 13.0475 51.8795 13.6475C51.5795 14.3475 51.3395 14.9075 51.1595 15.3275C50.9195 15.8875 50.7995 16.2375 50.7995 16.3775C50.7995 16.5575 50.7595 16.7275 50.6795 16.8875C50.6195 17.0275 50.5295 17.1475 50.4095 17.2475C50.2895 17.3475 50.1595 17.3975 50.0195 17.3975C49.6595 17.3975 49.4495 17.2475 49.3895 16.9475C49.3695 16.8875 49.3495 16.8075 49.3295 16.7075C49.3295 16.6075 49.3195 16.4875 49.2995 16.3475C49.2995 16.2075 49.2895 16.0475 49.2695 15.8675C49.2695 15.6675 49.2595 15.4575 49.2395 15.2375C49.2395 14.9975 49.2395 14.7475 49.2395 14.4875C49.2395 14.2075 49.2395 13.9175 49.2395 13.6175C49.2395 12.0375 49.2595 11.0475 49.2995 10.6475C49.3395 10.2275 49.4295 9.8975 49.5695 9.6575C49.6495 9.5175 49.7195 9.4075 49.7795 9.3275C50.1195 8.9275 50.4595 8.8675 50.7995 9.1475L51.1595 9.4475L50.7995 10.4375C50.6995 10.7375 50.6195 10.9975 50.5595 11.2175C50.5195 11.4175 50.4995 11.5775 50.4995 11.6975C50.4995 11.7575 50.4995 11.8175 50.4995 11.8775C50.5195 11.9375 50.5395 11.9975 50.5595 12.0575C50.5795 12.0975 50.5995 12.1375 50.6195 12.1775C50.6595 12.2175 50.6995 12.2575 50.7395 12.2975C50.8595 12.3575 50.9395 12.3875 50.9795 12.3875C50.9995 12.3875 51.0195 12.3775 51.0395 12.3575C51.0795 12.3175 51.1195 12.2575 51.1595 12.1775C51.2395 12.0575 51.4795 11.7275 51.8795 11.1875C52.1395 10.8475 52.4095 10.4675 52.6895 10.0475C52.7895 9.9075 52.9395 9.7675 53.1395 9.6275C53.3395 9.4675 53.5895 9.3075 53.8895 9.1475C54.4495 8.8475 54.7895 8.6975 54.9095 8.6975C55.0895 8.6975 55.3295 8.8175 55.6295 9.0575C55.7895 9.1775 55.9095 9.2975 55.9895 9.4175C56.0695 9.5175 56.1195 9.6175 56.1395 9.7175C56.1795 9.8775 56.2195 10.0375 56.2595 10.1975C56.2995 10.3375 56.3495 10.4775 56.4095 10.6175C56.4695 10.7575 56.4995 10.9175 56.4995 11.0975C56.5195 11.2775 56.5095 11.4675 56.4695 11.6675C56.4295 11.8475 56.3895 12.0675 56.3495 12.3275C56.3095 12.5875 56.2695 12.8975 56.2295 13.2575C56.2095 13.4575 56.1795 13.6475 56.1395 13.8275C56.1195 13.9875 56.0895 14.1375 56.0495 14.2775C56.0295 14.3975 56.0095 14.4975 55.9895 14.5775C55.7695 15.0775 55.6095 15.4275 55.5095 15.6275C55.3695 15.9675 55.2195 16.1875 55.0595 16.2875C54.9795 16.3475 54.8895 16.3875 54.7895 16.4075C54.7095 16.4075 54.6095 16.3875 54.4895 16.3475C54.3495 16.3075 54.2595 16.2275 54.2195 16.1075L54.2795 15.3275C54.3395 14.7275 54.4195 14.3175 54.5195 14.0975ZM62.9783 9.7175C63.1583 9.4375 63.2783 9.2975 63.3383 9.2975C63.3583 9.2775 63.3883 9.2775 63.4283 9.2975C63.4683 9.3175 63.5183 9.3375 63.5783 9.3575C63.6583 9.3775 63.7383 9.4075 63.8183 9.4475L64.2083 9.6275V12.4775C64.2083 13.7775 64.2283 14.5875 64.2683 14.9075C64.2683 14.9875 64.2783 15.0675 64.2983 15.1475C64.3183 15.2075 64.3283 15.2675 64.3283 15.3275C64.3483 15.3875 64.3683 15.4475 64.3883 15.5075C64.4283 15.5475 64.4683 15.5875 64.5083 15.6275C64.5683 15.6875 64.6283 15.7375 64.6883 15.7775C64.7683 15.7975 64.8283 15.8075 64.8683 15.8075C64.9083 15.8075 64.9483 15.8075 64.9883 15.8075C65.0283 15.7875 65.0683 15.7775 65.1083 15.7775C65.1683 15.7575 65.2283 15.7375 65.2883 15.7175C65.3683 15.6775 65.4483 15.6475 65.5283 15.6275C65.9483 15.4875 66.3783 15.3075 66.8183 15.0875C67.1583 14.9075 67.4783 14.7975 67.7783 14.7575C68.0783 14.6975 68.3583 14.7075 68.6183 14.7875C68.7983 14.8875 68.8483 15.0075 68.7683 15.1475C68.6483 15.3075 68.4183 15.4875 68.0783 15.6875C67.7383 15.8875 67.4683 15.9875 67.2683 15.9875C67.0283 15.9875 66.8683 16.0375 66.7883 16.1375C66.7683 16.1975 66.6683 16.2875 66.4883 16.4075C66.3283 16.5075 66.0983 16.6375 65.7983 16.7975C65.1983 17.0775 64.8583 17.3075 64.7783 17.4875C64.5783 17.9875 64.6483 18.6875 64.9883 19.5875C65.2083 20.1475 65.3183 21.0975 65.3183 22.4375C65.3183 23.3775 65.2883 23.9975 65.2283 24.2975C65.1883 24.5975 65.0883 24.9175 64.9283 25.2575C64.4883 26.1175 63.8883 26.7175 63.1283 27.0575C62.7483 27.2375 62.3683 27.3375 61.9883 27.3575C61.6283 27.3775 61.2683 27.3175 60.9083 27.1775C60.1483 26.8975 59.5683 26.3375 59.1683 25.4975C58.8883 24.8975 58.7683 24.3575 58.8083 23.8775C58.9283 22.7575 59.1383 21.8975 59.4383 21.2975C59.7583 20.6975 60.4183 19.8975 61.4183 18.8975L62.9783 17.3675V17.3375V16.3475C62.9783 15.6275 62.8983 15.1475 62.7383 14.9075C62.6783 14.8075 62.5983 14.7575 62.4983 14.7575C62.3983 14.7575 62.2883 14.7975 62.1683 14.8775L61.8383 15.1175C61.7383 15.2575 61.6183 15.3875 61.4783 15.5075C61.3583 15.6075 61.2283 15.7075 61.0883 15.8075C60.9483 15.9075 60.7983 16.0075 60.6383 16.1075C60.4983 16.1875 60.3483 16.2675 60.1883 16.3475C59.5283 16.6675 59.0183 16.7875 58.6583 16.7075C58.4583 16.6675 58.2383 16.5575 57.9983 16.3775C57.7583 16.1975 57.5683 15.9975 57.4283 15.7775C57.3483 15.6775 57.2883 15.5875 57.2483 15.5075C57.2083 15.4075 57.1883 15.3175 57.1883 15.2375C57.1883 14.9775 57.3183 14.5175 57.5783 13.8575C57.6783 13.6175 57.7683 13.4075 57.8483 13.2275C57.9283 13.0275 58.0083 12.8575 58.0883 12.7175C58.1883 12.5575 58.2783 12.4175 58.3583 12.2975C58.6183 11.9375 58.7783 11.6575 58.8383 11.4575C58.9183 11.2175 59.3183 10.9475 60.0383 10.6475C60.7783 10.3475 61.3883 10.1975 61.8683 10.1975C62.2283 10.1975 62.4683 10.1675 62.5883 10.1075C62.6483 10.0875 62.7083 10.0475 62.7683 9.9875C62.8283 9.9075 62.8983 9.8175 62.9783 9.7175ZM62.1083 11.6675C61.8083 11.5675 61.4883 11.5675 61.1483 11.6675C60.9883 11.7075 60.8283 11.7775 60.6683 11.8775C60.5083 11.9775 60.3583 12.1075 60.2183 12.2675C60.1183 12.3675 60.0183 12.4775 59.9183 12.5975C59.8383 12.7175 59.7483 12.8475 59.6483 12.9875C59.5683 13.1075 59.4983 13.2475 59.4383 13.4075C59.1783 13.9675 59.0483 14.3575 59.0483 14.5775C59.0483 14.6175 59.0483 14.6575 59.0483 14.6975C59.0683 14.7375 59.0883 14.7775 59.1083 14.8175C59.1283 14.8375 59.1483 14.8475 59.1683 14.8475C59.2083 14.8675 59.2783 14.8875 59.3783 14.9075C59.4983 14.9075 59.6383 14.9075 59.7983 14.9075C59.9583 14.9075 60.0983 14.9075 60.2183 14.9075C60.3383 14.8875 60.4383 14.8575 60.5183 14.8175C60.6783 14.7575 60.8683 14.6175 61.0883 14.3975C61.3283 14.1375 61.5983 13.7275 61.8983 13.1675C62.2183 12.5875 62.3783 12.1975 62.3783 11.9975C62.3783 11.9175 62.3483 11.8575 62.2883 11.8175C62.2483 11.7575 62.1883 11.7075 62.1083 11.6675ZM63.7583 22.3775C63.7583 21.0975 63.6783 20.2175 63.5183 19.7375C63.3383 19.2575 63.1583 19.0175 62.9783 19.0175C62.8583 19.0175 62.7183 19.0775 62.5583 19.1975C62.4183 19.3175 62.2483 19.4975 62.0483 19.7375C61.8483 19.9975 61.6483 20.2775 61.4483 20.5775C61.2683 20.8775 61.0883 21.1975 60.9083 21.5375C60.6483 22.0775 60.4783 22.4775 60.3983 22.7375C60.3383 22.9975 60.3083 23.3675 60.3083 23.8475C60.3083 24.5075 60.3783 24.9575 60.5183 25.1975C60.6783 25.4375 60.9883 25.6275 61.4483 25.7675C61.7683 25.8675 61.9983 25.9175 62.1383 25.9175C62.2183 25.8975 62.2983 25.8675 62.3783 25.8275C62.4783 25.7875 62.5783 25.7375 62.6783 25.6775C63.1183 25.4375 63.4083 25.0975 63.5483 24.6575C63.6883 24.2175 63.7583 23.4575 63.7583 22.3775ZM75.533 6.0875C75.853 5.6275 76.063 5.3975 76.163 5.3975C76.183 5.3975 76.213 5.4075 76.253 5.4275C76.293 5.4275 76.333 5.4475 76.373 5.4875C76.413 5.5275 76.443 5.5875 76.463 5.6675C76.523 5.7475 76.563 5.8475 76.583 5.9675C76.623 6.0875 76.643 6.2175 76.643 6.3575C76.643 6.6175 76.683 6.8375 76.763 7.0175C76.863 7.1975 77.003 7.3375 77.183 7.4375C77.543 7.6175 78.293 7.7175 79.433 7.7375C79.833 7.7575 80.203 7.7775 80.543 7.7975C80.883 7.8175 81.153 7.8475 81.353 7.8875C81.573 7.9275 81.743 7.9675 81.863 8.0075C82.003 8.0275 82.083 8.0575 82.103 8.0975C82.123 8.1175 82.133 8.1575 82.133 8.2175C82.133 8.2575 82.133 8.3275 82.133 8.4275V8.4575L82.103 8.9075L79.523 8.9375C78.483 8.9775 77.773 9.0175 77.393 9.0575C77.253 9.0775 77.123 9.1075 77.003 9.1475C76.903 9.1875 76.813 9.2275 76.733 9.2675C76.653 9.3075 76.573 9.3575 76.493 9.4175C76.413 9.5175 76.323 9.6575 76.223 9.8375C76.143 9.9975 76.053 10.2175 75.953 10.4975C75.713 11.2175 75.643 12.1775 75.743 13.3775C75.803 13.9775 75.883 14.4575 75.983 14.8175C76.103 15.1775 76.263 15.4175 76.463 15.5375C76.523 15.5775 76.623 15.5775 76.763 15.5375C76.903 15.5175 77.063 15.4575 77.243 15.3575C77.343 15.3175 77.433 15.2775 77.513 15.2375C77.613 15.1775 77.713 15.1175 77.813 15.0575C78.013 14.9375 78.213 14.8075 78.413 14.6675C78.613 14.5275 78.813 14.3875 79.013 14.2475C79.093 14.1675 79.183 14.0875 79.283 14.0075C79.403 13.9075 79.523 13.7975 79.643 13.6775C79.783 13.5375 79.933 13.3975 80.093 13.2575C80.273 13.0975 80.463 12.9275 80.663 12.7475C80.863 12.5475 81.073 12.3475 81.293 12.1475C82.613 10.8875 83.463 10.1175 83.843 9.8375C84.023 9.6975 84.173 9.6075 84.293 9.5675C84.433 9.5275 84.533 9.5275 84.5931 9.5675C84.753 9.6875 84.853 9.7975 84.893 9.8975C84.913 9.9375 84.903 9.9975 84.863 10.0775C84.843 10.1575 84.803 10.2575 84.743 10.3775C84.663 10.5175 84.563 10.6575 84.443 10.7975C84.323 10.9375 84.183 11.0975 84.023 11.2775C83.683 11.6175 83.183 12.1175 82.523 12.7775C81.703 13.5775 81.053 14.2075 80.573 14.6675C80.113 15.1275 79.813 15.4075 79.673 15.5075C79.073 15.9875 78.433 16.4275 77.753 16.8275C77.093 17.2075 76.643 17.3975 76.403 17.3975C76.163 17.3975 75.853 17.2675 75.473 17.0075C75.093 16.7275 74.873 16.4975 74.813 16.3175C74.733 16.0775 74.583 15.7075 74.363 15.2075C74.143 14.6875 74.033 13.5875 74.033 11.9075V9.3875V9.3275H73.973H72.473C71.393 9.3275 70.583 9.1875 70.043 8.9075C69.763 8.7675 69.583 8.6175 69.503 8.4575C69.443 8.2775 69.463 8.0875 69.563 7.8875C69.643 7.7675 69.803 7.6875 70.043 7.6475C70.283 7.6275 70.933 7.6475 71.993 7.7075L74.243 7.8275H74.273L74.303 7.7975L74.633 7.3175C74.933 6.9175 75.153 6.6175 75.293 6.4175C75.433 6.2175 75.513 6.1075 75.533 6.0875ZM87.5164 0.6575C87.6564 0.5575 87.8064 0.5275 87.9664 0.567499C88.1464 0.587499 88.2864 0.657499 88.3864 0.7775C88.4264 0.817499 88.4564 0.967499 88.4764 1.2275C88.4964 1.4875 88.5064 1.8575 88.5064 2.3375C88.5064 2.8175 88.4864 3.3775 88.4464 4.0175C88.3264 6.0575 88.1964 7.3275 88.0564 7.8275C87.9164 8.2875 87.8064 8.9175 87.7264 9.7175C87.7264 9.9575 87.7264 10.1575 87.7264 10.3175C87.7264 10.4575 87.7264 10.5675 87.7264 10.6475C87.7464 10.7275 87.7764 10.7975 87.8164 10.8575C87.8764 10.9175 87.9464 10.9675 88.0264 11.0075C88.1464 11.0475 88.2464 11.0475 88.3264 11.0075C88.4264 10.9675 88.5064 10.8875 88.5664 10.7675C88.6664 10.6275 88.8064 10.4575 88.9864 10.2575C89.1664 10.0375 89.3864 9.7875 89.6464 9.5075C90.1864 8.9675 90.5664 8.6275 90.7864 8.4875C90.9464 8.4275 91.1064 8.3775 91.2664 8.3375C91.4464 8.2975 91.6464 8.2775 91.8664 8.2775C92.1464 8.2775 92.3264 8.3175 92.4064 8.3975C92.5064 8.4775 92.6664 8.7475 92.8864 9.2075C93.0064 9.5275 93.0964 9.8075 93.1564 10.0475C93.2364 10.2675 93.2764 10.4275 93.2764 10.5275C93.2964 10.6675 93.3264 10.8375 93.3664 11.0375C93.4064 11.2375 93.4664 11.4775 93.5464 11.7575C93.6864 12.2975 93.8164 12.6375 93.9364 12.7775C93.9964 12.8775 94.0464 12.9875 94.0864 13.1075C94.1464 13.2075 94.1864 13.3175 94.2064 13.4375C94.2464 13.5975 94.3064 13.7975 94.3864 14.0375C94.4664 14.2775 94.5664 14.5675 94.6864 14.9075C94.9264 15.5675 95.0364 16.1475 95.0164 16.6475C94.9764 16.9475 94.9364 17.1375 94.8964 17.2175C94.8564 17.2975 94.7364 17.3475 94.5364 17.3675C94.2764 17.4075 94.0964 17.3575 93.9964 17.2175C93.8564 17.0175 93.6264 16.5375 93.3064 15.7775C92.9864 14.9975 92.7364 14.2775 92.5564 13.6175C92.3964 13.1375 92.2564 12.7675 92.1364 12.5075C92.0364 12.2475 91.9464 12.0675 91.8664 11.9675C91.7464 11.8275 91.6864 11.6075 91.6864 11.3075C91.6864 10.5875 91.5164 10.2275 91.1764 10.2275C91.0964 10.2275 90.9764 10.2975 90.8164 10.4375C90.6564 10.5775 90.4264 10.7975 90.1264 11.0975C89.8464 11.3975 89.5964 11.6775 89.3764 11.9375C89.1564 12.1775 88.9764 12.4075 88.8364 12.6275C88.7564 12.7275 88.6764 12.8675 88.5964 13.0475C88.5164 13.2075 88.4264 13.3975 88.3264 13.6175C88.2264 13.8175 88.1264 14.0575 88.0264 14.3375C87.7064 15.1375 87.5464 15.6675 87.5464 15.9275C87.5464 16.0475 87.5164 16.1775 87.4564 16.3175C87.4164 16.4575 87.3464 16.6075 87.2464 16.7675C87.0464 17.0675 86.8464 17.2475 86.6464 17.3075C86.4664 17.3675 86.2264 17.2775 85.9264 17.0375C85.8264 16.9375 85.7464 16.8475 85.6864 16.7675C85.6464 16.6875 85.6164 16.6175 85.5964 16.5575C85.5764 16.5175 85.5664 16.4875 85.5664 16.4675C85.5664 16.4275 85.5664 16.3875 85.5664 16.3475C85.5664 16.2875 85.5664 16.2275 85.5664 16.1675C85.5664 16.1075 85.5664 16.0375 85.5664 15.9575C85.5664 15.8775 85.5664 15.7975 85.5664 15.7175C85.5864 15.6375 85.5964 15.5475 85.5964 15.4475C85.8364 12.2675 86.0264 10.5075 86.1664 10.1675C86.2864 9.9275 86.3864 9.1575 86.4664 7.8575C86.6664 4.8975 86.8264 3.0075 86.9464 2.1875C87.0664 1.3675 87.2564 0.857499 87.5164 0.6575Z" fill="black"/>
</svg>
