<svg width="256" height="30" viewBox="0 0 256 30" fill="none" xmlns="http://www.w3.org/2000/svg">
<path d="M0.935625 11.61C1.25563 11.45 1.52563 11.35 1.74562 11.31C1.98563 11.27 2.39563 11.27 2.97563 11.31C4.19563 11.35 5.09563 11.48 5.67563 11.7C5.81563 11.74 5.94563 11.8 6.06563 11.88C6.18563 11.94 6.28563 12.01 6.36563 12.09C6.46563 12.17 6.54563 12.26 6.60563 12.36C6.66563 12.46 6.71563 12.57 6.75563 12.69C6.81563 12.81 6.83563 12.93 6.81563 13.05C6.79563 13.15 6.73563 13.25 6.63563 13.35C6.51563 13.45 6.42563 13.51 6.36563 13.53C6.32563 13.53 6.21563 13.47 6.03563 13.35C5.79563 13.19 5.47563 13.08 5.07563 13.02C4.85563 13 4.50563 12.95 4.02563 12.87C3.70563 12.77 3.56563 12.79 3.60563 12.93C3.60563 13.15 3.88563 13.41 4.44563 13.71C5.00563 14.05 5.54563 14.51 6.06563 15.09C7.14563 16.23 7.66563 17.13 7.62563 17.79C7.60563 18.11 7.44563 18.43 7.14563 18.75C6.86563 19.05 6.43563 19.35 5.85563 19.65C4.95563 19.71 3.92563 19.71 2.76563 19.65C1.58563 19.15 0.825625 18.53 0.485625 17.79C0.265625 17.35 0.225625 17.05 0.365625 16.89C0.505625 16.71 0.625625 16.65 0.725625 16.71C0.845625 16.75 1.09563 16.96 1.47563 17.34C2.21563 18.12 3.24563 18.51 4.56563 18.51C4.64563 18.51 4.71563 18.51 4.77563 18.51C4.85563 18.51 4.92563 18.51 4.98563 18.51C5.04563 18.51 5.09563 18.51 5.13563 18.51C5.19563 18.49 5.24563 18.48 5.28563 18.48C5.44563 18.46 5.56563 18.43 5.64563 18.39C5.74563 18.33 5.86563 18.24 6.00563 18.12C6.10563 18.04 6.17563 17.97 6.21563 17.91C6.27563 17.83 6.31563 17.77 6.33563 17.73C6.37563 17.69 6.39563 17.65 6.39563 17.61C6.39563 17.55 6.34563 17.44 6.24563 17.28C6.14563 17.1 5.99563 16.88 5.79563 16.62C5.59563 16.34 5.41563 16.12 5.25563 15.96C5.11563 15.78 4.99563 15.66 4.89563 15.6C4.85563 15.54 4.71563 15.43 4.47563 15.27C4.41563 15.23 4.35563 15.19 4.29563 15.15C4.25563 15.11 4.21563 15.08 4.17562 15.06C4.13563 15.02 4.09563 14.99 4.05563 14.97C4.01563 14.93 3.98563 14.9 3.96563 14.88C3.76563 14.74 3.57563 14.63 3.39563 14.55C3.23563 14.45 3.08563 14.38 2.94563 14.34C2.80563 14.32 2.68563 14.29 2.58563 14.25C2.48563 14.19 2.40563 14.13 2.34563 14.07C2.30563 14.01 2.24563 13.96 2.16563 13.92C2.10563 13.88 2.02563 13.86 1.92563 13.86C1.74563 13.82 1.53563 13.72 1.29563 13.56C1.03563 13.4 0.795625 13.2 0.575625 12.96C0.375625 12.72 0.255625 12.55 0.215625 12.45C0.195625 12.25 0.225625 12.1 0.305625 12C0.345625 11.96 0.415625 11.91 0.515625 11.85C0.635625 11.77 0.775625 11.69 0.935625 11.61ZM13.5009 11.64C13.7209 11.4 13.9109 11.29 14.0709 11.31C14.1109 11.33 14.1509 11.4 14.1909 11.52C14.2309 11.62 14.2609 11.78 14.2809 12C14.3009 12.44 14.3209 13.44 14.3409 15C14.4009 17.42 14.5109 18.68 14.6709 18.78C14.8509 18.9 15.1609 18.96 15.6009 18.96C16.0609 18.94 16.4209 18.86 16.6809 18.72C17.0009 18.54 17.5209 18.47 18.2409 18.51C18.6009 18.53 18.8809 18.57 19.0809 18.63C19.3009 18.69 19.4409 18.76 19.5009 18.84C19.6209 19.04 19.5509 19.23 19.2909 19.41C19.0509 19.63 18.5509 19.74 17.7909 19.74C17.0509 19.74 16.5009 19.81 16.1409 19.95C15.7809 20.11 15.4809 20.19 15.2409 20.19C15.0009 20.19 14.7809 20.29 14.5809 20.49C14.4209 20.67 14.3209 20.88 14.2809 21.12C14.2409 21.38 14.1909 21.94 14.1309 22.8C14.1109 24.04 14.0409 25.06 13.9209 25.86C13.9009 26.06 13.8509 26.41 13.7709 26.91C13.7109 27.43 13.6709 27.77 13.6509 27.93C13.5509 28.77 13.3209 29.31 12.9609 29.55C12.8609 29.61 12.7509 29.65 12.6309 29.67C12.5309 29.69 12.4209 29.68 12.3009 29.64C12.2009 29.62 12.0809 29.57 11.9409 29.49C11.8209 29.43 11.6909 29.34 11.5509 29.22C11.3509 29.08 11.1909 28.97 11.0709 28.89C10.9709 28.81 10.8909 28.77 10.8309 28.77C10.7309 28.77 10.6409 28.62 10.5609 28.32C10.4809 28.04 10.4209 27.6 10.3809 27C10.3009 26.42 10.2209 25.69 10.1409 24.81C10.0409 23.79 10.2809 22.69 10.8609 21.51C10.9209 21.41 11.0309 21.26 11.1909 21.06C11.3509 20.86 11.5209 20.67 11.7009 20.49C11.8809 20.31 12.0409 20.16 12.1809 20.04C12.2609 19.98 12.3309 19.94 12.3909 19.92C12.4509 19.88 12.4909 19.86 12.5109 19.86C12.5509 19.86 12.5909 19.85 12.6309 19.83C12.6709 19.81 12.7009 19.78 12.7209 19.74C12.7609 19.68 12.7909 19.62 12.8109 19.56C12.8509 19.48 12.8909 19.4 12.9309 19.32C13.0509 18.94 13.1109 18.54 13.1109 18.12C13.1109 17.94 13.1109 17.79 13.1109 17.67C13.1109 17.55 13.1009 17.47 13.0809 17.43C13.0809 17.37 13.0609 17.33 13.0209 17.31C12.9809 17.27 12.9309 17.25 12.8709 17.25C12.6709 17.25 12.4009 17.44 12.0609 17.82C11.9409 17.96 11.7909 18.09 11.6109 18.21C11.4509 18.33 11.2709 18.45 11.0709 18.57C10.6709 18.83 10.3809 18.96 10.2009 18.96C10.1809 18.96 10.1509 18.95 10.1109 18.93C10.0909 18.91 10.0609 18.89 10.0209 18.87C9.98094 18.85 9.93094 18.82 9.87094 18.78C9.83094 18.74 9.78094 18.69 9.72094 18.63C9.66094 18.57 9.59094 18.51 9.51094 18.45C9.45094 18.39 9.38094 18.32 9.30094 18.24C8.82094 17.76 8.52094 17.39 8.40094 17.13C8.28094 16.89 8.27094 16.69 8.37094 16.53C8.49094 16.29 8.55094 15.94 8.55094 15.48C8.55094 14.9 8.65094 14.34 8.85094 13.8C9.05094 13.26 9.29094 12.87 9.57094 12.63C9.85094 12.37 10.1009 12.33 10.3209 12.51C10.3809 12.57 10.4309 12.65 10.4709 12.75C10.5109 12.85 10.5309 12.97 10.5309 13.11C10.5309 13.39 10.4609 13.65 10.3209 13.89C10.2409 14.03 10.1809 14.25 10.1409 14.55C10.1009 14.83 10.0809 15.19 10.0809 15.63C10.0809 15.95 10.0809 16.22 10.0809 16.44C10.1009 16.66 10.1209 16.84 10.1409 16.98C10.1809 17.1 10.2209 17.18 10.2609 17.22C10.3209 17.28 10.3709 17.33 10.4109 17.37C10.4709 17.39 10.5209 17.4 10.5609 17.4C10.7009 17.4 10.9809 17.18 11.4009 16.74C11.8409 16.3 12.0609 16 12.0609 15.84C12.0609 15.66 12.1609 15.3 12.3609 14.76C12.5609 14.22 12.6609 13.75 12.6609 13.35C12.6609 13.21 12.6809 13.07 12.7209 12.93C12.7609 12.79 12.8109 12.65 12.8709 12.51C12.9509 12.37 13.0409 12.23 13.1409 12.09C13.2409 11.93 13.3609 11.78 13.5009 11.64ZM12.7809 24.03C12.8209 22.93 12.8309 22.24 12.8109 21.96C12.7909 21.7 12.7309 21.57 12.6309 21.57C12.5909 21.57 12.5409 21.59 12.4809 21.63C12.4209 21.67 12.3609 21.74 12.3009 21.84C12.2409 21.94 12.1709 22.06 12.0909 22.2C12.0509 22.3 12.0009 22.39 11.9409 22.47C11.9009 22.57 11.8609 22.67 11.8209 22.77C11.7809 22.87 11.7409 22.97 11.7009 23.07C11.6609 23.17 11.6209 23.27 11.5809 23.37C11.5409 23.49 11.5009 23.6 11.4609 23.7C11.3809 24.04 11.3309 24.45 11.3109 24.93C11.2909 25.43 11.3309 25.8 11.4309 26.04C11.5509 26.32 11.6309 26.56 11.6709 26.76C11.7309 27.02 11.8409 27.2 12.0009 27.3C12.1209 27.34 12.2209 27.32 12.3009 27.24C12.3409 27.18 12.3709 27.1 12.3909 27C12.4309 26.92 12.4709 26.82 12.5109 26.7C12.5709 26.44 12.6109 26.1 12.6309 25.68C12.6709 25.26 12.7209 24.71 12.7809 24.03ZM20.9641 11.61C21.2841 11.45 21.5541 11.35 21.7741 11.31C22.0141 11.27 22.4241 11.27 23.0041 11.31C24.2241 11.35 25.1241 11.48 25.7041 11.7C25.8441 11.74 25.9741 11.8 26.0941 11.88C26.2141 11.94 26.3141 12.01 26.3941 12.09C26.4941 12.17 26.5741 12.26 26.6341 12.36C26.6941 12.46 26.7441 12.57 26.7841 12.69C26.8441 12.81 26.8641 12.93 26.8441 13.05C26.8241 13.15 26.7641 13.25 26.6641 13.35C26.5441 13.45 26.4541 13.51 26.3941 13.53C26.3541 13.53 26.2441 13.47 26.0641 13.35C25.8241 13.19 25.5041 13.08 25.1041 13.02C24.8841 13 24.5341 12.95 24.0541 12.87C23.7341 12.77 23.5941 12.79 23.6341 12.93C23.6341 13.15 23.9141 13.41 24.4741 13.71C25.0341 14.05 25.5741 14.51 26.0941 15.09C27.1741 16.23 27.6941 17.13 27.6541 17.79C27.6341 18.11 27.4741 18.43 27.1741 18.75C26.8941 19.05 26.4641 19.35 25.8841 19.65C24.9841 19.71 23.9541 19.71 22.7941 19.65C21.6141 19.15 20.8541 18.53 20.5141 17.79C20.2941 17.35 20.2541 17.05 20.3941 16.89C20.5341 16.71 20.6541 16.65 20.7541 16.71C20.8741 16.75 21.1241 16.96 21.5041 17.34C22.2441 18.12 23.2741 18.51 24.5941 18.51C24.6741 18.51 24.7441 18.51 24.8041 18.51C24.8841 18.51 24.9541 18.51 25.0141 18.51C25.0741 18.51 25.1241 18.51 25.1641 18.51C25.2241 18.49 25.2741 18.48 25.3141 18.48C25.4741 18.46 25.5941 18.43 25.6741 18.39C25.7741 18.33 25.8941 18.24 26.0341 18.12C26.1341 18.04 26.2041 17.97 26.2441 17.91C26.3041 17.83 26.3441 17.77 26.3641 17.73C26.4041 17.69 26.4241 17.65 26.4241 17.61C26.4241 17.55 26.3741 17.44 26.2741 17.28C26.1741 17.1 26.0241 16.88 25.8241 16.62C25.6241 16.34 25.4441 16.12 25.2841 15.96C25.1441 15.78 25.0241 15.66 24.9241 15.6C24.8841 15.54 24.7441 15.43 24.5041 15.27C24.4441 15.23 24.3841 15.19 24.3241 15.15C24.2841 15.11 24.2441 15.08 24.2041 15.06C24.1641 15.02 24.1241 14.99 24.0841 14.97C24.0441 14.93 24.0141 14.9 23.9941 14.88C23.7941 14.74 23.6041 14.63 23.4241 14.55C23.2641 14.45 23.1141 14.38 22.9741 14.34C22.8341 14.32 22.7141 14.29 22.6141 14.25C22.5141 14.19 22.4341 14.13 22.3741 14.07C22.3341 14.01 22.2741 13.96 22.1941 13.92C22.1341 13.88 22.0541 13.86 21.9541 13.86C21.7741 13.82 21.5641 13.72 21.3241 13.56C21.0641 13.4 20.8241 13.2 20.6041 12.96C20.4041 12.72 20.2841 12.55 20.2441 12.45C20.2241 12.25 20.2541 12.1 20.3341 12C20.3741 11.96 20.4441 11.91 20.5441 11.85C20.6641 11.77 20.8041 11.69 20.9641 11.61ZM34.3995 8.4C34.7195 7.94 34.9295 7.71 35.0295 7.71C35.0495 7.71 35.0795 7.72 35.1195 7.74C35.1595 7.74 35.1995 7.76 35.2395 7.8C35.2795 7.84 35.3095 7.9 35.3295 7.98C35.3895 8.06 35.4295 8.16 35.4495 8.28C35.4895 8.4 35.5095 8.53 35.5095 8.67C35.5095 8.93 35.5495 9.15 35.6295 9.33C35.7295 9.51 35.8695 9.65 36.0495 9.75C36.4095 9.93 37.1595 10.03 38.2995 10.05C38.6995 10.07 39.0695 10.09 39.4095 10.11C39.7495 10.13 40.0195 10.16 40.2195 10.2C40.4395 10.24 40.6095 10.28 40.7295 10.32C40.8695 10.34 40.9495 10.37 40.9695 10.41C40.9895 10.43 40.9995 10.47 40.9995 10.53C40.9995 10.57 40.9995 10.64 40.9995 10.74V10.77L40.9695 11.22L38.3895 11.25C37.3495 11.29 36.6395 11.33 36.2595 11.37C36.1195 11.39 35.9895 11.42 35.8695 11.46C35.7695 11.5 35.6795 11.54 35.5995 11.58C35.5195 11.62 35.4395 11.67 35.3595 11.73C35.2795 11.83 35.1895 11.97 35.0895 12.15C35.0095 12.31 34.9195 12.53 34.8195 12.81C34.5795 13.53 34.5095 14.49 34.6095 15.69C34.6695 16.29 34.7495 16.77 34.8495 17.13C34.9695 17.49 35.1295 17.73 35.3295 17.85C35.3895 17.89 35.4895 17.89 35.6295 17.85C35.7695 17.83 35.9295 17.77 36.1095 17.67C36.2095 17.63 36.2995 17.59 36.3795 17.55C36.4795 17.49 36.5795 17.43 36.6795 17.37C36.8795 17.25 37.0795 17.12 37.2795 16.98C37.4795 16.84 37.6795 16.7 37.8795 16.56C37.9595 16.48 38.0495 16.4 38.1495 16.32C38.2695 16.22 38.3895 16.11 38.5095 15.99C38.6495 15.85 38.7995 15.71 38.9595 15.57C39.1395 15.41 39.3295 15.24 39.5295 15.06C39.7295 14.86 39.9395 14.66 40.1595 14.46C41.4795 13.2 42.3295 12.43 42.7095 12.15C42.8895 12.01 43.0395 11.92 43.1595 11.88C43.2995 11.84 43.3995 11.84 43.4595 11.88C43.6195 12 43.7195 12.11 43.7595 12.21C43.7795 12.25 43.7695 12.31 43.7295 12.39C43.7095 12.47 43.6695 12.57 43.6095 12.69C43.5295 12.83 43.4295 12.97 43.3095 13.11C43.1895 13.25 43.0495 13.41 42.8895 13.59C42.5495 13.93 42.0495 14.43 41.3895 15.09C40.5695 15.89 39.9195 16.52 39.4395 16.98C38.9795 17.44 38.6795 17.72 38.5395 17.82C37.9395 18.3 37.2995 18.74 36.6195 19.14C35.9595 19.52 35.5095 19.71 35.2695 19.71C35.0295 19.71 34.7195 19.58 34.3395 19.32C33.9595 19.04 33.7395 18.81 33.6795 18.63C33.5995 18.39 33.4495 18.02 33.2295 17.52C33.0095 17 32.8995 15.9 32.8995 14.22V11.7V11.64H32.8395H31.3395C30.2595 11.64 29.4495 11.5 28.9095 11.22C28.6295 11.08 28.4495 10.93 28.3695 10.77C28.3095 10.59 28.3295 10.4 28.4295 10.2C28.5095 10.08 28.6695 10 28.9095 9.96C29.1495 9.94 29.7995 9.96 30.8595 10.02L33.1095 10.14H33.1395L33.1695 10.11L33.4995 9.63C33.7995 9.23 34.0195 8.93 34.1595 8.73C34.2995 8.53 34.3795 8.42 34.3995 8.4ZM49.8028 11.49C50.2828 11.27 50.7628 11.16 51.2428 11.16C51.7428 11.14 52.1328 11.24 52.4128 11.46C52.5928 11.6 52.7028 11.75 52.7428 11.91C52.8028 12.05 52.8328 12.31 52.8328 12.69C52.8328 13.31 52.6828 13.84 52.3828 14.28C52.1028 14.64 51.5528 15.11 50.7328 15.69C49.9128 16.25 49.2828 16.6 48.8428 16.74C48.4228 16.84 48.1828 17.02 48.1228 17.28C47.9828 17.8 48.1028 18.14 48.4828 18.3C48.6628 18.34 49.1128 18.25 49.8328 18.03C50.5528 17.79 51.1528 17.52 51.6328 17.22C51.8528 17.1 52.0428 16.99 52.2028 16.89C52.3828 16.79 52.5328 16.71 52.6528 16.65C52.7928 16.59 52.9128 16.54 53.0128 16.5C53.2328 16.38 53.4028 16.29 53.5228 16.23C53.6628 16.15 53.7528 16.1 53.7928 16.08C53.8328 16.06 53.8728 16.04 53.9128 16.02C53.9528 16 53.9928 15.98 54.0328 15.96C54.0728 15.94 54.1128 15.92 54.1528 15.9C54.1928 15.88 54.2328 15.86 54.2728 15.84C54.4128 15.78 55.0028 15.51 56.0428 15.03C56.4628 14.83 56.8028 14.68 57.0628 14.58C57.3228 14.48 57.5328 14.43 57.6928 14.43C57.7728 14.41 57.8328 14.41 57.8728 14.43C57.9328 14.45 57.9728 14.48 57.9928 14.52C58.0528 14.58 58.0828 14.7 58.0828 14.88C58.0828 15 58.0428 15.12 57.9628 15.24C57.8828 15.36 57.7528 15.48 57.5728 15.6C57.4528 15.68 57.2728 15.78 57.0328 15.9C56.8128 16.02 56.5328 16.17 56.1928 16.35C55.8528 16.51 55.4628 16.7 55.0228 16.92C54.7828 17.04 54.5628 17.15 54.3628 17.25C54.1628 17.35 53.9828 17.44 53.8228 17.52C53.6828 17.6 53.5528 17.67 53.4328 17.73C53.3328 17.79 53.2528 17.84 53.1928 17.88C53.1328 17.92 53.0928 17.95 53.0728 17.97C53.0528 18.01 53.0028 18.06 52.9228 18.12C52.8628 18.16 52.7728 18.22 52.6528 18.3C52.5328 18.36 52.3828 18.44 52.2028 18.54C52.0428 18.62 51.8628 18.71 51.6628 18.81C51.2428 19.03 50.8928 19.19 50.6128 19.29C50.3528 19.39 50.1828 19.44 50.1028 19.44C49.9828 19.44 49.8528 19.46 49.7128 19.5C49.5728 19.52 49.4228 19.56 49.2628 19.62C48.8828 19.74 48.4228 19.71 47.8828 19.53C47.3428 19.33 46.9528 19.05 46.7128 18.69C46.5528 18.43 46.4228 18.28 46.3228 18.24C46.2628 18.22 46.1628 18.21 46.0228 18.21C45.9028 18.21 45.7428 18.22 45.5428 18.24C45.1628 18.28 44.9228 18.29 44.8228 18.27C44.7228 18.25 44.6328 18.13 44.5528 17.91C44.4928 17.81 44.4528 17.73 44.4328 17.67C44.4328 17.59 44.4328 17.53 44.4328 17.49C44.4728 17.41 44.6128 17.26 44.8528 17.04C45.2328 16.72 45.4928 16.56 45.6328 16.56C46.2928 16.54 46.7728 16.07 47.0728 15.15C47.1728 14.79 47.3128 14.43 47.4928 14.07C47.6928 13.69 47.9228 13.33 48.1828 12.99C48.4428 12.65 48.7028 12.36 48.9628 12.12C49.2428 11.86 49.5228 11.65 49.8028 11.49ZM51.4828 12.66C51.1628 12.54 50.8228 12.6 50.4628 12.84C49.9228 13.18 49.4928 13.58 49.1728 14.04C48.8528 14.5 48.7828 14.82 48.9628 15C49.0228 15.04 49.1228 15.05 49.2628 15.03C49.4028 14.99 49.5928 14.9 49.8328 14.76C50.3328 14.52 50.7728 14.23 51.1528 13.89C51.4528 13.61 51.6428 13.37 51.7228 13.17C51.8028 12.93 51.7228 12.76 51.4828 12.66ZM66.7184 13.11C67.5384 12.29 68.0684 11.78 68.3084 11.58C68.4484 11.5 68.5784 11.44 68.6984 11.4C68.8384 11.34 68.9684 11.31 69.0884 11.31C69.8084 11.31 70.2484 11.51 70.4084 11.91C70.5884 12.31 70.6784 13.38 70.6784 15.12C70.6784 16.92 70.6084 17.95 70.4684 18.21C70.4284 18.33 70.3684 18.43 70.2884 18.51C70.2084 18.59 70.1184 18.66 70.0184 18.72C69.9584 18.74 69.9084 18.76 69.8684 18.78C69.8284 18.78 69.7884 18.78 69.7484 18.78C69.7084 18.78 69.6684 18.78 69.6284 18.78C69.6084 18.76 69.5884 18.73 69.5684 18.69C69.4684 18.61 69.3984 17.89 69.3584 16.53C69.2784 15.09 69.1984 14.15 69.1184 13.71C69.0784 13.49 69.0184 13.33 68.9384 13.23C68.8784 13.11 68.7984 13.05 68.6984 13.05C68.4584 13.05 67.9984 13.39 67.3184 14.07C66.6384 14.69 66.0484 15.52 65.5484 16.56C65.1084 17.48 64.7984 18.18 64.6184 18.66C64.5184 19 64.3484 19.27 64.1084 19.47C63.8684 19.67 63.6384 19.74 63.4184 19.68C63.2784 19.62 63.1784 19.46 63.1184 19.2C63.0584 18.92 63.0484 18.64 63.0884 18.36C63.2884 17.54 63.3984 16.93 63.4184 16.53C63.4384 16.39 63.4384 16.25 63.4184 16.11C63.4184 15.97 63.3984 15.83 63.3584 15.69C63.3384 15.53 63.3084 15.38 63.2684 15.24C63.2284 15.06 63.1784 14.91 63.1184 14.79C63.0584 14.67 62.9984 14.57 62.9384 14.49C62.8984 14.39 62.8484 14.32 62.7884 14.28C62.7284 14.24 62.6784 14.22 62.6384 14.22C62.3784 14.22 61.9084 14.9 61.2284 16.26C60.9284 16.82 60.6584 17.28 60.4184 17.64C60.1984 18 60.0084 18.26 59.8484 18.42C59.5484 18.72 59.2484 18.72 58.9484 18.42C58.8284 18.3 58.7684 17.14 58.7684 14.94C58.7684 12.74 58.8284 11.6 58.9484 11.52C59.1684 11.38 59.4584 11.61 59.8184 12.21C59.9984 12.51 60.1284 12.8 60.2084 13.08C60.3084 13.34 60.3684 13.6 60.3884 13.86C60.3884 13.98 60.3984 14.08 60.4184 14.16C60.4584 14.22 60.4984 14.25 60.5384 14.25C60.5984 14.25 60.7284 14.16 60.9284 13.98C61.1284 13.8 61.4084 13.52 61.7684 13.14L62.7884 12.06L63.4184 12.33C63.7984 12.49 64.0184 12.67 64.0784 12.87C64.1384 13.05 64.2784 13.42 64.4984 13.98C64.7384 14.52 64.8684 14.82 64.8884 14.88C64.9084 14.9 65.0484 14.78 65.3084 14.52C65.5884 14.26 66.0584 13.79 66.7184 13.11ZM86.0852 12.06C86.9652 12.06 87.7652 12.45 88.4852 13.23C88.5652 13.35 88.6352 13.46 88.6952 13.56C88.7752 13.64 88.8352 13.72 88.8752 13.8C88.9352 13.88 88.9752 13.95 88.9952 14.01C89.0352 14.09 89.0552 14.21 89.0552 14.37C89.0752 14.51 89.0852 14.67 89.0852 14.85C89.0852 15.49 88.9552 15.97 88.6952 16.29C88.4352 16.61 88.3052 16.87 88.3052 17.07C88.3052 17.13 88.2452 17.23 88.1252 17.37C88.0252 17.51 87.8752 17.68 87.6752 17.88C87.2552 18.3 86.9752 18.51 86.8352 18.51C86.7752 18.51 86.6652 18.56 86.5052 18.66C86.3652 18.76 86.1752 18.91 85.9352 19.11C85.4752 19.49 84.9552 19.69 84.3752 19.71C84.1752 19.71 83.9852 19.69 83.8052 19.65C83.6452 19.61 83.4852 19.56 83.3252 19.5C83.1852 19.42 83.0552 19.32 82.9352 19.2C82.8352 19.1 82.7452 19 82.6652 18.9C82.6052 18.8 82.5552 18.69 82.5152 18.57C82.4552 18.35 82.4052 17.92 82.3652 17.28L82.3352 15.78V15.72H82.2752L81.6152 15.78C80.6152 15.86 80.1152 15.7 80.1152 15.3C80.1152 15.04 80.2952 14.79 80.6552 14.55C80.8352 14.43 81.1352 14.26 81.5552 14.04C81.9752 13.82 82.5052 13.54 83.1452 13.2C84.7052 12.44 85.6852 12.06 86.0852 12.06ZM86.8352 14.01C86.5952 13.71 86.4152 13.56 86.2952 13.56C86.1752 13.54 85.9652 13.62 85.6652 13.8C85.4652 13.94 85.2852 14.12 85.1252 14.34C84.9652 14.56 84.8152 14.83 84.6752 15.15C84.4152 15.77 84.2852 16.35 84.2852 16.89C84.2852 17.03 84.2952 17.15 84.3152 17.25C84.3552 17.35 84.3952 17.44 84.4352 17.52C84.4752 17.6 84.5252 17.66 84.5852 17.7C84.6452 17.74 84.7152 17.77 84.7952 17.79C84.9952 17.81 85.2252 17.75 85.4852 17.61C85.7652 17.45 86.0252 17.23 86.2652 16.95C86.5052 16.67 86.6952 16.38 86.8352 16.08C86.9752 15.84 87.0752 15.63 87.1352 15.45C87.2152 15.25 87.2552 15.08 87.2552 14.94C87.2552 14.8 87.2152 14.66 87.1352 14.52C87.0752 14.36 86.9752 14.19 86.8352 14.01ZM90.8733 29.49C90.6733 29.65 90.4433 29.71 90.1833 29.67C89.9833 29.59 89.8733 29.51 89.8533 29.43C89.8333 29.37 89.8133 29.23 89.7933 29.01C89.7933 28.79 89.7833 28.48 89.7633 28.08C89.7433 27 89.7933 25.99 89.9133 25.05C90.1933 22.05 90.3833 20.16 90.4833 19.38C90.5433 18.48 90.5833 17.05 90.6033 15.09C90.6233 13.23 90.6633 12.19 90.7233 11.97C90.8433 11.73 90.9233 11.5 90.9633 11.28C91.0033 11.04 91.1333 10.86 91.3533 10.74C91.5933 10.62 91.7533 10.57 91.8333 10.59C91.9333 10.61 92.0533 10.7 92.1933 10.86C92.3133 11.04 92.3833 11.3 92.4033 11.64C92.4233 11.98 92.3833 12.24 92.2833 12.42V12.45C92.1833 12.61 92.1033 13.71 92.0433 15.75C91.9833 17.71 91.9933 18.74 92.0733 18.84C92.1533 18.9 92.4433 18.83 92.9433 18.63C93.0033 18.61 93.0533 18.59 93.0933 18.57C93.1533 18.55 93.2133 18.53 93.2733 18.51C93.3333 18.49 93.3933 18.47 93.4533 18.45C93.5333 18.43 93.6133 18.4 93.6933 18.36C93.8533 18.32 93.9833 18.28 94.0833 18.24C94.1833 18.2 94.2433 18.18 94.2633 18.18C94.5833 18.06 94.8833 17.91 95.1633 17.73C95.4433 17.53 95.7033 17.31 95.9433 17.07C96.4433 16.57 96.6933 16.14 96.6933 15.78C96.6933 15.58 96.5633 15.36 96.3033 15.12C96.1633 14.98 96.0233 14.87 95.8833 14.79C95.7433 14.69 95.6033 14.61 95.4633 14.55C95.1233 14.47 94.8533 14.46 94.6533 14.52C94.4733 14.56 94.1833 14.74 93.7833 15.06C93.4833 15.34 93.2333 15.45 93.0333 15.39C92.9333 15.35 92.8533 15.28 92.7933 15.18C92.7333 15.06 92.6933 14.91 92.6733 14.73C92.6133 14.25 92.8233 13.87 93.3033 13.59C93.4633 13.49 93.6433 13.41 93.8433 13.35C94.0433 13.29 94.2633 13.25 94.5033 13.23C94.7633 13.19 95.0433 13.17 95.3433 13.17C95.5633 13.17 95.7633 13.19 95.9433 13.23C96.1233 13.27 96.2933 13.32 96.4533 13.38C96.7333 13.52 97.0633 13.81 97.4433 14.25C98.1033 14.95 98.3233 15.54 98.1033 16.02C97.9833 16.28 97.9233 16.48 97.9233 16.62C97.9233 16.82 97.5633 17.27 96.8433 17.97C96.7033 18.11 96.5633 18.24 96.4233 18.36C96.3033 18.48 96.1933 18.58 96.0933 18.66C96.0133 18.74 95.9333 18.81 95.8533 18.87C95.6133 19.01 95.3733 19.11 95.1333 19.17C95.0333 19.17 94.9133 19.19 94.7733 19.23C94.6533 19.25 94.5133 19.28 94.3533 19.32C94.1933 19.34 94.0233 19.38 93.8433 19.44C93.6633 19.48 93.4633 19.53 93.2433 19.59C93.0433 19.63 92.8233 19.67 92.5833 19.71L91.9833 19.77L91.9233 20.7C91.9033 20.98 91.8733 21.27 91.8333 21.57C91.7933 21.89 91.7433 22.21 91.6833 22.53C91.5633 23.19 91.4533 24.45 91.3533 26.31C91.2733 27.65 91.2133 28.49 91.1733 28.83C91.1533 28.95 91.1233 29.05 91.0833 29.13C91.0633 29.23 91.0333 29.3 90.9933 29.34C90.9733 29.4 90.9333 29.45 90.8733 29.49ZM104.195 11.49C104.675 11.27 105.155 11.16 105.635 11.16C106.135 11.14 106.525 11.24 106.805 11.46C106.985 11.6 107.095 11.75 107.135 11.91C107.195 12.05 107.225 12.31 107.225 12.69C107.225 13.31 107.075 13.84 106.775 14.28C106.495 14.64 105.945 15.11 105.125 15.69C104.305 16.25 103.675 16.6 103.235 16.74C102.815 16.84 102.575 17.02 102.515 17.28C102.375 17.8 102.495 18.14 102.875 18.3C103.055 18.34 103.505 18.25 104.225 18.03C104.945 17.79 105.545 17.52 106.025 17.22C106.245 17.1 106.435 16.99 106.595 16.89C106.775 16.79 106.925 16.71 107.045 16.65C107.185 16.59 107.305 16.54 107.405 16.5C107.625 16.38 107.795 16.29 107.915 16.23C108.055 16.15 108.145 16.1 108.185 16.08C108.225 16.06 108.265 16.04 108.305 16.02C108.345 16 108.385 15.98 108.425 15.96C108.465 15.94 108.505 15.92 108.545 15.9C108.585 15.88 108.625 15.86 108.665 15.84C108.805 15.78 109.395 15.51 110.435 15.03C110.855 14.83 111.195 14.68 111.455 14.58C111.715 14.48 111.925 14.43 112.085 14.43C112.165 14.41 112.225 14.41 112.265 14.43C112.325 14.45 112.365 14.48 112.385 14.52C112.445 14.58 112.475 14.7 112.475 14.88C112.475 15 112.435 15.12 112.355 15.24C112.275 15.36 112.145 15.48 111.965 15.6C111.845 15.68 111.665 15.78 111.425 15.9C111.205 16.02 110.925 16.17 110.585 16.35C110.245 16.51 109.855 16.7 109.415 16.92C109.175 17.04 108.955 17.15 108.755 17.25C108.555 17.35 108.375 17.44 108.215 17.52C108.075 17.6 107.945 17.67 107.825 17.73C107.725 17.79 107.645 17.84 107.585 17.88C107.525 17.92 107.485 17.95 107.465 17.97C107.445 18.01 107.395 18.06 107.315 18.12C107.255 18.16 107.165 18.22 107.045 18.3C106.925 18.36 106.775 18.44 106.595 18.54C106.435 18.62 106.255 18.71 106.055 18.81C105.635 19.03 105.285 19.19 105.005 19.29C104.745 19.39 104.575 19.44 104.495 19.44C104.375 19.44 104.245 19.46 104.105 19.5C103.965 19.52 103.815 19.56 103.655 19.62C103.275 19.74 102.815 19.71 102.275 19.53C101.735 19.33 101.345 19.05 101.105 18.69C100.945 18.43 100.815 18.28 100.715 18.24C100.655 18.22 100.555 18.21 100.415 18.21C100.295 18.21 100.135 18.22 99.9354 18.24C99.5554 18.28 99.3154 18.29 99.2154 18.27C99.1154 18.25 99.0254 18.13 98.9454 17.91C98.8854 17.81 98.8454 17.73 98.8254 17.67C98.8254 17.59 98.8254 17.53 98.8254 17.49C98.8654 17.41 99.0054 17.26 99.2454 17.04C99.6254 16.72 99.8854 16.56 100.025 16.56C100.685 16.54 101.165 16.07 101.465 15.15C101.565 14.79 101.705 14.43 101.885 14.07C102.085 13.69 102.315 13.33 102.575 12.99C102.835 12.65 103.095 12.36 103.355 12.12C103.635 11.86 103.915 11.65 104.195 11.49ZM105.875 12.66C105.555 12.54 105.215 12.6 104.855 12.84C104.315 13.18 103.885 13.58 103.565 14.04C103.245 14.5 103.175 14.82 103.355 15C103.415 15.04 103.515 15.05 103.655 15.03C103.795 14.99 103.985 14.9 104.225 14.76C104.725 14.52 105.165 14.23 105.545 13.89C105.845 13.61 106.035 13.37 106.115 13.17C106.195 12.93 106.115 12.76 105.875 12.66ZM114.931 11.58C114.671 11.68 114.451 11.82 114.271 12C114.131 12.18 113.941 12.29 113.701 12.33C113.601 12.35 113.501 12.35 113.401 12.33C113.321 12.31 113.261 12.26 113.221 12.18C113.181 12.1 113.161 12.01 113.161 11.91C113.161 11.81 113.191 11.71 113.251 11.61C113.331 11.39 113.491 11.16 113.731 10.92C113.971 10.68 114.261 10.48 114.601 10.32C115.321 9.94 115.881 9.89 116.281 10.17C116.541 10.35 116.731 10.6 116.851 10.92C116.971 11.24 117.031 11.64 117.031 12.12C117.031 12.82 117.091 13.19 117.211 13.23C117.251 13.25 117.311 13.24 117.391 13.2C117.471 13.14 117.571 13.06 117.691 12.96C117.811 12.84 117.951 12.69 118.111 12.51C119.111 11.45 119.861 10.92 120.361 10.92C120.541 10.92 120.761 10.96 121.021 11.04C121.301 11.1 121.551 11.19 121.771 11.31C122.011 11.43 122.151 11.54 122.191 11.64C122.191 11.68 122.191 11.73 122.191 11.79C122.211 11.83 122.231 11.91 122.251 12.03C122.271 12.13 122.251 12.19 122.191 12.21C122.071 12.31 121.811 12.34 121.411 12.3C121.311 12.28 121.221 12.27 121.141 12.27C121.061 12.27 120.981 12.27 120.901 12.27C120.841 12.27 120.771 12.28 120.691 12.3C120.631 12.3 120.571 12.3 120.511 12.3C120.271 12.36 119.911 12.5 119.431 12.72C119.391 12.74 119.341 12.79 119.281 12.87C119.221 12.93 119.141 13.02 119.041 13.14C118.961 13.24 118.871 13.37 118.771 13.53C118.691 13.63 118.611 13.75 118.531 13.89C118.471 14.01 118.391 14.15 118.291 14.31C118.211 14.47 118.131 14.64 118.051 14.82C117.971 15 117.881 15.2 117.781 15.42C117.681 15.62 117.581 15.84 117.481 16.08C117.421 16.22 117.371 16.45 117.331 16.77C117.311 17.07 117.301 17.45 117.301 17.91V19.35L117.271 19.38L116.881 19.56C116.781 19.62 116.691 19.66 116.611 19.68C116.531 19.7 116.471 19.7 116.431 19.68C116.351 19.66 116.211 19.56 116.011 19.38C115.731 19.08 115.621 18.83 115.681 18.63C115.861 17.99 115.921 16.76 115.861 14.94C115.821 14.22 115.781 13.61 115.741 13.11C115.701 12.59 115.651 12.2 115.591 11.94C115.551 11.68 115.501 11.54 115.441 11.52C115.441 11.5 115.411 11.49 115.351 11.49C115.311 11.49 115.241 11.5 115.141 11.52C115.061 11.54 114.991 11.56 114.931 11.58ZM129.406 16.2C129.386 16.2 129.356 16.22 129.316 16.26C129.276 16.28 129.226 16.31 129.166 16.35C129.106 16.39 129.036 16.45 128.956 16.53C128.876 16.59 128.786 16.67 128.686 16.77C128.606 16.87 128.516 16.97 128.416 17.07C127.776 17.79 127.346 18.26 127.126 18.48C127.046 18.54 126.956 18.61 126.856 18.69C126.776 18.77 126.676 18.86 126.556 18.96C126.436 19.04 126.306 19.12 126.166 19.2C125.846 19.42 125.586 19.56 125.386 19.62C125.186 19.68 124.896 19.71 124.516 19.71C123.936 19.71 123.536 19.59 123.316 19.35C123.196 19.23 123.116 19.12 123.076 19.02C123.056 18.98 123.036 18.94 123.016 18.9C123.016 18.86 123.006 18.82 122.986 18.78C122.986 18.72 122.976 18.66 122.956 18.6C122.936 18.44 122.926 18.19 122.926 17.85C122.926 17.47 122.936 17.18 122.956 16.98C122.976 16.76 123.016 16.63 123.076 16.59C123.156 16.49 123.306 16.17 123.526 15.63C123.726 15.11 124.056 14.46 124.516 13.68C124.996 12.9 125.326 12.44 125.506 12.3C125.706 12.16 125.866 12.04 125.986 11.94C126.386 11.56 126.926 11.24 127.606 10.98C127.926 10.86 128.196 10.82 128.416 10.86C128.636 10.9 128.886 11.02 129.166 11.22C129.326 11.32 129.466 11.4 129.586 11.46C129.706 11.5 129.816 11.52 129.916 11.52C130.116 11.52 130.316 11.62 130.516 11.82C130.576 11.86 130.616 11.9 130.636 11.94C130.676 11.98 130.706 12.03 130.726 12.09C130.746 12.13 130.766 12.17 130.786 12.21C130.806 12.25 130.816 12.29 130.816 12.33C130.836 12.37 130.846 12.41 130.846 12.45C130.906 14.15 130.996 15.1 131.116 15.3C131.176 15.4 131.216 15.52 131.236 15.66C131.276 15.78 131.296 15.91 131.296 16.05C131.296 16.35 131.416 16.6 131.656 16.8C131.896 17.04 132.216 17.13 132.616 17.07C133.356 16.93 133.816 16.86 133.996 16.86C134.096 16.84 134.176 16.85 134.236 16.89C134.316 16.91 134.376 16.95 134.416 17.01C134.536 17.13 134.556 17.26 134.476 17.4C134.396 17.52 134.176 17.7 133.816 17.94C133.556 18.12 133.316 18.23 133.096 18.27C132.896 18.31 132.536 18.33 132.016 18.33C131.736 18.33 131.506 18.33 131.326 18.33C131.166 18.31 131.046 18.29 130.966 18.27C130.806 18.23 130.616 18.08 130.396 17.82C130.096 17.46 129.886 17.11 129.766 16.77C129.706 16.59 129.646 16.45 129.586 16.35C129.526 16.25 129.466 16.2 129.406 16.2ZM128.596 12.6C128.476 12.5 128.366 12.42 128.266 12.36C128.186 12.3 128.126 12.27 128.086 12.27C128.066 12.27 128.026 12.29 127.966 12.33C127.926 12.35 127.866 12.39 127.786 12.45C127.726 12.49 127.646 12.55 127.546 12.63C127.446 12.71 127.346 12.8 127.246 12.9C126.766 13.32 126.426 13.66 126.226 13.92C125.546 14.76 125.206 15.34 125.206 15.66C125.206 15.78 125.186 15.89 125.146 15.99C125.106 16.09 125.056 16.16 124.996 16.2C124.876 16.3 124.776 16.48 124.696 16.74C124.636 16.98 124.596 17.32 124.576 17.76L124.606 18.03C124.706 18.25 125.036 18.22 125.596 17.94C125.796 17.84 125.996 17.72 126.196 17.58C126.396 17.44 126.596 17.29 126.796 17.13C126.996 16.95 127.206 16.75 127.426 16.53C128.186 15.67 128.676 14.88 128.896 14.16C129.116 13.44 129.016 12.92 128.596 12.6ZM141.271 8.4C141.591 7.94 141.801 7.71 141.901 7.71C141.921 7.71 141.951 7.72 141.991 7.74C142.031 7.74 142.071 7.76 142.111 7.8C142.151 7.84 142.181 7.9 142.201 7.98C142.261 8.06 142.301 8.16 142.321 8.28C142.361 8.4 142.381 8.53 142.381 8.67C142.381 8.93 142.421 9.15 142.501 9.33C142.601 9.51 142.741 9.65 142.921 9.75C143.281 9.93 144.031 10.03 145.171 10.05C145.571 10.07 145.941 10.09 146.281 10.11C146.621 10.13 146.891 10.16 147.091 10.2C147.311 10.24 147.481 10.28 147.601 10.32C147.741 10.34 147.821 10.37 147.841 10.41C147.861 10.43 147.871 10.47 147.871 10.53C147.871 10.57 147.871 10.64 147.871 10.74V10.77L147.841 11.22L145.261 11.25C144.221 11.29 143.511 11.33 143.131 11.37C142.991 11.39 142.861 11.42 142.741 11.46C142.641 11.5 142.551 11.54 142.471 11.58C142.391 11.62 142.311 11.67 142.231 11.73C142.151 11.83 142.061 11.97 141.961 12.15C141.881 12.31 141.791 12.53 141.691 12.81C141.451 13.53 141.381 14.49 141.481 15.69C141.541 16.29 141.621 16.77 141.721 17.13C141.841 17.49 142.001 17.73 142.201 17.85C142.261 17.89 142.361 17.89 142.501 17.85C142.641 17.83 142.801 17.77 142.981 17.67C143.081 17.63 143.171 17.59 143.251 17.55C143.351 17.49 143.451 17.43 143.551 17.37C143.751 17.25 143.951 17.12 144.151 16.98C144.351 16.84 144.551 16.7 144.751 16.56C144.831 16.48 144.921 16.4 145.021 16.32C145.141 16.22 145.261 16.11 145.381 15.99C145.521 15.85 145.671 15.71 145.831 15.57C146.011 15.41 146.201 15.24 146.401 15.06C146.601 14.86 146.811 14.66 147.031 14.46C148.351 13.2 149.201 12.43 149.581 12.15C149.761 12.01 149.911 11.92 150.031 11.88C150.171 11.84 150.271 11.84 150.331 11.88C150.491 12 150.591 12.11 150.631 12.21C150.651 12.25 150.641 12.31 150.601 12.39C150.581 12.47 150.541 12.57 150.481 12.69C150.401 12.83 150.301 12.97 150.181 13.11C150.061 13.25 149.921 13.41 149.761 13.59C149.421 13.93 148.921 14.43 148.261 15.09C147.441 15.89 146.791 16.52 146.311 16.98C145.851 17.44 145.551 17.72 145.411 17.82C144.811 18.3 144.171 18.74 143.491 19.14C142.831 19.52 142.381 19.71 142.141 19.71C141.901 19.71 141.591 19.58 141.211 19.32C140.831 19.04 140.611 18.81 140.551 18.63C140.471 18.39 140.321 18.02 140.101 17.52C139.881 17 139.771 15.9 139.771 14.22V11.7V11.64H139.711H138.211C137.131 11.64 136.321 11.5 135.781 11.22C135.501 11.08 135.321 10.93 135.241 10.77C135.181 10.59 135.201 10.4 135.301 10.2C135.381 10.08 135.541 10 135.781 9.96C136.021 9.94 136.671 9.96 137.731 10.02L139.981 10.14H140.011L140.041 10.11L140.371 9.63C140.671 9.23 140.891 8.93 141.031 8.73C141.171 8.53 141.251 8.42 141.271 8.4ZM155.024 0.629999C155.124 0.389999 155.284 0.239999 155.504 0.18C155.624 0.139999 155.774 0.129999 155.954 0.149998C156.114 0.189999 156.294 0.25 156.494 0.33C156.694 0.409999 156.864 0.499999 157.004 0.6C157.044 0.639999 157.084 0.689999 157.124 0.75C157.164 0.789999 157.184 0.849999 157.184 0.929999C157.204 0.99 157.214 1.05 157.214 1.11C157.194 1.33 157.134 1.51 157.034 1.65C156.894 1.77 156.634 1.83 156.254 1.83C156.054 1.83 155.864 1.8 155.684 1.74C155.524 1.66 155.384 1.54 155.264 1.38C155.084 1.22 154.974 1.09 154.934 0.989998C154.894 0.889998 154.924 0.769999 155.024 0.629999ZM153.884 15C153.884 14.9 153.894 14.79 153.914 14.67C153.934 14.55 153.964 14.42 154.004 14.28C154.024 14.2 154.094 13.99 154.214 13.65C154.234 13.53 154.254 13.42 154.274 13.32C154.314 13.22 154.344 13.14 154.364 13.08C154.384 13 154.404 12.93 154.424 12.87C154.624 12.21 154.784 11.75 154.904 11.49H154.934C154.994 11.37 155.044 11.18 155.084 10.92C155.144 10.64 155.194 10.31 155.234 9.93C155.294 9.17 155.284 8.75 155.204 8.67C155.144 8.65 155.064 8.65 154.964 8.67C154.884 8.69 154.764 8.74 154.604 8.82C154.464 8.9 154.294 9.02 154.094 9.18C153.534 9.62 153.104 10.08 152.804 10.56C152.544 10.96 152.274 11.09 151.994 10.95C151.914 10.91 151.844 10.85 151.784 10.77C151.724 10.67 151.674 10.56 151.634 10.44C151.614 10.32 151.604 10.18 151.604 10.02C151.604 9.62 151.734 9.26 151.994 8.94C152.454 8.4 153.254 7.84 154.394 7.26C154.734 7.08 155.124 6.98 155.564 6.96C156.024 6.96 156.344 7.04 156.524 7.2C156.704 7.36 156.794 7.88 156.794 8.76C156.794 8.98 156.784 9.19 156.764 9.39C156.764 9.57 156.754 9.74 156.734 9.9C156.734 10.06 156.714 10.21 156.674 10.35C156.654 10.47 156.624 10.58 156.584 10.68C156.504 10.96 156.394 11.34 156.254 11.82C156.114 12.3 155.944 12.88 155.744 13.56C155.684 13.9 155.594 14.22 155.474 14.52C155.414 14.68 155.364 14.84 155.324 15C155.284 15.14 155.244 15.28 155.204 15.42C155.204 15.52 155.174 15.72 155.114 16.02C155.054 16.32 155.004 16.54 154.964 16.68C154.924 16.9 154.894 17.09 154.874 17.25C154.874 17.39 154.894 17.47 154.934 17.49C155.034 17.59 155.264 17.46 155.624 17.1C155.664 17.06 155.694 17.02 155.714 16.98C155.754 16.94 155.794 16.9 155.834 16.86C155.874 16.82 155.914 16.78 155.954 16.74C158.054 14.4 159.104 13.13 159.104 12.93C159.104 12.73 159.434 12.18 160.094 11.28C160.274 11.08 160.464 10.96 160.664 10.92C160.764 10.9 160.854 10.91 160.934 10.95C161.014 10.97 161.074 11.03 161.114 11.13C161.154 11.27 161.094 11.6 160.934 12.12C160.854 12.36 160.774 12.56 160.694 12.72C160.634 12.88 160.564 13 160.484 13.08L160.334 13.47C160.334 13.65 160.234 13.84 160.034 14.04C159.914 14.12 159.814 14.22 159.734 14.34C159.654 14.44 159.584 14.56 159.524 14.7C159.364 15.04 158.584 15.91 157.184 17.31C155.784 18.69 154.954 19.44 154.694 19.56C154.454 19.66 154.234 19.71 154.034 19.71C153.854 19.69 153.694 19.61 153.554 19.47C153.434 19.33 153.334 19.15 153.254 18.93C153.194 18.71 153.164 18.44 153.164 18.12C153.164 17.36 153.334 16.58 153.674 15.78C153.814 15.48 153.884 15.22 153.884 15ZM168.065 12.06C168.945 12.06 169.745 12.45 170.465 13.23C170.545 13.35 170.615 13.46 170.675 13.56C170.755 13.64 170.815 13.72 170.855 13.8C170.915 13.88 170.955 13.95 170.975 14.01C171.015 14.09 171.035 14.21 171.035 14.37C171.055 14.51 171.065 14.67 171.065 14.85C171.065 15.49 170.935 15.97 170.675 16.29C170.415 16.61 170.285 16.87 170.285 17.07C170.285 17.13 170.225 17.23 170.105 17.37C170.005 17.51 169.855 17.68 169.655 17.88C169.235 18.3 168.955 18.51 168.815 18.51C168.755 18.51 168.645 18.56 168.485 18.66C168.345 18.76 168.155 18.91 167.915 19.11C167.455 19.49 166.935 19.69 166.355 19.71C166.155 19.71 165.965 19.69 165.785 19.65C165.625 19.61 165.465 19.56 165.305 19.5C165.165 19.42 165.035 19.32 164.915 19.2C164.815 19.1 164.725 19 164.645 18.9C164.585 18.8 164.535 18.69 164.495 18.57C164.435 18.35 164.385 17.92 164.345 17.28L164.315 15.78V15.72H164.255L163.595 15.78C162.595 15.86 162.095 15.7 162.095 15.3C162.095 15.04 162.275 14.79 162.635 14.55C162.815 14.43 163.115 14.26 163.535 14.04C163.955 13.82 164.485 13.54 165.125 13.2C166.685 12.44 167.665 12.06 168.065 12.06ZM168.815 14.01C168.575 13.71 168.395 13.56 168.275 13.56C168.155 13.54 167.945 13.62 167.645 13.8C167.445 13.94 167.265 14.12 167.105 14.34C166.945 14.56 166.795 14.83 166.655 15.15C166.395 15.77 166.265 16.35 166.265 16.89C166.265 17.03 166.275 17.15 166.295 17.25C166.335 17.35 166.375 17.44 166.415 17.52C166.455 17.6 166.505 17.66 166.565 17.7C166.625 17.74 166.695 17.77 166.775 17.79C166.975 17.81 167.205 17.75 167.465 17.61C167.745 17.45 168.005 17.23 168.245 16.95C168.485 16.67 168.675 16.38 168.815 16.08C168.955 15.84 169.055 15.63 169.115 15.45C169.195 15.25 169.235 15.08 169.235 14.94C169.235 14.8 169.195 14.66 169.115 14.52C169.055 14.36 168.955 14.19 168.815 14.01ZM177.023 16.41C177.123 16.19 177.173 15.56 177.173 14.52C177.173 14.26 177.163 14.03 177.143 13.83C177.143 13.61 177.133 13.43 177.113 13.29C177.093 13.13 177.063 13.01 177.023 12.93C177.003 12.85 176.983 12.8 176.963 12.78C176.603 12.66 176.203 12.99 175.763 13.77C175.743 13.85 175.713 13.92 175.673 13.98C175.633 14.04 175.593 14.1 175.553 14.16C175.533 14.2 175.503 14.25 175.463 14.31C175.423 14.37 175.383 14.42 175.343 14.46C175.323 14.5 175.293 14.54 175.253 14.58C175.213 14.62 175.173 14.66 175.133 14.7C174.873 14.94 174.623 15.36 174.383 15.96C174.083 16.66 173.843 17.22 173.663 17.64C173.423 18.2 173.303 18.55 173.303 18.69C173.303 18.87 173.263 19.04 173.183 19.2C173.123 19.34 173.033 19.46 172.913 19.56C172.793 19.66 172.663 19.71 172.523 19.71C172.163 19.71 171.953 19.56 171.893 19.26C171.873 19.2 171.853 19.12 171.833 19.02C171.833 18.92 171.823 18.8 171.803 18.66C171.803 18.52 171.793 18.36 171.773 18.18C171.773 17.98 171.763 17.77 171.743 17.55C171.743 17.31 171.743 17.06 171.743 16.8C171.743 16.52 171.743 16.23 171.743 15.93C171.743 14.35 171.763 13.36 171.803 12.96C171.843 12.54 171.933 12.21 172.073 11.97C172.153 11.83 172.223 11.72 172.283 11.64C172.623 11.24 172.963 11.18 173.303 11.46L173.663 11.76L173.303 12.75C173.203 13.05 173.123 13.31 173.063 13.53C173.023 13.73 173.003 13.89 173.003 14.01C173.003 14.07 173.003 14.13 173.003 14.19C173.023 14.25 173.043 14.31 173.063 14.37C173.083 14.41 173.103 14.45 173.123 14.49C173.163 14.53 173.203 14.57 173.243 14.61C173.363 14.67 173.443 14.7 173.483 14.7C173.503 14.7 173.523 14.69 173.543 14.67C173.583 14.63 173.623 14.57 173.663 14.49C173.743 14.37 173.983 14.04 174.383 13.5C174.643 13.16 174.913 12.78 175.193 12.36C175.293 12.22 175.443 12.08 175.643 11.94C175.843 11.78 176.093 11.62 176.393 11.46C176.953 11.16 177.293 11.01 177.413 11.01C177.593 11.01 177.833 11.13 178.133 11.37C178.293 11.49 178.413 11.61 178.493 11.73C178.573 11.83 178.623 11.93 178.643 12.03C178.683 12.19 178.723 12.35 178.763 12.51C178.803 12.65 178.853 12.79 178.913 12.93C178.973 13.07 179.003 13.23 179.003 13.41C179.023 13.59 179.013 13.78 178.973 13.98C178.933 14.16 178.893 14.38 178.853 14.64C178.813 14.9 178.773 15.21 178.733 15.57C178.713 15.77 178.683 15.96 178.643 16.14C178.623 16.3 178.593 16.45 178.553 16.59C178.533 16.71 178.513 16.81 178.493 16.89C178.273 17.39 178.113 17.74 178.013 17.94C177.873 18.28 177.723 18.5 177.563 18.6C177.483 18.66 177.393 18.7 177.293 18.72C177.213 18.72 177.113 18.7 176.993 18.66C176.853 18.62 176.763 18.54 176.723 18.42L176.783 17.64C176.843 17.04 176.923 16.63 177.023 16.41ZM189.181 11.61C189.501 11.45 189.771 11.35 189.991 11.31C190.231 11.27 190.641 11.27 191.221 11.31C192.441 11.35 193.341 11.48 193.921 11.7C194.061 11.74 194.191 11.8 194.311 11.88C194.431 11.94 194.531 12.01 194.611 12.09C194.711 12.17 194.791 12.26 194.851 12.36C194.911 12.46 194.961 12.57 195.001 12.69C195.061 12.81 195.081 12.93 195.061 13.05C195.041 13.15 194.981 13.25 194.881 13.35C194.761 13.45 194.671 13.51 194.611 13.53C194.571 13.53 194.461 13.47 194.281 13.35C194.041 13.19 193.721 13.08 193.321 13.02C193.101 13 192.751 12.95 192.271 12.87C191.951 12.77 191.811 12.79 191.851 12.93C191.851 13.15 192.131 13.41 192.691 13.71C193.251 14.05 193.791 14.51 194.311 15.09C195.391 16.23 195.911 17.13 195.871 17.79C195.851 18.11 195.691 18.43 195.391 18.75C195.111 19.05 194.681 19.35 194.101 19.65C193.201 19.71 192.171 19.71 191.011 19.65C189.831 19.15 189.071 18.53 188.731 17.79C188.511 17.35 188.471 17.05 188.611 16.89C188.751 16.71 188.871 16.65 188.971 16.71C189.091 16.75 189.341 16.96 189.721 17.34C190.461 18.12 191.491 18.51 192.811 18.51C192.891 18.51 192.961 18.51 193.021 18.51C193.101 18.51 193.171 18.51 193.231 18.51C193.291 18.51 193.341 18.51 193.381 18.51C193.441 18.49 193.491 18.48 193.531 18.48C193.691 18.46 193.811 18.43 193.891 18.39C193.991 18.33 194.111 18.24 194.251 18.12C194.351 18.04 194.421 17.97 194.461 17.91C194.521 17.83 194.561 17.77 194.581 17.73C194.621 17.69 194.641 17.65 194.641 17.61C194.641 17.55 194.591 17.44 194.491 17.28C194.391 17.1 194.241 16.88 194.041 16.62C193.841 16.34 193.661 16.12 193.501 15.96C193.361 15.78 193.241 15.66 193.141 15.6C193.101 15.54 192.961 15.43 192.721 15.27C192.661 15.23 192.601 15.19 192.541 15.15C192.501 15.11 192.461 15.08 192.421 15.06C192.381 15.02 192.341 14.99 192.301 14.97C192.261 14.93 192.231 14.9 192.211 14.88C192.011 14.74 191.821 14.63 191.641 14.55C191.481 14.45 191.331 14.38 191.191 14.34C191.051 14.32 190.931 14.29 190.831 14.25C190.731 14.19 190.651 14.13 190.591 14.07C190.551 14.01 190.491 13.96 190.411 13.92C190.351 13.88 190.271 13.86 190.171 13.86C189.991 13.82 189.781 13.72 189.541 13.56C189.281 13.4 189.041 13.2 188.821 12.96C188.621 12.72 188.501 12.55 188.461 12.45C188.441 12.25 188.471 12.1 188.551 12C188.591 11.96 188.661 11.91 188.761 11.85C188.881 11.77 189.021 11.69 189.181 11.61ZM201.506 11.85C201.826 11.67 202.146 11.58 202.466 11.58C202.806 11.58 203.166 11.67 203.546 11.85C203.986 12.05 204.166 12.31 204.086 12.63C204.026 12.93 203.756 13.08 203.276 13.08C203.176 13.08 203.066 13.09 202.946 13.11C202.846 13.13 202.736 13.16 202.616 13.2C202.496 13.22 202.376 13.26 202.256 13.32C202.136 13.38 202.006 13.45 201.866 13.53C201.746 13.61 201.616 13.7 201.476 13.8C201.356 13.88 201.226 13.98 201.086 14.1C200.946 14.2 200.796 14.32 200.636 14.46C200.496 14.6 200.346 14.74 200.186 14.88C200.026 15.04 199.876 15.19 199.736 15.33C198.456 16.69 198.096 17.63 198.656 18.15C198.816 18.31 199.106 18.38 199.526 18.36C199.966 18.32 200.336 18.21 200.636 18.03C200.996 17.79 201.226 17.67 201.326 17.67C201.526 17.67 202.086 17.44 203.006 16.98C205.346 15.88 207.166 15.36 208.466 15.42C208.646 15.42 208.796 15.43 208.916 15.45C209.036 15.47 209.136 15.49 209.216 15.51C209.316 15.51 209.386 15.52 209.426 15.54C209.486 15.56 209.526 15.59 209.546 15.63C209.586 15.67 209.606 15.72 209.606 15.78C209.606 16.2 209.016 16.51 207.836 16.71C207.296 16.79 206.866 16.93 206.546 17.13C206.246 17.35 205.956 17.46 205.676 17.46C205.576 17.46 205.486 17.47 205.406 17.49C205.326 17.49 205.256 17.5 205.196 17.52C205.136 17.54 205.096 17.57 205.076 17.61H205.046C205.046 17.63 205.026 17.66 204.986 17.7C204.966 17.72 204.926 17.74 204.866 17.76C204.826 17.78 204.766 17.81 204.686 17.85C204.606 17.87 204.516 17.9 204.416 17.94C204.316 17.98 204.206 18.02 204.086 18.06C203.486 18.26 202.916 18.5 202.376 18.78C201.776 19.08 201.196 19.31 200.636 19.47C200.056 19.63 199.496 19.71 198.956 19.71C198.416 19.71 198.066 19.68 197.906 19.62C197.746 19.56 197.536 19.4 197.276 19.14C196.256 18.08 196.366 16.77 197.606 15.21C198.346 14.29 198.976 13.61 199.496 13.17C200.016 12.71 200.686 12.27 201.506 11.85ZM212.017 11.58C211.757 11.68 211.537 11.82 211.357 12C211.217 12.18 211.027 12.29 210.787 12.33C210.687 12.35 210.587 12.35 210.487 12.33C210.407 12.31 210.347 12.26 210.307 12.18C210.267 12.1 210.247 12.01 210.247 11.91C210.247 11.81 210.277 11.71 210.337 11.61C210.417 11.39 210.577 11.16 210.817 10.92C211.057 10.68 211.347 10.48 211.687 10.32C212.407 9.94 212.967 9.89 213.367 10.17C213.627 10.35 213.817 10.6 213.937 10.92C214.057 11.24 214.117 11.64 214.117 12.12C214.117 12.82 214.177 13.19 214.297 13.23C214.337 13.25 214.397 13.24 214.477 13.2C214.557 13.14 214.657 13.06 214.777 12.96C214.897 12.84 215.037 12.69 215.197 12.51C216.197 11.45 216.947 10.92 217.447 10.92C217.627 10.92 217.847 10.96 218.107 11.04C218.387 11.1 218.637 11.19 218.857 11.31C219.097 11.43 219.237 11.54 219.277 11.64C219.277 11.68 219.277 11.73 219.277 11.79C219.297 11.83 219.317 11.91 219.337 12.03C219.357 12.13 219.337 12.19 219.277 12.21C219.157 12.31 218.897 12.34 218.497 12.3C218.397 12.28 218.307 12.27 218.227 12.27C218.147 12.27 218.067 12.27 217.987 12.27C217.927 12.27 217.857 12.28 217.777 12.3C217.717 12.3 217.657 12.3 217.597 12.3C217.357 12.36 216.997 12.5 216.517 12.72C216.477 12.74 216.427 12.79 216.367 12.87C216.307 12.93 216.227 13.02 216.127 13.14C216.047 13.24 215.957 13.37 215.857 13.53C215.777 13.63 215.697 13.75 215.617 13.89C215.557 14.01 215.477 14.15 215.377 14.31C215.297 14.47 215.217 14.64 215.137 14.82C215.057 15 214.967 15.2 214.867 15.42C214.767 15.62 214.667 15.84 214.567 16.08C214.507 16.22 214.457 16.45 214.417 16.77C214.397 17.07 214.387 17.45 214.387 17.91V19.35L214.357 19.38L213.967 19.56C213.867 19.62 213.777 19.66 213.697 19.68C213.617 19.7 213.557 19.7 213.517 19.68C213.437 19.66 213.297 19.56 213.097 19.38C212.817 19.08 212.707 18.83 212.767 18.63C212.947 17.99 213.007 16.76 212.947 14.94C212.907 14.22 212.867 13.61 212.827 13.11C212.787 12.59 212.737 12.2 212.677 11.94C212.637 11.68 212.587 11.54 212.527 11.52C212.527 11.5 212.497 11.49 212.437 11.49C212.397 11.49 212.327 11.5 212.227 11.52C212.147 11.54 212.077 11.56 212.017 11.58ZM225.383 11.49C225.863 11.27 226.343 11.16 226.823 11.16C227.323 11.14 227.713 11.24 227.993 11.46C228.173 11.6 228.283 11.75 228.323 11.91C228.383 12.05 228.413 12.31 228.413 12.69C228.413 13.31 228.263 13.84 227.963 14.28C227.683 14.64 227.133 15.11 226.313 15.69C225.493 16.25 224.863 16.6 224.423 16.74C224.003 16.84 223.763 17.02 223.703 17.28C223.563 17.8 223.683 18.14 224.063 18.3C224.243 18.34 224.693 18.25 225.413 18.03C226.133 17.79 226.733 17.52 227.213 17.22C227.433 17.1 227.623 16.99 227.783 16.89C227.963 16.79 228.113 16.71 228.233 16.65C228.373 16.59 228.493 16.54 228.593 16.5C228.813 16.38 228.983 16.29 229.103 16.23C229.243 16.15 229.333 16.1 229.373 16.08C229.413 16.06 229.453 16.04 229.493 16.02C229.533 16 229.573 15.98 229.613 15.96C229.653 15.94 229.693 15.92 229.733 15.9C229.773 15.88 229.813 15.86 229.853 15.84C229.993 15.78 230.583 15.51 231.623 15.03C232.043 14.83 232.383 14.68 232.643 14.58C232.903 14.48 233.113 14.43 233.273 14.43C233.353 14.41 233.413 14.41 233.453 14.43C233.513 14.45 233.553 14.48 233.573 14.52C233.633 14.58 233.663 14.7 233.663 14.88C233.663 15 233.623 15.12 233.543 15.24C233.463 15.36 233.333 15.48 233.153 15.6C233.033 15.68 232.853 15.78 232.613 15.9C232.393 16.02 232.113 16.17 231.773 16.35C231.433 16.51 231.043 16.7 230.603 16.92C230.363 17.04 230.143 17.15 229.943 17.25C229.743 17.35 229.563 17.44 229.403 17.52C229.263 17.6 229.133 17.67 229.013 17.73C228.913 17.79 228.833 17.84 228.773 17.88C228.713 17.92 228.673 17.95 228.653 17.97C228.633 18.01 228.583 18.06 228.503 18.12C228.443 18.16 228.353 18.22 228.233 18.3C228.113 18.36 227.963 18.44 227.783 18.54C227.623 18.62 227.443 18.71 227.243 18.81C226.823 19.03 226.473 19.19 226.193 19.29C225.933 19.39 225.763 19.44 225.683 19.44C225.563 19.44 225.433 19.46 225.293 19.5C225.153 19.52 225.003 19.56 224.843 19.62C224.463 19.74 224.003 19.71 223.463 19.53C222.923 19.33 222.533 19.05 222.293 18.69C222.133 18.43 222.003 18.28 221.903 18.24C221.843 18.22 221.743 18.21 221.603 18.21C221.483 18.21 221.323 18.22 221.123 18.24C220.743 18.28 220.503 18.29 220.403 18.27C220.303 18.25 220.213 18.13 220.133 17.91C220.073 17.81 220.033 17.73 220.013 17.67C220.013 17.59 220.013 17.53 220.013 17.49C220.053 17.41 220.193 17.26 220.433 17.04C220.813 16.72 221.073 16.56 221.213 16.56C221.873 16.54 222.353 16.07 222.653 15.15C222.753 14.79 222.893 14.43 223.073 14.07C223.273 13.69 223.503 13.33 223.763 12.99C224.023 12.65 224.283 12.36 224.543 12.12C224.823 11.86 225.103 11.65 225.383 11.49ZM227.062 12.66C226.743 12.54 226.403 12.6 226.043 12.84C225.503 13.18 225.073 13.58 224.753 14.04C224.433 14.5 224.363 14.82 224.543 15C224.603 15.04 224.703 15.05 224.843 15.03C224.983 14.99 225.173 14.9 225.413 14.76C225.913 14.52 226.353 14.23 226.733 13.89C227.033 13.61 227.223 13.37 227.303 13.17C227.383 12.93 227.303 12.76 227.062 12.66ZM239.718 11.49C240.198 11.27 240.678 11.16 241.158 11.16C241.658 11.14 242.048 11.24 242.328 11.46C242.508 11.6 242.618 11.75 242.658 11.91C242.718 12.05 242.748 12.31 242.748 12.69C242.748 13.31 242.598 13.84 242.298 14.28C242.018 14.64 241.468 15.11 240.648 15.69C239.828 16.25 239.198 16.6 238.758 16.74C238.338 16.84 238.098 17.02 238.038 17.28C237.898 17.8 238.018 18.14 238.398 18.3C238.578 18.34 239.028 18.25 239.748 18.03C240.468 17.79 241.068 17.52 241.548 17.22C241.768 17.1 241.958 16.99 242.118 16.89C242.298 16.79 242.448 16.71 242.568 16.65C242.708 16.59 242.828 16.54 242.928 16.5C243.148 16.38 243.318 16.29 243.438 16.23C243.578 16.15 243.668 16.1 243.708 16.08C243.748 16.06 243.788 16.04 243.828 16.02C243.868 16 243.908 15.98 243.948 15.96C243.988 15.94 244.028 15.92 244.068 15.9C244.108 15.88 244.148 15.86 244.188 15.84C244.328 15.78 244.918 15.51 245.958 15.03C246.378 14.83 246.718 14.68 246.978 14.58C247.238 14.48 247.448 14.43 247.608 14.43C247.688 14.41 247.748 14.41 247.788 14.43C247.848 14.45 247.888 14.48 247.908 14.52C247.968 14.58 247.998 14.7 247.998 14.88C247.998 15 247.958 15.12 247.878 15.24C247.798 15.36 247.668 15.48 247.488 15.6C247.368 15.68 247.188 15.78 246.948 15.9C246.728 16.02 246.448 16.17 246.108 16.35C245.768 16.51 245.378 16.7 244.938 16.92C244.698 17.04 244.478 17.15 244.278 17.25C244.078 17.35 243.898 17.44 243.738 17.52C243.598 17.6 243.468 17.67 243.348 17.73C243.248 17.79 243.168 17.84 243.108 17.88C243.048 17.92 243.008 17.95 242.988 17.97C242.968 18.01 242.918 18.06 242.838 18.12C242.778 18.16 242.688 18.22 242.568 18.3C242.448 18.36 242.298 18.44 242.118 18.54C241.958 18.62 241.778 18.71 241.578 18.81C241.158 19.03 240.808 19.19 240.528 19.29C240.268 19.39 240.098 19.44 240.018 19.44C239.898 19.44 239.768 19.46 239.628 19.5C239.488 19.52 239.338 19.56 239.178 19.62C238.798 19.74 238.338 19.71 237.798 19.53C237.258 19.33 236.868 19.05 236.628 18.69C236.468 18.43 236.338 18.28 236.238 18.24C236.178 18.22 236.078 18.21 235.938 18.21C235.818 18.21 235.658 18.22 235.458 18.24C235.078 18.28 234.838 18.29 234.738 18.27C234.638 18.25 234.548 18.13 234.468 17.91C234.408 17.81 234.368 17.73 234.348 17.67C234.348 17.59 234.348 17.53 234.348 17.49C234.388 17.41 234.528 17.26 234.768 17.04C235.148 16.72 235.408 16.56 235.548 16.56C236.208 16.54 236.688 16.07 236.988 15.15C237.088 14.79 237.228 14.43 237.408 14.07C237.608 13.69 237.838 13.33 238.098 12.99C238.358 12.65 238.618 12.36 238.878 12.12C239.158 11.86 239.438 11.65 239.718 11.49ZM241.398 12.66C241.078 12.54 240.738 12.6 240.378 12.84C239.838 13.18 239.408 13.58 239.088 14.04C238.768 14.5 238.698 14.82 238.878 15C238.938 15.04 239.038 15.05 239.178 15.03C239.318 14.99 239.508 14.9 239.748 14.76C240.248 14.52 240.688 14.23 241.068 13.89C241.368 13.61 241.558 13.37 241.638 13.17C241.718 12.93 241.638 12.76 241.398 12.66ZM253.964 16.41C254.064 16.19 254.114 15.56 254.114 14.52C254.114 14.26 254.104 14.03 254.084 13.83C254.084 13.61 254.074 13.43 254.054 13.29C254.034 13.13 254.004 13.01 253.964 12.93C253.944 12.85 253.924 12.8 253.904 12.78C253.544 12.66 253.144 12.99 252.704 13.77C252.684 13.85 252.654 13.92 252.614 13.98C252.574 14.04 252.534 14.1 252.494 14.16C252.474 14.2 252.444 14.25 252.404 14.31C252.364 14.37 252.324 14.42 252.284 14.46C252.264 14.5 252.234 14.54 252.194 14.58C252.154 14.62 252.114 14.66 252.074 14.7C251.814 14.94 251.564 15.36 251.324 15.96C251.024 16.66 250.784 17.22 250.604 17.64C250.364 18.2 250.244 18.55 250.244 18.69C250.244 18.87 250.204 19.04 250.124 19.2C250.064 19.34 249.974 19.46 249.854 19.56C249.734 19.66 249.604 19.71 249.464 19.71C249.104 19.71 248.894 19.56 248.834 19.26C248.814 19.2 248.794 19.12 248.774 19.02C248.774 18.92 248.764 18.8 248.744 18.66C248.744 18.52 248.734 18.36 248.714 18.18C248.714 17.98 248.704 17.77 248.684 17.55C248.684 17.31 248.684 17.06 248.684 16.8C248.684 16.52 248.684 16.23 248.684 15.93C248.684 14.35 248.704 13.36 248.744 12.96C248.784 12.54 248.874 12.21 249.014 11.97C249.094 11.83 249.164 11.72 249.224 11.64C249.564 11.24 249.904 11.18 250.244 11.46L250.604 11.76L250.244 12.75C250.144 13.05 250.064 13.31 250.004 13.53C249.964 13.73 249.944 13.89 249.944 14.01C249.944 14.07 249.944 14.13 249.944 14.19C249.964 14.25 249.984 14.31 250.004 14.37C250.024 14.41 250.044 14.45 250.064 14.49C250.104 14.53 250.144 14.57 250.184 14.61C250.304 14.67 250.384 14.7 250.424 14.7C250.444 14.7 250.464 14.69 250.484 14.67C250.524 14.63 250.564 14.57 250.604 14.49C250.684 14.37 250.924 14.04 251.324 13.5C251.584 13.16 251.854 12.78 252.134 12.36C252.234 12.22 252.384 12.08 252.584 11.94C252.784 11.78 253.034 11.62 253.334 11.46C253.894 11.16 254.234 11.01 254.354 11.01C254.534 11.01 254.774 11.13 255.074 11.37C255.234 11.49 255.354 11.61 255.434 11.73C255.514 11.83 255.564 11.93 255.584 12.03C255.624 12.19 255.664 12.35 255.704 12.51C255.744 12.65 255.794 12.79 255.854 12.93C255.914 13.07 255.944 13.23 255.944 13.41C255.964 13.59 255.954 13.78 255.914 13.98C255.874 14.16 255.834 14.38 255.794 14.64C255.754 14.9 255.714 15.21 255.674 15.57C255.654 15.77 255.624 15.96 255.584 16.14C255.564 16.3 255.534 16.45 255.494 16.59C255.474 16.71 255.454 16.81 255.434 16.89C255.214 17.39 255.054 17.74 254.954 17.94C254.814 18.28 254.664 18.5 254.504 18.6C254.424 18.66 254.334 18.7 254.234 18.72C254.154 18.72 254.054 18.7 253.934 18.66C253.794 18.62 253.704 18.54 253.664 18.42L253.724 17.64C253.784 17.04 253.864 16.63 253.964 16.41Z" fill="black"/>
</svg>
