<svg width="200" height="200" viewBox="0 0 200 200" fill="none" xmlns="http://www.w3.org/2000/svg">
<path opacity="0.4" d="M83.332 145.834H116.665" stroke="#333333" stroke-width="10" stroke-linecap="round" stroke-linejoin="round"/>
<path opacity="0.4" d="M16.668 145.834V62.5006C16.668 29.1673 25.0013 20.834 58.3346 20.834" stroke="#333333" stroke-width="10" stroke-linecap="round" stroke-linejoin="round"/>
<path opacity="0.4" d="M183.335 145.834V62.5006C183.335 29.1673 175.001 20.834 141.668 20.834" stroke="#333333" stroke-width="10" stroke-linecap="round" stroke-linejoin="round"/>
<path d="M83.3346 132.577V159.994C83.3346 176.661 76.668 183.327 60.0013 183.327H40.0013C23.3346 183.327 16.668 176.661 16.668 159.994V132.577C16.668 115.911 23.3346 109.244 40.0013 109.244H60.0013C76.668 109.244 83.3346 115.911 83.3346 132.577Z" stroke="#333333" stroke-width="10" stroke-linecap="round" stroke-linejoin="round"/>
<path d="M183.335 132.577V159.994C183.335 176.661 176.668 183.327 160.001 183.327H140.001C123.335 183.327 116.668 176.661 116.668 159.994V132.577C116.668 115.911 123.335 109.244 140.001 109.244H160.001C176.668 109.244 183.335 115.911 183.335 132.577Z" stroke="#333333" stroke-width="10" stroke-linecap="round" stroke-linejoin="round"/>
</svg>
