<svg width="200" height="200" viewBox="0 0 200 200" fill="none" xmlns="http://www.w3.org/2000/svg">
<path d="M87.418 18.5879L45.8346 34.2546C36.2513 37.8379 28.418 49.1712 28.418 59.3379V121.255C28.418 131.088 34.918 144.005 42.8346 149.921L78.668 176.671C90.418 185.505 109.751 185.505 121.501 176.671L157.335 149.921C165.251 144.005 171.751 131.088 171.751 121.255V59.3379C171.751 49.0879 163.918 37.7546 154.335 34.1712L112.751 18.5879C105.668 16.0046 94.3346 16.0046 87.418 18.5879Z" stroke="#333333" stroke-width="10" stroke-linecap="round" stroke-linejoin="round"/>
<g opacity="0.4">
<path d="M99.9987 104.165C109.203 104.165 116.665 96.7034 116.665 87.4987C116.665 78.294 109.203 70.832 99.9987 70.832C90.794 70.832 83.332 78.294 83.332 87.4987C83.332 96.7034 90.794 104.165 99.9987 104.165Z" stroke="#333333" stroke-width="10" stroke-miterlimit="10" stroke-linecap="round" stroke-linejoin="round"/>
<path d="M100 104.166V129.166" stroke="#333333" stroke-width="10" stroke-miterlimit="10" stroke-linecap="round" stroke-linejoin="round"/>
</g>
</svg>
