<svg width="200" height="200" viewBox="0 0 200 200" fill="none" xmlns="http://www.w3.org/2000/svg">
<path d="M83.3346 141.245H51.7513C23.668 141.245 16.668 134.245 16.668 106.161V56.1615C16.668 28.0781 23.668 21.0781 51.7513 21.0781H139.501C167.585 21.0781 174.585 28.0781 174.585 56.1615" stroke="#333333" stroke-width="10" stroke-linecap="round" stroke-linejoin="round"/>
<path d="M83.332 178.911V141.244" stroke="#333333" stroke-width="10" stroke-linecap="round" stroke-linejoin="round"/>
<path opacity="0.4" d="M16.668 107.91H83.3346" stroke="#333333" stroke-width="10" stroke-linecap="round" stroke-linejoin="round"/>
<path d="M56.168 178.922H83.3346" stroke="#333333" stroke-width="10" stroke-linecap="round" stroke-linejoin="round"/>
<path d="M183.335 106.665V154.248C183.335 173.998 178.418 178.915 158.668 178.915H129.085C109.335 178.915 104.418 173.998 104.418 154.248V106.665C104.418 86.9147 109.335 81.998 129.085 81.998H158.668C178.418 81.998 183.335 86.9147 183.335 106.665Z" stroke="#333333" stroke-width="10" stroke-linecap="round" stroke-linejoin="round"/>
<path opacity="0.4" d="M143.703 152.083H143.778" stroke="#333333" stroke-width="11" stroke-linecap="round" stroke-linejoin="round"/>
</svg>
