<svg width="300" height="180" viewBox="0 0 300 180" fill="none" xmlns="http://www.w3.org/2000/svg">
<path d="M113.574 41.9964H111.941V45.61H113.574C114.271 45.61 114.816 45.4566 115.22 45.1357C115.611 44.8287 115.806 44.3822 115.806 43.7962C115.806 43.2102 115.611 42.7777 115.22 42.4568C114.83 42.1499 114.285 41.9824 113.574 41.9824V41.9964Z" fill="#266F37"/>
<path d="M131.14 44.8294C131.517 44.5504 131.712 44.1457 131.712 43.6295C131.712 43.1133 131.531 42.7086 131.14 42.4156C130.763 42.1366 130.247 41.9971 129.563 41.9971H127.777V45.248H129.563C130.233 45.248 130.763 45.1085 131.14 44.8294Z" fill="#266F37"/>
<path d="M119.617 46.0984H122.589L121.11 42.2754L119.617 46.0984Z" fill="#266F37"/>
<path d="M169.94 47.7868C170.4 48.0658 170.931 48.1914 171.503 48.1914C172.075 48.1914 172.591 48.0519 173.051 47.7868C173.512 47.5077 173.874 47.131 174.14 46.6566C174.405 46.1683 174.53 45.6242 174.53 45.0102C174.53 44.3963 174.405 43.8522 174.14 43.3639C173.874 42.8755 173.512 42.4988 173.051 42.2337C172.591 41.9547 172.061 41.8291 171.489 41.8291C170.917 41.8291 170.386 41.9686 169.926 42.2337C169.466 42.5128 169.103 42.8895 168.852 43.3639C168.587 43.8522 168.461 44.3963 168.461 45.0102C168.461 45.6242 168.587 46.1683 168.852 46.6566C169.117 47.145 169.479 47.5217 169.94 47.7868Z" fill="#266F37"/>
<path d="M282.941 32.7323C282.941 32.7323 187.144 0 149.793 0C112.442 0 16.6313 32.7323 16.6313 32.7323L0 79.8496L16.6313 125.962C16.6313 125.962 90.3558 166.494 149.793 166.494C209.23 166.494 282.955 125.962 282.955 125.962L299.586 80.6589L282.955 32.7184L282.941 32.7323ZM177.809 41.0759H178.814V48.0381H183.014V48.9729H177.809V41.0759ZM167.973 42.9037C168.322 42.2758 168.796 41.7735 169.41 41.4247C170.024 41.0759 170.708 40.8945 171.475 40.8945C172.242 40.8945 172.926 41.0759 173.54 41.4247C174.154 41.7735 174.642 42.2758 174.991 42.9037C175.34 43.5315 175.521 44.2431 175.521 45.0244C175.521 45.8058 175.354 46.5173 175.005 47.1452C174.656 47.773 174.182 48.2753 173.568 48.6241C172.954 48.9729 172.27 49.1543 171.503 49.1543C170.736 49.1543 170.052 48.9729 169.438 48.6241C168.824 48.2753 168.336 47.773 167.987 47.1452C167.638 46.5173 167.457 45.8058 167.457 45.0244C167.457 44.2431 167.624 43.5315 167.973 42.9037ZM149.374 31.2673V17.9149L166.899 24.5841L150.686 30.7651V49.1543H149.374V31.2673ZM158.974 46.6708C159.225 47.1591 159.588 47.5359 160.062 47.8149C160.522 48.094 161.053 48.2195 161.639 48.2195C162.155 48.2195 162.629 48.1079 163.034 47.8986C163.452 47.6754 163.787 47.3824 164.038 47.0057C164.29 46.6289 164.443 46.1964 164.471 45.736H161.429V44.843H165.545V45.1918C165.545 45.9592 165.378 46.6289 165.029 47.2429C164.68 47.8428 164.206 48.3172 163.606 48.652C163.006 48.9869 162.336 49.1543 161.597 49.1543C160.857 49.1543 160.132 48.9729 159.532 48.6241C158.932 48.2753 158.444 47.773 158.109 47.1452C157.76 46.5173 157.592 45.8058 157.592 45.0244C157.592 44.2431 157.76 43.5315 158.109 42.9037C158.457 42.2758 158.932 41.7875 159.532 41.4247C160.132 41.0619 160.829 40.8945 161.597 40.8945C162.225 40.8945 162.811 41.0061 163.341 41.2433C163.871 41.4805 164.318 41.8014 164.68 42.206C165.043 42.6107 165.28 43.0711 165.42 43.5734H164.331C164.234 43.2385 164.038 42.9455 163.787 42.6804C163.522 42.4153 163.201 42.206 162.839 42.0665C162.462 41.913 162.071 41.8433 161.639 41.8433C161.053 41.8433 160.536 41.9828 160.076 42.2479C159.616 42.5269 159.253 42.9037 159.002 43.378C158.737 43.8664 158.611 44.4105 158.611 45.0244C158.611 45.6383 158.737 46.1825 159.002 46.6708H158.974ZM135.031 41.0759H136.036V45.6244L139.971 41.0759H141.226L138.073 44.7035L141.45 48.9729H140.166L137.417 45.4569L136.036 47.0336V48.9729H135.031V41.0759ZM126.786 41.0759H129.66C130.302 41.0759 130.846 41.1736 131.306 41.3828C131.767 41.5921 132.115 41.8851 132.366 42.2758C132.604 42.6665 132.729 43.1129 132.729 43.6292C132.729 44.1873 132.59 44.6617 132.311 45.0663C132.032 45.4709 131.627 45.7639 131.097 45.9592L133.022 48.9729H131.836L130.092 46.1685C129.897 46.1685 129.757 46.1825 129.66 46.1825H127.79V48.9729H126.786V41.0759ZM32.83 86.6863C29.2861 86.6863 26.398 83.8121 26.398 80.2543C26.398 76.6964 29.2722 73.8222 32.83 73.8222C36.3879 73.8222 39.2621 76.6964 39.2621 80.2543C39.2621 83.8121 36.3879 86.6863 32.83 86.6863ZM111.522 71.4503H108.438L100.764 103.485H90.7046L84.9702 76.2778H84.9144L79.1799 103.485H69.0644L61.3906 71.4503H58.3071V64.1532H73.1525V71.4503H69.9713L74.4082 92.4487L80.338 64.1671H89.5047L95.4345 92.4487L99.8713 71.4503H96.6902V64.1532H111.536V71.4503H111.522ZM116.433 45.2337C116.182 45.6523 115.819 45.9732 115.345 46.1964C114.87 46.4197 114.312 46.5313 113.656 46.5313H111.94V48.945H110.936V41.048H113.642C114.298 41.048 114.856 41.1596 115.331 41.3828C115.805 41.6061 116.168 41.927 116.419 42.3456C116.67 42.7641 116.796 43.2385 116.796 43.7827C116.796 44.3268 116.67 44.8012 116.419 45.2198L116.433 45.2337ZM118.498 48.945H117.451L120.605 41.048H121.665L124.804 48.945H123.702L122.935 46.9917H119.251L118.484 48.945H118.498ZM151.328 144.519C133.929 144.519 120.591 135.757 120.005 120.172H138.185C138.771 126.074 143.919 129.339 151.425 129.339C159.336 129.339 164.959 125.572 164.959 117.423C164.959 109.275 159.323 105.396 151.425 105.396C145.789 105.396 141.84 107.127 139.078 110.894H121.288L123.856 64.5438H178.898V86.7561H161.694V79.6264H139.761L138.673 95.2112C143.319 92.5603 147.17 91.2348 154.983 91.2348C172.87 91.2348 183.056 101.936 183.056 117.117C183.056 133.525 171.698 144.519 151.328 144.519ZM190.45 41.9828H186.097V44.6756H190.032V45.5965H186.097V48.959H185.093V41.0619H190.45V41.9828ZM234.01 104.169H216.472V96.9832H219.667L212.886 87.6351L207.5 92.4626V96.8716H210.64V104.155H195.292V96.8716H198.431V72.12H195.292V64.8368H210.64V72.12H207.5V83.1005L219.75 72.0084H216.555V64.8229H233.745V72.106H230.605L219.695 81.9146L230.857 96.8576H233.996V104.141L234.01 104.169ZM267.384 86.6724C263.84 86.6724 260.952 83.7982 260.952 80.2403C260.952 76.6824 263.826 73.8082 267.384 73.8082C270.942 73.8082 273.816 76.6824 273.816 80.2403C273.816 83.7982 270.942 86.6724 267.384 86.6724Z" fill="#266F37"/>
<path d="M52.6808 158.178L53.1691 152.471L52.304 152.15L48.8857 156.713L49.374 151.02L48.5229 150.699L47.9648 157.815L48.788 158.136L52.2343 153.601L51.7878 159.28L52.611 159.587L56.9362 153.908L56.1131 153.601L52.6808 158.178Z" fill="#266F37"/>
<path d="M65.2863 156.853L64.4213 156.546L59.5938 162.127L60.4588 162.42L61.6308 161.039L64.6445 162.085L64.7143 163.899L65.6212 164.206L65.2724 156.839L65.2863 156.853ZM62.1889 160.397L64.491 157.69L64.6306 161.234L62.1889 160.397Z" fill="#266F37"/>
<path d="M74.9813 160.048L74.1442 159.797L72.1211 166.327L76.4324 167.666L76.6696 166.899L73.1954 165.81L74.9813 160.048Z" fill="#266F37"/>
<path d="M88.961 164.122L84.6358 167.024L85.6683 163.215L84.8311 162.992L83.0312 169.592L83.8684 169.829L84.3149 168.196L85.8217 167.192L87.3146 170.764L88.389 171.057L86.5333 166.717L90.0075 164.401L88.961 164.122Z" fill="#266F37"/>
<path d="M103.039 174.53L103.904 174.698L104.476 171.852L107.811 172.521L107.978 171.74L104.63 171.07L105.104 168.782L108.801 169.535L108.955 168.74L104.406 167.819L103.039 174.53Z" fill="#266F37"/>
<path d="M115.498 169.901L114.371 176.658L115.224 176.801L116.351 170.043L115.498 169.901Z" fill="#266F37"/>
<path d="M125.364 177.21L123.746 171.182L122.797 171.057L124.75 178.2L125.685 178.312L129.313 171.866L128.406 171.754L125.364 177.21Z" fill="#266F37"/>
<path d="M135.254 179.302L140.026 179.637L140.081 178.856L136.175 178.577L136.342 176.275L139.886 176.526L139.942 175.731L136.398 175.48L136.551 173.331L140.388 173.596L140.444 172.815L135.742 172.466L135.254 179.302Z" fill="#266F37"/>
<path d="M160.606 173.01L159.518 173.038L156.225 177.084L156.113 173.135L155.234 173.163L155.43 180L156.309 179.986L156.253 178.298L157.411 176.902L159.881 179.874L160.983 179.846L157.955 176.233L160.606 173.01Z" fill="#266F37"/>
<path d="M167.394 172.563L166.531 172.629L167.056 179.459L167.918 179.393L167.394 172.563Z" fill="#266F37"/>
<path d="M175.341 177.866L174.615 171.866L173.75 171.978L174.573 178.773L179.052 178.229L178.954 177.419L175.341 177.866Z" fill="#266F37"/>
<path d="M189.867 173.065C189.755 172.395 189.504 171.823 189.113 171.321C188.723 170.833 188.234 170.484 187.662 170.261C187.09 170.051 186.476 169.995 185.821 170.107C185.165 170.219 184.607 170.47 184.132 170.861C183.658 171.251 183.323 171.74 183.114 172.326C182.905 172.912 182.863 173.539 182.974 174.209C183.086 174.879 183.337 175.451 183.728 175.939C184.118 176.428 184.607 176.776 185.179 177C185.751 177.209 186.365 177.265 187.02 177.153C187.676 177.041 188.234 176.79 188.709 176.4C189.183 176.009 189.532 175.521 189.727 174.935C189.937 174.349 189.978 173.721 189.867 173.051V173.065ZM188.904 174.67C188.751 175.116 188.499 175.493 188.137 175.8C187.774 176.107 187.355 176.288 186.867 176.372C186.379 176.455 185.918 176.414 185.472 176.246C185.039 176.079 184.663 175.814 184.383 175.437C184.09 175.06 183.895 174.614 183.811 174.084C183.728 173.567 183.756 173.079 183.909 172.619C184.063 172.172 184.314 171.795 184.676 171.488C185.025 171.195 185.458 171 185.946 170.916C186.448 170.833 186.909 170.874 187.341 171.042C187.774 171.209 188.137 171.474 188.43 171.851C188.723 172.228 188.918 172.674 189.002 173.205C189.085 173.721 189.058 174.209 188.904 174.67Z" fill="#266F37"/>
<path d="M199.909 167.513L198.402 172.592L194.9 168.601L194.16 168.755L195.611 175.452L196.462 175.257L195.388 170.332L198.304 173.68L198.932 173.541L200.188 169.285L201.262 174.224L202.113 174.029L200.662 167.346L199.909 167.513Z" fill="#266F37"/>
<path d="M208.116 171.741L207.544 169.508L210.976 168.615L210.781 167.848L207.334 168.741L206.804 166.648L210.516 165.685L210.32 164.918L205.758 166.104L207.474 172.731L212.12 171.517L211.925 170.75L208.116 171.741Z" fill="#266F37"/>
<path d="M220.269 162.043L214.855 163.647L215.093 164.429L217.381 163.745L219.097 169.535L219.934 169.284L218.218 163.494L220.492 162.81L220.269 162.043Z" fill="#266F37"/>
<path d="M227.692 166.02L226.966 163.829L230.343 162.713L230.092 161.959L226.715 163.076L226.031 161.039L229.687 159.825L229.436 159.071L224.957 160.564L227.12 167.052L231.668 165.545L231.417 164.792L227.692 166.02Z" fill="#266F37"/>
<path d="M239.254 160.062C239.631 159.755 239.868 159.393 239.979 158.974C240.091 158.569 240.063 158.137 239.896 157.677C239.742 157.258 239.505 156.923 239.198 156.686C238.891 156.449 238.514 156.309 238.068 156.281C237.635 156.253 237.147 156.323 236.631 156.518L234.301 157.37L236.645 163.802L237.468 163.509L236.645 161.234L238.166 160.676C238.249 160.648 238.361 160.607 238.514 160.537L240.761 162.309L241.723 161.96L239.254 160.076V160.062ZM238.975 159.128C238.752 159.462 238.361 159.741 237.817 159.937L236.366 160.467L235.403 157.816L236.854 157.286C237.398 157.091 237.873 157.049 238.263 157.16C238.654 157.272 238.919 157.551 239.086 157.97C239.24 158.402 239.212 158.779 238.989 159.128H238.975Z" fill="#266F37"/>
<path d="M249.487 155.597C249.026 155.429 248.398 155.402 247.589 155.541C247.087 155.625 246.682 155.667 246.361 155.667C246.054 155.667 245.803 155.625 245.622 155.527C245.44 155.43 245.301 155.276 245.217 155.053C245.105 154.76 245.147 154.467 245.343 154.188C245.538 153.895 245.873 153.658 246.347 153.476C246.822 153.295 247.24 153.253 247.617 153.365C247.994 153.476 248.273 153.685 248.468 154.02L249.305 153.685C249.138 153.337 248.887 153.044 248.552 152.848C248.217 152.639 247.84 152.527 247.422 152.513C247.003 152.499 246.557 152.569 246.11 152.751C245.65 152.932 245.273 153.169 244.966 153.448C244.659 153.727 244.464 154.034 244.352 154.369C244.254 154.704 244.268 155.053 244.408 155.388C244.617 155.904 244.938 156.239 245.398 156.392C245.859 156.546 246.473 156.56 247.254 156.434C247.77 156.35 248.175 156.309 248.496 156.309C248.803 156.309 249.054 156.364 249.249 156.462C249.445 156.56 249.584 156.727 249.668 156.964C249.752 157.174 249.752 157.383 249.682 157.606C249.612 157.829 249.473 158.025 249.277 158.206C249.082 158.387 248.817 158.541 248.51 158.666C248.008 158.862 247.533 158.918 247.115 158.792C246.696 158.68 246.389 158.429 246.194 158.053L245.357 158.387C245.538 158.778 245.817 159.099 246.166 159.308C246.515 159.532 246.905 159.643 247.352 159.657C247.798 159.671 248.259 159.587 248.733 159.406C249.194 159.225 249.57 158.987 249.891 158.68C250.212 158.373 250.421 158.053 250.519 157.69C250.631 157.327 250.603 156.964 250.463 156.588C250.268 156.099 249.947 155.778 249.487 155.611V155.597Z" fill="#266F37"/>
</svg>
