<svg width="121" height="121" viewBox="0 0 121 121" fill="none" xmlns="http://www.w3.org/2000/svg">
<ellipse cx="60.1939" cy="60.3257" rx="60.1939" ry="60.3257" fill="black"/>
<path fill-rule="evenodd" clip-rule="evenodd" d="M59.5527 25.1275C60.0096 24.8806 60.5612 24.917 60.9841 25.222L84.5081 42.1875C84.8795 42.4553 85.1008 42.8942 85.1008 43.3627C85.1008 43.8312 84.8795 44.2701 84.5081 44.538L62.6137 60.3282L84.5081 76.1184C84.8795 76.3862 85.1008 76.8252 85.1008 77.2937C85.1008 77.7622 84.8795 78.2011 84.5081 78.4689L60.9841 95.4344C60.5612 95.7394 60.0096 95.7758 59.5527 95.5289C59.0957 95.282 58.8093 94.7927 58.8093 94.2592V63.0719L37.4601 78.4689C36.833 78.9212 35.9705 78.7616 35.5337 78.1125C35.0968 77.4634 35.251 76.5706 35.878 76.1184L57.7724 60.3282L35.878 44.538C35.251 44.0857 35.0968 43.193 35.5337 42.5439C35.9705 41.8948 36.833 41.7352 37.4601 42.1875L58.8093 57.5845V26.3972C58.8093 25.8637 59.0957 25.3744 59.5527 25.1275ZM61.5768 63.0719L81.2964 77.2937L61.5768 91.5154V63.0719ZM61.5768 57.5845V29.141L81.2964 43.3627L61.5768 57.5845Z" fill="white"/>
</svg>
