<svg width="20" height="20" viewBox="0 0 20 20" fill="none" xmlns="http://www.w3.org/2000/svg">
<path fill-rule="evenodd" clip-rule="evenodd" d="M14.352 5.58912C14.384 5.64506 14.44 5.68502 14.512 5.68502C16.432 5.68502 18 7.25128 18 9.16915V13.9159C18 15.8337 16.432 17.4 14.512 17.4H5.488C3.56 17.4 2 15.8337 2 13.9159V9.16915C2 7.25128 3.56 5.68502 5.488 5.68502C5.552 5.68502 5.616 5.65305 5.64 5.58912L5.688 5.49323C5.71558 5.43519 5.74388 5.37558 5.77261 5.31506C5.97727 4.88397 6.2037 4.40704 6.344 4.12675C6.712 3.40755 7.336 3.00799 8.112 3H11.88C12.656 3.00799 13.288 3.40755 13.656 4.12675C13.782 4.37849 13.974 4.78401 14.159 5.17484C14.1972 5.25545 14.2351 5.33544 14.272 5.41332L14.352 5.58912ZM13.7667 8.66053C13.7667 9.06008 14.0867 9.37973 14.4867 9.37973C14.8867 9.37973 15.2147 9.06008 15.2147 8.66053C15.2147 8.26097 14.8867 7.93333 14.4867 7.93333C14.0867 7.93333 13.7667 8.26097 13.7667 8.66053ZM8.61856 9.89619C8.99456 9.52061 9.48256 9.32083 10.0026 9.32083C10.5226 9.32083 11.0106 9.52061 11.3786 9.8882C11.7466 10.2558 11.9466 10.7433 11.9466 11.2627C11.9386 12.3335 11.0746 13.2045 10.0026 13.2045C9.48256 13.2045 8.99456 13.0047 8.62656 12.6371C8.25856 12.2696 8.05856 11.7821 8.05856 11.2627V11.2547C8.05056 10.7512 8.25056 10.2638 8.61856 9.89619ZM12.2185 13.4829C11.6505 14.0502 10.8665 14.4019 10.0025 14.4019C9.16248 14.4019 8.37848 14.0742 7.77848 13.4829C7.18648 12.8835 6.85848 12.1004 6.85848 11.2613C6.85048 10.4303 7.17848 9.64714 7.77048 9.0478C8.37048 8.44847 9.16248 8.12083 10.0025 8.12083C10.8425 8.12083 11.6345 8.44847 12.2265 9.03981C12.8185 9.63915 13.1465 10.4303 13.1465 11.2613C13.1385 12.1324 12.7865 12.9155 12.2185 13.4829Z" fill="white"/>
</svg>
