<svg width="111" height="112" viewBox="0 0 111 112" fill="none" xmlns="http://www.w3.org/2000/svg">
<path d="M0.5 56C0.5 77.4786 0.5 111.5 55.5 111.5C110.5 111.5 110.5 77.4786 110.5 56C110.5 34.5214 110.5 0.499999 55.5 0.499999C0.5 0.499999 0.5 34.5214 0.5 56Z" fill="#EDF5F6"/>
<path d="M57.5967 86.5661C57.281 86.5886 57.033 86.4985 56.8526 86.2955C56.6722 86.1151 56.582 85.8671 56.582 85.5515V82.7781C56.582 82.4624 56.6722 82.2144 56.8526 82.034C57.033 81.8536 57.281 81.7634 57.5967 81.7634H61.7229L61.6891 78.6856H61.1818C59.6034 78.6856 58.8143 77.9077 58.8143 76.3519L58.7804 69.5876C58.7804 68.7984 58.9947 68.2122 59.4231 67.8288C59.8515 67.423 60.4152 67.22 61.1142 67.22L73.8311 67.1862V65.4275H59.7275C59.3667 65.4275 59.0736 65.326 58.8481 65.1231C58.6452 64.8976 58.5437 64.6045 58.5437 64.2437V61.6056C58.5437 61.2449 58.6452 60.963 58.8481 60.7601C59.0736 60.5346 59.3667 60.4219 59.7275 60.4219L77.4162 60.4895C78.1152 60.4895 78.6789 60.6924 79.1073 61.0983C79.5583 61.4816 79.7725 62.0679 79.7499 62.857L79.5808 69.3846C79.5583 70.1287 79.3554 70.7037 78.972 71.1096C78.5887 71.5154 78.0025 71.7296 77.2133 71.7522L64.5301 71.8536V73.7476L78.4985 73.7815C78.8593 73.7364 79.1186 73.7589 79.2764 73.8491C79.4568 73.9393 79.5696 74.1422 79.6147 74.4579V76.9269C79.7274 77.6033 79.4906 77.9979 78.9044 78.1107L76.9766 78.1783L76.9427 81.6958H80.7984C81.1141 81.6958 81.3621 81.786 81.5425 81.9663C81.7229 82.1467 81.8131 82.3947 81.8131 82.7104V85.1118C81.8131 85.4274 81.7229 85.6642 81.5425 85.822C81.3621 86.0024 81.1141 86.1039 80.7984 86.1264L57.5967 86.5661ZM67.3374 81.7296H71.3283L71.2945 78.3812L67.3712 78.4827L67.3374 81.7296Z" fill="#00423A"/>
<path d="M28.2422 75.8713C28.2422 75.5556 28.3324 75.3076 28.5128 75.1272C28.6931 74.9468 28.9412 74.8566 29.2568 74.8566H34.7021L34.6683 73.8081C34.4428 73.7405 34.2174 73.6728 33.9919 73.6052C33.0449 73.2444 32.2106 72.7597 31.4891 72.1509C30.7901 71.5195 30.2377 70.7867 29.8318 69.9525C29.4259 69.0956 29.223 68.1599 29.223 67.1452C29.223 66.1306 29.4259 65.1949 29.8318 64.338C30.2377 63.4587 30.7901 62.7033 31.4891 62.072C32.2106 61.4181 33.0449 60.9108 33.9919 60.55C34.9614 60.1667 35.9986 59.975 37.1035 59.975C38.2083 59.975 39.2343 60.1667 40.1813 60.55C41.1283 60.9108 41.9513 61.4181 42.6503 62.072C43.3492 62.7033 43.9017 63.4587 44.3075 64.338C44.7134 65.1949 44.9163 66.1306 44.9163 67.1452C44.9163 68.1599 44.7134 69.0956 44.3075 69.9525C43.9017 70.7867 43.3492 71.5195 42.6503 72.1509C41.9513 72.7597 41.1283 73.2444 40.1813 73.6052V74.7551C41.0832 74.71 41.9738 74.665 42.8532 74.6199C43.7551 74.5748 44.657 74.5071 45.5589 74.4169C46.1452 74.3493 46.4721 74.6537 46.5398 75.3301L46.7427 77.3594C46.7878 77.6751 46.7089 77.9006 46.5059 78.0359C46.3256 78.1711 46.0888 78.2613 45.7957 78.3064C43.1125 78.6446 40.4293 78.8814 37.7461 79.0167C35.0629 79.152 32.2332 79.2309 29.2568 79.2534C28.9412 79.2534 28.6931 79.1632 28.5128 78.9829C28.3324 78.8025 28.2422 78.5545 28.2422 78.2388V75.8713ZM49.0088 81.3166C48.3323 81.3166 47.9941 80.9784 47.9941 80.3019L47.7235 60.7529C47.7235 60.0765 48.0505 59.7383 48.7044 59.7383H52.8306C53.507 59.7383 53.834 60.0765 53.8114 60.7529L53.6423 67.754H56.4495C56.8103 67.754 57.0922 67.8668 57.2951 68.0923C57.5206 68.2952 57.6333 68.577 57.6333 68.9378V71.7112C57.6333 72.072 57.5206 72.3651 57.2951 72.5906C57.0922 72.7935 56.8103 72.8949 56.4495 72.8949H53.507L53.3379 80.3019C53.3379 80.9784 52.9997 81.3166 52.3233 81.3166H49.0088ZM36.1565 89.9073C35.3899 89.9298 34.8036 89.7382 34.3977 89.3323C34.0144 88.9265 33.8115 88.3402 33.789 87.5736L33.586 81.5533C33.5409 80.8769 33.8679 80.5387 34.5669 80.5387H38.2873C38.9411 80.5387 39.2681 80.8769 39.2681 81.5533L39.2004 85.1046H52.4586C53.1125 85.1046 53.4394 85.3977 53.4394 85.984V88.6221C53.4394 89.3211 53.135 89.6705 52.5262 89.6705L36.1565 89.9073ZM34.5669 67.1452C34.5669 67.9795 34.8487 68.656 35.4124 69.1746C35.9761 69.6706 36.6525 69.9186 37.4417 69.9186C38.2309 69.9186 38.9073 69.6706 39.471 69.1746C40.0347 68.656 40.3166 67.9795 40.3166 67.1452C40.3166 66.311 40.0347 65.6458 39.471 65.1498C38.9073 64.6312 38.2309 64.3719 37.4417 64.3719C36.6525 64.3719 35.9761 64.6312 35.4124 65.1498C34.8487 65.6458 34.5669 66.311 34.5669 67.1452Z" fill="#00423A"/>
<path d="M64.5192 53.199C63.7977 52.5677 63.234 51.8236 62.8281 50.9668C62.4448 50.11 62.2532 49.1855 62.2532 48.1934C62.2532 47.2013 62.4448 46.2656 62.8281 45.3862C63.234 44.5068 63.7977 43.7402 64.5192 43.0863C65.2408 42.4324 66.0976 41.9138 67.0897 41.5305C68.1043 41.1472 69.2204 40.9555 70.438 40.9555C71.6331 40.9555 72.7266 41.1472 73.7187 41.5305C74.7334 41.9138 75.5902 42.4324 76.2892 43.0863C77.0107 43.7402 77.5632 44.5068 77.9465 45.3862C78.3523 46.2656 78.5553 47.2013 78.5553 48.1934C78.5553 49.1855 78.3523 50.11 77.9465 50.9668C77.5632 51.8236 77.0107 52.5677 76.2892 53.199C75.5902 53.8304 74.7334 54.3264 73.7187 54.6872C72.7266 55.048 71.6331 55.2283 70.438 55.2283C69.2204 55.2283 68.1043 55.048 67.0897 54.6872C66.0976 54.3264 65.2408 53.8304 64.5192 53.199ZM67.3264 48.1934C67.3264 48.9826 67.6308 49.6477 68.2396 50.1889C68.8484 50.73 69.6489 51.0006 70.641 51.0006C71.6105 51.0006 72.3997 50.73 73.0085 50.1889C73.6173 49.6477 73.9217 48.9826 73.9217 48.1934C73.9217 47.4042 73.6173 46.7391 73.0085 46.1979C72.3997 45.6342 71.6105 45.3524 70.641 45.3524C69.6038 45.3524 68.792 45.6342 68.2058 46.1979C67.6195 46.7391 67.3264 47.4042 67.3264 48.1934ZM75.004 40.4482C74.3275 40.4482 73.9893 40.11 73.9893 39.4336L73.7864 24.1123C73.7864 23.4359 74.1133 23.0977 74.7672 23.0977H78.8935C79.5699 23.0977 79.8968 23.4359 79.8743 24.1123L79.739 29.4223H82.5124C82.8732 29.4223 83.155 29.5351 83.3579 29.7605C83.5834 29.9635 83.6962 30.2453 83.6962 30.6061V33.3795C83.6962 33.7402 83.5834 34.0334 83.3579 34.2588C83.155 34.4618 82.8732 34.5632 82.5124 34.5632H79.6375L79.5361 39.4336C79.491 40.11 79.1528 40.4482 78.5214 40.4482H75.004ZM54.8462 37.9792C54.6658 37.6636 54.632 37.3704 54.7447 37.0999C54.88 36.8067 55.1393 36.5587 55.5226 36.3558C57.4166 35.3637 59.0401 34.2588 60.393 33.0413C61.7684 31.8011 62.8056 30.3806 63.5046 28.7797H56.4358C56.03 28.7797 55.703 28.6557 55.455 28.4077C55.207 28.1596 55.0829 27.8327 55.0829 27.4268V25.127C55.0829 24.7211 55.207 24.3942 55.455 24.1461C55.703 23.8981 56.03 23.7741 56.4358 23.7741H68.9161C69.615 23.7741 70.1336 23.977 70.4719 24.3829C70.8326 24.7662 70.9341 25.3073 70.7762 26.0063C70.5282 27.1337 70.1562 28.2273 69.6601 29.287C69.1641 30.3468 68.5553 31.384 67.8338 32.3986C68.5102 32.9398 69.2204 33.4246 69.9645 33.853C70.7086 34.2814 71.5091 34.6985 72.3659 35.1044C72.7266 35.2848 72.9296 35.5102 72.9747 35.7808C73.0423 36.0288 72.9634 36.3107 72.7379 36.6264L71.1145 38.9601C70.889 39.2757 70.641 39.4448 70.3704 39.4674C70.1224 39.4674 69.8631 39.3885 69.5925 39.2306C67.8338 38.2611 66.278 37.0548 64.9251 35.6117C63.8879 36.5587 62.7605 37.4155 61.5429 38.1822C60.3253 38.9262 59.0288 39.5576 57.6534 40.0762C57.2024 40.2566 56.8304 40.2904 56.5373 40.1776C56.2442 40.0424 56.0074 39.8282 55.827 39.535L54.8462 37.9792Z" fill="#00423A"/>
<path d="M38.2288 49.178L46.9548 49.1104V47.2164L38.2288 47.284V49.178ZM34.3393 53.6763C33.8207 53.6763 33.4149 53.5185 33.1217 53.2028C32.8286 52.9097 32.6708 52.5039 32.6482 51.9853L32.4791 42.0417C32.4791 41.1397 32.9188 40.6888 33.7982 40.6888H36.9098C37.7666 40.6888 38.1837 41.1285 38.1612 42.0078V42.9887L46.921 42.8534V41.6696C46.921 41.2187 47.0338 40.8804 47.2592 40.655C47.4847 40.4069 47.8229 40.2942 48.2739 40.3167H51.2502C52.1747 40.3167 52.6144 40.7677 52.5693 41.6696L52.2987 51.85C52.2761 52.3686 52.1183 52.7744 51.8252 53.0676C51.5321 53.3832 51.1262 53.5411 50.6076 53.5411L34.3393 53.6763ZM48.3754 39.0992C47.6989 39.0992 47.3607 38.7609 47.3607 38.0845L47.1578 24.1161C47.1578 23.4397 47.4847 23.1015 48.1386 23.1015H52.2649C52.9413 23.1015 53.2682 23.4397 53.2457 24.1161L52.9075 38.0845C52.8624 38.7609 52.5242 39.0992 51.8928 39.0992H48.3754ZM29.3675 36.8669C28.6234 36.1454 28.0372 35.2998 27.6088 34.3303C27.2029 33.3607 27 32.3123 27 31.1849C27 30.08 27.2029 29.0315 27.6088 28.0394C28.0372 27.0473 28.6234 26.1792 29.3675 25.4352C30.1116 24.6911 31.0135 24.1048 32.0733 23.6764C33.133 23.2255 34.3055 23 35.5907 23C36.876 23 38.0372 23.2255 39.0744 23.6764C40.1341 24.1048 41.036 24.6911 41.7801 25.4352C42.5242 26.1792 43.0992 27.0473 43.505 28.0394C43.9109 29.0315 44.1138 30.08 44.1138 31.1849C44.1138 32.3123 43.9109 33.3607 43.505 34.3303C43.0992 35.2998 42.5242 36.1454 41.7801 36.8669C41.036 37.5659 40.1341 38.1296 39.0744 38.558C38.0372 38.9639 36.876 39.1668 35.5907 39.1668C34.3055 39.1668 33.133 38.9639 32.0733 38.558C31.0135 38.1296 30.1116 37.5659 29.3675 36.8669ZM32.4791 31.1849C32.4791 32.1319 32.8173 32.9211 33.4938 33.5524C34.1702 34.1837 35.0383 34.4994 36.0981 34.4994C37.1578 34.4994 38.0259 34.1837 38.7023 33.5524C39.3788 32.9211 39.717 32.1319 39.717 31.1849C39.717 30.2379 39.3788 29.4487 38.7023 28.8173C38.0259 28.1635 37.1578 27.8365 36.0981 27.8365C35.0383 27.8365 34.1702 28.1635 33.4938 28.8173C32.8173 29.4487 32.4791 30.2379 32.4791 31.1849Z" fill="#00423A"/>
</svg>
