<svg width="50" height="49" viewBox="0 0 50 49" fill="none" xmlns="http://www.w3.org/2000/svg">
<path d="M2 23.9225C2 15.2196 2 10.8682 4.70363 8.16457C7.40726 5.46094 11.7587 5.46094 20.4615 5.46094H29.6923C38.3952 5.46094 42.7466 5.46094 45.4502 8.16457C48.1538 10.8682 48.1538 15.2196 48.1538 23.9225V28.5379C48.1538 37.2407 48.1538 41.5921 45.4502 44.2958C42.7466 46.9994 38.3952 46.9994 29.6923 46.9994H20.4615C11.7587 46.9994 7.40726 46.9994 4.70363 44.2958C2 41.5921 2 37.2407 2 28.5379V23.9225Z" stroke="#00423A" stroke-width="3"/>
<path opacity="0.5" d="M13.5391 5.46154V2" stroke="#00423A" stroke-width="3" stroke-linecap="round"/>
<path opacity="0.5" d="M36.6172 5.46154V2" stroke="#00423A" stroke-width="3" stroke-linecap="round"/>
<path opacity="0.5" d="M3.15234 17H46.9985" stroke="#00423A" stroke-width="3" stroke-linecap="round"/>
<g opacity="0.5">
<path d="M38.924 35.4603C38.924 36.7348 37.8908 37.768 36.6163 37.768C35.3418 37.768 34.3086 36.7348 34.3086 35.4603C34.3086 34.1858 35.3418 33.1526 36.6163 33.1526C37.8908 33.1526 38.924 34.1858 38.924 35.4603Z" fill="#00423A"/>
<path d="M38.924 26.2296C38.924 27.5041 37.8908 28.5373 36.6163 28.5373C35.3418 28.5373 34.3086 27.5041 34.3086 26.2296C34.3086 24.9551 35.3418 23.9219 36.6163 23.9219C37.8908 23.9219 38.924 24.9551 38.924 26.2296Z" fill="#00423A"/>
</g>
<g opacity="0.5">
<path d="M27.3849 35.4603C27.3849 36.7348 26.3517 37.768 25.0772 37.768C23.8027 37.768 22.7695 36.7348 22.7695 35.4603C22.7695 34.1858 23.8027 33.1526 25.0772 33.1526C26.3517 33.1526 27.3849 34.1858 27.3849 35.4603Z" fill="#00423A"/>
<path d="M27.3849 26.2296C27.3849 27.5041 26.3517 28.5373 25.0772 28.5373C23.8027 28.5373 22.7695 27.5041 22.7695 26.2296C22.7695 24.9551 23.8027 23.9219 25.0772 23.9219C26.3517 23.9219 27.3849 24.9551 27.3849 26.2296Z" fill="#00423A"/>
</g>
<g opacity="0.5">
<path d="M15.8459 35.4603C15.8459 36.7348 14.8127 37.768 13.5382 37.768C12.2637 37.768 11.2305 36.7348 11.2305 35.4603C11.2305 34.1858 12.2637 33.1526 13.5382 33.1526C14.8127 33.1526 15.8459 34.1858 15.8459 35.4603Z" fill="#00423A"/>
<path d="M15.8459 26.2296C15.8459 27.5041 14.8127 28.5373 13.5382 28.5373C12.2637 28.5373 11.2305 27.5041 11.2305 26.2296C11.2305 24.9551 12.2637 23.9219 13.5382 23.9219C14.8127 23.9219 15.8459 24.9551 15.8459 26.2296Z" fill="#00423A"/>
</g>
</svg>
