<svg width="46" height="49" viewBox="0 0 46 49" fill="none" xmlns="http://www.w3.org/2000/svg">
<ellipse cx="23.2148" cy="24.5" rx="6.75" ry="6.75" stroke="#00423A" stroke-width="3"/>
<path opacity="0.5" d="M27.1855 2.34254C26.3586 2 25.3102 2 23.2135 2C21.1167 2 20.0684 2 19.2414 2.34254C18.1388 2.79926 17.2627 3.6753 16.806 4.77792C16.5975 5.28127 16.5159 5.86663 16.484 6.72048C16.4371 7.97528 15.7936 9.13676 14.7061 9.76459C13.6187 10.3924 12.2911 10.369 11.1809 9.78221C10.4255 9.38293 9.87776 9.1609 9.33761 9.08979C8.15434 8.93401 6.95766 9.25466 6.01081 9.9812C5.30068 10.5261 4.77649 11.434 3.72812 13.2498C2.67976 15.0657 2.15557 15.9736 2.03874 16.861C1.88296 18.0443 2.20361 19.241 2.93015 20.1878C3.26177 20.62 3.72783 20.9833 4.45117 21.4378C5.51455 22.106 6.19875 23.2442 6.19869 24.5001C6.19862 25.7558 5.51444 26.8938 4.45116 27.5619C3.72771 28.0165 3.26158 28.3798 2.92993 28.812C2.20339 29.7589 1.88274 30.9555 2.03852 32.1388C2.15535 33.0263 2.67953 33.9342 3.7279 35.75C4.77627 37.5658 5.30046 38.4737 6.01059 39.0186C6.95744 39.7452 8.15412 40.0658 9.33739 39.9101C9.87751 39.8389 10.4252 39.6169 11.1806 39.2177C12.2908 38.6309 13.6185 38.6075 14.706 39.2353C15.7935 39.8632 16.4371 41.0248 16.484 42.2796C16.5159 43.1334 16.5975 43.7188 16.806 44.2221C17.2627 45.3247 18.1388 46.2007 19.2414 46.6575C20.0684 47 21.1167 47 23.2135 47C25.3102 47 26.3586 47 27.1855 46.6575C28.2882 46.2007 29.1642 45.3247 29.6209 44.2221C29.8294 43.7187 29.911 43.1333 29.9429 42.2794C29.9899 41.0247 30.6333 39.8632 31.7207 39.2353C32.8082 38.6074 34.136 38.6308 35.2462 39.2176C36.0015 39.6168 36.5492 39.8388 37.0893 39.9099C38.2726 40.0657 39.4693 39.745 40.4161 39.0185C41.1263 38.4736 41.6505 37.5657 42.6988 35.7498C43.7472 33.934 44.2714 33.0261 44.3882 32.1387C44.544 30.9554 44.2233 29.7587 43.4968 28.8119C43.1652 28.3797 42.6991 28.0163 41.9757 27.5618C40.9123 26.8937 40.2282 25.7556 40.2283 24.4998C40.2283 23.2442 40.9125 22.1062 41.9757 21.4382C42.6992 20.9836 43.1654 20.6202 43.497 20.188C44.2236 19.2411 44.5442 18.0445 44.3884 16.8612C44.2716 15.9737 43.7474 15.0658 42.699 13.25C41.6507 11.4342 41.1265 10.5263 40.4164 9.98135C39.4695 9.25481 38.2728 8.93416 37.0896 9.08994C36.5494 9.16105 36.0017 9.38305 35.2464 9.78229C34.1361 10.3691 32.8084 10.3925 31.7209 9.76466C30.6334 9.13679 29.9899 7.97524 29.9429 6.72036C29.911 5.86657 29.8294 5.28124 29.6209 4.77792C29.1642 3.6753 28.2882 2.79926 27.1855 2.34254Z" stroke="#00423A" stroke-width="3"/>
</svg>
