<svg width="60" height="49" viewBox="0 0 60 49" fill="none" xmlns="http://www.w3.org/2000/svg">
<circle cx="21.6875" cy="16.0625" r="5.625" stroke="#00423A" stroke-width="3"/>
<path d="M32.9375 32.9375C32.9375 36.0441 32.9375 38.5625 21.6875 38.5625C10.4375 38.5625 10.4375 36.0441 10.4375 32.9375C10.4375 29.8309 15.4743 27.3125 21.6875 27.3125C27.9007 27.3125 32.9375 29.8309 32.9375 32.9375Z" stroke="#00423A" stroke-width="3"/>
<path opacity="0.5" d="M2 24.5C2 13.8934 2 8.5901 5.29505 5.29505C8.5901 2 13.8934 2 24.5 2H35.75C46.3566 2 51.6599 2 54.9549 5.29505C58.25 8.5901 58.25 13.8934 58.25 24.5C58.25 35.1066 58.25 40.4099 54.9549 43.705C51.6599 47 46.3566 47 35.75 47H24.5C13.8934 47 8.5901 47 5.29505 43.705C2 40.4099 2 35.1066 2 24.5Z" stroke="#00423A" stroke-width="3"/>
<path d="M49.8125 24.5H38.5625" stroke="#00423A" stroke-width="3" stroke-linecap="round"/>
<path d="M49.8125 16.0625H35.75" stroke="#00423A" stroke-width="3" stroke-linecap="round"/>
<path opacity="0.9" d="M49.8125 32.9375H41.375" stroke="#00423A" stroke-width="3" stroke-linecap="round"/>
</svg>
