<svg width="24" height="24" viewBox="0 0 24 24" fill="none" xmlns="http://www.w3.org/2000/svg">
<path d="M11.6371 2C12.0364 2 12.36 2.32365 12.36 2.72289V3.7219L17.1868 6.13524L17.2388 6.16126C17.9467 6.51515 18.5501 6.8168 18.97 7.10987C19.3958 7.40705 19.8434 7.83855 19.8434 8.50602C19.8434 9.1735 19.3958 9.605 18.97 9.90218C18.5501 10.1952 17.9467 10.4969 17.2388 10.8508L12.36 13.2901V18.1446C12.36 18.5438 12.0364 18.8675 11.6371 18.8675C11.2379 18.8675 10.9142 18.5438 10.9142 18.1446V12.859C10.914 12.849 10.914 12.8389 10.9142 12.8288V4.18322C10.914 4.17317 10.914 4.16309 10.9142 4.15301V2.72289C10.9142 2.32365 11.2379 2 11.6371 2Z" fill="#555555"/>
<path d="M11.6386 22C16.9618 22 21.2771 20.4896 21.2771 18.6265C21.2771 17.0244 18.0862 15.6831 13.8074 15.3388V18.1446C13.8074 19.3423 12.8364 20.3133 11.6387 20.3133C10.441 20.3133 9.47004 19.3423 9.47004 18.1446V15.3387C5.19107 15.6831 2 17.0244 2 18.6265C2 20.4896 6.31533 22 11.6386 22Z" fill="#555555"/>
<path d="M11.6387 2C11.2395 2 10.9158 2.32365 10.9158 2.72289V4.15301C10.9156 4.16309 10.9156 4.17317 10.9158 4.18322V12.8288C10.9156 12.8389 10.9156 12.849 10.9158 12.859V15.2624V18.1446C10.9158 18.5438 11.2395 18.8675 11.6387 18.8675C12.038 18.8675 12.3616 18.5438 12.3616 18.1446V15.2624V13.2901L17.2404 10.8508C17.9483 10.4969 18.5517 10.1952 18.9716 9.90218C19.3974 9.605 19.845 9.1735 19.845 8.50602C19.845 7.83855 19.3974 7.40705 18.9716 7.10987C18.5517 6.8168 17.9483 6.51515 17.2404 6.16126L12.3616 3.7219V2.72289C12.3616 2.32365 12.038 2 11.6387 2Z" fill="#555555"/>
</svg>
