<svg width="24" height="24" viewBox="0 0 24 24" fill="none" xmlns="http://www.w3.org/2000/svg">
<path d="M21.7531 14.0988V12.1235C21.7531 11.2948 21.7531 10.5583 21.7403 9.90123H2.01274C2 10.5583 2 11.2948 2 12.1235V14.0988C2 17.8234 2 19.6858 3.15711 20.8429C4.31422 22 6.17656 22 9.90123 22H13.8519C17.5765 22 19.4389 22 20.596 20.8429C21.7531 19.6858 21.7531 17.8234 21.7531 14.0988Z" fill="#555555"/>
<path d="M7.67901 2.74074C7.67901 2.33164 7.34737 2 6.93827 2C6.52917 2 6.19753 2.33164 6.19753 2.74074V4.3005C4.77597 4.41433 3.84274 4.6937 3.15711 5.37933C2.47148 6.06496 2.19211 6.99819 2.07828 8.41975H21.6748C21.561 6.99819 21.2816 6.06496 20.596 5.37933C19.9103 4.6937 18.9771 4.41433 17.5556 4.3005V2.74074C17.5556 2.33164 17.2239 2 16.8148 2C16.4057 2 16.0741 2.33164 16.0741 2.74074V4.23497C15.417 4.22222 14.6805 4.22222 13.8519 4.22222H9.90123C9.07256 4.22222 8.33607 4.22222 7.67901 4.23497V2.74074Z" fill="#555555"/>
</svg>
