<svg width="24" height="24" viewBox="0 0 24 24" fill="none" xmlns="http://www.w3.org/2000/svg">
<path d="M12 17.0682C11.586 17.0682 11.25 16.7322 11.25 16.3182V14.0972C11.25 13.6832 11.586 13.3472 12 13.3472C12.414 13.3472 12.75 13.6832 12.75 14.0972V16.3182C12.75 16.7322 12.414 17.0682 12 17.0682Z" fill="black"/>
<path fill-rule="evenodd" clip-rule="evenodd" d="M17.3095 8.86611C19.5071 9.86713 20.4098 11.8146 20.4098 15.0364C20.4098 20.1554 18.1308 22.0584 11.9998 22.0584C5.86884 22.0584 3.58984 20.1554 3.58984 15.0364C3.58984 11.815 4.49237 9.86759 6.68945 8.86647V7.17541C6.73645 4.27141 9.03845 1.97841 11.9295 1.94141C13.3675 1.94841 14.6915 2.45941 15.7065 3.44941C16.7235 4.44141 17.2925 5.76741 17.3095 7.18641V8.86611ZM16.2058 10.0058C16.2682 10.0393 16.336 10.0642 16.4074 10.079C18.2738 10.7985 18.9098 12.2927 18.9098 15.0364C18.9098 19.3204 17.3598 20.5584 11.9998 20.5584C6.63984 20.5584 5.08984 19.3204 5.08984 15.0364C5.08984 12.2922 5.72614 10.7981 7.59315 10.0786C7.66347 10.064 7.73018 10.0394 7.79178 10.0066C8.81928 9.65604 10.1931 9.51538 11.9998 9.51538C13.8053 9.51538 15.1785 9.65585 16.2058 10.0058ZM8.18945 8.37134V7.18741C8.22245 5.11341 9.87345 3.46741 11.9495 3.44141C12.9855 3.43441 13.9315 3.81341 14.6605 4.52441C15.3895 5.23541 15.7975 6.18641 15.8095 7.19541V8.37116C14.752 8.12769 13.4896 8.01538 11.9998 8.01538C10.5097 8.01538 9.24708 8.12774 8.18945 8.37134Z" fill="black"/>
</svg>
