<svg width="24" height="24" viewBox="0 0 24 24" fill="none" xmlns="http://www.w3.org/2000/svg">
<path fill-rule="evenodd" clip-rule="evenodd" d="M18.696 18.696C19.919 17.4731 20.5 15.4269 20.5 12C20.5 8.5731 19.919 6.52693 18.696 5.30396C17.4731 4.08098 15.4269 3.5 12 3.5C8.5731 3.5 6.52693 4.08098 5.30396 5.30396C4.08098 6.52693 3.5 8.5731 3.5 12C3.5 15.4269 4.08098 17.4731 5.30396 18.696C6.52693 19.919 8.5731 20.5 12 20.5C15.4269 20.5 17.4731 19.919 18.696 18.696ZM19.7567 19.7567C18.0889 21.4245 15.5101 22 12 22C8.4899 22 5.91107 21.4245 4.2433 19.7567C2.57552 18.0889 2 15.5101 2 12C2 8.4899 2.57552 5.91107 4.2433 4.2433C5.91107 2.57552 8.4899 2 12 2C15.5101 2 18.0889 2.57552 19.7567 4.2433C21.4245 5.91107 22 8.4899 22 12C22 15.5101 21.4245 18.0889 19.7567 19.7567Z" fill="black"/>
<path fill-rule="evenodd" clip-rule="evenodd" d="M12 16.6445C11.5858 16.6445 11.25 16.3087 11.25 15.8945V11.9995C11.25 11.5853 11.5858 11.2495 12 11.2495C12.4142 11.2495 12.75 11.5853 12.75 11.9995V15.8945C12.75 16.3087 12.4142 16.6445 12 16.6445Z" fill="black"/>
<path fill-rule="evenodd" clip-rule="evenodd" d="M12.7539 8.5C12.7539 8.91421 12.4181 9.25 12.0039 9.25H11.9949C11.5807 9.25 11.2449 8.91421 11.2449 8.5C11.2449 8.08579 11.5807 7.75 11.9949 7.75H12.0039C12.4181 7.75 12.7539 8.08579 12.7539 8.5Z" fill="black"/>
</svg>
