<svg width="100" height="100" viewBox="0 0 100 100" fill="none" xmlns="http://www.w3.org/2000/svg">
<path d="M86.6799 36.3201V63.6798C86.6799 68.1599 84.28 72.32 80.3998 74.6L56.6399 88.3201C52.7599 90.56 47.9599 90.56 44.0399 88.3201L20.28 74.6C16.4 72.3601 14 68.1999 14 63.6798V36.3201C14 31.8401 16.4 27.6799 20.28 25.3999L44.0399 11.68C47.92 9.44 52.72 9.44 56.6399 11.68L80.3998 25.3999C84.28 27.6799 86.6799 31.8002 86.6799 36.3201Z" stroke="#333333" stroke-width="8" stroke-linecap="round" stroke-linejoin="round"/>
<path opacity="0.4" d="M50.363 45.9986C55.5101 45.9986 59.6829 41.8258 59.6829 36.6785C59.6829 31.5312 55.5101 27.3586 50.363 27.3586C45.2157 27.3586 41.043 31.5312 41.043 36.6785C41.043 41.8258 45.2157 45.9986 50.363 45.9986Z" stroke="#333333" stroke-width="8" stroke-linecap="round" stroke-linejoin="round"/>
<path opacity="0.4" d="M66.3594 68.6434C66.3594 61.4434 59.1993 55.6038 50.3593 55.6038C41.5194 55.6038 34.3594 61.4434 34.3594 68.6434" stroke="#333333" stroke-width="8" stroke-linecap="round" stroke-linejoin="round"/>
</svg>
