<svg width="50" height="50" viewBox="0 0 50 50" fill="none" xmlns="http://www.w3.org/2000/svg">
<path d="M43.9167 17.8744V32.1243C43.9167 34.4577 42.6667 36.6244 40.6458 37.8119L28.2708 44.9578C26.25 46.1244 23.75 46.1244 21.7083 44.9578L9.33333 37.8119C7.3125 36.6453 6.0625 34.4785 6.0625 32.1243V17.8744C6.0625 15.5411 7.3125 13.3743 9.33333 12.1868L21.7083 5.04102C23.7292 3.87435 26.2292 3.87435 28.2708 5.04102L40.6458 12.1868C42.6667 13.3743 43.9167 15.5203 43.9167 17.8744Z" stroke="white" stroke-width="5" stroke-linecap="round" stroke-linejoin="round"/>
<path opacity="0.4" d="M25.0007 22.9153C27.6815 22.9153 29.8548 20.742 29.8548 18.0611C29.8548 15.3802 27.6815 13.207 25.0007 13.207C22.3198 13.207 20.1465 15.3802 20.1465 18.0611C20.1465 20.742 22.3198 22.9153 25.0007 22.9153Z" stroke="white" stroke-width="5" stroke-linecap="round" stroke-linejoin="round"/>
<path opacity="0.4" d="M33.3327 34.7095C33.3327 30.9595 29.6035 27.918 24.9993 27.918C20.3952 27.918 16.666 30.9595 16.666 34.7095" stroke="white" stroke-width="5" stroke-linecap="round" stroke-linejoin="round"/>
</svg>
