<svg width="100" height="100" viewBox="0 0 100 100" fill="none" xmlns="http://www.w3.org/2000/svg">
<path opacity="0.34" d="M69.9414 26.1985C77.9817 31.7864 83.5294 40.6709 84.655 50.9221" stroke="#333333" stroke-width="8" stroke-linecap="round" stroke-linejoin="round"/>
<path opacity="0.34" d="M15.7891 51.1294C16.8343 40.9185 22.3017 32.034 30.2615 26.4058" stroke="#333333" stroke-width="8" stroke-linecap="round" stroke-linejoin="round"/>
<path opacity="0.34" d="M34.6836 85.5767C39.347 87.9486 44.6535 89.2752 50.2414 89.2752C55.6284 89.2752 60.6937 88.0692 65.2363 85.858" stroke="#333333" stroke-width="8" stroke-linecap="round" stroke-linejoin="round"/>
<path d="M50.2424 32.3517C56.4145 32.3517 61.4181 27.3482 61.4181 21.176C61.4181 15.0036 56.4145 10 50.2424 10C44.07 10 39.0664 15.0036 39.0664 21.176C39.0664 27.3482 44.07 32.3517 50.2424 32.3517Z" stroke="#333333" stroke-width="8" stroke-linecap="round" stroke-linejoin="round"/>
<path d="M21.176 81.4748C27.3482 81.4748 32.3518 76.4712 32.3518 70.299C32.3518 64.1266 27.3482 59.123 21.176 59.123C15.0036 59.123 10 64.1266 10 70.299C10 76.4712 15.0036 81.4748 21.176 81.4748Z" stroke="#333333" stroke-width="8" stroke-linecap="round" stroke-linejoin="round"/>
<path d="M78.8244 81.4748C84.9966 81.4748 90.0002 76.4712 90.0002 70.299C90.0002 64.1266 84.9966 59.123 78.8244 59.123C72.652 59.123 67.6484 64.1266 67.6484 70.299C67.6484 76.4712 72.652 81.4748 78.8244 81.4748Z" stroke="#333333" stroke-width="8" stroke-linecap="round" stroke-linejoin="round"/>
</svg>
