<svg width="50" height="50" viewBox="0 0 50 50" fill="none" xmlns="http://www.w3.org/2000/svg">
<path opacity="0.34" d="M35.334 12.8535C39.5007 15.7493 42.3757 20.3535 42.959 25.666" stroke="white" stroke-width="5" stroke-linecap="round" stroke-linejoin="round"/>
<path opacity="0.34" d="M7.27148 25.7734C7.81315 20.4818 10.6465 15.8776 14.7715 12.9609" stroke="white" stroke-width="5" stroke-linecap="round" stroke-linejoin="round"/>
<path opacity="0.34" d="M17.0625 43.625C19.4792 44.8542 22.2292 45.5417 25.125 45.5417C27.9167 45.5417 30.5417 44.9167 32.8958 43.7708" stroke="white" stroke-width="5" stroke-linecap="round" stroke-linejoin="round"/>
<path d="M25.1257 16.0423C28.3243 16.0423 30.9173 13.4493 30.9173 10.2507C30.9173 7.052 28.3243 4.45898 25.1257 4.45898C21.927 4.45898 19.334 7.052 19.334 10.2507C19.334 13.4493 21.927 16.0423 25.1257 16.0423Z" stroke="white" stroke-width="5" stroke-linecap="round" stroke-linejoin="round"/>
<path d="M10.0632 41.4993C13.2618 41.4993 15.8548 38.9063 15.8548 35.7077C15.8548 32.509 13.2618 29.916 10.0632 29.916C6.8645 29.916 4.27148 32.509 4.27148 35.7077C4.27148 38.9063 6.8645 41.4993 10.0632 41.4993Z" stroke="white" stroke-width="5" stroke-linecap="round" stroke-linejoin="round"/>
<path d="M39.9382 41.4993C43.1368 41.4993 45.7298 38.9063 45.7298 35.7077C45.7298 32.509 43.1368 29.916 39.9382 29.916C36.7395 29.916 34.1465 32.509 34.1465 35.7077C34.1465 38.9063 36.7395 41.4993 39.9382 41.4993Z" stroke="white" stroke-width="5" stroke-linecap="round" stroke-linejoin="round"/>
</svg>
