<svg width="100" height="100" viewBox="0 0 100 100" fill="none" xmlns="http://www.w3.org/2000/svg">
<g opacity="0.4">
<path d="M24.0816 46.7039C5.30615 48.0278 5.30615 75.3485 24.0816 76.6724H31.7845" stroke="#333333" stroke-width="8" stroke-miterlimit="10" stroke-linecap="round" stroke-linejoin="round"/>
<path d="M24.28 46.7023C11.4019 10.8764 65.7222 -3.44591 71.9404 34.1853C89.3118 36.3917 96.3327 59.54 83.1739 71.0541C79.1619 74.7048 73.9866 76.7108 68.5706 76.6708H68.2096" stroke="#333333" stroke-width="8" stroke-miterlimit="10" stroke-linecap="round" stroke-linejoin="round"/>
</g>
<path d="M70.0598 68.4028C70.0598 71.3716 69.4178 74.1799 68.2143 76.6673C67.8934 77.3894 67.5326 78.0713 67.1313 78.7133C63.6812 84.5305 57.3022 88.4621 50.0007 88.4621C42.6991 88.4621 36.3201 84.5305 32.87 78.7133C32.4687 78.0713 32.1078 77.3894 31.787 76.6673C30.5834 74.1799 29.9414 71.3716 29.9414 68.4028C29.9414 57.3301 38.928 48.3435 50.0007 48.3435C61.0734 48.3435 70.0598 57.3301 70.0598 68.4028Z" stroke="#333333" stroke-width="8" stroke-miterlimit="10" stroke-linecap="round" stroke-linejoin="round"/>
<path d="M43.7422 68.4102L47.7139 72.3819L56.2592 64.4785" stroke="#333333" stroke-width="8" stroke-linecap="round" stroke-linejoin="round"/>
</svg>
