<svg width="50" height="50" viewBox="0 0 50 50" fill="none" xmlns="http://www.w3.org/2000/svg">
<g opacity="0.4">
<path d="M11.541 23.168C1.79102 23.8555 1.79102 38.043 11.541 38.7305H15.5411" stroke="white" stroke-width="5" stroke-miterlimit="10" stroke-linecap="round" stroke-linejoin="round"/>
<path d="M11.6448 23.1672C4.95726 4.563 33.1655 -2.87449 36.3946 16.6672C45.4155 17.813 49.0614 29.8338 42.2281 35.813C40.1447 37.7088 37.4572 38.7505 34.6447 38.7297H34.4572" stroke="white" stroke-width="5" stroke-miterlimit="10" stroke-linecap="round" stroke-linejoin="round"/>
</g>
<path d="M35.4173 34.4362C35.4173 35.9779 35.0839 37.4362 34.4589 38.7279C34.2923 39.1029 34.1049 39.457 33.8965 39.7904C32.1049 42.8112 28.7923 44.8529 25.0007 44.8529C21.209 44.8529 17.8964 42.8112 16.1048 39.7904C15.8964 39.457 15.709 39.1029 15.5424 38.7279C14.9174 37.4362 14.584 35.9779 14.584 34.4362C14.584 28.6862 19.2507 24.0195 25.0007 24.0195C30.7507 24.0195 35.4173 28.6862 35.4173 34.4362Z" stroke="white" stroke-width="5" stroke-miterlimit="10" stroke-linecap="round" stroke-linejoin="round"/>
<path d="M21.75 34.4401L23.8125 36.5026L28.25 32.3984" stroke="white" stroke-width="5" stroke-linecap="round" stroke-linejoin="round"/>
</svg>
