<svg width="100" height="100" viewBox="0 0 100 100" fill="none" xmlns="http://www.w3.org/2000/svg">
<path d="M71.5859 75C81.5859 75 84.0859 69.375 84.0859 62.5V37.5C84.0859 30.625 81.5859 25 71.5859 25C61.5859 25 59.0859 30.625 59.0859 37.5V62.5C59.0859 69.375 61.5859 75 71.5859 75Z" stroke="#00C6AB" stroke-width="8" stroke-linecap="round" stroke-linejoin="round"/>
<path d="M28.4141 75C18.4141 75 15.9141 69.375 15.9141 62.5V37.5C15.9141 30.625 18.4141 25 28.4141 25C38.4141 25 40.9141 30.625 40.9141 37.5V62.5C40.9141 69.375 38.4141 75 28.4141 75Z" stroke="#00C6AB" stroke-width="8" stroke-linecap="round" stroke-linejoin="round"/>
<path opacity="0.4" d="M40.9141 50H59.0807" stroke="#00C6AB" stroke-width="8" stroke-linecap="round" stroke-linejoin="round"/>
<path opacity="0.4" d="M93.75 60.4154V39.582" stroke="#00C6AB" stroke-width="8" stroke-linecap="round" stroke-linejoin="round"/>
<path opacity="0.4" d="M6.25 60.4154V39.582" stroke="#00C6AB" stroke-width="8" stroke-linecap="round" stroke-linejoin="round"/>
</svg>
