<svg width="100" height="100" viewBox="0 0 100 100" fill="none" xmlns="http://www.w3.org/2000/svg">
<path d="M37.3737 91.6693H62.3737C83.207 91.6693 91.5404 83.3359 91.5404 62.5026V37.5026C91.5404 16.6693 83.207 8.33594 62.3737 8.33594H37.3737C16.5404 8.33594 8.20703 16.6693 8.20703 37.5026V62.5026C8.20703 83.3359 16.5404 91.6693 37.3737 91.6693Z" stroke="#00C6AB" stroke-width="8" stroke-linecap="round" stroke-linejoin="round"/>
<path opacity="0.4" d="M8.20703 52.9184L33.207 52.8351C36.332 52.8351 39.832 55.2101 40.9987 58.1268L45.7487 70.1268C46.832 72.8351 48.5404 72.8351 49.6237 70.1268L59.1654 45.9184C60.082 43.5851 61.7904 43.5018 62.957 45.7101L67.2904 53.9184C68.582 56.3768 71.9154 58.3768 74.6654 58.3768H91.582" stroke="#00C6AB" stroke-width="8" stroke-linecap="round" stroke-linejoin="round"/>
</svg>
