<svg width="100" height="100" viewBox="0 0 100 100" fill="none" xmlns="http://www.w3.org/2000/svg">
<path opacity="0.4" d="M45.707 8.33203H37.3737C16.5404 8.33203 8.20703 16.6654 8.20703 37.4987V62.4987C8.20703 83.332 16.5404 91.6654 37.3737 91.6654H62.3737C83.207 91.6654 91.5404 83.332 91.5404 62.4987V54.1654" stroke="#00C6AB" stroke-width="10" stroke-linecap="round" stroke-linejoin="round"/>
<path d="M91.1654 14.8329C86.0404 27.6246 73.1654 45.0413 62.4154 53.6663L55.832 58.9163C54.9987 59.5413 54.1654 60.0413 53.207 60.4163C53.207 59.7913 53.1654 59.1663 53.082 58.4996C52.707 55.7079 51.457 53.0829 49.207 50.8746C46.9154 48.5829 44.1654 47.2913 41.332 46.9163C40.6654 46.8746 39.9987 46.8329 39.332 46.8746C39.707 45.8329 40.2487 44.8746 40.957 44.0829L46.207 37.4996C54.832 26.7496 72.2904 13.7913 85.0404 8.66628C86.9987 7.91628 88.9154 8.49962 90.1237 9.70795C91.3737 10.9579 91.957 12.8746 91.1654 14.8329Z" stroke="#00C6AB" stroke-width="10" stroke-linecap="round" stroke-linejoin="round"/>
<path d="M53.251 60.3753C53.251 64.042 51.8344 67.542 49.2094 70.2087C47.1677 72.2503 44.4177 73.667 41.126 74.0837L32.9177 74.9587C28.4594 75.4587 24.626 71.667 25.126 67.1253L26.001 58.917C26.7927 51.6253 32.876 46.9587 39.376 46.8337C40.0427 46.792 40.7094 46.8337 41.376 46.8753C44.2094 47.2503 46.9594 48.542 49.251 50.8337C51.501 53.0837 52.751 55.667 53.126 58.4587C53.2094 59.1253 53.251 59.792 53.251 60.3753Z" stroke="#00C6AB" stroke-width="10" stroke-linecap="round" stroke-linejoin="round"/>
<path opacity="0.4" d="M65.9167 49.9167C65.9167 41.2083 58.875 34.125 50.125 34.125" stroke="#00C6AB" stroke-width="10" stroke-linecap="round" stroke-linejoin="round"/>
</svg>
