<svg width="100" height="100" viewBox="0 0 100 100" fill="none" xmlns="http://www.w3.org/2000/svg">
<path opacity="0.34" d="M50 62.5C56.9036 62.5 62.5 56.9036 62.5 50C62.5 43.0964 56.9036 37.5 50 37.5C43.0964 37.5 37.5 43.0964 37.5 50C37.5 56.9036 43.0964 62.5 50 62.5Z" stroke="#00C6AB" stroke-width="8" stroke-miterlimit="10" stroke-linecap="round" stroke-linejoin="round"/>
<path d="M8.33203 53.6673V46.334C8.33203 42.0006 11.8737 38.4173 16.2487 38.4173C23.7904 38.4173 26.8737 33.084 23.082 26.5423C20.9154 22.7923 22.207 17.9173 25.9987 15.7506L33.207 11.6256C36.4987 9.6673 40.7487 10.834 42.707 14.1256L43.1654 14.9173C46.9154 21.459 53.082 21.459 56.8737 14.9173L57.332 14.1256C59.2904 10.834 63.5404 9.6673 66.832 11.6256L74.0404 15.7506C77.832 17.9173 79.1237 22.7923 76.957 26.5423C73.1654 33.084 76.2487 38.4173 83.7904 38.4173C88.1237 38.4173 91.707 41.959 91.707 46.334V53.6673C91.707 58.0006 88.1654 61.584 83.7904 61.584C76.2487 61.584 73.1654 66.9173 76.957 73.459C79.1237 77.2506 77.832 82.084 74.0404 84.2506L66.832 88.3756C63.5404 90.334 59.2904 89.1673 57.332 85.8756L56.8737 85.084C53.1237 78.5423 46.957 78.5423 43.1654 85.084L42.707 85.8756C40.7487 89.1673 36.4987 90.334 33.207 88.3756L25.9987 84.2506C22.207 82.084 20.9154 77.209 23.082 73.459C26.8737 66.9173 23.7904 61.584 16.2487 61.584C11.8737 61.584 8.33203 58.0006 8.33203 53.6673Z" stroke="#00C6AB" stroke-width="8" stroke-miterlimit="10" stroke-linecap="round" stroke-linejoin="round"/>
</svg>
