<svg width="100" height="100" viewBox="0 0 100 100" fill="none" xmlns="http://www.w3.org/2000/svg">
<path d="M50.5834 31.75H28.625C20.875 31.75 19.125 35.6251 18.1667 40.4167L14.625 57.2917H64.625L61.0834 40.4167C60.0417 35.6251 58.3334 31.75 50.5834 31.75Z" stroke="#00C6AB" stroke-width="8" stroke-linecap="round" stroke-linejoin="round"/>
<path d="M70.7938 84.8333C71.1272 88.5 68.2105 91.6667 64.4605 91.6667H58.5855C55.2105 91.6667 54.7522 90.2083 54.1272 88.4583L53.5021 86.5835C52.6271 84.0418 52.0438 82.2917 47.5438 82.2917H31.5438C27.0438 82.2917 26.3771 84.2502 25.5855 86.5835L24.9605 88.4583C24.3772 90.25 23.9188 91.6667 20.5021 91.6667H14.6271C10.8771 91.6667 7.91883 88.5 8.29383 84.8333L10.0438 65.7916C10.5022 61.0833 11.3771 57.25 19.5855 57.25H59.4605C67.6688 57.25 68.5438 61.0833 69.0021 65.7916L70.7938 84.8333Z" stroke="#00C6AB" stroke-width="8" stroke-linecap="round" stroke-linejoin="round"/>
<path d="M14.5859 47.9141H11.4609" stroke="#00C6AB" stroke-width="8" stroke-linecap="round" stroke-linejoin="round"/>
<path d="M67.7109 47.9141H64.5859" stroke="#00C6AB" stroke-width="8" stroke-linecap="round" stroke-linejoin="round"/>
<path opacity="0.4" d="M20.8359 69.7891H30.2109" stroke="#00C6AB" stroke-width="8" stroke-linecap="round" stroke-linejoin="round"/>
<path opacity="0.4" d="M48.9609 69.7891H58.3359" stroke="#00C6AB" stroke-width="8" stroke-linecap="round" stroke-linejoin="round"/>
<path opacity="0.4" d="M77.9571 36.4173C79.1237 33.709 78.707 30.0424 76.5404 26.8341C74.4154 23.6257 71.1654 21.834 68.207 21.8757" stroke="#00C6AB" stroke-width="8" stroke-linecap="round" stroke-linejoin="round"/>
<path opacity="0.4" d="M90.9154 40.5403C92.6654 34.2486 91.4153 26.5404 86.957 19.8738C82.4987 13.2071 75.832 9.1237 69.332 8.33203" stroke="#00C6AB" stroke-width="8" stroke-linecap="round" stroke-linejoin="round"/>
</svg>
