<svg width="100" height="100" viewBox="0 0 100 100" fill="none" xmlns="http://www.w3.org/2000/svg">
<path d="M83.3346 40.0013C83.3346 23.3346 76.668 16.668 60.0013 16.668H40.0013C23.3346 16.668 16.668 23.3346 16.668 40.0013V60.0013C16.668 76.668 23.3346 83.3346 40.0013 83.3346" stroke="#00C6AB" stroke-width="8" stroke-linecap="round" stroke-linejoin="round"/>
<path d="M68.1263 33.3346C65.8346 30.418 62.0013 29.168 56.2513 29.168H43.7513C33.3346 29.168 29.168 33.3346 29.168 43.7513V56.2513C29.168 62.0013 30.418 65.8346 33.293 68.1263" stroke="#00C6AB" stroke-width="8" stroke-linecap="round" stroke-linejoin="round"/>
<path opacity="0.4" d="M33.375 16.6654V8.33203" stroke="#00C6AB" stroke-width="8" stroke-linecap="round" stroke-linejoin="round"/>
<path opacity="0.4" d="M50 16.6654V8.33203" stroke="#00C6AB" stroke-width="8" stroke-linecap="round" stroke-linejoin="round"/>
<path opacity="0.4" d="M66.668 16.6654V8.33203" stroke="#00C6AB" stroke-width="8" stroke-linecap="round" stroke-linejoin="round"/>
<path opacity="0.4" d="M83.332 33.332H91.6654" stroke="#00C6AB" stroke-width="8" stroke-linecap="round" stroke-linejoin="round"/>
<path opacity="0.4" d="M33.375 83.332V91.6654" stroke="#00C6AB" stroke-width="8" stroke-linecap="round" stroke-linejoin="round"/>
<path opacity="0.4" d="M8.33203 33.332H16.6654" stroke="#00C6AB" stroke-width="8" stroke-linecap="round" stroke-linejoin="round"/>
<path opacity="0.4" d="M8.33203 50H16.6654" stroke="#00C6AB" stroke-width="8" stroke-linecap="round" stroke-linejoin="round"/>
<path opacity="0.4" d="M8.33203 66.668H16.6654" stroke="#00C6AB" stroke-width="8" stroke-linecap="round" stroke-linejoin="round"/>
<path opacity="0.4" d="M69.625 77.4609C73.2839 77.4609 76.25 74.4948 76.25 70.8359C76.25 67.1771 73.2839 64.2109 69.625 64.2109C65.9661 64.2109 63 67.1771 63 70.8359C63 74.4948 65.9661 77.4609 69.625 77.4609Z" stroke="#00C6AB" stroke-width="8" stroke-miterlimit="10" stroke-linecap="round" stroke-linejoin="round"/>
<path d="M47.543 72.7484V68.8734C47.543 66.5817 49.418 64.7067 51.7096 64.7067C55.7096 64.7067 57.3346 61.8734 55.3346 58.4151C54.168 56.4151 54.8763 53.8317 56.8763 52.7067L60.668 50.4984C62.418 49.4567 64.668 50.0817 65.7096 51.8317L65.9596 52.2484C67.9596 55.7067 71.2096 55.7067 73.2096 52.2484L73.4596 51.8317C74.5013 50.0817 76.7513 49.4984 78.5013 50.4984L82.293 52.7067C84.293 53.8734 85.0013 56.4151 83.8346 58.4151C81.8346 61.8734 83.4596 64.7067 87.4596 64.7067C89.7513 64.7067 91.6263 66.5817 91.6263 68.8734V72.7484C91.6263 75.0401 89.7513 76.9151 87.4596 76.9151C83.4596 76.9151 81.8346 79.7484 83.8346 83.2067C85.0013 85.2067 84.293 87.7901 82.293 88.9151L78.5013 91.1234C76.7513 92.1651 74.5013 91.5401 73.4596 89.7901L73.2096 89.3734C71.2096 85.9151 67.9596 85.9151 65.9596 89.3734L65.7096 89.7901C64.668 91.5401 62.418 92.1234 60.668 91.1234L56.8763 88.9151C54.8763 87.7484 54.168 85.2067 55.3346 83.2067C57.3346 79.7484 55.7096 76.9151 51.7096 76.9151C49.418 76.9567 47.543 75.0817 47.543 72.7484Z" stroke="#00C6AB" stroke-width="8" stroke-miterlimit="10" stroke-linecap="round" stroke-linejoin="round"/>
</svg>
