<svg width="100" height="100" viewBox="0 0 100 100" fill="none" xmlns="http://www.w3.org/2000/svg">
<path d="M79.1654 37.4987C79.1654 43.5404 77.3737 49.0821 74.2904 53.7071C69.7904 60.3738 62.6654 65.082 54.3737 66.2904C52.957 66.5404 51.4987 66.6654 49.9987 66.6654C48.4987 66.6654 47.0404 66.5404 45.6237 66.2904C37.332 65.082 30.207 60.3738 25.707 53.7071C22.6237 49.0821 20.832 43.5404 20.832 37.4987C20.832 21.3737 33.8737 8.33203 49.9987 8.33203C66.1237 8.33203 79.1654 21.3737 79.1654 37.4987Z" stroke="#00C6AB" stroke-width="8" stroke-linecap="round" stroke-linejoin="round"/>
<path opacity="0.4" d="M88.5402 76.9584L81.6652 78.5833C80.1235 78.9583 78.9152 80.125 78.5819 81.6667L77.1235 87.7917C76.3319 91.1251 72.0819 92.1251 69.8735 89.5001L49.9985 66.6667L30.1235 89.5417C27.9152 92.1666 23.6652 91.1666 22.8735 87.8333L21.4152 81.7083C21.0402 80.1666 19.8319 78.9583 18.3319 78.625L11.4569 77.0001C8.2902 76.2501 7.1652 72.2916 9.45687 70L25.7069 53.75C30.2069 60.4167 37.3319 65.1251 45.6235 66.3334C47.0402 66.5834 48.4985 66.7084 49.9985 66.7084C51.4985 66.7084 52.9569 66.5834 54.3735 66.3334C62.6652 65.1251 69.7902 60.4167 74.2902 53.75L90.5402 70C92.8319 72.25 91.7069 76.2084 88.5402 76.9584Z" stroke="#00C6AB" stroke-width="8" stroke-linecap="round" stroke-linejoin="round"/>
<path opacity="0.4" d="M52.4182 24.918L54.8765 29.8346C55.2098 30.5013 56.0848 31.168 56.8765 31.293L61.3348 32.0429C64.1682 32.5013 64.8348 34.5846 62.7932 36.6263L59.3348 40.0846C58.7515 40.6679 58.4182 41.793 58.6265 42.6263L59.6265 46.918C60.4182 50.293 58.6265 51.6262 55.6265 49.8346L51.4598 47.3762C50.7098 46.9179 49.4598 46.9179 48.7098 47.3762L44.5432 49.8346C41.5432 51.5846 39.7515 50.293 40.5432 46.918L41.5432 42.6263C41.7098 41.8346 41.4182 40.6679 40.8348 40.0846L37.3765 36.6263C35.3348 34.5846 36.0015 32.5429 38.8348 32.0429L43.2932 31.293C44.0432 31.168 44.9182 30.5013 45.2515 29.8346L47.7098 24.918C48.9182 22.2513 51.0848 22.2513 52.4182 24.918Z" stroke="#00C6AB" stroke-width="8" stroke-linecap="round" stroke-linejoin="round"/>
</svg>
