<svg width="40" height="40" viewBox="0 0 40 40" fill="none" xmlns="http://www.w3.org/2000/svg">
<g id="vuesax/outline/arrow-right">
<g id="arrow-right">
<path id="Vector" d="M24.0486 31.3669C23.7319 31.3669 23.4152 31.2502 23.1652 31.0002C22.6819 30.5169 22.6819 29.7169 23.1652 29.2335L32.3986 20.0002L23.1652 10.7669C22.6819 10.2835 22.6819 9.48353 23.1652 9.0002C23.6486 8.51686 24.4486 8.51686 24.9319 9.0002L35.0486 19.1169C35.5319 19.6002 35.5319 20.4002 35.0486 20.8835L24.9319 31.0002C24.6819 31.2502 24.3652 31.3669 24.0486 31.3669Z" fill="white"/>
<path id="Vector_2" d="M33.884 21.25H5.83398C5.15065 21.25 4.58398 20.6833 4.58398 20C4.58398 19.3167 5.15065 18.75 5.83398 18.75H33.884C34.5673 18.75 35.134 19.3167 35.134 20C35.134 20.6833 34.5673 21.25 33.884 21.25Z" fill="white"/>
</g>
</g>
</svg>
