<svg width="20" height="20" viewBox="0 0 20 20" fill="none" xmlns="http://www.w3.org/2000/svg">
<path d="M8.02898 17.3114V14.7633C8.02898 14.1129 8.56014 13.5856 9.21536 13.5856H11.6105C11.9252 13.5856 12.2269 13.7097 12.4494 13.9305C12.6719 14.1514 12.7969 14.451 12.7969 14.7633V17.3114C12.7949 17.5819 12.9017 17.8419 13.0936 18.0338C13.2856 18.2257 13.5467 18.3337 13.8191 18.3336H15.4532C16.2164 18.3356 16.949 18.036 17.4893 17.501C18.0297 16.966 18.3333 16.2395 18.3333 15.4818V8.22271C18.3333 7.61071 18.0601 7.03019 17.5872 6.63755L12.0284 2.23022C11.0614 1.45746 9.67593 1.48241 8.73783 2.28947L3.30584 6.63755C2.81062 7.01862 2.51463 7.60086 2.5 8.22271V15.4744C2.5 17.0535 3.78948 18.3336 5.38014 18.3336H6.97691C7.54269 18.3337 8.0025 17.8805 8.0066 17.3189L8.02898 17.3114Z" fill="white"/>
</svg>
