<?xml version="1.0" standalone="no"?>
<!DOCTYPE svg PUBLIC "-//W3C//DTD SVG 20010904//EN"
 "http://www.w3.org/TR/2001/REC-SVG-20010904/DTD/svg10.dtd">
<svg version="1.0" xmlns="http://www.w3.org/2000/svg"
 width="700.000000pt" height="700.000000pt" viewBox="0 0 700.000000 700.000000"
 preserveAspectRatio="xMidYMid meet">
<metadata>
Created by potrace 1.14, written by Peter Selinger 2001-2017
</metadata>
<g transform="translate(0.000000,700.000000) scale(0.100000,-0.100000)"
fill="#000000" stroke="none">
<path d="M1083 6275 c-67 -34 -83 -53 -87 -109 -2 -34 -9 -51 -24 -61 l-20
-15 3 -1562 c1 -860 6 -1583 9 -1608 6 -38 24 -144 42 -255 9 -55 45 -189 75
-285 257 -801 830 -1338 1673 -1564 128 -34 338 -76 461 -91 17 -2 59 -7 95
-11 231 -27 609 17 950 112 766 212 1311 689 1589 1392 50 125 104 305 130
432 19 96 24 123 36 215 4 28 9 61 12 75 3 14 7 728 8 1588 l2 1563 -23 16
c-20 13 -24 24 -24 64 0 43 -4 51 -33 73 -80 61 -171 69 -251 22 l-46 -27 0
-182 c-2 -1557 -7 -2856 -12 -2872 -3 -11 -9 -49 -13 -85 -4 -36 -8 -67 -10
-70 -2 -3 -6 -26 -10 -50 -6 -41 -27 -137 -55 -250 -17 -68 -58 -184 -102
-290 -34 -81 -63 -138 -132 -265 -6 -11 -35 -55 -63 -97 -210 -308 -513 -555
-878 -716 -89 -39 -280 -108 -324 -117 -9 -2 -41 -10 -71 -19 -131 -37 -361
-69 -505 -70 -221 -1 -548 69 -810 174 -102 41 -284 131 -342 170 -24 17 -46
30 -49 30 -10 0 -161 115 -229 174 -255 223 -445 504 -570 840 -33 89 -87 279
-98 346 -3 14 -12 63 -21 110 -8 47 -18 108 -21 135 -3 28 -7 64 -10 80 -2 17
-5 701 -5 1522 -1 1390 -3 1492 -18 1507 -29 25 -105 56 -143 56 -19 0 -58
-11 -86 -25z"/>
<path d="M2020 6212 c-30 -4 -66 -42 -91 -97 -13 -29 -19 -64 -19 -126 0 -77
3 -89 29 -131 16 -26 39 -51 50 -57 13 -8 216 -11 633 -11 673 0 640 3 673
-60 13 -25 15 -173 15 -1130 0 -1207 2 -1157 -58 -1183 -22 -9 -178 -12 -626
-11 -673 0 -609 8 -662 -82 -23 -39 -27 -56 -27 -133 0 -73 4 -95 23 -129 48
-85 -1 -79 670 -78 650 2 635 3 666 -56 23 -44 17 -83 -17 -123 l-31 -35 -428
0 -428 0 -38 -56 c-36 -52 -39 -63 -43 -135 -4 -108 3 -137 47 -188 l38 -45
420 0 c319 -1 424 -4 441 -14 50 -28 53 -47 53 -389 0 -315 0 -318 24 -370 31
-65 82 -116 134 -131 23 -7 103 -12 194 -12 l155 0 41 44 c50 54 55 72 51 180
-4 76 -7 88 -35 128 -31 42 -33 43 -103 49 -39 3 -72 7 -74 10 -36 44 -37 53
-37 247 l0 194 33 33 34 34 429 0 429 0 33 38 c42 49 59 111 56 199 -2 72 -14
106 -56 157 l-23 28 -433 0 -433 0 -30 27 c-53 48 -48 134 9 169 27 17 76 18
657 18 l627 0 25 29 c49 58 63 100 63 185 0 94 -17 146 -60 181 l-30 25 -636
0 -636 1 -29 32 -29 32 0 1126 0 1126 34 34 34 34 621 0 621 0 34 48 c39 53
50 96 48 195 -2 71 -14 105 -57 150 -25 26 -29 27 -138 28 -600 2 -2818 3
-2837 1z"/>
<path d="M2019 5508 c-51 -37 -62 -60 -64 -143 -2 -79 16 -135 58 -174 l26
-23 325 0 c293 0 329 -2 347 -17 20 -16 22 -27 23 -194 l1 -177 -342 0 c-417
0 -386 12 -385 -150 0 -36 1 -78 1 -93 1 -15 11 -38 24 -50 22 -22 23 -23 360
-22 296 1 337 -1 338 -15 5 -96 3 -311 -4 -332 -5 -15 -18 -30 -28 -33 -11 -4
-164 -7 -340 -7 -314 0 -320 0 -342 -21 -47 -45 -61 -79 -62 -152 -2 -85 11
-120 59 -163 l37 -32 405 0 c450 0 442 -1 509 70 l30 31 2 801 c3 796 3 801
-18 835 -11 18 -41 45 -67 60 l-46 27 -405 1 -405 0 -37 -27z"/>
<path d="M4094 5528 c-42 -11 -101 -57 -117 -91 -13 -28 -15 -143 -14 -828 2
-782 2 -797 22 -819 11 -13 40 -36 64 -52 l45 -28 406 0 c443 0 423 -2 477 59
29 32 34 61 29 142 -4 71 -20 111 -58 146 -23 21 -29 22 -325 22 -167 0 -316
0 -332 1 -57 0 -61 13 -61 209 l0 177 340 0 c412 0 383 -11 385 141 2 99 -6
138 -34 161 -11 9 -97 12 -353 12 l-338 0 0 179 c0 154 2 180 17 192 13 11 82
14 341 15 234 2 331 5 347 14 13 7 35 33 49 59 20 37 25 60 24 111 -1 82 -16
120 -63 156 l-37 28 -394 1 c-217 0 -406 -3 -420 -7z"/>
</g>
</svg>
