<svg width="100" height="100" viewBox="0 0 100 100" fill="none" xmlns="http://www.w3.org/2000/svg">
<rect width="100" height="100" fill="white"/>
<path d="M30.5677 85.9001C58.5977 95.9201 98.6977 72.3301 89.1977 39.3101C86.5677 30.1601 79.5777 22.5001 70.9577 18.5801C60.7177 13.9201 55.1177 18.4501 48.6477 26.6901C45.0677 31.2601 41.6777 36.2401 36.6477 39.1501C30.3877 42.7801 22.3277 42.7301 16.5577 47.1001C9.8377 52.1901 8.3477 62.3301 11.7877 70.0301C15.2277 77.7201 22.6277 83.0701 30.5677 85.9101V85.9001Z" fill="#90AF5F"/>
<path d="M22.1777 53.5904C22.1777 55.2804 23.6777 56.7504 25.9077 57.5504V49.6304C23.6777 50.4304 22.1777 51.9004 22.1777 53.5904Z" fill="#648D33"/>
<path d="M29.7577 48.9902C28.8077 48.9902 27.8977 49.1002 27.0577 49.3002V57.9002C27.8977 58.0902 28.8077 58.2102 29.7577 58.2102C33.9477 58.2102 37.3477 56.1502 37.3477 53.6102C37.3477 51.0702 33.9477 49.0102 29.7577 49.0102V48.9902Z" fill="#648D33"/>
<path d="M25.9077 12.8599V57.5499C26.2777 57.6799 26.6577 57.7999 27.0677 57.8899V12.8599H25.9077Z" fill="#333333"/>
<path d="M41.3877 16.9L25.9077 11V22.8L41.3877 16.9Z" fill="#D71918"/>
</svg>
