<svg width="225" height="146" viewBox="0 0 225 146" fill="none" xmlns="http://www.w3.org/2000/svg">
<g clip-path="url(#clip0_430_521)">
<path d="M56.23 141.31V129.16H57.7V141.31H56.23Z" fill="#1A1A1A"/>
<path d="M61.42 140.95C60.81 140.57 60.32 140.04 59.97 139.36C59.62 138.68 59.44 137.93 59.44 137.11C59.44 136.29 59.62 135.54 59.97 134.86C60.32 134.18 60.8 133.65 61.42 133.27C62.03 132.89 62.72 132.7 63.48 132.7C64.17 132.7 64.77 132.84 65.28 133.13C65.78 133.42 66.15 133.76 66.38 134.16V132.91H67.85V141.32H66.38V140.07C66.15 140.47 65.79 140.82 65.28 141.1C64.77 141.38 64.18 141.53 63.48 141.53C62.72 141.53 62.03 141.34 61.42 140.96V140.95ZM65.06 139.78C65.48 139.51 65.81 139.14 66.05 138.68C66.29 138.22 66.41 137.69 66.41 137.11C66.41 136.53 66.29 136.01 66.05 135.54C65.81 135.07 65.48 134.71 65.06 134.44C64.64 134.17 64.15 134.04 63.61 134.04C63.07 134.04 62.6 134.17 62.19 134.44C61.78 134.7 61.46 135.07 61.23 135.54C61 136.01 60.89 136.53 60.89 137.11C60.89 137.69 61 138.21 61.23 138.68C61.46 139.15 61.78 139.52 62.19 139.78C62.6 140.04 63.08 140.18 63.61 140.18C64.14 140.18 64.63 140.05 65.06 139.78Z" fill="#1A1A1A"/>
<path d="M76.43 141.09C75.93 140.81 75.56 140.46 75.33 140.06V144.88H73.86V132.9H75.33V134.15C75.56 133.75 75.92 133.41 76.43 133.12C76.93 132.84 77.53 132.69 78.23 132.69C78.99 132.69 79.68 132.88 80.29 133.26C80.9 133.64 81.39 134.17 81.74 134.85C82.09 135.53 82.27 136.28 82.27 137.1C82.27 137.92 82.09 138.67 81.74 139.35C81.39 140.03 80.91 140.56 80.29 140.94C79.68 141.32 78.99 141.51 78.23 141.51C77.54 141.51 76.94 141.37 76.43 141.08V141.09ZM79.52 139.78C79.93 139.52 80.25 139.15 80.48 138.68C80.71 138.21 80.82 137.68 80.82 137.11C80.82 136.54 80.71 136.01 80.48 135.54C80.25 135.07 79.93 134.7 79.52 134.44C79.11 134.18 78.63 134.04 78.1 134.04C77.57 134.04 77.08 134.17 76.65 134.44C76.23 134.71 75.9 135.08 75.66 135.54C75.42 136.01 75.3 136.53 75.3 137.11C75.3 137.69 75.42 138.21 75.66 138.68C75.9 139.15 76.23 139.51 76.65 139.78C77.07 140.05 77.56 140.18 78.1 140.18C78.64 140.18 79.1 140.05 79.52 139.78Z" fill="#1A1A1A"/>
<path d="M85.55 140.95C84.94 140.57 84.45 140.04 84.1 139.36C83.75 138.68 83.57 137.93 83.57 137.11C83.57 136.29 83.75 135.54 84.1 134.86C84.45 134.18 84.93 133.65 85.55 133.27C86.16 132.89 86.85 132.7 87.61 132.7C88.3 132.7 88.9 132.84 89.41 133.13C89.91 133.42 90.28 133.76 90.51 134.16V132.91H91.98V141.32H90.51V140.07C90.28 140.47 89.92 140.82 89.41 141.1C88.9 141.38 88.31 141.53 87.61 141.53C86.85 141.53 86.16 141.34 85.55 140.96V140.95ZM89.19 139.78C89.61 139.51 89.94 139.14 90.18 138.68C90.42 138.22 90.54 137.69 90.54 137.11C90.54 136.53 90.42 136.01 90.18 135.54C89.94 135.07 89.61 134.71 89.19 134.44C88.77 134.17 88.28 134.04 87.74 134.04C87.2 134.04 86.73 134.17 86.32 134.44C85.91 134.7 85.59 135.07 85.36 135.54C85.13 136.01 85.02 136.53 85.02 137.11C85.02 137.69 85.13 138.21 85.36 138.68C85.59 139.15 85.91 139.52 86.32 139.78C86.73 140.04 87.21 140.18 87.74 140.18C88.27 140.18 88.76 140.05 89.19 139.78Z" fill="#1A1A1A"/>
<path d="M99.13 133.01C99.66 133.22 100.09 133.51 100.41 133.88C100.73 134.25 100.9 134.67 100.92 135.14H99.48C99.45 134.79 99.23 134.5 98.82 134.27C98.41 134.04 97.91 133.93 97.31 133.93C96.71 133.93 96.23 134.04 95.85 134.25C95.47 134.46 95.27 134.73 95.27 135.04C95.27 135.4 95.45 135.69 95.81 135.91C96.17 136.13 96.82 136.3 97.79 136.44C98.98 136.61 99.83 136.89 100.34 137.29C100.85 137.69 101.11 138.23 101.11 138.91C101.11 139.44 100.95 139.9 100.62 140.29C100.29 140.68 99.85 140.98 99.29 141.19C98.73 141.4 98.11 141.51 97.42 141.51C96.73 141.51 96.08 141.4 95.54 141.18C95 140.96 94.57 140.66 94.26 140.27C93.95 139.88 93.78 139.44 93.74 138.95H95.18C95.23 139.31 95.45 139.62 95.84 139.88C96.23 140.14 96.77 140.27 97.46 140.27C98.1 140.27 98.63 140.15 99.04 139.91C99.45 139.67 99.67 139.36 99.67 138.99C99.67 138.62 99.48 138.36 99.09 138.14C98.71 137.93 98.04 137.76 97.09 137.63C95.97 137.47 95.15 137.2 94.62 136.8C94.1 136.4 93.83 135.84 93.83 135.12C93.83 134.64 93.99 134.21 94.29 133.84C94.6 133.47 95.02 133.18 95.55 132.98C96.08 132.78 96.68 132.68 97.35 132.68C98.02 132.68 98.6 132.79 99.13 133V133.01Z" fill="#1A1A1A"/>
<path d="M107.8 133.01C108.33 133.22 108.76 133.51 109.08 133.88C109.4 134.25 109.57 134.67 109.59 135.14H108.15C108.12 134.79 107.9 134.5 107.49 134.27C107.08 134.04 106.58 133.93 105.98 133.93C105.38 133.93 104.9 134.04 104.52 134.25C104.14 134.47 103.94 134.73 103.94 135.04C103.94 135.4 104.12 135.69 104.48 135.91C104.84 136.13 105.49 136.3 106.45 136.44C107.64 136.61 108.49 136.89 109 137.29C109.51 137.69 109.77 138.23 109.77 138.91C109.77 139.44 109.61 139.9 109.28 140.29C108.95 140.68 108.51 140.98 107.95 141.19C107.39 141.4 106.77 141.51 106.08 141.51C105.39 141.51 104.74 141.4 104.2 141.18C103.66 140.96 103.23 140.66 102.92 140.27C102.61 139.88 102.44 139.44 102.4 138.95H103.84C103.89 139.31 104.11 139.62 104.5 139.88C104.89 140.14 105.43 140.27 106.12 140.27C106.76 140.27 107.29 140.15 107.7 139.91C108.12 139.67 108.33 139.36 108.33 138.99C108.33 138.62 108.14 138.36 107.75 138.14C107.36 137.93 106.7 137.76 105.75 137.63C104.63 137.47 103.81 137.2 103.28 136.8C102.76 136.4 102.5 135.84 102.5 135.12C102.5 134.64 102.65 134.21 102.96 133.84C103.27 133.47 103.69 133.18 104.22 132.98C104.75 132.78 105.35 132.68 106.02 132.68C106.69 132.68 107.27 132.79 107.8 133V133.01Z" fill="#1A1A1A"/>
<path d="M113.04 140.95C112.42 140.57 111.93 140.04 111.58 139.37C111.23 138.7 111.05 137.95 111.05 137.11C111.05 136.27 111.23 135.52 111.58 134.85C111.93 134.18 112.42 133.65 113.04 133.27C113.66 132.89 114.36 132.7 115.14 132.7C115.92 132.7 116.62 132.89 117.24 133.27C117.86 133.65 118.35 134.18 118.7 134.85C119.05 135.52 119.22 136.27 119.22 137.11C119.22 137.38 119.22 137.59 119.19 137.73H112.52C112.6 138.47 112.87 139.07 113.35 139.54C113.83 140.01 114.43 140.25 115.14 140.25C115.68 140.25 116.16 140.13 116.57 139.9C116.98 139.67 117.27 139.38 117.42 139.02H118.92C118.69 139.76 118.24 140.35 117.55 140.82C116.86 141.29 116.06 141.52 115.14 141.52C114.36 141.52 113.66 141.33 113.04 140.95ZM116.94 134.68C116.46 134.21 115.87 133.98 115.14 133.98C114.41 133.98 113.82 134.21 113.34 134.68C112.86 135.15 112.59 135.75 112.51 136.5H117.77C117.68 135.76 117.4 135.15 116.93 134.68H116.94Z" fill="#1A1A1A"/>
<path d="M122.3 144.25C121.64 143.69 121.23 142.97 121.08 142.11H122.58C122.67 142.6 122.92 143 123.31 143.32C123.7 143.64 124.25 143.79 124.94 143.79C125.69 143.79 126.3 143.55 126.76 143.06C127.22 142.57 127.45 141.93 127.45 141.11V139.95C127.22 140.35 126.86 140.7 126.35 140.98C125.84 141.26 125.25 141.41 124.55 141.41C123.79 141.41 123.1 141.22 122.49 140.84C121.88 140.46 121.39 139.94 121.04 139.28C120.69 138.62 120.51 137.88 120.51 137.07C120.51 136.26 120.69 135.52 121.04 134.85C121.39 134.18 121.87 133.66 122.49 133.28C123.1 132.9 123.79 132.71 124.55 132.71C125.24 132.71 125.84 132.85 126.35 133.14C126.85 133.43 127.22 133.77 127.45 134.17V132.92H128.92V141.14C128.92 141.9 128.75 142.59 128.41 143.19C128.07 143.79 127.6 144.26 127 144.6C126.4 144.94 125.71 145.11 124.94 145.11C123.84 145.11 122.95 144.83 122.29 144.26L122.3 144.25ZM126.14 139.7C126.56 139.44 126.89 139.07 127.13 138.61C127.37 138.15 127.49 137.64 127.49 137.07C127.49 136.5 127.37 135.99 127.13 135.53C126.89 135.07 126.56 134.71 126.14 134.44C125.72 134.17 125.23 134.04 124.69 134.04C124.15 134.04 123.68 134.17 123.27 134.44C122.86 134.7 122.54 135.07 122.31 135.53C122.08 135.99 121.97 136.51 121.97 137.07C121.97 137.63 122.08 138.15 122.31 138.61C122.54 139.07 122.86 139.43 123.27 139.7C123.68 139.96 124.16 140.1 124.69 140.1C125.22 140.1 125.71 139.97 126.14 139.7Z" fill="#1A1A1A"/>
<path d="M132.44 144.25C131.78 143.69 131.37 142.97 131.22 142.11H132.72C132.81 142.6 133.06 143 133.45 143.32C133.84 143.64 134.39 143.79 135.08 143.79C135.83 143.79 136.44 143.55 136.9 143.06C137.36 142.57 137.59 141.93 137.59 141.11V139.95C137.36 140.35 137 140.7 136.49 140.98C135.98 141.26 135.39 141.41 134.69 141.41C133.93 141.41 133.24 141.22 132.63 140.84C132.02 140.46 131.53 139.94 131.18 139.28C130.83 138.62 130.65 137.88 130.65 137.07C130.65 136.26 130.83 135.52 131.18 134.85C131.53 134.18 132.01 133.66 132.63 133.28C133.24 132.9 133.93 132.71 134.69 132.71C135.38 132.71 135.98 132.85 136.49 133.14C136.99 133.43 137.36 133.77 137.59 134.17V132.92H139.06V141.14C139.06 141.9 138.89 142.59 138.55 143.19C138.21 143.79 137.74 144.26 137.14 144.6C136.54 144.94 135.85 145.11 135.08 145.11C133.98 145.11 133.09 144.83 132.43 144.26L132.44 144.25ZM136.28 139.7C136.7 139.44 137.03 139.07 137.27 138.61C137.51 138.15 137.63 137.64 137.63 137.07C137.63 136.5 137.51 135.99 137.27 135.53C137.03 135.07 136.7 134.71 136.28 134.44C135.86 134.17 135.37 134.04 134.83 134.04C134.29 134.04 133.82 134.17 133.41 134.44C133 134.7 132.68 135.07 132.45 135.53C132.22 135.99 132.11 136.51 132.11 137.07C132.11 137.63 132.22 138.15 132.45 138.61C132.68 139.07 133 139.43 133.41 139.7C133.82 139.96 134.3 140.1 134.83 140.1C135.36 140.1 135.85 139.97 136.28 139.7Z" fill="#1A1A1A"/>
<path d="M142.67 129.31C142.86 129.5 142.95 129.74 142.95 130.02C142.95 130.3 142.86 130.54 142.67 130.73C142.49 130.92 142.25 131.02 141.96 131.02C141.67 131.02 141.45 130.92 141.27 130.73C141.08 130.54 140.99 130.3 140.99 130.02C140.99 129.74 141.08 129.5 141.27 129.31C141.46 129.12 141.69 129.02 141.96 129.02C142.23 129.02 142.48 129.11 142.67 129.31ZM141.24 141.33V132.9H142.71V141.33H141.24Z" fill="#1A1A1A"/>
<path d="M146.42 140.95C145.81 140.57 145.32 140.04 144.97 139.36C144.62 138.68 144.44 137.93 144.44 137.11C144.44 136.29 144.62 135.54 144.97 134.86C145.32 134.18 145.8 133.65 146.42 133.27C147.03 132.89 147.72 132.7 148.48 132.7C149.17 132.7 149.77 132.84 150.28 133.13C150.78 133.42 151.15 133.76 151.38 134.16V132.91H152.85V141.32H151.38V140.07C151.15 140.47 150.79 140.82 150.28 141.1C149.77 141.38 149.18 141.53 148.48 141.53C147.72 141.53 147.03 141.34 146.42 140.96V140.95ZM150.06 139.78C150.48 139.51 150.81 139.14 151.05 138.68C151.29 138.21 151.41 137.69 151.41 137.11C151.41 136.53 151.29 136.01 151.05 135.54C150.81 135.07 150.48 134.71 150.06 134.44C149.64 134.17 149.15 134.04 148.61 134.04C148.07 134.04 147.6 134.17 147.19 134.44C146.78 134.7 146.46 135.07 146.23 135.54C146 136.01 145.89 136.53 145.89 137.11C145.89 137.69 146 138.21 146.23 138.68C146.46 139.15 146.78 139.52 147.19 139.78C147.6 140.04 148.08 140.18 148.61 140.18C149.14 140.18 149.63 140.05 150.06 139.78Z" fill="#1A1A1A"/>
<path d="M159.29 134.24H157.48V141.31H156.01V134.24H154.2V132.9H156.01V130.34H157.48V132.9H159.29V134.24Z" fill="#1A1A1A"/>
<path d="M161.93 140.95C161.32 140.57 160.83 140.04 160.48 139.36C160.13 138.68 159.95 137.93 159.95 137.11C159.95 136.29 160.13 135.54 160.48 134.86C160.83 134.18 161.31 133.65 161.93 133.27C162.54 132.89 163.23 132.7 163.99 132.7C164.68 132.7 165.28 132.84 165.79 133.13C166.29 133.42 166.66 133.76 166.89 134.16V132.91H168.36V141.32H166.89V140.07C166.66 140.47 166.3 140.82 165.79 141.1C165.28 141.38 164.69 141.53 163.99 141.53C163.23 141.53 162.54 141.34 161.93 140.96V140.95ZM165.57 139.78C165.99 139.51 166.32 139.14 166.56 138.68C166.8 138.21 166.92 137.69 166.92 137.11C166.92 136.53 166.8 136.01 166.56 135.54C166.32 135.07 165.99 134.71 165.57 134.44C165.15 134.17 164.66 134.04 164.12 134.04C163.58 134.04 163.11 134.17 162.7 134.44C162.29 134.7 161.97 135.07 161.74 135.54C161.51 136.01 161.4 136.53 161.4 137.11C161.4 137.69 161.51 138.21 161.74 138.68C161.97 139.15 162.29 139.52 162.7 139.78C163.11 140.04 163.59 140.18 164.12 140.18C164.65 140.18 165.14 140.05 165.57 139.78Z" fill="#1A1A1A"/>
<path d="M0 95.4899H25.93V99.8399H20.95V112.56H25.93V116.91H0V112.56H4.88V99.8399H0V95.4899ZM9.76 99.8399V112.56H16.02V99.8399H9.76ZM32.83 91.7999C31.34 90.7999 29.81 89.7399 28.32 88.7899C28.96 87.5599 29.59 86.3299 30.18 85.1099C32.78 86.4499 35.38 87.7299 37.92 89.0699V100.51H45.4V104.98H37.92V117.03H32.83V91.7999Z" fill="#1A1A1A"/>
<path d="M55.89 105.09V95.0399H61.3V105.09C64.16 107.99 66.92 110.95 69.73 113.91C68.72 114.97 67.61 116.03 66.6 117.15L58.59 109.39L49.79 117.65C48.78 116.59 47.78 115.42 46.82 114.36L55.89 105.1V105.09ZM75.4 104.81H67.87V100.29H75.4V94.2099L71.05 91.2499L72.85 87.6199L80.38 91.4199V117.04H75.4V104.82V104.81ZM85.42 91.8099L80.86 88.7399L82.66 85.1099L90.4 89.0699V117.03H85.42V91.7999V91.8099Z" fill="#1A1A1A"/>
<path d="M105.58 104.54V99.7996H97.63V95.3896H118.47V99.7996H110.94V104.54L119.85 113.86L116.77 116.98L108.23 108.78L99.16 117.26L96.24 114.08L105.57 104.54H105.58ZM133.79 117.04H128.7V91.8096C127.16 90.8096 125.68 89.7496 124.14 88.7996C124.78 87.5696 125.47 86.3396 126.05 85.1196C128.65 86.4596 131.25 87.7396 133.79 89.0796V117.04Z" fill="#1A1A1A"/>
<path d="M152.29 98.5599C156.64 99.5599 159.29 103.19 159.29 107.43C159.29 112.62 155.63 116.69 149.69 116.69C143.75 116.69 140.15 112.62 140.15 107.43C140.15 103.19 142.75 99.5599 147.15 98.5599V94.2099H152.29V98.5599ZM154.41 107.43C154.41 104.53 152.5 102.52 149.69 102.52C146.88 102.52 145.02 104.53 145.02 107.43C145.02 110.33 146.93 112.4 149.69 112.4C152.45 112.4 154.41 110.39 154.41 107.43ZM168.36 91.7999C166.82 90.7999 165.34 89.7399 163.8 88.7899C164.44 87.5599 165.13 86.3299 165.71 85.1099C168.31 86.4499 170.91 87.7299 173.45 89.0699V100.57H180.93V105.04H173.45V117.04H168.36V91.8099V91.7999Z" fill="#1A1A1A"/>
<path d="M189.94 106.21H201.39V110.62H189.94V116.7H204.1V121.17H184.8V95.7196H203.04V100.19H189.94V106.22V106.21ZM212.32 91.8096C210.78 90.8096 209.3 89.7496 207.76 88.7996C208.4 87.5696 209.09 86.3396 209.67 85.1196L217.46 89.0796V100.58H224.83V105.05H217.46V117.05H212.32V91.8196V91.8096Z" fill="#1A1A1A"/>
<path d="M92.53 74.9001C120.56 84.9201 160.66 61.3301 151.16 28.3101C148.53 19.1601 141.54 11.5001 132.92 7.58007C122.68 2.92007 117.08 7.45007 110.61 15.6901C107.03 20.2601 103.64 25.2401 98.61 28.1501C92.35 31.7801 84.29 31.7301 78.52 36.1001C71.8 41.1901 70.31 51.3301 73.75 59.0301C77.19 66.7201 84.59 72.0701 92.53 74.9101V74.9001Z" fill="#90AF5F"/>
<path d="M84.14 42.5904C84.14 44.2804 85.64 45.7504 87.87 46.5504V38.6304C85.64 39.4304 84.14 40.9004 84.14 42.5904Z" fill="#648D33"/>
<path d="M91.72 37.9902C90.77 37.9902 89.86 38.1002 89.02 38.3002V46.9002C89.86 47.0902 90.77 47.2102 91.72 47.2102C95.91 47.2102 99.31 45.1502 99.31 42.6102C99.31 40.0702 95.91 38.0102 91.72 38.0102V37.9902Z" fill="#648D33"/>
<path d="M87.87 1.85986V46.5499C88.24 46.6799 88.62 46.7999 89.03 46.8899V1.85986H87.87Z" fill="#333333"/>
<path d="M103.35 5.9L87.87 0V11.8L103.35 5.9Z" fill="#D71918"/>
<path d="M224.76 137.2H171.6V137.95H224.76V137.2Z" fill="#1A1A1A"/>
<path d="M52.61 137.2H0.700012V137.95H52.61V137.2Z" fill="#1A1A1A"/>
<path d="M224.76 134.46H171.6V135.21H224.76V134.46Z" fill="#1A1A1A"/>
<path d="M52.61 134.46H0.700012V135.21H52.61V134.46Z" fill="#1A1A1A"/>
</g>
<defs>
<clipPath id="clip0_430_521">
<rect width="224.83" height="145.09" fill="white"/>
</clipPath>
</defs>
</svg>
