<svg width="453" height="372" viewBox="0 0 453 372" fill="none" xmlns="http://www.w3.org/2000/svg">
<path d="M240.9 97.8999H212.2V116.2H240.9V97.8999Z" fill="#727272"/>
<path d="M240.9 198.3H212.2V216.6H240.9V198.3Z" fill="#727272"/>
<path d="M247.7 121.2H243.3H209.7H205.3V131.6H247.7V121.2Z" fill="#DDDDDD"/>
<path d="M209.7 221.7H205.3V232H247.7V221.7H243.3H209.7Z" fill="#DDDDDD"/>
<path d="M176 186.7H156.3H120.3H94.7998V232H176V186.7Z" fill="#DDDDDD"/>
<path d="M153.8 163.3H122.8V181.6H153.8V163.3Z" fill="#727272"/>
<path d="M153.8 62.8999H122.8V81.1999H153.8V62.8999Z" fill="#727272"/>
<path d="M176 284.6H156.3H120.3H94.7998V329.9H176V284.6Z" fill="#DDDDDD"/>
<path d="M176 86.2H156.3H120.3H94.7998V131.6H176V86.2Z" fill="#DDDDDD"/>
<path d="M290 6.19995H163V23.9H290V6.19995Z" fill="#727272"/>
<path d="M358.3 28.8999H292.5H160.5H94.7998V42.3999H358.3V28.8999Z" fill="#DDDDDD"/>
<path d="M153.8 261.2H122.8V279.5H153.8V261.2Z" fill="#727272"/>
<path d="M296.7 284.6H277V329.9H358.3V284.6H332.8H296.7Z" fill="#DDDDDD"/>
<path d="M229 294.7V365.9H247.7V315.8C247.7 304.9 239.5 296 229 294.7Z" fill="#727272"/>
<path d="M330.2 261.2H299.2V279.5H330.2V261.2Z" fill="#727272"/>
<path d="M205.3 315.8V365.9H224V294.7C213.5 296 205.3 304.9 205.3 315.8Z" fill="#727272"/>
<path d="M296.7 186.7H277V232H358.3V186.7H332.8H296.7Z" fill="#DDDDDD"/>
<path d="M330.2 62.8999H299.2V81.1999H330.2V62.8999Z" fill="#727272"/>
<path d="M296.7 86.2H277V131.6H358.3V86.2H332.8H296.7Z" fill="#DDDDDD"/>
<path d="M330.2 163.3H299.2V181.6H330.2V163.3Z" fill="#727272"/>
<path d="M243.4 95.3999H209.7V118.7H243.4V95.3999Z" stroke="#333333" stroke-width="6" stroke-miterlimit="10" stroke-linecap="round" stroke-linejoin="round"/>
<path d="M250.2 118.7H202.8V134H250.2V118.7Z" stroke="#333333" stroke-width="6" stroke-miterlimit="10" stroke-linecap="round" stroke-linejoin="round"/>
<path d="M243.4 195.8H209.7V219.1H243.4V195.8Z" stroke="#333333" stroke-width="6" stroke-miterlimit="10" stroke-linecap="round" stroke-linejoin="round"/>
<path d="M250.2 219.2H202.8V234.5H250.2V219.2Z" stroke="#333333" stroke-width="6" stroke-miterlimit="10" stroke-linecap="round" stroke-linejoin="round"/>
<path d="M226.5 292.1C213.4 292.1 202.8 302.7 202.8 315.8V368.4H250.2V315.8C250.2 302.7 239.6 292.1 226.5 292.1Z" stroke="#333333" stroke-width="6" stroke-miterlimit="10" stroke-linecap="round" stroke-linejoin="round"/>
<path d="M226.5 292.1V368.4" stroke="#333333" stroke-width="6" stroke-miterlimit="10" stroke-linecap="round" stroke-linejoin="round"/>
<path d="M103.5 332.4V368.4" stroke="#333333" stroke-width="6" stroke-miterlimit="10" stroke-linecap="round" stroke-linejoin="round"/>
<path d="M103.5 234.5V282.1" stroke="#333333" stroke-width="6" stroke-miterlimit="10" stroke-linecap="round" stroke-linejoin="round"/>
<path d="M103.5 134.1V184.2" stroke="#333333" stroke-width="6" stroke-miterlimit="10" stroke-linecap="round" stroke-linejoin="round"/>
<path d="M103.5 44.8999V83.6999" stroke="#333333" stroke-width="6" stroke-miterlimit="10" stroke-linecap="round" stroke-linejoin="round"/>
<path d="M349.5 332.4V368.4" stroke="#333333" stroke-width="6" stroke-miterlimit="10" stroke-linecap="round" stroke-linejoin="round"/>
<path d="M349.5 234.5V282.1" stroke="#333333" stroke-width="6" stroke-miterlimit="10" stroke-linecap="round" stroke-linejoin="round"/>
<path d="M349.5 134.1V184.2" stroke="#333333" stroke-width="6" stroke-miterlimit="10" stroke-linecap="round" stroke-linejoin="round"/>
<path d="M349.5 44.8999V83.6999" stroke="#333333" stroke-width="6" stroke-miterlimit="10" stroke-linecap="round" stroke-linejoin="round"/>
<path d="M360.8 26.3999H92.2998V44.8999H360.8V26.3999Z" stroke="#333333" stroke-width="6" stroke-miterlimit="10" stroke-linecap="round" stroke-linejoin="round"/>
<path d="M292.5 3.69995H160.5V26.4H292.5V3.69995Z" stroke="#333333" stroke-width="6" stroke-miterlimit="10" stroke-linecap="round" stroke-linejoin="round"/>
<path d="M3 368.4H450" stroke="#333333" stroke-width="6" stroke-miterlimit="10" stroke-linecap="round" stroke-linejoin="round"/>
<path d="M178.6 83.7H92.2998V134H178.6V83.7Z" stroke="#333333" stroke-width="6" stroke-miterlimit="10" stroke-linecap="round" stroke-linejoin="round"/>
<path d="M156.2 60.3999H120.2V83.6999H156.2V60.3999Z" stroke="#333333" stroke-width="6" stroke-miterlimit="10" stroke-linecap="round" stroke-linejoin="round"/>
<path d="M274.45 134.13L360.75 134.13L360.75 83.8299L274.45 83.8299L274.45 134.13Z" stroke="#333333" stroke-width="6" stroke-miterlimit="10" stroke-linecap="round" stroke-linejoin="round"/>
<path d="M296.791 83.7634L332.791 83.7634L332.791 60.4634L296.791 60.4634L296.791 83.7634Z" stroke="#333333" stroke-width="6" stroke-miterlimit="10" stroke-linecap="round" stroke-linejoin="round"/>
<path d="M178.6 184.2H92.2998V234.5H178.6V184.2Z" stroke="#333333" stroke-width="6" stroke-miterlimit="10" stroke-linecap="round" stroke-linejoin="round"/>
<path d="M156.2 160.8H120.2V184.1H156.2V160.8Z" stroke="#333333" stroke-width="6" stroke-miterlimit="10" stroke-linecap="round" stroke-linejoin="round"/>
<path d="M274.45 234.464L360.75 234.464L360.75 184.164L274.45 184.164L274.45 234.464Z" stroke="#333333" stroke-width="6" stroke-miterlimit="10" stroke-linecap="round" stroke-linejoin="round"/>
<path d="M296.791 184.197L332.791 184.197L332.791 160.897L296.791 160.897L296.791 184.197Z" stroke="#333333" stroke-width="6" stroke-miterlimit="10" stroke-linecap="round" stroke-linejoin="round"/>
<path d="M178.6 282.1H92.2998V332.4H178.6V282.1Z" stroke="#333333" stroke-width="6" stroke-miterlimit="10" stroke-linecap="round" stroke-linejoin="round"/>
<path d="M156.2 258.7H120.2V282H156.2V258.7Z" stroke="#333333" stroke-width="6" stroke-miterlimit="10" stroke-linecap="round" stroke-linejoin="round"/>
<path d="M274.45 332.397L360.75 332.397L360.75 282.097L274.45 282.097L274.45 332.397Z" stroke="#333333" stroke-width="6" stroke-miterlimit="10" stroke-linecap="round" stroke-linejoin="round"/>
<path d="M296.791 282.13L332.791 282.13L332.791 258.83L296.791 258.83L296.791 282.13Z" stroke="#333333" stroke-width="6" stroke-miterlimit="10" stroke-linecap="round" stroke-linejoin="round"/>
</svg>
