<svg width="24" height="24" viewBox="0 0 24 24" fill="none" xmlns="http://www.w3.org/2000/svg">
<path d="M13.7013 6.30364C13.5181 6.49057 13.4155 6.74189 13.4155 7.00364C13.4155 7.26539 13.5181 7.51671 13.7013 7.70364L15.3013 9.30364C15.4882 9.48687 15.7396 9.5895 16.0013 9.5895C16.2631 9.5895 16.5144 9.48687 16.7013 9.30364L20.4713 5.53364C20.9742 6.64483 21.1264 7.88288 20.9078 9.08279C20.6892 10.2827 20.11 11.3875 19.2476 12.2499C18.3852 13.1124 17.2804 13.6915 16.0805 13.9101C14.8806 14.1287 13.6425 13.9765 12.5313 13.4736L5.62132 20.3836C5.2235 20.7815 4.68393 21.005 4.12132 21.005C3.55871 21.005 3.01914 20.7815 2.62132 20.3836C2.2235 19.9858 2 19.4462 2 18.8836C2 18.321 2.2235 17.7815 2.62132 17.3836L9.53132 10.4736C9.02848 9.36245 8.87624 8.12441 9.09486 6.9245C9.31349 5.72459 9.89261 4.6198 10.755 3.75736C11.6175 2.89493 12.7223 2.31581 13.9222 2.09718C15.1221 1.87856 16.3601 2.03081 17.4713 2.53364L13.7113 6.29364L13.7013 6.30364Z" stroke="white" stroke-width="2" stroke-linecap="round" stroke-linejoin="round"/>
</svg>
