<svg width="24" height="24" viewBox="0 0 24 24" fill="none" xmlns="http://www.w3.org/2000/svg">
<path d="M16 7.00781C16 8.11719 15.6094 9.0625 14.8281 9.84375C14.0469 10.625 13.1016 11.0156 11.9922 11.0156C10.8828 11.0156 9.9375 10.625 9.15625 9.84375C8.375 9.0625 7.98438 8.11719 7.98438 7.00781C7.98438 5.89844 8.375 4.95312 9.15625 4.17188C9.9375 3.39062 10.8828 3 11.9922 3C13.1016 3 14.0469 3.39062 14.8281 4.17188C15.6094 4.95312 16 5.89844 16 7.00781ZM4 20.0156C4 18.7656 4.20312 17.6484 4.60938 16.6641C5.03125 15.6797 5.60156 14.8438 6.32031 14.1562C7.05469 13.4531 7.90625 12.9219 8.875 12.5625C9.84375 12.1875 10.8828 12 11.9922 12C13.1016 12 14.1406 12.1875 15.1094 12.5625C16.0781 12.9219 16.9219 13.4531 17.6406 14.1562C18.375 14.8438 18.9453 15.6797 19.3516 16.6641C19.7734 17.6484 19.9844 18.7656 19.9844 20.0156H4Z" fill="black" fill-opacity="0.2"/>
</svg>
