<svg width="24" height="24" viewBox="0 0 24 24" fill="none" xmlns="http://www.w3.org/2000/svg">
<path d="M17.9922 8H16.9844V5.98438C16.9844 4.89062 16.5938 3.95312 15.8125 3.17188C15.0312 2.39062 14.0938 2 13 2H10.9844C9.89062 2 8.95312 2.39062 8.17188 3.17188C7.39062 3.95312 7 4.89062 7 5.98438V8H5.99219C5.44531 8 4.97656 8.19531 4.58594 8.58594C4.19531 8.97656 4 9.44531 4 9.99219V20C4 20.5469 4.19531 21.0156 4.58594 21.4062C4.97656 21.7969 5.44531 21.9922 5.99219 21.9922H17.9922C18.5391 21.9922 19.0078 21.7969 19.3984 21.4062C19.7891 21.0156 19.9844 20.5469 19.9844 20V9.99219C19.9844 9.44531 19.7891 8.97656 19.3984 8.58594C19.0078 8.19531 18.5391 8 17.9922 8ZM8.99219 5.98438C8.99219 5.4375 9.1875 4.96875 9.57812 4.57812C9.96875 4.1875 10.4375 3.99219 10.9844 3.99219H13C13.5469 3.99219 14.0156 4.1875 14.4062 4.57812C14.7969 4.96875 14.9922 5.4375 14.9922 5.98438V8H8.99219V5.98438ZM5.99219 20V9.99219H17.9922V20H5.99219ZM10.9844 12.9922H13V17H10.9844V12.9922Z" fill="black" fill-opacity="0.2"/>
</svg>
