<svg width="82" height="20" viewBox="0 0 82 20" fill="none" xmlns="http://www.w3.org/2000/svg">
<path d="M17.8031 0.971491C16.8817 0.539062 15.7435 0.539062 13.3588 0.539062H7.5595C5.22896 0.539062 4.03659 0.539062 3.16941 0.971491C2.30223 1.40392 1.59765 2.10662 1.16406 2.97147C0.730469 3.89038 0.730469 5.02551 0.730469 7.40387V13.1876C0.730469 15.5119 0.730469 16.7011 1.16406 17.62C1.59765 18.4848 2.30223 19.1875 3.16941 19.62C4.03659 19.9983 5.22896 19.9984 7.5595 19.9984H13.3588C15.6893 19.9984 16.8817 19.9984 17.8031 19.5659C18.6702 19.1335 19.3748 18.4308 19.8084 17.5659C20.242 16.647 20.242 15.5119 20.242 13.1335V7.34981C20.242 5.02551 20.242 3.83633 19.8084 2.91742C19.3748 2.10662 18.6702 1.40392 17.8031 0.971491ZM6.09614 16.1065C5.93354 16.4308 5.60835 16.593 5.28316 16.593C5.12056 16.593 4.95797 16.5389 4.79537 16.4849C4.30758 16.2146 4.19918 15.62 4.47018 15.1876L4.68697 14.8092C4.95797 14.7552 5.17476 14.7011 5.44575 14.7011C5.93354 14.7011 6.36713 14.9173 6.63813 15.2957L6.09614 16.1065ZM11.6244 13.6741H4.14499C3.603 13.6741 3.16941 13.2417 3.16941 12.7011C3.16941 12.1606 3.603 11.7282 4.14499 11.7282H6.42133L9.23966 6.86333L8.37248 5.40388C8.10149 4.9174 8.26409 4.32281 8.75187 4.05254C8.91447 3.94444 9.13127 3.89038 9.29386 3.94444C9.61905 3.94444 9.89005 4.1066 10.0526 4.43092L10.3778 4.97146L10.703 4.43092C10.974 3.94444 11.5702 3.83633 12.0038 4.1066C12.4916 4.32281 12.6542 4.9174 12.3832 5.40388L8.64348 11.7282H10.6488C10.974 11.9444 11.1908 12.2146 11.4076 12.539C11.6786 12.8633 11.7328 13.2957 11.6244 13.6741ZM16.7733 13.6741H15.5267L16.3939 15.1335C16.6649 15.62 16.5023 16.1605 16.0687 16.4308C15.9061 16.5389 15.7435 16.5389 15.5809 16.5389C15.2557 16.5389 14.9305 16.3768 14.7679 16.0524L11.7328 10.8633C11.3534 10.1065 11.3534 9.18763 11.787 8.48494L12.1664 7.8363L14.4427 11.7282H16.8275C17.3695 11.7282 17.8031 12.1606 17.8031 12.7011C17.8031 13.2417 17.3153 13.6741 16.7733 13.6741Z" fill="#BABABA"/>
<path d="M80.9985 9.5116C80.8901 9.18728 80.6191 8.86296 80.2397 8.43053C79.8603 7.9981 79.2641 7.83594 78.4511 7.83594C77.855 7.83594 77.3672 7.94404 76.8794 8.21431C76.4458 8.48458 76.0664 8.86296 75.7954 9.29538C75.5244 9.78187 75.416 10.3224 75.416 10.917C75.416 11.5116 75.5244 12.0521 75.7954 12.5386C76.0664 13.0251 76.3916 13.3494 76.8794 13.6197C77.313 13.8899 77.855 13.998 78.4511 13.998C79.1557 13.998 79.6977 13.8359 80.1313 13.5656C80.5649 13.2953 80.8901 12.917 81.1069 12.5386L80.0229 12.0521C79.9145 12.2143 79.7519 12.3764 79.4809 12.5927C79.2099 12.8089 78.8847 12.8629 78.4511 12.8629C78.0718 12.8629 77.6924 12.7548 77.4214 12.4845C77.0962 12.2143 76.9336 11.89 76.8252 11.4575H81.3237C81.3237 11.4575 81.3237 11.4035 81.3237 11.3494C81.3237 11.2954 81.3237 11.1873 81.3237 11.0251C81.2695 10.4305 81.2153 9.94403 80.9985 9.5116ZM76.771 10.3765C76.8252 9.94403 77.042 9.61971 77.3672 9.40349C77.6924 9.13322 78.0176 9.02512 78.4511 9.02512C78.8847 9.02512 79.2641 9.13322 79.4809 9.40349C79.7519 9.67376 79.9145 9.99808 79.9687 10.3765H76.771Z" fill="#BABABA"/>
<path d="M73.2495 8.75553V7.83662H71.8945V13.9987H73.2495V10.9177C73.2495 10.5934 73.3579 10.269 73.5205 9.99877C73.6831 9.7285 73.8999 9.45823 74.1709 9.29607C74.4419 9.13391 74.7671 9.0258 75.1465 9.0258V7.72852C74.7671 7.72852 74.4419 7.78257 74.0625 7.94473C73.7373 8.215 73.4663 8.43121 73.2495 8.75553Z" fill="#BABABA"/>
<path d="M69.5092 8.21431C69.0756 7.94404 68.5337 7.83594 67.9375 7.83594C67.3413 7.83594 66.8535 7.94404 66.3657 8.21431C65.9321 8.48458 65.5527 8.86295 65.2817 9.34944C65.0107 9.83592 64.9023 10.3765 64.9023 10.971C64.9023 11.5656 65.0107 12.1062 65.2817 12.5927C65.5527 13.0791 65.8779 13.4575 66.3657 13.7278C66.7993 13.998 67.3413 14.1062 67.9375 14.1062C68.5337 14.1062 69.0214 13.998 69.5092 13.7278C69.9428 13.4575 70.3222 13.0791 70.539 12.5927C70.81 12.1062 70.9184 11.5656 70.9184 10.971C70.9184 10.3765 70.81 9.83592 70.539 9.34944C70.268 8.86295 69.9428 8.48458 69.5092 8.21431ZM69.1298 12.3764C68.8588 12.7548 68.4253 12.917 67.9375 12.917C67.4497 12.917 67.0703 12.7548 66.7451 12.3764C66.4741 11.9981 66.3115 11.5656 66.3115 10.971C66.3115 10.3765 66.4741 9.88997 66.7451 9.56565C67.0161 9.18728 67.4497 9.02512 67.9375 9.02512C68.4253 9.02512 68.8047 9.18728 69.1298 9.56565C69.4008 9.94403 69.5634 10.3765 69.5634 10.971C69.5634 11.5116 69.4008 11.9981 69.1298 12.3764Z" fill="#BABABA"/>
<path d="M62.895 5.61914H61.54V7.83534H60.3477V9.02452H61.54V13.9974H62.895V9.02452H64.3584V7.83534H62.895V5.61914Z" fill="#BABABA"/>
<path d="M58.1284 9.18709C57.749 8.97087 57.2612 8.75466 56.665 8.53844C56.2314 8.37628 55.852 8.21412 55.581 8.10602C55.31 7.94386 55.0932 7.78169 54.9306 7.56548C54.768 7.34927 54.6596 7.079 54.6596 6.80873C54.6596 6.43036 54.8222 6.10603 55.0932 5.83577C55.4184 5.61955 55.7978 5.45739 56.3398 5.45739C56.7192 5.45739 57.0444 5.5655 57.3696 5.83577C57.6948 6.05198 57.9116 6.43036 58.0742 6.91684L59.3207 6.48441C59.0497 5.78171 58.6704 5.18712 58.1284 4.8628C57.5864 4.48443 56.9902 4.32227 56.3398 4.32227C55.7436 4.32227 55.2016 4.43037 54.768 4.64659C54.3345 4.8628 53.9551 5.13307 53.6841 5.51144C53.4131 5.88982 53.3047 6.32225 53.3047 6.86278C53.3047 7.45737 53.4131 7.8898 53.6841 8.26818C53.9551 8.64655 54.2803 8.91682 54.6596 9.13303C55.039 9.34925 55.5268 9.56546 56.123 9.78168C56.6108 9.94384 56.936 10.106 57.207 10.2141C57.478 10.3222 57.6948 10.4844 57.8574 10.7006C58.02 10.9168 58.1284 11.1871 58.1284 11.4573C58.1284 11.8898 57.9658 12.2681 57.6406 12.5384C57.3154 12.8087 56.8276 12.9168 56.2314 12.9168C55.7978 12.9168 55.3642 12.7546 54.9848 12.4844C54.6055 12.2141 54.2803 11.7817 54.0093 11.2411L52.8711 11.8898C53.3047 12.5925 53.7925 13.133 54.3345 13.5114C54.9306 13.8897 55.5268 14.0519 56.2314 14.0519C56.8818 14.0519 57.478 13.9438 57.9658 13.7276C58.4536 13.5114 58.8329 13.1871 59.1039 12.7546C59.3749 12.3222 59.4833 11.8898 59.4833 11.3492C59.4833 10.8087 59.3749 10.3222 59.1039 9.99789C58.8329 9.67357 58.5078 9.4033 58.1284 9.18709Z" fill="#BABABA"/>
<path d="M47.5595 8.21563C47.1259 7.94536 46.5839 7.83726 46.042 7.83726C45.771 7.83726 45.4458 7.89131 45.1206 8.05347C44.7954 8.21563 44.4702 8.43185 44.2534 8.70211V7.7832H42.8984V16.7561H44.2534V13.1345C44.4702 13.4588 44.7412 13.675 45.1206 13.8372C45.4458 13.9994 45.771 14.0534 46.0962 14.0534C46.6923 14.0534 47.1801 13.9453 47.6137 13.675C48.0473 13.4048 48.4267 13.0264 48.6435 12.5399C48.8603 12.0534 49.0229 11.5129 49.0229 10.9183C49.0229 10.3237 48.9145 9.78319 48.6435 9.2967C48.3725 8.86428 47.9931 8.4859 47.5595 8.21563ZM47.1801 12.3778C46.9091 12.7561 46.4755 12.9183 45.9878 12.9183C45.6626 12.9183 45.3916 12.8102 45.1206 12.648C44.8496 12.4859 44.6328 12.2156 44.4702 11.9453C44.3076 11.621 44.2534 11.2967 44.2534 10.9724C44.2534 10.648 44.3076 10.2697 44.4702 9.9994C44.6328 9.67508 44.8496 9.45886 45.1206 9.2967C45.3916 9.13454 45.6626 9.02644 45.9878 9.02644C46.4755 9.02644 46.9091 9.1886 47.1801 9.56697C47.5053 9.94535 47.6137 10.3778 47.6137 10.9724C47.6137 11.567 47.4511 11.9994 47.1801 12.3778Z" fill="#BABABA"/>
<path d="M40.3505 8.21563C39.917 7.94536 39.375 7.83726 38.833 7.83726C38.562 7.83726 38.2368 7.89131 37.9116 8.05347C37.5864 8.21563 37.2612 8.43185 37.0444 8.70211V7.7832H35.6895V16.7561H37.0444V13.1345C37.2612 13.4588 37.5322 13.675 37.9116 13.8372C38.2368 13.9994 38.562 14.0534 38.8872 14.0534C39.4834 14.0534 39.9712 13.9453 40.4047 13.675C40.8383 13.4048 41.2177 13.0264 41.4345 12.5399C41.6513 12.0534 41.8139 11.5129 41.8139 10.9183C41.8139 10.3237 41.7055 9.78319 41.4345 9.2967C41.1635 8.86428 40.8383 8.4859 40.3505 8.21563ZM39.9711 12.3778C39.7002 12.7561 39.2666 12.9183 38.7788 12.9183C38.4536 12.9183 38.1826 12.8102 37.9116 12.648C37.6406 12.4859 37.4238 12.2156 37.2612 11.9453C37.0986 11.621 37.0444 11.2967 37.0444 10.9724C37.0444 10.648 37.0986 10.2697 37.2612 9.9994C37.4238 9.67508 37.6406 9.45886 37.9116 9.2967C38.1826 9.13454 38.4536 9.02644 38.7788 9.02644C39.2666 9.02644 39.7002 9.1886 39.9711 9.56697C40.2963 9.94535 40.4047 10.3778 40.4047 10.9724C40.4047 11.567 40.2963 11.9994 39.9711 12.3778Z" fill="#BABABA"/>
<path d="M29.2934 4.43164L25.6621 13.9991H27.1255L28.1011 11.4046H32.0576L33.0331 13.9991H34.4965L30.9194 4.43164H29.2934ZM28.5888 10.2154L30.1606 6.16135L31.6782 10.2154H28.5888Z" fill="#BABABA"/>
</svg>
