<svg width="88" height="20" viewBox="0 0 88 20" fill="none" xmlns="http://www.w3.org/2000/svg">
<path d="M43.8953 6.80306C42.0689 6.80306 40.6231 8.17129 40.6231 10.0716C40.6231 11.8959 42.0689 13.3402 43.8953 13.3402C45.7216 13.3402 47.1679 11.9719 47.1679 10.0716C47.1679 8.17129 45.7216 6.80306 43.8953 6.80306ZM43.8953 11.9719C42.9059 11.9719 42.0689 11.1358 42.0689 9.99563C42.0689 8.85541 42.9059 8.01928 43.8953 8.01928C44.8846 8.01928 45.7216 8.77941 45.7216 9.99563C45.7216 11.2118 44.8846 11.9719 43.8953 11.9719ZM36.8176 6.80306C34.9913 6.80306 33.5454 8.17129 33.5454 10.0716C33.5454 11.8959 34.9913 13.3402 36.8176 13.3402C38.6443 13.3402 40.0902 11.9719 40.0902 10.0716C40.0902 8.17129 38.6443 6.80306 36.8176 6.80306ZM36.8176 11.9719C35.8286 11.9719 34.9913 11.1358 34.9913 9.99563C34.9913 8.85541 35.8286 8.01928 36.8176 8.01928C37.807 8.01928 38.6443 8.77941 38.6443 9.99563C38.6443 11.2118 37.807 11.9719 36.8176 11.9719ZM28.3704 7.79123V9.15946H31.6428C31.5667 9.91963 31.2623 10.5277 30.8818 10.9078C30.4252 11.3638 29.6641 11.8959 28.3704 11.8959C26.3157 11.8959 24.7936 10.2996 24.7936 8.24734C24.7936 6.19499 26.3918 4.5987 28.3704 4.5987C29.4359 4.5987 30.273 5.05476 30.8818 5.58687L31.8711 4.5987C31.034 3.83858 29.9685 3.23047 28.4465 3.23047C25.7068 3.23047 23.3477 5.51087 23.3477 8.24734C23.3477 10.9838 25.7068 13.2642 28.4465 13.2642C29.9685 13.2642 31.034 12.8081 31.9472 11.8199C32.8605 10.9078 33.1648 9.61553 33.1648 8.6274C33.1648 8.32334 33.1648 8.01928 33.0887 7.79123H28.3704ZM62.921 8.85541C62.6166 8.09529 61.8552 6.80306 60.1814 6.80306C58.5071 6.80306 57.1372 8.09529 57.1372 10.0716C57.1372 11.8959 58.5071 13.3402 60.3334 13.3402C61.7792 13.3402 62.6926 12.428 62.997 11.8959L61.9317 11.1358C61.5512 11.6679 61.0943 12.0479 60.3334 12.0479C59.5724 12.0479 59.1155 11.7439 58.7351 11.0598L63.0731 9.23547L62.921 8.85541ZM58.5071 9.91963C58.5071 8.7034 59.4964 8.01928 60.1814 8.01928C60.7138 8.01928 61.2467 8.32334 61.3987 8.7034L58.5071 9.91963ZM54.93 13.0361H56.3758V3.53453H54.93V13.0361ZM52.6472 7.48717C52.2663 7.10711 51.6578 6.72705 50.8965 6.72705C49.2986 6.72705 47.7763 8.17129 47.7763 9.99563C47.7763 11.8199 49.2226 13.1882 50.8965 13.1882C51.6578 13.1882 52.2663 12.8081 52.5708 12.428H52.6472V12.8841C52.6472 14.1003 51.9623 14.7844 50.8965 14.7844C50.0595 14.7844 49.4506 14.1763 49.2986 13.6442L48.0808 14.1763C48.4613 15.0125 49.3746 16.0766 50.9729 16.0766C52.6472 16.0766 54.0171 15.0885 54.0171 12.7321V6.95511H52.6472V7.48717ZM50.9729 11.9719C49.9835 11.9719 49.1462 11.1358 49.1462 9.99563C49.1462 8.85541 49.9835 8.01928 50.9729 8.01928C51.9623 8.01928 52.7232 8.85541 52.7232 9.99563C52.7232 11.1358 51.9623 11.9719 50.9729 11.9719ZM69.5418 3.53453H66.1172V13.0361H67.563V9.46352H69.5418C71.1397 9.46352 72.6619 8.32334 72.6619 6.49904C72.6619 4.6747 71.1397 3.53453 69.5418 3.53453ZM69.6178 8.17129H67.563V4.90276H69.6178C70.6832 4.90276 71.2921 5.81493 71.2921 6.49904C71.2161 7.25916 70.6072 8.17129 69.6178 8.17129ZM78.3698 6.80306C77.304 6.80306 76.2386 7.25917 75.8581 8.24734L77.1519 8.77941C77.4564 8.24734 77.9129 8.09529 78.4458 8.09529C79.2067 8.09529 79.8916 8.55139 79.9676 9.31151V9.38752C79.7396 9.23547 79.1307 9.00746 78.5218 9.00746C77.1519 9.00746 75.7821 9.76758 75.7821 11.1358C75.7821 12.428 76.9235 13.2642 78.1413 13.2642C79.1307 13.2642 79.5872 12.8081 79.9676 12.352H80.0436V13.1122H81.4135V9.46352C81.2615 7.71523 79.9676 6.80306 78.3698 6.80306ZM78.2173 11.9719C77.7609 11.9719 77.0759 11.7439 77.0759 11.1358C77.0759 10.3757 77.9129 10.1476 78.5978 10.1476C79.2067 10.1476 79.5112 10.2997 79.8916 10.4517C79.7396 11.3639 78.9782 11.9719 78.2173 11.9719ZM86.2079 6.95511L84.6101 11.0598H84.5341L82.8598 6.95511H81.3375L83.8491 12.7321L82.4029 15.9246H83.8491L87.7302 6.95511H86.2079ZM73.4229 13.0361H74.8687V3.53453H73.4229V13.0361Z" fill="#BABABA"/>
<path d="M1.36914 19.4594C4.41324 16.4189 7.53343 13.3784 10.5775 10.3379C11.4146 11.174 12.3279 12.0102 13.3172 12.9223C9.35987 15.1267 5.40258 17.3311 1.44523 19.4594H1.36914Z" fill="#BABABA"/>
<path d="M0.4566 19.4615C0.152185 19.3095 0 18.9295 0 18.5494C0 18.4734 0 18.3213 0 18.2453C0 12.6204 0 6.99542 0 1.44648C0 1.14243 0.0760927 0.914417 0.152185 0.61036C0.228322 0.45831 0.380507 0.306303 0.532737 0.154297C3.80511 3.42283 7.0014 6.69136 10.1977 9.95994C6.92531 13.0004 3.72902 16.193 0.4566 19.4615Z" fill="#BABABA"/>
<path d="M13.3933 6.61311C12.4801 7.52528 11.4907 8.43741 10.5775 9.42558C7.53343 6.30906 4.41324 3.19253 1.36914 0.0760032C1.36914 0.0760032 1.36914 0 1.44523 0C5.40258 2.20436 9.35987 4.40876 13.3933 6.61311Z" fill="#BABABA"/>
<path d="M13.8509 12.617C12.8615 11.7048 11.9483 10.7927 10.959 9.88054C11.9483 8.89236 12.9377 7.90419 13.9269 6.91602C14.2314 7.06802 14.5358 7.22007 14.8402 7.44808C15.6012 7.90419 16.4384 8.28425 17.1994 8.74031C17.4277 8.81632 17.5799 8.96837 17.7321 9.19637C18.0365 9.57643 18.0365 9.95654 17.7321 10.3366C17.5799 10.4886 17.4277 10.6407 17.1994 10.7167C16.1339 11.4008 14.9924 12.0089 13.8509 12.617Z" fill="#BABABA"/>
</svg>
