<svg width="34" height="38" viewBox="0 0 34 38" fill="none" xmlns="http://www.w3.org/2000/svg">
<path fill-rule="evenodd" clip-rule="evenodd" d="M26.6904 3.49435C15.1328 -4.02931 2.97762 3.9182 0.942641 13.0665C-0.416238 19.1759 1.33244 25.3012 6.48193 30.0769C5.75333 33.2368 5.53473 34.9756 4.95185 37.5C7.5888 36.3712 10.7052 34.4724 12.5773 33.5856C12.6906 33.5321 20.9406 37.237 28.4483 30.5181C36.5545 23.2637 35.627 9.31134 26.6904 3.49435Z" fill="white"/>
<path d="M16.8622 28.6763C16.2289 28.6763 15.6872 28.4513 15.2372 28.0013C14.8039 27.568 14.5872 27.0347 14.5872 26.4013C14.5872 25.768 14.8039 25.2346 15.2372 24.8013C15.6872 24.3513 16.2289 24.1263 16.8622 24.1263C17.4955 24.1263 18.0289 24.3513 18.4622 24.8013C18.9122 25.2346 19.1372 25.768 19.1372 26.4013C19.1372 27.0347 18.9122 27.568 18.4622 28.0013C18.0289 28.4513 17.4955 28.6763 16.8622 28.6763ZM15.7622 22.6013C15.5289 22.6013 15.3289 22.5346 15.1622 22.4013C15.0122 22.2513 14.9455 21.993 14.9622 21.6263C15.0455 20.1596 15.7622 18.893 17.1122 17.8263C17.3622 17.6263 17.6205 17.4346 17.8872 17.2513C18.1705 17.0513 18.4205 16.843 18.6372 16.6263C18.8705 16.4096 19.0622 16.1763 19.2122 15.9263C19.3622 15.6763 19.4372 15.4096 19.4372 15.1263C19.4372 14.5596 19.2455 14.1013 18.8622 13.7513C18.4789 13.3846 17.9705 13.193 17.3372 13.1763C17.0539 13.1763 16.7789 13.218 16.5122 13.3013C16.2455 13.3846 15.9872 13.5013 15.7372 13.6513C15.5039 13.8013 15.2872 13.9763 15.0872 14.1763C14.8872 14.3763 14.7289 14.5846 14.6122 14.8013C14.2955 15.318 13.9289 15.4596 13.5122 15.2263L11.4122 13.9263C10.9789 13.6763 10.8872 13.293 11.1372 12.7763C11.7372 11.6263 12.5705 10.718 13.6372 10.0513C14.7205 9.36798 15.9539 9.01798 17.3372 9.00132C18.3205 8.98465 19.1872 9.12631 19.9372 9.42631C20.7039 9.72632 21.3455 10.143 21.8622 10.6763C22.3789 11.2096 22.7705 11.843 23.0372 12.5763C23.3039 13.293 23.4372 14.0596 23.4372 14.8763C23.4372 15.9263 23.1622 16.8513 22.6122 17.6513C22.0622 18.4513 21.4039 19.1346 20.6372 19.7013C20.2539 19.9846 19.8872 20.3013 19.5372 20.6513C19.1872 21.0013 18.9955 21.393 18.9622 21.8263C18.9455 22.1263 18.8705 22.3346 18.7372 22.4513C18.6205 22.5513 18.4455 22.6013 18.2122 22.6013H15.7622Z" fill="#178F5E"/>
</svg>
