<svg width="93" height="10" viewBox="0 0 93 10" fill="none" xmlns="http://www.w3.org/2000/svg">
<path d="M1.486 9.693C1.09733 9.055 0.774667 8.29967 0.518 7.427C0.268667 6.55433 0.144 5.755 0.144 5.029C0.144 4.303 0.268667 3.50733 0.518 2.642C0.767333 1.76933 1.09 1.01033 1.486 0.365L2.289 0.86C1.92967 1.48333 1.64 2.17267 1.42 2.928C1.2 3.68333 1.09 4.38367 1.09 5.029C1.09 5.67433 1.2 6.37467 1.42 7.13C1.64 7.88533 1.92967 8.57467 2.289 9.198L1.486 9.693ZM11.6764 5.612V6.492H7.78236V9.869H6.71536V6.492H2.86536V5.612H11.6764ZM6.06636 2.444C6.33036 2.28267 6.50269 2.147 6.58336 2.037C6.66403 1.91967 6.70436 1.79133 6.70436 1.652V1.399H3.94336V0.519H10.5654V1.399H7.80436V1.652C7.80436 1.79133 7.84469 1.91967 7.92536 2.037C8.00603 2.147 8.17836 2.28267 8.44236 2.444L10.9284 4.039L10.4004 4.853L7.91436 3.28C7.63569 3.11133 7.41569 2.928 7.25436 2.73C7.09303 2.928 6.87303 3.11133 6.59436 3.28L4.10836 4.853L3.58036 4.039L6.06636 2.444ZM12.273 9.198C12.6323 8.57467 12.922 7.88533 13.142 7.13C13.362 6.37467 13.472 5.67433 13.472 5.029C13.472 4.38367 13.362 3.68333 13.142 2.928C12.922 2.17267 12.6323 1.48333 12.273 0.86L13.076 0.365C13.472 1.01033 13.7947 1.76567 14.044 2.631C14.2933 3.49633 14.418 4.29567 14.418 5.029C14.418 5.76233 14.2933 6.56533 14.044 7.438C13.7947 8.30333 13.472 9.055 13.076 9.693L12.273 9.198ZM23.3986 0.123V9.528H22.3646V4.853H21.1876V9.033H20.1756V0.321H21.1876V3.962H22.3646V0.123H23.3986ZM15.5336 0.959H19.1966V1.85H16.6116V6.063H19.4166V6.954H15.5336V0.959ZM31.3873 0.133999V3.236H32.7733V4.138H31.3873V6.932H30.2983V0.133999H31.3873ZM23.9843 1.311H26.1513V0.156H27.2073V1.311H29.3633V2.191H28.4283C28.8169 2.60167 29.0113 3.06733 29.0113 3.588C29.0113 4.02067 28.9086 4.40567 28.7033 4.743C28.5053 5.08033 28.2266 5.34433 27.8673 5.535C27.5153 5.71833 27.1119 5.81 26.6573 5.81C26.2173 5.81 25.8213 5.71833 25.4693 5.535C25.1173 5.34433 24.8423 5.08033 24.6443 4.743C24.4536 4.40567 24.3583 4.02067 24.3583 3.588C24.3583 3.07467 24.5489 2.609 24.9303 2.191H23.9843V1.311ZM25.3813 3.588C25.3813 3.99133 25.4986 4.32133 25.7333 4.578C25.9679 4.82733 26.2759 4.952 26.6573 4.952C27.0459 4.952 27.3649 4.82733 27.6143 4.578C27.8636 4.32133 27.9883 3.99133 27.9883 3.588C27.9883 3.17733 27.8636 2.84367 27.6143 2.587C27.3649 2.33033 27.0459 2.202 26.6573 2.202C26.2759 2.202 25.9679 2.33033 25.7333 2.587C25.4986 2.84367 25.3813 3.17733 25.3813 3.588ZM25.4363 6.624H26.5143V8.78H31.6073V9.66H25.4363V6.624ZM38.0009 0.892999V1.751H37.0219V6.074H38.0009V6.932H32.5889V6.074H33.5569V1.751H32.5889V0.892999H38.0009ZM35.9769 6.074V1.751H34.6129V6.074H35.9769ZM38.9249 0.123H40.0029V3.94H41.5319V4.842H40.0029V9.528H38.9249V0.123ZM49.9605 7.35V8.252H41.1495V7.35H49.9605ZM42.0955 3.412H47.4415V1.85H42.0955V0.959H48.5415V6.558H47.4415V4.336H42.0955V3.412ZM53.3182 3.918V2.345H54.3962V3.918H58.6202V4.776H49.8532V3.918H53.3182ZM50.9752 0.42H57.1792V3.313H56.0902V1.311H50.9752V0.42ZM51.0742 5.546H57.3112V7.999H52.1852V8.912H57.5642V9.77H51.0962V7.24H56.2222V6.415H51.0742V5.546ZM67.3348 7.427V8.318H58.5128V7.427H67.3348ZM59.6348 0.903999H66.2018V1.773H65.0028V4.897H66.1908V5.766H59.6568V4.897H60.8338V1.773H59.6348V0.903999ZM63.9358 4.897V1.773H61.9228V4.897H63.9358ZM75.1915 0.112V9.539H74.1025V0.112H75.1915ZM69.0645 4.138C69.2698 3.85933 69.4091 3.61367 69.4825 3.401C69.5558 3.181 69.5925 2.93533 69.5925 2.664V0.761H70.6265V2.664C70.6265 2.94267 70.6595 3.18833 70.7255 3.401C70.7988 3.61367 70.9381 3.85933 71.1435 4.138L72.9365 6.569L72.1445 7.163L70.3515 4.732C70.2561 4.60733 70.1755 4.48633 70.1095 4.369C70.0801 4.40567 70.0398 4.46433 69.9885 4.545C69.9445 4.61833 69.9005 4.68067 69.8565 4.732L68.0635 7.163L67.2715 6.569L69.0645 4.138ZM84.6981 7.372V8.252H75.8761V7.372H84.6981ZM79.0331 3.071C79.3191 2.85833 79.5024 2.68233 79.5831 2.543C79.6711 2.39633 79.7151 2.224 79.7151 2.026V0.804999H80.8481V2.026C80.8481 2.21667 80.8884 2.38533 80.9691 2.532C81.0571 2.67133 81.2441 2.85467 81.5301 3.082L84.0601 5.095L83.4441 5.865L80.9141 3.852C80.6574 3.64667 80.4484 3.44133 80.2871 3.236C80.1258 3.44867 79.9131 3.65767 79.6491 3.863L77.1191 5.865L76.5031 5.095L79.0331 3.071ZM89.8817 2.455V0.277H90.8937V5.711H89.8817V3.335H88.7927V2.455H89.8817ZM84.9317 0.639999H88.6937V1.52H85.9987V2.477H88.3527V3.368H85.9987V4.325H88.9137V5.216H84.9317V0.639999ZM86.5817 6.239H92.7967V9.737H86.5817V6.239ZM91.7517 8.879V7.086H87.6487V8.879H91.7517ZM91.7737 0.123H92.7967V5.799H91.7737V0.123Z" fill="black"/>
</svg>
