<svg width="19" height="23" viewBox="0 0 19 23" fill="none" xmlns="http://www.w3.org/2000/svg">
<path d="M1.75 9L1 7L6.02993 5.02101M12.75 8.00003C14.25 12 12.25 16 8.25 22H10.25M9.25 8C15.75 8 16.75 4 16.25 1L9.70477 3.57517M9.25 8C11 10.75 9.75 12.5007 12.25 12.7503C14.75 13 16.75 18.5003 15.75 22.0003H17.75M9.25 8C12.75 6.99967 13.25 4 13.25 2.5M9.70477 3.57517C9.73439 3.7121 9.75 3.85425 9.75 4.00004C9.75002 5.10461 8.85461 6.00002 7.75004 6C7.01848 5.99998 6.37865 5.60719 6.02993 5.02101M9.70477 3.57517C9.50995 2.67469 8.70874 2.00002 7.74996 2C6.64539 1.99998 5.74998 2.89539 5.75 3.99996C5.75001 4.37297 5.85213 4.72213 6.02993 5.02101" stroke="#178F5E" stroke-width="1.5" stroke-linecap="round" stroke-linejoin="round"/>
</svg>
