<svg width="22" height="23" viewBox="0 0 22 23" fill="none" xmlns="http://www.w3.org/2000/svg">
<path d="M4.38874 17.6631L5.38874 18.6631M7.38874 17.1631L8.38874 18.1631M10.1217 20.6471C8.50954 21.2115 6.29989 21.7092 4.38862 21.1631C0.888862 20.1631 -0.611373 15.1631 3.38868 14.6631C5.63569 14.3822 7.88266 15.048 9.42057 15.6856C11.0554 16.3632 11 16.1627 12 14.6631C12.8217 13.4309 17.0194 4.77137 18.4902 1.72272C18.7801 1.12167 19.4797 0.847269 20.103 1.08556C20.8111 1.35628 21.1311 2.17888 20.7921 2.85695L13.4955 17.4493C12.7745 18.8914 11.6434 20.1144 10.1217 20.6471ZM21 18.1631C21 19.2677 20.1046 20.1631 19 20.1631C17.8954 20.1631 17 19.2677 17 18.1631C17 17.0585 17.8954 16.1631 19 16.1631C20.1046 16.1631 21 17.0585 21 18.1631Z" stroke="#178F5E" stroke-width="1.5" stroke-linecap="round" stroke-linejoin="round"/>
</svg>
