<svg width="80" height="20" viewBox="0 0 80 20" fill="none" xmlns="http://www.w3.org/2000/svg">
<path d="M4.83277 18.5265C11.4206 20.8817 20.8448 15.3376 18.6116 7.57733C17.9914 5.42884 16.3512 3.6294 14.3248 2.70765C11.9187 1.61307 10.6005 2.67715 9.08231 4.61215C8.24189 5.68639 7.44213 6.85552 6.26284 7.54005C4.79211 8.39403 2.89778 8.38047 1.54226 9.40727C-0.0369103 10.6035 -0.389344 12.9858 0.420575 14.7954C1.22711 16.6017 2.96894 17.8589 4.83277 18.5265Z" fill="#6FBA3E"/>
<path d="M2.85742 10.9305C2.85742 11.327 3.20986 11.6726 3.73512 11.8624V10.002C3.20986 10.1917 2.85742 10.5374 2.85742 10.9339V10.9305Z" fill="#1D6536"/>
<path d="M4.64347 9.84961C4.41981 9.84961 4.20632 9.87672 4.00977 9.92077V11.9405C4.20632 11.9845 4.41981 12.0117 4.64347 12.0117C5.6296 12.0117 6.42597 11.5271 6.42597 10.9306C6.42597 10.3342 5.62622 9.84961 4.64347 9.84961Z" fill="#1D6536"/>
<path d="M3.73633 1.36328V11.8651C3.82105 11.8956 3.91254 11.9227 4.00743 11.9431V1.36328H3.73633Z" fill="#333333"/>
<path d="M7.37588 2.31179L3.73633 0.925781V3.69781L7.37588 2.31179Z" fill="#E72410"/>
<path d="M37.3496 17.6068V14.5332H37.7224V17.6068H37.3496Z" fill="#1D6536"/>
<path d="M38.6622 17.5147C38.5063 17.4164 38.3843 17.2843 38.2962 17.1114C38.2081 16.942 38.1641 16.7522 38.1641 16.5421C38.1641 16.332 38.2081 16.1456 38.2962 15.9728C38.3843 15.8034 38.5063 15.6678 38.6622 15.5695C38.8181 15.4713 38.9909 15.4238 39.1841 15.4238C39.3603 15.4238 39.5128 15.4611 39.6382 15.5323C39.767 15.6034 39.8585 15.6915 39.9161 15.7932V15.478H40.2888V17.6062H39.9161V17.291C39.8585 17.3927 39.767 17.4808 39.6382 17.552C39.5094 17.6231 39.3603 17.6604 39.1841 17.6604C38.9909 17.6604 38.8181 17.613 38.6622 17.5147ZM39.5806 17.2199C39.689 17.1521 39.7703 17.0572 39.8313 16.942C39.8923 16.8234 39.9228 16.6912 39.9228 16.5455C39.9228 16.3998 39.8923 16.2676 39.8313 16.149C39.7703 16.0304 39.689 15.9389 39.5806 15.8711C39.4721 15.8034 39.3501 15.7695 39.2146 15.7695C39.079 15.7695 38.9604 15.8034 38.8554 15.8711C38.7503 15.9389 38.669 16.0304 38.6114 16.149C38.5538 16.2676 38.5233 16.3998 38.5233 16.5455C38.5233 16.6912 38.5504 16.8234 38.6114 16.942C38.669 17.0606 38.7503 17.1555 38.8554 17.2199C38.9604 17.2843 39.079 17.3215 39.2146 17.3215C39.3501 17.3215 39.4755 17.2877 39.5806 17.2199Z" fill="#1D6536"/>
<path d="M42.4612 17.552C42.3324 17.4808 42.2409 17.3927 42.1833 17.291V18.511H41.8105V15.478H42.1833V15.7932C42.2409 15.6915 42.3324 15.6034 42.4612 15.5323C42.59 15.4611 42.7391 15.4238 42.9153 15.4238C43.1084 15.4238 43.2813 15.4713 43.4372 15.5695C43.593 15.6678 43.715 15.8 43.8032 15.9728C43.8913 16.1456 43.9353 16.332 43.9353 16.5421C43.9353 16.7522 43.8913 16.9386 43.8032 17.1114C43.715 17.2843 43.593 17.4164 43.4372 17.5147C43.2813 17.613 43.1084 17.6604 42.9153 17.6604C42.7391 17.6604 42.59 17.6231 42.4612 17.552ZM43.244 17.2199C43.3491 17.1521 43.4304 17.0606 43.488 16.942C43.5456 16.8234 43.5727 16.6912 43.5727 16.5455C43.5727 16.3998 43.5456 16.2676 43.488 16.149C43.4304 16.0304 43.3491 15.9355 43.244 15.8711C43.1389 15.8068 43.0203 15.7695 42.8848 15.7695C42.7492 15.7695 42.6272 15.8034 42.5188 15.8711C42.4104 15.9389 42.329 16.0338 42.268 16.149C42.207 16.2676 42.1765 16.3998 42.1765 16.5455C42.1765 16.6912 42.207 16.8234 42.268 16.942C42.329 17.0606 42.4104 17.1521 42.5188 17.2199C42.6272 17.2877 42.7492 17.3215 42.8848 17.3215C43.0203 17.3215 43.1389 17.2877 43.244 17.2199Z" fill="#1D6536"/>
<path d="M44.7677 17.5147C44.6118 17.4164 44.4898 17.2843 44.4017 17.1114C44.3136 16.9386 44.2695 16.7522 44.2695 16.5421C44.2695 16.332 44.3136 16.1456 44.4017 15.9728C44.4898 15.8 44.6118 15.6678 44.7677 15.5695C44.9236 15.4713 45.0964 15.4238 45.2896 15.4238C45.4658 15.4238 45.6183 15.4611 45.7436 15.5323C45.8724 15.6034 45.9639 15.6915 46.0215 15.7932V15.478H46.3943V17.6062H46.0215V17.291C45.9639 17.3927 45.8724 17.4808 45.7436 17.552C45.6149 17.6231 45.4658 17.6604 45.2896 17.6604C45.0964 17.6604 44.9236 17.613 44.7677 17.5147ZM45.686 17.2199C45.7945 17.1521 45.8758 17.0572 45.9368 16.942C45.9978 16.8234 46.0283 16.6912 46.0283 16.5455C46.0283 16.3998 45.9978 16.2676 45.9368 16.149C45.8758 16.0304 45.7945 15.9389 45.686 15.8711C45.5776 15.8034 45.4556 15.7695 45.3201 15.7695C45.1845 15.7695 45.0659 15.8034 44.9608 15.8711C44.8558 15.9389 44.7745 16.0304 44.7168 16.149C44.6592 16.2676 44.6287 16.3998 44.6287 16.5455C44.6287 16.6912 44.6558 16.8234 44.7168 16.942C44.7745 17.0606 44.8558 17.1555 44.9608 17.2199C45.0659 17.2843 45.1845 17.3215 45.3201 17.3215C45.4556 17.3215 45.581 17.2877 45.686 17.2199Z" fill="#1D6536"/>
<path d="M48.2045 15.5048C48.34 15.559 48.4451 15.6301 48.5264 15.725C48.6078 15.8165 48.6484 15.925 48.6552 16.0436H48.2892C48.2824 15.9555 48.2282 15.8809 48.1232 15.8233C48.0181 15.7657 47.8927 15.7386 47.7402 15.7386C47.5877 15.7386 47.4691 15.7657 47.3708 15.8199C47.2726 15.8741 47.2251 15.9419 47.2251 16.0199C47.2251 16.1114 47.2692 16.1859 47.3607 16.2401C47.4522 16.2943 47.6182 16.3384 47.8588 16.3757C48.1604 16.4163 48.3739 16.4909 48.5061 16.5926C48.6349 16.6942 48.6992 16.8298 48.6992 17.0026C48.6992 17.1348 48.6586 17.2534 48.5739 17.3516C48.4891 17.4499 48.3773 17.5279 48.235 17.5821C48.0927 17.6363 47.9368 17.6634 47.7639 17.6634C47.5911 17.6634 47.4251 17.6363 47.2861 17.5787C47.1472 17.5245 47.0421 17.4465 46.9642 17.3483C46.8863 17.25 46.8422 17.1382 46.832 17.0162H47.198C47.2116 17.1077 47.2658 17.1856 47.3675 17.2534C47.4657 17.3178 47.6047 17.3516 47.7775 17.3516C47.9402 17.3516 48.0723 17.3211 48.1774 17.2601C48.2824 17.1991 48.3367 17.1212 48.3367 17.0263C48.3367 16.9382 48.2892 16.867 48.1909 16.8128C48.0927 16.7586 47.9232 16.7179 47.6826 16.6841C47.398 16.6434 47.1912 16.5756 47.0591 16.474C46.9269 16.3723 46.8591 16.2333 46.8591 16.047C46.8591 15.925 46.8998 15.8165 46.9777 15.725C47.0557 15.6301 47.1607 15.559 47.2963 15.5081C47.4318 15.4573 47.5809 15.4336 47.7504 15.4336C47.9198 15.4336 48.0655 15.4607 48.2011 15.5149L48.2045 15.5048Z" fill="#1D6536"/>
<path d="M50.3978 15.5048C50.5334 15.559 50.6385 15.6301 50.7198 15.725C50.8011 15.8165 50.8418 15.925 50.8486 16.0436H50.4826C50.4758 15.9555 50.4216 15.8809 50.3165 15.8233C50.2115 15.7657 50.0861 15.7386 49.9336 15.7386C49.7811 15.7386 49.6625 15.7657 49.5642 15.8199C49.4659 15.8741 49.4185 15.9419 49.4185 16.0199C49.4185 16.1114 49.4625 16.1859 49.554 16.2401C49.6455 16.2943 49.8116 16.3384 50.0522 16.3757C50.3538 16.4163 50.5673 16.4909 50.6995 16.5926C50.8282 16.6942 50.8926 16.8298 50.8926 17.0026C50.8926 17.1348 50.8519 17.2534 50.7672 17.3516C50.6825 17.4499 50.5707 17.5279 50.4283 17.5821C50.286 17.6363 50.1301 17.6634 49.9573 17.6634C49.7845 17.6634 49.6184 17.6363 49.4795 17.5787C49.3405 17.5245 49.2355 17.4465 49.1576 17.3483C49.0796 17.25 49.0356 17.1382 49.0254 17.0162H49.3914C49.4049 17.1077 49.4592 17.1856 49.5608 17.2534C49.6591 17.3178 49.798 17.3516 49.9709 17.3516C50.1335 17.3516 50.2657 17.3211 50.3707 17.2601C50.4758 17.1991 50.53 17.1212 50.53 17.0263C50.53 16.9382 50.4826 16.867 50.3843 16.8128C50.286 16.7586 50.1166 16.7179 49.876 16.6841C49.5913 16.6434 49.3846 16.5756 49.2524 16.474C49.1203 16.3723 49.0525 16.2333 49.0525 16.047C49.0525 15.925 49.0932 15.8165 49.1711 15.725C49.249 15.6301 49.3541 15.559 49.4897 15.5081C49.6252 15.4573 49.7743 15.4336 49.9437 15.4336C50.1132 15.4336 50.2589 15.4607 50.3945 15.5149L50.3978 15.5048Z" fill="#1D6536"/>
<path d="M51.7222 17.5152C51.5664 17.4169 51.441 17.2848 51.3529 17.1153C51.2648 16.9459 51.2207 16.7561 51.2207 16.5426C51.2207 16.3292 51.2648 16.1428 51.3529 15.9733C51.441 15.8039 51.5664 15.6717 51.7222 15.5735C51.8781 15.4752 52.0577 15.4277 52.2543 15.4277C52.4508 15.4277 52.6304 15.4752 52.7863 15.5735C52.9422 15.6717 53.0676 15.8039 53.1557 15.9733C53.2438 16.1428 53.2879 16.3325 53.2879 16.5426C53.2879 16.6138 53.2879 16.6646 53.2811 16.6985H51.5935C51.6138 16.8849 51.6816 17.0374 51.8036 17.156C51.9256 17.2746 52.0747 17.3356 52.2577 17.3356C52.3932 17.3356 52.5152 17.3051 52.6203 17.2475C52.7253 17.1899 52.7965 17.1153 52.8338 17.0272H53.2133C53.1557 17.2136 53.0405 17.3661 52.8677 17.4813C52.6948 17.5999 52.4915 17.6576 52.2577 17.6576C52.0611 17.6576 51.8815 17.6101 51.7256 17.5118L51.7222 17.5152ZM52.7084 15.9293C52.5864 15.8107 52.4373 15.7531 52.2543 15.7531C52.0713 15.7531 51.9188 15.8107 51.8002 15.9293C51.6816 16.0479 51.6104 16.2004 51.5901 16.3901H52.9219C52.9015 16.2004 52.8304 16.0479 52.7084 15.9293Z" fill="#1D6536"/>
<path d="M54.0631 18.3494C53.897 18.2071 53.792 18.0274 53.7547 17.8072H54.1342C54.158 17.9326 54.219 18.0342 54.3206 18.1122C54.4189 18.1901 54.5578 18.2308 54.734 18.2308C54.9238 18.2308 55.0763 18.1698 55.1949 18.0478C55.3101 17.9258 55.3711 17.7597 55.3711 17.5564V17.2616C55.3135 17.3632 55.222 17.4514 55.0933 17.5225C54.9645 17.5937 54.8154 17.631 54.6392 17.631C54.446 17.631 54.2732 17.5835 54.1173 17.4886C53.9614 17.3937 53.8394 17.2616 53.7513 17.0955C53.6632 16.9295 53.6191 16.7431 53.6191 16.5364C53.6191 16.3297 53.6632 16.1433 53.7513 15.9738C53.8394 15.8044 53.9614 15.6722 54.1173 15.5774C54.2732 15.4825 54.446 15.4316 54.6392 15.4316C54.8154 15.4316 54.9679 15.4689 55.0933 15.5401C55.222 15.6112 55.3135 15.6994 55.3711 15.801V15.4859H55.7439V17.5666C55.7439 17.7597 55.6999 17.9326 55.6151 18.0851C55.5304 18.2376 55.4118 18.3562 55.2593 18.4409C55.1068 18.5256 54.934 18.5697 54.7374 18.5697C54.4596 18.5697 54.2359 18.4985 54.0665 18.3562L54.0631 18.3494ZM55.0323 17.1972C55.1407 17.1294 55.222 17.0379 55.283 16.9227C55.344 16.8075 55.3745 16.6753 55.3745 16.533C55.3745 16.3907 55.344 16.2585 55.283 16.1433C55.222 16.0281 55.1407 15.9332 55.0323 15.8688C54.9238 15.8044 54.8018 15.7671 54.6663 15.7671C54.5307 15.7671 54.4121 15.801 54.3071 15.8688C54.202 15.9366 54.1207 16.0281 54.0631 16.1433C54.0055 16.2585 53.975 16.3907 53.975 16.533C53.975 16.6753 54.0021 16.8075 54.0631 16.9227C54.1207 17.0379 54.202 17.1294 54.3071 17.1972C54.4121 17.265 54.5307 17.2989 54.6663 17.2989C54.8018 17.2989 54.9272 17.265 55.0323 17.1972Z" fill="#1D6536"/>
<path d="M56.6275 18.3494C56.4615 18.2071 56.3564 18.0274 56.3191 17.8072H56.6987C56.7224 17.9326 56.7834 18.0342 56.8851 18.1122C56.9833 18.1901 57.1223 18.2308 57.2985 18.2308C57.4883 18.2308 57.6408 18.1698 57.7594 18.0478C57.8746 17.9258 57.9356 17.7597 57.9356 17.5564V17.2616C57.878 17.3632 57.7865 17.4514 57.6577 17.5225C57.5289 17.5937 57.3798 17.631 57.2036 17.631C57.0105 17.631 56.8376 17.5835 56.6817 17.4886C56.5259 17.3937 56.4039 17.2616 56.3158 17.0955C56.2276 16.9295 56.1836 16.7431 56.1836 16.5364C56.1836 16.3297 56.2276 16.1433 56.3158 15.9738C56.4039 15.8044 56.5259 15.6722 56.6817 15.5774C56.8376 15.4791 57.0105 15.4316 57.2036 15.4316C57.3798 15.4316 57.5323 15.4689 57.6577 15.5401C57.7865 15.6112 57.878 15.6994 57.9356 15.801V15.4859H58.3084V17.5666C58.3084 17.7597 58.2643 17.9326 58.1796 18.0851C58.0949 18.2376 57.9763 18.3562 57.8238 18.4409C57.6713 18.5256 57.4984 18.5697 57.3019 18.5697C57.024 18.5697 56.8004 18.4985 56.6309 18.3562L56.6275 18.3494ZM57.5967 17.1972C57.7052 17.1294 57.7865 17.0379 57.8475 16.9227C57.9085 16.8075 57.939 16.6753 57.939 16.533C57.939 16.3907 57.9085 16.2585 57.8475 16.1433C57.7865 16.0281 57.7052 15.9332 57.5967 15.8688C57.4883 15.8044 57.3663 15.7671 57.2307 15.7671C57.0952 15.7671 56.9766 15.801 56.8715 15.8688C56.7665 15.9366 56.6851 16.0281 56.6275 16.1433C56.5699 16.2585 56.5394 16.3907 56.5394 16.533C56.5394 16.6753 56.5665 16.8075 56.6275 16.9227C56.6851 17.0379 56.7665 17.1294 56.8715 17.1972C56.9766 17.265 57.0952 17.2989 57.2307 17.2989C57.3663 17.2989 57.4917 17.265 57.5967 17.1972Z" fill="#1D6536"/>
<path d="M59.218 14.5692C59.2654 14.6167 59.2892 14.6777 59.2892 14.7488C59.2892 14.82 59.2654 14.881 59.218 14.9284C59.1706 14.9759 59.113 14.9996 59.0384 14.9996C58.9638 14.9996 58.9096 14.9759 58.8622 14.9284C58.8147 14.881 58.791 14.82 58.791 14.7488C58.791 14.6777 58.8147 14.6167 58.8622 14.5692C58.9096 14.5218 58.9672 14.498 59.0384 14.498C59.1096 14.498 59.1706 14.5218 59.218 14.5692ZM58.8554 17.6089V15.4774H59.2282V17.6089H58.8554Z" fill="#1D6536"/>
<path d="M60.1661 17.5147C60.0102 17.4164 59.8882 17.2843 59.8001 17.1114C59.712 16.9386 59.668 16.7522 59.668 16.5421C59.668 16.332 59.712 16.1456 59.8001 15.9728C59.8882 15.8 60.0102 15.6678 60.1661 15.5695C60.322 15.4713 60.4948 15.4238 60.688 15.4238C60.8642 15.4238 61.0167 15.4611 61.1421 15.5323C61.2709 15.6034 61.3624 15.6915 61.42 15.7932V15.478H61.7927V17.6062H61.42V17.291C61.3624 17.3927 61.2709 17.4808 61.1421 17.552C61.0133 17.6231 60.8642 17.6604 60.688 17.6604C60.4948 17.6604 60.322 17.613 60.1661 17.5147ZM61.0845 17.2199C61.1929 17.1521 61.2743 17.0572 61.3352 16.942C61.3962 16.8234 61.4267 16.6912 61.4267 16.5455C61.4267 16.3998 61.3962 16.2676 61.3352 16.149C61.2743 16.0304 61.1929 15.9389 61.0845 15.8711C60.976 15.8034 60.854 15.7695 60.7185 15.7695C60.5829 15.7695 60.4643 15.8034 60.3593 15.8711C60.2542 15.9389 60.1729 16.0304 60.1153 16.149C60.0577 16.2676 60.0272 16.3998 60.0272 16.5455C60.0272 16.6912 60.0543 16.8234 60.1153 16.942C60.1729 17.0606 60.2542 17.1555 60.3593 17.2199C60.4643 17.2843 60.5829 17.3215 60.7185 17.3215C60.854 17.3215 60.9794 17.2877 61.0845 17.2199Z" fill="#1D6536"/>
<path d="M63.4225 15.8162H62.965V17.6055H62.5922V15.8162H62.1348V15.4773H62.5922V14.8301H62.965V15.4773H63.4225V15.8162Z" fill="#1D6536"/>
<path d="M64.0899 17.5147C63.9341 17.4164 63.8121 17.2843 63.724 17.1114C63.6359 16.9386 63.5918 16.7522 63.5918 16.5421C63.5918 16.332 63.6359 16.1456 63.724 15.9728C63.8121 15.8 63.9341 15.6678 64.0899 15.5695C64.2458 15.4713 64.4187 15.4238 64.6118 15.4238C64.788 15.4238 64.9405 15.4611 65.0659 15.5323C65.1947 15.6034 65.2862 15.6915 65.3438 15.7932V15.478H65.7166V17.6062H65.3438V17.291C65.2862 17.3927 65.1947 17.4808 65.0659 17.552C64.9371 17.6231 64.788 17.6604 64.6118 17.6604C64.4187 17.6604 64.2458 17.613 64.0899 17.5147ZM65.0083 17.2199C65.1168 17.1521 65.1981 17.0572 65.2591 16.942C65.3201 16.8234 65.3506 16.6912 65.3506 16.5455C65.3506 16.3998 65.3201 16.2676 65.2591 16.149C65.1981 16.0304 65.1168 15.9389 65.0083 15.8711C64.8999 15.8034 64.7779 15.7695 64.6423 15.7695C64.5068 15.7695 64.3882 15.8034 64.2831 15.8711C64.1781 15.9389 64.0967 16.0304 64.0391 16.149C63.9815 16.2676 63.951 16.3998 63.951 16.5455C63.951 16.6912 63.9781 16.8234 64.0391 16.942C64.0967 17.0606 64.1781 17.1555 64.2831 17.2199C64.3882 17.2843 64.5068 17.3215 64.6423 17.3215C64.7779 17.3215 64.9033 17.2877 65.0083 17.2199Z" fill="#1D6536"/>
<path d="M23.125 6.01693H29.6857V7.11829H28.4251V10.3376H29.6857V11.439H23.125V10.3376H24.3585V7.11829H23.125V6.01693ZM25.592 7.11829V10.3376H27.1746V7.11829H25.592ZM31.4275 5.08502C31.0514 4.83086 30.6617 4.56314 30.2889 4.32254C30.4515 4.01077 30.6108 3.70239 30.7599 3.39062C31.4174 3.7295 32.0748 4.05483 32.7186 4.3937V7.28773H34.6096V8.41619H32.7186V11.4661H31.4309V5.08502H31.4275Z" fill="#1D6536"/>
<path d="M37.2624 8.44278V5.9012H38.6315V8.44278C39.3567 9.17815 40.0548 9.92368 40.7631 10.6726C40.5089 10.9403 40.2276 11.208 39.9701 11.4927L37.9436 9.53058L35.7172 11.6215C35.463 11.3537 35.2088 11.0555 34.9648 10.7878L37.259 8.44278H37.2624ZM42.1999 8.37162H40.2954V7.2296H42.1999V5.69109L41.0985 4.94217L41.556 4.02381L43.4605 4.98284V11.4622H42.1999V8.37162ZM44.7347 5.08111L43.5825 4.30508L44.04 3.38672L45.9987 4.3898V11.4622H44.7381V5.0845L44.7347 5.08111Z" fill="#1D6536"/>
<path d="M49.8327 8.30436V7.10473H47.8197V5.98982H53.0927V7.10473H51.1882V8.30436L53.4417 10.663L52.6623 11.4525L50.5037 9.3786L48.2095 11.5237L47.4707 10.7206L49.8327 8.30775V8.30436ZM56.9695 11.4661H55.6817V5.08502C55.292 4.83086 54.9159 4.56314 54.5295 4.32254C54.6922 4.01077 54.865 3.70239 55.0141 3.39062C55.6716 3.7295 56.329 4.05483 56.9728 4.3937V11.4661H56.9695Z" fill="#1D6536"/>
<path d="M61.6489 6.79245C62.7502 7.0466 63.4212 7.96496 63.4212 9.03582C63.4212 10.3473 62.4961 11.3809 60.9948 11.3809C59.4936 11.3809 58.582 10.3507 58.582 9.03582C58.582 7.96158 59.2395 7.0466 60.351 6.79245V5.69109H61.6523V6.79245H61.6489ZM62.1843 9.03582C62.1843 8.30045 61.6997 7.79214 60.9915 7.79214C60.2832 7.79214 59.8122 8.30045 59.8122 9.03582C59.8122 9.77119 60.2968 10.2931 60.9915 10.2931C61.6862 10.2931 62.1843 9.78474 62.1843 9.03582ZM65.712 5.08111C65.3223 4.82695 64.9462 4.55924 64.5598 4.31863C64.7191 4.00687 64.8953 3.69849 65.0444 3.38672C65.7019 3.7256 66.3593 4.05092 67.0032 4.3898V7.29737H68.8941V8.42584H67.0032V11.4622H65.7154V5.0845L65.712 5.08111Z" fill="#1D6536"/>
<path d="M71.1704 8.72796H74.0678V9.84287H71.1704V11.3814H74.7524V12.5098H69.8691V6.07115H74.4847V7.19962H71.1704V8.72457V8.72796ZM76.8297 5.08502C76.44 4.83086 76.0638 4.56314 75.6775 4.32254C75.8402 4.01077 76.013 3.70239 76.1621 3.39062L78.1344 4.3937V7.30128H79.9982V8.42975H78.1344V11.4661H76.8331V5.08502H76.8297Z" fill="#1D6536"/>
<path d="M79.9852 16.5664H66.5352V16.7562H79.9852V16.5664Z" fill="#1D6536"/>
<path d="M36.4343 16.5664H23.3027V16.7562H36.4343V16.5664Z" fill="#1D6536"/>
<path d="M79.9852 15.8711H66.5352V16.0609H79.9852V15.8711Z" fill="#1D6536"/>
<path d="M36.4343 15.8711H23.3027V16.0609H36.4343V15.8711Z" fill="#1D6536"/>
</svg>
