<svg width="25" height="24" viewBox="0 0 25 24" fill="none" xmlns="http://www.w3.org/2000/svg">
<path d="M12.6625 10.87C12.5625 10.86 12.4425 10.86 12.3325 10.87C9.9525 10.79 8.0625 8.84 8.0625 6.44C8.0625 3.99 10.0425 2 12.5025 2C14.9525 2 16.9425 3.99 16.9425 6.44C16.9325 8.84 15.0425 10.79 12.6625 10.87Z" stroke="white" stroke-width="1.5" stroke-linecap="round" stroke-linejoin="round"/>
<path d="M7.65875 14.56C5.23875 16.18 5.23875 18.82 7.65875 20.43C10.4088 22.27 14.9188 22.27 17.6688 20.43C20.0888 18.81 20.0888 16.17 17.6688 14.56C14.9288 12.73 10.4188 12.73 7.65875 14.56Z" stroke="white" stroke-width="1.5" stroke-linecap="round" stroke-linejoin="round"/>
</svg>
