<svg width="25" height="24" viewBox="0 0 25 24" fill="none" xmlns="http://www.w3.org/2000/svg">
<path d="M17.5 21H7.5C3.5 21 2.5 20 2.5 16V8C2.5 4 3.5 3 7.5 3H17.5C21.5 3 22.5 4 22.5 8V16C22.5 20 21.5 21 17.5 21Z" stroke="white" stroke-width="1.5" stroke-linecap="round" stroke-linejoin="round"/>
<path d="M14.5 8H19.5" stroke="white" stroke-width="1.5" stroke-linecap="round" stroke-linejoin="round"/>
<path d="M15.5 12H19.5" stroke="white" stroke-width="1.5" stroke-linecap="round" stroke-linejoin="round"/>
<path d="M17.5 16H19.5" stroke="white" stroke-width="1.5" stroke-linecap="round" stroke-linejoin="round"/>
<path d="M8.9975 11.2919C9.99714 11.2919 10.8075 10.4815 10.8075 9.48187C10.8075 8.48224 9.99714 7.67188 8.9975 7.67188C7.99786 7.67188 7.1875 8.48224 7.1875 9.48187C7.1875 10.4815 7.99786 11.2919 8.9975 11.2919Z" stroke="white" stroke-width="1.5" stroke-linecap="round" stroke-linejoin="round"/>
<path d="M12.5 16.3317C12.36 14.8817 11.21 13.7417 9.76 13.6117C9.26 13.5617 8.75 13.5617 8.24 13.6117C6.79 13.7517 5.64 14.8817 5.5 16.3317" stroke="white" stroke-width="1.5" stroke-linecap="round" stroke-linejoin="round"/>
</svg>
