<svg width="25" height="24" viewBox="0 0 25 24" fill="none" xmlns="http://www.w3.org/2000/svg">
<path d="M18.4981 7.16C18.4381 7.15 18.3681 7.15 18.3081 7.16C16.9281 7.11 15.8281 5.98 15.8281 4.58C15.8281 3.15 16.9781 2 18.4081 2C19.8381 2 20.9881 3.16 20.9881 4.58C20.9781 5.98 19.8781 7.11 18.4981 7.16Z" stroke="white" stroke-width="1.5" stroke-linecap="round" stroke-linejoin="round"/>
<path d="M17.4675 14.4402C18.8375 14.6702 20.3475 14.4302 21.4075 13.7202C22.8175 12.7802 22.8175 11.2402 21.4075 10.3002C20.3375 9.59016 18.8075 9.35016 17.4375 9.59016" stroke="white" stroke-width="1.5" stroke-linecap="round" stroke-linejoin="round"/>
<path d="M6.46656 7.16C6.52656 7.15 6.59656 7.15 6.65656 7.16C8.03656 7.11 9.13656 5.98 9.13656 4.58C9.13656 3.15 7.98656 2 6.55656 2C5.12656 2 3.97656 3.16 3.97656 4.58C3.98656 5.98 5.08656 7.11 6.46656 7.16Z" stroke="white" stroke-width="1.5" stroke-linecap="round" stroke-linejoin="round"/>
<path d="M7.4975 14.4402C6.1275 14.6702 4.6175 14.4302 3.5575 13.7202C2.1475 12.7802 2.1475 11.2402 3.5575 10.3002C4.6275 9.59016 6.1575 9.35016 7.5275 9.59016" stroke="white" stroke-width="1.5" stroke-linecap="round" stroke-linejoin="round"/>
<path d="M12.4981 14.6288C12.4381 14.6188 12.3681 14.6188 12.3081 14.6288C10.9281 14.5788 9.82812 13.4488 9.82812 12.0488C9.82812 10.6188 10.9781 9.46875 12.4081 9.46875C13.8381 9.46875 14.9881 10.6288 14.9881 12.0488C14.9781 13.4488 13.8781 14.5888 12.4981 14.6288Z" stroke="white" stroke-width="1.5" stroke-linecap="round" stroke-linejoin="round"/>
<path d="M9.58875 17.7794C8.17875 18.7194 8.17875 20.2594 9.58875 21.1994C11.1888 22.2694 13.8087 22.2694 15.4087 21.1994C16.8187 20.2594 16.8187 18.7194 15.4087 17.7794C13.8187 16.7194 11.1888 16.7194 9.58875 17.7794Z" stroke="white" stroke-width="1.5" stroke-linecap="round" stroke-linejoin="round"/>
</svg>
