<svg width="25" height="24" viewBox="0 0 25 24" fill="none" xmlns="http://www.w3.org/2000/svg">
<path d="M21.5763 8.58003V15.42C21.5763 16.54 20.9763 17.58 20.0063 18.15L14.0662 21.58C13.0962 22.14 11.8963 22.14 10.9163 21.58L4.97625 18.15C4.00625 17.59 3.40625 16.55 3.40625 15.42V8.58003C3.40625 7.46003 4.00625 6.41999 4.97625 5.84999L10.9163 2.42C11.8863 1.86 13.0862 1.86 14.0662 2.42L20.0063 5.84999C20.9763 6.41999 21.5763 7.45003 21.5763 8.58003Z" stroke="white" stroke-width="1.5" stroke-linecap="round" stroke-linejoin="round"/>
<path d="M12.5019 10.9998C13.7887 10.9998 14.8319 9.95662 14.8319 8.6698C14.8319 7.38298 13.7887 6.33984 12.5019 6.33984C11.2151 6.33984 10.1719 7.38298 10.1719 8.6698C10.1719 9.95662 11.2151 10.9998 12.5019 10.9998Z" stroke="white" stroke-width="1.5" stroke-linecap="round" stroke-linejoin="round"/>
<path d="M16.5 16.6584C16.5 14.8584 14.71 13.3984 12.5 13.3984C10.29 13.3984 8.5 14.8584 8.5 16.6584" stroke="white" stroke-width="1.5" stroke-linecap="round" stroke-linejoin="round"/>
</svg>
