<svg width="18" height="18" viewBox="0 0 18 18" fill="none" xmlns="http://www.w3.org/2000/svg">
<path d="M18 0H0V18H18V0Z" fill="white" fill-opacity="0.01"/>
<path d="M9 16.5C13.1421 16.5 16.5 14.8211 16.5 12.75C16.5 10.6789 13.1421 9 9 9C4.85786 9 1.5 10.6789 1.5 12.75C1.5 14.8211 4.85786 16.5 9 16.5Z" stroke="white" stroke-linecap="round" stroke-linejoin="round"/>
<path d="M12 13.5C12.4142 13.5 12.75 13.1642 12.75 12.75C12.75 12.3358 12.4142 12 12 12C11.5858 12 11.25 12.3358 11.25 12.75C11.25 13.1642 11.5858 13.5 12 13.5Z" stroke="white" stroke-linecap="round" stroke-linejoin="round"/>
<path d="M4.875 12.75V5.25V12.75ZM4.875 5.25V1.5L9 3.375L4.875 5.25Z" stroke="white" stroke-linecap="round" stroke-linejoin="round"/>
</svg>
