<svg width="1412" height="239" viewBox="0 0 1412 239" fill="none" xmlns="http://www.w3.org/2000/svg">
<path d="M321.883 213.274C320.373 214.627 318.751 215.754 316.989 216.684C315.228 217.614 313.438 218.065 311.593 218.065C310.083 218.065 308.629 217.98 307.203 217.811C305.777 217.642 304.407 217.219 303.065 216.543C301.387 215.698 299.877 214.542 298.535 213.133C297.193 211.696 296.102 210.146 295.264 208.455C293.418 204.567 292.076 200.34 291.237 195.803C290.398 191.237 289.811 186.785 289.476 182.389C289.476 182.051 289.392 181.375 289.224 180.36C289.056 179.346 288.888 178.669 288.721 178.331C288.05 157.393 287.854 136.597 288.106 115.913C288.357 95.2286 289.727 74.5164 292.244 53.7479C292.412 53.2406 292.607 52.2261 292.859 50.7044C293.111 49.1827 293.362 47.5765 293.614 45.8857C293.866 44.1949 294.145 42.5886 294.481 41.0669C294.816 39.5452 295.068 38.5307 295.236 38.0235C295.739 36.5018 296.27 34.9519 296.857 33.3456C297.445 31.7394 298.144 30.274 298.982 28.9214C300.325 27.0615 302.114 25.5116 304.379 24.2435C306.644 22.9754 308.937 22.3555 311.285 22.3555C314.137 22.3555 317.017 23.2009 319.953 24.8917C322.889 26.5825 324.846 28.7805 325.853 31.4858C326.189 32.1621 326.524 33.2893 326.86 34.8955C327.195 36.5018 327.531 38.1362 327.866 39.827C328.202 41.5178 328.453 43.124 328.621 44.6458C328.789 46.1675 328.789 47.351 328.621 48.1964C328.453 49.38 328.314 51.6625 328.258 55.0441C328.174 58.4257 328.146 61.9764 328.146 65.6679C328.146 69.3595 328.174 72.9384 328.258 76.2918C328.342 79.6733 328.37 81.9559 328.37 83.1395C332.06 81.2796 336.199 78.997 340.812 76.2918C345.426 73.5865 350.011 70.6276 354.625 67.4151C359.239 64.2026 363.6 60.8774 367.683 57.4112C371.793 53.9451 375.176 50.6199 377.861 47.4074C379.874 44.533 381.915 42.3068 384.012 40.7006C386.109 39.0943 388.989 38.3053 392.68 38.3053C395.197 38.3053 397.573 38.8689 399.838 39.9397C402.103 41.0387 403.892 42.6732 405.235 44.8712C405.906 46.0547 406.521 47.2383 407.108 48.4219C407.695 49.6054 407.975 50.8735 407.975 52.2261C407.975 54.086 407.751 55.9459 407.36 57.8058C406.94 59.6656 406.129 61.2719 404.983 62.6245C403.641 64.3153 402.438 66.0343 401.348 67.8096C400.257 69.585 399.055 71.3039 397.713 72.9947C396.539 74.3474 395.364 75.7282 394.19 77.1653C393.016 78.6025 391.757 79.9833 390.415 81.336C384.208 87.2537 377.777 92.8897 371.066 98.3003C364.355 103.711 357.253 108.586 349.704 112.982C355.576 118.393 361.168 123.972 366.536 129.693C371.905 135.441 377.246 141.162 382.614 146.911C383.453 147.756 384.711 149.109 386.389 150.968C388.066 152.828 389.856 154.773 391.785 156.802C393.715 158.831 395.56 160.719 397.322 162.494C399.083 164.269 400.453 165.397 401.46 165.904C401.628 166.073 402.075 166.27 402.858 166.524C403.613 166.777 404.06 167.003 404.228 167.144C408.422 169.511 411.917 172.132 414.769 175.006C417.621 177.88 419.047 181.938 419.047 187.151C419.047 189.857 418.292 192.337 416.782 194.619C415.273 196.902 413.343 198.874 410.995 200.565C408.646 202.256 406.101 203.524 403.333 204.369C400.565 205.215 397.937 205.637 395.42 205.637C392.065 205.637 388.682 204.877 385.242 203.355C381.803 201.833 378.504 199.945 375.316 197.663C372.129 195.38 369.109 192.9 366.257 190.195C363.405 187.49 360.888 185.038 358.707 182.84C353.507 177.26 348.529 171.54 343.748 165.622C338.967 159.704 333.99 153.899 328.789 148.15C328.957 153.223 329.041 158.239 329.041 163.227V178.303C329.041 178.472 328.957 178.923 328.789 179.684C328.621 180.445 328.537 180.98 328.537 181.318C328.537 181.825 328.481 182.868 328.425 184.474C328.342 186.081 328.258 187.715 328.174 189.406C328.09 191.097 327.95 192.731 327.81 194.337C327.643 195.944 327.475 196.986 327.307 197.493C327.307 197.832 327.223 198.17 327.055 198.508C326.888 198.846 326.804 199.184 326.804 199.522C326.804 201.89 326.44 204.369 325.685 206.99C324.93 209.611 323.644 211.668 321.799 213.19L321.883 213.274Z" fill="#00423A"/>
<path d="M448.007 217.28C445.826 218.463 443.477 219.14 440.961 219.309C438.444 219.478 436.012 219.224 433.663 218.548C429.972 217.533 426.589 215.561 423.485 212.602C420.382 209.643 418.424 206.233 417.585 202.345C416.411 196.765 415.712 191.129 415.46 185.38C415.209 179.632 415.237 173.911 415.572 168.162C416.411 150.268 417.418 132.487 418.592 114.846C419.766 97.2054 422.115 79.6775 425.638 62.2905C426.98 56.2037 428.742 50.3986 430.923 44.819C431.762 42.9591 432.712 41.2402 433.803 39.6339C434.893 38.0276 436.263 36.7314 437.941 35.7169C440.122 34.1952 442.247 32.6453 444.344 31.039C446.441 29.4328 448.734 28.052 451.251 26.8684C455.612 25.0085 460.198 23.7123 465.063 22.9514C469.929 22.1906 474.766 21.8242 479.631 21.8242C484.832 21.8242 489.977 22.3033 495.094 23.205C500.21 24.135 505.104 25.7694 509.801 28.1365C515.673 31.0109 521.013 34.8997 525.879 39.7748C530.744 44.6781 534.575 50.0605 537.427 55.9782C540.446 62.4032 542.236 69.3637 542.823 76.8595C543.41 84.3835 542.711 91.5131 540.698 98.248C539.188 103.49 536.979 108.421 534.043 113.071C531.107 117.72 527.808 121.976 524.117 125.864C519.252 130.937 514.079 135.586 508.543 139.785C503.007 144.012 497.33 148.07 491.459 151.931C486.761 154.805 481.98 157.51 477.143 160.047C472.277 162.583 467.16 164.612 461.82 166.133C461.82 172.22 461.764 178.279 461.708 184.366C461.624 190.453 461.065 196.427 460.086 202.345C459.415 205.557 457.961 208.431 455.696 210.968C453.432 213.504 450.887 215.617 448.035 217.308L448.007 217.28ZM464.085 60.008C464.252 69.8146 464.197 79.593 463.973 89.3714C463.721 99.178 463.414 108.956 463.106 118.735C467.804 115.86 472.445 112.817 477.059 109.633C481.672 106.42 485.894 102.87 489.753 99.0089C491.431 97.149 493.108 95.261 494.786 93.3166C496.464 91.3722 497.722 89.2305 498.561 86.8634C499.903 82.9746 500.071 78.8603 499.064 74.4642C498.057 70.0682 495.793 66.9402 492.269 65.0803C489.417 63.7277 486.454 62.7132 483.35 62.0369C480.246 61.3606 477.115 60.8534 473.927 60.5152C473.256 60.5152 471.634 60.4307 469.034 60.2616C466.433 60.0925 464.812 60.008 464.141 60.008H464.085Z" fill="#00423A"/>
<path d="M592.269 220.078C584.551 220.078 577.729 218.359 571.801 214.893C565.845 211.427 560.756 206.918 556.478 201.338C552.2 195.759 548.733 189.559 546.049 182.74C543.365 175.892 541.351 169.1 540.009 162.366C537.828 150.389 537.325 138.215 538.499 125.901C539.674 113.586 541.939 101.582 545.294 89.9432C547.643 82.0247 550.83 73.8243 554.857 65.3704C558.883 56.9446 563.692 49.1951 569.312 42.2065C574.933 35.2179 581.448 29.4129 588.913 24.8477C596.379 20.2826 604.767 18 614.162 18C621.208 18 627.304 19.4935 632.505 22.4242C637.705 25.3831 642.095 29.1874 645.702 33.8089C649.309 38.4586 652.189 43.7846 654.37 49.7587C656.551 55.761 658.229 61.7915 659.403 67.8784C659.403 68.2165 659.515 68.5547 659.767 68.8929C660.018 69.231 660.214 69.6537 660.382 70.161C660.885 71.3445 661.304 72.6126 661.64 73.9652C661.975 75.3179 661.975 76.6705 661.64 78.0231C661.137 81.5738 659.627 84.7299 657.11 87.5198C654.594 90.3096 651.406 91.6904 647.548 91.6904C644.696 91.6904 641.816 91.0141 638.88 89.6614C635.944 88.3088 633.651 86.4489 631.973 84.0818C631.134 82.8983 630.184 80.8693 629.093 77.995C628.003 75.1206 626.884 72.1617 625.71 69.1183C624.536 66.0749 623.277 63.2851 621.935 60.7489C620.593 58.2127 619.251 56.691 617.909 56.1837C617.573 56.0147 617.154 55.9301 616.651 55.9301C616.147 55.9301 615.812 56.0147 615.644 56.1837C611.618 56.8601 607.927 59.1426 604.599 63.0314C601.244 66.9203 598.224 71.4009 595.54 76.4451C592.856 81.5174 590.647 86.618 588.885 91.7749C587.124 96.9318 585.837 101.187 584.999 104.569C582.818 113.671 581.476 122.886 580.972 132.185C580.469 141.484 581.308 150.586 583.489 159.548C583.824 161.069 584.411 162.957 585.25 165.24C586.089 167.522 587.096 169.72 588.27 171.834C589.444 173.947 590.815 175.751 592.408 177.273C594.002 178.794 595.792 179.555 597.805 179.555C599.65 179.386 601.915 178.71 604.599 177.526C607.284 176.343 610.052 174.962 612.904 173.356C615.756 171.749 618.44 170.059 620.957 168.283C623.473 166.508 625.486 165.043 626.996 163.859C623.809 163.859 620.593 163.774 617.322 163.605C614.05 163.436 610.919 162.675 607.899 161.323C602.866 158.956 599.622 155.208 598.112 150.051C596.603 144.894 597.274 139.963 600.126 135.228C601.132 133.707 602.39 132.241 603.9 130.804C605.41 129.367 607.088 128.014 608.933 126.746C610.779 125.478 612.708 124.464 614.721 123.703C616.734 122.942 618.58 122.576 620.258 122.576C621.767 122.576 622.942 122.745 623.781 123.083C624.619 123.421 625.402 123.759 626.157 124.097C626.912 124.435 627.695 124.858 628.534 125.365C628.87 125.534 629.205 125.844 629.541 126.239C629.876 126.662 630.212 126.859 630.547 126.859C637.593 126.013 644.612 125.309 651.658 124.717C658.704 124.125 665.806 123.844 673.02 123.844C675.537 123.844 677.885 124.52 680.066 125.873C682.247 127.225 684.093 128.944 685.603 131.058C687.113 133.171 688.119 135.538 688.622 138.159C689.126 140.78 688.958 143.26 688.119 145.627C687.28 147.994 686.106 150.192 684.596 152.221C683.086 154.25 681.157 155.687 678.808 156.532C676.459 157.378 674.027 158.139 671.51 158.815C668.994 159.491 666.477 160.083 663.961 160.59C664.632 162.45 664.828 164.31 664.576 166.17C664.324 168.03 663.849 169.89 663.206 171.749C662.367 174.286 660.41 177.329 657.306 180.88C654.202 184.43 650.763 187.981 647.016 191.504C643.242 195.054 639.467 198.295 635.72 201.254C631.945 204.213 628.814 206.439 626.297 207.961C620.761 211.342 615.364 214.216 610.08 216.584C604.795 218.951 598.895 220.134 592.352 220.134L592.269 220.078Z" fill="#00423A"/>
<path d="M791.498 201.838C775.924 204.881 760.098 206.403 744.02 206.403C739.826 206.403 735.464 206.318 730.962 206.149C726.433 205.98 721.903 205.557 717.401 204.881C712.871 204.205 708.482 203.19 704.204 201.838C699.925 200.485 695.955 198.625 692.264 196.258C688.405 193.722 685.106 190.34 682.338 186.141C679.57 181.914 678.032 177.518 677.696 172.981C677.361 168.078 678.787 163.907 681.974 160.441C685.162 156.975 689.104 155.256 693.774 155.256C695.955 155.256 698.136 155.623 700.317 156.383C702.498 157.144 704.259 158.356 705.602 160.047C705.937 160.385 706.273 160.808 706.608 161.315C706.944 161.822 707.279 162.16 707.615 162.329C709.963 163.175 712.564 163.795 715.416 164.217C718.268 164.64 721.204 164.978 724.224 165.232C727.243 165.485 730.179 165.655 733.031 165.739C735.883 165.824 738.568 165.852 741.084 165.852C744.44 165.852 747.711 165.824 750.871 165.739C754.058 165.655 757.246 165.542 760.433 165.373C751.877 158.271 743.461 151.057 735.184 143.731C726.88 136.376 719.051 128.485 711.697 120.06C708.342 116.34 705.322 112.423 702.638 108.28C699.953 104.138 698.024 99.6291 696.85 94.7258C695.675 90.1606 695.256 85.3701 695.591 80.2977C695.927 75.2253 697.269 70.6038 699.618 66.3768C702.134 61.6426 705.574 56.9929 709.908 52.456C714.269 47.8908 719.107 43.8047 724.475 40.1695C729.844 36.5343 735.408 33.6318 741.196 31.4338C746.984 29.2357 752.632 28.1367 758.168 28.1367C764.04 28.1367 769.772 29.4048 775.392 31.941C781.013 34.4772 785.151 38.6196 787.835 44.3402C789.009 46.8763 789.625 49.5816 789.709 52.456C789.792 55.3303 789.653 58.2047 789.345 61.079C789.345 61.4172 789.457 62.0935 789.709 63.108C789.96 64.1224 790.072 64.7987 790.072 65.1369C790.072 69.1948 788.814 72.9427 786.297 76.4089C783.781 79.875 780.342 81.594 776.008 81.594C770.975 81.594 767.032 80.1286 764.208 77.1697C761.356 74.2108 759.594 70.2938 758.923 65.3905C757.413 65.8978 755.54 66.8841 753.275 68.2931C751.01 69.7302 748.746 71.3647 746.481 73.2245C744.216 75.0844 742.119 76.9443 740.189 78.8041C738.26 80.664 736.89 82.2703 736.051 83.6229C736.89 85.99 738.68 88.9489 741.448 92.4996C744.216 96.0502 747.431 99.77 751.122 103.631C754.813 107.519 758.784 111.521 763.062 115.663C767.34 119.806 771.506 123.723 775.616 127.443C779.726 131.162 783.501 134.488 786.912 137.446C790.352 140.405 793.064 142.716 795.077 144.407C798.432 147.45 801.648 150.663 804.752 154.016C807.855 157.398 810.567 161.033 812.916 164.894C815.6 169.459 816.523 174.475 815.684 179.97C814.846 185.465 812.497 189.974 808.638 193.524C806.289 195.892 803.661 197.695 800.725 198.963C797.789 200.231 794.741 201.189 791.554 201.866L791.498 201.838Z" fill="#00423A"/>
<path d="M915.714 214.682C913.533 215.866 911.184 216.542 908.668 216.711C906.151 216.88 903.719 216.627 901.37 215.95C897.679 214.936 894.296 212.963 891.192 210.004C888.089 207.045 886.131 203.636 885.292 199.747C884.118 194.167 883.419 188.531 883.167 182.783C882.916 177.034 882.944 171.313 883.279 165.565C884.118 147.67 885.125 129.889 886.299 112.248C887.473 94.6077 889.822 77.0799 893.345 59.6929C894.687 53.606 896.449 47.8009 898.63 42.2213C899.469 40.3615 900.419 38.6425 901.51 37.0362C902.6 35.43 903.97 34.1337 905.648 33.1192C907.829 31.5975 909.954 30.0476 912.051 28.4414C914.148 26.8351 916.441 25.4543 918.958 24.2708C923.32 22.4109 927.933 21.1146 932.77 20.3538C937.636 19.5929 942.473 19.2266 947.338 19.2266C952.539 19.2266 957.684 19.7056 962.801 20.6074C967.917 21.5373 972.811 23.1717 977.508 25.5388C983.38 28.4132 988.72 32.302 993.586 37.1771C998.451 42.0804 1002.31 47.4628 1005.13 53.3806C1008.15 59.8056 1009.94 66.766 1010.53 74.2619C1011.12 81.7859 1010.42 88.9154 1008.41 95.6504C1006.9 100.892 1004.69 105.823 1001.75 110.473C998.814 115.123 995.515 119.378 991.824 123.267C986.959 128.339 981.786 132.989 976.25 137.188C970.714 141.414 965.009 145.472 959.166 149.333C954.468 152.207 949.687 154.913 944.85 157.449C939.984 159.985 934.895 162.014 929.527 163.536C929.527 169.623 929.471 175.681 929.415 181.768C929.331 187.855 928.772 193.829 927.765 199.747C927.094 202.959 925.64 205.834 923.375 208.37C921.111 210.906 918.566 213.02 915.714 214.71V214.682ZM931.792 57.4103C931.959 67.2169 931.904 76.9953 931.68 86.7737C931.428 96.5803 931.121 106.359 930.813 116.137C935.511 113.263 940.152 110.219 944.766 107.035C949.379 103.823 953.601 100.272 957.46 96.4112C959.138 94.5514 960.815 92.6633 962.493 90.7189C964.171 88.7745 965.429 86.6328 966.268 84.2657C967.61 80.3769 967.778 76.2626 966.771 71.8666C965.764 67.4705 963.5 64.3425 959.976 62.4827C957.124 61.13 954.161 60.1156 951.057 59.4392C947.953 58.7629 944.822 58.2557 941.634 57.9175C940.963 57.9175 939.341 57.833 936.741 57.6639C934.14 57.4948 932.519 57.4103 931.848 57.4103H931.792Z" fill="#00423A"/>
<path d="M1133.33 235.949C1132.32 236.118 1131.31 236.118 1130.31 235.949C1129.3 235.78 1128.29 235.611 1127.29 235.442C1126.45 235.273 1124.99 234.653 1122.9 233.554C1120.8 232.455 1119.43 231.666 1118.76 231.159C1115.4 228.284 1112.86 225.72 1111.1 223.437C1109.33 221.155 1107.8 217.83 1106.45 213.434C1104.94 209.038 1103.94 204.557 1103.44 200.02C1102.93 195.455 1102.51 190.918 1102.18 186.353C1102.18 185.169 1102.12 182.774 1102.06 179.139C1101.98 175.504 1101.84 171.615 1101.7 167.5C1101.53 163.358 1101.39 159.441 1101.34 155.721C1101.25 152.001 1101.23 149.55 1101.23 148.366C1098.04 146.337 1094.91 144.703 1091.8 143.435C1088.7 142.167 1085.23 141.547 1081.37 141.547C1079.19 141.547 1076.76 141.8 1074.08 142.308C1071.39 142.815 1068.71 143.435 1066.02 144.196C1063.34 144.957 1060.74 145.746 1058.22 146.591C1055.71 147.436 1053.44 148.282 1051.43 149.127C1051.09 150.649 1050.42 153.608 1049.41 158.004C1048.41 162.4 1047.4 167.134 1046.39 172.178C1045.39 177.222 1044.47 182.013 1043.63 186.494C1042.79 190.974 1042.2 193.961 1041.86 195.483C1041.36 198.357 1040.75 201.232 1039.99 204.106C1039.24 206.98 1038.15 209.545 1036.72 211.827C1035.29 214.11 1033.45 215.97 1031.18 217.407C1028.92 218.844 1026.04 219.549 1022.52 219.549C1017.15 219.549 1012.87 217.351 1009.71 212.955C1008.03 210.587 1007.03 207.121 1006.69 202.584C1006.35 198.019 1006.33 193.172 1006.58 188.015C1006.83 182.858 1007.25 177.842 1007.84 172.939C1008.42 168.036 1008.95 164.26 1009.46 161.554C1006.94 161.216 1004.76 160.625 1002.91 159.779C1001.41 159.103 1000.03 158.229 998.777 157.13C997.518 156.031 996.372 154.819 995.393 153.467C994.219 152.114 993.436 150.593 993.017 148.902C992.597 147.211 992.206 145.52 991.898 143.829C991.563 141.631 991.73 139.405 992.402 137.123C993.073 134.84 993.995 132.698 995.17 130.669C995.841 129.317 997.183 127.851 999.196 126.245C1001.21 124.639 1003.42 123.033 1005.85 121.426C1008.28 119.82 1010.66 118.383 1013.01 117.115C1015.36 115.847 1017.2 114.973 1018.55 114.466C1021.4 103.335 1024.36 92.232 1027.46 81.1573C1030.57 70.1108 1034.62 59.4306 1039.66 49.1168C1042.17 43.8753 1045.36 38.5211 1049.22 33.0261C1053.08 27.531 1057.41 22.5713 1062.28 18.0907C1067.14 13.6101 1072.4 9.86218 1078.1 6.81876C1083.81 3.77533 1089.73 2.16908 1095.94 2C1102.82 2 1108.72 3.26809 1113.64 5.80428C1118.59 8.34047 1122.78 11.7502 1126.2 16.0618C1129.63 20.3733 1132.37 25.3611 1134.47 30.9971C1136.57 36.6613 1138.16 42.5227 1139.25 48.6095C1140.34 54.6964 1141.1 60.7551 1141.52 66.8419C1141.94 72.9288 1142.22 78.5647 1142.38 83.8062C1142.72 94.0918 1143.08 104.406 1143.5 114.691C1143.92 124.977 1144.45 135.291 1145.13 145.577C1145.63 154.2 1146.16 162.625 1146.75 170.91C1147.33 179.195 1148.2 187.536 1149.38 195.99C1150.05 200.386 1150.3 204.811 1150.13 209.291C1149.96 213.772 1149.46 218.196 1148.62 222.592C1147.95 226.481 1146.08 229.524 1142.97 231.722C1139.87 233.92 1136.65 235.358 1133.3 236.034L1133.33 235.949ZM1101.67 102.489C1101.67 99.446 1101.76 94.9372 1101.93 88.9349C1102.09 82.9326 1102.09 76.7049 1101.93 70.1953C1101.76 63.6858 1101.31 57.5707 1100.56 51.822C1099.8 46.0733 1098.57 41.8745 1096.92 39.1692C1095.07 40.0146 1093.2 41.2264 1091.27 42.8326C1089.34 44.4389 1087.5 46.2424 1085.74 48.2714C1083.97 50.3003 1082.38 52.3293 1080.95 54.3582C1079.53 56.3872 1078.41 58.247 1077.57 59.9378C1074.22 66.0247 1071.5 72.3933 1069.41 79.0438C1067.31 85.7224 1065.32 92.3447 1063.51 98.9106C1065.86 98.5725 1068.2 98.2343 1070.55 97.8961C1072.9 97.558 1075.25 97.3889 1077.6 97.3889C1085.96 97.3889 1094.01 99.0797 1101.73 102.461L1101.67 102.489Z" fill="#00423A"/>
<path d="M1259.21 199.212C1243.64 202.256 1227.81 203.778 1211.73 203.778C1207.54 203.778 1203.18 203.693 1198.68 203.524C1194.15 203.355 1189.65 202.932 1185.12 202.256C1180.59 201.58 1176.2 200.565 1171.92 199.212C1167.64 197.86 1163.67 196 1159.98 193.633C1156.12 191.097 1152.82 187.715 1150.05 183.516C1147.28 179.289 1145.75 174.893 1145.41 170.356C1145.08 165.453 1146.5 161.282 1149.69 157.816C1152.88 154.35 1156.79 152.631 1161.49 152.631C1163.67 152.631 1165.85 152.997 1168.03 153.758C1170.21 154.519 1171.97 155.731 1173.32 157.422C1173.65 157.76 1173.99 158.183 1174.32 158.69C1174.66 159.197 1174.99 159.535 1175.33 159.704C1177.68 160.55 1180.28 161.17 1183.13 161.592C1185.98 162.015 1188.92 162.353 1191.94 162.607C1194.96 162.86 1197.87 163.03 1200.72 163.114C1203.57 163.199 1206.25 163.227 1208.77 163.227C1212.13 163.227 1215.4 163.199 1218.59 163.114C1221.77 163.03 1224.96 162.917 1228.12 162.748C1219.59 155.646 1211.18 148.432 1202.87 141.106C1194.59 133.751 1186.74 125.86 1179.38 117.434C1176.03 113.715 1173.01 109.798 1170.35 105.655C1167.67 101.513 1165.74 97.0041 1164.56 92.1008C1163.39 87.5356 1162.97 82.7451 1163.31 77.6727C1163.64 72.6003 1164.98 67.9788 1167.33 63.7518C1169.85 59.0176 1173.26 54.3679 1177.62 49.8309C1181.98 45.2658 1186.82 41.1797 1192.19 37.5445C1197.56 33.9093 1203.12 31.0068 1208.88 28.8088C1214.67 26.6107 1220.32 25.5117 1225.86 25.5117C1231.73 25.5117 1237.46 26.7798 1243.08 29.316C1248.7 31.8522 1252.84 35.9946 1255.52 41.7151C1256.7 44.2513 1257.31 46.9566 1257.42 49.8309C1257.51 52.7053 1257.37 55.5797 1257.06 58.454C1257.06 58.7922 1257.17 59.4685 1257.42 60.483C1257.67 61.4974 1257.79 62.1737 1257.79 62.5119C1257.79 66.5698 1256.53 70.3177 1254.01 73.7838C1251.5 77.25 1248.06 78.9689 1243.72 78.9689C1238.69 78.9689 1234.75 77.5036 1231.92 74.5447C1229.07 71.5858 1227.31 67.6688 1226.64 62.7655C1225.13 63.2728 1223.25 64.259 1220.99 65.668C1218.73 67.1052 1216.46 68.7396 1214.2 70.5995C1211.93 72.4594 1209.83 74.3193 1207.9 76.1791C1205.97 78.039 1204.6 79.6453 1203.77 80.9979C1204.6 83.365 1206.39 86.3239 1209.16 89.8745C1211.93 93.4252 1215.15 97.145 1218.84 101.006C1222.53 104.894 1226.5 108.896 1230.78 113.038C1235.05 117.181 1239.25 121.098 1243.33 124.818C1247.44 128.537 1251.19 131.863 1254.63 134.821C1258.07 137.78 1260.78 140.091 1262.79 141.782C1266.15 144.825 1269.36 148.038 1272.47 151.391C1275.57 154.773 1278.28 158.408 1280.63 162.269C1283.32 166.834 1284.24 171.85 1283.4 177.345C1282.56 182.84 1280.21 187.349 1276.35 190.899C1274 193.267 1271.38 195.07 1268.44 196.338C1265.5 197.606 1262.46 198.564 1259.27 199.241L1259.21 199.212Z" fill="#00423A"/>
<path d="M1387.1 199.212C1371.53 202.256 1355.7 203.778 1339.63 203.778C1335.43 203.778 1331.07 203.693 1326.57 203.524C1322.04 203.355 1317.54 202.932 1313.01 202.256C1308.48 201.58 1304.09 200.565 1299.81 199.212C1295.53 197.86 1291.56 196 1287.87 193.633C1284.01 191.097 1280.71 187.715 1277.94 183.516C1275.18 179.289 1273.64 174.893 1273.3 170.356C1272.97 165.453 1274.39 161.282 1277.58 157.816C1280.77 154.35 1284.68 152.631 1289.38 152.631C1291.56 152.631 1293.74 152.997 1295.92 153.758C1298.1 154.519 1299.86 155.731 1301.21 157.422C1301.54 157.76 1301.88 158.183 1302.21 158.69C1302.55 159.197 1302.88 159.535 1303.22 159.704C1305.57 160.55 1308.17 161.17 1311.02 161.592C1313.87 162.015 1316.81 162.353 1319.83 162.607C1322.85 162.86 1325.76 163.03 1328.61 163.114C1331.46 163.199 1334.15 163.227 1336.66 163.227C1340.02 163.227 1343.29 163.199 1346.48 163.114C1349.66 163.03 1352.85 162.917 1356.01 162.748C1347.48 155.646 1339.07 148.432 1330.76 141.106C1322.49 133.751 1314.63 125.86 1307.27 117.434C1303.92 113.715 1300.9 109.798 1298.24 105.655C1295.56 101.513 1293.63 97.0041 1292.46 92.1008C1291.28 87.5356 1290.86 82.7451 1291.2 77.6727C1291.53 72.6003 1292.87 67.9788 1295.22 63.7518C1297.74 59.0176 1301.15 54.3679 1305.51 49.8309C1309.87 45.2658 1314.71 41.1797 1320.08 37.5445C1325.45 33.9093 1331.01 31.0068 1336.77 28.8088C1342.56 26.6107 1348.21 25.5117 1353.75 25.5117C1359.62 25.5117 1365.35 26.7798 1370.97 29.316C1376.59 31.8522 1380.73 35.9946 1383.41 41.7151C1384.59 44.2513 1385.2 46.9566 1385.31 49.8309C1385.4 52.7053 1385.26 55.5797 1384.95 58.454C1384.95 58.7922 1385.06 59.4685 1385.31 60.483C1385.57 61.4974 1385.68 62.1737 1385.68 62.5119C1385.68 66.5698 1384.42 70.3177 1381.9 73.7838C1379.39 77.25 1375.95 78.9689 1371.61 78.9689C1366.58 78.9689 1362.64 77.5036 1359.81 74.5447C1356.96 71.5858 1355.2 67.6688 1354.53 62.7655C1353.02 63.2728 1351.15 64.259 1348.88 65.668C1346.62 67.1052 1344.35 68.7396 1342.09 70.5995C1339.82 72.4594 1337.72 74.3193 1335.79 76.1791C1333.87 78.039 1332.5 79.6453 1331.66 80.9979C1332.5 83.365 1334.28 86.3239 1337.05 89.8745C1339.82 93.4252 1343.04 97.145 1346.73 101.006C1350.42 104.894 1354.39 108.896 1358.67 113.038C1362.95 117.181 1367.14 121.098 1371.22 124.818C1375.33 128.537 1379.08 131.863 1382.52 134.821C1385.96 137.78 1388.67 140.091 1390.68 141.782C1394.04 144.825 1397.25 148.038 1400.36 151.391C1403.46 154.773 1406.17 158.408 1408.52 162.269C1411.21 166.834 1412.13 171.85 1411.29 177.345C1410.45 182.84 1408.1 187.349 1404.24 190.899C1401.89 193.267 1399.27 195.07 1396.33 196.338C1393.39 197.606 1390.35 198.564 1387.16 199.241L1387.1 199.212Z" fill="#00423A"/>
<path d="M117 226C89.6893 226 63.8786 219.959 44.3295 208.994C24.1295 197.656 13 182.411 13 166.063C13 150.975 22.2474 136.967 39.7376 125.573C41.3791 124.499 43.5724 124.979 44.6266 126.646C45.6809 128.314 45.2068 130.526 43.5653 131.592C32.8462 138.578 20.0682 150.223 20.0682 166.063C20.0682 179.698 29.9029 192.717 47.761 202.738C66.2771 213.124 90.8638 218.842 117 218.842C143.136 218.842 167.723 213.124 186.239 202.738C204.097 192.725 213.932 179.698 213.932 166.063C213.932 153.702 205.59 141.462 190.435 131.592C188.793 130.519 188.319 128.307 189.373 126.646C190.435 124.986 192.621 124.506 194.262 125.573C211.505 136.803 221 151.182 221 166.063C221 182.411 209.871 197.663 189.663 208.994C170.114 219.959 144.311 226 116.993 226H117Z" fill="#00423A" stroke="#00423A" stroke-width="25"/>
<path d="M117 153.343V13L181.094 50.4174L117 87.8624" fill="#00423A"/>
<path d="M117 153.343V13L181.094 50.4174L117 87.8624" stroke="#00423A" stroke-width="25" stroke-linecap="round" stroke-linejoin="round"/>
</svg>
