<svg width="369" height="303" viewBox="0 0 369 303" fill="none" xmlns="http://www.w3.org/2000/svg">
<g id="No Results">
<g id="circle">
<path id="Stroke 1" d="M14.9766 139.348V142.436" stroke="#DDDDDD" stroke-width="2.921" stroke-linecap="round"/>
<g id="Group 8">
<path id="Stroke 2" d="M8.03906 141.023L10.5625 143.621" stroke="#DDDDDD" stroke-width="2.921" stroke-linecap="round"/>
<path id="Stroke 4" d="M5.08594 147.938H8.65404" stroke="#DDDDDD" stroke-width="2.921" stroke-linecap="round"/>
<path id="Stroke 6" d="M7.74609 154.977L10.2695 152.379" stroke="#DDDDDD" stroke-width="2.921" stroke-linecap="round"/>
</g>
<path id="Stroke 9" d="M14.9766 155.819V152.73" stroke="#DDDDDD" stroke-width="2.921" stroke-linecap="round"/>
<path id="Stroke 10" d="M20.1291 153.758L18.0703 151.699" stroke="#DDDDDD" stroke-width="2.921" stroke-linecap="round"/>
<path id="Stroke 11" d="M24.2405 148.617H21.1523" stroke="#DDDDDD" stroke-width="2.921" stroke-linecap="round"/>
<path id="Stroke 12" d="M22.1798 141.41L20.1211 143.469" stroke="#DDDDDD" stroke-width="2.921" stroke-linecap="round"/>
<path id="Stroke 13" d="M180.703 4.5V6.55875" stroke="#DDDDDD" stroke-width="2.921" stroke-linecap="round"/>
<path id="Stroke 15" d="M174.527 10.6758H176.586" stroke="#DDDDDD" stroke-width="2.921" stroke-linecap="round"/>
<path id="Stroke 16" d="M180.703 16.8478V14.7891" stroke="#DDDDDD" stroke-width="2.921" stroke-linecap="round"/>
<path id="Stroke 17" d="M185.856 10.6758H183.797" stroke="#DDDDDD" stroke-width="2.921" stroke-linecap="round"/>
<path id="Stroke 18" d="M61.3008 90.9727V94.0608" stroke="#DDDDDD" stroke-width="2.921" stroke-linecap="round"/>
<path id="Stroke 19" d="M52.0312 100.23H55.1194" stroke="#DDDDDD" stroke-width="2.921" stroke-linecap="round"/>
<path id="Stroke 20" d="M61.3008 108.463V105.375" stroke="#DDDDDD" stroke-width="2.921" stroke-linecap="round"/>
<path id="Stroke 21" d="M69.5334 100.23H66.4453" stroke="#DDDDDD" stroke-width="2.921" stroke-linecap="round"/>
<g id="Group 42">
<path id="Stroke 22" d="M282.869 203.215C285.329 203.215 287.324 205.21 287.324 207.671C287.324 210.133 285.329 212.127 282.869 212.127C280.409 212.127 278.414 210.133 278.414 207.671" stroke="#DDDDDD" stroke-width="2.921" stroke-linecap="round"/>
<path id="Fill 26" fill-rule="evenodd" clip-rule="evenodd" d="M303.258 162.779C305.903 161.954 309.958 158.719 310.897 155.238C311.748 158.315 315.316 161.954 318.535 162.23C314.911 163.513 311.446 167.325 310.897 170.32C310.523 167.267 305.73 163.224 303.258 162.779Z" fill="#ECEEEB"/>
<path id="Fill 28" fill-rule="evenodd" clip-rule="evenodd" d="M31.7227 201.84C33.0457 201.428 35.0723 199.811 35.5416 198.07C35.9672 199.608 37.7508 201.428 39.3605 201.566C37.5489 202.207 35.8169 204.113 35.5416 205.611C35.3546 204.084 32.9583 202.062 31.7227 201.84Z" fill="#ECEEEB"/>
<path id="Fill 30" fill-rule="evenodd" clip-rule="evenodd" d="M56.2801 58.639C56.2801 60.5481 54.7333 62.0944 52.8256 62.0944C50.917 62.0944 49.3711 60.5481 49.3711 58.639C49.3711 56.7308 50.917 55.1836 52.8256 55.1836C54.7333 55.1836 56.2801 56.7308 56.2801 58.639Z" fill="#DDDDDD"/>
<path id="Fill 32" fill-rule="evenodd" clip-rule="evenodd" d="M286.951 67.9199C286.951 71.1096 284.365 73.6952 281.177 73.6952C277.987 73.6952 275.402 71.1096 275.402 67.9199C275.402 64.7302 277.987 62.1445 281.177 62.1445C284.365 62.1445 286.951 64.7302 286.951 67.9199Z" fill="#ECEEEB"/>
<path id="Fill 34" fill-rule="evenodd" clip-rule="evenodd" d="M366.933 52.2766C366.933 54.8072 364.883 56.8579 362.354 56.8579C359.824 56.8579 357.773 54.8072 357.773 52.2766C357.773 49.746 359.824 47.6953 362.354 47.6953C364.883 47.6953 366.933 49.746 366.933 52.2766Z" fill="#ECEEEB"/>
<path id="Stroke 36" fill-rule="evenodd" clip-rule="evenodd" d="M120.84 266.232C120.84 267.827 119.548 269.12 117.953 269.12C116.359 269.12 115.066 267.827 115.066 266.232C115.066 264.637 116.359 263.344 117.953 263.344C119.548 263.344 120.84 264.637 120.84 266.232Z" stroke="#DDDDDD" stroke-width="2.921" stroke-linecap="round"/>
<path id="Stroke 38" fill-rule="evenodd" clip-rule="evenodd" d="M119.116 36.4437C119.116 38.3528 117.569 39.8991 115.662 39.8991C113.754 39.8991 112.207 38.3528 112.207 36.4437C112.207 34.5355 113.754 32.9883 115.662 32.9883C117.569 32.9883 119.116 34.5355 119.116 36.4437Z" stroke="#DDDDDD" stroke-width="2.921" stroke-linecap="round"/>
<path id="Stroke 40" fill-rule="evenodd" clip-rule="evenodd" d="M207.244 298.222C205.036 299.062 202.566 297.952 201.726 295.745C200.886 293.537 201.994 291.065 204.203 290.226C206.409 289.386 208.88 290.494 209.72 292.702C210.56 294.911 209.451 297.382 207.244 298.222Z" stroke="#DDDDDD" stroke-width="2.921" stroke-linecap="round"/>
</g>
</g>
<g id="search">
<g id="documents">
<path id="Fill 1" fill-rule="evenodd" clip-rule="evenodd" d="M205.937 216.55H121.524C115.582 216.55 110.719 211.672 110.719 205.711V85.3328C110.719 79.3714 115.582 74.4961 121.524 74.4961H205.937C211.881 74.4961 216.744 79.3714 216.744 85.3328V205.711C216.744 211.672 211.881 216.55 205.937 216.55Z" fill="#E6E6E6"/>
<path id="Fill 3" fill-rule="evenodd" clip-rule="evenodd" d="M198.73 221.694H114.317C108.375 221.694 103.512 216.817 103.512 210.855V90.4774C103.512 84.5159 108.375 79.6406 114.317 79.6406H198.73C204.674 79.6406 209.537 84.5159 209.537 90.4774V210.855C209.537 216.817 204.674 221.694 198.73 221.694Z" fill="#EEEEEE"/>
<path id="Fill 5" fill-rule="evenodd" clip-rule="evenodd" d="M191.72 225.758H107.132C101.178 225.758 96.3047 220.901 96.3047 214.964V95.0848C96.3047 89.1481 101.178 84.293 107.132 84.293H191.72C197.676 84.293 202.549 89.1481 202.549 95.0848V214.964C202.549 220.901 197.676 225.758 191.72 225.758Z" fill="#DDDDDD"/>
<path id="Fill 8" fill-rule="evenodd" clip-rule="evenodd" d="M191.72 225.758H107.132C101.178 225.758 96.3047 220.901 96.3047 214.964V95.0848C96.3047 89.1481 101.178 84.293 107.132 84.293H191.72C197.676 84.293 202.549 89.1481 202.549 95.0848V214.964C202.549 220.901 197.676 225.758 191.72 225.758Z" fill="#F5F5F5" fill-opacity="0.960784"/>
<path id="Fill 11" fill-rule="evenodd" clip-rule="evenodd" d="M179.524 120.821H117.046C115.261 120.821 113.801 119.431 113.801 117.734C113.801 116.034 115.261 114.645 117.046 114.645H179.524C181.308 114.645 182.769 116.034 182.769 117.734C182.769 119.431 181.308 120.821 179.524 120.821Z" fill="#E6E6E6"/>
<path id="Fill 13" fill-rule="evenodd" clip-rule="evenodd" d="M179.524 139.348H117.046C115.261 139.348 113.801 137.959 113.801 136.261C113.801 134.561 115.261 133.172 117.046 133.172H179.524C181.308 133.172 182.769 134.561 182.769 136.261C182.769 137.959 181.308 139.348 179.524 139.348Z" fill="#E6E6E6"/>
<path id="Fill 15" fill-rule="evenodd" clip-rule="evenodd" d="M179.524 157.875H117.046C115.261 157.875 113.801 156.486 113.801 154.789C113.801 153.091 115.261 151.699 117.046 151.699H179.524C181.308 151.699 182.769 153.091 182.769 154.789C182.769 156.486 181.308 157.875 179.524 157.875Z" fill="#E6E6E6"/>
<path id="Fill 17" fill-rule="evenodd" clip-rule="evenodd" d="M179.524 176.403H117.046C115.261 176.403 113.801 175.013 113.801 173.316C113.801 171.616 115.261 170.227 117.046 170.227H179.524C181.308 170.227 182.769 171.616 182.769 173.316C182.769 175.013 181.308 176.403 179.524 176.403Z" fill="#E6E6E6"/>
<path id="Fill 19" fill-rule="evenodd" clip-rule="evenodd" d="M149.658 194.93H117.059C115.268 194.93 113.801 193.541 113.801 191.843C113.801 190.143 115.268 188.754 117.059 188.754H149.658C151.45 188.754 152.917 190.143 152.917 191.843C152.917 193.541 151.45 194.93 149.658 194.93Z" fill="#E6E6E6"/>
</g>
<g id="search_2">
<path id="Fill 21" fill-rule="evenodd" clip-rule="evenodd" d="M215.448 170.98C202.955 183.471 183.613 184.88 169.572 175.236C167.778 173.981 166.07 172.572 164.477 170.98C163.657 170.163 162.884 169.319 162.156 168.431C160.699 166.658 159.423 164.767 158.378 162.813C156.537 159.513 155.284 156.011 154.601 152.391C152.395 141.039 155.693 128.821 164.477 120.041C173.282 111.235 185.502 107.959 196.856 110.143C200.474 110.848 203.979 112.1 207.28 113.92C209.237 114.989 211.102 116.264 212.878 117.72C213.763 118.446 214.607 119.221 215.424 120.041C217.02 121.634 218.45 123.339 219.681 125.136C229.329 139.172 227.917 158.512 215.448 170.98Z" fill="white" fill-opacity="0.1"/>
<path id="Fill 23" fill-rule="evenodd" clip-rule="evenodd" d="M211.949 168.518C198.951 181.518 177.888 181.516 164.888 168.518C151.905 155.535 151.905 134.469 164.905 121.472C177.888 108.489 198.951 108.489 211.934 121.472C224.932 134.469 224.932 155.535 211.949 168.518ZM218.619 114.794C201.936 98.1104 174.901 98.1104 158.217 114.794C141.536 131.475 141.522 158.527 158.203 175.21C173.387 190.389 197.186 191.758 213.925 179.295C215.56 178.076 217.134 176.71 218.636 175.21C220.136 173.708 221.502 172.134 222.719 170.499C235.182 153.757 233.801 129.975 218.619 114.794Z" fill="#E6E6E6"/>
<path id="Fill 25" fill-rule="evenodd" clip-rule="evenodd" d="M284.278 238.097L283.577 238.797C278.943 243.433 271.356 243.433 266.719 238.797L223.934 196.012L241.492 178.453L284.278 221.239C288.914 225.875 288.914 233.461 284.278 238.097Z" fill="url(#paint0_linear_2077_1898)"/>
<path id="Fill 27" fill-rule="evenodd" clip-rule="evenodd" d="M223.638 169.195L236.281 181.839L227.305 190.812L214.664 178.169C216.332 176.925 217.937 175.531 219.472 174C221.002 172.47 222.396 170.864 223.638 169.195Z" fill="#E6E6E6"/>
<path id="Fill 29" fill-rule="evenodd" clip-rule="evenodd" d="M283.638 220.714L266.192 238.158L263.051 235.015L280.495 217.57L283.638 220.714Z" fill="#CCDDCC"/>
<path id="Fill 31" fill-rule="evenodd" clip-rule="evenodd" d="M242.459 179.065L224.534 196.99L221.871 194.327L239.795 176.402L242.459 179.065Z" fill="url(#paint1_linear_2077_1898)"/>
<path id="Fill 33" fill-rule="evenodd" clip-rule="evenodd" d="M203.351 116.997L159.393 160.953C157.738 157.986 156.612 154.838 156 151.583L193.981 113.602C197.233 114.237 200.384 115.361 203.351 116.997Z" fill="white" fill-opacity="0.5"/>
<path id="Fill 35" fill-rule="evenodd" clip-rule="evenodd" d="M217.752 127.446L170.229 172.277C168.527 171.157 166.907 169.896 165.397 168.471C164.619 167.737 163.884 166.985 163.195 166.19L211.297 120.809C212.14 121.46 212.94 122.154 213.715 122.888C215.225 124.313 216.584 125.839 217.752 127.446Z" fill="white" fill-opacity="0.5"/>
</g>
</g>
</g>
<defs>
<linearGradient id="paint0_linear_2077_1898" x1="255.844" y1="146.543" x2="192.023" y2="210.364" gradientUnits="userSpaceOnUse">
<stop stop-color="#C3CDBC"/>
<stop offset="1" stop-color="#E8EFD9"/>
</linearGradient>
<linearGradient id="paint1_linear_2077_1898" x1="232.165" y1="166.109" x2="211.577" y2="186.696" gradientUnits="userSpaceOnUse">
<stop stop-color="#D6E1D2"/>
<stop offset="1" stop-color="#E7F7E7"/>
</linearGradient>
</defs>
</svg>
