<?xml version="1.0" standalone="no"?>
<!DOCTYPE svg PUBLIC "-//W3C//DTD SVG 20010904//EN"
 "http://www.w3.org/TR/2001/REC-SVG-20010904/DTD/svg10.dtd">
<svg version="1.0" xmlns="http://www.w3.org/2000/svg"
 width="700.000000pt" height="700.000000pt" viewBox="0 0 700.000000 700.000000"
 preserveAspectRatio="xMidYMid meet">
<metadata>
Created by potrace 1.14, written by Peter Selinger 2001-2017
</metadata>
<g transform="translate(0.000000,700.000000) scale(0.100000,-0.100000)"
fill="#000000" stroke="none">
<path d="M3495 6304 l-25 -27 3 -542 c2 -508 3 -544 20 -563 36 -40 111 -30
137 17 6 12 10 109 10 243 l0 223 168 100 c92 55 183 108 202 118 91 50 113
82 91 135 -11 26 -104 84 -460 289 -70 40 -113 42 -146 7z"/>
<path d="M3975 4973 c-138 -28 -232 -87 -323 -206 -71 -92 -148 -268 -177
-407 -9 -41 -19 -84 -22 -95 -12 -49 -10 -283 3 -350 40 -192 121 -319 249
-388 33 -18 56 -22 130 -22 82 1 96 4 155 34 125 64 254 167 332 264 31 40 38
57 38 93 0 28 5 44 13 45 49 3 111 27 135 52 72 77 18 198 -89 200 -44 0 -197
-10 -258 -18 -19 -3 -43 2 -56 11 -52 34 -121 17 -176 -43 -45 -48 -54 -110
-22 -163 22 -39 67 -62 125 -66 28 -1 52 -5 55 -8 7 -7 -60 -54 -108 -75 -112
-50 -140 -36 -182 90 -54 158 -30 409 57 591 64 135 138 207 179 175 8 -7 32
-51 52 -98 46 -111 75 -138 147 -146 54 -5 56 -5 82 30 38 49 39 67 10 175
-43 163 -100 249 -194 297 -45 22 -117 35 -155 28z"/>
<path d="M1750 4932 c-105 -56 -144 -353 -130 -1007 3 -184 33 -326 79 -377
52 -58 152 -42 188 30 17 35 20 64 22 234 1 106 4 194 6 196 1 2 49 -50 106
-114 137 -156 213 -229 277 -266 48 -27 60 -30 117 -26 54 3 71 9 103 35 l40
32 6 -38 c8 -50 40 -89 90 -112 78 -35 141 -16 190 58 29 44 37 90 40 220 1
51 4 94 6 96 3 2 28 12 55 22 115 42 273 147 379 252 188 186 199 446 28 627
-46 48 -96 80 -170 109 -79 30 -271 31 -347 1 -71 -29 -150 -89 -169 -128 -38
-80 -77 -302 -90 -511 -9 -139 -19 -334 -20 -392 0 -29 -4 -53 -8 -53 -5 0 -8
4 -8 8 0 4 -15 16 -32 27 -32 18 -101 86 -325 317 l-102 106 82 55 c154 103
326 283 340 354 6 33 -11 81 -38 103 -22 18 -85 30 -109 20 -12 -4 -51 -37
-87 -73 -83 -83 -338 -251 -340 -224 -1 6 -2 71 -3 142 -3 205 -17 254 -81
281 -44 18 -53 18 -95 -4z m1314 -300 c27 -9 57 -28 68 -42 23 -32 26 -98 5
-142 -30 -62 -124 -148 -232 -210 -11 -6 -12 380 -1 407 6 18 96 10 160 -13z"/>
<path d="M4983 4879 c-96 -17 -213 -91 -293 -185 -69 -80 -90 -127 -90 -199 0
-86 20 -144 74 -218 59 -78 207 -230 303 -309 40 -34 71 -63 69 -65 -2 -3 -53
-6 -113 -8 -141 -5 -240 13 -284 49 -28 24 -40 27 -76 23 -159 -18 -134 -230
37 -317 31 -15 73 -31 94 -34 21 -4 42 -9 47 -12 12 -7 270 -7 344 1 251 25
337 64 365 163 32 117 -9 174 -300 424 -124 107 -260 261 -260 295 0 19 69 83
120 112 l38 21 11 -33 c24 -71 102 -105 160 -71 44 26 55 56 55 147 0 68 -4
89 -22 118 -50 81 -159 119 -279 98z"/>
<path d="M1292 3620 c-25 -11 -125 -77 -192 -128 -140 -107 -275 -241 -368
-367 -82 -110 -92 -126 -147 -240 -159 -326 -141 -704 47 -1028 80 -138 207
-289 338 -402 30 -26 68 -58 83 -72 35 -30 227 -162 287 -197 327 -191 770
-350 1195 -430 99 -19 267 -46 310 -50 28 -2 70 -7 95 -10 260 -34 724 -39
1015 -11 126 12 155 15 186 19 87 13 195 28 209 31 8 1 35 6 60 10 25 4 52 9
60 10 405 84 719 189 1025 342 55 28 114 59 132 69 17 11 57 34 89 53 32 18
98 63 148 99 474 341 703 769 652 1222 -8 72 -44 220 -57 234 -5 6 -9 16 -9
22 0 14 -70 160 -103 214 -68 114 -191 256 -341 395 -72 67 -245 191 -294 212
-114 47 -227 -87 -163 -193 11 -17 38 -44 61 -60 242 -166 411 -335 514 -513
55 -95 81 -160 113 -286 3 -11 7 -69 9 -130 4 -108 3 -114 -40 -286 -11 -41
-68 -154 -114 -220 -81 -120 -156 -202 -277 -303 -88 -73 -87 -72 -170 -127
-268 -178 -594 -319 -955 -414 -61 -16 -231 -54 -260 -59 -19 -3 -60 -10 -90
-16 -71 -14 -223 -35 -315 -45 -62 -6 -183 -16 -260 -20 -83 -5 -434 -5 -520
0 -101 5 -228 15 -260 20 -16 2 -57 7 -90 11 -33 3 -69 8 -80 9 -11 2 -42 6
-70 10 -27 4 -52 9 -55 10 -3 2 -26 6 -50 10 -61 8 -343 72 -405 92 -276 84
-448 152 -640 252 -400 207 -670 466 -784 753 -47 117 -61 196 -57 328 11 343
213 632 654 936 104 72 65 233 -59 249 -19 3 -44 0 -57 -5z"/>
<path d="M3090 3251 c-88 -27 -204 -124 -274 -229 -75 -114 -138 -267 -186
-456 -17 -65 -33 -122 -36 -127 -2 -4 -25 -18 -51 -31 -101 -50 -153 -131
-137 -214 8 -42 56 -93 95 -101 16 -3 27 -8 25 -12 -21 -33 -26 -312 -7 -358
28 -69 141 -85 189 -26 27 34 34 59 81 288 l37 180 35 17 c19 10 52 20 73 24
22 3 49 9 60 14 32 12 101 3 151 -19 l45 -20 1 -158 c1 -171 2 -183 24 -289
13 -60 22 -77 59 -115 24 -24 63 -51 87 -60 41 -15 48 -15 89 0 66 24 83 61
84 180 1 53 -2 122 -6 154 -5 38 -4 56 2 52 6 -3 10 -12 10 -19 0 -21 70 -96
109 -115 100 -52 226 -64 476 -47 186 12 302 43 345 92 28 33 28 33 47 12 29
-33 108 -67 191 -85 61 -12 112 -14 242 -10 368 13 475 58 497 210 11 79 -59
169 -262 342 -105 89 -246 233 -283 289 l-32 50 22 24 c34 35 110 89 133 93
13 3 21 -2 23 -16 13 -64 77 -103 138 -82 61 20 77 52 78 151 0 79 -2 89 -30
128 -70 100 -221 125 -364 61 -104 -47 -231 -168 -272 -261 -23 -50 -23 -153
-1 -218 26 -78 246 -320 386 -424 25 -19 47 -39 47 -43 0 -9 -248 -2 -315 9
-22 3 -52 17 -66 30 -35 33 -85 40 -134 20 -39 -17 -40 -17 -58 8 -24 34 -71
80 -148 146 -86 74 -154 136 -209 190 -54 52 -150 173 -150 188 0 6 21 29 48
52 54 48 122 86 122 69 0 -21 33 -80 50 -89 58 -31 119 -18 150 32 24 40 28
161 6 211 -47 109 -212 154 -357 96 -118 -46 -270 -189 -302 -283 -16 -47 -15
-132 2 -193 21 -76 163 -242 331 -385 52 -45 100 -86 105 -91 10 -10 -279 -3
-324 7 -13 3 -35 13 -49 23 -48 35 -64 41 -99 37 -43 -4 -81 -27 -93 -57 -8
-21 -9 -21 -10 -2 -1 11 -3 38 -5 60 -6 70 -15 228 -20 371 -5 161 -15 328
-20 354 -2 9 -6 33 -9 51 -8 50 -43 146 -66 185 -31 50 -117 122 -158 134 -42
11 -125 12 -162 1z m103 -363 c7 -35 12 -94 11 -133 -2 -38 -3 -112 -3 -162
-1 -101 0 -101 -61 -83 -48 15 -133 19 -175 10 -19 -4 -35 -5 -35 -1 0 24 56
197 81 251 30 64 130 180 155 180 7 0 19 -28 27 -62z"/>
<path d="M1998 3085 c-2 -2 -20 -6 -41 -9 -82 -13 -195 -84 -219 -139 -34 -75
-59 -181 -73 -307 -3 -30 -8 -71 -10 -90 -3 -19 -7 -73 -10 -120 -11 -196 -16
-292 -21 -410 -2 -69 -5 -136 -6 -150 -3 -42 13 -103 34 -132 44 -63 142 -86
204 -47 71 44 94 107 97 266 l2 105 53 18 c116 41 293 160 397 267 58 59 118
167 131 233 40 210 -85 422 -291 495 -43 15 -236 31 -247 20z m127 -293 c111
-40 120 -150 21 -260 -28 -31 -176 -142 -189 -142 -8 0 7 416 15 421 16 10
101 0 153 -19z"/>
</g>
</svg>
