<svg width="50" height="19" viewBox="0 0 50 19" fill="none" xmlns="http://www.w3.org/2000/svg">
<g clip-path="url(#clip0_422_520)">
<path d="M21.2568 11.6415C21.4117 12.4994 21.6775 13.4219 22.0518 14.4116H21.4994C21.2517 13.8328 20.9858 13.1118 20.7045 12.2462C20.4206 11.3831 20.2812 10.352 20.2812 9.15558C20.2812 7.95914 20.4232 6.92033 20.7045 6.05983C20.9884 5.19932 21.2517 4.47835 21.4994 3.9021H22.0518C21.6775 4.89181 21.4117 5.81692 21.2568 6.67226C21.102 7.53018 21.0246 8.35709 21.0246 9.15558C21.0246 9.95407 21.102 10.7836 21.2568 11.6415Z" fill="#231815"/>
<path d="M27.058 6.83244C27.4477 7.39319 28.1162 7.83249 29.0686 8.15033L28.5369 8.96174C28.0439 8.80153 27.5458 8.51211 27.0477 8.09348C26.547 7.67486 26.1908 7.23039 25.974 6.7575C25.7598 7.20713 25.4295 7.63868 24.9856 8.04955C24.5416 8.46042 24.0177 8.76535 23.4112 8.96432L22.8692 8.15292C23.8138 7.8635 24.4823 7.43195 24.8746 6.8557C25.2669 6.27944 25.4914 5.84014 25.5456 5.5378H23.2744V4.5791H28.6711V5.5378H26.3999C26.4489 5.84273 26.6683 6.27427 27.0554 6.83502L27.058 6.83244ZM26.3715 10.7448V14.2411H25.5688V10.7448H22.4434V9.79641H29.5073V10.7448H26.3715Z" fill="#231815"/>
<path d="M30.8756 9.15827C30.8756 8.35978 30.7981 7.53028 30.6407 6.67494C30.4858 5.81961 30.2226 4.8945 29.8535 3.90479H30.3981C30.6459 4.48362 30.9117 5.202 31.193 6.06251C31.4769 6.92302 31.6163 7.95407 31.6163 9.15827C31.6163 10.3625 31.4743 11.3832 31.193 12.2489C30.9091 13.1119 30.6459 13.8355 30.3981 14.4143H29.8535C30.2226 13.4246 30.4858 12.5021 30.6407 11.6442C30.7955 10.7888 30.8756 9.95934 30.8756 9.15827Z" fill="#231815"/>
<path d="M36.5499 10.5354C36.3306 11.0729 36.0183 11.3416 35.6182 11.3416C35.2182 11.3416 34.8904 11.0729 34.6633 10.5354C34.4362 9.99787 34.32 9.36476 34.32 8.63346C34.32 7.90216 34.4336 7.28973 34.6633 6.74965C34.8904 6.20957 35.2104 5.93824 35.6182 5.93824C36.026 5.93824 36.3306 6.20699 36.5499 6.74448C36.7693 7.28198 36.8803 7.9125 36.8803 8.63604C36.8803 9.35959 36.7693 10.0005 36.5499 10.5379V10.5354ZM37.1874 5.93824C36.8029 5.26896 36.2738 4.93303 35.6053 4.93303C34.9369 4.93303 34.4155 5.26896 34.0181 5.93824C33.6206 6.60752 33.4219 7.50938 33.4219 8.64638C33.4219 9.78339 33.6206 10.6749 34.0181 11.3468C34.4155 12.0212 34.9446 12.3572 35.6053 12.3572C36.266 12.3572 36.8003 12.0186 37.1874 11.3416C37.572 10.6646 37.7655 9.7653 37.7655 8.64638C37.7655 7.52746 37.572 6.61011 37.1874 5.93824ZM40.2665 4.17847H39.358V14.2306H40.2665V4.17847Z" fill="#231815"/>
<path d="M49.9982 11.1426H47.9335V14.228H47.025V11.1426H44.9732V14.1117H44.0647V11.1426H42V10.1839H50.0008V11.1426H49.9982ZM49.0201 9.25876H43.0737V4.50659H48.9736V5.47821H43.995V6.41366H48.9401V7.37236H43.995V8.28713H49.0227V9.25876H49.0201Z" fill="#231815"/>
<path d="M3.42745 1.66154H7.38915C7.50013 1.68738 7.63434 1.76749 7.67305 1.98197V9.38542C7.6395 9.57406 7.5311 9.65934 7.42787 9.69293H3.49456C2.81578 10.3726 3.51779 10.7963 3.51779 10.7963H7.40206C7.50788 10.8248 7.63176 10.9023 7.67305 11.0987V11.4785C7.62918 11.662 7.51046 11.737 7.40464 11.7628H4.70759C4.02881 12.4424 4.73082 12.8688 4.73082 12.8688H7.38141C7.49497 12.8946 7.63692 12.9747 7.67305 13.197V15.1144C7.67305 15.1144 7.72467 15.7707 8.34409 15.856H8.80866H9.29129C9.29129 15.856 10.0062 15.4529 9.37646 14.8224H9.04094C8.80865 14.7707 8.80866 14.5459 8.80866 14.5459V13.1479C8.85511 12.9592 8.98416 12.8895 9.09256 12.8636H11.8257C12.4916 12.1969 11.8257 11.7576 11.8257 11.7576H9.08223C8.97383 11.7292 8.84479 11.6465 8.80866 11.4398V11.0909C8.84995 10.8945 8.97125 10.8196 9.07965 10.7912H13.1472C13.813 10.1245 13.1472 9.68776 13.1472 9.68776H9.04868C8.95061 9.65417 8.84995 9.57923 8.80866 9.40868V1.95354C8.85253 1.76232 8.98158 1.68996 9.08739 1.66412H13.0543C13.7201 0.997423 13.0543 0.56071 13.0543 0.56071H3.40423C2.72545 1.24033 3.42745 1.66412 3.42745 1.66412V1.66154ZM5.60058 7.50678H3.53327C3.53327 7.50678 2.87772 8.01327 3.59005 8.42672H6.20968C6.20968 8.42672 6.65876 8.26651 6.65876 7.97709V3.21717C6.65876 2.93033 6.20968 2.76753 6.20968 2.76753H3.59005C2.87772 3.18099 3.53327 3.68748 3.53327 3.68748H5.60058C5.80706 3.68748 5.80706 3.8942 5.80706 3.8942V5.22243H3.6649C3.3939 5.22243 3.43004 5.59713 3.43004 5.59713C3.43004 5.59713 3.39648 5.97182 3.6649 5.97182H5.80706V7.30005C5.80706 7.30005 5.80706 7.50678 5.60058 7.50678ZM16.5514 10.0831V0.695083C15.9423 0.0955712 15.4493 0.648569 15.4493 0.648569V10.1064C14.9564 17.1713 8.25376 17.1713 8.25376 17.1713C8.25376 17.1713 1.58727 17.1713 1.09689 10.1064V5.29737V0.651153C1.09689 0.651153 0.6091 0.0981553 4.58048e-06 0.695083V5.29737V10.0831C4.58048e-06 10.0831 -0.348419 17.7011 8.25118 18.2282C16.8998 17.6985 16.5488 10.0831 16.5488 10.0831H16.5514ZM10.254 8.42672H12.8736C13.5859 8.01327 12.9304 7.50678 12.9304 7.50678H10.8631C10.6566 7.50678 10.6566 7.30005 10.6566 7.30005V5.97182H12.7987C13.0697 5.97182 13.0336 5.59713 13.0336 5.59713C13.0336 5.59713 13.0672 5.22243 12.7987 5.22243H10.6566V3.8942C10.6566 3.8942 10.6566 3.68748 10.8631 3.68748H12.9304C12.9304 3.68748 13.5859 3.18099 12.8736 2.76753H10.254C10.254 2.76753 9.80489 2.92775 9.80489 3.21717V5.59971V7.98226C9.80489 8.26909 10.254 8.43189 10.254 8.43189V8.42672Z" fill="#E7E6E7"/>
<path d="M9.08057 10.5224H13.1481C13.814 9.8557 13.1481 9.41898 13.1481 9.41898H9.0496C8.95153 9.38539 8.85087 9.31045 8.80958 9.1399V1.67701C8.85345 1.48579 8.9825 1.41343 9.08832 1.38759H13.0552C13.7211 0.720893 13.0552 0.28418 13.0552 0.28418H3.40515C2.72637 0.963799 3.42838 1.38759 3.42838 1.38759H7.39008C7.50105 1.41343 7.63526 1.49354 7.67398 1.70802V9.11148C7.64042 9.30012 7.53203 9.38539 7.42879 9.41898H3.49548C2.8167 10.0986 3.51871 10.5224 3.51871 10.5224H7.40298C7.5088 10.5508 7.63268 10.6283 7.67398 10.8247V11.2046C7.6301 11.3881 7.51138 11.463 7.40556 11.4889H4.70851C4.02973 12.1685 4.73174 12.5923 4.73174 12.5923H7.38233C7.49589 12.6181 7.63784 12.6982 7.67398 12.9204V14.8378C7.67398 14.8378 7.72559 15.4942 8.34501 15.5795H9.29221C9.29221 15.5795 10.0071 15.1764 9.37738 14.5458H9.04186C8.80958 14.4942 8.80958 14.2693 8.80958 14.2693V12.8713C8.85603 12.6827 8.98508 12.6129 9.09348 12.5871H11.8267C12.4925 11.9204 11.8267 11.4837 11.8267 11.4837H9.08315C8.97475 11.4553 8.84571 11.3726 8.80958 11.1658V10.817C8.85087 10.6206 8.97217 10.5457 9.08057 10.5146V10.5224ZM5.59892 7.23283H3.53161C3.53161 7.23283 2.87606 7.73932 3.58839 8.15277H6.20802C6.20802 8.15277 6.6571 7.99256 6.6571 7.70314V2.94064C6.6571 2.6538 6.20802 2.491 6.20802 2.491H3.58839C2.87606 2.90446 3.53161 3.41094 3.53161 3.41094H5.59892C5.8054 3.41094 5.8054 3.61767 5.8054 3.61767V4.9459H3.66324C3.39224 4.9459 3.42838 5.3206 3.42838 5.3206C3.42838 5.3206 3.39482 5.69529 3.66324 5.69529H5.8054V7.02352C5.8054 7.02352 5.8054 7.23025 5.59892 7.23025V7.23283ZM10.2523 8.15277H12.8719C13.5843 7.73932 12.9287 7.23283 12.9287 7.23283H10.8614C10.6549 7.23283 10.6549 7.0261 10.6549 7.0261V5.69788H12.7971C13.0681 5.69788 13.0319 5.32318 13.0319 5.32318C13.0319 5.32318 13.0655 4.94849 12.7971 4.94849H10.6549V3.62026C10.6549 3.62026 10.6549 3.41353 10.8614 3.41353H12.9287C12.9287 3.41353 13.5843 2.90704 12.8719 2.49359H10.2523C10.2523 2.49359 9.80323 2.6538 9.80323 2.94322V5.32576V7.70831C9.80323 7.99514 10.2523 8.15794 10.2523 8.15794V8.15277Z" fill="#0B0707"/>
<path d="M16.3998 4.88135H15.3184V9.48364H16.3998V4.88135Z" fill="#7CAE2A"/>
<path d="M15.3184 0.232554C15.3184 0.232554 15.801 -0.320444 16.3998 0.279068V4.88136H15.3184V0.232554Z" fill="#CBDA00"/>
<path d="M16.3968 9.48354V9.66701C16.3968 9.66701 16.7426 17.2849 8.26172 17.8121V16.7526C8.26172 16.7526 14.8353 16.7526 15.3179 9.68769V9.48096H16.3993L16.3968 9.48354Z" fill="#4E8730"/>
<path d="M1.22007 4.88403H0.138672V9.48632H1.22007V4.88403Z" fill="#00927E"/>
<path d="M1.21945 0.235239C1.21945 0.235239 0.736816 -0.317759 0.140625 0.281753V4.88404H1.21945V0.235239Z" fill="#63C0AD"/>
<path d="M0.138685 9.48623V9.6697C0.138685 9.6697 -0.207157 17.2876 8.27372 17.8148V16.7553C8.27372 16.7553 1.70014 16.7553 1.21751 9.69037V9.48364H0.138685V9.48623Z" fill="#005F54"/>
</g>
<defs>
<clipPath id="clip0_422_520">
<rect width="50" height="18.2309" fill="white"/>
</clipPath>
</defs>
</svg>
