<svg width="50" height="17" viewBox="0 0 50 17" fill="none" xmlns="http://www.w3.org/2000/svg">
<g clip-path="url(#clip0_526_506)">
<path d="M17.2621 10.2692C17.9719 7.32936 18.6517 4.46345 19.3615 1.60863C19.6545 0.432686 21.5511 -0.303207 22.5727 0.310653C23.0534 0.599093 22.7717 0.954097 22.6929 1.26472C21.5511 5.97591 20.3605 10.676 19.2639 15.3946C18.9859 16.5927 18.1372 16.43 17.3973 16.3265C16.5447 16.2044 15.2978 17.0143 14.9223 15.4796C13.7505 10.7093 12.5674 5.94633 11.4031 1.17597C11.3055 0.780293 11.1365 0.155339 11.8463 0.277372C12.819 0.44378 14.235 -0.488104 14.6631 1.19816C15.3429 3.87548 15.9776 6.56389 16.6236 9.2523C16.71 9.6036 16.6912 9.99929 17.2583 10.2766L17.2621 10.2692Z" fill="#1A3D8F"/>
<path d="M3.3724 8.54955C3.44752 9.63305 3.47381 10.9902 3.65784 12.3252C3.79304 13.2792 4.24373 14.1519 5.45307 14.0706C6.57604 13.9966 6.91781 13.1313 6.88401 12.2327C6.80889 10.1064 8.39381 10.9199 9.3703 10.8756C10.7975 10.809 10.2529 11.9665 10.2003 12.6247C10.0313 14.8102 8.57408 16.2857 6.43332 16.5852C3.65033 16.9772 1.43069 16.0046 0.795973 13.7674C-0.225585 10.1619 -0.315722 6.4676 0.784706 2.8584C1.44947 0.6951 3.57897 -0.270065 6.27558 0.0627501C8.49521 0.336399 9.89986 1.70464 10.144 3.90862C10.2041 4.44112 10.5496 5.33973 9.48673 5.22509C8.59662 5.12894 7.24831 6.02015 6.89527 4.41894C6.68495 3.45747 6.54224 2.53298 5.29158 2.54038C3.94327 2.54777 3.71793 3.61648 3.59775 4.59274C3.44752 5.80937 3.45127 7.04448 3.3724 8.54585V8.54955Z" fill="#1B3E8F"/>
<path d="M23.8332 10.6095C23.8332 9.44093 23.8332 8.27608 23.8332 7.10752C23.8257 5.20308 24.8134 4.37474 26.4847 5.26225C27.2321 5.65793 27.4462 5.46194 27.9645 5.21047C30.1916 4.12697 32.2648 5.25855 32.3399 7.65482C32.4188 10.1694 32.3024 12.6914 32.3887 15.206C32.4338 16.5114 31.6301 16.3339 30.8189 16.3524C29.9813 16.3709 29.2339 16.4707 29.2903 15.1912C29.3842 12.9836 29.3353 10.7685 29.3015 8.56082C29.2903 7.77685 29.3128 6.77101 28.1748 6.7969C27.142 6.81908 26.9692 7.72878 26.9617 8.56452C26.9429 10.713 26.8829 12.8652 26.9767 15.0137C27.0331 16.2637 26.4322 16.3968 25.4031 16.3857C24.4078 16.3746 23.7205 16.3228 23.8107 15.0322C23.9158 13.5641 23.837 12.085 23.8332 10.6132V10.6095Z" fill="#1C3E8F"/>
<path d="M39.6521 11.0716C39.3403 11.0716 39.0173 11.1234 38.7169 11.0642C36.8578 10.6944 36.6287 11.6892 36.8503 13.1425C36.9705 13.9449 37.2521 14.6549 38.1498 14.6808C38.9272 14.703 39.4305 14.1002 39.4718 13.368C39.592 11.3674 41.1581 12.1736 41.9844 12.2919C43.3026 12.4842 42.4839 13.5751 42.2998 14.1927C41.7853 15.9122 40.3394 16.6481 37.9545 16.6222C36.1029 16.6 34.5856 16.038 34.0786 14.1039C33.5114 11.9332 33.395 9.71816 34.0185 7.54007C34.5893 5.54317 36.2306 4.64827 38.7469 4.83686C40.9928 5.00697 42.2435 6.11266 42.544 8.1983C42.8194 10.1163 41.8567 11.0741 39.6558 11.0716H39.6521Z" fill="#1B3E8F"/>
<path d="M45.0348 11.02C45.0348 10.0992 45.0348 9.1821 45.0348 8.26131C45.0348 7.65115 45.1287 7.05208 44.1522 6.99661C43.2696 6.94484 43.5701 5.77259 43.6452 5.743C45.2339 5.11435 44.8921 2.87339 46.7324 2.36308C47.8779 2.04505 48.1483 2.11531 48.062 3.27277C47.9943 4.20466 47.7239 5.35842 49.4215 5.16243C50.0675 5.08847 49.9774 5.65795 49.9961 6.07582C50.0187 6.61572 49.9361 7.11494 49.23 7.02989C47.9267 6.86718 48.0357 7.70292 48.0469 8.52756C48.0657 9.81445 48.0507 11.1013 48.0544 12.3882C48.0544 13.4126 47.799 14.57 49.5229 14.5108C50.1501 14.4887 49.9511 15.1247 49.9924 15.5204C50.045 16.027 49.8196 16.2341 49.2976 16.3857C46.7625 17.129 45.0949 15.9974 45.0386 13.4163C45.0198 12.6212 45.0386 11.8224 45.0386 11.0237L45.0348 11.02Z" fill="#1C3E8F"/>
<path d="M38.1439 9.26699C37.5768 9.19303 36.6829 9.57762 36.8332 8.37948C36.9383 7.53265 37.1674 6.71171 38.189 6.70801C39.1918 6.70801 39.4847 7.45499 39.5486 8.3499C39.6274 9.48517 38.8275 9.2411 38.1439 9.26699Z" fill="#F9FAFC"/>
</g>
<defs>
<clipPath id="clip0_526_506">
<rect width="50" height="16.6667" fill="white"/>
</clipPath>
</defs>
</svg>
