<svg xmlns="http://www.w3.org/2000/svg" viewBox="0 0 19.5 20.5"><defs><style>.cls-1,.cls-2{fill:none;stroke:#757a8c;stroke-width:1.5px;}.cls-2{stroke-linecap:round;stroke-linejoin:round;}</style></defs><g id="레이어_2" data-name="레이어 2"><g id="레이어_1-2" data-name="레이어 1"><path class="cls-1" d="M14.75.75h-10a4,4,0,0,0-4,4v11a4,4,0,0,0,4,4h10a4,4,0,0,0,4-4v-11A4,4,0,0,0,14.75.75Z"/><path class="cls-2" d="M7.75,15.75h4"/><path class="cls-2" d="M5.75,12.75h8"/><path class="cls-1" d="M12.24,5.22a1.88,1.88,0,0,0-2.49,0h0a1.88,1.88,0,0,0-2.49,0,1.51,1.51,0,0,0,0,2.26L9.75,9.75l2.49-2.27A1.51,1.51,0,0,0,12.24,5.22Z"/></g></g></svg>