<svg xmlns="http://www.w3.org/2000/svg" viewBox="0 0 21.5 19.75"><defs><style>.cls-1{fill:none;stroke:#757a8c;stroke-width:1.5px;}.cls-2,.cls-3{fill:#757a8c;}.cls-3{fill-rule:evenodd;}</style></defs><g id="레이어_2" data-name="레이어 2"><g id="레이어_1-2" data-name="레이어 1"><circle class="cls-1" cx="8.75" cy="7.75" r="5"/><path class="cls-2" d="M7.9,13.5H9.6V12H7.9Zm0-1.5A7.73,7.73,0,0,0,0,19.75H1.5A6.23,6.23,0,0,1,7.9,13.5Zm1.7,1.5A6.23,6.23,0,0,1,16,19.75h1.5A7.73,7.73,0,0,0,9.6,12Z"/><path class="cls-3" d="M14.25,1.5a4,4,0,0,0-1.67.39A6.74,6.74,0,0,0,11,1.12,5.32,5.32,0,0,1,14.25,0a5.25,5.25,0,0,1,3,9.54,6.57,6.57,0,0,1,4.23,6.21H20a5.23,5.23,0,0,0-4.83-5.21,6.56,6.56,0,0,0,.51-1.82A3.75,3.75,0,0,0,14.25,1.5Z"/></g></g></svg>