<svg xmlns="http://www.w3.org/2000/svg" width="50" height="46.87" viewBox="0 0 50 46.87">
    <path data-name="패스 53" d="M44.348 9.35H5.655A5.661 5.661 0 0 0 0 15.008v35.561a5.658 5.658 0 0 0 5.655 5.651h38.693A5.655 5.655 0 0 0 50 50.569V15.008a5.658 5.658 0 0 0-5.652-5.658zm-12.015 8.414a5.462 5.462 0 1 1-5.462 5.462 5.463 5.463 0 0 1 5.462-5.462zm10.241 33.229H8.208a1.545 1.545 0 0 1-1.5-2.438l9.374-18.567a1.578 1.578 0 0 1 2.89-.269L28.4 42.037a2.311 2.311 0 0 0 3.579.227l2.306-2.335a2.195 2.195 0 0 1 3.486.295l5.971 8.529c.858 1.238.341 2.24-1.168 2.24z" style="fill:#b2b8cc" transform="translate(0 -9.35)"/>
</svg>
